<svg xmlns="http://www.w3.org/2000/svg" viewBox="0 0 508.609 508.609"><circle cx="150.887" cy="200.053" r="39.672" fill="#eeb490"/><circle cx="357.722" cy="200.053" r="39.672" fill="#eeb490"/><path fill="#9d90c5" d="M463.513 508.609H45.097v-74.935c0-34.925 26.109-64.085 60.355-68.493l92.228-36.62h113.25l92.228 36.62c34.585 4.069 60.355 33.568 60.355 68.493z"/><path fill="#8075af" d="M178.013 348.567v33.568c0 42.723 34.924 78.665 77.648 77.987 41.367-.678 74.596-34.585 74.596-76.291v-35.264a21.996 21.996 0 0 0-22.04-22.04H199.714c-11.868.339-21.701 10.172-21.701 22.04"/><path fill="#eeb490" d="M202.087 300.419v55.608c0 28.821 23.396 52.217 52.217 52.217s52.217-23.396 52.217-52.217v-55.608z"/><path fill="#faccb4" d="M306.861 94.601H201.748c-24.752 0-44.758 20.005-44.758 44.758v100.705c0 53.913 43.74 97.314 97.314 97.314 53.913 0 97.314-43.74 97.314-97.314V139.359c.001-24.752-20.005-44.758-44.757-44.758"/><g fill="#56545f"><path d="M351.619 52.895s74.935 9.833 0 151.226V146.14s-5.425-41.706-30.856-44.079z"/><path d="M300.758 0h-92.906c-3.73 0-7.46.339-10.85 1.017-140.376 0-40.011 210.225-40.011 210.225 0-81.038 50.861-81.377 50.861-81.377h93.245c35.942 0 64.763-29.16 64.763-64.763C365.86 29.16 336.699 0 300.758 0"/></g></svg>