<svg xmlns="http://www.w3.org/2000/svg" viewBox="0 0 496.159 496.159"><path fill="#d61e1e" d="M248.083.003C111.071.003 0 111.063 0 248.085c0 137.001 111.07 248.07 248.083 248.07 137.006 0 248.076-111.069 248.076-248.07C496.159 111.062 385.089.003 248.083.003"/><path fill="#f4eded" d="M248.082 39.002C132.609 39.002 39 132.602 39 248.084c0 115.463 93.609 209.072 209.082 209.072 115.468 0 209.077-93.609 209.077-209.072 0-115.482-93.609-209.082-209.077-209.082"/><path fill="#5b5147" d="M386.979 180.867c-1.495-9.986-59.138-26.916-64.146-34.079-5.008-7.16-10.809-46.878-16.081-48.199-5.272-1.317-14.499 46.132-20.001 58.225-3.88 8.521-26.566 42.209-30.581 47.637 0 0-97.042 8.154-102.409 5.806-5.364-2.354-38.13-49.713-44.1-46.111-5.97 3.604 30.024 67.576 30.024 67.576s8.615 34.928 7.58 56.673c-.494 10.381-10.031 31.471-9.042 40.861 1.313 12.447 2.72 48.191 5.747 50.747 3.028 2.555 15.507 1.645 17.3 0 1.795-1.646 1.152-46.794 1.152-46.794s19.772-42.838 32.954-49.429c13.182-6.589 81.723 3.297 86.003 9.561 4.283 6.261 12.852 80.649 14.829 82.709s15.324 2.636 17.919.582c2.599-2.053 2.006-126.289 2.006-126.289 2.362-4.979 13.457-43.112 16.722-43.417 4.357-.408 20.031 5.02 34.079 4.013 14.044-1.01 21.539-20.079 20.045-30.072"/><path fill="#d61e1e" d="M85.851 60.394A249.6 249.6 0 0 0 60.394 85.85l349.914 349.914a249.6 249.6 0 0 0 25.456-25.456z"/></svg>