<svg xmlns="http://www.w3.org/2000/svg" width="64" height="64" viewBox="0 0 64 64"><path d="M51.288 35.673q-2.347-3.366-7.269-4.481 3.923-1.577 5.808-4.692t1.884-7.116q0-7.654-5.846-11.519C40.019 4 36.544 4 29.596 4H10.365v56h22q10.27 0 15.77-4.192 5.499-4.192 5.499-12.384 0-4.384-2.346-7.75zM23.404 14h6.193q4.615 0 6.847 1.635 2.23 1.635 2.23 5.212 0 3.154-2.193 4.788t-6.616 1.712h-6.461zm15.192 34.365Q36.519 50 32.365 50h-8.961V35.962h9.693q4 0 5.788 1.865 1.79 1.866 1.789 5.52 0 3.384-2.077 5.019z"/></svg>