<svg xmlns="http://www.w3.org/2000/svg" width="48" height="48" viewBox="0 0 48 48"><path fill="red" d="M12.847 7.992c-.534 0-1.068.215-1.463.611l-.003.003-2.786 2.81c-.791.791-.791 2.135 0 2.926l.003.003 9.726 9.653-9.728 9.681-.002.002c-.791.791-.791 2.135 0 2.926l2.814 2.814c.791.791 2.135.791 2.926 0l9.728-9.657 9.609 9.655.002.002c.791.791 2.135.791 2.926 0l2.813-2.813c.791-.791.791-2.134.002-2.925l-.002-.002-9.634-9.683 9.609-9.656.002-.002c.805-.807.82-2.156-.026-2.95L36.572 8.6c-.79-.79-2.134-.79-2.925 0l-.003.003-9.583 9.654L14.308 8.6a2.08 2.08 0 0 0-1.463-.61z"/></svg>