<svg xmlns="http://www.w3.org/2000/svg" viewBox="0 0 502 502"><path fill="#d1dceb" d="M390.089 126.779h-86.474V80.468L233.148 10H41.444v365.221h156.941V492h262.171V197.247z"/><path fill="#4ec9dc" d="M233.148 80.468V10l70.467 70.468zM390.089 197.247v-70.468l70.467 70.468z"/><path d="m467.628 190.176-70.469-70.468a10 10 0 0 0-7.071-2.929h-76.473V80.468c0-2.652-1.054-5.196-2.929-7.071L240.219 2.929A10 10 0 0 0 233.146 0H41.444c-5.522 0-10 4.477-10 10v365.221c0 5.523 4.478 10 10 10h146.941V492c0 5.523 4.478 10 10 10h262.172c5.522 0 10-4.477 10-10V197.247c0-2.652-1.054-5.196-2.929-7.071m-31.214-2.929h-36.326v-36.326l18.163 18.163zM279.473 70.468h-36.326V34.142l18.163 18.163zM87.286 116.779c-5.522 0-10 4.477-10 10s4.478 10 10 10h101.099v29.919H87.286c-5.522 0-10 4.477-10 10s4.478 10 10 10h101.099v30.01H87.286c-5.522 0-10 4.477-10 10s4.478 10 10 10h101.099v30.009H87.286c-5.522 0-10 4.477-10 10s4.478 10 10 10h101.099v78.504H51.444V20h171.703v60.468c0 5.523 4.478 10 10 10h60.469v26.311zm292.803 20v60.468c0 5.523 4.478 10 10 10h60.469V482H208.385V136.779z"/><path d="M244.229 253.468H369.63c5.522 0 10-4.477 10-10s-4.478-10-10-10H244.229c-5.522 0-10 4.477-10 10s4.477 10 10 10M414.714 283.478H244.229c-5.522 0-10 4.477-10 10s4.478 10 10 10h170.486c5.522 0 10-4.477 10-10s-4.479-10-10.001-10M414.714 333.487H244.229c-5.522 0-10 4.477-10 10s4.478 10 10 10h170.486c5.522 0 10-4.477 10-10s-4.479-10-10.001-10M414.714 383.497H244.229c-5.522 0-10 4.477-10 10s4.478 10 10 10h170.486c5.522 0 10-4.477 10-10s-4.479-10-10.001-10M414.714 233.468h-16.67c-5.522 0-10 4.477-10 10s4.478 10 10 10h16.67c5.522 0 10-4.477 10-10s-4.478-10-10-10"/></svg>