<svg xmlns="http://www.w3.org/2000/svg" width="48" height="48" viewBox="0 0 48 48"><g stroke-width="1.043"><g fill="#444"><path d="M7.301 27.118H1.043a1.042 1.042 0 1 1 0-2.086h6.258a1.042 1.042 0 1 1 0 2.086M11.666 14.8c-.267 0-.535-.102-.738-.306l-4.365-4.37A1.044 1.044 0 0 1 8.04 8.649l4.365 4.37a1.044 1.044 0 0 1-.738 1.781zM36.312 14.8a1.044 1.044 0 0 1-.738-1.781l4.365-4.37a1.045 1.045 0 0 1 1.477 1.475l-4.365 4.37a1.04 1.04 0 0 1-.738.306zM7.301 45.892a1.044 1.044 0 0 1-.737-1.782l4.369-4.364a1.045 1.045 0 0 1 1.475 1.477l-4.369 4.364c-.203.202-.47.305-.737.305zM40.677 45.892a1.04 1.04 0 0 1-.737-.305l-4.369-4.364a1.044 1.044 0 0 1 1.475-1.477l4.369 4.364a1.044 1.044 0 0 1-.737 1.782zM46.935 27.118h-6.258a1.042 1.042 0 1 1 0-2.086h6.258a1.042 1.042 0 1 1 0 2.086"/></g><path fill="#e86c60" d="M32.671 8.923a1.04 1.04 0 0 0-.576-.173h-.002l-16.252.025c-.204 0-.406.062-.576.174-5.555 3.697-9.007 10.658-9.007 18.169 0 11.502 7.954 20.86 17.731 20.86S41.72 38.62 41.72 27.118c0-7.534-3.467-14.505-9.049-18.195"/><g fill="#444"><path d="M35.156.306a1.04 1.04 0 0 0-1.475 0l-3.853 3.853c-1.615-1.296-3.649-2.072-5.84-2.072s-4.225.776-5.84 2.072L14.295.306a1.042 1.042 0 1 0-1.475 1.475l3.848 3.848a9.35 9.35 0 0 0-1.972 4.616c-.022.163-.004.33.051.486.297.843 5.275 3.872 9.241 3.872s8.944-3.029 9.241-3.872c.055-.155.072-.323.051-.486a9.4 9.4 0 0 0-1.972-4.616l3.848-3.848a1.04 1.04 0 0 0 0-1.475"/><path d="M23.989 47.978c.353 0 .696-.039 1.043-.063V13.559a1.042 1.042 0 1 0-2.086 0v34.356c.347.024.69.063 1.043.063"/><circle cx="14.602" cy="22.946" r="3.129"/><circle cx="17.21" cy="34.941" r="2.608"/><circle cx="33.376" cy="22.946" r="3.129"/><circle cx="30.769" cy="34.941" r="2.608"/></g></g></svg>