<svg xmlns="http://www.w3.org/2000/svg" width="48" height="48" viewBox="0 0 48 48"><circle cx="24" cy="24" r="24" fill="#e21b1b"/><path fill="#fff" d="M13.817 10.051a1.87 1.87 0 0 0-1.263.547l-1.956 1.958a1.87 1.87 0 0 0 0 2.647l8.786 8.786-8.786 8.788a1.87 1.87 0 0 0 0 2.647l1.958 1.956a1.87 1.87 0 0 0 2.647 0l8.786-8.786 8.786 8.786a1.87 1.87 0 0 0 2.647 0l1.958-1.956a1.87 1.87 0 0 0 0-2.647l-8.788-8.788 8.788-8.786a1.87 1.87 0 0 0 0-2.647l-1.958-1.958a1.87 1.87 0 0 0-2.647 0l-8.786 8.788-8.788-8.788a1.87 1.87 0 0 0-1.384-.547"/></svg>