<svg xmlns="http://www.w3.org/2000/svg" width="24" height="24"><g stroke-width="1.091"><path fill="#95a5a6" d="M6.546 6.001C2.93 6.001 0 8.838 0 12.547c0 3.6 2.93 6.546 6.546 6.546h10.91c3.616 0 6.546-2.946 6.546-6.546 0-3.709-2.93-6.546-6.546-6.546h-5.455z"/><path fill="#bdc3c7" d="M6.546 4.91C2.93 4.91 0 7.747 0 11.456c0 3.6 2.93 6.546 6.546 6.546h10.91c3.616 0 6.546-2.946 6.546-6.546 0-3.709-2.93-6.546-6.546-6.546h-5.455z"/><path fill="#e74c3c" d="M6.546 7.092c-2.41 0-4.364 1.964-4.364 4.364s1.954 4.364 4.364 4.364h10.91c2.41 0 4.364-1.964 4.364-4.364s-1.954-4.364-4.364-4.364h-5.455z"/><path fill="#c0392b" d="M6.546 7.092a4.37 4.37 0 0 0-4.364 4.364c0 .109.046.327.069.546.269-2.182 2.071-3.819 4.295-3.819h10.91c2.225 0 4.026 1.637 4.296 3.819.022-.218.068-.436.068-.546a4.37 4.37 0 0 0-4.364-4.364h-5.455z"/><path fill="#7f8c8d" d="m12.026 10.692-.025 1.309c-.044 2.073 1.71 3.819 3.819 3.819h1.637a4.37 4.37 0 0 0 4.364-4.364c0-.436-.081-.764-.17-1.091z"/><path fill="#ecf0f1" d="M15.82 7.092c-2.109 0-3.819 1.637-3.819 3.819 0 2.073 1.71 3.819 3.819 3.819h2.182c2.109 0 3.819-1.746 3.819-3.819 0-2.182-1.71-3.819-3.819-3.819z"/><g fill="#bdc3c7"><path d="M14.729 8.183c-.301 0-.546.109-.546.436v3.491c0 .218.244.436.546.436s.546-.218.546-.436V8.619c0-.327-.244-.436-.546-.436M16.911 8.183c-.301 0-.546.109-.546.436v3.491c0 .218.244.436.546.436s.546-.218.546-.436V8.619c0-.327-.244-.436-.546-.436M19.093 8.183c-.301 0-.546.109-.546.436v3.491c0 .218.244.436.546.436s.546-.218.546-.436V8.619c0-.327-.244-.436-.546-.436"/></g></g></svg>