<svg xmlns="http://www.w3.org/2000/svg" viewBox="0 0 512 512"><path fill="#666" d="M256 0c141.378 0 256 114.609 256 256S397.378 512 256 512C114.609 512 0 397.391 0 256S114.609 0 256 0"/><path fill="#06b559" d="M475.905 256c0 121.45-98.456 219.905-219.905 219.905S36.095 377.45 36.095 256 134.55 36.095 256 36.095c57.247 0 109.392 21.886 148.514 57.723a217 217 0 0 1 13.655 13.668c35.85 39.122 57.736 91.267 57.736 148.514"/><path fill="#088443" d="M255.996 410.602c-85.247 0-154.601-69.353-154.601-154.601S170.748 101.4 255.996 101.4c41.296 0 80.121 16.082 109.32 45.282a7.73 7.73 0 0 1-10.93 10.93c-26.28-26.281-61.222-40.755-98.39-40.755-76.724 0-139.143 62.419-139.143 139.143s62.419 139.143 139.143 139.143S395.139 332.724 395.139 256a7.73 7.73 0 0 1 15.458 0c0 85.248-69.354 154.602-154.601 154.602"/><path fill="#088443" d="M255.996 323.179c-37.042 0-67.176-30.136-67.176-67.177s30.136-67.176 67.176-67.176c17.944 0 34.814 6.988 47.503 19.677a7.73 7.73 0 0 1-10.93 10.93c-9.768-9.77-22.758-15.15-36.573-15.15-28.518 0-51.718 23.201-51.718 51.718s23.201 51.719 51.718 51.719 51.719-23.201 51.719-51.719a7.73 7.73 0 0 1 15.458 0c0 37.042-30.137 67.178-67.177 67.178"/><path fill="#f7b239" d="M418.169 107.486 262.827 262.827c-1.881 1.894-4.354 2.834-6.827 2.834s-4.947-.94-6.84-2.834c-3.774-3.761-3.774-9.88 0-13.655L404.514 93.818a217 217 0 0 1 13.655 13.668"/><circle cx="386.145" cy="199.771" r="10.305" fill="#f95428"/></svg>