<svg xmlns="http://www.w3.org/2000/svg" width="64" height="64" viewBox="0 0 64 64"><g stroke-width=".109"><path fill="#d4145a" d="M47.438 43.986h10.356v10.356H47.438zM37.082 43.986h10.356v10.356H37.082z"/><path fill="#9e005d" d="M26.726 43.986h10.356v10.356H26.726z"/><path fill="#93278f" d="M16.37 43.986h10.356v10.356H16.37z"/><path fill="#662d91" d="M6.014 43.986H16.37v10.356H6.014z"/><path fill="#0087ce" d="M47.438 33.63h10.356v10.356H47.438z"/><path fill="#008fd0" d="M37.082 33.63h10.356v10.356H37.082z"/><path fill="#0098d2" d="M26.726 33.63h10.356v10.356H26.726z"/><path fill="#00a4d4" d="M16.37 33.63h10.356v10.356H16.37z"/><path fill="#00b4d7" d="M6.014 33.63H16.37v10.356H6.014z"/><path fill="#595e62" d="M47.438 23.274h10.356V33.63H47.438z"/><path fill="#7e8488" d="M37.082 23.274h10.356V33.63H37.082z"/><path fill="#afb6bb" d="M26.726 23.274h10.356V33.63H26.726z"/><path fill="#e7eced" d="M16.37 23.274h10.356V33.63H16.37z"/><path fill="#f1f2f2" d="M6.014 23.274H16.37V33.63H6.014z"/><path fill="#ffd311" d="M47.438 12.918h10.356v10.356H47.438z"/><path fill="#fdb51e" d="M37.082 12.918h10.356v10.356H37.082z"/><path fill="#ed1c24" d="M37.082 12.918v10.356H26.726V12.918h3.452zM16.37 12.918h10.356v10.356H16.37z"/><path fill="#c1272d" d="M6.014 12.918H16.37v10.356H6.014z"/><path fill="#364853" d="M57.794 54.342v4.603H6.013v-4.603h41.424zM30.178 4.863v8.055H6.014V4.863z"/><path d="M31.041 12.055V4H5.151v55.808h53.507V12.055zm6.904 41.424v-8.63h8.63v8.63zm0-10.356v-8.63h8.63v8.63zM25.863 24.137v8.63h-8.63v-8.63zm0 10.356v8.63h-8.63v-8.63zm1.726 0h8.63v8.63h-8.63zm10.356-1.726v-8.63h8.63v8.63zm-1.726 0h-8.63v-8.63h8.63zM25.863 22.411h-8.63v-8.63h8.63zm-8.63 22.438h8.63v8.63h-8.63zm10.356 0h8.63v8.63h-8.63zm18.986-31.068v8.63h-8.63v-8.63zm-10.356 8.63h-8.63v-8.63h8.63zM6.877 5.726h22.438v6.329H6.877zm0 8.055h8.63v8.63h-8.63zm0 10.356h8.63v8.63h-8.63zm0 10.356h8.63v8.63h-8.63zm0 10.356h8.63v8.63h-8.63zm50.055 13.233H6.877v-2.877h50.055zm-8.63-4.603v-8.63h8.63v8.63zm0-10.356v-8.63h8.63v8.63zm0-10.356v-8.63h8.63v8.63zm0-10.356v-8.63h8.63v8.63z"/></g></svg>