<svg xmlns="http://www.w3.org/2000/svg" viewBox="0 0 280.221 280.221"><path fill="#efc75e" d="M35.1 96.452h210.02c9.661 0 17.502 7.841 17.502 17.502v148.765c0 9.67-7.841 17.502-17.502 17.502H35.1c-9.661 0-17.502-7.832-17.502-17.502V113.954c0-9.67 7.841-17.502 17.502-17.502"/><path fill="#d7b354" d="M245.12 96.452H35.1c-9.661 0-17.502 7.841-17.502 17.502v17.502c0 9.67 7.841 17.502 17.502 17.502h210.02c9.661 0 17.502-7.832 17.502-17.502v-17.502c0-9.67-7.84-17.502-17.502-17.502"/><path fill="#b29446" d="M70.104 105.203c-14.5 0-26.253 7.841-26.253 17.502 0 9.67 11.752 17.502 26.253 17.502s26.253-7.832 26.253-17.502-11.753-17.502-26.253-17.502m140.014 0c-14.491 0-26.253 7.841-26.253 17.502 0 9.67 11.761 17.502 26.253 17.502 14.5 0 26.253-7.832 26.253-17.502s-11.753-17.502-26.253-17.502"/><path fill="#d1d5d7" d="M140.111 0C91.78 0 52.602 39.195 52.602 87.526v35.362c0 4.839 7.841 8.751 17.502 8.751s17.502-3.912 17.502-8.751V85.015c0-27.618 23.514-49.994 52.505-49.994 29 0 52.505 22.376 52.505 49.994v37.874c0 4.839 7.841 8.751 17.502 8.751s17.502-3.912 17.502-8.751V87.526C227.618 39.195 188.441 0 140.111 0"/><path fill="#dadddf" d="M140.111 17.502c-48.331 0-70.007 39.195-70.007 87.526v26.611c9.661 0 17.502-3.912 17.502-8.751V85.015c0-27.618 23.514-49.994 52.505-49.994 29 0 52.505 22.376 52.505 49.994v37.874c0 4.839 7.841 8.751 17.502 8.751v-26.611c0-48.332-21.677-87.527-70.007-87.527"/></svg>