<svg xmlns="http://www.w3.org/2000/svg" width="64" height="64" viewBox="0 0 64 64"><path fill="#b6b6b6" d="m22.707 51.643 12.199-8.167"/><path fill="#fff" d="M58.581 13.081 1.926 24.763l17.679 9.305 39.803-20.367c-.414-.103-.62-.31-.827-.62"/><g fill="#4d4d4d" stroke="#4d4d4d" stroke-linecap="round" stroke-linejoin="round" stroke-width="1.946"><path d="M47.496 52.652a.8.8 0 0 1-.517-.206L26.312 39.013c-.31-.103-.517-.414-.517-.827 0-.31.103-.62.414-.827l24.8-18.186-30.897 15.81q-.465.154-.93 0l-17.67-9.3c-.414-.206-.62-.62-.517-1.033 0-.517.31-.827.723-.93l59.934-12.4h.517c.206.103.414.206.62.414v.103c.206.206.206.414.206.62v.309L48.528 52.033a.93.93 0 0 1-.62.62h-.414zM28.69 38.082l18.289 11.883 12.813-34.721zM5.027 25.165l14.57 7.75 35.133-17.98z"/><path d="M22.696 52.652c-.31 0-.62-.206-.827-.414-.31-.517-.206-1.136.31-1.447l12.194-8.163c.517-.31 1.136-.206 1.447.31s.206 1.136-.31 1.447l-12.194 8.163c-.206 0-.414.103-.62.103z"/><path d="M22.799 52.652q-.155 0 0 0c-.517 0-.93-.414-1.033-.827l-3.203-17.567c-.103-.414.103-.93.517-1.136l42.366-21.7c.517-.206 1.033-.103 1.344.414.31.414.206 1.033-.31 1.344L27.76 38.807l-4.03 13.124a.99.99 0 0 1-.93.723zm-2.067-17.98 2.273 12.606 2.79-9.3c.103-.206.206-.414.414-.517l24.8-18.186z"/></g><g fill="#fff"><path d="m29.289 38.882 17.69 11.083 12.813-33.72zM4.326 24.865l15.269 8.051 35.633-19.18"/><path d="m20.732 34.671 2.273 12.606 2.79-9.3c.103-.206.206-.414.414-.517L59.38 13.694z"/><path d="m24.654 49.748 3.11-9.171 5.042 3.467z"/></g></svg>