<svg xmlns="http://www.w3.org/2000/svg" viewBox="0 0 512 512"><g fill="#fff"><path d="M495.183 255.927c0 132.038-107.296 239.32-239.353 239.32S16.477 387.964 16.477 255.926 123.773 16.607 255.83 16.607s239.353 107.282 239.353 239.32"/><path d="M470.422 255.927c0 132.038-95.741 239.32-214.592 239.32S41.237 387.964 41.237 255.926 136.98 16.607 255.83 16.607s214.592 107.282 214.592 239.32"/><path d="M41.237 255.927c0-132.038 95.742-239.32 214.593-239.32-132.057 0-239.353 107.282-239.353 239.32s107.296 239.32 239.353 239.32c-118.851 0-214.593-107.282-214.593-239.32"/><path d="M201.356 181.655h-68.504c-9.905 0-17.333 7.428-17.333 17.33v105.631c0 9.903 7.428 17.33 17.333 17.33h68.504c3.301 0 5.778.825 9.08 2.476L320.207 426.75c11.556 6.602 26.412-1.65 26.412-14.854V91.705c0-13.204-14.856-21.457-26.412-14.854L210.436 179.18c-2.476 1.65-5.779 2.475-9.08 2.475"/></g><g fill="#393"><path d="M201.493 181.702h-68.554c-9.91 0-17.344 7.43-17.344 17.334v105.66c0 9.906 7.433 17.334 17.344 17.334h68.554c3.304 0 5.78.826 9.085-8.254l94.982 102.358c11.563 17.334 16.52 9.08 16.52-4.128V91.726c0-13.207-4.957-7.43-16.52-.827l-94.982 88.325c-2.478 1.65-5.783 2.477-9.085 2.477"/><path d="M329.513 437.597c-4.13 0-9.085-.825-13.216-3.302-.826 0-.826-.825-1.652-.825L205.621 331.112c-.826-.826-2.478-.826-4.13-.826h-68.553c-14.042 0-25.603-11.556-25.603-25.588V199.036c0-14.033 11.563-25.588 25.603-25.588h68.553c1.652 0 2.478 0 4.13-.826L314.645 71.09c.826 0 .826-.825 1.652-.825 8.26-4.953 17.344-4.953 25.603 0 8.26 4.127 13.216 12.382 13.216 21.462v320.279c0 9.08-4.957 17.334-13.216 22.288-3.304 2.476-8.26 3.302-12.389 3.302zm-4.13-17.334c4.13 1.652 7.432.826 8.258 0 1.653-.826 4.957-3.302 4.957-8.254V91.729c0-4.953-3.304-7.43-4.957-8.255-1.652-.826-4.956-2.476-8.259 0L216.36 185.006c-.827 0-.827.826-1.653.826-4.13 2.476-8.259 3.302-13.215 3.302h-68.553c-4.957 0-9.085 4.128-9.085 9.08v105.66c0 4.952 4.13 9.08 9.085 9.08h68.553c4.956 0 9.085.825 13.215 3.301.826 0 .826.826 1.653.826z"/><path stroke="#393" stroke-width="1.5" d="M16 28.01C7.635 28.01.79 21.247.79 12.983.79 4.718 7.634-2.044 16-2.044s15.21 6.762 15.21 15.027S24.366 28.01 16 28.01zm0-29.053c-7.808 0-14.196 6.312-14.196 14.026S8.192 27.008 16 27.008s14.196-6.311 14.196-14.025S23.808-1.043 16-1.043z" transform="matrix(16.04 0 0 16.2261 -.635 45.338)"/></g></svg>