<svg xmlns="http://www.w3.org/2000/svg" viewBox="0 0 466.008 466.008"><path fill="#338000" d="M397.763 68.245C353.754 24.236 295.241 0 233.004 0S112.254 24.236 68.245 68.245 0 170.767 0 233.004s24.236 120.75 68.245 164.759 102.521 68.245 164.759 68.245 120.75-24.236 164.759-68.245 68.245-102.521 68.245-164.759-24.236-120.75-68.245-164.759"/><path fill="#fff" d="M335.984 212.008a15 15 0 0 1-13.858 9.26h-38.473v127.596c0 8.284-6.716 15-15 15h-71.298c-8.284 0-15-6.716-15-15V221.268h-38.474a14.999 14.999 0 0 1-10.606-25.607l89.122-89.123a15 15 0 0 1 21.212 0l89.122 89.123a15 15 0 0 1 3.253 16.347"/></svg>