<svg xmlns="http://www.w3.org/2000/svg" xmlns:xlink="http://www.w3.org/1999/xlink" width="16pt" height="16pt" viewBox="0 0 16 16"><defs><linearGradient id="f" x1="36.576" x2="36.576" y1="81.167" y2="45.665" gradientTransform="scale(.125)" gradientUnits="userSpaceOnUse"><stop offset="0" style="stop-color:#414042;stop-opacity:1"/><stop offset=".344" style="stop-color:#29292a;stop-opacity:1"/><stop offset="1" style="stop-color:#000;stop-opacity:1"/></linearGradient><linearGradient id="g" x1="91.364" x2="91.364" y1="83.167" y2="47.642" gradientTransform="scale(.125)" gradientUnits="userSpaceOnUse"><stop offset="0" style="stop-color:#414042;stop-opacity:1"/><stop offset=".344" style="stop-color:#29292a;stop-opacity:1"/><stop offset="1" style="stop-color:#000;stop-opacity:1"/></linearGradient><radialGradient id="c" cx="64.538" cy="47.344" r="55.854" fx="64.538" fy="47.344" gradientTransform="matrix(0 .125 -.12834 0 14.144 -2.15)" gradientUnits="userSpaceOnUse"><stop offset="0" style="stop-color:#eceff1;stop-opacity:1"/><stop offset=".186" style="stop-color:#e8ecee;stop-opacity:1"/><stop offset=".369" style="stop-color:#dce2e6;stop-opacity:1"/><stop offset=".551" style="stop-color:#c9d2d7;stop-opacity:1"/><stop offset=".73" style="stop-color:#adbcc3;stop-opacity:1"/><stop offset=".88" style="stop-color:#90a4ae;stop-opacity:1"/></radialGradient><clipPath id="b"><path d="M0 0h16v16H0z"/></clipPath><filter id="a" width="100%" height="100%" x="0%" y="0%" filterUnits="objectBoundingBox"><feColorMatrix in="SourceGraphic" values="0 0 0 0 1 0 0 0 0 1 0 0 0 0 1 0 0 0 1 0"/></filter><mask id="d"><g filter="url(#a)"><path d="M0 0h16v16H0z" style="fill:#000;fill-opacity:.2;stroke:none"/></g></mask><g id="e" clip-path="url(#b)"><path d="M8 1.07c1.57 0 3.2.645 4.469 1.774C13.762 3.992 14.5 5.496 14.5 6.977c0 1.378-1.023 3.32-2.742 5.195-1.563 1.707-3.156 2.765-3.738 2.765-.454 0-2.032-.984-3.7-2.769C2.527 10.246 1.5 8.355 1.5 6.977c0-1.48.738-2.985 2.031-4.13C4.801 1.72 6.43 1.07 8 1.07m0-.5c-3.469 0-7 2.938-7 6.407 0 3.472 5.543 8.46 7.02 8.46 1.648 0 6.98-4.988 6.98-8.46C15 3.507 11.469.57 8 .57m0 0" style="stroke:none;fill-rule:nonzero;fill:#000;fill-opacity:1"/></g></defs><path d="M8 .57c-3.469 0-7 2.938-7 6.407 0 3.472 5.543 8.46 7.02 8.46 1.648 0 6.98-4.988 6.98-8.46C15 3.507 11.469.57 8 .57m0 0" style="stroke:none;fill-rule:nonzero;fill:url(#c)"/><use xlink:href="#e" mask="url(#d)"/><path d="M6.758 10.195c-.375.485-2.215.485-3.61-.797-1.261-1.16-1.18-3.203-.765-3.617.418-.414 2.398-.422 3.605.797 1.211 1.219 1.227 3.16.77 3.617m0 0" style="stroke:none;fill-rule:nonzero;fill:url(#f)"/><path d="M10.012 6.574c1.207-1.215 3.187-1.203 3.605-.793.414.41.442 2.39-.765 3.602-1.211 1.21-3.149 1.242-3.61.789-.457-.453-.441-2.387.77-3.598m0 0" style="stroke:none;fill-rule:nonzero;fill:url(#g)"/><path d="M8 12.793c-1.172 0-2.008-.688-2.258-1.07-.097-.149-.117-.309-.05-.43a.27.27 0 0 1 .245-.145.4.4 0 0 1 .11.02c.59.184 1.105.453 1.953.453.855 0 1.363-.27 1.953-.453a.3.3 0 0 1 .113-.02c.106 0 .196.055.246.145.063.121.047.281-.05.43-.254.382-1.09 1.07-2.262 1.07m0 0" style="stroke:none;fill-rule:nonzero;fill:#242424;fill-opacity:1"/></svg>