<svg xmlns="http://www.w3.org/2000/svg" width="16pt" height="16pt" viewBox="0 0 16 16"><defs><linearGradient id="a" x1="63.99" x2="63.99" y1="20.242" y2="108.23" gradientTransform="scale(.125)" gradientUnits="userSpaceOnUse"><stop offset=".5" style="stop-color:#fee133;stop-opacity:1"/><stop offset=".612" style="stop-color:#fede32;stop-opacity:1"/><stop offset=".708" style="stop-color:#fcd32f;stop-opacity:1"/><stop offset=".797" style="stop-color:#fac12b;stop-opacity:1"/><stop offset=".883" style="stop-color:#f7a924;stop-opacity:1"/><stop offset=".9" style="stop-color:#f6a323;stop-opacity:1"/></linearGradient><linearGradient id="b" x1="4.203" x2="123.7" y1="15.125" y2="15.125" gradientTransform="scale(.125)" gradientUnits="userSpaceOnUse"><stop offset=".012" style="stop-color:#0846ff;stop-opacity:1"/><stop offset=".478" style="stop-color:#089cff;stop-opacity:1"/><stop offset=".561" style="stop-color:#088aff;stop-opacity:1"/><stop offset=".75" style="stop-color:#0865ff;stop-opacity:1"/><stop offset=".903" style="stop-color:#084eff;stop-opacity:1"/><stop offset="1" style="stop-color:#0846ff;stop-opacity:1"/></linearGradient></defs><path d="M8 15.05c-3.492 0-7.25-2.183-7.25-6.984 0-4.8 3.758-6.988 7.25-6.988 1.934 0 3.727.64 5.043 1.805 1.441 1.273 2.207 3.066 2.207 5.183 0 2.106-.766 3.895-2.207 5.172C11.723 14.41 9.93 15.051 8 15.051m0 0" style="stroke:none;fill-rule:nonzero;fill:url(#a)"/><path d="M8 1.328c1.871 0 3.605.621 4.879 1.742C14.266 4.297 15 6.02 15 8.066c0 2.032-.734 3.758-2.121 4.985C11.602 14.18 9.867 14.8 8 14.8c-1.883 0-3.613-.614-4.883-1.727C1.73 11.855 1 10.125 1 8.066c0-2.066.73-3.8 2.117-5.02C4.383 1.939 6.113 1.329 8 1.329m0-.5C4.105.828.5 3.328.5 8.066c0 4.707 3.605 7.235 7.5 7.235 3.89 0 7.5-2.59 7.5-7.235C15.5 3.395 11.89.828 8 .828m0 0" style="stroke:none;fill-rule:nonzero;fill:#eb8f00;fill-opacity:1"/><path d="M3.27 7.973s.02.05.046.148c.028.094.07.25.137.39.055.15.149.337.266.548.066.097.129.21.21.316q.062.082.122.168.033.04.066.086c.024.027.047.05.07.078.051.059.102.113.153.172.05.055.11.105.168.164.058.05.11.113.176.164.062.05.128.105.195.156.062.059.137.102.207.153.07.046.14.101.219.148.152.086.304.184.476.258.164.086.34.148.516.215.09.035.183.054.277.082q.136.048.278.074l.285.059q.146.016.293.039l.144.015.149.004.277.012.324-.012.16-.008.141-.015.281-.035c.094-.016.192-.04.285-.059l.145-.027c.047-.012.09-.028.137-.04l.277-.081q.131-.05.262-.098l.129-.05.125-.063.246-.118c.078-.046.152-.093.23-.136s.149-.094.219-.145q.106-.074.207-.148c.125-.114.258-.211.363-.325l.168-.167q.073-.088.145-.168c.187-.227.332-.454.453-.66q.046-.078.082-.157.035-.075.07-.144c.047-.094.074-.184.106-.266.066-.16.101-.29.125-.379q.042-.136.043-.137l.007-.035a.371.371 0 0 1 .723.172s-.012.059-.031.168c-.02.106-.047.27-.11.465-.03.098-.058.21-.109.324l-.074.18c-.024.062-.05.129-.082.191a4.6 4.6 0 0 1-.504.824q-.083.106-.164.22-.093.1-.191.206-.05.051-.098.11-.052.052-.106.097-.111.102-.222.203-.123.1-.246.192a2 2 0 0 1-.258.183q-.136.087-.278.172c-.093.051-.195.102-.293.153l-.148.074-.152.066c-.106.04-.211.086-.317.125-.218.063-.433.149-.664.188q-.168.036-.344.066l-.359.047-.18.02-.16.007-.324.016h-.105l-.09-.004-.352-.016-.523-.07-.34-.07a3 3 0 0 1-.336-.09c-.11-.04-.219-.066-.328-.11a5 5 0 0 1-.613-.269c-.204-.094-.387-.21-.567-.324-.09-.059-.172-.125-.254-.184-.082-.062-.168-.12-.242-.191-.152-.133-.305-.262-.434-.402-.062-.07-.132-.137-.19-.208l-.169-.21q-.041-.054-.082-.102l-.074-.11q-.071-.104-.137-.203c-.09-.136-.156-.277-.226-.402a4.3 4.3 0 0 1-.282-.7c-.078-.21-.093-.35-.117-.448q-.033-.153-.031-.153a.375.375 0 0 1 .289-.445.38.38 0 0 1 .434.266m0 0" style="stroke:none;fill-rule:nonzero;fill:#242424;fill-opacity:1"/><path d="M7.992 0C3.867 0 .523.848.523 1.89c0 1.044 3.344 1.891 7.47 1.891 4.124 0 7.468-.847 7.468-1.89S12.117 0 7.992 0m0 2.93c-3.191 0-5.777-.5-5.777-1.114C2.215 1.2 4.8.7 7.992.7s5.778.5 5.778 1.117c0 .614-2.586 1.114-5.778 1.114m0 0" style="stroke:none;fill-rule:nonzero;fill:url(#b)"/><path d="M6.195 5.973q-.001 0-.02-.024l-.054-.066q-.025-.035-.066-.074-.043-.042-.09-.094a2 2 0 0 0-.106-.09c-.035-.027-.074-.047-.105-.066s-.063-.024-.082-.032c-.008-.004-.02-.004-.027-.004-.004 0-.004-.003-.008 0h-.012.035-.07c-.016 0-.004.004-.004.004q.007.001.008-.004c.011-.003 0 0 0 0l-.016.004c-.02.008-.05.012-.082.032-.031.02-.07.039-.105.07-.032.027-.07.059-.102.09a2 2 0 0 0-.164.172c-.043.046-.062.074-.062.074L5.03 6a.533.533 0 0 1-.703.078.45.45 0 0 1-.183-.437s.011-.051.035-.141c.027-.086.07-.215.156-.363.086-.149.21-.32.422-.48.105-.079.23-.153.383-.208.035-.011.074-.027.113-.035.043-.012.074-.023.129-.027l.078-.012.062-.008.07-.004.04-.004h.012l.015.004h.031l.067.004a1.6 1.6 0 0 1 .36.082c.148.051.277.13.378.207a1.556 1.556 0 0 1 .523.684 1 1 0 0 1 .06.168c.015.047.015.07.023.09l.003.03c.047.255-.14.493-.414.536a.53.53 0 0 1-.496-.191M10.883 5.973q-.001 0-.02-.024l-.054-.066q-.025-.035-.067-.074l-.09-.094a2 2 0 0 0-.105-.09c-.035-.027-.074-.047-.106-.066-.03-.02-.062-.024-.082-.032-.007-.004-.02-.004-.027-.004-.004 0-.004-.003-.008 0h-.011.035-.07c-.016 0-.008.004-.005.004q.004.001.008-.004c.012-.003 0 0-.004 0q-.006.002-.011.004c-.02.008-.051.012-.082.032s-.07.039-.106.07q-.053.042-.105.09a3 3 0 0 0-.16.172l-.067.074L9.72 6a.533.533 0 0 1-.703.078.45.45 0 0 1-.184-.437s.008-.051.035-.141a1.6 1.6 0 0 1 .156-.363c.086-.149.211-.32.422-.48.102-.079.23-.153.38-.208.034-.011.073-.027.116-.035.04-.012.075-.023.13-.027l.077-.012.063-.008.07-.004.04-.004h.007l.02.004h.03l.063.004q.066.007.125.02a1.4 1.4 0 0 1 .617.27c.212.16.337.331.422.48q.066.113.102.203c.027.058.043.12.059.168.015.047.015.07.02.09q.006.03.007.03c.043.255-.14.493-.414.536a.53.53 0 0 1-.496-.191m0 0" style="stroke:none;fill-rule:nonzero;fill:#242424;fill-opacity:1"/></svg>