<svg xmlns="http://www.w3.org/2000/svg" width="16pt" height="16pt" viewBox="0 0 16 16"><defs><linearGradient id="a" x1="65.667" x2="65.667" y1="19.467" y2="111.47" gradientTransform="scale(.125)" gradientUnits="userSpaceOnUse"><stop offset=".341" style="stop-color:#f15b52;stop-opacity:1"/><stop offset=".556" style="stop-color:#ef5851;stop-opacity:1"/><stop offset=".718" style="stop-color:#ea4e50;stop-opacity:1"/><stop offset=".862" style="stop-color:#e13e4d;stop-opacity:1"/><stop offset=".946" style="stop-color:#d9314b;stop-opacity:1"/></linearGradient></defs><path d="M8.207 14.934c-3.484 0-7.234-2.184-7.234-6.977 0-4.789 3.75-6.973 7.234-6.973 1.934 0 3.719.641 5.035 1.801 1.442 1.274 2.203 3.063 2.203 5.172 0 2.106-.761 3.89-2.203 5.164-1.316 1.168-3.105 1.813-5.035 1.813m0 0" style="stroke:none;fill-rule:nonzero;fill:url(#a)"/><path d="M8.207 1.246c1.871 0 3.594.617 4.863 1.738 1.383 1.22 2.114 2.938 2.114 4.973 0 2.027-.73 3.746-2.114 4.969-1.273 1.125-2.996 1.742-4.863 1.742-1.871 0-3.598-.61-4.86-1.719-1.382-1.215-2.113-2.941-2.113-4.992 0-2.059.73-3.785 2.11-4.996 1.261-1.106 2.988-1.715 4.863-1.715m0-.523c-3.89 0-7.5 2.5-7.5 7.234 0 4.711 3.61 7.238 7.5 7.238 3.895 0 7.5-2.593 7.5-7.238 0-4.672-3.605-7.234-7.5-7.234m0 0" style="stroke:none;fill-rule:nonzero;fill:#c7203a;fill-opacity:1"/><path d="M7.234 8.402a.37.37 0 0 1-.238-.09c-.371-.316-1.59-.988-2.039-1.21-.168-.082-.25-.247-.21-.415a.36.36 0 0 1 .35-.285q.048-.001.094.016c.164.039.325.098.48.168.415.195 1.571.875 1.849 1.226.09.114.109.254.046.383a.37.37 0 0 1-.332.207M9.457 8.402c.09 0 .172-.03.238-.09.371-.316 1.594-.988 2.04-1.21.167-.082.25-.247.21-.415a.36.36 0 0 0-.347-.285.3.3 0 0 0-.094.016c-.168.039-.328.098-.484.168-.415.195-1.567.875-1.848 1.226a.36.36 0 0 0-.047.383.38.38 0 0 0 .332.207m0 0" style="stroke:none;fill-rule:nonzero;fill:#242424;fill-opacity:1"/><path d="M5.379 8.605c0 .536.422.973.937.973.52 0 .938-.437.938-.973v-.183c0-.535-.418-.969-.938-.969-.515 0-.937.434-.937.969ZM9.438 8.605c0 .536.421.973.937.973s.938-.437.938-.973v-.183c0-.535-.422-.969-.938-.969s-.937.434-.937.969Zm0 0" style="stroke:none;fill-rule:nonzero;fill:#242424;fill-opacity:1"/><path d="m3.281 9.664 9.875 1.035-.441 4.196-9.875-1.036Zm0 0" style="stroke:none;fill-rule:nonzero;fill:#000;fill-opacity:1"/><path d="m5.047 12.371-.262-.027-.172.66-.324-.031.172-.66-.36-.036.028-.297.41.04.113-.422-.359-.036.031-.3.406.039.18-.664.32.031-.175.664.261.027.18-.668.324.032-.18.668.376.035-.028.3-.426-.042-.113.425.375.036-.027.296-.426-.039-.172.657-.324-.032Zm-.184-.32.266.027.113-.426-.262-.023ZM7.328 12.645q.013-.111-.039-.18a.5.5 0 0 0-.184-.14 4 4 0 0 1-.246-.141.9.9 0 0 1-.191-.157.5.5 0 0 1-.117-.191.6.6 0 0 1-.02-.25.54.54 0 0 1 .2-.383.7.7 0 0 1 .453-.137l.027-.3.226.02-.03.308a.64.64 0 0 1 .39.254q.135.192.105.46l-.48-.042a.4.4 0 0 0-.035-.235q-.05-.087-.157-.097a.17.17 0 0 0-.152.046.22.22 0 0 0-.066.157.24.24 0 0 0 .043.175q.054.065.18.137.128.07.242.14a1 1 0 0 1 .187.157.5.5 0 0 1 .117.195q.041.105.024.25a.54.54 0 0 1-.192.383.67.67 0 0 1-.441.14l-.027.286-.223-.02.027-.289q-.311-.064-.457-.261a.67.67 0 0 1-.12-.492l.48.046q-.013.163.05.254a.25.25 0 0 0 .196.106.2.2 0 0 0 .16-.043.24.24 0 0 0 .07-.156M8.426 13.293a.25.25 0 0 1 .105-.184.3.3 0 0 1 .215-.054.32.32 0 0 1 .207.093q.074.082.063.204a.24.24 0 0 1-.102.183.3.3 0 0 1-.215.05.3.3 0 0 1-.203-.093.25.25 0 0 1-.07-.199m.562-.438-.43-.043.083-1.574.566.059ZM12.242 12.605q-.052.38-.25.594a.58.58 0 0 1-.492.18.45.45 0 0 1-.207-.07.4.4 0 0 1-.129-.164.45.45 0 0 1-.406.156.37.37 0 0 1-.238-.106.47.47 0 0 1-.133-.25.8.8 0 0 1 .004-.347 1.1 1.1 0 0 1 .293-.57.6.6 0 0 1 .492-.176.65.65 0 0 1 .363.136l.086.067-.16.855c-.027.137.012.207.12.219q.13.011.227-.14a.94.94 0 0 0 .133-.4q.07-.484-.129-.777-.204-.285-.644-.332a.9.9 0 0 0-.512.098.94.94 0 0 0-.383.371q-.151.247-.203.582-.07.511.13.805.203.293.663.34c.082.008.168.004.262-.004q.142-.017.23-.047l.032.25a.7.7 0 0 1-.25.07 1.4 1.4 0 0 1-.309.008 1.4 1.4 0 0 1-.66-.219.94.94 0 0 1-.367-.496 1.6 1.6 0 0 1-.051-.738q.058-.407.258-.707.2-.305.511-.453.31-.149.68-.11.374.035.625.215c.172.117.29.278.363.477q.102.304.051.683m-1.484.024q-.037.193.004.293.036.1.136.113.07.004.133-.05a.5.5 0 0 0 .114-.169l.125-.664a.4.4 0 0 0-.09-.02.29.29 0 0 0-.266.102q-.104.124-.156.395m0 0" style="stroke:none;fill-rule:nonzero;fill:#fff;fill-opacity:1"/></svg>