<svg xmlns="http://www.w3.org/2000/svg" xmlns:xlink="http://www.w3.org/1999/xlink" width="16pt" height="16pt" viewBox="0 0 16 16"><defs><clipPath id="b"><path d="M0 0h16v16H0z"/></clipPath><clipPath id="c"><path d="M0 0h16v16H0z"/></clipPath><clipPath id="d"><path d="M0 0h16v16H0z"/></clipPath><clipPath id="e"><path d="M0 0h16v16H0z"/></clipPath><clipPath id="f"><path d="M0 0h16v16H0z"/></clipPath><mask id="h"><g filter="url(#a)"><path d="M0 0h16v16H0z" style="fill:#000;fill-opacity:.2;stroke:none"/></g></mask><mask id="j"><g filter="url(#a)"><path d="M0 0h16v16H0z" style="fill:#000;fill-opacity:.2;stroke:none"/></g></mask><mask id="m"><g filter="url(#a)"><path d="M0 0h16v16H0z" style="fill:#000;fill-opacity:.2;stroke:none"/></g></mask><mask id="p"><g filter="url(#a)"><path d="M0 0h16v16H0z" style="fill:#000;fill-opacity:.2;stroke:none"/></g></mask><mask id="s"><g filter="url(#a)"><path d="M0 0h16v16H0z" style="fill:#000;fill-opacity:.2;stroke:none"/></g></mask><g id="i" clip-path="url(#b)"><path d="M7.578 6.875c.246 0 .84.172 1.047.313-.016.05-.04.101-.055.144-.027.082-.058.152-.074.227-.148.78-.7 1.046-1.96 1.382q-.254.07-.454.07a.7.7 0 0 1-.324-.066c-.363-.172-.266-.633-.254-.687.11-.469.46-.867.96-1.133.36-.187.65-.25 1.114-.25h.047m-.047-.426h-.016c-.511.016-.859.102-1.273.32-.594.313-1.016.825-1.148 1.403-.094.394 0 .894.457 1.11.148.073.316.1.484.1.188 0 .379-.034.555-.081 1.222-.328 2.027-.637 2.23-1.68.028-.144.215-.488.125-.625-.18-.273-1.09-.547-1.414-.547m0 0" style="stroke:none;fill-rule:nonzero;fill:#424242;fill-opacity:1"/></g><g id="k" clip-path="url(#c)"><path d="M10.574 8.61q.043.017.078.035c.051.027.11.039.168.039q.025.001.051-.004.158-.019.332-.02c.746 0 1.594.32 1.887.715.652.879.812 2.14.941 3.152.082.63.149 1.164.32 1.54-.093.023-.199.042-.28.042h-.02c-.684-.168-.934-.265-1.258-.789-.402-.644-.535-1.222-.652-1.734-.172-.734-.336-1.426-1.22-1.836a1.12 1.12 0 0 1-.523-.582c-.039-.102-.015-.246.059-.39.004-.008.012-.016.016-.024l.015-.024q.044-.068.086-.12m-.078-.434q-.182.13-.324.347c-.031.02-.063.036-.086.055.016.004.027.012.043.02-.117.214-.172.48-.078.707.129.332.39.633.71.78 1.259.587.704 1.806 1.712 3.43.398.641.761.782 1.496.958a.4.4 0 0 0 .101.011c.282 0 .82-.156.805-.296a.1.1 0 0 0-.023-.043c-.63-.594-.223-3.336-1.457-4.993-.383-.511-1.34-.867-2.192-.867a3 3 0 0 0-.379.024 3 3 0 0 0-.328-.133m0 0" style="stroke:none;fill-rule:nonzero;fill:#424242;fill-opacity:1"/></g><g id="n" clip-path="url(#d)"><path d="M9.82.875c.14 0 1.383.086 1.965 3.031.59 3.871-.41 6.137-2.25 8.426L6.73 10.449C8.168 9.016 8.844 7.992 9.22 4.242c.015-.164.015-.398.011-.699-.003-.727-.015-2.668.586-2.668h.059M9.82.5h-.008c-1.218 0-.894 2.984-.968 3.707-.399 4.02-1.168 4.8-2.703 6.297l3.468 2.332c1.844-2.227 3.211-4.629 2.543-8.992C11.63 1.176 10.5.5 9.82.5m0 0" style="stroke:none;fill-rule:nonzero;fill:#424242;fill-opacity:1"/></g><g id="q" clip-path="url(#e)"><path d="M7.77 8.95c.472.081 1.046.23 1.296.425.512.406 1.266.46 1.766.496.105.008.2.012.258.02l.062.011c-.28.758-1.254 2.868-3.672 4.266a7.26 7.26 0 0 1-3.609.953c-.648 0-1.277-.09-1.723-.242-.218-.078-.296-.137-.316-.152a1.4 1.4 0 0 1-.18-.426c.602-.305 1.856-.961 2.551-1.492 1.668-1.274 2.774-2.36 3.29-3.23.148-.25.234-.458.277-.63m-.352-.43s.488.993-3.441 3.993c-.73.554-2.133 1.277-2.594 1.508l-.156.078s.058.5.304.855c.063.09.239.188.496.281.422.145 1.07.262 1.844.262a7.6 7.6 0 0 0 3.797-1.004c3.16-1.824 3.941-4.773 3.941-4.773s-.113-.145-.464-.196c-.352-.05-1.317-.02-1.848-.441-.531-.422-1.879-.562-1.879-.562m0 0" style="stroke:none;fill-rule:nonzero;fill:#424242;fill-opacity:1"/></g><g id="t" clip-path="url(#f)"><path d="M7.375 7.25v.375h.004c.355 0 .7.07 1.05.215.938.394 1.4.875 1.622 1.242a6 6 0 0 0-1.008.031q-.646.07-1.332.278c-.602.183-.945.363-1.473.632l-.535.27c-1.285.637-2.234.922-3.074.922-.04 0-.074 0-.113-.004a.6.6 0 0 1-.243-.047c.016-.027.047-.078.122-.164.32-.367.652-.734.992-1.086.726-.754 1.304-1.324 2.172-1.758.554-.277 1.191-.535 1.816-.535Zm.012-.004c-.723 0-1.375.266-1.992.574-.934.47-1.551 1.082-2.278 1.836q-.52.534-1.004 1.102c-.125.144-.258.32-.21.508.003.02.011.03.019.05.086.2.36.266.586.27.039.004.082.004.12.004.79 0 1.759-.227 3.243-.961.867-.43 1.207-.652 1.95-.879a7 7 0 0 1 1.261-.262 6.5 6.5 0 0 1 1.453.004l.09.024q.001-.006-.004-.012h.008l.012.039c.004 0 .004-.016-.004-.059q-.013-.004-.02-.007c-.082-.38-.449-1.317-2.039-1.985a3.1 3.1 0 0 0-1.191-.246m0 0" style="stroke:none;fill-rule:nonzero;fill:#424242;fill-opacity:1"/></g><linearGradient id="g" x1="34.718" x2="63.498" y1="66.697" y2="66.697" gradientTransform="rotate(-168.615 7.39 -.234)scale(.125 -.125)" gradientUnits="userSpaceOnUse"><stop offset="0" style="stop-color:#c9a622;stop-opacity:1"/><stop offset=".2" style="stop-color:#deb625;stop-opacity:1"/><stop offset=".451" style="stop-color:#f0c529;stop-opacity:1"/><stop offset=".713" style="stop-color:#fbce2a;stop-opacity:1"/><stop offset=".996" style="stop-color:#ffd12b;stop-opacity:1"/></linearGradient><linearGradient id="l" x1="11.464" x2="39.167" y1="52.237" y2="52.237" gradientTransform="rotate(-168.615 7.39 -.234)scale(.125 -.125)" gradientUnits="userSpaceOnUse"><stop offset="0" style="stop-color:#f0d886;stop-opacity:1"/><stop offset=".164" style="stop-color:#f4e196;stop-opacity:1"/><stop offset=".481" style="stop-color:#faeeaf;stop-opacity:1"/><stop offset=".769" style="stop-color:#fef6bf;stop-opacity:1"/><stop offset="1" style="stop-color:#fff9c4;stop-opacity:1"/></linearGradient><linearGradient id="o" x1="21.897" x2="73.258" y1="73.66" y2="134.25" gradientTransform="rotate(-168.615 7.39 -.234)scale(.125 -.125)" gradientUnits="userSpaceOnUse"><stop offset="0" style="stop-color:#c9a622;stop-opacity:1"/><stop offset=".2" style="stop-color:#deb625;stop-opacity:1"/><stop offset=".451" style="stop-color:#f0c529;stop-opacity:1"/><stop offset=".713" style="stop-color:#fbce2a;stop-opacity:1"/><stop offset=".996" style="stop-color:#ffd12b;stop-opacity:1"/></linearGradient><linearGradient id="r" x1="18.972" x2="54.366" y1="75.171" y2="120.18" gradientTransform="rotate(-168.615 7.39 -.234)scale(.125 -.125)" gradientUnits="userSpaceOnUse"><stop offset="0" style="stop-color:#b3931e;stop-opacity:1"/><stop offset=".996" style="stop-color:#ffd12b;stop-opacity:1"/></linearGradient><filter id="a" width="100%" height="100%" x="0%" y="0%" filterUnits="objectBoundingBox"><feColorMatrix in="SourceGraphic" values="0 0 0 0 1 0 0 0 0 1 0 0 0 0 1 0 0 0 1 0"/></filter></defs><path d="M6.29 6.77c-.595.312-1.017.828-1.15 1.402-.093.394 0 .894.458 1.113.32.152.707.106 1.039.016 1.222-.328 2.027-.637 2.23-1.68.028-.144.215-.488.125-.625-.183-.277-1.12-.555-1.43-.543-.511.012-.859.098-1.273.317m0 0" style="stroke:none;fill-rule:nonzero;fill:url(#g)"/><use xlink:href="#i" mask="url(#h)"/><path d="M12.559 12.793c.082.992 1.129 1.781 2.328 1.45.023.16-.684.335-.903.284-.734-.18-1.101-.316-1.5-.96-1.007-1.626-.449-2.844-1.71-3.426a1.48 1.48 0 0 1-.711-.782c-.094-.242-.036-.52.097-.742.098-.168.215-.293.348-.387 1.887.63 1.746 2.895 2.05 4.563m0 0" style="stroke:none;fill-rule:nonzero;fill:#f5ca2c;fill-opacity:1"/><path d="M13.406 9.203c1.235 1.66.828 4.402 1.457 4.996.016.012.02.028.024.043-1.196.332-1.946-.05-2.38-1.437-.304-1.668-.128-3.13-2.405-4.176.859-.617 2.73-.191 3.304.574m0 0" style="stroke:none;fill-rule:nonzero;fill:#f9e691;fill-opacity:1"/><use xlink:href="#k" mask="url(#j)"/><path d="M11.73 8.738q-.001.001.016.008.023.013.05.031.065.041.177.13c.07.058.156.132.246.222q.135.14.277.328c.094.125.195.266.281.426q.135.236.246.508c.04.09.07.187.106.28q.045.143.09.29.076.304.129.61c.03.202.066.406.097.605q.048.3.114.578c.02.094.05.184.074.27q.045.13.097.25c.04.078.07.156.118.222s.086.137.136.191c.051.055.098.114.149.16q.075.067.152.126.154.104.274.168c.164.07.261.109.261.109s-.097-.035-.27-.094c-.077-.039-.179-.086-.284-.152l-.164-.117c-.055-.047-.106-.102-.165-.157-.054-.058-.097-.128-.152-.195-.05-.066-.086-.148-.133-.226a3 3 0 0 1-.109-.254c-.027-.09-.063-.18-.09-.274-.105-.375-.164-.785-.25-1.183a7 7 0 0 0-.14-.59q-.049-.141-.09-.281l-.106-.27a4.7 4.7 0 0 0-.504-.898 3.4 3.4 0 0 0-.484-.543c-.133-.118-.211-.168-.211-.168Zm0 0" style="stroke:none;fill-rule:nonzero;fill:#decd7f;fill-opacity:1"/><path d="M9.813.5c-1.22.016-.895 2.984-.97 3.707-.398 4.02-1.167 4.8-2.702 6.297l3.468 2.332c1.844-2.227 3.211-4.629 2.543-8.992C11.63 1.16 10.484.492 9.812.5m0 0" style="stroke:none;fill-rule:nonzero;fill:url(#l)"/><use xlink:href="#n" mask="url(#m)"/><path d="M2.027 15.234c-.257-.093-.433-.191-.496-.28-.246-.356-.304-.856-.304-.856l.156-.078c.515.203.847.566.644 1.214m0 0" style="stroke:none;fill-rule:nonzero;fill:#784b27;fill-opacity:1"/><path d="M3.977 12.512c3.93-3 3.441-3.996 3.441-3.996s1.348.144 1.879.562c.531.422 1.496.39 1.848.442.351.054.464.199.464.199s-.78 2.949-3.941 4.773c-2.215 1.281-4.61 1.098-5.64.738.202-.644-.13-1.011-.645-1.21.46-.23 1.863-.954 2.594-1.508m0 0" style="stroke:none;fill-rule:nonzero;fill:url(#o)"/><use xlink:href="#q" mask="url(#p)"/><path d="m10.164 9.375-.031.074c-.02.047-.047.125-.09.203a8 8 0 0 1-.39.68q-.132.21-.298.438c-.113.152-.23.312-.363.472-.125.164-.27.32-.41.485-.148.156-.297.32-.46.468l-.24.227q-.123.11-.25.215c-.16.144-.335.265-.5.39-.167.125-.339.227-.495.332-.164.098-.324.184-.469.266-.148.074-.29.133-.41.191-.121.059-.235.09-.328.125l-.285.106s.105-.031.293-.09c.09-.031.207-.059.332-.113.125-.051.27-.106.421-.172.149-.074.313-.152.48-.242.165-.102.345-.196.52-.313.172-.12.356-.238.524-.375.086-.066.18-.133.265-.203l.254-.219c.168-.148.329-.304.489-.457.152-.16.304-.312.445-.472.14-.157.266-.317.39-.465.118-.153.231-.297.325-.438.195-.277.344-.515.441-.695.055-.09.082-.156.106-.207l.035-.07Zm0 0" style="stroke:none;fill-rule:nonzero;fill:url(#r)"/><path d="M3.723 11.266c-.621.168-1.243.332-1.801.046l-.024-.046c-.043-.188.086-.368.211-.512q.488-.562 1.004-1.102c.727-.75 1.348-1.363 2.282-1.832.933-.468 1.953-.84 3.183-.328 1.645.688 1.985 1.672 2.047 2.024-2.562-.707-4.504.867-6.902 1.75m0 0" style="stroke:none;fill-rule:nonzero;fill:#f9e68f;fill-opacity:1"/><path d="M3.723 11.266c2.394-.883 4.398-2.54 6.914-1.786.02.122-.008.024-.008.024a6.6 6.6 0 0 0-1.547-.02 7 7 0 0 0-1.262.266c-.742.227-1.082.445-1.949.875-1.562.777-2.55.984-3.363.96-.23-.007-.5-.073-.586-.273.558.286 1.18.122 1.8-.046m0 0" style="stroke:none;fill-rule:nonzero;fill:#f5ca2c;fill-opacity:1"/><use xlink:href="#t" mask="url(#s)"/></svg>