<svg xmlns="http://www.w3.org/2000/svg" xmlns:xlink="http://www.w3.org/1999/xlink" width="16pt" height="16pt" viewBox="0 0 16 16"><defs><clipPath id="b"><path d="M0 0h16v16H0z"/></clipPath><clipPath id="c"><path d="M0 0h16v16H0z"/></clipPath><clipPath id="d"><path d="M0 0h16v16H0z"/></clipPath><clipPath id="e"><path d="M0 0h16v16H0z"/></clipPath><clipPath id="f"><path d="M0 0h16v16H0z"/></clipPath><mask id="h"><g filter="url(#a)"><path d="M0 0h16v16H0z" style="fill:#000;fill-opacity:.2;stroke:none"/></g></mask><mask id="l"><g filter="url(#a)"><path d="M0 0h16v16H0z" style="fill:#000;fill-opacity:.2;stroke:none"/></g></mask><mask id="n"><g filter="url(#a)"><path d="M0 0h16v16H0z" style="fill:#000;fill-opacity:.509804;stroke:none"/></g></mask><mask id="p"><g filter="url(#a)"><path d="M0 0h16v16H0z" style="fill:#000;fill-opacity:.509804;stroke:none"/></g></mask><mask id="s"><g filter="url(#a)"><path d="M0 0h16v16H0z" style="fill:#000;fill-opacity:.2;stroke:none"/></g></mask><g id="i" clip-path="url(#b)"><path d="M2.98 4.688h8.075l-.106 8.675c0 .645-.699 1.051-1.281 1.278-.863.336-1.91.457-2.605.457-.704 0-1.766-.118-2.637-.45-.598-.226-1.305-.632-1.305-1.273Zm-.382-.375.148 9.066c0 1.523 2.684 2.094 4.317 2.094 1.632 0 4.257-.582 4.257-2.11l.11-9.05Zm0 0" style="stroke:none;fill-rule:nonzero;fill:#424242;fill-opacity:1"/></g><g id="m" clip-path="url(#c)"><path d="M11.781 5.14c.278.22.778.536 1.531.669.465.082.739.18.95.496.293.457.418 1.312.379 2.617-.082 2.613-.414 2.976-1.696 3.281-.793.188-1.27.371-1.543.504l-.066-.074.027-3.149.035-4.082Zm1.059 5.946c.367 0 .848-.14 1.043-.809.113-.386.113-.882.113-1.406s0-1.02-.113-1.406c-.195-.668-.676-.809-1.043-.809s-.844.14-1.04.809c-.113.387-.113.883-.113 1.406 0 .883 0 2.215 1.153 2.215M11.82 4.66l-.797.543-.035 4.277-.031 3.29.367.418s.367-.305 1.707-.622c1.543-.367 1.903-.972 1.985-3.632.093-3.047-.723-3.336-1.641-3.496-1.074-.188-1.555-.778-1.555-.778m1.02 6.05c-.73 0-.777-.823-.777-1.839s0-1.84.777-1.84c.781 0 .781.824.781 1.84s0 1.84-.781 1.84m0 0" style="stroke:none;fill-rule:nonzero;fill:#424242;fill-opacity:1"/></g><g id="o" clip-path="url(#d)"><path d="M9.355 12.277a.5.5 0 0 1-.562-.496V7.27a.499.499 0 1 1 1 0v4.511a.5.5 0 0 1-.438.496m0 0" style="stroke:none;fill-rule:nonzero;fill:#fff;fill-opacity:.721569"/></g><g id="q" clip-path="url(#e)"><path d="M7.605 12.902a.5.5 0 0 1-.562-.496V7.895a.499.499 0 1 1 1 0v4.511a.5.5 0 0 1-.438.496m0 0" style="stroke:none;fill-rule:nonzero;fill:#fff;fill-opacity:.721569"/></g><g id="t" clip-path="url(#f)"><path d="M7.625 1c.355 0 .695.113.98.332q.102.075.227.074c.027 0 .055 0 .078-.008q.11-.023.215-.023c.234 0 .465.086.645.238.199.172.464.266.746.266q.032.001.062-.004h.047q.065.001.129.008a1.01 1.01 0 0 1 .84 1.246 1 1 0 0 0 .062.695c.086.184.114.387.082.594-.07.426-.433.773-.863.824q-.062.007-.125.008a1 1 0 0 1-.531-.152 1.03 1.03 0 0 0-.547-.157c-.266 0-.524.098-.723.278a1.626 1.626 0 0 1-2.047.082.55.55 0 0 0-.336-.114.54.54 0 0 0-.496.32c-.117.263-.226.544-.265.84-.082.684-.407.778-.711.778-.504 0-.61-.266-.758-.777-.098-.317-.195-.649-.484-.832a1.3 1.3 0 0 0-.274-.133q-.066-.029-.113-.051c-.055-.027-.215-.105-.215-.457a.375.375 0 0 0-.71-.164.3.3 0 0 1-.083.035c-.004 0-.023.008-.066.008a.6.6 0 0 1-.11-.012.5.5 0 0 1-.394-.394.49.49 0 0 1 .21-.512.37.37 0 0 0 .16-.352q-.006-.058-.007-.109a1.002 1.002 0 0 1 1.14-.988q.031.005.055.004a.37.37 0 0 0 .34-.215c.27-.563.844-.926 1.465-.926.29 0 .578.078.828.23a.4.4 0 0 0 .192.051.37.37 0 0 0 .253-.101C6.828 1.152 7.22 1 7.625 1m0-.375c-.523 0-1 .203-1.355.531a1.994 1.994 0 0 0-2.824.86 1.372 1.372 0 0 0-1.57 1.36q0 .075.007.151a.87.87 0 0 0-.367.887.87.87 0 0 0 .699.695c.055.012.117.02.176.02a.6.6 0 0 0 .187-.027c.297-.102.297-.227.297-.227 0 .328.11.637.422.793.113.059.246.09.351.16.485.313.184 1.672 1.446 1.672.843 0 1.031-.664 1.086-1.105.027-.247.125-.489.234-.735a.17.17 0 0 1 .152-.098c.04 0 .079.016.11.04.344.257.77.398 1.199.398.508 0 .969-.187 1.32-.5a.72.72 0 0 1 .477-.184c.121 0 .242.032.348.102.214.129.464.207.73.207q.082 0 .168-.012a1.372 1.372 0 0 0 1.074-1.949.63.63 0 0 1-.039-.437c.035-.13.05-.27.047-.41A1.39 1.39 0 0 0 10.625 1.5h-.066q-.02.005-.043.004a.77.77 0 0 1-.5-.176 1.38 1.38 0 0 0-1.184-.297A2 2 0 0 0 7.625.625m0 0" style="stroke:none;fill-rule:nonzero;fill:#424242;fill-opacity:1"/></g><linearGradient id="g" x1="56.126" x2="56.126" y1="34.818" y2="123.07" gradientTransform="scale(.125)" gradientUnits="userSpaceOnUse"><stop offset=".005" style="stop-color:#eee;stop-opacity:1"/><stop offset=".282" style="stop-color:#eaeaea;stop-opacity:1"/><stop offset=".577" style="stop-color:#ddd;stop-opacity:1"/><stop offset=".879" style="stop-color:#c8c8c8;stop-opacity:1"/><stop offset="1" style="stop-color:#bdbdbd;stop-opacity:1"/></linearGradient><linearGradient id="j" x1="56.08" x2="56.08" y1="38.92" y2="121.07" gradientTransform="scale(.125)" gradientUnits="userSpaceOnUse"><stop offset="0" style="stop-color:#ffb300;stop-opacity:1"/><stop offset="1" style="stop-color:#ffea00;stop-opacity:1"/></linearGradient><linearGradient id="k" x1="103.92" x2="103.92" y1="41.895" y2="103.19" gradientTransform="scale(.125)" gradientUnits="userSpaceOnUse"><stop offset=".005" style="stop-color:#eee;stop-opacity:1"/><stop offset=".282" style="stop-color:#eaeaea;stop-opacity:1"/><stop offset=".577" style="stop-color:#ddd;stop-opacity:1"/><stop offset=".879" style="stop-color:#c8c8c8;stop-opacity:1"/><stop offset="1" style="stop-color:#bdbdbd;stop-opacity:1"/></linearGradient><linearGradient id="r" x1="12" x2="97" y1="32.5" y2="32.5" gradientTransform="scale(.125)" gradientUnits="userSpaceOnUse"><stop offset=".005" style="stop-color:#eee;stop-opacity:1"/><stop offset=".488" style="stop-color:#f2f2f2;stop-opacity:1"/><stop offset="1" style="stop-color:#fff;stop-opacity:1"/></linearGradient><filter id="a" width="100%" height="100%" x="0%" y="0%" filterUnits="objectBoundingBox"><feColorMatrix in="SourceGraphic" values="0 0 0 0 1 0 0 0 0 1 0 0 0 0 1 0 0 0 1 0"/></filter></defs><path d="M10.805 4.313H2.598l.152 9.066c0 1.523 2.68 2.094 4.313 2.094s4.261-.582 4.261-2.11l.11-9.05Zm0 0" style="stroke:none;fill-rule:nonzero;fill:url(#g)"/><use xlink:href="#i" mask="url(#h)"/><path d="m10.54 4.5-.044 8.277c-.035.286-.266.559-.582.703-.57.262-1.68.52-2.91.52-1.176 0-2.176-.234-2.758-.48-.367-.157-.664-.47-.707-.739L3.484 4.5Zm0 0" style="stroke:none;fill-rule:nonzero;fill:url(#j)"/><path d="M5.195 12.738a.17.17 0 0 1-.168.172.17.17 0 0 1 0-.34.17.17 0 0 1 .168.168M4.77 12.277c0 .063-.051.114-.118.114a.113.113 0 0 1-.113-.114c0-.066.05-.117.113-.117.067 0 .118.05.118.117M5.605 12.059a.21.21 0 0 1-.207.207.21.21 0 0 1-.203-.207c0-.11.094-.204.203-.204.114 0 .207.094.207.204M4.902 11.852a.21.21 0 0 1-.21.207.21.21 0 1 1 0-.418.21.21 0 0 1 .21.21M5.531 10.953a.17.17 0 0 1-.168.168.17.17 0 0 1 0-.34.17.17 0 0 1 .168.172M5.07 11.031a.15.15 0 0 1-.148.153.15.15 0 0 1-.152-.153.15.15 0 0 1 .152-.148c.082 0 .148.066.148.148M4.434 10.066a.15.15 0 0 1-.149.149.15.15 0 0 1-.152-.149.15.15 0 0 1 .152-.148c.082 0 .149.066.149.148M5.914 9.176a.19.19 0 0 1-.191.187.19.19 0 0 1-.192-.187.192.192 0 0 1 .383 0M5.004 10.55a.235.235 0 0 1-.234.235.23.23 0 0 1-.23-.234c0-.13.1-.23.23-.23.128 0 .234.1.234.23M5.605 9.84a.23.23 0 0 1-.23.226.227.227 0 0 1-.227-.226.23.23 0 0 1 .227-.23c.125 0 .23.105.23.23M4.77 9.563a.167.167 0 0 1-.168.167.167.167 0 0 1-.168-.168.17.17 0 0 1 .168-.171.17.17 0 0 1 .168.172m0 0" style="stroke:none;fill-rule:nonzero;fill:#e4a324;fill-opacity:1"/><path d="m10.988 9.48-.031 3.29.367.418s.367-.305 1.707-.622c1.543-.367 1.903-.972 1.985-3.632.093-3.047-.723-3.336-1.641-3.496-1.074-.188-1.555-.778-1.555-.778l-.797.543Zm1.075-.609c0-1.016 0-1.84.777-1.84.781 0 .781.824.781 1.84 0 1.02 0 1.84-.781 1.84-.73 0-.777-.824-.777-1.84m0 0" style="stroke:none;fill-rule:nonzero;fill:url(#k)"/><use xlink:href="#m" mask="url(#l)"/><use xlink:href="#o" mask="url(#n)"/><use xlink:href="#q" mask="url(#p)"/><path d="M11.992 3.66a.62.62 0 0 1-.039-.433c.035-.133.055-.27.047-.414A1.39 1.39 0 0 0 10.559 1.5a.76.76 0 0 1-.543-.172 1.38 1.38 0 0 0-1.184-.297 1.996 1.996 0 0 0-2.562.125 1.994 1.994 0 0 0-2.824.86 1.372 1.372 0 0 0-1.57 1.36q0 .075.007.151a.87.87 0 0 0-.367.887.87.87 0 0 0 .699.695c.113.024.25.032.363-.007.297-.102.297-.227.297-.227 0 .328.11.637.422.793.113.059.246.09.351.16.485.313.184 1.672 1.446 1.672.843 0 1.031-.664 1.086-1.105.027-.247.125-.489.234-.735.043-.101.172-.129.262-.058.344.257.77.398 1.199.398.508 0 .969-.187 1.32-.5a.69.69 0 0 1 .825-.082 1.376 1.376 0 0 0 1.973-1.758m0 0" style="stroke:none;fill-rule:nonzero;fill:url(#r)"/><use xlink:href="#t" mask="url(#s)"/></svg>