<svg xmlns="http://www.w3.org/2000/svg" xmlns:xlink="http://www.w3.org/1999/xlink" width="16pt" height="16pt" viewBox="0 0 16 16"><defs><linearGradient id="i" x1="28.667" x2="28.834" y1="2.689" y2="14.022" gradientTransform="scale(.125)" gradientUnits="userSpaceOnUse"><stop offset=".362" style="stop-color:#ff9100;stop-opacity:1"/><stop offset=".454" style="stop-color:#ff8a04;stop-opacity:1"/><stop offset=".589" style="stop-color:#ff760f;stop-opacity:1"/><stop offset=".751" style="stop-color:#ff5621;stop-opacity:1"/><stop offset=".931" style="stop-color:#ff2a39;stop-opacity:1"/><stop offset="1" style="stop-color:#ff1744;stop-opacity:1"/></linearGradient><linearGradient id="j" x1="13.25" x2="24.472" y1="13.82" y2="13.82" gradientTransform="scale(.125)" gradientUnits="userSpaceOnUse"><stop offset=".362" style="stop-color:#ff9100;stop-opacity:1"/><stop offset=".454" style="stop-color:#ff8a04;stop-opacity:1"/><stop offset=".589" style="stop-color:#ff760f;stop-opacity:1"/><stop offset=".751" style="stop-color:#ff5621;stop-opacity:1"/><stop offset=".931" style="stop-color:#ff2a39;stop-opacity:1"/><stop offset="1" style="stop-color:#ff1744;stop-opacity:1"/></linearGradient><linearGradient id="k" x1="13.52" x2="23.02" y1="25.321" y2="22.654" gradientTransform="scale(.125)" gradientUnits="userSpaceOnUse"><stop offset=".362" style="stop-color:#ff9100;stop-opacity:1"/><stop offset=".454" style="stop-color:#ff8a04;stop-opacity:1"/><stop offset=".589" style="stop-color:#ff760f;stop-opacity:1"/><stop offset=".751" style="stop-color:#ff5621;stop-opacity:1"/><stop offset=".931" style="stop-color:#ff2a39;stop-opacity:1"/><stop offset="1" style="stop-color:#ff1744;stop-opacity:1"/></linearGradient><linearGradient id="l" x1="19.648" x2="26.148" y1="36.347" y2="27.181" gradientTransform="scale(.125)" gradientUnits="userSpaceOnUse"><stop offset=".362" style="stop-color:#ff9100;stop-opacity:1"/><stop offset=".454" style="stop-color:#ff8a04;stop-opacity:1"/><stop offset=".589" style="stop-color:#ff760f;stop-opacity:1"/><stop offset=".751" style="stop-color:#ff5621;stop-opacity:1"/><stop offset=".931" style="stop-color:#ff2a39;stop-opacity:1"/><stop offset="1" style="stop-color:#ff1744;stop-opacity:1"/></linearGradient><linearGradient id="m" x1="29.578" x2="34.903" y1="38.598" y2="31.088" gradientTransform="rotate(-45.113 3.733 4.344)scale(.125)" gradientUnits="userSpaceOnUse"><stop offset=".362" style="stop-color:#ff9100;stop-opacity:1"/><stop offset=".454" style="stop-color:#ff8a04;stop-opacity:1"/><stop offset=".589" style="stop-color:#ff760f;stop-opacity:1"/><stop offset=".751" style="stop-color:#ff5621;stop-opacity:1"/><stop offset=".931" style="stop-color:#ff2a39;stop-opacity:1"/><stop offset="1" style="stop-color:#ff1744;stop-opacity:1"/></linearGradient><linearGradient id="n" x1="34.528" x2="41.528" y1="14.587" y2="6.587" gradientTransform="scale(.125)" gradientUnits="userSpaceOnUse"><stop offset="0" style="stop-color:#ff1744;stop-opacity:1"/><stop offset=".069" style="stop-color:#ff2a39;stop-opacity:1"/><stop offset=".249" style="stop-color:#ff5621;stop-opacity:1"/><stop offset=".411" style="stop-color:#ff760f;stop-opacity:1"/><stop offset=".546" style="stop-color:#ff8a04;stop-opacity:1"/><stop offset=".638" style="stop-color:#ff9100;stop-opacity:1"/></linearGradient><clipPath id="b"><path d="M0 0h16v16H0z"/></clipPath><clipPath id="c"><path d="M0 0h16v16H0z"/></clipPath><mask id="d"><g filter="url(#a)"><path d="M0 0h16v16H0z" style="fill:#000;fill-opacity:.2;stroke:none"/></g></mask><mask id="g"><g filter="url(#a)"><path d="M0 0h16v16H0z" style="fill:#000;fill-opacity:.2;stroke:none"/></g></mask><g id="e" clip-path="url(#b)"><path d="M9.926.707q.058.002.117.004c.469.023.875.203 1.145.5.25.277.37.648.347 1.066-.05 1-.648 1.66-1.18 1.848a.2.2 0 0 1-.085.016c-.114 0-.18-.102-.2-.203-.02-.11.016-.247.168-.301.305-.106.57-.426.711-.856.149-.445.13-.89-.054-1.168a.99.99 0 0 0-.872-.453c-.527 0-1.195.297-2.035.914-.898.653-1.8 1.242-2.972 1.242q-.048 0-.094-.003c-.363-.008-1.031-.079-1.406-.426a.8.8 0 0 1-.172-.215.25.25 0 0 1 .015-.246c.051-.086.137-.14.22-.14.042 0 .081.01.116.038a.6.6 0 0 1 .121.106l.02.023a.9.9 0 0 0 .309.227c.195.082.406.11.59.125q.139.01.285.011c.652 0 1.285-.203 1.937-.625.227-.144.445-.3.66-.457.73-.527 1.418-1.027 2.309-1.027m0-.125c-1.207 0-2.074.89-3.035 1.508-.575.367-1.196.605-1.871.605a2 2 0 0 1-.278-.015 2 2 0 0 1-.55-.114c-.13-.05-.204-.136-.286-.222a1 1 0 0 0-.14-.121.3.3 0 0 0-.188-.063c-.258 0-.484.317-.344.574.051.094.121.176.196.25.379.348 1.023.446 1.492.457h.094c1.191 0 2.109-.582 3.047-1.265.43-.313 1.273-.887 1.964-.887.301 0 .57.11.766.399.336.503-.004 1.628-.59 1.835-.41.145-.293.747.07.747a.4.4 0 0 0 .125-.024c.778-.277 1.223-1.176 1.266-1.96.05-.99-.648-1.65-1.613-1.7-.043 0-.086-.004-.125-.004m0 0" style="stroke:none;fill-rule:nonzero;fill:#eee;fill-opacity:1"/></g><g id="h" clip-path="url(#c)"><path d="M9.652 3.438q.084 0 .192.03l1.586.485q.259.08.3.242v.008l.407 1.426c.02.07.058.137.113.184a5.31 5.31 0 0 1 1.59 5.554 5.24 5.24 0 0 1-1.945 2.735 5.33 5.33 0 0 1-3.125 1.023 5.3 5.3 0 0 1-1.551-.234 5.27 5.27 0 0 1-3.133-2.578 5.26 5.26 0 0 1-.387-4.036 5.3 5.3 0 0 1 4.418-3.699.35.35 0 0 0 .2-.09L9.46 3.5a.27.27 0 0 1 .191-.062m0-.376a.65.65 0 0 0-.437.157l-1.145.984a5.67 5.67 0 0 0-4.734 3.965 5.675 5.675 0 0 0 5.434 7.328 5.683 5.683 0 0 0 3.726-9.969l-.406-1.43c-.07-.265-.29-.425-.55-.503l-1.587-.485a1 1 0 0 0-.3-.046m0 0" style="stroke:none;fill-rule:nonzero;fill:#eee;fill-opacity:1"/></g><radialGradient id="f" cx="60.375" cy="67.033" r="47.649" fx="60.375" fy="67.033" gradientTransform="rotate(17.002 7.726 8.485)scale(.125)" gradientUnits="userSpaceOnUse"><stop offset=".231" style="stop-color:#616161;stop-opacity:1"/><stop offset=".928" style="stop-color:#212121;stop-opacity:1"/></radialGradient><filter id="a" width="100%" height="100%" x="0%" y="0%" filterUnits="objectBoundingBox"><feColorMatrix in="SourceGraphic" values="0 0 0 0 1 0 0 0 0 1 0 0 0 0 1 0 0 0 1 0"/></filter></defs><path d="M3.906 2.344a1 1 0 0 0-.14-.121c-.313-.22-.707.191-.532.507q.078.146.196.25c.312-.066.484-.308.476-.636m0 0" style="stroke:none;fill-rule:nonzero;fill:#f44336;fill-opacity:1"/><path d="M10.05.586C8.778.523 7.884 1.453 6.89 2.09c-.652.422-1.359.664-2.148.594a2 2 0 0 1-.55-.118c-.13-.05-.204-.136-.286-.218.008.324-.164.57-.472.636.378.348 1.02.446 1.488.457 1.238.032 2.18-.566 3.14-1.265.618-.45 2.094-1.442 2.731-.489.336.504-.008 1.63-.594 1.836-.453.16-.258.883.2.723.777-.273 1.222-1.172 1.265-1.957.05-.992-.648-1.652-1.613-1.703m0 0" style="stroke:none;fill-rule:nonzero;fill:#212121;fill-opacity:1"/><path d="M10.05.586C8.778.523 7.884 1.453 6.89 2.09c-.652.422-1.359.664-2.148.594a2 2 0 0 1-.55-.118c-.13-.05-.204-.136-.286-.218.008.324-.164.57-.472.636.378.348 1.02.446 1.488.457 1.238.032 2.18-.566 3.14-1.265.618-.45 2.094-1.442 2.731-.489.336.504-.008 1.63-.594 1.836-.453.16-.258.883.2.723.777-.273 1.222-1.172 1.265-1.957.05-.992-.648-1.652-1.613-1.703m0 0" style="stroke:none;fill-rule:nonzero;fill:#212121;fill-opacity:1"/><use xlink:href="#e" mask="url(#d)"/><path d="m12.496 5.527-.406-1.43c-.07-.265-.29-.421-.55-.503l-1.587-.485c-.265-.078-.531-.07-.742.11l-1.14.984c-2.157.27-4.06 1.75-4.735 3.965a5.675 5.675 0 0 0 3.773 7.082 5.683 5.683 0 0 0 5.387-9.723m0 0" style="stroke:none;fill-rule:nonzero;fill:url(#f)"/><use xlink:href="#h" mask="url(#g)"/><path d="m3.582.332.211 1.414-.375.008Zm0 0" style="stroke:none;fill-rule:nonzero;fill:url(#i)"/><path d="m1.656 1.234 1.403.668-.2.32Zm0 0" style="stroke:none;fill-rule:nonzero;fill:url(#j)"/><path d="m1.438 3.145 1.414-.5.078.367Zm0 0" style="stroke:none;fill-rule:nonzero;fill:url(#k)"/><path d="M3.418 3.512 2.461 4.57l.648-1.273Zm0 0" style="stroke:none;fill-rule:nonzero;fill:url(#l)"/><path d="m4.004 3.555.062 1.168-.363-1.114Zm0 0" style="stroke:none;fill-rule:nonzero;fill:url(#m)"/><path d="M4.129 1.75 5.207.813 4.41 2Zm0 0" style="stroke:none;fill-rule:nonzero;fill:url(#n)"/><path d="M2.984 1.273c0 .067-.05.118-.117.118a.115.115 0 0 1-.117-.118c0-.066.05-.117.117-.117s.117.051.117.117M2.344 2.422c0 .07-.055.125-.125.125a.123.123 0 0 1-.125-.125c0-.07.054-.125.125-.125.07 0 .125.055.125.125M4.875 2.172c0 .07-.055.125-.125.125a.123.123 0 0 1-.125-.125c0-.07.055-.125.125-.125s.125.055.125.125M3.363 4.113c0 .043-.031.074-.07.074a.07.07 0 0 1-.074-.074c0-.039.031-.07.074-.07.039 0 .07.031.07.07M2.297 3.688c0 .07-.055.124-.125.124a.123.123 0 0 1-.125-.124c0-.07.055-.126.125-.126s.125.055.125.126m0 0" style="stroke:none;fill-rule:nonzero;fill:#f44336;fill-opacity:1"/></svg>