<svg xmlns="http://www.w3.org/2000/svg" width="16pt" height="16pt" viewBox="0 0 16 16"><defs><linearGradient id="a" x1="20.408" x2="46.972" y1="4.961" y2="61.042" gradientTransform="scale(.125)" gradientUnits="userSpaceOnUse"><stop offset=".294" style="stop-color:#fff;stop-opacity:1"/><stop offset=".411" style="stop-color:#f2f2f2;stop-opacity:1"/><stop offset=".628" style="stop-color:#cfcfcf;stop-opacity:1"/><stop offset=".918" style="stop-color:#989898;stop-opacity:1"/><stop offset="1" style="stop-color:#878787;stop-opacity:1"/></linearGradient><linearGradient id="b" x1="28.27" x2="41.341" y1="21.523" y2="49.118" gradientTransform="scale(.125)" gradientUnits="userSpaceOnUse"><stop offset=".163" style="stop-color:#ff87a8;stop-opacity:1"/><stop offset=".306" style="stop-color:#f87c9f;stop-opacity:1"/><stop offset=".998" style="stop-color:#d94874;stop-opacity:1"/></linearGradient><linearGradient id="c" x1="67.822" x2="94.386" y1="4.961" y2="61.041" gradientTransform="matrix(-.125 0 0 .125 21.926 0)" gradientUnits="userSpaceOnUse"><stop offset=".294" style="stop-color:#fff;stop-opacity:1"/><stop offset=".411" style="stop-color:#f2f2f2;stop-opacity:1"/><stop offset=".628" style="stop-color:#cfcfcf;stop-opacity:1"/><stop offset=".918" style="stop-color:#989898;stop-opacity:1"/><stop offset="1" style="stop-color:#878787;stop-opacity:1"/></linearGradient><linearGradient id="d" x1="75.684" x2="88.755" y1="21.523" y2="49.118" gradientTransform="matrix(-.125 0 0 .125 21.926 0)" gradientUnits="userSpaceOnUse"><stop offset=".163" style="stop-color:#ff87a8;stop-opacity:1"/><stop offset=".306" style="stop-color:#f87c9f;stop-opacity:1"/><stop offset=".998" style="stop-color:#d94874;stop-opacity:1"/></linearGradient><linearGradient id="e" x1="63.998" x2="63.998" y1="122.1" y2="47.503" gradientTransform="scale(.125)" gradientUnits="userSpaceOnUse"><stop offset="0" style="stop-color:#d4d4d4;stop-opacity:1"/><stop offset=".292" style="stop-color:#e3e3e3;stop-opacity:1"/><stop offset=".706" style="stop-color:#fff;stop-opacity:1"/></linearGradient><linearGradient id="f" x1="63.999" x2="63.999" y1="89.346" y2="99.888" gradientTransform="scale(.125)" gradientUnits="userSpaceOnUse"><stop offset=".163" style="stop-color:#ff87a8;stop-opacity:1"/><stop offset=".69" style="stop-color:#ff6492;stop-opacity:1"/><stop offset="1" style="stop-color:#ff5589;stop-opacity:1"/></linearGradient></defs><path d="M6.629 8.988c-.57 0-2.625-1.402-3.742-3.613C1.609 2.852 1.395.895 2.344.387a.6.6 0 0 1 .297-.07c.914 0 2.328 1.492 3.367 3.546 1.273 2.516.941 4.942.66 5.121-.004 0-.016.004-.04.004m0 0" style="stroke:none;fill-rule:nonzero;fill:url(#a)"/><path d="M2.64.508c.708 0 2.067 1.207 3.196 3.441.5.989.816 2.13.887 3.219.062.914-.07 1.45-.153 1.625-.53-.098-2.43-1.367-3.511-3.504C1.852 2.902 1.602 1.004 2.434.56A.4.4 0 0 1 2.64.508m0-.383a.8.8 0 0 0-.387.094c-1.137.605-.785 2.777.46 5.242C3.865 7.73 5.962 9.18 6.63 9.18a.25.25 0 0 0 .14-.032c.461-.293.657-2.906-.59-5.37C5.087 1.617 3.626.124 2.642.124m0 0" style="stroke:none;fill-rule:nonzero;fill:#b0b0b0;fill-opacity:1"/><path d="M5.285 4.262c.59 1.164.496 2.402.281 2.539-.207.133-1.332-.574-1.921-1.742-.59-1.168-.754-2.196-.22-2.48.454-.243 1.27.515 1.86 1.683m0 0" style="stroke:none;fill-rule:nonzero;fill:url(#b)"/><path d="M9.371 8.988c-.027 0-.039-.004-.039-.004-.281-.18-.613-2.601.66-5.12C11.032 1.808 12.445.315 13.36.315q.163 0 .297.07c.946.509.735 2.466-.543 4.989-1.117 2.21-3.172 3.613-3.742 3.613m0 0" style="stroke:none;fill-rule:nonzero;fill:url(#c)"/><path d="M13.36.508q.115-.001.206.05c.832.446.582 2.348-.625 4.731-1.078 2.137-2.976 3.402-3.511 3.504-.082-.176-.215-.711-.153-1.625.075-1.09.387-2.23.887-3.219C11.293 1.715 12.652.508 13.36.508m0-.383c-.984 0-2.445 1.492-3.539 3.652-1.246 2.465-1.047 5.078-.586 5.371.032.024.082.032.137.032.672 0 2.77-1.45 3.914-3.72 1.246-2.464 1.598-4.632.461-5.241a.8.8 0 0 0-.387-.094m0 0" style="stroke:none;fill-rule:nonzero;fill:#b0b0b0;fill-opacity:1"/><path d="M10.715 4.262c-.59 1.164-.496 2.402-.281 2.539.207.133 1.332-.574 1.921-1.742.59-1.168.754-2.196.22-2.48-.454-.243-1.27.515-1.86 1.683m0 0" style="stroke:none;fill-rule:nonzero;fill:url(#d)"/><path d="M8 15.262c-4.441 0-5.371-2.215-5.371-4.07C2.629 8 4.734 5.937 8 5.937S13.371 8 13.371 11.19c0 3.543-3.363 4.07-5.371 4.07m0 0" style="stroke:none;fill-rule:nonzero;fill:url(#e)"/><path d="M8 6.11c1.633 0 2.984.519 3.902 1.5.836.894 1.297 2.167 1.297 3.581 0 1.293-.469 2.286-1.398 2.946-.88.625-2.196.953-3.801.953-2.371 0-5.203-.676-5.203-3.899 0-1.414.465-2.683 1.3-3.582.919-.98 2.27-1.5 3.903-1.5m0-.343c-3.684 0-5.547 2.488-5.547 5.425 0 2.938 2.207 4.243 5.547 4.243 3.277 0 5.543-1.305 5.543-4.243 0-2.937-1.86-5.425-5.543-5.425m0 0" style="stroke:none;fill-rule:nonzero;fill:#b0b0b0;fill-opacity:1"/><path d="M11.32 9.828c0-.46-.347-.836-.773-.836-.43 0-.777.375-.777.836 0 .465.347.84.777.84.426 0 .773-.375.773-.84M6.23 9.805c0-.461-.347-.836-.777-.836-.426 0-.773.375-.773.836 0 .465.347.84.773.84.43 0 .777-.375.777-.84m0 0" style="stroke:none;fill-rule:nonzero;fill:#404040;fill-opacity:1"/><path d="M80.813 101.438a8.25 8.25 0 0 1-2.344 4.374c-3.344 3.25-8.75 3.094-12.094-.312-1.344-1.375-2.156-5.594-2.406-7.344-.219 1.75-.938 5.938-2.25 7.281-3.25 3.344-8.657 3.344-12.063 0-1.281-1.25-2.125-2.812-2.468-4.406" style="fill:none;stroke-width:3;stroke-linecap:round;stroke-linejoin:round;stroke:#b3b3b3;stroke-opacity:1;stroke-miterlimit:10" transform="scale(.125)"/><path d="M7.219 11.125c-.262 0-.438.242-.344.484.195.516.543.891 1.102.891.007 0 .015-.008.023-.008h.023c.559 0 .907-.367 1.098-.883a.353.353 0 0 0-.34-.484Zm0 0" style="stroke:none;fill-rule:nonzero;fill:url(#f)"/></svg>