<svg xmlns="http://www.w3.org/2000/svg" xmlns:xlink="http://www.w3.org/1999/xlink" width="16pt" height="16pt" viewBox="0 0 16 16"><defs><linearGradient id="c" x1="66.207" x2="66.207" y1="91.48" y2="117.4" gradientTransform="scale(.125)" gradientUnits="userSpaceOnUse"><stop offset="0" style="stop-color:#ffc044;stop-opacity:1"/><stop offset=".847" style="stop-color:#ca4300;stop-opacity:1"/></linearGradient><linearGradient id="e" x1="65.618" x2="65.618" y1="65.55" y2="96.368" gradientTransform="scale(.125)" gradientUnits="userSpaceOnUse"><stop offset=".005" style="stop-color:#fbc02d;stop-opacity:1"/><stop offset=".081" style="stop-color:#fcca30;stop-opacity:1"/><stop offset=".209" style="stop-color:#fdd534;stop-opacity:1"/><stop offset=".36" style="stop-color:#fdd835;stop-opacity:1"/><stop offset=".69" style="stop-color:#fff59d;stop-opacity:1"/><stop offset="1" style="stop-color:#fdd835;stop-opacity:1"/></linearGradient><linearGradient id="f" x1="28.444" x2="110.17" y1="68.947" y2="68.947" gradientTransform="rotate(-1.083 8.733 7.768)scale(.125)" gradientUnits="userSpaceOnUse"><stop offset="0" style="stop-color:#ff3d2a;stop-opacity:1"/><stop offset=".041" style="stop-color:#f63424;stop-opacity:1"/><stop offset=".174" style="stop-color:#dd1d14;stop-opacity:1"/><stop offset=".314" style="stop-color:#cc0d09;stop-opacity:1"/><stop offset=".464" style="stop-color:#c10302;stop-opacity:1"/><stop offset=".64" style="stop-color:#be0000;stop-opacity:1"/><stop offset=".99" style="stop-color:#ff1500;stop-opacity:1"/></linearGradient><linearGradient id="g" x1="63.443" x2="63.443" y1="61.032" y2="78.598" gradientTransform="scale(.125)" gradientUnits="userSpaceOnUse"><stop offset="0" style="stop-color:#518f00;stop-opacity:1"/><stop offset=".197" style="stop-color:#619e15;stop-opacity:1"/><stop offset=".404" style="stop-color:#6faa27;stop-opacity:1"/><stop offset=".424" style="stop-color:#72ad2b;stop-opacity:1"/><stop offset=".547" style="stop-color:#80b93c;stop-opacity:1"/><stop offset=".678" style="stop-color:#88c147;stop-opacity:1"/><stop offset=".833" style="stop-color:#8bc34a;stop-opacity:1"/><stop offset="1" style="stop-color:#8cc63f;stop-opacity:1"/></linearGradient><linearGradient id="h" x1="32.417" x2="101.99" y1="18.37" y2="70.162" gradientTransform="scale(.125)" gradientUnits="userSpaceOnUse"><stop offset="0" style="stop-color:#ffc044;stop-opacity:1"/><stop offset=".847" style="stop-color:#ca4300;stop-opacity:1"/></linearGradient><radialGradient id="d" cx="65.458" cy="84.615" r="57.048" fx="65.458" fy="84.615" gradientTransform="matrix(.125 0 0 .04752 0 6.428)" gradientUnits="userSpaceOnUse"><stop offset="0" style="stop-color:#583223;stop-opacity:1"/><stop offset=".101" style="stop-color:#7b3915;stop-opacity:1"/><stop offset=".225" style="stop-color:#a04106;stop-opacity:1"/><stop offset=".291" style="stop-color:#ae4400;stop-opacity:1"/><stop offset=".321" style="stop-color:#a84302;stop-opacity:1"/><stop offset=".724" style="stop-color:#623a15;stop-opacity:1"/><stop offset=".946" style="stop-color:#603813;stop-opacity:1"/></radialGradient><clipPath id="b"><path d="M0 0h16v16H0z"/></clipPath><filter id="a" width="100%" height="100%" x="0%" y="0%" filterUnits="objectBoundingBox"><feColorMatrix in="SourceGraphic" values="0 0 0 0 1 0 0 0 0 1 0 0 0 0 1 0 0 0 1 0"/></filter><mask id="i"><g filter="url(#a)"><path d="M0 0h16v16H0z" style="fill:#000;fill-opacity:.2;stroke:none"/></g></mask><g id="j" clip-path="url(#b)"><path d="M7.484 2.07q.317.001.645.02c1.379.09 5.035.324 5.996 2.613.39.934.508 1.512.352 1.766a.39.39 0 0 0 .07.492q.054.046.113.094c.184.164.36.312.402.53.07.353-.007.669-.199.813q-.007.004-.008.008a.38.38 0 0 0-.175.426c.039.152.05.281.05.355a.4.4 0 0 0-.109.262.39.39 0 0 0 .137.305c.047.039.07.066.082.082.082.266.086.488.02.617-.087.164-.11.18-.192.238-.027.016-.05.036-.082.059-.027.023-.078.04-.168.074l-.059.02a.388.388 0 0 0-.11.672l.013.011c-.047.32-.153.977-.88 1.59-.98.836-2.69 1.27-5.085 1.285h-.133c-1.629 0-3.828-.234-5.082-1.343-.715-.637-.781-1.262-.781-1.286q-.004-.022-.008-.046-.014-.084-.016-.149a.39.39 0 0 0-.183-.34 1.6 1.6 0 0 0-.297-.14c-.184-.067-.184-.067-.223-.274a3 3 0 0 0-.078-.328 1 1 0 0 1-.027-.101.7.7 0 0 0 .043-.407c-.004-.035.039-.187.191-.402a.38.38 0 0 0 .04-.379c.054-.039.132-.094.245-.16a.4.4 0 0 0 .192-.309.4.4 0 0 0-.118-.308c.004-.008.004-.016.008-.024.032-.117.094-.336-.035-.554a.554.554 0 0 0-.617-.258.4.4 0 0 0-.113-.07.3.3 0 0 0-.125-.028.5.5 0 0 0 .015-.215.64.64 0 0 0 .383-.172.393.393 0 0 0 .02-.535.395.395 0 0 0 .219-.496q-.114-.308.007-.875c.235-1.121 1.422-2.121 2.434-2.437.11-.036.23-.086.367-.137.559-.223 1.406-.559 2.86-.559m0-.39c-1.887 0-2.837.55-3.348.71-1.114.352-2.43 1.438-2.7 2.727-.093.457-.093.805.008 1.094a.273.273 0 0 0-.309.047c-.132.11-.113.281-.066.406.012.031.137.172.203.172.008 0 .02-.004.024-.008a.24.24 0 0 1-.172.063c-.11 0-.23-.047-.336-.082a.3.3 0 0 0-.105-.016c-.141 0-.274.086-.254.23.015.125.101.157.21.207.11.051.215.094.141.192-.078.098-.172.008-.304.117-.247.207.054.586.222.586h.004c.254 0 .309-.148.45-.242l.003.02a.17.17 0 0 0 .168.14.2.2 0 0 0 .098-.031l.012-.008a.2.2 0 0 1 .113-.035c.058 0 .117.027.148.082.067.113-.023.25-.035.383a.32.32 0 0 0 .125.273c-.238.145-.562.367-.492.512.035.07.062.11.09.14-.102.141-.297.454-.262.688.043.305-.137.14 0 .566.133.426.02.664.54.852.1.039.171.074.226.105 0 .075.004.149.02.23 0 0 .202 2.997 6.253 2.997h.137c6.183-.047 6.273-2.836 6.363-3.309q.023-.124-.172-.277c.137-.047.239-.078.328-.145.16-.12.227-.132.383-.425.133-.25.114-.594 0-.95-.02-.062-.09-.14-.191-.23a.23.23 0 0 0 .101-.16c.024-.133-.004-.356-.054-.563.004 0 .008-.004.011-.004.329-.23.48-.691.375-1.218-.082-.41-.406-.637-.636-.84.218-.356.172-.942-.325-2.121-1.02-2.43-4.585-2.739-6.328-2.848a8 8 0 0 0-.668-.027m0 0" style="stroke:none;fill-rule:nonzero;fill:#424242;fill-opacity:1"/></g></defs><path d="M1.91 11.8s.2 3.036 6.387 2.993c6.183-.047 6.273-2.836 6.363-3.309.09-.472-2.316-1.418-6.77-1.214-4.452.203-6.226.27-5.98 1.53m0 0" style="stroke:none;fill-rule:nonzero;fill:url(#c)"/><path d="M1.438 9.285s-.36.45-.317.758c.047.309-.137.14 0 .566.137.43.024.664.54.856.519.187.269.332.831.496.563.168.903.238 1.305.45.406.214.562.331 1.035.308a9 9 0 0 1 1.035.023l.88.145s.136.047.765.093c.629.047.855-.168 1.168-.19.316-.024.789.12 1.058.046.27-.07.88-.305.88-.305s.562-.402.874-.379c.317.024.836-.097 1.082-.238s.809-.187.809-.187.383-.168.742-.356c.36-.191.543-.191.7-.309.155-.117.226-.132.382-.425.129-.25.113-.594 0-.95-.113-.355-1.89-1.277-1.89-1.277L2.765 7.914Zm0 0" style="stroke:none;fill-rule:nonzero;fill:url(#d)"/><path d="M2.023 8.578s-.84.414-.726.64c.11.227.18.2.18.2s1.128.234 3.222.77c2.09.53 3.133.878 3.656 1.265.653.485.817.738 1.247.656.425-.082.742-.656 1.574-1.27.832-.612 1.152-.698 2.281-.956 1.07-.242 1.61-.297 1.656-.582.043-.285-.113-.957-.316-1.059S4.609 8.18 4.609 8.18c-2.093-.082-2.586.398-2.586.398m0 0" style="stroke:none;fill-rule:nonzero;fill:url(#e)"/><path d="m2.867 7.574-.117.692.172.808a.51.51 0 0 0 .23.328c.434.27 1.664.828 4.258.743 3.387-.114 4.586-.606 5.645-1.067.84-.371.992-1.586 1.015-2.062-3.32 2.093-7.726 2.187-11.203.558m0 0" style="stroke:none;fill-rule:nonzero;fill:url(#f)"/><path d="M13.527 7.336c.004-.11 0-.18 0-.18L3.281 7.11l-.148 1.024c3.27 1.398 7.36 1.199 10.394-.797m0 0" style="stroke:none;fill-rule:nonzero;fill:#972f00;fill-opacity:1"/><path d="M1.297 6.828c-.129.125-.336.035-.508-.02-.172-.054-.383.032-.36.215.016.125.102.157.212.207.109.051.214.094.14.192-.078.098-.172.008-.304.121-.25.207.058.59.226.586.254-.008.309-.149.445-.242l.004.02c.024.12.168.179.27.109l.008-.008c.086-.059.21-.047.265.043.067.113-.023.25-.035.383-.02.187.16.367.34.343s.309-.242.246-.418c0 .204.164.391.36.41.195.024.39-.128.433-.328q.019.135.102.246c.078.11.254.11.336 0 .043-.058.113-.097.183-.078-.129.09-.05.325.098.38.144.058.308-.005.453-.063l.812-.332c.184-.078.372-.156.567-.207.473-.125.77.008 1.14.222a.53.53 0 0 0 .547-.004c.063-.039.114-.07.121-.085.23-.051.247.218.165.355-.055.094-.079.203-.036.3.102.216.395.13.532-.038.136-.168.238-.254.441-.309.215-.055.422.008.617-.058.156-.055.266-.188.434-.192.285-.004.3.387.597.383.274-.004.313-.23.516-.3.18-.06.262.034.27.23.011.191.054.328.222.414.324.172.696-.5.985-.274.183.14.09.508.293.617.12.063.27-.015.367-.113.097-.101.261-.422.39-.469.282-.109.563.305.82.149.126-.074.15-.137.2-.274.055-.136.133-.28.27-.32.066-.016.132.016.18.063.105.109.28.136.405.046.329-.226.48-.69.375-1.218-.132-.664-.925-.848-.855-1.246-.438.23-.57.437-1.031.27-.223-.083-.438-.208-.672-.212-.399 0-.707.352-1.086.489-.352.128-.746.054-1.094-.086-.351-.141-.672-.348-1.015-.497a3.5 3.5 0 0 0-2.286-.18c-.566.153-1.12.446-1.699.356-.418-.07-.781-.336-1.183-.492-.864-.336-1.692.477-2.543.524-.282.015-.555-.415-.84-.176-.133.11-.117.281-.067.406.012.031.176.21.227.16m0 0" style="stroke:none;fill-rule:nonzero;fill:url(#g)"/><path d="M4.137 2.39c-1.114.352-2.43 1.442-2.7 2.731-.269 1.29.211 1.77 1.739 2.188 1.531.418 2.61.421 4.62.57 2.009.148 4.438.148 5.638-.422 1.203-.566 2.07-.477 1.05-2.906S9.898 1.813 8.156 1.703c-2.34-.152-3.449.508-4.02.688m0 0" style="stroke:none;fill-rule:nonzero;fill:url(#h)"/><path d="M4.465 3.16c.05.133-.016.207-.078.23-.063.028-.168.02-.219-.117-.059-.156-.05-.355.023-.382.07-.032.215.113.274.27M6.531 3.871c-.129.063-.21 0-.238-.058-.031-.06-.031-.165.098-.231.148-.07.351-.078.386-.008.032.067-.097.223-.246.297M5.379 4.227c-.016.14-.11.175-.176.168-.066-.004-.156-.06-.14-.204.015-.164.117-.34.195-.332.074.008.137.2.12.368M7.082 2.875c-.066.125-.168.121-.227.09-.058-.027-.12-.113-.058-.238.078-.149.238-.274.308-.243.067.04.055.243-.023.391M11.031 2.992c-.133-.043-.148-.144-.129-.21.02-.063.09-.137.227-.095.16.047.312.184.289.258s-.227.098-.387.047M9.121 2.637c.094.105.059.203.008.246s-.152.074-.246-.035c-.113-.125-.172-.317-.113-.368.054-.05.242.032.351.157M12.02 3.71c-.063-.124 0-.206.062-.237.059-.028.164-.032.227.097.074.153.078.356.007.387-.066.035-.222-.098-.296-.246M11.281 5.047c-.136.027-.203-.055-.215-.121-.011-.063.012-.164.153-.192.164-.03.363.012.379.09.011.07-.153.192-.317.223M9.797 3.965c.14-.004.191.086.191.152.004.067-.035.164-.18.168-.167.008-.355-.07-.359-.144 0-.079.18-.168.348-.176M8.25 4.55c-.043.134-.145.15-.21.126-.063-.02-.138-.094-.09-.23.05-.157.19-.305.26-.282.075.024.095.227.04.387m0 0" style="stroke:none;fill-rule:nonzero;fill:#fadc8b;fill-opacity:1"/><use xlink:href="#j" mask="url(#i)"/></svg>