<svg xmlns="http://www.w3.org/2000/svg" width="16pt" height="16pt" viewBox="0 0 16 16"><defs><clipPath id="a"><path d="M1 .535h14V16H1Zm0 0"/></clipPath></defs><g clip-path="url(#a)"><path d="M14.305 8.95c-.184-.368-.735-.684-1.578-.571-.848.11-1.332.91-1.887 1.176-.18.082-.367-.094-.297-.285l2.117-5.75c.235-.606.05-1.235-.562-1.395-.496-.121-.93.227-1.125.734l-1.66 4.008c-.02.055-.07.082-.13.074-.054-.02-.085-.074-.074-.136l1.239-4.887c.14-.523.047-1.059-.418-1.262-.575-.258-1.114.13-1.285.758L7.195 6.2c-.035.117-.14.192-.254.164h-.003c-.114-.023-.184-.14-.153-.265l.77-4.055C7.66 1.535 7.563.887 6.938.75c-.63-.14-.922.309-1.075.867-.144.473-.73 3.156-.898 3.934a.22.22 0 0 1-.254.172c-.106-.024-.188-.121-.176-.23l.14-2.31c.036-.574-.105-1.019-.593-1.144-.61-.148-1.059.266-1.129.914L2.352 6.79l-.586 3.461c-.461 2.664.27 3.969.543 4.133.406.234 2.761.633 3.355.812 3.305 1.032 4.016-1.656 5.016-2.941.617-.79 2.152-2.024 2.965-2.031.812-.016.808-.97.652-1.274Zm0 0" style="stroke:none;fill-rule:nonzero;fill:#ffd29c;fill-opacity:1"/><path d="M9.559.926q.103 0 .218.047c.391.18.25.734.215.855l-1.23 4.875A.458.458 0 0 0 9.625 7l1.66-4.016c.121-.324.36-.53.598-.53q.057-.002.11.015c.155.035.269.125.335.246.094.176.09.426-.012.68L10.2 9.14a.573.573 0 0 0 .535.777c.082 0 .168-.02.243-.059.246-.117.464-.304.695-.507.324-.282.664-.579 1.09-.637a3 3 0 0 1 .289-.02c.527 0 .832.211.926.399.05.105.074.426-.036.613-.043.074-.113.148-.304.148-1.024.016-2.66 1.422-3.242 2.172-.207.262-.391.567-.582.887-.645 1.059-1.31 2.145-2.793 2.145q-.571 0-1.258-.211c-.246-.078-.735-.176-1.297-.297-.672-.14-1.785-.371-1.973-.48-.148-.122-.82-1.258-.387-3.77l.586-3.469.594-3.844c.035-.304.192-.629.535-.629q.08.001.16.02c.118.027.368.094.325.777l-.14 2.313c-.02.285.179.543.464.593q.052.012.105.012c.27 0 .504-.191.567-.453l.883-3.918c.175-.637.421-.637.515-.637.043 0 .09.008.14.016.481.11.376.754.356.883l-.773 4.047a.57.57 0 0 0 .55.703.585.585 0 0 0 .551-.418l1.454-4.793c.097-.348.328-.578.582-.578m0-.356c-.422 0-.786.348-.926.84L7.188 6.195a.22.22 0 0 1-.215.168c-.012 0-.028 0-.04-.004H6.93c-.114-.023-.184-.14-.157-.265l.77-4.055c.105-.508.008-1.156-.617-1.293A.8.8 0 0 0 6.71.72c-.48 0-.723.402-.86.894-.132.477-.718 3.16-.882 3.934a.225.225 0 0 1-.215.176q-.024.001-.035-.004a.23.23 0 0 1-.18-.23l.145-2.31c.035-.574-.106-1.019-.594-1.14a1 1 0 0 0-.25-.035c-.48 0-.82.39-.887.945l-.601 3.84-.586 3.461c-.461 2.664.27 3.969.543 4.133.406.234 2.761.633 3.355.812.512.157.965.227 1.363.227 2.168 0 2.809-2.082 3.657-3.168.617-.79 2.152-2.024 2.964-2.031.813-.012.813-.97.657-1.274-.157-.316-.586-.601-1.239-.601-.113 0-.222.007-.336.027-.847.113-1.335.91-1.886 1.176a.3.3 0 0 1-.098.02.21.21 0 0 1-.18-.098.22.22 0 0 1-.023-.203l2.117-5.75c.235-.606.05-1.235-.562-1.395a1 1 0 0 0-.2-.023c-.406 0-.757.316-.925.757l-1.66 4.008c-.016.043-.055.074-.098.074q-.016 0-.031-.003c-.055-.02-.086-.07-.075-.137l1.239-4.887c.14-.523.047-1.059-.418-1.262a.84.84 0 0 0-.364-.086Zm0 0" style="stroke:none;fill-rule:nonzero;fill:#e3b57c;fill-opacity:1"/></g><path d="M10.3 9.46c-1.464.028-2.847 1.09-3.655 2.388-.122.199.07.328.195.129.695-1.125 2.226-2.008 3.504-1.954.176.008.644-.152.644-.152l-.32-.238s-.105-.125-.363-.176Zm0 0" style="stroke:none;fill-rule:nonzero;fill:#e3b57c;fill-opacity:1"/></svg>