<svg xmlns="http://www.w3.org/2000/svg" xmlns:xlink="http://www.w3.org/1999/xlink" width="16pt" height="16pt" viewBox="0 0 16 16"><defs><clipPath id="b"><path d="M0 0h16v16H0z"/></clipPath><clipPath id="c"><path d="M0 0h16v16H0z"/></clipPath><clipPath id="d"><path d="M0 0h16v16H0z"/></clipPath><clipPath id="e"><path d="M0 0h16v16H0z"/></clipPath><clipPath id="f"><path d="M0 0h16v16H0z"/></clipPath><mask id="g"><g filter="url(#a)"><path d="M0 0h16v16H0z" style="fill:#000;fill-opacity:.2;stroke:none"/></g></mask><mask id="n"><g filter="url(#a)"><path d="M0 0h16v16H0z" style="fill:#000;fill-opacity:.2;stroke:none"/></g></mask><mask id="q"><g filter="url(#a)"><path d="M0 0h16v16H0z" style="fill:#000;fill-opacity:.2;stroke:none"/></g></mask><mask id="s"><g filter="url(#a)"><path d="M0 0h16v16H0z" style="fill:#000;fill-opacity:.2;stroke:none"/></g></mask><mask id="v"><g filter="url(#a)"><path d="M0 0h16v16H0z" style="fill:#000;fill-opacity:.2;stroke:none"/></g></mask><g id="h" clip-path="url(#b)"><path d="M3.016 14.383C1.742 15.21 2.05 15.5 2.41 15.5c1.445.004 11.707-3.129 11.707-3.129.031-.008.082-.144-.336-.262-.422-.113-2.375-.804-4.804-.718-1.508.054-4.551 2.082-5.961 2.992m0 0" style="stroke:none;fill-rule:nonzero;fill:#434343;fill-opacity:1"/></g><g id="o" clip-path="url(#c)"><path d="M6.82 2.516c.762 0 1.805.172 3.184.53 2.441.626 3.434 1.794 3.656 2.099a.4.4 0 0 0-.05.195v2.387a.2.2 0 0 0-.008.05 8 8 0 0 0-.008.325q0 .076.031.148l-.008.86c-.008.027-.008.054-.012.081l-.007.356c0 .031.004.066.011.094v2.21L2.7 14.938a1 1 0 0 1-.18.02q-.08 0-.097-.012v-2.18a.4.4 0 0 0-.004-.222l-.02-.918c.024-.05.04-.11.04-.164v-.281a.4.4 0 0 0-.02-.121V8.617a.38.38 0 0 0-.106-.262v-.05a.1.1 0 0 0 .008-.043c.297-.563 1.836-3.457 2.957-5.188.243-.375.746-.558 1.543-.558m0-.375c-.894 0-1.527.218-1.855.726C3.699 4.82 1.938 8.184 1.938 8.184s-.004.015.011.03c-.004.02-.012.044-.012.067 0 .156-.019.27.106.336v2.211c0 .164-.012.281.02.352v.28a.36.36 0 0 0-.04.157l.024 1.043.012-.004a.4.4 0 0 0-.016.102v2.199c0 .195.14.375.473.375q.122.002.273-.031l10.926-3.09a.36.36 0 0 0 .265-.356V9.641a.3.3 0 0 0-.011-.082l.011-.356q.007-.041.008-.082l.008-1.027-.031.011c0-.105.004-.218.008-.308q.007-.036.007-.07V5.34a.33.33 0 0 0 .079-.219.22.22 0 0 0-.07-.156c-.196-.281-1.235-1.598-3.895-2.281-1.305-.34-2.41-.543-3.274-.543m7.164 5.484" style="stroke:none;fill-rule:nonzero;fill:#434343;fill-opacity:1"/></g><g id="r" clip-path="url(#d)"><path d="M8.547.625a.1.1 0 0 1 .09.05l.156.255c.066.105.18.168.3.168q.102-.001.184-.055l.23-.14A.1.1 0 0 1 9.56.886q.045 0 .082.035c.011.02.03.05.023.094l-.02.152a.357.357 0 0 0 .352.41q.03.001.059-.004l.785-.133h.02a.1.1 0 0 1 .093.067.11.11 0 0 1-.027.129l-.434.418a.365.365 0 0 0-.031.488l.101.129c.043.055.02.11.012.125a.1.1 0 0 1-.094.058H8.223a.1.1 0 0 1-.078-.035.13.13 0 0 1-.028-.093L8.445.719a.1.1 0 0 1 .102-.094m0-.125a.23.23 0 0 0-.227.2l-.324 2.003a.235.235 0 0 0 .227.277h2.257c.196 0 .301-.23.18-.382l-.101-.133a.24.24 0 0 1 .023-.32l.434-.418c.156-.153.043-.41-.157-.41-.011 0-.027 0-.039.003l-.785.133h-.039a.234.234 0 0 1-.226-.27l.02-.148a.236.236 0 0 0-.227-.273.24.24 0 0 0-.122.035l-.23.14a.2.2 0 0 1-.117.036.23.23 0 0 1-.196-.11L8.742.61A.23.23 0 0 0 8.547.5m0 0" style="stroke:none;fill-rule:nonzero;fill:#434343;fill-opacity:1"/></g><g id="t" clip-path="url(#e)"><path d="M10.004 4.629c.457.281-.574 1.125-2.129 1.437-1.55.313-2.77.149-2.855-.312-.09-.461.652-1 2.207-1.313s2.386-.054 2.777.188m0 0" style="stroke:none;fill-rule:nonzero;fill:#434343;fill-opacity:1"/></g><g id="w" clip-path="url(#f)"><path d="M7.66 1.016v.25c.547 0 1.133.257 1.695.75.325.285.668.804.66 1.406-.011.48-.245.91-.699 1.273-.957.774-2.441.903-3.527.996h-.031q-.03.005-.059.004a.56.56 0 0 1-.437-.191.47.47 0 0 1-.09-.39q.047-.237.09-.473c.18-.97.347-1.883.933-2.598.426-.516.918-.777 1.465-.777zm0 0c-.586 0-1.156.261-1.656.867-.734.894-.856 2.07-1.074 3.183-.098.497.289.88.773.88q.036.001.078-.005c1.133-.097 2.668-.222 3.696-1.05 1.28-1.036.785-2.418.043-3.063-.579-.508-1.227-.812-1.86-.812m0 0" style="stroke:none;fill-rule:nonzero;fill:#434343;fill-opacity:1"/></g><radialGradient id="k" cx="94.961" cy="76.09" r="10.822" fx="94.961" fy="76.09" gradientTransform="rotate(-15.065 28.06 7.37)scale(.125 .06872)" gradientUnits="userSpaceOnUse"><stop offset=".629" style="stop-color:#ef5451;stop-opacity:1"/><stop offset="1" style="stop-color:#e53a35;stop-opacity:1"/></radialGradient><radialGradient id="l" cx="32.704" cy="92.305" r="9.119" fx="32.704" fy="92.305" gradientTransform="rotate(-15.313 25.832 8.614)scale(.125 .06166)" gradientUnits="userSpaceOnUse"><stop offset=".629" style="stop-color:#ef5451;stop-opacity:1"/><stop offset="1" style="stop-color:#e53a35;stop-opacity:1"/></radialGradient><radialGradient id="m" cx="61.466" cy="79.428" r="11.235" fx="61.466" fy="79.428" gradientTransform="matrix(.12286 -.02301 .01394 .07437 -.975 5.436)" gradientUnits="userSpaceOnUse"><stop offset=".629" style="stop-color:#ef5451;stop-opacity:1"/><stop offset="1" style="stop-color:#e53a35;stop-opacity:1"/></radialGradient><radialGradient id="u" cx="64.912" cy="25.503" r="26.804" fx="64.912" fy="25.503" gradientTransform="matrix(.11152 -.04974 .02941 .06975 -.37 4.384)" gradientUnits="userSpaceOnUse"><stop offset="0" style="stop-color:#ef5451;stop-opacity:1"/><stop offset=".784" style="stop-color:#e53a35;stop-opacity:1"/><stop offset="1" style="stop-color:#c62828;stop-opacity:1"/></radialGradient><linearGradient id="i" x1="59.15" x2="66.352" y1="49.92" y2="75.608" gradientTransform="scale(.125)" gradientUnits="userSpaceOnUse"><stop offset=".732" style="stop-color:#faa629;stop-opacity:1"/><stop offset=".928" style="stop-color:#f78c1e;stop-opacity:1"/></linearGradient><linearGradient id="j" x1="60.144" x2="66.343" y1="86.593" y2="108.43" gradientTransform="scale(.125)" gradientUnits="userSpaceOnUse"><stop offset=".732" style="stop-color:#faa629;stop-opacity:1"/><stop offset=".928" style="stop-color:#f78c1e;stop-opacity:1"/></linearGradient><linearGradient id="p" x1="69.855" x2="80.5" y1="6.829" y2="23.911" gradientTransform="scale(.125)" gradientUnits="userSpaceOnUse"><stop offset=".237" style="stop-color:#42a047;stop-opacity:1"/><stop offset=".771" style="stop-color:#317e3d;stop-opacity:1"/></linearGradient><filter id="a" width="100%" height="100%" x="0%" y="0%" filterUnits="objectBoundingBox"><feColorMatrix in="SourceGraphic" values="0 0 0 0 1 0 0 0 0 1 0 0 0 0 1 0 0 0 1 0"/></filter></defs><use xlink:href="#h" mask="url(#g)"/><path d="M13.5 4.96 2.207 8.079a.33.33 0 0 0-.238.32v2.43c0 .375-.067.512.449.356l11.223-3.102a.36.36 0 0 0 .265-.355V5.28c0-.218-.199-.375-.406-.32m0 0" style="stroke:none;fill-rule:nonzero;fill:url(#i)"/><path d="M5.95 3.25 2 8.332l-.016.547s.75-.078 1.442-.27c1.195-.328 2.734-.812 4-1.046 1.75-.325 3.183-.829 4.832-1.395.664-.227 1.648-.55 1.648-.55v-.454l-6.96-2.223a.86.86 0 0 0-.997.309m0 0" style="stroke:none;fill-rule:nonzero;fill:#f78c1e;fill-opacity:1"/><path d="M13.5 9.32 2.207 12.437a.33.33 0 0 0-.238.32v2.2c0 .242.215.461.742.344l10.93-3.09a.36.36 0 0 0 .265-.356V9.641c0-.22-.199-.375-.406-.32m0 0" style="stroke:none;fill-rule:nonzero;fill:url(#j)"/><path d="M5.906 3.016 1.922 8.117a.26.26 0 0 0-.059.164c0 .168-.027.29.145.356.172.062.683-.07 1.375-.262 1.195-.332 2.734-.824 4-1.047 1.68-.3 3.21-.805 4.832-1.394.66-.243 1.531-.493 1.531-.493a.33.33 0 0 0 .238-.32.22.22 0 0 0-.144-.207l-6.938-2.21a.87.87 0 0 0-.996.312m0 0" style="stroke:none;fill-rule:nonzero;fill:#ffe0b2;fill-opacity:1"/><path d="M4.887 2.867C3.62 4.82 1.863 8.184 1.863 8.184s-.175.406 3.621-.88c.809-.273 2.192-.456 3.606-.808 1.574-.39 2.523-.828 3.34-1.098.883-.289 1.523-.378 1.523-.378s-.941-1.567-3.93-2.34c-2.664-.684-4.484-.817-5.136.187m0 0" style="stroke:none;fill-rule:nonzero;fill:#fefce9;fill-opacity:1"/><path d="m13.875 9.05-11.89 3.266V10.81l11.921-3.184s-.015.285-.015.504Zm0 0" style="stroke:none;fill-rule:nonzero;fill:#f57f20;fill-opacity:1"/><path d="M13.89 9.883 1.985 13.19v-.91l11.528-3.613c.203-.059.406.055.406.27Zm0 0" style="stroke:none;fill-rule:nonzero;fill:#f57f20;fill-opacity:1"/><path d="m13.68 9.441-11.707 3.22-.024-1.044c0-.148.098-.281.238-.32l11.735-3.2-.004 1.024a.33.33 0 0 1-.238.32m0 0" style="stroke:none;fill-rule:nonzero;fill:#fbcbbd;fill-opacity:1"/><path d="m13.555 9.5-3.367.922s.468-1.41 1.652-1.75c1.23-.36 1.715.828 1.715.828m0 0" style="stroke:none;fill-rule:nonzero;fill:url(#k)"/><path d="m5.73 11.617-3.332.918s.266-1.41 1.457-1.726c1.204-.32 1.875.808 1.875.808m0 0" style="stroke:none;fill-rule:nonzero;fill:url(#l)"/><path d="m6.105 10.227 3.336-.918s-.09 1.277-1.59 1.671c-1.19.313-1.746-.753-1.746-.753m0 0" style="stroke:none;fill-rule:nonzero;fill:url(#m)"/><use xlink:href="#o" mask="url(#n)"/><path d="M10.48 2.98H8.223c-.145 0-.25-.128-.227-.277L8.32.7c.035-.215.309-.273.422-.09l.156.254c.07.106.207.14.313.075l.23-.141a.232.232 0 0 1 .348.234l-.023.153c-.02.16.113.293.265.27l.79-.134c.222-.039.359.246.195.407l-.438.418a.244.244 0 0 0-.02.32l.102.133c.121.152.012.382-.18.382m0 0" style="stroke:none;fill-rule:nonzero;fill:url(#p)"/><use xlink:href="#r" mask="url(#q)"/><use xlink:href="#t" mask="url(#s)"/><path d="M9.52 1.828c.742.645 1.238 2.027-.043 3.063-1.028.828-2.563.953-3.696 1.05-.515.043-.953-.351-.851-.875.218-1.113.34-2.293 1.074-3.183C7.043.617 8.406.855 9.52 1.828m0 0" style="stroke:none;fill-rule:nonzero;fill:url(#u)"/><path d="M7.035 1.676c-.078-.067-.23-.012-.348.117-.113.133-.144.293-.066.36.074.066.23.015.344-.118.117-.133.144-.293.07-.36m0 0" style="stroke:none;fill-rule:nonzero;fill:#c62828;fill-opacity:1"/><path d="M7.063 1.766c-.079-.067-.235-.016-.348.117s-.145.293-.07.36c.078.066.234.015.347-.118s.145-.293.07-.36m0 0" style="stroke:none;fill-rule:nonzero;fill:#fecc81;fill-opacity:1"/><path d="M6.238 3.316c-.082-.054-.226.016-.324.157-.094.14-.105.3-.023.355s.226-.015.32-.156c.098-.14.105-.3.027-.356m0 0" style="stroke:none;fill-rule:nonzero;fill:#c62828;fill-opacity:1"/><path d="M6.273 3.402c-.082-.058-.226.012-.32.153-.098.144-.11.3-.027.36.082.054.226-.017.324-.157.094-.14.105-.301.023-.356m0 0" style="stroke:none;fill-rule:nonzero;fill:#fecc81;fill-opacity:1"/><path d="M8.469 2.559c-.07-.079-.239-.047-.371.074-.133.117-.188.281-.118.36.07.077.239.046.372-.075.132-.121.187-.281.117-.36m0 0" style="stroke:none;fill-rule:nonzero;fill:#c62828;fill-opacity:1"/><path d="M8.484 2.652c-.07-.078-.234-.043-.37.075-.134.12-.184.28-.114.359s.234.047.371-.074c.133-.117.184-.278.113-.36m0 0" style="stroke:none;fill-rule:nonzero;fill:#fecc81;fill-opacity:1"/><path d="M7.137 2.738c-.047-.05-.157-.027-.246.051-.09.082-.125.188-.079.242.047.051.16.028.25-.05.086-.083.122-.188.075-.243m0 0" style="stroke:none;fill-rule:nonzero;fill:#c62828;fill-opacity:1"/><path d="M7.148 2.805c-.046-.055-.156-.032-.246.047-.09.082-.125.187-.078.242.047.05.156.031.246-.051.09-.078.125-.188.078-.238m0 0" style="stroke:none;fill-rule:nonzero;fill:#fecc81;fill-opacity:1"/><path d="M7.5 3.941c-.047-.054-.156-.03-.246.047-.09.082-.125.188-.078.242.047.051.156.032.246-.05.09-.078.125-.188.078-.239m0 0" style="stroke:none;fill-rule:nonzero;fill:#c62828;fill-opacity:1"/><path d="M7.508 4.004c-.047-.05-.156-.031-.246.05-.09.079-.125.188-.078.239.046.055.16.031.25-.05.09-.079.12-.188.074-.24m0 0" style="stroke:none;fill-rule:nonzero;fill:#fecc81;fill-opacity:1"/><path d="M8.262 1.629c-.047-.055-.157-.031-.246.047-.09.082-.125.187-.079.242.047.05.16.027.25-.05.086-.079.122-.188.075-.24m0 0" style="stroke:none;fill-rule:nonzero;fill:#c62828;fill-opacity:1"/><path d="M8.273 1.691c-.046-.054-.156-.03-.246.051-.09.078-.125.188-.078.238.047.051.156.032.246-.05.09-.078.125-.188.078-.239m0 0" style="stroke:none;fill-rule:nonzero;fill:#fecc81;fill-opacity:1"/><use xlink:href="#w" mask="url(#v)"/></svg>