<svg xmlns="http://www.w3.org/2000/svg" width="16pt" height="16pt" viewBox="0 0 16 16"><defs><clipPath id="c"><path d="M3 10h9v4H3Zm0 0"/></clipPath><clipPath id="d"><path d="M7.934 10.453c-1.317 0-2.543-.113-3.567-.3a.364.364 0 0 0-.426.425c.34 1.664 1.977 3.031 3.993 3.031 2.203 0 3.687-1.41 3.996-3.035a.365.365 0 0 0-.43-.422c-1.02.188-2.246.301-3.566.301m0 0"/></clipPath><clipPath id="e"><path d="M3 10h9v2H3Zm0 0"/></clipPath><clipPath id="f"><path d="M7.934 10.453c-1.317 0-2.543-.113-3.567-.3a.364.364 0 0 0-.426.425c.34 1.664 1.977 3.031 3.993 3.031 2.203 0 3.687-1.41 3.996-3.035a.365.365 0 0 0-.43-.422c-1.02.188-2.246.301-3.566.301m0 0"/></clipPath><clipPath id="g"><path d="M5 12h6v2H5Zm0 0"/></clipPath><clipPath id="h"><path d="M7.934 10.453c-1.317 0-2.543-.113-3.567-.3a.364.364 0 0 0-.426.425c.34 1.664 1.977 3.031 3.993 3.031 2.203 0 3.687-1.41 3.996-3.035a.365.365 0 0 0-.43-.422c-1.02.188-2.246.301-3.566.301m0 0"/></clipPath><clipPath id="i"><path d="M3 10h9v4H3Zm0 0"/></clipPath><clipPath id="j"><path d="M7.934 10.453c-1.317 0-2.543-.113-3.567-.3a.364.364 0 0 0-.426.425c.34 1.664 1.977 3.031 3.993 3.031 2.203 0 3.687-1.41 3.996-3.035a.365.365 0 0 0-.43-.422c-1.02.188-2.246.301-3.566.301m0 0"/></clipPath><clipPath id="k"><path d="M3.465 9.105v1.25c1.375.81 2.887 1.254 4.469 1.254 1.586 0 3.093-.445 4.468-1.254v-1.25Zm4.469 3.352c-.989 0-1.852.54-2.309 1.34.598.324 1.414.527 2.309.527.898 0 1.714-.203 2.312-.527a2.67 2.67 0 0 0-2.312-1.34m0 0"/></clipPath><linearGradient id="a" x1="64" x2="64" y1="25.031" y2="107.67" gradientTransform="scale(.125)" gradientUnits="userSpaceOnUse"><stop offset=".509" style="stop-color:#fed133;stop-opacity:1"/><stop offset=".634" style="stop-color:#fdce32;stop-opacity:1"/><stop offset=".741" style="stop-color:#fcc32e;stop-opacity:1"/><stop offset=".84" style="stop-color:#f9b128;stop-opacity:1"/><stop offset=".9" style="stop-color:#f6a323;stop-opacity:1"/></linearGradient><linearGradient id="b" x1="64" x2="64" y1="66" y2="78.464" gradientTransform="scale(.125)" gradientUnits="userSpaceOnUse"><stop offset=".163" style="stop-color:#75443e;stop-opacity:1"/><stop offset=".45" style="stop-color:#512926;stop-opacity:1"/><stop offset=".812" style="stop-color:#290b0a;stop-opacity:1"/><stop offset="1" style="stop-color:#1a0000;stop-opacity:1"/></linearGradient></defs><path d="M2.723 6.96q-.419 0-.707-.198C.43 5.66.703 2.023.707 1.984c.04-.5.422-.875.89-.875.028 0 .06 0 .087.004 1.414.145 3.25.696 4.171 1.813.473.574.31 1.254.086 1.722-.57 1.211-2.105 2.313-3.218 2.313m0 0" style="stroke:none;fill-rule:nonzero;fill:#fed133;fill-opacity:1"/><path d="M1.598 1.297q.03-.001.066.004c1.375.14 3.16.672 4.047 1.746.226.273.422.762.062 1.523-.535 1.133-2.02 2.203-3.05 2.203q-.358 0-.598-.164C.879 5.742.813 2.99.895 2c.03-.398.332-.703.703-.703m0-.375C1.03.922.566 1.379.52 1.972c-.067.84-.09 3.915 1.39 4.942.23.164.512.234.813.234C4.574 7.148 7.324 4.41 6 2.805 4.992 1.585 3.05 1.062 1.703.925Q1.651.922 1.598.923m0 0" style="stroke:none;fill-rule:nonzero;fill:#eb8f00;fill-opacity:1"/><path d="M.727 2.754c.007-.164.023-.34.136-.457.149-.156.39-.14.598-.094a3.8 3.8 0 0 1 1.55.727c.227.18.446.398.512.683.102.442-.171.867-.433 1.23-.184.255-.367.509-.598.712-.195.172-.594.43-.851.46-.258.032-.2-.292-.309-.503a5.6 5.6 0 0 1-.55-1.754 6 6 0 0 1-.055-1.004m0 0" style="stroke:none;fill-rule:nonzero;fill:#eb8f00;fill-opacity:1"/><path d="M13.277 7c-1.113 0-2.648-1.121-3.218-2.332-.223-.469-.387-1.16.086-1.734.921-1.118 2.757-1.672 4.171-1.817a1 1 0 0 1 .086-.008c.47 0 .852.38.891.88.004.034.277 3.69-1.309 4.792-.191.133-.43.219-.707.219m0 0" style="stroke:none;fill-rule:nonzero;fill:#fed133;fill-opacity:1"/><path d="M14.402 1.297c.371 0 .672.305.707.707.079.984.012 3.738-1.234 4.605q-.24.167-.598.168c-1.03 0-2.515-1.074-3.05-2.207-.36-.761-.165-1.25.062-1.523.887-1.074 2.672-1.606 4.047-1.746q.036-.005.066-.004m0-.375q-.053-.001-.105.004c-1.344.136-3.29.66-4.297 1.879-1.324 1.605 1.426 4.343 3.277 4.343.301 0 .582-.07.813-.23 1.48-1.027 1.457-4.105 1.39-4.945-.046-.594-.511-1.051-1.078-1.051m0 0" style="stroke:none;fill-rule:nonzero;fill:#eb8f00;fill-opacity:1"/><path d="M15.273 2.754c-.007-.164-.023-.34-.136-.457-.149-.156-.39-.14-.598-.094a3.8 3.8 0 0 0-1.55.727c-.227.18-.446.398-.512.683-.102.442.171.867.433 1.23.184.255.367.509.598.712.195.172.469.27.715.363.402.16.34-.195.445-.406a5.6 5.6 0 0 0 .55-1.754 6 6 0 0 0 .055-1.004m0 0" style="stroke:none;fill-rule:nonzero;fill:#eb8f00;fill-opacity:1"/><path d="M8 14.89c-3.223 0-6.687-2.054-6.687-6.562S4.777 1.766 8 1.766c1.785 0 3.434.601 4.652 1.691 1.332 1.195 2.036 2.879 2.036 4.871 0 1.98-.704 3.66-2.036 4.86C11.43 14.285 9.782 14.89 8 14.89m0 0" style="stroke:none;fill-rule:nonzero;fill:url(#a)"/><path d="M8 1.953c1.738 0 3.344.582 4.523 1.645 1.293 1.16 1.977 2.797 1.977 4.73 0 1.926-.684 3.559-1.977 4.719C11.34 14.113 9.734 14.703 8 14.703c-3.129 0-6.5-1.996-6.5-6.375 0-1.957.684-3.601 1.973-4.75C4.648 2.531 6.253 1.953 8 1.953m0-.375c-3.57 0-6.875 2.332-6.875 6.75 0 4.395 3.305 6.75 6.875 6.75s6.875-2.418 6.875-6.75c0-4.355-3.305-6.75-6.875-6.75m0 0" style="stroke:none;fill-rule:nonzero;fill:#eb8f00;fill-opacity:1"/><path d="m8.656 105.563 19.907-10.407M27.156 88 6.063 90.938M6.063 75.688l21.25 5.218M119.344 105.563 99.438 95.156M100.844 88l21.094 2.938M121.938 75.688l-21.25 5.218" style="fill:none;stroke-width:4;stroke-linecap:round;stroke-linejoin:round;stroke:#404040;stroke-opacity:1;stroke-miterlimit:10" transform="scale(.125)"/><path d="M55.5 17v21M71.5 17v21" style="fill:none;stroke-width:7;stroke-linecap:round;stroke-linejoin:round;stroke:#eb8f00;stroke-opacity:1;stroke-miterlimit:10" transform="scale(.125)"/><path d="M5.746 7.453c0-.687-.492-1.25-1.105-1.25-.61 0-1.102.563-1.102 1.25 0 .692.492 1.25 1.102 1.25.613 0 1.105-.558 1.105-1.25M12.46 7.438c0-.688-.491-1.25-1.1-1.25-.614 0-1.106.562-1.106 1.25 0 .69.492 1.25 1.105 1.25.61 0 1.102-.56 1.102-1.25m0 0" style="stroke:none;fill-rule:nonzero;fill:#404040;fill-opacity:1"/><path d="M54.313 95.188c5.343 0 9.687-4.376 9.687-9.657V78M73.688 95.188c-5.344 0-9.688-4.376-9.688-9.657V78" style="fill:none;stroke-width:4;stroke-linecap:round;stroke-linejoin:round;stroke:#404040;stroke-opacity:1;stroke-miterlimit:10" transform="scale(.125)"/><path d="m8.309 9.664.68-.746a.4.4 0 0 0-.31-.668H7.32a.4.4 0 0 0-.308.668l.68.754c.163.187.453.18.617-.008m0 0" style="stroke:none;fill-rule:nonzero;fill:url(#b)"/><g clip-path="url(#c)"><g clip-path="url(#d)"><path d="M7.934 10.453c-1.317 0-2.543-.113-3.567-.3a.364.364 0 0 0-.426.425c.34 1.664 1.977 3.031 3.993 3.031 2.203 0 3.687-1.41 3.996-3.035a.365.365 0 0 0-.43-.422c-1.02.188-2.246.301-3.566.301m0 0" style="stroke:none;fill-rule:nonzero;fill:#242424;fill-opacity:1"/></g></g><g clip-path="url(#e)"><g clip-path="url(#f)"><path d="M12.402 10.355v-1.25H3.465v1.25c1.375.81 2.887 1.254 4.469 1.254s3.093-.445 4.468-1.254m0 0" style="stroke:none;fill-rule:nonzero;fill:#fff;fill-opacity:1"/></g></g><g clip-path="url(#g)"><g clip-path="url(#h)"><path d="M7.934 12.457c-.989 0-1.852.54-2.309 1.34.598.324 1.414.527 2.309.527.898 0 1.714-.203 2.312-.527a2.67 2.67 0 0 0-2.312-1.34m0 0" style="stroke:none;fill-rule:nonzero;fill:#ed7770;fill-opacity:1"/></g></g><g clip-path="url(#i)"><g clip-path="url(#j)"><g clip-path="url(#k)"><path d="M11.355 10.71a3.13 3.13 0 0 1-1.046 1.583c-.637.516-1.457.789-2.375.789-1.59 0-3.012-1.004-3.418-2.371 1.035.176 2.21.266 3.418.266 1.21 0 2.39-.09 3.421-.266m.215-.566q-.035 0-.07.007c-1.02.188-2.246.301-3.566.301-1.317 0-2.543-.113-3.567-.3a.3.3 0 0 0-.066-.008.366.366 0 0 0-.36.433c.34 1.664 1.977 3.031 3.993 3.031 2.203 0 3.687-1.41 3.996-3.035a.365.365 0 0 0-.36-.43m0 0" style="stroke:none;fill-rule:nonzero;fill:#eb8f00;fill-opacity:1"/></g></g></g></svg>