<svg xmlns="http://www.w3.org/2000/svg" xmlns:xlink="http://www.w3.org/1999/xlink" width="16pt" height="16pt" viewBox="0 0 16 16"><defs><linearGradient id="j" x1="108.59" x2="108.59" y1="43.394" y2="108.64" gradientTransform="rotate(6.57 -.983 183.398)scale(-.125 .125)" gradientUnits="userSpaceOnUse"><stop offset=".005" style="stop-color:#eee;stop-opacity:1"/><stop offset=".282" style="stop-color:#eaeaea;stop-opacity:1"/><stop offset=".577" style="stop-color:#ddd;stop-opacity:1"/><stop offset=".879" style="stop-color:#c8c8c8;stop-opacity:1"/><stop offset="1" style="stop-color:#bdbdbd;stop-opacity:1"/></linearGradient><linearGradient id="m" x1="108.68" x2="108.68" y1="44.845" y2="104.89" gradientTransform="rotate(6.57 -.983 183.398)scale(-.125 .125)" gradientUnits="userSpaceOnUse"><stop offset="0" style="stop-color:#ffb300;stop-opacity:1"/><stop offset="1" style="stop-color:#ffea00;stop-opacity:1"/></linearGradient><linearGradient id="n" x1="143.92" x2="143.92" y1="48.626" y2="93.942" gradientTransform="rotate(6.57 -.983 183.398)scale(-.125 .125)" gradientUnits="userSpaceOnUse"><stop offset=".005" style="stop-color:#eee;stop-opacity:1"/><stop offset=".282" style="stop-color:#eaeaea;stop-opacity:1"/><stop offset=".577" style="stop-color:#ddd;stop-opacity:1"/><stop offset=".879" style="stop-color:#c8c8c8;stop-opacity:1"/><stop offset="1" style="stop-color:#bdbdbd;stop-opacity:1"/></linearGradient><linearGradient id="q" x1="67.93" x2="130.99" y1="42.269" y2="36.506" gradientTransform="matrix(-.125 0 0 .125 19.389 0)" gradientUnits="userSpaceOnUse"><stop offset=".005" style="stop-color:#eee;stop-opacity:1"/><stop offset=".488" style="stop-color:#f2f2f2;stop-opacity:1"/><stop offset="1" style="stop-color:#fff;stop-opacity:1"/></linearGradient><linearGradient id="t" x1="76.895" x2="76.895" y1="59.986" y2="121.56" gradientTransform="rotate(-6.57 11.046 8.059)scale(.125)" gradientUnits="userSpaceOnUse"><stop offset=".005" style="stop-color:#eee;stop-opacity:1"/><stop offset=".282" style="stop-color:#eaeaea;stop-opacity:1"/><stop offset=".577" style="stop-color:#ddd;stop-opacity:1"/><stop offset=".879" style="stop-color:#c8c8c8;stop-opacity:1"/><stop offset="1" style="stop-color:#bdbdbd;stop-opacity:1"/></linearGradient><linearGradient id="w" x1="76.884" x2="76.884" y1="61.446" y2="118.01" gradientTransform="rotate(-6.57 11.046 8.059)scale(.125)" gradientUnits="userSpaceOnUse"><stop offset="0" style="stop-color:#ffb300;stop-opacity:1"/><stop offset="1" style="stop-color:#ffea00;stop-opacity:1"/></linearGradient><linearGradient id="x" x1="110.24" x2="110.24" y1="64.924" y2="107.69" gradientTransform="rotate(-6.57 11.046 8.059)scale(.125)" gradientUnits="userSpaceOnUse"><stop offset=".005" style="stop-color:#eee;stop-opacity:1"/><stop offset=".282" style="stop-color:#eaeaea;stop-opacity:1"/><stop offset=".577" style="stop-color:#ddd;stop-opacity:1"/><stop offset=".879" style="stop-color:#c8c8c8;stop-opacity:1"/><stop offset="1" style="stop-color:#bdbdbd;stop-opacity:1"/></linearGradient><linearGradient id="E" x1="44.93" x2="107.99" y1="63.269" y2="57.506" gradientTransform="scale(.125)" gradientUnits="userSpaceOnUse"><stop offset=".005" style="stop-color:#eee;stop-opacity:1"/><stop offset=".488" style="stop-color:#f2f2f2;stop-opacity:1"/><stop offset="1" style="stop-color:#fff;stop-opacity:1"/></linearGradient><clipPath id="b"><path d="M0 0h16v16H0z"/></clipPath><clipPath id="c"><path d="M0 0h16v16H0z"/></clipPath><clipPath id="d"><path d="M0 0h16v16H0z"/></clipPath><clipPath id="e"><path d="M0 0h16v16H0z"/></clipPath><clipPath id="f"><path d="M0 0h16v16H0z"/></clipPath><clipPath id="g"><path d="M0 0h16v16H0z"/></clipPath><clipPath id="h"><path d="M0 0h16v16H0z"/></clipPath><clipPath id="i"><path d="M0 0h16v16H0z"/></clipPath><mask id="k"><g filter="url(#a)"><path d="M0 0h16v16H0z" style="fill:#000;fill-opacity:.2;stroke:none"/></g></mask><mask id="o"><g filter="url(#a)"><path d="M0 0h16v16H0z" style="fill:#000;fill-opacity:.2;stroke:none"/></g></mask><mask id="r"><g filter="url(#a)"><path d="M0 0h16v16H0z" style="fill:#000;fill-opacity:.2;stroke:none"/></g></mask><mask id="u"><g filter="url(#a)"><path d="M0 0h16v16H0z" style="fill:#000;fill-opacity:.2;stroke:none"/></g></mask><mask id="y"><g filter="url(#a)"><path d="M0 0h16v16H0z" style="fill:#000;fill-opacity:.2;stroke:none"/></g></mask><mask id="A"><g filter="url(#a)"><path d="M0 0h16v16H0z" style="fill:#000;fill-opacity:.509804;stroke:none"/></g></mask><mask id="C"><g filter="url(#a)"><path d="M0 0h16v16H0z" style="fill:#000;fill-opacity:.509804;stroke:none"/></g></mask><mask id="F"><g filter="url(#a)"><path d="M0 0h16v16H0z" style="fill:#000;fill-opacity:.2;stroke:none"/></g></mask><g id="l" clip-path="url(#b)"><path d="m3.875 5.055.184.023 2.789.32 2.785.32.172.02-.84 6.371q-.053.464-.746.723c-.418.16-.992.246-1.61.246-.234 0-.468-.012-.683-.039-.508-.059-1.27-.234-1.875-.555-.41-.218-.887-.574-.832-1.05Zm-.246-.309-.684 6.66c-.129 1.121 1.75 1.77 2.95 1.91.214.024.46.04.714.04 1.153 0 2.524-.297 2.63-1.215l.878-6.645-.453-.05-5.57-.645Zm0 0" style="stroke:none;fill-rule:nonzero;fill:#424242;fill-opacity:1"/></g><g id="p" clip-path="url(#c)"><path d="m3.3 5.328.263.223-.32 3L3 10.867l-.059.051c-.187-.121-.523-.297-1.09-.504-.913-.332-1.128-.621-.964-2.55.176-2.114.715-2.145 1.238-2.176a2.46 2.46 0 0 0 1.176-.36M2.129 9.61c.75 0 .855-.886.926-1.53.047-.388.086-.75.039-1.044-.09-.508-.426-.652-.7-.683a1 1 0 0 0-.113-.008c-.742 0-.832.781-.922 1.539-.043.383-.086.75-.035 1.039.09.508.426.652.696.683q.057.005.109.004m1.187-4.636s-.406.39-1.207.437c-.687.04-1.312.184-1.5 2.43-.168 1.96.047 2.437 1.149 2.836.957.344 1.199.601 1.199.601L3.262 11l.254-2.418.34-3.145ZM2.13 9.332q-.037.001-.074-.004c-.575-.066-.504-.672-.418-1.418.082-.707.148-1.289.644-1.289q.042-.001.082.004c.575.066.504.672.418 1.418-.082.71-.18 1.289-.652 1.289m0 0" style="stroke:none;fill-rule:nonzero;fill:#424242;fill-opacity:1"/></g><g id="s" clip-path="url(#d)"><path d="M6.313 2.7q.047 0 .101.003c.281.027.547.156.754.371.07.074.168.117.27.117a.4.4 0 0 0 .164-.039q.217-.11.464-.109.054.002.102.004c.434.043.82.332.996.738.059.14.195.23.344.23h.02q.021-.004.042-.003a.705.705 0 0 1 .688.723.4.4 0 0 1-.008.07.37.37 0 0 0 .14.351c.075.059.141.168.114.301a.23.23 0 0 1-.207.176q-.02.005-.04.004c-.027 0-.042-.004-.046-.004l-.016-.012a.379.379 0 0 0-.488.156.44.44 0 0 1-.305.215l-.054.012c-.016.008-.036.012-.051.016-.063.023-.145.046-.227.09-.261.14-.355.41-.437.648-.133.383-.192.445-.399.445H8.16c-.187-.02-.394-.078-.433-.55a2.4 2.4 0 0 0-.176-.66.5.5 0 0 0-.473-.321.5.5 0 0 0-.273.078c-.164.105-.36.16-.563.16q-.05.001-.101-.004a1.17 1.17 0 0 1-.73-.351.96.96 0 0 0-.661-.282.85.85 0 0 0-.39.098.62.62 0 0 1-.419.05.715.715 0 0 1-.554-.597.6.6 0 0 1 .066-.37.84.84 0 0 0 .078-.579.593.593 0 0 1 .55-.73h.024q.049 0 .09.003a.888.888 0 0 0 .684-.16.6.6 0 0 1 .355-.113c.02 0 .04.004.059.004a.6.6 0 0 1 .14.027q.056.019.11.02c.07 0 .144-.02.203-.063.168-.105.363-.164.566-.164m0-.375c-.285 0-.55.082-.769.223a1.4 1.4 0 0 0-.219-.043q-.046-.002-.094-.004a.97.97 0 0 0-.574.188.54.54 0 0 1-.32.097q-.042-.001-.09-.008-.07-.006-.144-.007h-.04a.964.964 0 0 0-.921.878.9.9 0 0 0 .02.309.46.46 0 0 1-.044.32 1 1 0 0 0-.105.594 1.084 1.084 0 0 0 1.066.941q.248-.002.453-.109a.46.46 0 0 1 .215-.055c.14 0 .285.063.395.172a1.53 1.53 0 0 0 1.097.465c.274 0 .54-.078.766-.219a.13.13 0 0 1 .07-.023.14.14 0 0 1 .125.082c.07.191.137.375.153.559.027.328.148.832.773.89q.053.005.105.004c.813 0 .66-.953 1.012-1.14.07-.036.149-.055.223-.079a.8.8 0 0 0 .566-.402l.028.016a.5.5 0 0 0 .199.035q.035.001.07-.004a.61.61 0 0 0 .54-.469.68.68 0 0 0-.247-.68l.012-.109a1.09 1.09 0 0 0-.98-1.11q-.042-.001-.083-.003c-.023 0-.043.004-.062.004a1.59 1.59 0 0 0-1.305-.965q-.072-.007-.137-.008c-.226 0-.441.055-.629.145a1.57 1.57 0 0 0-.988-.485c-.047.004-.094 0-.136 0m0 0" style="stroke:none;fill-rule:nonzero;fill:#424242;fill-opacity:1"/></g><g id="v" clip-path="url(#e)"><path d="m12.383 7.574.62 6.024c.052.445-.398.785-.784.988-.57.3-1.29.469-1.77.523a6 6 0 0 1-.644.036c-.977 0-2.149-.239-2.227-.915L6.785 8.22l.164-.02 5.262-.605Zm.234-.289-.437.05-5.258.606-.43.047.828 6.274c.102.867 1.399 1.144 2.485 1.144q.364-.002.675-.039c1.13-.129 2.907-.742 2.786-1.8Zm0 0" style="stroke:none;fill-rule:nonzero;fill:#424242;fill-opacity:1"/></g><g id="z" clip-path="url(#f)"><path d="M12.922 7.828c.21.133.582.313 1.113.344.492.027 1.004.058 1.172 2.055.152 1.816-.05 2.093-.914 2.406-.535.191-.848.36-1.027.472l-.055-.046-.23-2.184-.305-2.832Zm1.113 4.047a1 1 0 0 0 .098-.008c.258-.027.574-.164.66-.644.047-.274.004-.618-.035-.985-.086-.71-.168-1.445-.871-1.445q-.052-.001-.106.004c-.258.031-.578.164-.66.644-.047.274-.008.621.035.985.07.61.168 1.449.88 1.449M12.91 7.496l-.508.438.32 2.968.243 2.282.285.261s.23-.242 1.137-.566c1.039-.379 1.238-.824 1.082-2.676-.18-2.121-.766-2.258-1.414-2.293-.762-.043-1.145-.414-1.145-.414m1.125 4.117c-.45 0-.543-.547-.617-1.218-.082-.704-.148-1.274.39-1.336.028-.004.051-.008.079-.008.468 0 .531.55.61 1.219.081.703.144 1.277-.395 1.34q-.037.002-.067.003m0 0" style="stroke:none;fill-rule:nonzero;fill:#424242;fill-opacity:1"/></g><g id="B" clip-path="url(#g)"><path d="M11.879 13.05a.348.348 0 0 1-.43-.296l-.36-3.129a.35.35 0 0 1 .266-.379.352.352 0 0 1 .43.3l.36 3.126a.355.355 0 0 1-.266.379m0 0" style="stroke:none;fill-rule:nonzero;fill:#fff;fill-opacity:.721569"/></g><g id="D" clip-path="url(#h)"><path d="M10.879 13.676a.348.348 0 0 1-.43-.297l-.36-3.129a.35.35 0 0 1 .266-.379.352.352 0 0 1 .43.3l.36 3.126a.355.355 0 0 1-.266.379m0 0" style="stroke:none;fill-rule:nonzero;fill:#fff;fill-opacity:.721569"/></g><g id="G" clip-path="url(#i)"><path d="M10.203 5.324c.203 0 .399.059.567.164a.38.38 0 0 0 .312.043.6.6 0 0 1 .14-.027c.02-.004.044-.004.063-.004q.197.002.352.113a.9.9 0 0 0 .683.16c.032-.003.059-.007.09-.007h.024a.59.59 0 0 1 .55.73.85.85 0 0 0 .079.582c.058.11.082.238.066.371a.72.72 0 0 1-.55.598q-.077.014-.145.015a.6.6 0 0 1-.278-.07.84.84 0 0 0-.39-.094.92.92 0 0 0-.657.282c-.199.199-.46.324-.734.351-.035 0-.07.004-.102.004-.203 0-.398-.055-.562-.16a.5.5 0 0 0-.274-.078.5.5 0 0 0-.472.32c-.078.207-.156.43-.176.66-.039.473-.242.532-.434.551h-.074c-.207 0-.265-.066-.398-.445-.082-.238-.176-.508-.434-.649-.086-.043-.164-.066-.23-.09q-.026-.004-.051-.015l-.055-.012a.44.44 0 0 1-.304-.215.377.377 0 0 0-.489-.156q-.005.007-.015.008-.006.005-.047.004h-.04a.23.23 0 0 1-.206-.176.31.31 0 0 1 .113-.305.36.36 0 0 0 .14-.347c-.003-.028-.007-.047-.007-.07a.705.705 0 0 1 .637-.72c.02-.003.03-.003.05-.003h.063c.148 0 .285-.09.344-.227.171-.41.562-.7.996-.738.03 0 .066-.004.101-.004q.242 0 .465.105.076.041.164.04c.098 0 .2-.04.27-.114.203-.215.472-.344.754-.37.035 0 .066-.005.101-.005m0-.375c-.047 0-.09.004-.137.004-.39.035-.734.219-.988.488a1.4 1.4 0 0 0-.629-.144q-.069-.001-.136.004a1.59 1.59 0 0 0-1.305.965h-.145a1.087 1.087 0 0 0-.98 1.109q0 .058.012.11a.69.69 0 0 0-.25.68.61.61 0 0 0 .539.468q.036.005.074.004a.5.5 0 0 0 .195-.035l.031-.012c.118.207.32.355.567.398.074.028.152.043.219.078.355.192.199 1.141 1.015 1.141q.047.001.106-.004c.625-.058.746-.562.773-.89.012-.184.078-.368.152-.555a.13.13 0 0 1 .196-.063c.222.145.492.22.761.22.047 0 .09 0 .137-.005.375-.035.715-.207.965-.46.11-.11.25-.169.39-.169q.114 0 .22.051c.132.07.288.11.453.11q.103-.001.218-.02c.442-.094.793-.477.848-.922a.98.98 0 0 0-.11-.594.45.45 0 0 1-.039-.32q.031-.147.02-.305a.97.97 0 0 0-.926-.883h-.039a1 1 0 0 0-.14.012q-.048.005-.094.004a.53.53 0 0 1-.317-.098.97.97 0 0 0-.574-.183q-.046-.001-.094.004a.8.8 0 0 0-.218.043 1.37 1.37 0 0 0-.77-.23m0 0" style="stroke:none;fill-rule:nonzero;fill:#424242;fill-opacity:1"/></g><filter id="a" width="100%" height="100%" x="0%" y="0%" filterUnits="objectBoundingBox"><feColorMatrix in="SourceGraphic" values="0 0 0 0 1 0 0 0 0 1 0 0 0 0 1 0 0 0 1 0"/></filter></defs><path d="m4.09 4.8 5.574.645.453.051-.879 6.649c-.129 1.12-2.144 1.308-3.343 1.171-1.2-.14-3.082-.789-2.954-1.91L3.63 4.75Zm0 0" style="stroke:none;fill-rule:nonzero;fill:url(#j)"/><use xlink:href="#l" mask="url(#k)"/><path d="m4.246 5.04-.644 6.007c0 .21.144.43.367.562.394.243 1.191.524 2.094.63.863.097 1.617.011 2.062-.122.285-.082.527-.285.582-.48l.719-6Zm0 0" style="stroke:none;fill-rule:nonzero;fill:url(#m)"/><path d="M7.438 11.723c0 .07-.055.125-.125.125a.126.126 0 0 1-.125-.125c0-.067.058-.125.125-.125.07 0 .125.058.125.125M7.71 11.414a.084.084 0 0 1-.085.086.087.087 0 0 1-.086-.086c0-.047.04-.086.086-.086.05 0 .086.04.086.086M7.25 11.191a.153.153 0 0 1-.305 0c0-.082.07-.148.153-.148s.152.066.152.148M7.793 11.098c0 .086-.07.156-.156.156a.157.157 0 0 1-.157-.156c0-.086.07-.153.157-.153.086 0 .156.067.156.153M7.344 10.383a.13.13 0 0 1-.125.125.126.126 0 0 1-.125-.125c0-.07.054-.125.125-.125.066 0 .125.055.125.125M7.648 10.48c0 .06-.05.11-.113.11a.11.11 0 0 1-.11-.11c0-.062.052-.113.11-.113.063 0 .113.051.113.113M8.2 9.824a.11.11 0 0 1-.114.11.107.107 0 0 1-.11-.11.11.11 0 0 1 .11-.113c.062 0 .113.05.113.113M7.246 9.047a.14.14 0 0 1-.14.14.14.14 0 0 1-.141-.14.14.14 0 0 1 .14-.14.14.14 0 0 1 .141.14M7.86 10.137a.173.173 0 0 1-.173.172.173.173 0 0 1-.171-.172c0-.094.078-.172.172-.172s.171.078.171.172M7.473 9.563a.173.173 0 0 1-.172.171.173.173 0 0 1-.168-.171.17.17 0 0 1 .34 0M8.02 9.426a.126.126 0 0 1-.125.125.126.126 0 0 1-.125-.125c0-.07.054-.125.125-.125.07 0 .125.054.125.125m0 0" style="stroke:none;fill-rule:nonzero;fill:#e4a324;fill-opacity:1"/><path d="m3.855 5.438-.539-.465s-.406.39-1.21.437c-.688.04-1.31.184-1.5 2.43-.165 1.96.05 2.437 1.152 2.836.957.344 1.199.601 1.199.601L3.262 11l.254-2.418Zm-1.8 3.89c-.57-.062-.504-.668-.418-1.414s.156-1.351.726-1.285c.575.066.504.668.418 1.418-.086.742-.191 1.344-.726 1.281m0 0" style="stroke:none;fill-rule:nonzero;fill:url(#n)"/><use xlink:href="#p" mask="url(#o)"/><path d="M3.121 4.277a.45.45 0 0 0 .04-.32q-.031-.148-.02-.309a.965.965 0 0 1 1.105-.87.56.56 0 0 0 .41-.09.98.98 0 0 1 .668-.184q.112.013.219.043c.254-.164.57-.25.906-.219.387.035.735.219.989.488.226-.113.488-.164.765-.14a1.58 1.58 0 0 1 1.305.965 1 1 0 0 1 .148 0c.563.05 1 .547.98 1.109l-.011.11a.68.68 0 0 1 .246.68.61.61 0 0 1-.539.468.6.6 0 0 1-.27-.031l-.027-.016a.8.8 0 0 1-.566.398c-.078.028-.153.043-.223.082-.367.196-.184 1.22-1.117 1.133-.625-.058-.746-.558-.774-.89a2 2 0 0 0-.152-.555.134.134 0 0 0-.195-.063 1.44 1.44 0 0 1-.899.215 1.57 1.57 0 0 1-.968-.46c-.164-.165-.41-.22-.606-.118a1 1 0 0 1-.672.086 1.08 1.08 0 0 1-.847-.918.94.94 0 0 1 .105-.594m0 0" style="stroke:none;fill-rule:nonzero;fill:url(#q)"/><use xlink:href="#s" mask="url(#r)"/><path d="m10.445 1.703.825-.148c.039-.008.078.027.074.066l-.117 1.723c-.004.066-.094.082-.122.023l-.707-1.574a.066.066 0 0 1 .047-.09M12.566 1.68l.688.476c.035.024.039.074.008.102l-1.305 1.137c-.047.042-.121-.008-.098-.07l.614-1.618c.011-.035.062-.05.093-.027M13.914 3.234l.145.829a.062.062 0 0 1-.067.074L12.27 4.02c-.067-.004-.079-.094-.02-.122l1.574-.707c.035-.02.082.004.09.043m0 0" style="stroke:none;fill-rule:nonzero;fill:#f44336;fill-opacity:1"/><path d="m12.18 7.336-2.63.305-2.628.3-.43.047.828 6.274c.121 1.058 2.028 1.238 3.16 1.105 1.13-.129 2.907-.742 2.786-1.8l-.649-6.282Zm0 0" style="stroke:none;fill-rule:nonzero;fill:url(#t)"/><use xlink:href="#v" mask="url(#u)"/><path d="m12.023 7.574.618 5.656c0 .196-.137.407-.348.532-.371.226-1.121.492-1.977.593-.812.094-1.523.008-1.949-.113-.265-.078-.496-.273-.547-.453l-.687-5.652Zm0 0" style="stroke:none;fill-rule:nonzero;fill:url(#w)"/><path d="M9.258 13.867a.12.12 0 0 1-.117.117.12.12 0 0 1-.121-.117c0-.066.054-.117.12-.117.063 0 .118.05.118.117M8.922 13.578a.08.08 0 0 1-.078.078.08.08 0 0 1-.082-.078.08.08 0 0 1 .082-.082.08.08 0 0 1 .078.082M9.484 13.367a.143.143 0 0 1-.14.145.147.147 0 0 1-.145-.145c0-.078.067-.14.145-.14a.14.14 0 0 1 .14.14M8.98 13.277a.144.144 0 0 1-.144.145.145.145 0 0 1-.149-.145c0-.082.067-.144.149-.144.078 0 .144.062.144.144M9.348 12.602a.12.12 0 0 1-.118.117.115.115 0 0 1-.117-.117c0-.067.051-.118.117-.118.063 0 .118.051.118.118M9.031 12.691a.105.105 0 0 1-.105.106.104.104 0 0 1-.102-.106c0-.058.047-.105.102-.105.058 0 .105.047.105.105M8.516 12.074a.105.105 0 0 1-.106.106.105.105 0 0 1-.105-.106.105.105 0 1 1 .21 0M9.469 11.34a.13.13 0 0 1-.133.133.13.13 0 0 1-.133-.133c0-.07.059-.133.133-.133s.133.063.133.133M8.945 12.371c0 .09-.07.16-.16.16s-.16-.07-.16-.16.07-.16.16-.16.16.07.16.16M9.309 11.828c0 .09-.07.16-.16.16a.16.16 0 0 1-.16-.16.16.16 0 0 1 .16-.156c.09 0 .16.07.16.156M8.707 11.7c0 .062-.05.116-.117.116a.12.12 0 0 1-.117-.117c0-.066.05-.117.117-.117.066 0 .117.05.117.117m0 0" style="stroke:none;fill-rule:nonzero;fill:#e4a324;fill-opacity:1"/><path d="m12.719 10.902.242 2.282.289.261s.23-.242 1.133-.566c1.039-.379 1.242-.824 1.086-2.676-.18-2.121-.766-2.258-1.418-2.293-.758-.047-1.137-.418-1.137-.418l-.508.442Zm.699-.507c-.082-.704-.148-1.274.39-1.336.54-.063.606.507.688 1.21.082.704.145 1.278-.394 1.34-.504.059-.606-.507-.684-1.214m0 0" style="stroke:none;fill-rule:nonzero;fill:url(#x)"/><use xlink:href="#z" mask="url(#y)"/><use xlink:href="#B" mask="url(#A)"/><use xlink:href="#D" mask="url(#C)"/><path d="M13.395 6.902a.46.46 0 0 1-.043-.32q.034-.149.023-.309a.97.97 0 0 0-1.11-.87.55.55 0 0 1-.406-.09.99.99 0 0 0-.886-.141 1.43 1.43 0 0 0-.907-.219c-.39.035-.738.219-.992.488a1.43 1.43 0 0 0-.765-.14 1.59 1.59 0 0 0-1.305.965 1 1 0 0 0-.145 0c-.562.05-1 .547-.98 1.109a.5.5 0 0 0 .012.11.69.69 0 0 0-.25.68.61.61 0 0 0 .539.468.6.6 0 0 0 .273-.031l.027-.016c.118.207.32.36.567.398.074.028.152.043.219.082.37.196.187 1.22 1.12 1.133.626-.058.747-.558.774-.89.012-.18.078-.368.152-.555a.134.134 0 0 1 .196-.063c.262.168.578.243.898.215.375-.035.715-.207.965-.46a.53.53 0 0 1 .61-.118 1 1 0 0 0 .671.086 1.09 1.09 0 0 0 .848-.918 1 1 0 0 0-.105-.594m0 0" style="stroke:none;fill-rule:nonzero;fill:url(#E)"/><use xlink:href="#G" mask="url(#F)"/><path d="M5.273 8.387c0 .062-.05.117-.117.117a.12.12 0 0 1-.117-.117c0-.067.055-.121.117-.121.067 0 .117.054.117.12M5.453 8.738a.08.08 0 0 1-.082.082.08.08 0 0 1-.078-.082c0-.043.035-.078.078-.078a.08.08 0 0 1 .082.078M4.98 8.82c0 .078-.066.14-.144.14a.14.14 0 0 1-.14-.14c0-.078.062-.144.14-.144s.144.066.144.144M5.453 9.031a.144.144 0 0 1-.144.145.145.145 0 0 1-.149-.145c0-.082.067-.144.149-.144.078 0 .144.062.144.144M4.875 9.59c0 .066-.05.117-.117.117a.115.115 0 0 1-.117-.117c0-.067.05-.117.117-.117.066 0 .117.05.117.117M5.176 9.574a.104.104 0 0 1-.102.106.105.105 0 0 1-.105-.106c0-.058.047-.105.105-.105.055 0 .102.047.102.105M5.527 10.3a.105.105 0 0 1-.105.106.105.105 0 0 1-.106-.105c0-.055.047-.102.106-.102s.105.047.105.102M4.477 10.785c0 .07-.063.133-.133.133a.134.134 0 0 1-.133-.133c0-.074.059-.133.133-.133.07 0 .133.059.133.133M5.293 9.922c0 .09-.074.16-.164.16s-.16-.07-.16-.16.07-.16.16-.16.164.07.164.16M4.8 10.36a.158.158 0 0 1-.316 0 .158.158 0 1 1 .317 0M5.27 10.621c0 .066-.051.117-.118.117a.12.12 0 0 1-.117-.117c0-.066.055-.117.117-.117.067 0 .118.05.118.117m0 0" style="stroke:none;fill-rule:nonzero;fill:#e4a324;fill-opacity:1"/></svg>