<svg xmlns="http://www.w3.org/2000/svg" xmlns:xlink="http://www.w3.org/1999/xlink" width="16pt" height="16pt" viewBox="0 0 16 16"><defs><radialGradient id="k" cx="52.44" cy="100.64" r="12.849" fx="52.44" fy="100.64" gradientTransform="matrix(.125 0 0 -.125 0 16.25)" gradientUnits="userSpaceOnUse"><stop offset=".087" style="stop-color:#d99914;stop-opacity:1"/><stop offset=".41" style="stop-color:#d59612;stop-opacity:1"/><stop offset=".735" style="stop-color:#c98d0d;stop-opacity:1"/><stop offset=".987" style="stop-color:#ba8207;stop-opacity:1"/></radialGradient><radialGradient id="d" cx="113.64" cy="83.019" r="14.631" fx="113.64" fy="83.019" gradientTransform="scale(.125)" gradientUnits="userSpaceOnUse"><stop offset=".081" style="stop-color:#de7f14;stop-opacity:1"/><stop offset=".339" style="stop-color:#da7d12;stop-opacity:1"/><stop offset=".599" style="stop-color:#ce760d;stop-opacity:1"/><stop offset=".86" style="stop-color:#ba6c05;stop-opacity:1"/><stop offset=".987" style="stop-color:#ad6500;stop-opacity:1"/></radialGradient><radialGradient id="q" cx="89.314" cy="45.694" r="11.845" fx="89.314" fy="45.694" gradientTransform="scale(.125)" gradientUnits="userSpaceOnUse"><stop offset="0" style="stop-color:#de7f14;stop-opacity:1"/><stop offset=".329" style="stop-color:#db7e13;stop-opacity:1"/><stop offset=".527" style="stop-color:#d37911;stop-opacity:1"/><stop offset=".69" style="stop-color:#c5720d;stop-opacity:1"/><stop offset=".835" style="stop-color:#b06708;stop-opacity:1"/><stop offset=".966" style="stop-color:#975901;stop-opacity:1"/><stop offset=".989" style="stop-color:#915600;stop-opacity:1"/></radialGradient><radialGradient id="r" cx="32.778" cy="58.198" r="7.683" fx="32.778" fy="58.198" gradientTransform="matrix(.1118 .00165 -.00185 .12499 .5 -.058)" gradientUnits="userSpaceOnUse"><stop offset="0" style="stop-color:#de7f14;stop-opacity:1"/><stop offset=".265" style="stop-color:#da7d13;stop-opacity:1"/><stop offset=".51" style="stop-color:#cf770f;stop-opacity:1"/><stop offset=".746" style="stop-color:#bd6d09;stop-opacity:1"/><stop offset=".976" style="stop-color:#a26000;stop-opacity:1"/><stop offset=".987" style="stop-color:#a15f00;stop-opacity:1"/></radialGradient><radialGradient id="s" cx="229.26" cy="353.29" r="8.543" fx="229.26" fy="353.29" gradientTransform="rotate(43.7 -28.72 -40.527)scale(.125 -.10235)" gradientUnits="userSpaceOnUse"><stop offset=".087" style="stop-color:#d99914;stop-opacity:1"/><stop offset=".41" style="stop-color:#d59612;stop-opacity:1"/><stop offset=".735" style="stop-color:#c98d0d;stop-opacity:1"/><stop offset=".987" style="stop-color:#ba8207;stop-opacity:1"/></radialGradient><radialGradient id="f" cx="77.251" cy="83.38" r="26.321" fx="77.251" fy="83.38" gradientTransform="scale(.125)" gradientUnits="userSpaceOnUse"><stop offset=".081" style="stop-color:#de7f14;stop-opacity:1"/><stop offset=".339" style="stop-color:#da7d12;stop-opacity:1"/><stop offset=".599" style="stop-color:#ce760d;stop-opacity:1"/><stop offset=".86" style="stop-color:#ba6c05;stop-opacity:1"/><stop offset=".987" style="stop-color:#ad6500;stop-opacity:1"/></radialGradient><radialGradient id="h" cx="44.104" cy="97.791" r="12.936" fx="44.104" fy="97.791" gradientTransform="scale(.125)" gradientUnits="userSpaceOnUse"><stop offset=".081" style="stop-color:#de7f14;stop-opacity:1"/><stop offset=".339" style="stop-color:#da7d12;stop-opacity:1"/><stop offset=".599" style="stop-color:#ce760d;stop-opacity:1"/><stop offset=".86" style="stop-color:#ba6c05;stop-opacity:1"/><stop offset=".987" style="stop-color:#ad6500;stop-opacity:1"/></radialGradient><radialGradient id="j" cx="20.37" cy="80.858" r="4.596" fx="20.37" fy="80.858" gradientTransform="scale(.125)" gradientUnits="userSpaceOnUse"><stop offset=".081" style="stop-color:#de7f14;stop-opacity:1"/><stop offset=".339" style="stop-color:#da7d12;stop-opacity:1"/><stop offset=".599" style="stop-color:#ce760d;stop-opacity:1"/><stop offset=".86" style="stop-color:#ba6c05;stop-opacity:1"/><stop offset=".987" style="stop-color:#ad6500;stop-opacity:1"/></radialGradient><clipPath id="b"><path d="M0 0h16v16H0z"/></clipPath><clipPath id="c"><path d="M0 0h16v16H0z"/></clipPath><clipPath id="e"><path d="M0 0h16v16H0z"/></clipPath><clipPath id="g"><path d="M0 0h16v16H0z"/></clipPath><clipPath id="i"><path d="M0 0h16v16H0z"/></clipPath><mask id="m"><g filter="url(#a)"><path d="M0 0h16v16H0z" style="fill:#000;fill-opacity:.2;stroke:none"/></g></mask><mask id="o"><g filter="url(#a)"><path d="M0 0h16v16H0z" style="fill:#000;fill-opacity:.901961;stroke:none"/></g></mask><mask id="t"><g filter="url(#a)"><path d="M0 0h16v16H0z" style="fill:#000;fill-opacity:.901961;stroke:none"/></g></mask><mask id="v"><g filter="url(#a)"><path d="M0 0h16v16H0z" style="fill:#000;fill-opacity:.901961;stroke:none"/></g></mask><mask id="x"><g filter="url(#a)"><path d="M0 0h16v16H0z" style="fill:#000;fill-opacity:.901961;stroke:none"/></g></mask><g id="n" clip-path="url(#b)"><path d="M10.398 1.84h.024c2.71.36 4.324 2.312 4.672 2.777-.004.762-.02 4.442 0 6.004.004.27-.121.61-.489.684L.906 14.07V7.984l4.172-2.992c.152.11.352.2.598.2q.218 0 .441-.094a.39.39 0 0 0 .254-.375v-.778l.297-.187c.844-.524 3.078-1.918 3.73-1.918m0-.406c-.91 0-3.691 1.84-4.425 2.277q0-.001.011.004h-.02l.005 1.008a.8.8 0 0 1-.297.058c-.371 0-.543-.328-.543-.328L.504 7.777v.22H.5v6.57l14.188-2.868c.523-.11.82-.578.812-1.086-.023-1.715 0-6.035 0-6.125v-.004h-.004c-.05-.078-1.82-2.625-5.023-3.046q-.034-.005-.075-.004m0 0" style="stroke:none;fill-rule:nonzero;fill:#606060;fill-opacity:1"/></g><g id="p" clip-path="url(#c)"><path d="M13.504 8.574c.582-.05 1.05.356 1.05.914 0 .559-.468 1.055-1.05 1.106-.582.05-1.05-.356-1.05-.914 0-.559.468-1.051 1.05-1.106m0 0" style="stroke:none;fill-rule:nonzero;fill:url(#d)"/></g><g id="u" clip-path="url(#e)"><path d="M8.36 7.605c.988-.09 1.788.61 1.788 1.56 0 .948-.8 1.788-1.789 1.882-.992.086-1.793-.61-1.793-1.559s.801-1.793 1.793-1.883m0 0" style="stroke:none;fill-rule:nonzero;fill:url(#f)"/></g><g id="w" clip-path="url(#g)"><path d="M4.938 10.574c.5-.047.906.309.906.79 0 .48-.407.906-.907.952-.503.043-.91-.308-.91-.789 0-.48.407-.91.91-.953m0 0" style="stroke:none;fill-rule:nonzero;fill:url(#h)"/></g><g id="y" clip-path="url(#i)"><path d="M2.266 9.25c.265-.023.484.164.484.422a.53.53 0 0 1-.484.512c-.27.023-.489-.164-.489-.422s.22-.489.489-.512m0 0" style="stroke:none;fill-rule:nonzero;fill:url(#j)"/></g><linearGradient id="l" x1="64" x2="64" y1="78.096" y2="21.966" gradientTransform="matrix(.125 0 0 -.125 0 16.25)" gradientUnits="userSpaceOnUse"><stop offset=".02" style="stop-color:#f7bc00;stop-opacity:1"/><stop offset="1" style="stop-color:#fcd73e;stop-opacity:1"/></linearGradient><filter id="a" width="100%" height="100%" x="0%" y="0%" filterUnits="objectBoundingBox"><feColorMatrix in="SourceGraphic" values="0 0 0 0 1 0 0 0 0 1 0 0 0 0 1 0 0 0 1 0"/></filter></defs><path d="m5.965 3.715.004 1.172c.699.02.808-1.164-.004-1.172m0 0" style="stroke:none;fill-rule:nonzero;fill:url(#k)"/><path d="M15.5 4.484s-.023 4.399 0 6.133c.008.508-.29.973-.812 1.086L.5 14.566v-6.57c0-.02 15-3.512 15-3.512m0 0" style="stroke:none;fill-rule:nonzero;fill:url(#l)"/><path d="M15.5 4.488s-1.773-2.625-5.027-3.05c-.828-.11-3.743 1.824-4.496 2.273 0 0 1.125.46.066.98-.629.309-.914-.234-.914-.234L.504 7.777v.22C3.133 7.386 15.5 4.487 15.5 4.487m0 0" style="stroke:none;fill-rule:nonzero;fill:#ffe959;fill-opacity:1"/><use xlink:href="#n" mask="url(#m)"/><use xlink:href="#p" mask="url(#o)"/><path d="M12.414 5.203s-.426-.871-1.633-.566c-1.203.3-1.101 1.191-1.101 1.191s.437.969 1.62.652c1.036-.37 1.114-1.277 1.114-1.277m0 0" style="stroke:none;fill-rule:nonzero;fill:url(#q)"/><path d="M4.797 6.988s-.242-.582-.957-.39c-.711.191-.66.777-.66.777s.316.543.93.387c.617-.16.687-.774.687-.774m0 0" style="stroke:none;fill-rule:nonzero;fill:url(#r)"/><path d="M10.152 2.402c.38-.035.684.157.684.422 0 .266-.305.512-.684.547-.379.031-.687-.156-.687-.422 0-.27.305-.511.687-.547m0 0" style="stroke:none;fill-rule:nonzero;fill:url(#s)"/><use xlink:href="#u" mask="url(#t)"/><use xlink:href="#w" mask="url(#v)"/><use xlink:href="#y" mask="url(#x)"/></svg>