<svg xmlns="http://www.w3.org/2000/svg" xmlns:xlink="http://www.w3.org/1999/xlink" width="16pt" height="16pt" viewBox="0 0 16 16"><defs><clipPath id="b"><path d="M0 0h16v16H0z"/></clipPath><clipPath id="c"><path d="M0 0h16v16H0z"/></clipPath><clipPath id="d"><path d="M0 0h16v16H0z"/></clipPath><clipPath id="e"><path d="M0 0h16v16H0z"/></clipPath><mask id="g"><g filter="url(#a)"><path d="M0 0h16v16H0z" style="fill:#000;fill-opacity:.2;stroke:none"/></g></mask><mask id="j"><g filter="url(#a)"><path d="M0 0h16v16H0z" style="fill:#000;fill-opacity:.2;stroke:none"/></g></mask><mask id="m"><g filter="url(#a)"><path d="M0 0h16v16H0z" style="fill:#000;fill-opacity:.2;stroke:none"/></g></mask><mask id="p"><g filter="url(#a)"><path d="M0 0h16v16H0z" style="fill:#000;fill-opacity:.2;stroke:none"/></g></mask><g id="h" clip-path="url(#b)"><path d="M9.977 1.82v.375c.55 0 1.613.145 2.52 1.11.429.457.558 1.074.694 1.73.098.465.196.938.41 1.348a9 9 0 0 1-.44-.07c-1.024-.184-2.188-.395-2.99-1.227-.858-.887-.948-2.125-.929-2.797.207-.062.465-.094.735-.094zm0 0c-.461 0-.848.086-1.094.203-.035.434-.13 2.137 1.02 3.325.886.918 2.136 1.144 3.19 1.336a9 9 0 0 0 1.391.136c-1.18-.758-.656-2.644-1.714-3.773A3.8 3.8 0 0 0 9.977 1.82m0 0" style="stroke:none;fill-rule:nonzero;fill:#424242;fill-opacity:1"/></g><g id="k" clip-path="url(#c)"><path d="M7.621 1.035c1.262 4.903 2.887 7.559 3.578 8.531-1.527-1.515-3.043-5.199-3.176-5.992a.24.24 0 0 0-.234-.21h-.012a.25.25 0 0 0-.242.19l-.004.024c-.375 1.57-.996 4.18-2.734 6.645l-.121-.024c.61-.863 2.133-3.386 2.777-7.804a.2.2 0 0 0-.012-.122 8 8 0 0 0-.488-1.078zm.18-.297-1.227.29s.367.593.633 1.331c-.797 5.457-2.973 8.016-2.973 8.016l.676.121c1.844-2.55 2.477-5.23 2.867-6.883.137.836 1.856 5.086 3.59 6.438l.348-.215S9.422 7.176 7.8.738m0 0" style="stroke:none;fill-rule:nonzero;fill:#424242;fill-opacity:1"/></g><g id="n" clip-path="url(#d)"><path d="M12.535 9.11c.485 0 .961.175 1.34.495.43.356.707.872.813 1.489.214 1.324-.797 3.125-1.907 3.355-.11.02-.172.051-.246.051h-.058c-.114 0-.254-.023-.473.02a2.5 2.5 0 0 0-.48.14 1.434 1.434 0 0 1-.559.105c-1.11 0-2.485-1.156-2.777-2.327-.215-.864.015-1.489.25-1.86a2.06 2.06 0 0 1 1.316-.933c.258-.055.457-.06.648-.063.18-.004.364-.008.578-.05.211-.048.383-.114.547-.184.176-.07.36-.145.618-.2.128-.023.257-.039.39-.039m0-.382q-.235 0-.465.046c-.543.114-.78.301-1.168.38-.386.081-.683.003-1.226.113-1.227.254-2.285 1.554-1.86 3.261.329 1.325 1.844 2.618 3.153 2.618q.186 0 .367-.036c.332-.07.36-.136.746-.218.184-.036.293-.016.395-.016h.058c.09 0 .18-.027.324-.059 1.371-.28 2.45-2.296 2.204-3.773-.25-1.523-1.418-2.316-2.528-2.316m0 0" style="stroke:none;fill-rule:nonzero;fill:#424242;fill-opacity:1"/></g><g id="q" clip-path="url(#e)"><path d="M3.621 9.207c.094 0 .192.008.281.023.262.036.45.102.633.165.168.058.344.12.559.152.113.015.226.023.36.023q.106.001.218-.004.105-.005.223-.004c.148 0 .28.008.425.032.535.078 1.032.39 1.356.851.254.36.523.973.355 1.848-.234 1.227-1.613 2.477-2.73 2.477a1.2 1.2 0 0 1-.473-.09c-.11-.04-.246-.09-.488-.125a2 2 0 0 0-.34-.028q-.093-.001-.164.004-.051.005-.11.004a1 1 0 0 1-.167-.015c-1.122-.168-2.235-1.88-2.086-3.211.152-1.446 1.222-2.102 2.148-2.102m0-.383c-1.148 0-2.36.848-2.535 2.442-.16 1.488 1.027 3.43 2.414 3.636q.134.017.227.016c.093 0 .171-.008.273-.008.074 0 .164.004.285.024.39.058.418.148.754.199q.128.016.262.015c1.332 0 2.84-1.41 3.105-2.785.332-1.73-.793-2.968-2.031-3.152a3 3 0 0 0-.48-.035c-.16 0-.301.008-.442.008-.098 0-.195-.004-.305-.02-.39-.059-.64-.234-1.187-.316a2.5 2.5 0 0 0-.34-.024m0 0" style="stroke:none;fill-rule:nonzero;fill:#424242;fill-opacity:1"/></g><radialGradient id="l" cx="82.352" cy="90.475" r="19.968" fx="82.352" fy="90.475" gradientTransform="rotate(-11.677 11.564 12.05)scale(.125)" gradientUnits="userSpaceOnUse"><stop offset=".007" style="stop-color:#ff817d;stop-opacity:1"/><stop offset="1" style="stop-color:#cd0000;stop-opacity:1"/></radialGradient><radialGradient id="o" cx="26.446" cy="87.138" r="28.724" fx="26.446" fy="87.138" gradientTransform="rotate(-7.95 5.031 11.399)scale(.125)" gradientUnits="userSpaceOnUse"><stop offset=".007" style="stop-color:#ff817d;stop-opacity:1"/><stop offset=".393" style="stop-color:#ed524f;stop-opacity:1"/><stop offset="1" style="stop-color:#cd0000;stop-opacity:1"/></radialGradient><linearGradient id="f" x1="67.838" x2="104" y1="11.342" y2="46.521" gradientTransform="scale(.125)" gradientUnits="userSpaceOnUse"><stop offset=".123" style="stop-color:#689f38;stop-opacity:1"/><stop offset=".322" style="stop-color:#73a743;stop-opacity:1"/><stop offset=".668" style="stop-color:#8ebd60;stop-opacity:1"/><stop offset=".993" style="stop-color:#aed581;stop-opacity:1"/></linearGradient><linearGradient id="i" x1="63.444" x2="63.444" y1="6.595" y2="85.465" gradientTransform="rotate(-1.1 8.002 7.81)scale(.125)" gradientUnits="userSpaceOnUse"><stop offset=".003" style="stop-color:#a67c52;stop-opacity:1"/><stop offset=".214" style="stop-color:#9f754c;stop-opacity:1"/><stop offset=".523" style="stop-color:#8b623a;stop-opacity:1"/><stop offset=".892" style="stop-color:#6b431d;stop-opacity:1"/><stop offset="1" style="stop-color:#603813;stop-opacity:1"/></linearGradient><filter id="a" width="100%" height="100%" x="0%" y="0%" filterUnits="objectBoundingBox"><feColorMatrix in="SourceGraphic" values="0 0 0 0 1 0 0 0 0 1 0 0 0 0 1 0 0 0 1 0"/></filter></defs><path d="M9.262 1.926c.062.047.125.101.133.18.007.074-.04.14-.082.203-.04.05-.083.101-.141.113-.063.012-.125-.024-.18-.059-.254-.175-.492-.414-.8-.445-.106-.012-.403-.031-.329-.219.047-.117.266-.12.367-.12.364 0 .735.132 1.032.347m0 0" style="stroke:none;fill-rule:nonzero;fill:#558b2f;fill-opacity:1"/><path d="M8.883 2.023c.687-.332 2.523-.43 3.887 1.024 1.058 1.129.535 3.016 1.714 3.773a9 9 0 0 1-1.39-.136c-1.055-.192-2.305-.418-3.192-1.336-1.148-1.188-1.054-2.891-1.02-3.325m0 0" style="stroke:none;fill-rule:nonzero;fill:url(#f)"/><use xlink:href="#h" mask="url(#g)"/><path d="M9.387 2.227s.09.007.234.054q.111.038.258.098c.098.047.207.098.32.168.114.066.227.152.348.246l.172.156c.054.059.113.114.168.176.11.125.215.266.304.406.09.14.184.29.27.434.09.144.176.293.262.433.086.145.175.278.265.407q.136.192.278.355.145.16.285.285c.094.086.183.157.265.223l.22.152.198.13h-.004l-.214-.098c-.063-.032-.145-.079-.239-.13-.086-.054-.191-.113-.293-.19q-.08-.06-.16-.126a5 5 0 0 1-.164-.144c-.11-.102-.21-.223-.316-.348-.207-.25-.39-.543-.578-.828q-.139-.211-.278-.418a4 4 0 0 0-.289-.379 4 4 0 0 0-.308-.316c-.11-.094-.211-.18-.313-.25a3.5 3.5 0 0 0-.508-.32c-.129-.067-.207-.098-.207-.098Zm0 0" style="stroke:none;fill-rule:nonzero;fill:#558b2f;fill-opacity:1"/><path d="m7.8.738-1.226.29s.367.593.633 1.331c-.797 5.457-2.973 8.016-2.973 8.016l.676.121c1.844-2.55 2.477-5.23 2.867-6.883.137.836 1.856 5.086 3.59 6.438l.348-.215S9.422 7.176 7.8.738m0 0" style="stroke:none;fill-rule:nonzero;fill:url(#i)"/><use xlink:href="#k" mask="url(#j)"/><path d="M12.07 8.773c-.543.114-.78.301-1.168.38-.386.081-.683.003-1.226.113-1.227.254-2.285 1.554-1.86 3.261.36 1.453 2.145 2.864 3.52 2.578.332-.066.36-.16.746-.242.387-.078.445-.004.777-.07 1.371-.285 2.446-2.29 2.204-3.762-.286-1.738-1.766-2.511-2.993-2.258m0 0" style="stroke:none;fill-rule:nonzero;fill:url(#l)"/><use xlink:href="#n" mask="url(#m)"/><path d="M6.375 9.21c-.547-.081-.832.013-1.223-.046-.39-.059-.644-.234-1.191-.316-1.238-.184-2.684.668-2.875 2.418-.16 1.488 1.027 3.43 2.414 3.636.332.051.39-.027.785.032.39.058.418.148.75.199 1.387.207 3.09-1.301 3.371-2.77.332-1.726-.793-2.965-2.031-3.152m0 0" style="stroke:none;fill-rule:nonzero;fill:url(#o)"/><use xlink:href="#q" mask="url(#p)"/></svg>