<svg xmlns="http://www.w3.org/2000/svg" xmlns:xlink="http://www.w3.org/1999/xlink" width="16pt" height="16pt" viewBox="0 0 16 16"><defs><linearGradient id="d" x1="100.07" x2="129.83" y1="25.355" y2="41.351" gradientTransform="rotate(-2.58 8.442 7.528)scale(.125)" gradientUnits="userSpaceOnUse"><stop offset=".005" style="stop-color:#a0bd46;stop-opacity:1"/><stop offset=".424" style="stop-color:#7f972d;stop-opacity:1"/><stop offset=".926" style="stop-color:#52650b;stop-opacity:1"/></linearGradient><linearGradient id="g" x1="50.173" x2="90.802" y1="63.088" y2="120.79" gradientTransform="rotate(-2.58 8.442 7.528)scale(.125)" gradientUnits="userSpaceOnUse"><stop offset=".281" style="stop-color:#ff1744;stop-opacity:1"/><stop offset=".654" style="stop-color:#b20500;stop-opacity:1"/><stop offset="1" style="stop-color:#eb382f;stop-opacity:1"/></linearGradient><clipPath id="b"><path d="M0 0h16v16H0z"/></clipPath><clipPath id="c"><path d="M0 0h16v16H0z"/></clipPath><mask id="e"><g filter="url(#a)"><path d="M0 0h16v16H0z" style="fill:#000;fill-opacity:.2;stroke:none"/></g></mask><mask id="h"><g filter="url(#a)"><path d="M0 0h16v16H0z" style="fill:#000;fill-opacity:.2;stroke:none"/></g></mask><g id="f" clip-path="url(#b)"><path d="M13.176 1.742c.199 0 .46.082.562.469.051.191.09.555.13.941.097.903.175 1.516.386 1.805l.031.04c.07.097.125.175.176.237-.32-.007-.684-.078-.774-.125a.7.7 0 0 0-.296-.074c.004-.004.007-.012.015-.015.207-.266.399-1.415.281-2.016-.109-.55-.48-.883-.703-1.082q-.045-.045-.082-.078a.36.36 0 0 1 .211-.094c.02-.008.043-.008.063-.008m0-.25q-.045-.001-.09.004c-.297.031-.57.3-.399.484.172.184.641.489.754 1.067.114.582-.093 1.637-.234 1.812-.047.063-.16.086-.281.086-.223 0-.48-.07-.48-.07s.038.215.316.344c.113.054.23.062.347.062h.196c.097 0 .191.008.265.047.157.082.606.156.938.156.11 0 .207-.011.273-.03.227-.067.364-.071.403-.071h.007s.07-.09-.18-.117c-.25-.032-.257-.051-.554-.457-.3-.41-.328-2.094-.477-2.66-.136-.516-.511-.657-.804-.657m0 0" style="stroke:none;fill-rule:nonzero;fill:#424242;fill-opacity:1"/></g><g id="i" clip-path="url(#c)"><path d="M12.781 5.492q.218.002.492.086c.168.055.336.059.477.059h.168c.289 0 .535.023.805.297.422.437.254 1.23-.141 2.84l-.02.074c-.675 2.777-2.976 4.304-3.933 4.832q-.035.021-.059.03c-.699.403-2.004 1.153-3.625 1.153a5 5 0 0 1-.43-.02c-.968-.077-1.882-.152-2.804-.702-.406-.243-1.016-.5-1.672-.707a2.2 2.2 0 0 0-.797-.106c.227-.125.57-.242 1.082-.242h.106l.445.016c.64.02 1.145.035 1.61.035.593 0 1.066-.028 1.523-.094 1.012-.145 2.25-.418 3.75-1.383 1.137-.726 1.847-1.906 2.11-3.508.058-.343.054-.664.05-.968-.008-.391-.016-.73.105-1.07.004-.005.004-.012.008-.016a.8.8 0 0 1 .274-.426q.016-.013.039-.031c.078-.059.187-.149.437-.149m0-.375c-.426 0-.617.192-.703.258-.246.184-.355.45-.406.613-.25.7-.05 1.36-.172 2.106-.125.746-.48 2.316-1.945 3.254-1.461.937-2.633 1.187-3.602 1.324-.473.066-.933.09-1.473.09-.562 0-1.207-.024-2.043-.051H2.32c-1.539 0-2.062.965-1.863 1.285 0 0 .023.07.074.07.031 0 .067-.02.114-.078.093-.12.324-.289.722-.289.156 0 .344.028.559.094.699.219 1.265.473 1.594.668.992.594 1.968.676 2.964.758q.235.016.457.015c1.723 0 3.094-.785 3.813-1.199.285-.16 3.344-1.71 4.172-5.101.41-1.676.656-2.649.062-3.262-.375-.383-.746-.41-1.074-.41h-.164c-.133 0-.254-.004-.367-.04a2 2 0 0 0-.602-.105m0 0" style="stroke:none;fill-rule:nonzero;fill:#424242;fill-opacity:1"/></g><filter id="a" width="100%" height="100%" x="0%" y="0%" filterUnits="objectBoundingBox"><feColorMatrix in="SourceGraphic" values="0 0 0 0 1 0 0 0 0 1 0 0 0 0 1 0 0 0 1 0"/></filter></defs><path d="M12.445 4.875s.621.164.762-.016c.14-.175.348-1.23.234-1.812-.117-.582-.582-.883-.754-1.067-.175-.183.098-.453.399-.484.3-.027.742.082.894.652.149.567.176 2.254.477 2.66.297.407.305.426.555.458.25.027.18.117.18.117s-.145-.008-.41.07c-.262.078-1.005-.016-1.212-.125-.207-.11-.53.024-.808-.105-.278-.133-.317-.348-.317-.348m0 0" style="stroke:none;fill-rule:nonzero;fill:url(#d)"/><use xlink:href="#f" mask="url(#e)"/><path d="M11.672 5.988c-.246.7-.05 1.364-.172 2.106-.121.746-.48 2.316-1.941 3.254-1.465.937-2.637 1.191-3.606 1.324-.965.137-1.879.094-3.512.039C.81 12.66.254 13.668.457 14c0 0 .05.164.188-.012.136-.172.53-.43 1.28-.195.704.223 1.266.477 1.595.672.992.594 1.972.672 2.964.754 1.938.16 3.493-.735 4.274-1.18.281-.164 3.34-1.715 4.168-5.101.41-1.68.66-2.649.062-3.262-.593-.614-1.183-.32-1.605-.453-.863-.27-1.188.066-1.305.152-.246.184-.355.45-.406.613m0 0" style="stroke:none;fill-rule:nonzero;fill:url(#g)"/><use xlink:href="#i" mask="url(#h)"/></svg>