<svg xmlns="http://www.w3.org/2000/svg" xmlns:xlink="http://www.w3.org/1999/xlink" width="16pt" height="16pt" viewBox="0 0 16 16"><defs><linearGradient id="g" x1="63.999" x2="63.999" y1="11.93" y2="67.27" gradientTransform="rotate(-45 8 8)scale(.125)" gradientUnits="userSpaceOnUse"><stop offset=".169" style="stop-color:#795649;stop-opacity:1"/><stop offset=".794" style="stop-color:#5d4137;stop-opacity:1"/></linearGradient><linearGradient id="j" x1="71.76" x2="103.77" y1="71.684" y2="103.69" gradientTransform="scale(.125)" gradientUnits="userSpaceOnUse"><stop offset=".027" style="stop-color:#c62828;stop-opacity:1"/><stop offset=".721" style="stop-color:#e53a35;stop-opacity:1"/></linearGradient><linearGradient id="d" x1="63.296" x2="61.637" y1="86.509" y2="94.369" gradientTransform="rotate(-45 8 8)scale(.125)" gradientUnits="userSpaceOnUse"><stop offset=".3" style="stop-color:#434343;stop-opacity:1"/><stop offset=".794" style="stop-color:#434343;stop-opacity:0"/></linearGradient><linearGradient id="o" x1="59.073" x2="81.167" y1="59.162" y2="81.256" gradientTransform="scale(.125)" gradientUnits="userSpaceOnUse"><stop offset=".169" style="stop-color:#eceff0;stop-opacity:1"/><stop offset=".794" style="stop-color:#d0d8dc;stop-opacity:1"/></linearGradient><clipPath id="b"><path d="M0 0h16v16H0z"/></clipPath><clipPath id="c"><path d="M0 0h16v16H0z"/></clipPath><clipPath id="e"><path d="M0 0h16v16H0z"/></clipPath><clipPath id="f"><path d="M0 0h16v16H0z"/></clipPath><mask id="h"><g filter="url(#a)"><path d="M0 0h16v16H0z" style="fill:#000;fill-opacity:.2;stroke:none"/></g></mask><mask id="k"><g filter="url(#a)"><path d="M0 0h16v16H0z" style="fill:#000;fill-opacity:.4;stroke:none"/></g></mask><mask id="m"><g filter="url(#a)"><path d="M0 0h16v16H0z" style="fill:#000;fill-opacity:.2;stroke:none"/></g></mask><mask id="p"><g filter="url(#a)"><path d="M0 0h16v16H0z" style="fill:#000;fill-opacity:.2;stroke:none"/></g></mask><g id="i" clip-path="url(#b)"><path d="M6.117.906c.102 0 .196.04.27.11l8.547 8.515a.36.36 0 0 1 .113.266c0 .098-.04.191-.113.262l-4.864 4.847a.37.37 0 0 1-.265.11.4.4 0 0 1-.27-.11L.985 6.391a.37.37 0 0 1-.11-.266c0-.102.04-.195.11-.266l4.863-4.843a.4.4 0 0 1 .27-.11m0-.375a.76.76 0 0 0-.532.219L.719 5.594a.75.75 0 0 0 0 1.062l8.55 8.516a.76.76 0 0 0 1.067 0l4.863-4.848a.747.747 0 0 0 0-1.058L6.65.75a.76.76 0 0 0-.532-.219m0 0" style="stroke:none;fill-rule:nonzero;fill:#434343;fill-opacity:1"/></g><g id="l" clip-path="url(#c)"><path d="m13.723 8.574-6.727 4.52-1.426-1.422c-.195-.195-.18-.527.035-.742l5.325-5.301c.215-.215.547-.23.746-.035l2.172 2.164c.226.226.164.62-.125.816m0 0" style="stroke:none;fill-rule:nonzero;fill:url(#d)"/></g><g id="n" clip-path="url(#e)"><path d="M11.004 5.613c.101 0 .2.04.27.11l3.742 3.73a.37.37 0 0 1 0 .527l-5.024 5.004a.38.38 0 0 1-.535 0l-3.746-3.726a.37.37 0 0 1-.11-.266c0-.101.04-.195.11-.265l5.023-5.004a.4.4 0 0 1 .27-.11m0-.375a.76.76 0 0 0-.531.219l-5.024 5.004a.745.745 0 0 0 0 1.062l3.742 3.727a.755.755 0 0 0 1.063 0l5.023-5.004a.745.745 0 0 0 0-1.062L11.54 5.457a.76.76 0 0 0-.535-.219m0 0" style="stroke:none;fill-rule:nonzero;fill:#434343;fill-opacity:1"/></g><g id="q" clip-path="url(#f)"><path d="M10.86 5.004c.027 0 .062.008.085.031l2.25 2.238c.028.032.032.07.032.102a.25.25 0 0 1-.118.18l-6.847 4.644-1.254-1.25c-.024-.02-.031-.047-.031-.082 0-.058.027-.117.074-.164l5.644-5.621a.23.23 0 0 1 .164-.078m0-.375a.62.62 0 0 0-.43.184l-5.644 5.62c-.226.231-.246.579-.043.782l1.473 1.469 7.105-4.82c.309-.208.375-.622.14-.856L11.21 4.77a.5.5 0 0 0-.35-.141m0 0" style="stroke:none;fill-rule:nonzero;fill:#434343;fill-opacity:1"/></g><filter id="a" width="100%" height="100%" x="0%" y="0%" filterUnits="objectBoundingBox"><feColorMatrix in="SourceGraphic" values="0 0 0 0 1 0 0 0 0 1 0 0 0 0 1 0 0 0 1 0"/></filter></defs><path d="m15.2 10.328-4.864 4.844a.757.757 0 0 1-1.066 0L.719 6.656a.75.75 0 0 1 0-1.062L5.586.75a.75.75 0 0 1 1.062 0L15.2 9.266a.75.75 0 0 1 0 1.062m0 0" style="stroke:none;fill-rule:nonzero;fill:url(#g)"/><use xlink:href="#i" mask="url(#h)"/><path d="m15.281 10.246-5.027 5.004a.75.75 0 0 1-1.063 0L5.45 11.523a.745.745 0 0 1 0-1.062l5.024-5.004a.75.75 0 0 1 1.062 0l3.742 3.727c.297.296.297.77.004 1.062m0 0" style="stroke:none;fill-rule:nonzero;fill:url(#j)"/><path d="M3.594 4.566v-.64L1.32 6.19l2.274 2.262v-.637L1.96 6.191Zm0 0" style="stroke:none;fill-rule:nonzero;fill:#8d6e63;fill-opacity:1"/><path d="m3.594 4.566 1.633 1.625-1.633 1.625v.637l2.273-2.262-2.273-2.265Zm0 0" style="stroke:none;fill-rule:nonzero;fill:#6d4d42;fill-opacity:1"/><path d="M3.594 4.566 1.96 6.191l1.633 1.625 1.633-1.625Zm0 0" style="stroke:none;fill-rule:nonzero;fill:#795649;fill-opacity:1"/><path d="M6.215 1.953v-.64L3.94 3.578l2.274 2.266v-.64l-1.63-1.626Zm0 0" style="stroke:none;fill-rule:nonzero;fill:#8d6e63;fill-opacity:1"/><path d="m6.215 1.953 1.633 1.625-1.633 1.625.004.64 2.273-2.265L6.22 1.313Zm0 0" style="stroke:none;fill-rule:nonzero;fill:#6d4d42;fill-opacity:1"/><path d="m6.215 1.953-1.63 1.625 1.63 1.625 1.633-1.625ZM6.293 7.25v-.64L4.016 8.874l2.277 2.266V10.5L4.66 8.875Zm0 0" style="stroke:none;fill-rule:nonzero;fill:#795649;fill-opacity:1"/><path d="m6.293 7.25 1.629 1.625L6.293 10.5v.64l2.273-2.265-2.273-2.266Zm0 0" style="stroke:none;fill-rule:nonzero;fill:#5d4137;fill-opacity:1"/><path d="M6.293 7.25 4.66 8.875 6.293 10.5l1.629-1.625Zm0 0" style="stroke:none;fill-rule:nonzero;fill:#6d4d42;fill-opacity:1"/><path d="M8.914 4.64V4L6.641 6.266l2.273 2.261v-.636L7.281 6.266Zm0 0" style="stroke:none;fill-rule:nonzero;fill:#795649;fill-opacity:1"/><path d="m8.914 4.64 1.633 1.626L8.914 7.89v.636l2.274-2.261L8.914 4Zm0 0" style="stroke:none;fill-rule:nonzero;fill:#5d4137;fill-opacity:1"/><path d="M8.914 4.64 7.281 6.267 8.914 7.89l1.633-1.625Zm0 0" style="stroke:none;fill-rule:nonzero;fill:#6d4d42;fill-opacity:1"/><use xlink:href="#l" mask="url(#k)"/><use xlink:href="#n" mask="url(#m)"/><path d="m13.32 7.863-7.105 4.82-1.473-1.468c-.203-.203-.183-.55.043-.781l5.645-5.621c.226-.227.578-.247.78-.043l2.247 2.238c.238.234.172.648-.137.855m0 0" style="stroke:none;fill-rule:nonzero;fill:url(#o)"/><use xlink:href="#q" mask="url(#p)"/></svg>