<svg xmlns="http://www.w3.org/2000/svg" width="16pt" height="16pt" viewBox="0 0 16 16"><defs><radialGradient id="b" cx="39.417" cy="67.104" r="21.667" fx="39.417" fy="67.104" gradientTransform="matrix(.125 0 0 .09134 0 2.474)" gradientUnits="userSpaceOnUse"><stop offset="0" style="stop-color:#ed7770;stop-opacity:1"/><stop offset=".9" style="stop-color:#ed7770;stop-opacity:0"/></radialGradient><radialGradient id="c" cx="87.583" cy="67.104" r="21.667" fx="87.583" fy="67.104" gradientTransform="matrix(.125 0 0 .09134 0 2.474)" gradientUnits="userSpaceOnUse"><stop offset="0" style="stop-color:#ed7770;stop-opacity:1"/><stop offset=".9" style="stop-color:#ed7770;stop-opacity:0"/></radialGradient><radialGradient id="d" cx="66" cy="60" r="20.67" fx="66" fy="60" gradientUnits="userSpaceOnUse"><stop offset="0" style="stop-color:#ff4900;stop-opacity:1"/><stop offset="1" style="stop-color:#e30c00;stop-opacity:1"/></radialGradient><linearGradient id="a" x1="63.989" x2="63.989" y1="19.871" y2="107.6" gradientTransform="scale(.125)" gradientUnits="userSpaceOnUse"><stop offset=".5" style="stop-color:#fff;stop-opacity:1"/><stop offset=".613" style="stop-color:#fcfcfc;stop-opacity:1"/><stop offset=".709" style="stop-color:#f1f1f1;stop-opacity:1"/><stop offset=".8" style="stop-color:#dfdfdf;stop-opacity:1"/><stop offset=".886" style="stop-color:#c7c7c7;stop-opacity:1"/><stop offset=".9" style="stop-color:#c2c2c2;stop-opacity:1"/></linearGradient><linearGradient id="e" x1="23.808" x2="23.808" y1="5.811" y2="43.454" gradientTransform="scale(.125)" gradientUnits="userSpaceOnUse"><stop offset="0" style="stop-color:#ff4900;stop-opacity:1"/><stop offset="1" style="stop-color:#e30c00;stop-opacity:1"/></linearGradient><linearGradient id="f" x1="104.63" x2="104.63" y1="5.811" y2="43.454" gradientTransform="scale(.125)" gradientUnits="userSpaceOnUse"><stop offset="0" style="stop-color:#ff4900;stop-opacity:1"/><stop offset="1" style="stop-color:#e30c00;stop-opacity:1"/></linearGradient></defs><path d="M8 14.969c-3.484 0-7.23-2.18-7.23-6.965S4.516 1.039 8 1.039c1.93 0 3.715.637 5.027 1.797 1.442 1.27 2.2 3.055 2.2 5.168 0 2.101-.758 3.887-2.2 5.16C11.711 14.328 9.926 14.97 8 14.97m0 0" style="stroke:none;fill-rule:nonzero;fill:url(#a)"/><path d="M8 1.285c1.867 0 3.594.617 4.863 1.738 1.383 1.22 2.114 2.942 2.114 4.98 0 2.028-.73 3.747-2.114 4.97-1.273 1.125-3 1.746-4.863 1.746-1.875 0-3.605-.61-4.867-1.723C1.75 11.781 1.02 10.055 1.02 8.004 1.02 5.94 1.75 4.21 3.133 3 4.39 1.895 6.12 1.285 8 1.285m0-.5C4.117.785.52 3.281.52 8.004c0 4.695 3.597 7.215 7.48 7.215s7.477-2.582 7.477-7.215c0-4.66-3.594-7.219-7.477-7.219m0 0" style="stroke:none;fill-rule:nonzero;fill:#b0aba3;fill-opacity:1"/><path d="M7.418 8.605c0-1.054-1.117-1.91-2.492-1.91s-2.488.856-2.488 1.91c0 1.051 1.113 1.907 2.488 1.907s2.492-.856 2.492-1.907m0 0" style="stroke:none;fill-rule:nonzero;fill:url(#b)"/><path d="M13.438 8.605c0-1.054-1.114-1.91-2.489-1.91s-2.492.856-2.492 1.91c0 1.051 1.117 1.907 2.492 1.907s2.489-.856 2.489-1.907m0 0" style="stroke:none;fill-rule:nonzero;fill:url(#c)"/><path d="M11.41 6.25H9.625a.483.483 0 0 1 0-.965h1.785c.266 0 .485.219.485.48-.028.27-.243.485-.485.485m0 0" style="stroke:none;fill-rule:nonzero;fill:#242424;fill-opacity:1"/><path d="M10.492 7.145a.486.486 0 0 1-.48-.485V4.875c0-.266.218-.484.48-.484.266 0 .485.218.485.484V6.66a.484.484 0 0 1-.485.485m0 0" style="stroke:none;fill-rule:nonzero;fill:#242424;fill-opacity:1"/><path d="M79.094 66c0 8.344-6.75 15.125-15.094 15.125S48.875 74.344 48.875 66 55.656 50.875 64 50.875 79.094 57.656 79.094 66Zm0 0" style="fill-rule:nonzero;fill:url(#d);stroke-width:5;stroke-linecap:butt;stroke-linejoin:miter;stroke:#b32e2e;stroke-opacity:1;stroke-miterlimit:10" transform="scale(.125)"/><path d="M8 12.938c-1.8 0-3.492-.766-4.64-2.11a.46.46 0 0 1-.07-.496.48.48 0 0 1 .429-.281c.082 0 .164.023.238.066C5.133 10.801 6.531 11.16 8 11.16s2.863-.36 4.043-1.043a.47.47 0 0 1 .238-.066c.18 0 .348.11.426.281a.46.46 0 0 1-.07.496c-1.149 1.344-2.84 2.11-4.637 2.11m0 0" style="stroke:none;fill-rule:nonzero;fill:#242424;fill-opacity:1"/><path d="M12.281 10.3c.168 0 .297.212.164.368A5.83 5.83 0 0 1 8 12.688c-1.793 0-3.39-.79-4.45-2.02-.132-.156-.003-.367.169-.367q.054 0 .11.031c1.167.68 2.609 1.082 4.171 1.082 1.559 0 3-.402 4.168-1.082a.24.24 0 0 1 .113-.031m0-.5a.7.7 0 0 0-.363.101c-1.14.66-2.496 1.012-3.918 1.012-1.426 0-2.781-.351-3.918-1.012a.721.721 0 0 0-1.02.324.71.71 0 0 0 .11.766C4.363 12.387 6.125 13.187 8 13.187c1.871 0 3.633-.8 4.828-2.195a.71.71 0 0 0 .106-.765.72.72 0 0 0-.653-.426m0 0" style="stroke:none;fill-rule:nonzero;fill:#ed0009;fill-opacity:1"/><path d="M1.453 5.86A1.045 1.045 0 0 1 .41 4.815c0-.39.215-.746.567-.925a.254.254 0 0 0 .113-.32 1.62 1.62 0 0 1 1.488-2.254c.348 0 .684.109.965.32a.23.23 0 0 0 .227.035.24.24 0 0 0 .16-.168.83.83 0 0 1 .793-.598.82.82 0 1 1-.22 1.61q-.035-.007-.066-.008a.254.254 0 0 0-.25.273q.007.076.008.153c0 .843-.633 1.535-1.472 1.609a.246.246 0 0 0-.227.254v.023c0 .57-.469 1.04-1.043 1.04m0 0" style="stroke:none;fill-rule:nonzero;fill:url(#e)"/><path d="M4.723 1.156a.571.571 0 1 1-.153 1.121.491.491 0 0 0-.457.098.5.5 0 0 0-.176.43c.004.05.004.09.004.129 0 .71-.535 1.296-1.242 1.359a.503.503 0 0 0-.457.508v.027a.794.794 0 0 1-1.586-.012c0-.296.168-.566.43-.703a.497.497 0 0 0 .23-.64A1.369 1.369 0 0 1 3.39 1.836a.49.49 0 0 0 .462.074.5.5 0 0 0 .32-.336.57.57 0 0 1 .55-.418m0-.5c-.492 0-.906.328-1.03.782a1.85 1.85 0 0 0-1.114-.372A1.87 1.87 0 0 0 .707 2.934c0 .261.055.507.152.734a1.292 1.292 0 1 0 1.883 1.148v-.023a1.866 1.866 0 0 0 1.692-2.031 1.073 1.073 0 1 0 .29-2.105m0 0" style="stroke:none;fill-rule:nonzero;fill:#b32e2e;fill-opacity:1"/><path d="M14.602 5.86a1.045 1.045 0 0 1-1.043-1.044l.004-.02a.25.25 0 0 0-.231-.253 1.61 1.61 0 0 1-1.465-1.762.26.26 0 0 0-.086-.215.28.28 0 0 0-.16-.058.3.3 0 0 0-.066.008.82.82 0 1 1 .57-1.012.25.25 0 0 0 .16.168.2.2 0 0 0 .078.016.25.25 0 0 0 .153-.051c.28-.211.613-.32.964-.32.891 0 1.618.726 1.618 1.617 0 .218-.047.433-.133.636-.05.121 0 .258.117.32.348.18.563.536.563.926 0 .575-.47 1.043-1.043 1.043m0 0" style="stroke:none;fill-rule:nonzero;fill:url(#f)"/><path d="M11.332 1.156c.258 0 .48.172.55.414.048.16.165.285.321.34q.084.024.16.024c.11 0 .215-.032.301-.098a1.369 1.369 0 0 1 2.184 1.098c0 .183-.04.367-.114.535a.5.5 0 0 0 .23.64.793.793 0 0 1-.36 1.5.794.794 0 0 1-.791-.78V4.8a.503.503 0 0 0-.458-.508A1.36 1.36 0 0 1 12.11 2.93q.001-.054.008-.125a.5.5 0 0 0-.5-.547c-.043 0-.086.008-.133.015a.5.5 0 0 1-.152.024.571.571 0 0 1 0-1.14m0-.5a1.07 1.07 0 1 0 .29 2.102 1 1 0 0 0-.013.17c0 .977.75 1.774 1.704 1.86 0 .008-.004.016-.004.024a1.292 1.292 0 1 0 1.887-1.148c.097-.224.148-.474.148-.735a1.867 1.867 0 0 0-2.98-1.496 1.07 1.07 0 0 0-1.032-.778m0 0" style="stroke:none;fill-rule:nonzero;fill:#b32e2e;fill-opacity:1"/><path d="M5.457 4.617c-.523 0-1 .442-1 1.18 0 .734.477 1.176 1 1.176.527 0 1-.442 1-1.176 0-.738-.473-1.18-1-1.18m0 0" style="stroke:none;fill-rule:nonzero;fill:#242424;fill-opacity:1"/></svg>