<svg xmlns="http://www.w3.org/2000/svg" xmlns:xlink="http://www.w3.org/1999/xlink" width="16pt" height="16pt" viewBox="0 0 16 16"><defs><linearGradient id="d" x1="63.678" x2="63.678" y1="112.76" y2="123.88" gradientTransform="scale(.125)" gradientUnits="userSpaceOnUse"><stop offset="0" style="stop-color:#f2f3ed;stop-opacity:1"/><stop offset="1" style="stop-color:#c8c6b9;stop-opacity:1"/></linearGradient><linearGradient id="e" x1="64" x2="64" y1="6.94" y2="116.96" gradientTransform="scale(.125)" gradientUnits="userSpaceOnUse"><stop offset="0" style="stop-color:#f2f3ed;stop-opacity:1"/><stop offset=".76" style="stop-color:#c8c6b9;stop-opacity:1"/><stop offset=".995" style="stop-color:#fffcec;stop-opacity:1"/></linearGradient><linearGradient id="f" x1="63.83" x2="63.83" y1="18.132" y2="48.712" gradientTransform="scale(.125)" gradientUnits="userSpaceOnUse"><stop offset="0" style="stop-color:#e8ffa1;stop-opacity:1"/><stop offset="1" style="stop-color:#9ba269;stop-opacity:1"/></linearGradient><clipPath id="b"><path d="M0 0h16v16H0z"/></clipPath><clipPath id="c"><path d="M0 0h16v16H0z"/></clipPath><mask id="g"><g filter="url(#a)"><path d="M0 0h16v16H0z" style="fill:#000;fill-opacity:.521569;stroke:none"/></g></mask><mask id="i"><g filter="url(#a)"><path d="M0 0h16v16H0z" style="fill:#000;fill-opacity:.2;stroke:none"/></g></mask><g id="h" clip-path="url(#b)"><path d="M11.488 2.7c0-.278-1.566-.5-3.496-.5-1.933 0-3.5.222-3.5.5 0 .277 1.567.5 3.5.5 1.93 0 3.496-.223 3.496-.5m0 0" style="stroke:none;fill-rule:nonzero;fill:#e6eecb;fill-opacity:1"/></g><g id="j" clip-path="url(#c)"><path d="M8.023.996c2.34 0 3.813.223 4.368.399l-.254.304C9.445 4.863 8.285 6.355 8.125 6.836a6 6 0 0 0-.152.578 6 6 0 0 0-.153-.578c-.16-.488-1.316-1.984-3.984-5.172q-.119-.141-.215-.258c.524-.176 2.012-.41 4.402-.41m-.05 13.211c.047.145.18.25.336.262.714.039 1.18.187 1.367.3-.203.122-.766.313-1.715.313-.953 0-1.512-.191-1.715-.312.188-.114.66-.266 1.39-.305a.37.37 0 0 0 .337-.258M8.023.621c-2.484 0-4.535.266-4.859.61q-.082.04-.094.081h-.004l.004.004c0 .004-.004.008-.004.012 0 .031 4.137 4.844 4.395 5.625.281.867.309 1.754.285 3.531a105 105 0 0 1-.133 3.61c-1.027.05-1.812.332-1.812.676 0 .378.965.687 2.156.687s2.156-.309 2.156-.687c0-.34-.77-.622-1.785-.676-.035-.672-.113-2.25-.133-3.61-.023-1.777.004-2.664.285-3.53.23-.7 3.649-4.661 4.329-5.474q.111-.068.117-.144l.004-.004v-.02h-.004c-.043-.382-2.223-.69-4.903-.69m0 0" style="stroke:none;fill-rule:nonzero;fill:#424242;fill-opacity:1"/></g><filter id="a" width="100%" height="100%" x="0%" y="0%" filterUnits="objectBoundingBox"><feColorMatrix in="SourceGraphic" values="0 0 0 0 1 0 0 0 0 1 0 0 0 0 1 0 0 0 1 0"/></filter></defs><path d="M10.117 14.77c0-.38-.965-.688-2.156-.688s-2.156.309-2.156.688.965.683 2.156.683 2.156-.305 2.156-.683m0 0" style="stroke:none;fill-rule:nonzero;fill:url(#d)"/><path d="M12.93 1.313h-.004C12.824 1.05 10.668.84 8.02.84c-2.668 0-4.88.207-4.946.473H3.07v.011c0 .035 4.133 4.848 4.39 5.63.286.862.313 1.75.286 3.53-.023 1.782-.148 3.942-.148 3.942s-.016.304.379.304c.41 0 .37-.304.37-.304s-.124-2.16-.152-3.942c-.023-1.78.004-2.668.285-3.53.254-.782 4.45-5.587 4.45-5.622l-.004-.016c.004 0 .004-.004.004-.004m0 0" style="stroke:none;fill-rule:nonzero;fill:url(#e)"/><path d="M11.488 2.7c0-.278-1.566-.5-3.496-.5-1.926 0-3.488.222-3.5.495L4.47 2.7s2.414 3.434 3.508 3.434c.98 0 3.027-2.766 3.437-3.332q.075-.048.074-.102m0 0" style="stroke:none;fill-rule:nonzero;fill:url(#f)"/><path d="M12.93 1.324c0-.387-2.196-.703-4.907-.703-2.707 0-4.902.317-4.902.703 0 .39 2.195.703 4.902.703 2.711 0 4.907-.312 4.907-.703m0 0" style="stroke:none;fill-rule:nonzero;fill:#fff;fill-opacity:1"/><path d="M7.855 5.563s.172-.313.461-.762c.141-.227.313-.485.5-.758.098-.137.192-.281.293-.422q.152-.217.309-.43c.102-.144.21-.285.312-.425s.211-.278.31-.407c.202-.265.398-.507.565-.714.34-.41.582-.672.582-.672s-.171.312-.46.761c-.141.227-.313.485-.5.758-.094.137-.192.281-.293.422q-.152.219-.309.43-.158.215-.312.426-.16.211-.313.406a23 23 0 0 1-1.145 1.386m0 0" style="stroke:none;fill-rule:nonzero;fill:#8c6239;fill-opacity:1"/><path d="M9.61 3.906c-.102-.465-.645-.738-1.208-.613-.558.125-.93.605-.824 1.074.102.465.645.738 1.207.613.559-.125.93-.605.824-1.074m0 0" style="stroke:none;fill-rule:nonzero;fill:#81882d;fill-opacity:1"/><path d="M10.426 2.824c-.078-.347-.48-.55-.899-.457-.418.094-.695.453-.617.797.078.348.48.555.899.461.418-.094.695-.453.617-.8m0 0" style="stroke:none;fill-rule:nonzero;fill:#727724;fill-opacity:1"/><path d="M8.793 3.738c-.164-.16-.461-.129-.664.075-.203.203-.238.503-.074.664.164.164.46.132.664-.075.203-.203.238-.5.074-.664M9.691 2.715c-.109-.11-.308-.09-.449.05-.137.137-.16.34-.05.45.113.11.312.086.449-.05.14-.138.164-.34.05-.45m0 0" style="stroke:none;fill-rule:nonzero;fill:#85471b;fill-opacity:1"/><use xlink:href="#h" mask="url(#g)"/><use xlink:href="#j" mask="url(#i)"/></svg>