<svg xmlns="http://www.w3.org/2000/svg" xmlns:xlink="http://www.w3.org/1999/xlink" width="16pt" height="16pt" viewBox="0 0 16 16"><defs><clipPath id="b"><path d="M0 0h16v16H0z"/></clipPath><clipPath id="d"><path d="M0 0h16v16H0z"/></clipPath><clipPath id="e"><path d="M0 0h16v16H0z"/></clipPath><clipPath id="q"><path d="M3 5h9v4H3Zm0 0"/></clipPath><clipPath id="r"><path d="M12.488 6.469c0 1.176-2.117 2.039-4.672 2.039s-4.695-.863-4.695-2.04c0-1.175 2.14-2.128 4.695-2.128s4.672.953 4.672 2.129m0 0"/></clipPath><clipPath id="f"><path d="M0 0h16v16H0z"/></clipPath><clipPath id="g"><path d="M0 0h16v16H0z"/></clipPath><mask id="i"><g filter="url(#a)"><path d="M0 0h16v16H0z" style="fill:#000;fill-opacity:.490196;stroke:none"/></g></mask><mask id="k"><g filter="url(#a)"><path d="M0 0h16v16H0z" style="fill:#000;fill-opacity:.2;stroke:none"/></g></mask><mask id="o"><g filter="url(#a)"><path d="M0 0h16v16H0z" style="fill:#000;fill-opacity:.2;stroke:none"/></g></mask><mask id="t"><g filter="url(#a)"><path d="M0 0h16v16H0z" style="fill:#000;fill-opacity:.580392;stroke:none"/></g></mask><mask id="v"><g filter="url(#a)"><path d="M0 0h16v16H0z" style="fill:#000;fill-opacity:.580392;stroke:none"/></g></mask><g id="j" clip-path="url(#b)"><path d="M12.438 11.137c0 1.234-2.036 2.363-4.547 2.363-2.512 0-4.547-1.133-4.547-2.363s2.035-2.23 4.547-2.23 4.547 1 4.547 2.23m0 0" style="stroke:none;fill-rule:nonzero;fill:url(#c)"/></g><g id="l" clip-path="url(#d)"><path d="M8 8.031c1.926 0 3.73.387 5.078 1.094 1.277.664 1.977 1.516 1.977 2.406s-.7 1.742-1.977 2.406c-1.348.708-3.152 1.094-5.078 1.094s-3.73-.386-5.078-1.094C1.645 13.274.945 12.423.945 11.532c0-.89.7-1.742 1.977-2.406C4.27 8.418 6.074 8.031 8 8.031m0-.375c-4.105 0-7.43 1.735-7.43 3.875S3.895 15.406 8 15.406s7.43-1.734 7.43-3.875S12.105 7.656 8 7.656m0 0" style="stroke:none;fill-rule:nonzero;fill:#424242;fill-opacity:1"/></g><g id="p" clip-path="url(#e)"><path d="M7.809 4.703c2.578 0 4.175.817 4.386 1.594.008.058.02.14.02.168 0 .031-.008.426-.016.664a.38.38 0 0 0 .38.387q.064-.002.136-.028c.281-.11.644-.176.996-.176.164 0 .316.016.437.043.227.051.426.18.536.352.101.164.129.363.074.598-.137.617-.754 1.718-3.324 2.172a.37.37 0 0 0-.239.152c-.742 1.027-1.883 1.547-3.383 1.547-1.289 0-2.312-.38-3.035-1.13-1.3-1.339-1.37-3.534-1.34-4.417v-.02c-.003-.18.012-.3.016-.336.242-.894 2.11-1.57 4.356-1.57m0-.375c-2.442 0-4.446.738-4.727 1.871 0 0-.023.156-.02.414-.046 1.348.11 5.942 4.747 5.942 1.847 0 2.988-.735 3.687-1.707 2.664-.47 3.445-1.657 3.625-2.457.184-.817-.367-1.286-.89-1.403a3.205 3.205 0 0 0-1.656.152c.007-.234.015-.636.015-.675 0-.078-.027-.246-.027-.246-.282-1.133-2.313-1.89-4.754-1.89m0 0" style="stroke:none;fill-rule:nonzero;fill:#424242;fill-opacity:1"/></g><g id="u" clip-path="url(#f)"><path d="M6.613 5.555c-.129.425.278.898.528 1.125.027.023.004.07-.032.058-.304-.074-.843-.218-1.039-.816-.117-.363.055-.754.387-1.32.191-.336.285-.649.309-1.02.03-.379-.063-.668-.227-.86-.027-.03.004-.074.04-.054.284.152.609.437.687.898l.004.004c.082.797-.426 1.215-.657 1.985m0 0" style="stroke:none;fill-rule:nonzero;fill:#d7ccc8;fill-opacity:1"/></g><g id="w" clip-path="url(#g)"><path d="M8.262 5.387c-.305.633.215 1.472.543 1.886.035.047-.008.114-.063.09-.457-.191-1.262-.55-1.418-1.539-.094-.59.274-1.16.93-1.965.387-.48.61-.945.742-1.515.14-.59.063-1.063-.144-1.403-.032-.054.027-.113.078-.078.402.309.84.84.851 1.578v.008c-.07 1.266-.965 1.79-1.52 2.938m0 0" style="stroke:none;fill-rule:nonzero;fill:#d7ccc8;fill-opacity:1"/></g><linearGradient id="c" x1="63.125" x2="63.125" y1="76.604" y2="106.51" gradientTransform="scale(.125)" gradientUnits="userSpaceOnUse"><stop offset="0" style="stop-color:#fff;stop-opacity:1"/><stop offset=".212" style="stop-color:#e2e2e2;stop-opacity:1"/><stop offset=".559" style="stop-color:#b8b8b8;stop-opacity:1"/><stop offset=".832" style="stop-color:#9e9e9e;stop-opacity:1"/><stop offset=".995" style="stop-color:#949494;stop-opacity:1"/></linearGradient><linearGradient id="n" x1="62.637" x2="62.637" y1="28.365" y2="53.127" gradientTransform="scale(.125)" gradientUnits="userSpaceOnUse"><stop offset=".005" style="stop-color:#fff;stop-opacity:1"/><stop offset=".276" style="stop-color:#fbfbfb;stop-opacity:1"/><stop offset=".565" style="stop-color:#eee;stop-opacity:1"/><stop offset=".861" style="stop-color:#d9d9d9;stop-opacity:1"/><stop offset="1" style="stop-color:#ccc;stop-opacity:1"/></linearGradient><linearGradient id="s" x1="62.53" x2="62.53" y1="46.75" y2="74.84" gradientTransform="scale(.125)" gradientUnits="userSpaceOnUse"><stop offset="0" style="stop-color:#7b402b;stop-opacity:1"/><stop offset=".094" style="stop-color:#6f3a28;stop-opacity:1"/><stop offset=".504" style="stop-color:#3f241a;stop-opacity:1"/><stop offset=".818" style="stop-color:#211611;stop-opacity:1"/><stop offset=".995" style="stop-color:#16110e;stop-opacity:1"/></linearGradient><radialGradient id="h" cx="63.138" cy="96.922" r="57.66" fx="63.138" fy="96.922" gradientTransform="matrix(.12682 0 0 .06699 -.007 5.039)" gradientUnits="userSpaceOnUse"><stop offset="0" style="stop-color:#fff;stop-opacity:1"/><stop offset="1" style="stop-color:#e3e3e3;stop-opacity:1"/></radialGradient><radialGradient id="m" cx="62.548" cy="66.739" r="42.384" fx="62.548" fy="66.739" gradientTransform="matrix(.125 0 0 .12269 0 .08)" gradientUnits="userSpaceOnUse"><stop offset=".005" style="stop-color:#fff;stop-opacity:1"/><stop offset=".276" style="stop-color:#fbfbfb;stop-opacity:1"/><stop offset=".565" style="stop-color:#eee;stop-opacity:1"/><stop offset=".861" style="stop-color:#d9d9d9;stop-opacity:1"/><stop offset="1" style="stop-color:#ccc;stop-opacity:1"/></radialGradient><filter id="a" width="100%" height="100%" x="0%" y="0%" filterUnits="objectBoundingBox"><feColorMatrix in="SourceGraphic" values="0 0 0 0 1 0 0 0 0 1 0 0 0 0 1 0 0 0 1 0"/></filter></defs><path d="M15.43 11.531c0-2.14-3.328-3.875-7.43-3.875S.57 9.391.57 11.531 3.898 15.406 8 15.406s7.43-1.734 7.43-3.875m0 0" style="stroke:none;fill-rule:nonzero;fill:url(#h)"/><use xlink:href="#j" mask="url(#i)"/><use xlink:href="#l" mask="url(#k)"/><path d="M14.242 7.02c-.437-.098-1.129-.055-1.656.152.02-.582-.027-.965-.027-.965l-4.746-.008-4.731.004s-.691 6.344 4.73 6.344c1.852 0 2.993-.727 3.696-1.692 2.668-.468 3.449-1.644 3.633-2.44.183-.813-.375-1.278-.899-1.395m.063 1.511c-.067.137-.715 1.02-1.98 1.13 0 0 .448-1.938 1.394-1.958.941-.02.656.692.586.828m0 0" style="stroke:none;fill-rule:nonzero;fill:url(#m)"/><path d="M12.59 6.469c0 1.215-2.137 2.199-4.774 2.199s-4.75-.988-4.75-2.203S5.18 4.27 7.816 4.27s4.774.984 4.774 2.199m0 0" style="stroke:none;fill-rule:nonzero;fill:url(#n)"/><use xlink:href="#p" mask="url(#o)"/><g clip-path="url(#q)"><g clip-path="url(#r)"><path d="M11.906 7.613c0-1.043-1.832-1.883-4.09-1.883s-4.09.84-4.09 1.883c0 1.04 1.833 1.883 4.09 1.883 2.258 0 4.09-.844 4.09-1.883m0 0" style="stroke:none;fill-rule:nonzero;fill:url(#s)"/></g></g><use xlink:href="#u" mask="url(#t)"/><use xlink:href="#w" mask="url(#v)"/><path d="M8.008 14.645c-2.656 0-5.195-.457-6.266-1.555.969 1.129 3.406 1.93 6.266 1.93 2.855 0 5.293-.801 6.262-1.93-1.438 1.055-3.61 1.555-6.262 1.555m0 0" style="stroke:none;fill-rule:nonzero;fill:#fff;fill-opacity:1"/></svg>