<svg xmlns="http://www.w3.org/2000/svg" xmlns:xlink="http://www.w3.org/1999/xlink" width="16pt" height="16pt" viewBox="0 0 16 16"><defs><linearGradient id="c" x1="45.224" x2="84.433" y1="17.039" y2="115.36" gradientTransform="scale(.125)" gradientUnits="userSpaceOnUse"><stop offset=".275" style="stop-color:#fecc81;stop-opacity:1"/><stop offset=".415" style="stop-color:#fdbe64;stop-opacity:1"/><stop offset=".558" style="stop-color:#fcb44b;stop-opacity:1"/><stop offset=".704" style="stop-color:#fbac38;stop-opacity:1"/><stop offset=".85" style="stop-color:#faa82d;stop-opacity:1"/><stop offset="1" style="stop-color:#faa629;stop-opacity:1"/></linearGradient><linearGradient id="d" x1="70.118" x2="84.912" y1="24.4" y2="39.194" gradientTransform="scale(.125)" gradientUnits="userSpaceOnUse"><stop offset=".061" style="stop-color:#d38a29;stop-opacity:1"/><stop offset=".238" style="stop-color:#d48c2b;stop-opacity:1"/><stop offset=".411" style="stop-color:#d89232;stop-opacity:1"/><stop offset=".584" style="stop-color:#de9c41;stop-opacity:1"/><stop offset=".754" style="stop-color:#e6ac58;stop-opacity:1"/><stop offset=".895" style="stop-color:#f0bd71;stop-opacity:1"/></linearGradient><linearGradient id="f" x1="24.008" x2="35.675" y1="35.983" y2="47.65" gradientTransform="rotate(-8.21 -2.324 5.057)scale(.125)" gradientUnits="userSpaceOnUse"><stop offset=".061" style="stop-color:#d38a29;stop-opacity:1"/><stop offset=".238" style="stop-color:#d48c2b;stop-opacity:1"/><stop offset=".411" style="stop-color:#d89232;stop-opacity:1"/><stop offset=".584" style="stop-color:#de9c41;stop-opacity:1"/><stop offset=".754" style="stop-color:#e6ac58;stop-opacity:1"/><stop offset=".895" style="stop-color:#f0bd71;stop-opacity:1"/></linearGradient><linearGradient id="h" x1="68.791" x2="82.69" y1="84.798" y2="98.696" gradientTransform="rotate(33.2 6.372 8.044)scale(.125)" gradientUnits="userSpaceOnUse"><stop offset=".061" style="stop-color:#d38a29;stop-opacity:1"/><stop offset=".238" style="stop-color:#d48c2b;stop-opacity:1"/><stop offset=".411" style="stop-color:#d89232;stop-opacity:1"/><stop offset=".584" style="stop-color:#de9c41;stop-opacity:1"/><stop offset=".754" style="stop-color:#e6ac58;stop-opacity:1"/><stop offset=".895" style="stop-color:#f0bd71;stop-opacity:1"/></linearGradient><linearGradient id="j" x1="122.81" x2="139.94" y1="80.374" y2="97.506" gradientTransform="rotate(-16.536 11.603 28.126)scale(.125)" gradientUnits="userSpaceOnUse"><stop offset=".061" style="stop-color:#d38a29;stop-opacity:1"/><stop offset=".238" style="stop-color:#d48c2b;stop-opacity:1"/><stop offset=".411" style="stop-color:#d89232;stop-opacity:1"/><stop offset=".584" style="stop-color:#de9c41;stop-opacity:1"/><stop offset=".754" style="stop-color:#e6ac58;stop-opacity:1"/><stop offset=".895" style="stop-color:#f0bd71;stop-opacity:1"/></linearGradient><linearGradient id="l" x1="57.414" x2="75.398" y1="60.835" y2="78.818" gradientTransform="rotate(22.372 10.861 3.475)scale(.125)" gradientUnits="userSpaceOnUse"><stop offset=".061" style="stop-color:#d38a29;stop-opacity:1"/><stop offset=".238" style="stop-color:#d48c2b;stop-opacity:1"/><stop offset=".411" style="stop-color:#d89232;stop-opacity:1"/><stop offset=".584" style="stop-color:#de9c41;stop-opacity:1"/><stop offset=".754" style="stop-color:#e6ac58;stop-opacity:1"/><stop offset=".895" style="stop-color:#f0bd71;stop-opacity:1"/></linearGradient><linearGradient id="n" x1="37.522" x2="51.14" y1="104.36" y2="117.98" gradientTransform="rotate(-10.993 -15.489 25.581)scale(.125)" gradientUnits="userSpaceOnUse"><stop offset=".061" style="stop-color:#d38a29;stop-opacity:1"/><stop offset=".238" style="stop-color:#d48c2b;stop-opacity:1"/><stop offset=".411" style="stop-color:#d89232;stop-opacity:1"/><stop offset=".584" style="stop-color:#de9c41;stop-opacity:1"/><stop offset=".754" style="stop-color:#e6ac58;stop-opacity:1"/><stop offset=".895" style="stop-color:#f0bd71;stop-opacity:1"/></linearGradient><linearGradient id="p" x1="121.33" x2="131.42" y1="98.609" y2="108.7" gradientTransform="rotate(-10.993 -15.489 25.581)scale(.125)" gradientUnits="userSpaceOnUse"><stop offset=".061" style="stop-color:#d38a29;stop-opacity:1"/><stop offset=".238" style="stop-color:#d48c2b;stop-opacity:1"/><stop offset=".411" style="stop-color:#d89232;stop-opacity:1"/><stop offset=".584" style="stop-color:#de9c41;stop-opacity:1"/><stop offset=".754" style="stop-color:#e6ac58;stop-opacity:1"/><stop offset=".895" style="stop-color:#f0bd71;stop-opacity:1"/></linearGradient><radialGradient id="e" cx="78.327" cy="29.424" r="8.713" fx="78.327" fy="29.424" gradientTransform="scale(.125)" gradientUnits="userSpaceOnUse"><stop offset=".109" style="stop-color:#8e513c;stop-opacity:1"/><stop offset=".12" style="stop-color:#8d503b;stop-opacity:1"/><stop offset=".784" style="stop-color:#6c3825;stop-opacity:1"/></radialGradient><radialGradient id="g" cx="30.482" cy="39.946" r="6.872" fx="30.482" fy="39.946" gradientTransform="rotate(-8.21 -2.324 5.057)scale(.125)" gradientUnits="userSpaceOnUse"><stop offset=".109" style="stop-color:#8e513c;stop-opacity:1"/><stop offset=".12" style="stop-color:#8d503b;stop-opacity:1"/><stop offset=".784" style="stop-color:#6c3825;stop-opacity:1"/></radialGradient><radialGradient id="i" cx="76.503" cy="89.518" r="8.186" fx="76.503" fy="89.518" gradientTransform="rotate(33.2 6.372 8.044)scale(.125)" gradientUnits="userSpaceOnUse"><stop offset=".109" style="stop-color:#8e513c;stop-opacity:1"/><stop offset=".12" style="stop-color:#8d503b;stop-opacity:1"/><stop offset=".784" style="stop-color:#6c3825;stop-opacity:1"/></radialGradient><radialGradient id="k" cx="132.31" cy="86.193" r="10.09" fx="132.31" fy="86.193" gradientTransform="rotate(-16.536 11.603 28.126)scale(.125)" gradientUnits="userSpaceOnUse"><stop offset=".109" style="stop-color:#8e513c;stop-opacity:1"/><stop offset=".12" style="stop-color:#8d503b;stop-opacity:1"/><stop offset=".784" style="stop-color:#6c3825;stop-opacity:1"/></radialGradient><radialGradient id="m" cx="67.393" cy="66.942" r="10.592" fx="67.393" fy="66.942" gradientTransform="rotate(22.372 10.861 3.475)scale(.125)" gradientUnits="userSpaceOnUse"><stop offset=".109" style="stop-color:#8e513c;stop-opacity:1"/><stop offset=".12" style="stop-color:#8d503b;stop-opacity:1"/><stop offset=".784" style="stop-color:#6c3825;stop-opacity:1"/></radialGradient><radialGradient id="o" cx="45.078" cy="108.99" r="8.021" fx="45.078" fy="108.99" gradientTransform="rotate(-10.993 -15.489 25.581)scale(.125)" gradientUnits="userSpaceOnUse"><stop offset=".109" style="stop-color:#8e513c;stop-opacity:1"/><stop offset=".12" style="stop-color:#8d503b;stop-opacity:1"/><stop offset=".784" style="stop-color:#6c3825;stop-opacity:1"/></radialGradient><radialGradient id="q" cx="126.93" cy="102.03" r="5.94" fx="126.93" fy="102.03" gradientTransform="rotate(-10.993 -15.489 25.581)scale(.125)" gradientUnits="userSpaceOnUse"><stop offset=".109" style="stop-color:#8e513c;stop-opacity:1"/><stop offset=".12" style="stop-color:#8d503b;stop-opacity:1"/><stop offset=".784" style="stop-color:#6c3825;stop-opacity:1"/></radialGradient><clipPath id="b"><path d="M0 0h16v16H0z"/></clipPath><filter id="a" width="100%" height="100%" x="0%" y="0%" filterUnits="objectBoundingBox"><feColorMatrix in="SourceGraphic" values="0 0 0 0 1 0 0 0 0 1 0 0 0 0 1 0 0 0 1 0"/></filter><mask id="r"><g filter="url(#a)"><path d="M0 0h16v16H0z" style="fill:#000;fill-opacity:.2;stroke:none"/></g></mask><g id="s" clip-path="url(#b)"><path d="M8.879.875q.141-.001.289.004h.351c.247 0 .504.008.739.086.32.11.61.293.86.543.19.187 2.163 1.808 2.429 1.976.781.504 1.258 1.524 1.238 2.664-.004.196.168 1.618.219 1.813.187.71.152 1.523-.098 2.277-.25.75-.68 1.39-1.242 1.848-.055.043-.086.086-.18.219-1.27 1.726-2.53 2.601-3.765 2.601-.059 0-.125.012-.336.04-.43.058-1.328.179-2.207.179-.645 0-1.164-.062-1.543-.191-1.031-.352-2.258-1.567-2.848-2.149-.23-.23-.312-.308-.387-.36-.761-.491-1.222-1.445-1.23-2.554 0-.184-.215-2.059-.242-2.219a4.1 4.1 0 0 1 .168-1.957 4.1 4.1 0 0 1 .922-1.554c.05-.051.152-.192.629-.88.207-.3.464-.671.511-.73C3.56 2.031 4.914.875 8.88.875m0-.375c-3.559 0-5.316.922-6.016 1.793-.117.144-1.043 1.508-1.117 1.586A4.46 4.46 0 0 0 .738 5.574a4.5 4.5 0 0 0-.183 2.137c.027.164.238 2.008.238 2.164.008 1.215.523 2.3 1.402 2.867.207.133 1.895 2.063 3.317 2.543.472.16 1.07.215 1.668.215 1.207 0 2.406-.219 2.539-.219h.004c2.328 0 4.062-2.812 4.175-2.902a4.37 4.37 0 0 0 1.364-2.02c.285-.863.304-1.734.105-2.496-.039-.156-.21-1.543-.207-1.71.024-1.262-.5-2.403-1.41-2.985-.227-.145-2.184-1.75-2.363-1.93A2.6 2.6 0 0 0 10.379.61C10.098.512 9.809.5 9.519.5c-.074 0-.152.004-.23.004Q9.231.505 9.172.5zm0 0" style="stroke:none;fill-rule:nonzero;fill:#434343;fill-opacity:1"/></g></defs><path d="M13.898 12.379a4.37 4.37 0 0 0 1.364-2.02c.285-.863.304-1.734.105-2.496-.039-.156-.21-1.543-.207-1.71.024-1.262-.5-2.403-1.41-2.985-.227-.145-2.184-1.75-2.363-1.93A2.6 2.6 0 0 0 10.379.61C9.984.473 9.579.508 9.172.5c-3.754-.05-5.59.898-6.305 1.793-.117.144-1.047 1.508-1.12 1.586A4.5 4.5 0 0 0 .737 5.574a4.5 4.5 0 0 0-.183 2.137c.027.164.238 2.008.238 2.164.008 1.215.523 2.3 1.402 2.867.207.133 1.895 2.063 3.317 2.543 1.426.485 4.008-.004 4.207-.004 2.332.004 4.066-2.808 4.18-2.902m0 0" style="stroke:none;fill-rule:nonzero;fill:url(#c)"/><path d="M10.574 3.965c.457.723-.25 1.101-.957 1.012-.55-.075-.797-.34-.691-.77.113-.473.277-1.371.836-1.371s.574.758.812 1.129m0 0" style="stroke:none;fill-rule:nonzero;fill:url(#d)"/><path d="M10.418 3.953c.363.578-.2.879-.762.809-.441-.059-.633-.274-.55-.614.093-.378.222-1.093.667-1.093s.457.605.645.898m0 0" style="stroke:none;fill-rule:nonzero;fill:url(#e)"/><path d="M4.379 4.254c.441.512-.07.887-.629.894-.441.008-.66-.171-.629-.52.04-.382.067-1.1.5-1.163.438-.063.535.523.758.789m0 0" style="stroke:none;fill-rule:nonzero;fill:url(#f)"/><path d="M4.258 4.262c.351.41-.055.707-.5.715-.352.007-.528-.141-.5-.415.027-.304.047-.878.398-.925.344-.055.422.414.602.625m0 0" style="stroke:none;fill-rule:nonzero;fill:url(#g)"/><path d="M7.785 13.05c-.012.805-.762.74-1.27.305-.398-.34-.452-.675-.152-.96.34-.313.93-.934 1.367-.645.438.285.063.887.055 1.3m0 0" style="stroke:none;fill-rule:nonzero;fill:url(#h)"/><path d="M7.672 12.96c-.012.645-.61.59-1.016.243-.316-.27-.36-.535-.117-.762.266-.25.734-.746 1.086-.515.352.226.05.707.047 1.035m0 0" style="stroke:none;fill-rule:nonzero;fill:url(#i)"/><path d="M12.36 10.145c.745.652.085 1.308-.727 1.437-.64.105-.996-.113-1.024-.621-.027-.566-.14-1.613.477-1.797.621-.184.89.649 1.273.98m0 0" style="stroke:none;fill-rule:nonzero;fill:url(#j)"/><path d="M12.184 10.188c.593.515.066 1.039-.579 1.144-.507.082-.793-.094-.816-.496-.023-.453-.113-1.29.383-1.434.496-.148.707.52 1.012.786m0 0" style="stroke:none;fill-rule:nonzero;fill:url(#k)"/><path d="M7.492 7.754c.18 1.027-.789 1.125-1.539.7-.594-.34-.742-.75-.426-1.184.348-.48.95-1.415 1.578-1.157.625.258.293 1.117.387 1.64m0 0" style="stroke:none;fill-rule:nonzero;fill:url(#l)"/><path d="M7.32 7.672c.145.816-.629.894-1.226.555-.469-.27-.59-.598-.34-.942.281-.387.758-1.129 1.258-.922s.234.89.308 1.309m0 0" style="stroke:none;fill-rule:nonzero;fill:url(#m)"/><path d="M3.723 9.938c.543.57-.032 1.039-.684 1.078-.516.035-.781-.164-.762-.567.02-.453.012-1.293.516-1.39.504-.098.652.582.93.879m0 0" style="stroke:none;fill-rule:nonzero;fill:url(#n)"/><path d="M3.582 9.953c.43.457-.027.828-.547.863-.406.028-.62-.132-.605-.457.015-.359.007-1.027.41-1.105s.52.465.742.7m0 0" style="stroke:none;fill-rule:nonzero;fill:url(#o)"/><path d="M13.406 7.102c.399.421-.023.77-.508.8-.378.024-.578-.125-.562-.422.016-.335.008-.957.383-1.027.37-.074.48.43.687.649m0 0" style="stroke:none;fill-rule:nonzero;fill:url(#p)"/><path d="M13.3 7.113c.317.34-.019.614-.405.64-.301.02-.457-.1-.446-.335.012-.27.004-.762.305-.82.293-.059.383.343.547.515m0 0" style="stroke:none;fill-rule:nonzero;fill:url(#q)"/><use xlink:href="#s" mask="url(#r)"/></svg>