<svg xmlns="http://www.w3.org/2000/svg" width="16pt" height="16pt" viewBox="0 0 16 16"><defs><linearGradient id="a" x1="16.433" x2="16.433" y1="110.26" y2="-56.892" gradientUnits="userSpaceOnUse"><stop offset="0" style="stop-color:#e3e3e3;stop-opacity:1"/><stop offset=".138" style="stop-color:#e6e6e6;stop-opacity:1"/><stop offset=".256" style="stop-color:#f1f1f1;stop-opacity:1"/><stop offset=".348" style="stop-color:#fff;stop-opacity:1"/></linearGradient><linearGradient id="b" x1="111.57" x2="111.57" y1="110.26" y2="-56.892" gradientUnits="userSpaceOnUse"><stop offset="0" style="stop-color:#e3e3e3;stop-opacity:1"/><stop offset=".138" style="stop-color:#e6e6e6;stop-opacity:1"/><stop offset=".256" style="stop-color:#f1f1f1;stop-opacity:1"/><stop offset=".348" style="stop-color:#fff;stop-opacity:1"/></linearGradient><linearGradient id="c" x1="63.998" x2="63.998" y1="108.63" y2="-53.414" gradientTransform="scale(.125)" gradientUnits="userSpaceOnUse"><stop offset=".132" style="stop-color:#d4d4d4;stop-opacity:1"/><stop offset=".203" style="stop-color:#d7d7d7;stop-opacity:1"/><stop offset=".264" style="stop-color:#e2e2e2;stop-opacity:1"/><stop offset=".321" style="stop-color:#f3f3f3;stop-opacity:1"/><stop offset=".348" style="stop-color:#fff;stop-opacity:1"/></linearGradient><linearGradient id="f" x1="63" x2="63" y1="138.84" y2="18.645" gradientUnits="userSpaceOnUse"><stop offset="0" style="stop-color:#d69549;stop-opacity:1"/><stop offset=".113" style="stop-color:#d7974c;stop-opacity:1"/><stop offset=".21" style="stop-color:#db9e57;stop-opacity:1"/><stop offset=".301" style="stop-color:#e1a969;stop-opacity:1"/><stop offset=".348" style="stop-color:#e6b175;stop-opacity:1"/></linearGradient><clipPath id="d"><path d="M2 4h5v7H2Zm0 0"/></clipPath><clipPath id="e"><path d="M8.375 1.75h-.82c-2.77 0-5.04 2.293-5.04 5.063l.376 5.687h10.218l.34-5.687"/></clipPath></defs><path d="M27 39.594s-7.937-3.875-16.469 4.625C2 52.75 5.875 60.688 5.875 60.688s7.938 3.874 16.469-4.626C30.875 47.533 27 39.595 27 39.595Zm0 0" style="fill-rule:nonzero;fill:url(#a);stroke-width:3;stroke-linecap:butt;stroke-linejoin:round;stroke:#b0b0b0;stroke-opacity:1;stroke-miterlimit:10" transform="scale(.125)"/><path d="M122.125 60.688s3.875-7.938-4.656-16.47c-8.5-8.5-16.438-4.624-16.438-4.624s-3.875 7.937 4.625 16.469c8.531 8.5 16.469 4.624 16.469 4.624Zm0 0" style="fill-rule:nonzero;fill:url(#b);stroke-width:3;stroke-linecap:butt;stroke-linejoin:round;stroke:#b0b0b0;stroke-opacity:1;stroke-miterlimit:10" transform="scale(.125)"/><path d="M35.531 16.094c-3.156-5.438-.25-12.969-5.687-9.844-5.438 3.156-7.282 10.094-4.157 15.531 3.157 5.438 10.094 7.313 15.532 4.157 5.406-3.125-2.563-4.407-5.688-9.844ZM92.469 16.094c3.156-5.438.25-12.969 5.687-9.844 5.438 3.156 7.281 10.094 4.156 15.531-3.156 5.438-10.093 7.313-15.53 4.157-5.407-3.125 2.562-4.407 5.687-9.844Zm0 0" style="fill-rule:nonzero;fill:#e6b175;fill-opacity:1;stroke-width:3;stroke-linecap:butt;stroke-linejoin:round;stroke:#c28640;stroke-opacity:1;stroke-miterlimit:10" transform="scale(.125)"/><path d="m3.066 12.25-.363-5.512c0-2.664 2.176-4.863 4.852-4.863h.89c2.676 0 4.852 2.2 4.852 4.875l-.363 5.5Zm0 0" style="stroke:none;fill-rule:nonzero;fill:url(#c)"/><path d="M8.445 2.125c2.567 0 4.657 2.047 4.664 4.613L12.758 12H3.242l-.351-5.262c.007-2.566 2.097-4.613 4.664-4.613H8.5m-.055-.375h-.89c-2.774 0-5.04 2.23-5.04 5l.376 5.625h10.218l.375-5.625c0-2.77-2.265-5-5.039-5m0 0" style="stroke:none;fill-rule:nonzero;fill:#b0b0b0;fill-opacity:1"/><g clip-path="url(#d)"><g clip-path="url(#e)"><path d="M7 7.297A2.547 2.547 0 0 0 4.453 4.75h-.031a2.547 2.547 0 0 0-2.547 2.547v.281a2.547 2.547 0 0 0 2.547 2.547h.031A2.547 2.547 0 0 0 7 7.578Zm0 0" style="stroke:none;fill-rule:nonzero;fill:#c4c4c4;fill-opacity:1"/></g></g><path d="M5.691 7.266c0-.688-.488-1.243-1.093-1.243-.606 0-1.098.555-1.098 1.243 0 .683.492 1.238 1.098 1.238.605 0 1.093-.555 1.093-1.238M12.5 7.266c0-.688-.492-1.243-1.098-1.243-.605 0-1.093.555-1.093 1.243 0 .683.488 1.238 1.093 1.238.606 0 1.098-.555 1.098-1.238m0 0" style="stroke:none;fill-rule:nonzero;fill:#404040;fill-opacity:1"/><path d="M103.5 100.438c0-12.126-9.812-21.938-21.937-21.938H44.438c-12.126 0-21.938 9.813-21.938 21.938v.124c0 12.126 9.813 21.938 21.938 21.938h37.125c12.124 0 21.937-9.812 21.937-21.937Zm0 0" style="fill-rule:nonzero;fill:url(#f);stroke-width:3;stroke-linecap:butt;stroke-linejoin:round;stroke:#c28640;stroke-opacity:1;stroke-miterlimit:10" transform="scale(.125)"/><path d="M6.508 12.41c0-.574-.38-1.039-.848-1.039-.469 0-.848.465-.848 1.04 0 .573.38 1.042.848 1.042.469 0 .848-.469.848-1.043M11.188 12.41c0-.574-.38-1.039-.848-1.039-.469 0-.848.465-.848 1.04 0 .573.38 1.042.848 1.042.469 0 .848-.469.848-1.043m0 0" style="stroke:none;fill-rule:nonzero;fill:#754c24;fill-opacity:1"/></svg>