<svg xmlns="http://www.w3.org/2000/svg" width="16pt" height="16pt" viewBox="0 0 16 16"><defs><clipPath id="b"><path d="M3 1h10v4H3Zm0 0"/></clipPath><clipPath id="c"><path d="M12.355 4.285c-.304-1.633-1.53-4.531-2.843-4.531-1.094 0-.871.465-1.485.465-.644 0-.422-.465-1.46-.465-1.274 0-2.66 2.898-2.962 4.531 1.227.219 2.973.332 4.426.332 1.457 0 3.098-.113 4.324-.332m0 0"/></clipPath><clipPath id="d"><path d="M4 10h8v5H4Zm0 0"/></clipPath><clipPath id="e"><path d="M8 11.07c-1.258 0-2.426-.117-3.402-.312-.243-.051-.457.183-.407.449.325 1.742 1.887 3.172 3.805 3.172 2.106 0 3.52-1.477 3.813-3.18.046-.261-.168-.492-.407-.441-.976.195-2.144.312-3.402.312m0 0"/></clipPath><clipPath id="f"><path d="M4 10h8v3H4Zm0 0"/></clipPath><clipPath id="g"><path d="M8 11.07c-1.258 0-2.426-.117-3.402-.312-.243-.051-.457.183-.407.449.325 1.742 1.887 3.172 3.805 3.172 2.106 0 3.52-1.477 3.813-3.18.046-.261-.168-.492-.407-.441-.976.195-2.144.312-3.402.312m0 0"/></clipPath><clipPath id="h"><path d="M5 13h6v2H5Zm0 0"/></clipPath><clipPath id="i"><path d="M8 11.07c-1.258 0-2.426-.117-3.402-.312-.243-.051-.457.183-.407.449.325 1.742 1.887 3.172 3.805 3.172 2.106 0 3.52-1.477 3.813-3.18.046-.261-.168-.492-.407-.441-.976.195-2.144.312-3.402.312m0 0"/></clipPath><clipPath id="j"><path d="M4 10h8v5H4Zm0 0"/></clipPath><clipPath id="k"><path d="M8 11.07c-1.258 0-2.426-.117-3.402-.312-.243-.051-.457.183-.407.449.325 1.742 1.887 3.172 3.805 3.172 2.106 0 3.52-1.477 3.813-3.18.046-.261-.168-.492-.407-.441-.976.195-2.144.312-3.402.312m0 0"/></clipPath><clipPath id="l"><path d="M3.738 9.66v1.309c1.313.847 2.75 1.316 4.262 1.316s2.95-.469 4.262-1.316V9.66ZM8 13.172c-.941 0-1.766.562-2.203 1.402.57.34 1.344.551 2.203.551.86 0 1.633-.21 2.203-.55-.437-.84-1.262-1.403-2.203-1.403m0 0"/></clipPath><linearGradient id="a" x1="64" x2="64" y1="28.991" y2="110.68" gradientTransform="scale(.125)" gradientUnits="userSpaceOnUse"><stop offset=".5" style="stop-color:#fee133;stop-opacity:1"/><stop offset=".612" style="stop-color:#fede32;stop-opacity:1"/><stop offset=".708" style="stop-color:#fcd32f;stop-opacity:1"/><stop offset=".797" style="stop-color:#fac12b;stop-opacity:1"/><stop offset=".883" style="stop-color:#f7a924;stop-opacity:1"/><stop offset=".9" style="stop-color:#f6a323;stop-opacity:1"/></linearGradient></defs><path d="M8 4.969c-4.418 0-8-3.778-8-2.117 0 11.863 16 11.863 16 0 0-1.727-3.582 2.117-8 2.117m0 0" style="stroke:none;fill-rule:nonzero;fill:#7a5549;fill-opacity:1"/><path d="M8 15.25c-3.242 0-6.73-2.031-6.73-6.484 0-4.457 3.488-6.489 6.73-6.489 1.797 0 3.46.594 4.684 1.676 1.34 1.18 2.05 2.844 2.05 4.809 0 1.957-.71 3.617-2.05 4.804C11.457 14.652 9.793 15.25 8 15.25m0 0" style="stroke:none;fill-rule:nonzero;fill:url(#a)"/><path d="M8 2.527c1.734 0 3.34.57 4.52 1.614 1.28 1.129 1.96 2.73 1.96 4.625 0 1.882-.68 3.476-1.96 4.613C11.336 14.422 9.734 15 8 15c-1.742 0-3.348-.566-4.52-1.602-1.285-1.128-1.96-2.73-1.96-4.636 0-1.914.68-3.52 1.96-4.645C4.648 3.09 6.254 2.527 8 2.527m0-.5c-3.625 0-6.98 2.328-6.98 6.735C1.02 13.148 4.375 15.5 8 15.5s6.98-2.41 6.98-6.734c0-4.352-3.355-6.739-6.98-6.739m0 0" style="stroke:none;fill-rule:nonzero;fill:#eb8f00;fill-opacity:1"/><path d="M12.219 3.738C11.953 2.23 10.579.008 9.332.023c-.965.012-.789.43-1.332.43-.566 0-.352-.426-1.266-.43-1.21-.007-2.652 2.07-2.953 3.633-.207 1.082 2.961.371 4.246.371s3.11-.086 4.192-.289m0 0" style="stroke:none;fill-rule:nonzero;fill:#826156;fill-opacity:1"/><g clip-path="url(#b)"><g clip-path="url(#c)"><path d="M13.059 4.93H2.94V1.938s1.547.886 5.059.89c3.523.004 5.063-.89 5.063-.89V4.93Zm0 0" style="stroke:none;fill-rule:nonzero;fill:#a1887f;fill-opacity:1"/></g></g><path d="M.379 2.434S4.688 3.5 8 3.5s7.512-1.066 7.512-1.066S13.457 6.719 8 6.719.379 2.434.379 2.434m0 0" style="stroke:none;fill-rule:nonzero;fill:#4a251a;fill-opacity:1"/><g clip-path="url(#d)"><g clip-path="url(#e)"><path d="M8 11.07c-1.258 0-2.426-.117-3.402-.312-.243-.051-.457.183-.407.449.325 1.742 1.887 3.172 3.805 3.172 2.106 0 3.52-1.477 3.813-3.18.046-.261-.168-.492-.407-.441-.976.195-2.144.312-3.402.312m0 0" style="stroke:none;fill-rule:nonzero;fill:#242424;fill-opacity:1"/></g></g><g clip-path="url(#f)"><g clip-path="url(#g)"><path d="M12.262 10.969V9.66H3.738v1.309c1.313.847 2.75 1.316 4.262 1.316s2.95-.469 4.262-1.316m0 0" style="stroke:none;fill-rule:nonzero;fill:#fff;fill-opacity:1"/></g></g><g clip-path="url(#h)"><g clip-path="url(#i)"><path d="M8 13.172c-.941 0-1.766.562-2.203 1.402.57.34 1.344.551 2.203.551.86 0 1.633-.21 2.203-.55-.437-.84-1.262-1.403-2.203-1.403m0 0" style="stroke:none;fill-rule:nonzero;fill:#ed7770;fill-opacity:1"/></g></g><g clip-path="url(#j)"><g clip-path="url(#k)"><g clip-path="url(#l)"><path d="M11.281 11.29a3.38 3.38 0 0 1-1.031 1.765c-.605.539-1.387.824-2.254.824-1.535 0-2.914-1.102-3.273-2.59.988.184 2.117.281 3.277.281s2.29-.097 3.281-.28m.184-.54a.3.3 0 0 0-.063.008c-.976.195-2.144.312-3.402.312s-2.426-.117-3.402-.312a.3.3 0 0 0-.063-.008c-.215 0-.387.215-.344.453.325 1.742 1.887 3.172 3.809 3.172 2.102 0 3.516-1.477 3.809-3.176.043-.238-.133-.449-.344-.449m0 0" style="stroke:none;fill-rule:nonzero;fill:#eb8f00;fill-opacity:1"/></g></g></g><path d="M10.29 7.172c.437 0 .835.512.835 1.367 0 .852-.398 1.367-.836 1.367-.441 0-.84-.515-.84-1.367 0-.855.403-1.367.84-1.367M5.71 7.172c-.437 0-.835.512-.835 1.367 0 .852.398 1.367.836 1.367.441 0 .84-.515.84-1.367 0-.855-.403-1.367-.84-1.367m0 0" style="stroke:none;fill-rule:nonzero;fill:#242424;fill-opacity:1"/></svg>