<svg xmlns="http://www.w3.org/2000/svg" xmlns:xlink="http://www.w3.org/1999/xlink" width="16pt" height="16pt" viewBox="0 0 16 16"><defs><clipPath id="d"><path d="M4 8h8v5H4Zm0 0"/></clipPath><clipPath id="e"><path d="M4.703 12.137a1.286 1.286 0 0 0 1.672.406A3.4 3.4 0 0 1 8 12.129c.586 0 1.137.148 1.625.414.578.312 1.3.137 1.672-.406a1.29 1.29 0 0 0 .066-1.325C10.68 9.509 9.43 8.633 8 8.633s-2.68.876-3.363 2.18c-.223.422-.2.93.066 1.325m0 0"/></clipPath><clipPath id="b"><path d="M0 0h16v16H0z"/></clipPath><linearGradient id="c" x1="64" x2="64" y1="19.717" y2="107.7" gradientTransform="scale(.125)" gradientUnits="userSpaceOnUse"><stop offset=".566" style="stop-color:#f6a323;stop-opacity:1"/><stop offset=".917" style="stop-color:#fee133;stop-opacity:1"/></linearGradient><filter id="a" width="100%" height="100%" x="0%" y="0%" filterUnits="objectBoundingBox"><feColorMatrix in="SourceGraphic" values="0 0 0 0 1 0 0 0 0 1 0 0 0 0 1 0 0 0 1 0"/></filter><mask id="f"><g filter="url(#a)"><path d="M0 0h16v16H0z" style="fill:#000;fill-opacity:.6;stroke:none"/></g></mask><g id="g" clip-path="url(#b)"><path d="M8.297 9.27c0 .55-.05.714.203 1.238q.065.128.066.285c0 .36-.289.648-.648.648a.648.648 0 0 1-.586-.933c.25-.524.203-.7.203-1.238a2.186 2.186 0 0 0 .383 4.336 2.186 2.186 0 0 0 .379-4.336m0 0" style="stroke:none;fill-rule:nonzero;fill:#000;fill-opacity:1"/></g></defs><path d="M8 14.984C4.508 14.984.75 12.801.75 8 .75 3.2 4.508 1.016 8 1.016c1.934 0 3.727.636 5.047 1.8C14.488 4.09 15.25 5.883 15.25 8c0 2.11-.762 3.895-2.203 5.172C11.723 14.344 9.93 14.984 8 14.984m0 0" style="stroke:none;fill-rule:nonzero;fill:url(#c)"/><path d="M8 1.266c1.875 0 3.61.617 4.879 1.738C14.266 4.23 15 5.957 15 8c0 2.035-.734 3.758-2.121 4.984-1.277 1.13-3.008 1.75-4.879 1.75-1.879 0-3.613-.613-4.879-1.726C1.734 11.789 1 10.058 1 8c0-2.066.734-3.8 2.121-5.02C4.383 1.875 6.117 1.266 8 1.266m0-.5C4.105.766.5 3.266.5 8c0 4.71 3.605 7.234 7.5 7.234s7.5-2.59 7.5-7.234C15.5 3.328 11.895.766 8 .766m0 0" style="stroke:none;fill-rule:nonzero;fill:#eb8f00;fill-opacity:1"/><g clip-path="url(#d)"><g clip-path="url(#e)"><path d="M4.703 12.137a1.286 1.286 0 0 0 1.672.406A3.4 3.4 0 0 1 8 12.129c.586 0 1.137.148 1.625.414.578.312 1.3.137 1.672-.406a1.29 1.29 0 0 0 .066-1.325C10.68 9.509 9.43 8.633 8 8.633s-2.68.876-3.363 2.18c-.223.422-.2.93.066 1.325m0 0" style="stroke:none;fill-rule:nonzero;fill:#242424;fill-opacity:1"/><use xlink:href="#g" mask="url(#f)"/></g></g><path d="M6.047 2.844q.008-.005.016-.004c.273-.04.3-.438-.004-.457a2.5 2.5 0 0 0-.73.078c-.673.176-1.231.61-1.548 1.129-.156.265.196.469.375.265a3.23 3.23 0 0 1 1.89-1.011M9.953 2.844c-.004-.004-.012-.004-.015-.004-.274-.04-.301-.438.003-.457q.36-.017.73.078c.673.176 1.231.61 1.548 1.129.156.265-.196.469-.375.265a3.23 3.23 0 0 0-1.89-1.011m0 0" style="stroke:none;fill-rule:nonzero;fill:#6d4c41;fill-opacity:1"/><path d="M4.484 15.293c-1.183 0-1.937-.414-1.937-.7 0-.015.008-.038.015-.066a.24.24 0 0 0-.007-.195.24.24 0 0 0-.145-.129c-.34-.117-.465-.262-.465-.332 0-.148.465-.45 1.32-.469.133-.004.239-.12.247-.254l.297-7.773H5.14l.343 8.438a.255.255 0 0 0 .18.234c.52.156.758.39.758.543 0 .285-.754.703-1.938.703m0 0" style="stroke:none;fill-rule:nonzero;fill:#5f7aff;fill-opacity:1"/><path d="m4.902 5.625.332 8.195a.51.51 0 0 0 .356.465c.367.11.523.246.57.305-.105.144-.683.453-1.676.453-1 0-1.578-.309-1.68-.453a.496.496 0 0 0-.316-.625 1.3 1.3 0 0 1-.215-.094c.168-.098.516-.21.997-.219a.514.514 0 0 0 .488-.492l.293-7.535h.824m.508-.5H3.57l-.308 8.016c-.875.02-1.567.343-1.567.726 0 .23.25.438.633.57a.5.5 0 0 0-.031.153c0 .523.98.95 2.187.95s2.188-.427 2.188-.95c0-.324-.371-.621-.938-.793Zm0 0" style="stroke:none;fill-rule:nonzero;fill:#4864ed;fill-opacity:1"/><path d="M11.55 15.293c-1.179 0-1.933-.418-1.933-.703 0-.149.238-.383.758-.54a.26.26 0 0 0 .176-.241l.344-8.434h1.332l.3 7.777a.25.25 0 0 0 .243.243c.855.023 1.324.328 1.324.476 0 .07-.125.215-.469.332a.25.25 0 0 0-.145.129.26.26 0 0 0-.007.195.2.2 0 0 1 .015.063c0 .289-.754.703-1.937.703m0 0" style="stroke:none;fill-rule:nonzero;fill:#5f7aff;fill-opacity:1"/><path d="m11.984 5.625.293 7.535c.012.266.223.48.489.488.484.012.832.13.996.223a2 2 0 0 1-.215.098.5.5 0 0 0-.293.258.5.5 0 0 0-.024.363c-.101.144-.683.453-1.68.453-.988 0-1.566-.305-1.675-.45.047-.058.203-.19.57-.304a.51.51 0 0 0 .356-.469l.336-8.195H12m.469-.5h-1.813l-.355 8.676c-.567.172-.934.465-.934.785 0 .523.977.953 2.184.953 1.21 0 2.187-.426 2.187-.95a.4.4 0 0 0-.031-.152c.387-.128.637-.332.637-.562 0-.387-.696-.715-1.567-.734Zm0 0" style="stroke:none;fill-rule:nonzero;fill:#4864ed;fill-opacity:1"/><path d="m5.27 6.14-.024-.03-.027-.032c-.012-.016-.02-.031-.032-.035l-.078-.078q-.046-.048-.105-.102a1.2 1.2 0 0 0-.277-.172.8.8 0 0 0-.305-.066h.02-.036l-.035.004c-.035 0-.027 0-.039.004-.008-.004-.043.008-.066.008q-.077.021-.153.05a1.2 1.2 0 0 0-.273.172c-.078.07-.145.137-.192.184-.043.055-.07.082-.07.082l-.035.043a.42.42 0 0 1-.59.035.42.42 0 0 1-.113-.45l.012-.042c.011-.024.023-.067.043-.113.042-.098.113-.235.23-.383A1.7 1.7 0 0 1 4 4.617c.07-.015.129-.031.215-.039a1 1 0 0 1 .11-.012l.097-.007q.211.005.418.058a1.683 1.683 0 0 1 .875.602q.086.111.144.21c.036.063.063.126.09.18q.018.04.024.063c.004.016.011.031.011.043l.012.031a.417.417 0 0 1-.27.531.43.43 0 0 1-.456-.136M12.434 6.14l-.02-.03c-.008-.008-.02-.02-.027-.032a.2.2 0 0 0-.032-.035l-.078-.078a1.155 1.155 0 0 0-.383-.273.8.8 0 0 0-.308-.067h.023-.035l-.039.004c-.031 0-.023 0-.035.004-.008-.004-.043.008-.066.008-.051.015-.106.03-.153.05a1.2 1.2 0 0 0-.277.172c-.078.07-.145.137-.188.184-.046.055-.074.082-.074.082l-.035.043a.415.415 0 0 1-.586.035.41.41 0 0 1-.117-.45l.012-.042c.011-.024.023-.067.046-.113.04-.098.11-.235.227-.383.113-.153.281-.317.504-.446.113-.058.234-.117.371-.156.07-.015.129-.031.219-.039a1 1 0 0 1 .105-.012l.098-.007c.14.003.285.023.422.058a1.65 1.65 0 0 1 .875.602 1.8 1.8 0 0 1 .254.453q.008.025.015.043l.012.031a.422.422 0 0 1-.73.395m0 0" style="stroke:none;fill-rule:nonzero;fill:#242424;fill-opacity:1"/></svg>