<svg xmlns="http://www.w3.org/2000/svg" width="16pt" height="16pt" viewBox="0 0 16 16"><defs><clipPath id="b"><path d="M2 8h12v6H2Zm0 0"/></clipPath><clipPath id="c"><path d="M8 8.824c-1.867 0-3.602-.156-5.047-.422a.514.514 0 0 0-.601.606c.476 2.351 2.793 4.285 5.644 4.285 3.117 0 5.219-1.996 5.652-4.293a.515.515 0 0 0-.601-.602c-1.445.27-3.184.426-5.047.426m0 0"/></clipPath><clipPath id="d"><path d="M2 8h12v3H2Zm0 0"/></clipPath><clipPath id="e"><path d="M8 8.824c-1.867 0-3.602-.156-5.047-.422a.514.514 0 0 0-.601.606c.476 2.351 2.793 4.285 5.644 4.285 3.117 0 5.219-1.996 5.652-4.293a.515.515 0 0 0-.601-.602c-1.445.27-3.184.426-5.047.426m0 0"/></clipPath><clipPath id="f"><path d="M4 11h8v3H4Zm0 0"/></clipPath><clipPath id="g"><path d="M8 8.824c-1.867 0-3.602-.156-5.047-.422a.514.514 0 0 0-.601.606c.476 2.351 2.793 4.285 5.644 4.285 3.117 0 5.219-1.996 5.652-4.293a.515.515 0 0 0-.601-.602c-1.445.27-3.184.426-5.047.426m0 0"/></clipPath><clipPath id="h"><path d="M2 8h12v6H2Zm0 0"/></clipPath><clipPath id="i"><path d="M8 8.824c-1.867 0-3.602-.156-5.047-.422a.514.514 0 0 0-.601.606c.476 2.351 2.793 4.285 5.644 4.285 3.117 0 5.219-1.996 5.652-4.293a.515.515 0 0 0-.601-.602c-1.445.27-3.184.426-5.047.426m0 0"/></clipPath><clipPath id="j"><path d="M1.676 7.887v1.472A14.3 14.3 0 0 0 8 10.84c2.242 0 4.379-.527 6.324-1.48V7.887ZM8 11.664a3.77 3.77 0 0 0-3.27 1.89c.844.462 1.997.747 3.27.747s2.422-.285 3.27-.746A3.77 3.77 0 0 0 8 11.665m0 0"/></clipPath><linearGradient id="a" x1="64.495" x2="64.495" y1="22.01" y2="105.44" gradientTransform="scale(.125)" gradientUnits="userSpaceOnUse"><stop offset=".5" style="stop-color:#fee133;stop-opacity:1"/><stop offset=".612" style="stop-color:#fede32;stop-opacity:1"/><stop offset=".708" style="stop-color:#fcd32f;stop-opacity:1"/><stop offset=".797" style="stop-color:#fac12b;stop-opacity:1"/><stop offset=".883" style="stop-color:#f7a924;stop-opacity:1"/><stop offset=".9" style="stop-color:#f6a323;stop-opacity:1"/></linearGradient></defs><path d="M8.063 14.625c-3.313 0-6.876-2.074-6.876-6.625 0-4.55 3.563-6.625 6.876-6.625 1.835 0 3.535.61 4.785 1.71 1.367 1.208 2.09 2.907 2.09 4.915 0 2-.723 3.695-2.09 4.906-1.254 1.11-2.953 1.719-4.786 1.719m0 0" style="stroke:none;fill-rule:nonzero;fill:url(#a)"/><path d="M8.063 1.625c1.773 0 3.414.586 4.617 1.648C13.992 4.43 14.688 6.066 14.688 8c0 1.926-.696 3.555-2.008 4.719-1.207 1.066-2.848 1.656-4.617 1.656-1.782 0-3.422-.582-4.622-1.637C2.13 11.586 1.438 9.95 1.438 8c0-1.957.695-3.598 2.003-4.75 1.196-1.047 2.836-1.625 4.621-1.625m0-.5C4.364 1.125.939 3.5.939 8c0 4.477 3.425 6.875 7.125 6.875 3.699 0 7.124-2.46 7.124-6.875 0-4.437-3.425-6.875-7.124-6.875m0 0" style="stroke:none;fill-rule:nonzero;fill:#eb8f00;fill-opacity:1"/><g clip-path="url(#b)"><g clip-path="url(#c)"><path d="M8 8.824c-1.867 0-3.602-.156-5.047-.422a.514.514 0 0 0-.601.606c.476 2.351 2.793 4.285 5.644 4.285 3.117 0 5.219-1.996 5.652-4.293a.515.515 0 0 0-.601-.602c-1.445.27-3.184.426-5.047.426m0 0" style="stroke:none;fill-rule:nonzero;fill:#242424;fill-opacity:1"/></g></g><g clip-path="url(#d)"><g clip-path="url(#e)"><path d="M14.324 8.688V6.922H1.676v1.766C3.62 9.832 5.758 10.465 8 10.465s4.379-.633 6.324-1.777m0 0" style="stroke:none;fill-rule:nonzero;fill:#fff;fill-opacity:1"/></g></g><g clip-path="url(#f)"><g clip-path="url(#g)"><path d="M8 11.664a3.77 3.77 0 0 0-3.27 1.89c.844.462 1.997.747 3.27.747s2.422-.285 3.27-.746A3.77 3.77 0 0 0 8 11.665m0 0" style="stroke:none;fill-rule:nonzero;fill:#ed7770;fill-opacity:1"/></g></g><g clip-path="url(#h)"><g clip-path="url(#i)"><g clip-path="url(#j)"><path d="M13.14 8.89q.019.002.02.016a4.63 4.63 0 0 1-1.644 2.711c-.95.77-2.164 1.172-3.52 1.172-2.488 0-4.707-1.668-5.16-3.887.004-.004.012-.011.023-.011 1.528.28 3.305.433 5.137.433s3.613-.152 5.14-.433zm0-.5a1 1 0 0 0-.094.007c-1.445.27-3.184.426-5.047.426-1.867 0-3.602-.156-5.047-.422a.4.4 0 0 0-.094-.011.52.52 0 0 0-.507.617c.48 2.351 2.796 4.285 5.644 4.285 3.121 0 5.219-1.996 5.656-4.293a.52.52 0 0 0-.511-.61m0 0" style="stroke:none;fill-rule:nonzero;fill:#eb8f00;fill-opacity:1"/></g></g></g><path d="M45.563 34.719c.03-.032.062-.032.093-.063 1.969-.781 1.157-3.718-.906-3.343-1.625.312-3.219.75-4.812 1.343-4.344 1.657-8 4.219-10.876 7.344-1.437 1.563.625 3.844 2.344 2.594 4.219-3.125 8.969-5.782 14.157-7.875ZM82.438 34.719c-.032-.032-.063-.032-.094-.063-1.969-.781-1.156-3.718.906-3.343 1.625.312 3.219.75 4.813 1.343 4.343 1.657 8 4.219 10.874 7.344 1.438 1.563-.624 3.844-2.343 2.594-4.219-3.125-8.969-5.782-14.156-7.875Zm0 0" style="fill-rule:nonzero;fill:#eb8f00;fill-opacity:1;stroke-width:1;stroke-linecap:butt;stroke-linejoin:miter;stroke:#eb8f00;stroke-opacity:1;stroke-miterlimit:10" transform="scale(.125)"/><path d="M1.55 11.023a1.36 1.36 0 0 1-.976-.382c-.261-.258-.394-.625-.383-1.032.012-.382.164-.757.403-.996.324-.32.824-.543 1.515-.851q.153-.065.313-.137c.617-.277 1.36-.508 1.781-.633a57 57 0 0 1-.644 1.781c-.426 1.118-.641 1.528-.957 1.844-.254.254-.645.406-1.051.406m0 0" style="stroke:none;fill-rule:nonzero;fill:#5f7aff;fill-opacity:1"/><path d="M3.906 7.277c-.14.395-.328.918-.523 1.43-.414 1.086-.621 1.484-.914 1.777-.219.22-.563.352-.918.352-.336 0-.637-.117-.848-.328-.219-.219-.336-.54-.324-.895.012-.336.14-.66.348-.867.296-.297.785-.512 1.46-.812q.151-.064.313-.141c.46-.207.992-.387 1.406-.516m.59-.558s-1.207.308-2.152.734C1.484 7.84.859 8.086.46 8.48c-.563.563-.649 1.665-.02 2.293.297.301.707.438 1.11.438.445 0 .887-.164 1.183-.461.356-.355.579-.809 1-1.91.403-1.05.762-2.121.762-2.121m0 0" style="stroke:none;fill-rule:nonzero;fill:#4864ed;fill-opacity:1"/><path d="M14.45 11.023c-.407 0-.798-.152-1.052-.406-.316-.316-.53-.726-.957-1.844a57 57 0 0 1-.644-1.78c.422.124 1.164.355 1.781.632.11.047.211.094.313.137.691.308 1.195.531 1.515.851.239.239.39.614.403.996.011.407-.121.774-.38 1.032-.25.246-.597.382-.98.382m0 0" style="stroke:none;fill-rule:nonzero;fill:#5f7aff;fill-opacity:1"/><path d="M12.094 7.277a13 13 0 0 1 1.719.657c.675.3 1.164.515 1.46.812.207.207.336.531.348.867.012.356-.105.676-.324.895-.211.21-.512.328-.848.328-.355 0-.699-.133-.918-.352-.293-.293-.5-.691-.914-1.777-.199-.512-.383-1.035-.523-1.43m-.59-.558s.36 1.07.762 2.12c.422 1.102.648 1.556 1 1.911.297.297.738.46 1.183.46.406 0 .813-.136 1.114-.437.624-.628.539-1.73-.024-2.293-.394-.394-1.023-.64-1.883-1.027-.945-.426-2.152-.734-2.152-.734m0 0" style="stroke:none;fill-rule:nonzero;fill:#4864ed;fill-opacity:1"/><path d="M6.02 7.223q0-.002-.024-.028-.011-.017-.027-.035-.016-.023-.032-.035l-.078-.078a1.3 1.3 0 0 0-.382-.274.8.8 0 0 0-.305-.066h.02-.036l-.035.004c-.035 0-.027 0-.039.004-.008-.004-.043.008-.066.012q-.077.017-.153.046a1 1 0 0 0-.273.176 2 2 0 0 0-.262.262l-.035.043a.42.42 0 0 1-.59.035.42.42 0 0 1-.113-.45l.012-.042q.015-.037.043-.113a1.9 1.9 0 0 1 .23-.383c.113-.153.281-.317.504-.442a1.5 1.5 0 0 1 .586-.199 1 1 0 0 1 .11-.012l.097-.007q.211.005.418.062c.137.031.262.094.37.156.224.125.392.29.505.442.058.074.105.148.144.21.036.063.063.13.09.18q.018.04.024.063c.004.016.011.031.011.043l.012.031a.417.417 0 0 1-.27.531.42.42 0 0 1-.456-.136M11.684 7.223l-.02-.028c-.008-.011-.02-.023-.027-.035l-.032-.035-.078-.078a1 1 0 0 0-.109-.098 1 1 0 0 0-.273-.176.8.8 0 0 0-.31-.066h.024-.035l-.039.004c-.031 0-.023 0-.035.004-.008-.004-.043.008-.066.012a1 1 0 0 0-.153.046 1 1 0 0 0-.277.176 2 2 0 0 0-.188.184c-.046.05-.074.078-.074.078l-.035.043a.415.415 0 0 1-.586.035.41.41 0 0 1-.117-.45l.012-.042c.011-.024.023-.063.046-.113.04-.098.11-.23.227-.383.113-.153.281-.317.504-.442a1.6 1.6 0 0 1 .695-.21l.098-.008c.14.004.285.023.422.062.133.031.258.094.37.156.224.125.388.29.505.442.058.074.101.148.14.21.036.063.067.13.09.18q.018.04.024.063.008.024.015.043l.012.031a.422.422 0 0 1-.73.395m0 0" style="stroke:none;fill-rule:nonzero;fill:#242424;fill-opacity:1"/></svg>