<svg xmlns="http://www.w3.org/2000/svg" xmlns:xlink="http://www.w3.org/1999/xlink" width="16pt" height="16pt" viewBox="0 0 16 16"><defs><clipPath id="b"><path d="M0 0h16v16H0z"/></clipPath><clipPath id="c"><path d="M0 0h16v16H0z"/></clipPath><clipPath id="d"><path d="M0 0h16v16H0z"/></clipPath><clipPath id="e"><path d="M0 0h16v16H0z"/></clipPath><clipPath id="f"><path d="M0 0h16v16H0z"/></clipPath><clipPath id="g"><path d="M0 0h16v16H0z"/></clipPath><clipPath id="h"><path d="M0 0h16v16H0z"/></clipPath><clipPath id="i"><path d="M0 0h16v16H0z"/></clipPath><mask id="p"><g filter="url(#a)"><path d="M0 0h16v16H0z" style="fill:#000;fill-opacity:.560784;stroke:none"/></g></mask><mask id="r"><g filter="url(#a)"><path d="M0 0h16v16H0z" style="fill:#000;fill-opacity:.560784;stroke:none"/></g></mask><mask id="t"><g filter="url(#a)"><path d="M0 0h16v16H0z" style="fill:#000;fill-opacity:.560784;stroke:none"/></g></mask><mask id="v"><g filter="url(#a)"><path d="M0 0h16v16H0z" style="fill:#000;fill-opacity:.560784;stroke:none"/></g></mask><mask id="x"><g filter="url(#a)"><path d="M0 0h16v16H0z" style="fill:#000;fill-opacity:.560784;stroke:none"/></g></mask><mask id="z"><g filter="url(#a)"><path d="M0 0h16v16H0z" style="fill:#000;fill-opacity:.560784;stroke:none"/></g></mask><mask id="B"><g filter="url(#a)"><path d="M0 0h16v16H0z" style="fill:#000;fill-opacity:.560784;stroke:none"/></g></mask><mask id="D"><g filter="url(#a)"><path d="M0 0h16v16H0z" style="fill:#000;fill-opacity:.2;stroke:none"/></g></mask><g id="q" clip-path="url(#b)"><path d="m28.5 85.5 6 25.75" style="fill:none;stroke-width:3;stroke-linecap:round;stroke-linejoin:round;stroke:#49a5b0;stroke-opacity:1;stroke-miterlimit:10" transform="scale(.125)"/></g><g id="s" clip-path="url(#c)"><path d="m99.5 85.594-6 25.906" style="fill:none;stroke-width:3;stroke-linecap:round;stroke-linejoin:round;stroke:#49a5b0;stroke-opacity:1;stroke-miterlimit:10" transform="scale(.125)"/></g><g id="u" clip-path="url(#d)"><path d="m40.969 89.594 3.5 25.5" style="fill:none;stroke-width:3;stroke-linecap:round;stroke-linejoin:round;stroke:#49a5b0;stroke-opacity:1;stroke-miterlimit:10" transform="scale(.125)"/></g><g id="w" clip-path="url(#e)"><path d="m87.031 88.656-3.5 25.5" style="fill:none;stroke-width:3;stroke-linecap:round;stroke-linejoin:round;stroke:#49a5b0;stroke-opacity:1;stroke-miterlimit:10" transform="scale(.125)"/></g><g id="y" clip-path="url(#f)"><path d="m51.844 91 2.312 26.156" style="fill:none;stroke-width:3;stroke-linecap:round;stroke-linejoin:round;stroke:#49a5b0;stroke-opacity:1;stroke-miterlimit:10" transform="scale(.125)"/></g><g id="A" clip-path="url(#g)"><path d="m76.156 90.094-2.312 26.156" style="fill:none;stroke-width:3;stroke-linecap:round;stroke-linejoin:round;stroke:#49a5b0;stroke-opacity:1;stroke-miterlimit:10" transform="scale(.125)"/></g><g id="C" clip-path="url(#h)"><path d="m64.156 92.656.344 25.188" style="fill:none;stroke-width:3;stroke-linecap:round;stroke-linejoin:round;stroke:#49a5b0;stroke-opacity:1;stroke-miterlimit:10" transform="scale(.125)"/></g><g id="E" clip-path="url(#i)"><path d="M8.293 1.262a5.4 5.4 0 0 1 1.316 1.05c.176.188.332.47.446.793.043.122.14.211.265.239.13.035.793.215 1.07.64q.07.106.098.223.017.075.028.156a.37.37 0 0 0 .12.23c.153.141.41.466.41 1.055 0 .137-.015.27-.054.395a.373.373 0 0 0 .27.469q.13.087.23.187c.395.399.266.856.09 1.168a.37.37 0 0 0 .02.39c.07.106.187.169.308.169.016 0 .031-.004.043-.004h.031q.123-.002.2.113.022.031.046.063c.051.066.051.074.055.093 0 .137.074.262.195.325a.3.3 0 0 0 .122.043l-.102.289a.37.37 0 0 0 .086.375q.035.039.078.066l-.086.246c-.332.977-.676 1.985-.969 2.996q-.022.07-.039.14c-.117.415-.25.884-.527 1.106-.258.207-.598.332-.895.434-.84.277-1.824.414-3.003.414h-.16c-1.493-.016-2.606-.21-3.505-.617-.363-.164-.628-.328-.746-.598-.23-.535-.41-1.117-.59-1.68a10 10 0 0 0-.113-.359 60 60 0 0 1-.23-.785c-.145-.5-.29-1.016-.485-1.504a.1.1 0 0 0 .028-.039.37.37 0 0 0 .05-.336l-.05-.145c-.004-.007-.004-.019-.008-.027a.4.4 0 0 0 .062-.05.37.37 0 0 0 .11-.348c-.031-.145-.012-.239.023-.27.04-.035.067-.047.082-.047q0-.001.012.004a.373.373 0 0 0 .516-.332.5.5 0 0 1 .05-.16.4.4 0 0 0 .09-.176.38.38 0 0 0-.062-.289c-.102-.144-.239-.426-.196-.613.012-.05.04-.121.16-.191a.37.37 0 0 0 .188-.297c.012-.11.05-.395.223-.653.183-.265.472-.422.86-.46a.38.38 0 0 0 .331-.34v-.008c.047-.407.23-.86 1.23-1.418.348-.196.65-.336.915-.457.52-.243.925-.434 1.203-.825.16-.222.215-.511.16-.843M7.941.68a.2.2 0 0 0-.082.023.15.15 0 0 0-.066.188c.125.297.234.714.035 1-.34.476-.969.597-1.992 1.168-.977.546-1.356 1.066-1.422 1.718v.004c-.582.059-.926.328-1.129.625A1.8 1.8 0 0 0 3 6.238c-.715.41-.156 1.25-.09 1.344q-.006.007-.012.008s-.125.18-.132.387a.4.4 0 0 0-.157-.032.5.5 0 0 0-.332.145c-.125.113-.199.32-.136.625a.3.3 0 0 0-.102-.016c-.129 0-.184.098-.125.27.043.117.082.238.125.36-.125 0-.18.093-.125.265.32.758.508 1.605.758 2.39.219.692.43 1.407.715 2.075.176.402.543.613.933.793 1.125.507 2.438.636 3.657.648h.164c1.047 0 2.125-.102 3.125-.434.351-.117.714-.261 1.007-.496.41-.328.555-.949.692-1.433.336-1.153.73-2.282 1.117-3.418.059-.172.004-.27-.129-.27a.3.3 0 0 0-.098.016q.102-.316.227-.621c.059-.172.004-.266-.125-.266a.5.5 0 0 0-.215.063c-.031.011-.058.03-.086.046-.004-.183-.097-.269-.168-.367a.6.6 0 0 0-.504-.273q-.04-.001-.074.004c.317-.57.293-1.164-.152-1.614a1.8 1.8 0 0 0-.387-.296q-.001.001-.02.007c.047-.168.07-.34.07-.5 0-.734-.335-1.148-.534-1.332a2 2 0 0 0-.035-.195 1.1 1.1 0 0 0-.153-.344c-.344-.527-1.082-.742-1.293-.797-.12-.351-.3-.683-.52-.921A5.8 5.8 0 0 0 8.009.699.13.13 0 0 0 7.94.68m0 0" style="stroke:none;fill-rule:nonzero;fill:#424242;fill-opacity:1"/></g><linearGradient id="k" x1="22.114" x2="102.08" y1="61.979" y2="61.979" gradientTransform="scale(.125)" gradientUnits="userSpaceOnUse"><stop offset="0" style="stop-color:#ff85ae;stop-opacity:1"/><stop offset=".317" style="stop-color:#ff7da9;stop-opacity:1"/><stop offset=".816" style="stop-color:#ff669a;stop-opacity:1"/><stop offset="1" style="stop-color:#ff5c93;stop-opacity:1"/></linearGradient><linearGradient id="l" x1="21.117" x2="99.384" y1="47.691" y2="47.691" gradientTransform="scale(.125)" gradientUnits="userSpaceOnUse"><stop offset=".003" style="stop-color:#ffb0cb;stop-opacity:1"/><stop offset=".792" style="stop-color:#f383a9;stop-opacity:1"/><stop offset="1" style="stop-color:#f0769f;stop-opacity:1"/></linearGradient><linearGradient id="m" x1="55.086" x2="87.012" y1="24.14" y2="24.14" gradientTransform="scale(.125)" gradientUnits="userSpaceOnUse"><stop offset="0" style="stop-color:#f697b7;stop-opacity:1"/><stop offset=".335" style="stop-color:#f78fb2;stop-opacity:1"/><stop offset=".862" style="stop-color:#f878a3;stop-opacity:1"/><stop offset="1" style="stop-color:#f9719f;stop-opacity:1"/></linearGradient><linearGradient id="n" x1="23.961" x2="95.222" y1="40.522" y2="40.522" gradientTransform="scale(.125)" gradientUnits="userSpaceOnUse"><stop offset="0" style="stop-color:#f78fb2;stop-opacity:1"/><stop offset=".272" style="stop-color:#f887ad;stop-opacity:1"/><stop offset=".703" style="stop-color:#fc709f;stop-opacity:1"/><stop offset="1" style="stop-color:#ff5c93;stop-opacity:1"/></linearGradient><linearGradient id="o" x1="64" x2="64" y1="83" y2="119.62" gradientTransform="scale(.125)" gradientUnits="userSpaceOnUse"><stop offset="0" style="stop-color:#4fe8ff;stop-opacity:1"/><stop offset=".497" style="stop-color:#4bddf3;stop-opacity:1"/><stop offset="1" style="stop-color:#45cee3;stop-opacity:1"/></linearGradient><radialGradient id="j" cx="63.667" cy="67.667" r="26.685" fx="63.667" fy="67.667" gradientTransform="matrix(0 .125 -.19573 0 21.203 .5)" gradientUnits="userSpaceOnUse"><stop offset="0" style="stop-color:#be5d23;stop-opacity:1"/><stop offset=".158" style="stop-color:#b65b25;stop-opacity:1"/><stop offset=".407" style="stop-color:#9f552a;stop-opacity:1"/><stop offset=".715" style="stop-color:#7a4c33;stop-opacity:1"/><stop offset=".999" style="stop-color:#52423c;stop-opacity:1"/></radialGradient><filter id="a" width="100%" height="100%" x="0%" y="0%" filterUnits="objectBoundingBox"><feColorMatrix in="SourceGraphic" values="0 0 0 0 1 0 0 0 0 1 0 0 0 0 1 0 0 0 1 0"/></filter></defs><path d="M13.742 8.64c-.027.012-.058.032-.086.047 0-.183-.097-.269-.164-.367-.324-.465-.953-.289-1.137.137-.027.059.38.59.364.648-.27.122-.531.403-.582.645.054-.25-.133-.367-.418-.273s-.551.363-.59.613c.039-.25-.164-.387-.453-.317s-.551.317-.574.567c.023-.25-.192-.406-.485-.36-.293.043-.543.27-.555.516.012-.246-.218-.422-.515-.406-.293.015-.531.219-.531.469 0-.246-.246-.45-.54-.457-.296-.012-.523.171-.507.418-.016-.247-.27-.47-.563-.504-.293-.04-.508.12-.476.37-.032-.25-.297-.495-.586-.558-.29-.062-.489.078-.446.328-.043-.25-.32-.515-.605-.605-.285-.086-.469.035-.41.285-.059-.25-.692-1.305-.758-1.461-.187-.43-.543-.562-.848-.285-.125.113-.203.32-.136.62-.2-.054-.301.044-.227.255.395 1.156.79 2.336 1.113 3.52.137.503.282 1.16.688 1.538.293.27.66.457 1.012.61 1.046.449 2.21.586 3.293.594 1.16.007 2.636-.274 3.664-.856.386-.219.757-.476.93-.906.288-.715.495-1.465.714-2.184.25-.816.438-1.68.758-2.441.082-.25-.07-.336-.344-.2m0 0" style="stroke:none;fill-rule:nonzero;fill:#48a2ad;fill-opacity:1"/><path d="M13.61 9.664c0-1.25-2.52-2.262-5.626-2.262-3.109 0-5.629 1.012-5.629 2.262s2.52 2.262 5.63 2.262c3.105 0 5.624-1.012 5.624-2.262m0 0" style="stroke:none;fill-rule:nonzero;fill:url(#j)"/><path d="M12.762 6.434a1.9 1.9 0 0 0-.39-.293S8.788 7.309 6.292 7.18c-2.496-.125-2.129-.399-3.395.41 0 0-.347.496.075.797.554.394 1.25.718 2.015.965a.5.5 0 0 1 .266-.11c2.379-.824 7.004.223 7.508-2.808m0 0" style="stroke:none;fill-rule:nonzero;fill:url(#k)"/><path d="M12.762 6.434c-.504 3.03-5.13 1.984-7.508 2.808a.5.5 0 0 0-.266.11c1.922.62 4.27.746 5.836.226 1.969-.652 2.856-2.21 1.938-3.144m0 0" style="stroke:none;fill-rule:nonzero;fill:#eb5e8e;fill-opacity:1"/><path d="M11.742 4.203s.68.402.68 1.445c0 1.04-.867 2.391-4.711 2.004-3.809-.382-4.793-.058-4.793-.058S1.75 6.008 4.191 6.016c2.184.007 5.43.265 6.196-.22 1.14-.722 1.183-.745 1.355-1.593m0 0" style="stroke:none;fill-rule:nonzero;fill:url(#l)"/><path d="M7.305 3.43c1.183-.739 1.12-1.813.554-2.727a.15.15 0 0 0-.062.188c.121.297.23.714.031 1-.34.476-.965.597-1.992 1.168-.977.546-1.356 1.066-1.422 1.718a.145.145 0 0 0 .086.149c.11.054.32.144.637.226.343-.851 1.383-1.328 2.168-1.722m0 0" style="stroke:none;fill-rule:nonzero;fill:#f77ca5;fill-opacity:1"/><path d="M9.887 2.055a5.7 5.7 0 0 0-1.88-1.36.17.17 0 0 0-.148.008c.563.914.63 1.988-.554 2.727-.785.394-1.825.87-2.168 1.722.343.09.816.172 1.43.192 1.507.047 3.538-.04 3.886-.63.344-.589.055-1.987-.566-2.66m0 0" style="stroke:none;fill-rule:nonzero;fill:url(#m)"/><path d="M11.637 4c.031-.074.05-.148.066-.223-.406-.62-1.351-.808-1.351-.808 1.027 2.187-4.32 1.71-5.836 1.8-.645.04-1.016.32-1.23.637.316-.164.687-.258 1.058-.379 2.39-.57 6.265 1.825 7.293-1.027m0 0" style="stroke:none;fill-rule:nonzero;fill:#f79ebc;fill-opacity:1"/><path d="M11.852 4.121a1 1 0 0 0-.149-.344 1 1 0 0 1-.066.223c-1.028 2.852-4.903.457-7.293 1.027-.371.121-.742.211-1.059.38-.289.421-.289.902-.289.902 1.559-.473 2.707 0 5.703.046 2.996.04 3.367-1.34 3.153-2.234m0 0" style="stroke:none;fill-rule:nonzero;fill:url(#n)"/><path d="M13.746 9.504c-.273.129-.562.422-.633.664.075-.242-.097-.348-.375-.242-.281.101-.562.37-.62.61.058-.24-.126-.356-.415-.278-.285.082-.558.328-.601.562.043-.234-.157-.37-.446-.312-.289.055-.554.281-.586.512.032-.23-.183-.383-.476-.352s-.547.238-.563.469c.016-.23-.21-.403-.504-.395-.297.008-.539.195-.543.426.004-.23-.234-.422-.53-.438-.294-.015-.524.153-.513.383-.011-.23-.261-.441-.554-.476-.293-.04-.508.11-.485.34-.023-.23-.285-.461-.574-.524-.289-.062-.492.067-.453.305-.04-.238-.305-.488-.59-.574s-.473.03-.418.27c-.054-.24-.328-.517-.61-.626-.277-.105-.448-.008-.378.238-.07-.246-.348-.543-.621-.675-.27-.133-.422-.047-.344.203.324.758.512 1.61.762 2.39.219.692.426 1.41.715 2.075.172.402.539.617.933.793 1.125.507 2.438.636 3.653.648 1.101.012 2.242-.082 3.289-.434.351-.117.718-.261 1.011-.496.407-.328.551-.949.692-1.433.332-1.153.726-2.282 1.113-3.418.086-.254-.062-.34-.336-.215m0 0" style="stroke:none;fill-rule:nonzero;fill:url(#o)"/><path d="M4.844 6.156c0 .137-.114.25-.25.25a.25.25 0 0 1-.25-.25c0-.136.113-.25.25-.25.136 0 .25.114.25.25m0 0" style="stroke:none;fill-rule:nonzero;fill:#b8eb96;fill-opacity:1"/><path d="M6.469 7.063c0 .136-.114.25-.25.25a.25.25 0 0 1-.25-.25c0-.137.113-.25.25-.25.136 0 .25.113.25.25m0 0" style="stroke:none;fill-rule:nonzero;fill:#ebd3db;fill-opacity:1"/><path d="M4.906 8c0 .137-.113.25-.25.25a.25.25 0 0 1-.25-.25c0-.137.114-.25.25-.25.137 0 .25.113.25.25m0 0" style="stroke:none;fill-rule:nonzero;fill:#eb5e8e;fill-opacity:1"/><path d="M6.75 4.313c0 .136-.113.25-.25.25a.25.25 0 0 1-.25-.25c0-.137.113-.25.25-.25s.25.113.25.25m0 0" style="stroke:none;fill-rule:nonzero;fill:#3dc2eb;fill-opacity:1"/><path d="M8.094 6.031c0 .137-.114.25-.25.25a.25.25 0 0 1-.25-.25c0-.136.113-.25.25-.25.136 0 .25.114.25.25m0 0" style="stroke:none;fill-rule:nonzero;fill:#ffa600;fill-opacity:1"/><path d="M12.188 7.906c0 .137-.114.25-.25.25a.25.25 0 0 1-.25-.25c0-.136.113-.25.25-.25.136 0 .25.114.25.25m0 0" style="stroke:none;fill-rule:nonzero;fill:#79eb2d;fill-opacity:1"/><path d="M9.125 3.406c0 .137-.113.25-.25.25a.25.25 0 0 1-.25-.25c0-.136.113-.25.25-.25s.25.114.25.25m0 0" style="stroke:none;fill-rule:nonzero;fill:#fff000;fill-opacity:1"/><path d="M10.438 6.313c0 .136-.114.25-.25.25a.25.25 0 0 1-.25-.25c0-.137.113-.25.25-.25.136 0 .25.113.25.25m0 0" style="stroke:none;fill-rule:nonzero;fill:#8052ff;fill-opacity:1"/><path d="M11.063 4.438c0 .136-.114.25-.25.25a.25.25 0 0 1-.25-.25c0-.137.113-.25.25-.25.136 0 .25.113.25.25m0 0" style="stroke:none;fill-rule:nonzero;fill:#5eebb3;fill-opacity:1"/><path d="M9.281 8.219c0 .136-.113.25-.25.25a.25.25 0 0 1-.25-.25c0-.137.114-.25.25-.25.137 0 .25.113.25.25m0 0" style="stroke:none;fill-rule:nonzero;fill:#a45eeb;fill-opacity:1"/><use xlink:href="#q" mask="url(#p)"/><use xlink:href="#s" mask="url(#r)"/><use xlink:href="#u" mask="url(#t)"/><use xlink:href="#w" mask="url(#v)"/><use xlink:href="#y" mask="url(#x)"/><use xlink:href="#A" mask="url(#z)"/><use xlink:href="#C" mask="url(#B)"/><use xlink:href="#E" mask="url(#D)"/></svg>