<svg xmlns="http://www.w3.org/2000/svg" xmlns:xlink="http://www.w3.org/1999/xlink" width="16pt" height="16pt" viewBox="0 0 16 16"><defs><radialGradient id="c" cx="25.701" cy="66.546" r="19.444" fx="25.701" fy="66.546" gradientTransform="matrix(.12239 0 0 .11626 .26 .992)" gradientUnits="userSpaceOnUse"><stop offset="0" style="stop-color:#ed7770;stop-opacity:1"/><stop offset=".9" style="stop-color:#ed7770;stop-opacity:0"/></radialGradient><radialGradient id="e" cx="100.77" cy="66.546" r="19.444" fx="100.77" fy="66.546" gradientTransform="matrix(.12239 0 0 .11626 .26 .992)" gradientUnits="userSpaceOnUse"><stop offset="0" style="stop-color:#ed7770;stop-opacity:1"/><stop offset=".9" style="stop-color:#ed7770;stop-opacity:0"/></radialGradient><clipPath id="b"><path d="M0 0h16v16H0z"/></clipPath><clipPath id="d"><path d="M0 0h16v16H0z"/></clipPath><mask id="g"><g filter="url(#a)"><path d="M0 0h16v16H0z" style="fill:#000;fill-opacity:.8;stroke:none"/></g></mask><mask id="i"><g filter="url(#a)"><path d="M0 0h16v16H0z" style="fill:#000;fill-opacity:.8;stroke:none"/></g></mask><g id="h" clip-path="url(#b)"><path d="M5.594 8.73a2.189 2.189 0 0 1-4.375 0 2.186 2.186 0 1 1 4.375 0m0 0" style="stroke:none;fill-rule:nonzero;fill:url(#c)"/></g><g id="j" clip-path="url(#d)"><path d="M14.781 8.73c0 1.207-.98 2.188-2.187 2.188a2.186 2.186 0 1 1 0-4.375c1.207 0 2.187.977 2.187 2.187m0 0" style="stroke:none;fill-rule:nonzero;fill:url(#e)"/></g><linearGradient id="f" x1="64.495" x2="64.495" y1="19.717" y2="107.7" gradientTransform="scale(.125)" gradientUnits="userSpaceOnUse"><stop offset=".5" style="stop-color:#fee133;stop-opacity:1"/><stop offset=".612" style="stop-color:#fede32;stop-opacity:1"/><stop offset=".708" style="stop-color:#fcd32f;stop-opacity:1"/><stop offset=".797" style="stop-color:#fac12b;stop-opacity:1"/><stop offset=".883" style="stop-color:#f7a924;stop-opacity:1"/><stop offset=".9" style="stop-color:#f6a323;stop-opacity:1"/></linearGradient><filter id="a" width="100%" height="100%" x="0%" y="0%" filterUnits="objectBoundingBox"><feColorMatrix in="SourceGraphic" values="0 0 0 0 1 0 0 0 0 1 0 0 0 0 1 0 0 0 1 0"/></filter></defs><path d="M8.063 14.984C4.57 14.984.813 12.801.813 8c0-4.8 3.757-6.984 7.25-6.984 1.933 0 3.726.636 5.046 1.8C14.547 4.09 15.313 5.883 15.313 8c0 2.11-.762 3.895-2.204 5.172-1.324 1.172-3.117 1.812-5.046 1.812m0 0" style="stroke:none;fill-rule:nonzero;fill:url(#f)"/><path d="M8.063 1.266c1.874 0 3.609.617 4.878 1.738C14.328 4.23 15.062 5.957 15.062 8c0 2.035-.734 3.758-2.12 4.984-1.278 1.13-3.008 1.75-4.88 1.75-1.878 0-3.613-.613-4.878-1.726C1.797 11.789 1.063 10.058 1.063 8c0-2.066.734-3.8 2.12-5.02 1.262-1.105 2.997-1.714 4.88-1.714m0-.5C4.168.766.563 3.266.563 8c0 4.71 3.605 7.234 7.5 7.234s7.5-2.59 7.5-7.234c0-4.672-3.606-7.234-7.5-7.234m0 0" style="stroke:none;fill-rule:nonzero;fill:#eb8f00;fill-opacity:1"/><path d="M7.996 12.082c-1.594 0-2.726-.824-3.07-1.348-.13-.199-.156-.418-.067-.582a.36.36 0 0 1 .332-.195q.077 0 .153.023c.8.254 1.722.383 2.66.383.93 0 1.848-.129 2.648-.383a.5.5 0 0 1 .149-.023c.144 0 .27.07.336.195.086.164.062.383-.07.582-.344.524-1.477 1.348-3.07 1.348m0 0" style="stroke:none;fill-rule:nonzero;fill:#242424;fill-opacity:1"/><use xlink:href="#h" mask="url(#g)"/><use xlink:href="#j" mask="url(#i)"/><path d="M49.625 36.625c2.25.375 3.406-2.656 1.063-3.531-1.75-.657-3.72-1-5.72-1.063-5.593-.281-10.78 1.813-14.468 5.032-1.844 1.624.375 4.03 2.281 2.874 4.844-2.812 10.875-4.218 16.844-3.312ZM79.188 36.625c-2.282.375-3.438-2.656-1.094-3.531 1.75-.657 3.75-1 5.75-1.063 5.594-.281 10.781 1.813 14.437 5.032 1.844 1.624-.375 4.03-2.25 2.874-4.875-2.812-10.906-4.218-16.844-3.312Zm0 0" style="fill-rule:nonzero;fill:#eb8f00;fill-opacity:1;stroke-width:1;stroke-linecap:butt;stroke-linejoin:miter;stroke:#eb8f00;stroke-opacity:1;stroke-miterlimit:10" transform="scale(.125)"/><path d="m6.27 7.387-.024-.028c-.008-.007-.016-.02-.027-.03q-.016-.026-.032-.04l-.078-.078q-.046-.046-.105-.098a1.2 1.2 0 0 0-.277-.172.8.8 0 0 0-.305-.066h.02-.07c-.036 0-.028.004-.04.004-.008 0-.043.008-.066.012a1 1 0 0 0-.153.05 1.2 1.2 0 0 0-.273.172 2 2 0 0 0-.192.184l-.07.082-.035.043a.42.42 0 0 1-.59.031.415.415 0 0 1-.113-.45l.012-.038q.015-.042.043-.113c.042-.098.113-.235.23-.387a1.7 1.7 0 0 1 .504-.442c.11-.062.234-.12.371-.156.07-.015.129-.031.215-.043.039-.004.094-.011.11-.011l.097-.004q.211.005.418.058c.137.035.262.094.37.156.224.13.392.293.505.442q.086.116.144.215c.036.062.063.125.09.18q.018.04.024.062c.004.016.011.031.011.039l.012.035a.419.419 0 0 1-.726.39M11.684 7.387q-.001.001-.02-.028c-.008-.007-.02-.02-.027-.03q-.019-.026-.032-.04l-.078-.078c-.03-.031-.07-.063-.109-.098a1.2 1.2 0 0 0-.273-.172.8.8 0 0 0-.31-.066h.024-.074c-.031 0-.023.004-.035.004-.008 0-.043.008-.066.012a.7.7 0 0 0-.153.05 1.2 1.2 0 0 0-.277.172 2 2 0 0 0-.188.184l-.074.082-.035.043a.414.414 0 0 1-.586.031.41.41 0 0 1-.117-.45l.012-.038c.011-.027.023-.067.046-.113a1.73 1.73 0 0 1 .73-.828c.114-.063.235-.122.372-.157.07-.015.129-.031.219-.043.035-.004.09-.011.105-.011l.098-.004c.14.003.285.023.422.058.133.035.258.094.37.156.224.13.388.293.505.442a2.2 2.2 0 0 1 .23.394q.018.04.024.063.008.026.015.039l.012.035a.424.424 0 0 1-.273.531.43.43 0 0 1-.457-.14m0 0" style="stroke:none;fill-rule:nonzero;fill:#242424;fill-opacity:1"/></svg>