<svg xmlns="http://www.w3.org/2000/svg" xmlns:xlink="http://www.w3.org/1999/xlink" viewBox="0 0 16 16"><linearGradient id="f" x1="64.116" x2="64.116" y1="22.925" y2="104.55" gradientTransform="rotate(-12.03 8.064 8.109)scale(.125)" gradientUnits="userSpaceOnUse"><stop offset=".505" stop-color="#fee133"/><stop offset=".615" stop-color="#fede32"/><stop offset=".71" stop-color="#fcd32f"/><stop offset=".799" stop-color="#fac12b"/><stop offset=".883" stop-color="#f7a924"/><stop offset=".9" stop-color="#f6a323"/></linearGradient><filter id="a" width="100%" height="100%" x="0%" y="0%"><feColorMatrix in="SourceGraphic" values="0 0 0 0 1 0 0 0 0 1 0 0 0 0 1 0 0 0 1 0"/></filter><mask id="h"><g filter="url(#a)"><path fill-opacity=".8" d="M0 0h16v16H0z"/></g></mask><linearGradient id="c" gradientUnits="userSpaceOnUse"><stop offset="0" stop-color="#ed7770"/><stop offset=".9" stop-color="#ed7770" stop-opacity="0"/></linearGradient><radialGradient xlink:href="#c" id="i" cx="28.543" cy="57.614" r="18.103" gradientTransform="matrix(.12 -.023 .021 .114 -.958 2.076)"/><clipPath id="g"><path d="M0 0h16v16H0z"/></clipPath><mask id="l"><g filter="url(#a)"><path fill-opacity=".8" d="M0 0h16v16H0z"/></g></mask><radialGradient xlink:href="#c" id="m" cx="98.434" cy="57.614" r="18.103" gradientTransform="matrix(.12 -.023 .021 .114 -.958 2.076)"/><clipPath id="k"><path d="M0 0h16v16H0z"/></clipPath><linearGradient id="e" gradientUnits="userSpaceOnUse"><stop offset="0" stop-color="#f6a323"/><stop offset=".158" stop-color="#fabe2a"/><stop offset=".338" stop-color="#fdd831"/><stop offset=".448" stop-color="#fee133"/></linearGradient><linearGradient xlink:href="#e" id="n" x1="32.968" x2="22.054" y1="119.85" y2="92.836" gradientTransform="rotate(-4.12 4.788 12.844)scale(.125)"/><linearGradient xlink:href="#e" id="o" x1="48.085" x2="37.17" y1="121" y2="93.98" gradientTransform="rotate(-175.88 9.41 -.15)scale(.125 -.125)"/><path fill="url(#f)" d="M7.715 14.516c-2.512 0-5.48-1.344-6.289-5.105-.934-4.352 2.047-7.07 5.215-7.75a8 8 0 0 1 1.629-.176c2.52 0 5.5 1.344 6.309 5.102.41 1.91.066 3.684-.992 5.121-.973 1.32-2.473 2.254-4.223 2.629a8 8 0 0 1-1.649.18zm0 0"/><path fill="#eb8f00" d="M8.273 1.719c2.43 0 5.301 1.293 6.078 4.918.395 1.844.066 3.551-.953 4.934-.938 1.274-2.387 2.172-4.082 2.539a7.7 7.7 0 0 1-1.602.172c-1.438 0-2.754-.418-3.801-1.203-1.141-.859-1.922-2.145-2.262-3.719-.402-1.875-.074-3.59.945-4.961.93-1.254 2.387-2.145 4.094-2.508a7.5 7.5 0 0 1 1.582-.172m0-.465q-.84 0-1.68.18C3.057 2.192.275 5.165 1.197 9.461c.77 3.59 3.551 5.285 6.516 5.285.563 0 1.133-.063 1.699-.184 3.531-.758 6.297-3.809 5.391-8.023-.766-3.57-3.559-5.285-6.531-5.285m0 0"/><g clip-path="url(#g)" mask="url(#h)"><path fill="url(#i)" d="M5.746 8.016a2.037 2.037 0 0 1-4.074 0 2.036 2.036 0 0 1 4.074 0m0 0"/></g><g clip-path="url(#k)" mask="url(#l)"><path fill="url(#m)" d="M14.152 6.441a2.037 2.037 0 0 1-4.074 0 2.037 2.037 0 0 1 4.074 0m0 0"/></g><g fill="#242424"><path d="M12.109 6.172c-.957.895-2.231 1.586-3.703 1.926-1.477.34-2.922.273-4.172-.113-.231-.07-.387.234-.191.375 1.266.938 2.949 1.336 4.641.945s3.031-1.481 3.762-2.879c.109-.211-.16-.414-.336-.254zM6.066 5.895l-.02-.02q-.022-.02-.063-.051-.029-.025-.074-.055a1 1 0 0 0-.098-.07c-.039-.023-.078-.047-.113-.063-.035-.023-.074-.035-.105-.047-.035-.012-.063-.012-.082-.012-.008-.004-.016 0-.023 0h-.02c.016 0-.031.008.031-.004l-.063.012c-.016.004-.004.004-.004.004q.007.001.008-.004c.012-.004 0 0 0 .004q-.005-.001-.016.004c-.016.008-.043.02-.066.043-.027.02-.059.047-.086.078s-.055.067-.078.102c-.051.07-.09.141-.117.188l-.047.082-.02.035a.49.49 0 0 1-.629.191.4.4 0 0 1-.242-.363s-.004-.047.004-.133.027-.211.078-.363c.055-.148.137-.328.301-.512.082-.09.184-.184.313-.258q.046-.026.098-.051c.039-.02.066-.035.113-.051l.07-.023c.023-.008.055-.016.059-.02l.063-.016.035-.008h.004l.02-.004.031-.004.059-.008q.058-.005.117-.004.118-.001.231.016c.145.02.273.07.383.121.219.109.363.246.469.367q.082.09.129.168c.035.047.063.102.086.141.02.039.023.063.031.082l.012.027c.086.223-.043.473-.285.559a.49.49 0 0 1-.492-.082zM10.352 5.07l-.024-.023c-.012-.012-.035-.027-.059-.051-.02-.016-.047-.031-.074-.055-.031-.02-.066-.047-.102-.07l-.109-.063c-.039-.02-.078-.031-.109-.043s-.059-.012-.078-.016H9.77c-.004.004-.004 0-.008.004h-.008l.031-.008-.063.016c-.02.004-.008.004-.004.004q.001-.002.008-.004c.008-.004 0 0-.004 0s-.008.004-.012.004c-.016.012-.043.02-.07.043-.023.023-.055.051-.082.082s-.055.066-.078.102c-.051.07-.09.137-.121.188l-.043.078-.02.035a.49.49 0 0 1-.629.195.42.42 0 0 1-.246-.367s0-.047.008-.133.023-.211.078-.359c.051-.148.137-.332.301-.516.082-.09.184-.18.313-.254q.046-.03.098-.055c.052-.025.063-.031.113-.051l.07-.023a.3.3 0 0 1 .055-.016l.063-.016.035-.008h.004l.023-.004.031-.004.059-.008q.058-.004.117-.008.119-.001.227.016c.149.023.277.07.383.125.223.106.367.242.473.363q.076.093.129.168c.031.051.063.106.082.145.024.039.027.059.035.078l.012.027c.086.223-.043.473-.285.559a.5.5 0 0 1-.492-.078zm0 0"/></g><path fill="url(#n)" d="M4.68 10.781c-.352-.453-.75-.676-.949-.371-.27.406.598.789.57 1.188-.004.109-.113.133-.16.082-.691-.777-1.281-1.547-1.289-1.555a.33.33 0 0 0-.469-.051c-.145.113-.148.297-.023.52.004.008.262.477 1.008 1.215.039.039.035.106-.004.145a.14.14 0 0 1-.18.02 5.3 5.3 0 0 1-1.387-1.492.336.336 0 0 0-.461-.109.33.33 0 0 0-.109.461c.031.047.535.93 1.563 1.68.055.043.07.121.039.18 0 0-.004 0-.004.004a.13.13 0 0 1-.18.043c-.832-.535-1.293-1.145-1.305-1.16a.335.335 0 0 0-.469-.059.333.333 0 0 0-.059.469c.035.047.594.789 1.594 1.387.047.031.094.094.035.188-.027.043-.109.047-.164.016-.602-.336-.727-.453-.895-.566-.164-.113-.336-.188-.512-.059-.106.078-.113.309.051.481.938 1.008 1.797 1.457 2.453 1.57.953.16 1.5-.223 1.887-.645 1.352-1.481-.426-3.379-.582-3.578zm0 0"/><path fill="#eb8f00" d="M2.59 10c.098 0 .195.043.262.125.008.008.598.777 1.289 1.555q.025.028.063.027c.047 0 .094-.035.098-.109.027-.399-.84-.781-.57-1.188q.096-.141.242-.141c.203 0 .469.203.707.512.156.199 1.934 2.098.586 3.578-.328.355-.766.684-1.461.684-.133 0-.273-.012-.43-.039-.656-.113-1.512-.563-2.453-1.566-.16-.176-.156-.402-.047-.484a.3.3 0 0 1 .191-.066c.106 0 .215.059.32.129.164.109.293.231.895.566q.034.019.074.02c.035 0 .07-.012.086-.039.059-.094.012-.156-.035-.184a6 6 0 0 1-1.594-1.387.335.335 0 0 1 .266-.539.33.33 0 0 1 .262.129c.012.012.473.625 1.309 1.156q.03.023.066.023c.047 0 .09-.023.113-.066.035-.063.02-.141-.035-.18-1.031-.754-1.535-1.633-1.566-1.684a.33.33 0 0 1 .109-.457.3.3 0 0 1 .176-.051c.109 0 .219.055.285.16.008.016.469.816 1.387 1.488q.036.028.078.027a.15.15 0 0 0 .102-.043v-.004c.035-.039.043-.102.004-.141-.746-.742-1.004-1.207-1.008-1.219-.125-.223-.125-.402.023-.52a.3.3 0 0 1 .207-.074m0-.375a.7.7 0 0 0-.66.461.68.68 0 0 0-.418-.137.7.7 0 0 0-.371.106.7.7 0 0 0-.316.438.69.69 0 0 0 .086.539q.012.024.035.055a.73.73 0 0 0-.575.61.7.7 0 0 0 .145.524c.055.066.152.188.293.34a1 1 0 0 0-.156.09.59.59 0 0 0-.227.422.8.8 0 0 0 .223.621c1.129 1.207 2.074 1.578 2.664 1.68q.258.047.492.047c.898 0 1.422-.461 1.734-.809.555-.606 1.227-1.938-.524-4.012q-.026-.03-.039-.047c-.234-.297-.598-.656-1.004-.656a.66.66 0 0 0-.559.309l-.012.02c-.129-.16-.219-.277-.254-.324l-.004-.004a.7.7 0 0 0-.555-.27zm0 0"/><path fill="#eb8f00" d="M4.141 13.625c-.691-.906-.301-1.574-.184-1.781.113-.207.301-.426.301-.426.109.172.195.316.094.508-.047.09-.617.707-.043 1.586.035.051.02.129-.02.156-.047.02-.117-.004-.149-.043zm0 0"/><path fill="url(#o)" d="M11.32 10.781c.352-.453.75-.676.949-.371.27.406-.598.789-.57 1.188.004.109.113.133.16.082.691-.777 1.281-1.547 1.289-1.555a.33.33 0 0 1 .469-.051c.145.113.148.297.023.52-.004.008-.262.477-1.008 1.215-.039.039-.035.106.004.145a.14.14 0 0 0 .18.02 5.3 5.3 0 0 0 1.387-1.492.336.336 0 0 1 .461-.109c.16.098.207.305.109.461-.031.047-.535.93-1.563 1.68a.146.146 0 0 0-.039.18s.004 0 .004.004a.13.13 0 0 0 .18.043c.832-.535 1.293-1.145 1.305-1.16a.335.335 0 0 1 .469-.059.333.333 0 0 1 .059.469 5.9 5.9 0 0 1-1.594 1.387c-.047.031-.094.094-.035.188.027.043.109.047.164.016.602-.336.727-.453.895-.566.164-.113.336-.188.512-.059.106.078.113.309-.051.481-.938 1.008-1.797 1.457-2.453 1.57-.953.16-1.5-.223-1.887-.645-1.352-1.481.426-3.379.582-3.578zm0 0"/><g fill="#eb8f00"><path d="M13.41 10c.074 0 .148.023.207.074.145.113.148.297.023.52-.004.008-.262.477-1.008 1.219-.039.039-.035.102.004.141a.13.13 0 0 0 .102.047.15.15 0 0 0 .078-.027 5.3 5.3 0 0 0 1.387-1.492.34.34 0 0 1 .461-.109c.16.098.207.305.109.461-.031.047-.535.93-1.563 1.68a.146.146 0 0 0-.039.18q.002-.001.004.004a.13.13 0 0 0 .109.063.2.2 0 0 0 .07-.02c.832-.535 1.293-1.145 1.305-1.16a.333.333 0 1 1 .528.41 5.9 5.9 0 0 1-1.594 1.387c-.047.031-.094.094-.035.188.016.023.051.035.086.035a.13.13 0 0 0 .078-.02c.602-.336.727-.453.895-.566.106-.07.211-.125.32-.125q.093-.002.191.066c.109.078.113.309-.051.481-.938 1.008-1.793 1.457-2.453 1.57a3 3 0 0 1-.426.035c-.695 0-1.137-.324-1.461-.68-1.348-1.481.43-3.379.582-3.578.242-.313.504-.512.711-.512.094 0 .18.043.242.141.27.402-.598.785-.574 1.188.004.074.055.105.098.105a.08.08 0 0 0 .063-.027 32 32 0 0 0 1.293-1.555.33.33 0 0 1 .258-.121m0-.375a.72.72 0 0 0-.555.266v.004l-.004.004c-.039.047-.129.164-.254.324l-.012-.02a.66.66 0 0 0-.559-.309c-.406 0-.77.359-1.004.656a.4.4 0 0 1-.039.047c-1.75 2.074-1.078 3.406-.524 4.012.313.348.836.809 1.734.809q.234 0 .492-.047c.59-.102 1.535-.473 2.664-1.68a.8.8 0 0 0 .223-.621.59.59 0 0 0-.227-.422.8.8 0 0 0-.156-.09c.141-.148.238-.27.289-.336a.712.712 0 0 0-.426-1.137c.016-.02.023-.039.035-.055a.7.7 0 0 0 .086-.539.7.7 0 0 0-.316-.441.74.74 0 0 0-.371-.102.7.7 0 0 0-.418.133.74.74 0 0 0-.219-.305.7.7 0 0 0-.441-.152zm0 0"/><path d="M11.859 13.625c.691-.906.301-1.574.184-1.781a3 3 0 0 0-.301-.426c-.109.172-.195.316-.094.508.047.09.617.707.043 1.586-.035.051-.02.129.02.156.047.02.117-.004.149-.043zm0 0"/></g></svg>