<svg xmlns="http://www.w3.org/2000/svg" width="16pt" height="16pt" viewBox="0 0 16 16"><defs><linearGradient id="a" x1="63.991" x2="63.991" y1="29.862" y2="110.91" gradientTransform="scale(.125)" gradientUnits="userSpaceOnUse"><stop offset=".076" style="stop-color:#792d85;stop-opacity:1"/><stop offset=".308" style="stop-color:#ac1cb3;stop-opacity:1"/><stop offset=".543" style="stop-color:#d90ddc;stop-opacity:1"/><stop offset=".725" style="stop-color:#f503f6;stop-opacity:1"/><stop offset=".831" style="stop-color:#f0f;stop-opacity:1"/></linearGradient></defs><path d="M2.39 5.555c-.066 0-.136-.008-.203-.016C1.398 4.59.847 2.641.935 1.098c1.347 1.37 2.879 2.16 4.203 2.16h.09c-.54 1.11-1.72 2.297-2.836 2.297m0 0" style="stroke:none;fill-rule:nonzero;fill:#873191;fill-opacity:1"/><path d="M1.18 1.684C2.36 2.75 3.645 3.39 4.813 3.492c-.567.942-1.551 1.813-2.422 1.813-.024 0-.047-.004-.067-.004-.633-.813-1.09-2.293-1.144-3.617M.934.848a.25.25 0 0 0-.25.234c-.094 1.645.488 3.629 1.32 4.621q.06.07.148.086c.082.008.16.016.239.016 1.203 0 2.468-1.223 3.062-2.442a.246.246 0 0 0-.223-.355h-.093c-1.414 0-2.899-.934-4.028-2.086A.25.25 0 0 0 .934.848m0 0" style="stroke:none;fill-rule:nonzero;fill:#6f21a1;fill-opacity:1"/><path d="M13.602 5.586c-1.118 0-2.293-1.188-2.836-2.3a1 1 0 0 0 .093.003c1.32 0 2.856-.785 4.204-2.16.085 1.543-.47 3.492-1.262 4.445-.063.004-.13.012-.2.012m0 0" style="stroke:none;fill-rule:nonzero;fill:#873191;fill-opacity:1"/><path d="M14.813 1.715c-.051 1.324-.512 2.805-1.141 3.617q-.036.005-.07.004c-.872 0-1.852-.871-2.422-1.813 1.168-.101 2.457-.742 3.633-1.808m.246-.836a.25.25 0 0 0-.176.074c-1.13 1.152-2.613 2.086-4.028 2.086h-.089a.247.247 0 0 0-.227.356c.594 1.218 1.856 2.44 3.063 2.44.078 0 .16-.007.238-.015a.24.24 0 0 0 .148-.086c.832-.992 1.414-2.976 1.32-4.62a.25.25 0 0 0-.25-.235m0 0" style="stroke:none;fill-rule:nonzero;fill:#6f21a1;fill-opacity:1"/><path d="M8 14.742c-3.074 0-6.379-1.922-6.379-6.14 0-4.223 3.305-6.145 6.379-6.145 1.703 0 3.277.563 4.438 1.586 1.265 1.121 1.937 2.695 1.937 4.559 0 1.851-.672 3.425-1.937 4.546-1.165 1.028-2.739 1.594-4.438 1.594m0 0" style="stroke:none;fill-rule:nonzero;fill:url(#a)"/><path d="M8 2.707c1.64 0 3.156.54 4.27 1.523 1.214 1.07 1.855 2.582 1.855 4.372 0 1.777-.64 3.289-1.855 4.359-1.114.988-2.633 1.531-4.27 1.531-1.648 0-3.164-.535-4.273-1.508-1.211-1.066-1.856-2.582-1.856-4.382 0-1.809.645-3.329 1.856-4.391C4.832 3.242 6.347 2.707 8 2.707m0-.5c-3.441 0-6.629 2.211-6.629 6.395 0 4.16 3.188 6.39 6.629 6.39 3.438 0 6.625-2.289 6.625-6.39 0-4.13-3.187-6.395-6.625-6.395m0 0" style="stroke:none;fill-rule:nonzero;fill:#6f21a1;fill-opacity:1"/><path d="M10.16 10.941c.152 0 .29.082.36.215.09.164.07.38-.06.57-.273.422-1.187 1.09-2.46 1.09s-2.184-.668-2.46-1.09c-.13-.19-.15-.406-.06-.57a.4.4 0 0 1 .36-.21q.075 0 .152.023c.606.187 1.301.289 2.012.289.703 0 1.394-.102 2-.29a.5.5 0 0 1 .156-.027M6.887 9.027a.35.35 0 0 1-.235-.09c-.375-.316-1.593-.988-2.043-1.21a.36.36 0 0 1-.207-.415.36.36 0 0 1 .348-.285q.047-.001.094.016c.164.039.328.098.48.168.418.195 1.57.875 1.852 1.226.09.114.105.254.043.383a.37.37 0 0 1-.332.207M9.113 9.027a.35.35 0 0 0 .235-.09c.375-.316 1.593-.988 2.043-1.21a.36.36 0 0 0 .207-.415.36.36 0 0 0-.348-.285.3.3 0 0 0-.094.016c-.164.039-.328.098-.48.168-.418.195-1.57.875-1.852 1.226a.35.35 0 0 0-.043.383.37.37 0 0 0 .332.207m0 0" style="stroke:none;fill-rule:nonzero;fill:#242424;fill-opacity:1"/><path d="M5.035 9.23c0 .536.418.973.938.973.515 0 .937-.437.937-.973v-.183c0-.535-.422-.969-.937-.969-.52 0-.938.434-.938.969ZM9.09 9.23c0 .536.422.973.937.973.52 0 .938-.437.938-.973v-.183c0-.535-.418-.969-.938-.969-.515 0-.937.434-.937.969Zm0 0" style="stroke:none;fill-rule:nonzero;fill:#242424;fill-opacity:1"/></svg>