<svg xmlns="http://www.w3.org/2000/svg" xmlns:xlink="http://www.w3.org/1999/xlink" width="16pt" height="16pt" viewBox="0 0 16 16"><defs><linearGradient id="c" x1="4.111" x2="123.89" y1="64" y2="64" gradientTransform="scale(.125)" gradientUnits="userSpaceOnUse"><stop offset=".001" style="stop-color:#81d4fa;stop-opacity:1"/><stop offset="1" style="stop-color:#29b6f6;stop-opacity:1"/></linearGradient><linearGradient id="d" x1="63.599" x2="63.599" y1="123.89" y2="36.003" gradientTransform="scale(.125)" gradientUnits="userSpaceOnUse"><stop offset="0" style="stop-color:#81d4fa;stop-opacity:1"/><stop offset=".221" style="stop-color:#7dd3fa;stop-opacity:1"/><stop offset=".431" style="stop-color:#72cff9;stop-opacity:1"/><stop offset=".638" style="stop-color:#5ec8f8;stop-opacity:1"/><stop offset=".841" style="stop-color:#44bff7;stop-opacity:1"/><stop offset="1" style="stop-color:#29b6f6;stop-opacity:1"/></linearGradient><linearGradient id="e" x1="93.897" x2="93.897" y1="123.91" y2="36" gradientTransform="scale(.125)" gradientUnits="userSpaceOnUse"><stop offset="0" style="stop-color:#039be5;stop-opacity:1"/><stop offset=".369" style="stop-color:#0398e2;stop-opacity:1"/><stop offset=".638" style="stop-color:#0390d9;stop-opacity:1"/><stop offset=".874" style="stop-color:#0282c9;stop-opacity:1"/><stop offset="1" style="stop-color:#0277bd;stop-opacity:1"/></linearGradient><linearGradient id="f" x1="33.944" x2="33.944" y1="123.91" y2="35.968" gradientTransform="scale(.125)" gradientUnits="userSpaceOnUse"><stop offset="0" style="stop-color:#29b6f6;stop-opacity:1"/><stop offset=".331" style="stop-color:#25b3f4;stop-opacity:1"/><stop offset=".646" style="stop-color:#1aabef;stop-opacity:1"/><stop offset=".954" style="stop-color:#079ee7;stop-opacity:1"/><stop offset="1" style="stop-color:#039be5;stop-opacity:1"/></linearGradient><linearGradient id="g" x1="29.51" x2="21.783" y1="5.457" y2="36.366" gradientTransform="scale(.125)" gradientUnits="userSpaceOnUse"><stop offset=".005" style="stop-color:#b3e5fc;stop-opacity:1"/><stop offset="1" style="stop-color:#4fc3f7;stop-opacity:1"/></linearGradient><linearGradient id="h" x1="105.87" x2="105.87" y1="7.06" y2="37.027" gradientTransform="scale(.125)" gradientUnits="userSpaceOnUse"><stop offset=".009" style="stop-color:#81d4fa;stop-opacity:1"/><stop offset="1" style="stop-color:#29b6f6;stop-opacity:1"/></linearGradient><linearGradient id="i" x1="63.644" x2="63.644" y1="6.738" y2="35.715" gradientTransform="scale(.125)" gradientUnits="userSpaceOnUse"><stop offset="0" style="stop-color:#e1f5fe;stop-opacity:1"/><stop offset=".275" style="stop-color:#d3f0fd;stop-opacity:1"/><stop offset="1" style="stop-color:#b3e5fc;stop-opacity:1"/></linearGradient><linearGradient id="j" x1="47.868" x2="47.868" y1="4.484" y2="37.34" gradientTransform="scale(.125)" gradientUnits="userSpaceOnUse"><stop offset=".009" style="stop-color:#81d4fa;stop-opacity:1"/><stop offset="1" style="stop-color:#29b6f6;stop-opacity:1"/></linearGradient><linearGradient id="k" x1="63.736" x2="96" y1="20.023" y2="20.023" gradientTransform="scale(.125)" gradientUnits="userSpaceOnUse"><stop offset=".011" style="stop-color:#4fc3f7;stop-opacity:1"/><stop offset="1" style="stop-color:#29b6f6;stop-opacity:1"/></linearGradient><clipPath id="b"><path d="M0 0h16v16H0z"/></clipPath><filter id="a" width="100%" height="100%" x="0%" y="0%" filterUnits="objectBoundingBox"><feColorMatrix in="SourceGraphic" values="0 0 0 0 1 0 0 0 0 1 0 0 0 0 1 0 0 0 1 0"/></filter><mask id="l"><g filter="url(#a)"><path d="M0 0h16v16H0z" style="fill:#000;fill-opacity:.2;stroke:none"/></g></mask><g id="m" clip-path="url(#b)"><path d="m11.832.875 3.191 3.648-7.05 10.305L.969 4.523 4.172.875zM12.004.5H4L.5 4.492v.004l.004.008 7.469 10.988 7.52-10.988.007-.004v-.004Zm0 0" style="stroke:none;fill-rule:nonzero;fill:#424242;fill-opacity:1"/></g></defs><path d="m7.98 15.48 7.512-10.976h.008V4.5l-3.496-4H4L.5 4.492v.004l.004.008 7.426 10.93.043.054zl-.027-.105Zm0 0" style="stroke:none;fill-rule:nonzero;fill:#81d4fa;fill-opacity:1"/><path d="M7.973 15.492.516 4.504 4 .508h8.004l3.48 3.996Zm0 0" style="stroke:none;fill-rule:nonzero;fill:url(#c)"/><path d="M7.973 15.484 10.945 4.5l-5.988.008Zm0 0" style="stroke:none;fill-rule:nonzero;fill:url(#d)"/><path d="M10.945 4.5h.047l-.035-.047Zm0 0" style="stroke:none;fill-rule:nonzero;fill:#81d4fa;fill-opacity:1"/><path d="M15.5 4.504 10.95 4.5 7.972 15.488Zm0 0" style="stroke:none;fill-rule:nonzero;fill:url(#e)"/><path d="m4.984 4.574-.109.145zl-.024-.078H.52l-.004.008 7.457 10.984Zm0 0" style="stroke:none;fill-rule:nonzero;fill:url(#f)"/><path d="M5 4.5 4 .512.469 4.508Zm0 0" style="stroke:none;fill-rule:nonzero;fill:url(#g)"/><path d="m10.969 4.5 1-3.988L15.5 4.508Zm0 0" style="stroke:none;fill-rule:nonzero;fill:url(#h)"/><path d="m4.969 4.5 3-3.996L10.945 4.5Zm0 0" style="stroke:none;fill-rule:nonzero;fill:url(#i)"/><path d="M8 .504 5 4.508 3.969.5Zm0 0" style="stroke:none;fill-rule:nonzero;fill:url(#j)"/><path d="m7.969.504 3 4.004L12 .5Zm0 0" style="stroke:none;fill-rule:nonzero;fill:url(#k)"/><use xlink:href="#m" mask="url(#l)"/></svg>