<svg xmlns="http://www.w3.org/2000/svg" width="16pt" height="16pt" viewBox="0 0 16 16"><defs><linearGradient id="a" x1="64" x2="64" y1="19.717" y2="107.7" gradientTransform="scale(.125)" gradientUnits="userSpaceOnUse"><stop offset=".566" style="stop-color:#f6a323;stop-opacity:1"/><stop offset=".917" style="stop-color:#fee133;stop-opacity:1"/></linearGradient></defs><path d="M8 14.984C4.508 14.984.75 12.801.75 8 .75 3.2 4.508 1.016 8 1.016c1.934 0 3.727.636 5.047 1.8C14.488 4.09 15.25 5.883 15.25 8c0 2.11-.762 3.895-2.203 5.172C11.723 14.344 9.93 14.984 8 14.984m0 0" style="stroke:none;fill-rule:nonzero;fill:url(#a)"/><path d="M8 1.266c1.875 0 3.61.617 4.879 1.738C14.266 4.23 15 5.957 15 8c0 2.035-.734 3.758-2.121 4.984-1.277 1.13-3.008 1.75-4.879 1.75-1.879 0-3.613-.613-4.879-1.726C1.734 11.789 1 10.058 1 8c0-2.066.734-3.8 2.121-5.02C4.383 1.875 6.117 1.266 8 1.266m0-.5C4.105.766.5 3.266.5 8c0 4.71 3.605 7.234 7.5 7.234s7.5-2.59 7.5-7.234C15.5 3.328 11.895.766 8 .766m0 0" style="stroke:none;fill-rule:nonzero;fill:#eb8f00;fill-opacity:1"/><path d="M8 10.895c1.352 0 2.23.988 2.457 1.445.086.176.09.324.016.39-.055.051-.149.051-.258.004a1 1 0 0 1-.113-.066 3.7 3.7 0 0 0-2.106-.676c-.762 0-1.504.258-2.098.676-.035.027-.074.047-.109.066-.11.047-.207.051-.262-.004-.074-.066-.07-.214.02-.39.223-.453 1.101-1.445 2.453-1.445M9.3 8.46c-.198.188-.167.505.063.669.297.21.727.469 1.211.601.485.133.985.13 1.348.098.285-.023.473-.281.394-.543a.49.49 0 0 0-.511-.332c-.274.024-.653.027-1-.066-.348-.094-.668-.293-.895-.453a.49.49 0 0 0-.61.027M6.7 8.46c.198.188.167.505-.063.669-.297.21-.727.469-1.211.601-.485.133-.985.13-1.348.098-.285-.023-.473-.281-.394-.543a.49.49 0 0 1 .511-.332c.274.024.653.027 1-.066.348-.094.668-.293.895-.453a.49.49 0 0 1 .61.027m0 0" style="stroke:none;fill-rule:nonzero;fill:#242424;fill-opacity:1"/></svg>