<svg xmlns="http://www.w3.org/2000/svg" width="16pt" height="16pt" viewBox="0 0 16 16"><defs><clipPath id="b"><path d="M1 7h14v9H1Zm0 0"/></clipPath><clipPath id="c"><path d="M14.531 8.637c0 3.633-3.636 6.515-6.531 6.515-2.953 0-6.531-2.882-6.531-6.515C1.469 5 3.824 2.05 8 2.05S14.531 5 14.531 8.637m0 0"/></clipPath><clipPath id="f"><path d="M6 12h4v4H6Zm0 0"/></clipPath><clipPath id="g"><path d="M9.25 12.828c0 .625.125 2.242-1.25 2.242s-1.375-1.617-1.375-2.242v-.195c0-.625.508-1.133 1.133-1.133h.36c.624 0 1.132.508 1.132 1.133Zm0 0"/></clipPath><linearGradient id="a" x1="64.131" x2="64.131" y1="18.892" y2="120.48" gradientTransform="scale(.125)" gradientUnits="userSpaceOnUse"><stop offset="0" style="stop-color:#ffc559;stop-opacity:1"/><stop offset=".999" style="stop-color:#d47500;stop-opacity:1"/></linearGradient><linearGradient id="d" x1="64" x2="64" y1="75.89" y2="120.59" gradientTransform="scale(.125)" gradientUnits="userSpaceOnUse"><stop offset=".158" style="stop-color:#fff8e1;stop-opacity:1"/><stop offset=".707" style="stop-color:#d8d3bf;stop-opacity:1"/><stop offset="1" style="stop-color:#c9c4b2;stop-opacity:1"/></linearGradient><linearGradient id="e" x1="64" x2="64" y1="93.235" y2="75.832" gradientTransform="scale(.125)" gradientUnits="userSpaceOnUse"><stop offset="0" style="stop-color:#000;stop-opacity:1"/><stop offset=".355" style="stop-color:#262626;stop-opacity:1"/><stop offset=".837" style="stop-color:#575757;stop-opacity:1"/></linearGradient></defs><path d="M2.816.828q.308 0 .743.332L5.062 2.3h.004c.801-.241 2.95-.331 2.95-.331 1.164.004 2.125.14 2.914.379h.008l1.503-1.141c.286-.223.536-.332.739-.332.34 0 .55.297.574.848l.316 3.586c.242.71.36 1.507.403 2.351q.058.474.058.973c0 3.637-3.64 6.515-6.531 6.515-2.957 0-6.535-2.878-6.535-6.515q.001-.474.055-.93c.039-.879.156-1.703.406-2.441l.316-3.59c.028-.547.235-.844.574-.844m0-.371c-.207 0-.89.09-.945 1.191l-.308 3.536c-.235.699-.368 1.515-.41 2.488a8 8 0 0 0-.055.96c0 1.794.808 3.532 2.273 4.895C4.715 14.777 6.445 15.52 8 15.52c3.129 0 6.902-3.07 6.902-6.887 0-.336-.02-.676-.058-1.004-.047-.938-.184-1.723-.406-2.395L14.125 1.7C14.07.59 13.391.508 13.184.508q-.446.001-.97.406L10.86 1.941c-.808-.222-1.765-.34-2.843-.34H8c-.082.004-1.93.079-2.855.297L3.78.863C3.437.598 3.113.457 2.816.457m0 0" style="stroke:none;fill-rule:nonzero;fill:#d3914f;fill-opacity:1"/><path d="m14.086 5.309-.313-3.586c-.043-.883-.554-1.11-1.316-.516l-1.504 1.14h-.004c-.793-.242-1.754-.374-2.918-.378 0 0-2.148.09-2.949.332h-.004L3.574 1.16c-.761-.595-1.273-.368-1.316.515l-.313 3.586v.004c-.304.882-.41 1.894-.425 2.968-.04 3.63 2.859 6.711 6.48 6.739v.007c3.637-.011 6.55-3.058 6.512-6.699-.012-1.078-.121-2.086-.426-2.972m0 0" style="stroke:none;fill-rule:nonzero;fill:url(#a)"/><g clip-path="url(#b)"><g clip-path="url(#c)"><path d="M13.621 7.625c-.664-.14-1.8-.023-2.379 1.828-.125.402-.52.883-.914.895-.789.015-.95-.95-2.351-.95-1.403 0-1.508.965-2.293.95-.399-.012-.805-.493-.93-.895-.578-1.851-1.715-1.969-2.379-1.828-2.836.61-.613 4.824.5 6.016 2.66 2.843 7.516 2.925 10.258 0 1.113-1.192 3.324-5.407.488-6.016m0 0" style="stroke:none;fill-rule:nonzero;fill:url(#d)"/></g></g><path d="M6.25 7.563c0-.52-.363-.938-.812-.938s-.813.418-.813.938c0 .519.363.937.813.937s.812-.418.812-.937M11.375 7.563c0-.52-.363-.938-.812-.938s-.813.418-.813.938c0 .519.363.937.813.937s.812-.418.812-.937m0 0" style="stroke:none;fill-rule:nonzero;fill:#000;fill-opacity:1"/><path d="M8.035 11.695c-.601 0-1.41-.457-1.41-1.015v-.028c0-.558.55-1.152 1.156-1.152h.438c.605 0 1.156.594 1.156 1.152v.016c0 .559-.734 1.027-1.34 1.027m0 0" style="stroke:none;fill-rule:nonzero;fill:url(#e)"/><path d="M11.46 11.266c-.01-.024-.042-.04-.097-.04-.156.004-.246.133-.332.227q-.115.131-.23.262c-.211.23-.465.406-.762.543-.644.297-.945.195-.945.195-.102-.031-.211-.043-.313-.082-.261-.101-.46-.234-.765-.238a1.2 1.2 0 0 0-.555.125c-.172.086-.344.172-.547.199 0 0-.293.102-.934-.195a2.5 2.5 0 0 1-.66-.434c-.18-.172-.316-.371-.508-.531a.4.4 0 0 0-.101-.067c-.055-.02-.133-.011-.164.036-.031.05 0 .105.027.156.344.625 1.188 2.781 3.426 2.781 2.242 0 3.07-2.137 3.426-2.785.027-.05.054-.113.035-.152m0 0" style="stroke:none;fill-rule:nonzero;fill:#000;fill-opacity:1"/><g clip-path="url(#f)"><g clip-path="url(#g)"><path d="M5.82 13.887c0-.684 1.004-1.418 2.239-1.418 1.238 0 2.242.734 2.242 1.418s-1.004 1.238-2.242 1.238c-1.235 0-2.239-.555-2.239-1.238m0 0" style="stroke:none;fill-rule:nonzero;fill:#ff8282;fill-opacity:1"/></g></g><path d="m3.188 1.5 1.062.863a.252.252 0 0 1-.055.426l-1.105.504a.254.254 0 0 1-.356-.238l.043-1.368c.008-.207.25-.32.41-.187M12.813 1.5l-1.063.863a.252.252 0 0 0 .055.426l1.105.504c.168.074.36-.05.356-.238l-.043-1.368c-.008-.207-.25-.32-.41-.187m0 0" style="stroke:none;fill-rule:nonzero;fill:#fff5b5;fill-opacity:1"/></svg>