<svg xmlns="http://www.w3.org/2000/svg" width="16pt" height="16pt" viewBox="0 0 16 16"><defs><clipPath id="b"><path d="M2 4h4v3H2Zm0 0"/></clipPath><clipPath id="c"><path d="M7.605 6.945a2.914 2.914 0 1 1-5.828 0 2.914 2.914 0 0 1 5.828 0m0 0"/></clipPath><clipPath id="d"><path d="M9 4h3v3H9Zm0 0"/></clipPath><clipPath id="e"><path d="M14.316 6.945a2.915 2.915 0 0 1-2.918 2.914 2.914 2.914 0 0 1 0-5.828 2.915 2.915 0 0 1 2.918 2.914m0 0"/></clipPath><linearGradient id="a" x1="64" x2="64" y1="19.717" y2="107.7" gradientTransform="scale(.125)" gradientUnits="userSpaceOnUse"><stop offset=".349" style="stop-color:#fee133;stop-opacity:1"/><stop offset=".489" style="stop-color:#fddd32;stop-opacity:1"/><stop offset=".629" style="stop-color:#fcd12f;stop-opacity:1"/><stop offset=".769" style="stop-color:#f9bd2a;stop-opacity:1"/><stop offset=".9" style="stop-color:#f6a323;stop-opacity:1"/></linearGradient></defs><path d="M8 14.984C4.508 14.984.75 12.801.75 8 .75 3.2 4.508 1.016 8 1.016c1.934 0 3.727.636 5.047 1.8C14.488 4.09 15.25 5.883 15.25 8c0 2.11-.762 3.895-2.203 5.172C11.723 14.344 9.93 14.984 8 14.984m0 0" style="stroke:none;fill-rule:nonzero;fill:url(#a)"/><path d="M8 1.266c1.875 0 3.61.617 4.879 1.738C14.266 4.23 15 5.957 15 8c0 2.035-.734 3.758-2.121 4.984-1.277 1.13-3.008 1.75-4.879 1.75-1.879 0-3.613-.613-4.879-1.726C1.734 11.789 1 10.058 1 8c0-2.066.734-3.8 2.121-5.02C4.383 1.875 6.117 1.266 8 1.266m0-.5C4.105.766.5 3.266.5 8c0 4.71 3.605 7.234 7.5 7.234s7.5-2.59 7.5-7.234C15.5 3.328 11.895.766 8 .766m0 0" style="stroke:none;fill-rule:nonzero;fill:#eb8f00;fill-opacity:1"/><path d="M7.605 6.945a2.914 2.914 0 1 1-5.828 0 2.914 2.914 0 0 1 5.828 0m0 0" style="stroke:none;fill-rule:nonzero;fill:#fff;fill-opacity:1"/><g clip-path="url(#b)"><g clip-path="url(#c)"><path d="M5.055 5.063a1.139 1.139 0 1 1-2.278 0 1.14 1.14 0 1 1 2.278 0m0 0" style="stroke:none;fill-rule:nonzero;fill:#242424;fill-opacity:1"/></g></g><path d="M4.691 4.531a2.416 2.416 0 0 1 2.414 2.414A2.416 2.416 0 0 1 4.691 9.36a2.416 2.416 0 0 1-2.414-2.414 2.416 2.416 0 0 1 2.414-2.414m0-.5a2.914 2.914 0 1 0 0 5.828 2.914 2.914 0 0 0 0-5.828m0 0" style="stroke:none;fill-rule:nonzero;fill:#eb8f00;fill-opacity:1"/><path d="M14.316 6.945a2.915 2.915 0 0 1-2.918 2.914 2.914 2.914 0 0 1 0-5.828 2.915 2.915 0 0 1 2.918 2.914m0 0" style="stroke:none;fill-rule:nonzero;fill:#fff;fill-opacity:1"/><g clip-path="url(#d)"><g clip-path="url(#e)"><path d="M11.766 5.063a1.142 1.142 0 0 1-2.281 0c0-.63.511-1.141 1.14-1.141s1.14.512 1.14 1.14m0 0" style="stroke:none;fill-rule:nonzero;fill:#242424;fill-opacity:1"/></g></g><path d="M11.398 4.531a2.416 2.416 0 0 1 2.418 2.414 2.42 2.42 0 0 1-2.418 2.414 2.42 2.42 0 0 1-2.414-2.414 2.416 2.416 0 0 1 2.414-2.414m0-.5a2.914 2.914 0 0 0 0 5.828 2.915 2.915 0 1 0 0-5.828m0 0" style="stroke:none;fill-rule:nonzero;fill:#eb8f00;fill-opacity:1"/><path d="M6.582 12.957a.29.29 0 0 1-.281-.09c-.086-.101-.102-.254-.047-.402.129-.332.656-.93 1.527-1.125.875-.192 1.606.129 1.86.379.117.113.164.258.125.383a.28.28 0 0 1-.22.203.3.3 0 0 1-.105.004c-.445-.04-.937 0-1.425.105a4.7 4.7 0 0 0-1.332.504.4.4 0 0 1-.102.039m0 0" style="stroke:none;fill-rule:nonzero;fill:#242424;fill-opacity:1"/></svg>