<svg xmlns="http://www.w3.org/2000/svg" xmlns:xlink="http://www.w3.org/1999/xlink" width="16pt" height="16pt" viewBox="0 0 16 16"><defs><clipPath id="b"><path d="M0 0h16v16H0z"/></clipPath><clipPath id="c"><path d="M0 0h16v16H0z"/></clipPath><clipPath id="d"><path d="M0 0h16v16H0z"/></clipPath><clipPath id="e"><path d="M0 0h16v16H0z"/></clipPath><mask id="h"><g filter="url(#a)"><path d="M0 0h16v16H0z" style="fill:#000;fill-opacity:.2;stroke:none"/></g></mask><mask id="j"><g filter="url(#a)"><path d="M0 0h16v16H0z" style="fill:#000;fill-opacity:.2;stroke:none"/></g></mask><mask id="l"><g filter="url(#a)"><path d="M0 0h16v16H0z" style="fill:#000;fill-opacity:.2;stroke:none"/></g></mask><mask id="o"><g filter="url(#a)"><path d="M0 0h16v16H0z" style="fill:#000;fill-opacity:.2;stroke:none"/></g></mask><g id="i" clip-path="url(#b)"><path d="M15.098 8.227c.011.445.027 1.171.027 1.421 0 1.243-.61 2.391-1.715 3.23-1.281.974-3.152 1.49-5.41 1.49s-4.129-.516-5.41-1.49C1.484 12.04.875 10.892.875 9.649c0-.25.012-.972.016-1.421Zm.367-.375H.523S.5 9.27.5 9.648c0 2.618 2.469 5.094 7.5 5.094s7.5-2.476 7.5-5.094c0-.378-.035-1.796-.035-1.796m0 0" style="stroke:none;fill-rule:nonzero;fill:#434343;fill-opacity:1"/></g><g id="k" clip-path="url(#c)"><path d="M15.5 7.078c0-2.617-3.36-4.738-7.5-4.738C3.883 2.34.543 4.434.504 7.027c0 .078-.02 1.403.027 1.965.024.281.43 1.82 1.219 1.63 2.313-.563 2.395 1.468 3.93 1.593 1.754.144 1.758-1.047 3.07-1.094 1.824-.066 2.238 1.098 3.723.781 1.328-.28 1.28-2.238 1.925-1.972.696.285 1.059-.332 1.059-.332s.043-1.766.043-2.52M7.96 3.906c3.353 0 3.435 1.645 3.435 2.657 0 1.011-1.813 1.578-3.434 1.578s-3.434-.567-3.434-1.578c0-1.008.082-2.657 3.434-2.657m0 0" style="stroke:none;fill-rule:nonzero;fill:#4e352e;fill-opacity:1"/></g><g id="m" clip-path="url(#d)"><path d="M8 4.05c1.555 0 3.137.516 4.46 1.45 1.02.723 1.83 1.645 2.278 2.598H9.762c.543-.274.875-.676.875-1.141 0-.863-1.149-1.516-2.676-1.516-1.524 0-2.672.653-2.672 1.516 0 .465.332.867.875 1.14H1.266C1.71 7.146 2.52 6.224 3.539 5.5 4.863 4.566 6.445 4.05 8 4.05m0-.374c-3.54 0-6.504 2.449-7.293 4.797h14.586C14.503 6.125 11.539 3.676 8 3.676m-.04 4.422c-1.269 0-2.296-.512-2.296-1.141s1.027-1.14 2.297-1.14 2.3.511 2.3 1.14-1.03 1.14-2.3 1.14m0 0" style="stroke:none;fill-rule:nonzero;fill:#434343;fill-opacity:1"/></g><g id="p" clip-path="url(#e)"><path d="M7.996 2.336c1.934 0 3.746.473 5.106 1.332 1.3.82 2.02 1.898 2.02 3.031 0 .625-.024 1.953-.032 2.371-.074.078-.203.184-.328.184a.3.3 0 0 1-.102-.02.8.8 0 0 0-.332-.074c-.508 0-.738.469-.957.922-.23.477-.465.969-.98 1.078a2 2 0 0 1-.414.043c-.41 0-.739-.152-1.118-.332-.504-.238-1.078-.508-1.968-.508-.051 0-.102.004-.157.004-.707.024-1.105.332-1.46.602-.356.27-.665.504-1.317.504q-.119 0-.25-.012c-.5-.04-.816-.348-1.184-.703-.48-.465-1.023-.992-2.03-.992q-.39.002-.837.109-.016.005-.027.004c-.207 0-.55-.613-.711-1.277-.02-.754-.043-1.864-.043-1.95.04-2.379 3.234-4.316 7.121-4.316m0-.375C3.88 1.96.54 4.055.5 6.652c0 .075.043 2 .043 2s.375 1.606 1.086 1.606c.039 0 .074-.004.117-.016.281-.066.527-.097.75-.097 1.606 0 1.832 1.582 3.18 1.69q.152.018.281.017c1.477 0 1.55-1.063 2.79-1.11.05 0 .097-.004.144-.004 1.492 0 2.007.84 3.086.84.152 0 .312-.015.492-.055 1.222-.257 1.222-1.988 1.86-1.988a.4.4 0 0 1 .183.043c.086.035.172.05.25.05.41 0 .699-.421.699-.421s.035-1.75.035-2.508c0-2.617-3.355-4.738-7.5-4.738m0 0" style="stroke:none;fill-rule:nonzero;fill:#434343;fill-opacity:1"/></g><radialGradient id="g" cx="54.048" cy="102.3" r="59.884" fx="54.048" fy="102.3" gradientTransform="matrix(.125 0 0 .05922 0 6.73)" gradientUnits="userSpaceOnUse"><stop offset=".001" style="stop-color:#faa629;stop-opacity:1"/><stop offset=".251" style="stop-color:#faa327;stop-opacity:1"/><stop offset=".496" style="stop-color:#f99b23;stop-opacity:1"/><stop offset=".738" style="stop-color:#f78d1f;stop-opacity:1"/><stop offset=".751" style="stop-color:#f78c1e;stop-opacity:1"/></radialGradient><radialGradient id="n" cx="63.661" cy="47.552" r="51.811" fx="63.661" fy="47.552" gradientTransform="matrix(.125 0 0 .06889 0 2.668)" gradientUnits="userSpaceOnUse"><stop offset="0" style="stop-color:#8d6e63;stop-opacity:1"/><stop offset=".353" style="stop-color:#795649;stop-opacity:1"/><stop offset=".524" style="stop-color:#775447;stop-opacity:1"/><stop offset=".691" style="stop-color:#6e4d42;stop-opacity:1"/><stop offset=".857" style="stop-color:#61433a;stop-opacity:1"/><stop offset=".895" style="stop-color:#5d4137;stop-opacity:1"/></radialGradient><linearGradient id="f" x1="64" x2="64" y1="28.939" y2="75.018" gradientTransform="scale(.125)" gradientUnits="userSpaceOnUse"><stop offset="0" style="stop-color:#f8981d;stop-opacity:1"/><stop offset=".191" style="stop-color:#f8951d;stop-opacity:1"/><stop offset=".378" style="stop-color:#f68d1e;stop-opacity:1"/><stop offset=".562" style="stop-color:#f47f20;stop-opacity:1"/><stop offset=".59" style="stop-color:#f47c20;stop-opacity:1"/></linearGradient><filter id="a" width="100%" height="100%" x="0%" y="0%" filterUnits="objectBoundingBox"><feColorMatrix in="SourceGraphic" values="0 0 0 0 1 0 0 0 0 1 0 0 0 0 1 0 0 0 1 0"/></filter></defs><path d="M.5 6.93h1.438v3.097H.5ZM14.063 6.93H15.5v3.097h-1.437Zm0 0" style="stroke:none;fill-rule:nonzero;fill:#fbac35;fill-opacity:1"/><path d="M8 3.676c-3.54 0-6.504 2.449-7.293 4.797h14.586C14.503 6.125 11.539 3.676 8 3.676m-.04 4.422c-1.269 0-2.296-.512-2.296-1.141s1.027-1.14 2.297-1.14 2.3.511 2.3 1.14-1.03 1.14-2.3 1.14m0 0" style="stroke:none;fill-rule:nonzero;fill:url(#f)"/><path d="M.707 8.473A3.8 3.8 0 0 0 .5 9.648c0 2.618 2.469 5.094 7.5 5.094s7.5-2.476 7.5-5.094a3.8 3.8 0 0 0-.207-1.175Zm0 0" style="stroke:none;fill-rule:nonzero;fill:url(#g)"/><use xlink:href="#i" mask="url(#h)"/><use xlink:href="#k" mask="url(#j)"/><use xlink:href="#m" mask="url(#l)"/><path d="M15.5 6.7c0-2.618-3.36-4.74-7.5-4.74C3.883 1.96.543 4.056.504 6.649c0 .079-.02 1.403.027 1.965.024.282.43 1.82 1.219 1.63 2.313-.563 2.395 1.468 3.93 1.593 1.754.144 1.758-1.047 3.07-1.094 1.824-.066 2.238 1.098 3.723.781 1.328-.28 1.28-2.238 1.925-1.972.696.285 1.059-.332 1.059-.332s.043-1.766.043-2.52M7.96 4.354c1.622 0 2.935.82 2.935 1.829 0 1.011-1.313 1.582-2.934 1.582s-2.934-.57-2.934-1.582c0-1.008 1.313-1.829 2.934-1.829m0 0" style="stroke:none;fill-rule:nonzero;fill:url(#n)"/><path d="m5.316 3.887-.78-.297a.29.29 0 0 1-.169-.371.285.285 0 0 1 .371-.164l.782.297a.285.285 0 0 1 .164.37.28.28 0 0 1-.368.165m0 0" style="stroke:none;fill-rule:nonzero;fill:#84d2f6;fill-opacity:1"/><path d="m6.242 10.973-.734-.403a.29.29 0 0 1-.113-.39.287.287 0 0 1 .39-.11l.73.403a.28.28 0 0 1 .114.386.28.28 0 0 1-.387.114m0 0" style="stroke:none;fill-rule:nonzero;fill:#ec407a;fill-opacity:1"/><path d="m3.52 9.469-.79.273a.286.286 0 1 1-.187-.539l.789-.277a.285.285 0 0 1 .363.18.28.28 0 0 1-.175.363M12.633 10.113l-.672.5a.28.28 0 0 1-.399-.058.28.28 0 0 1 .06-.399l.667-.5a.286.286 0 1 1 .344.457m0 0" style="stroke:none;fill-rule:nonzero;fill:#44b3e6;fill-opacity:1"/><path d="m14.566 7.727-.074.644a.22.22 0 0 1-.242.191.224.224 0 0 1-.191-.242l.078-.644a.214.214 0 0 1 .242-.192.22.22 0 0 1 .187.243M1.148 7.727l.465.613a.16.16 0 0 1-.031.219l-.098.074a.15.15 0 0 1-.218-.031L.8 7.984C.75 7.918.766 7.82.832 7.766l.098-.07a.15.15 0 0 1 .218.03m0 0" style="stroke:none;fill-rule:nonzero;fill:#ec407a;fill-opacity:1"/><path d="m11.738 3.977-.781-.301a.284.284 0 0 1-.164-.371.29.29 0 0 1 .371-.164l.781.3a.29.29 0 0 1 .164.368.29.29 0 0 1-.37.168m0 0" style="stroke:none;fill-rule:nonzero;fill:#84d2f6;fill-opacity:1"/><path d="m14.07 4.938-.62.453a.287.287 0 0 1-.34-.46l.624-.454a.283.283 0 0 1 .399.062.283.283 0 0 1-.063.399M8.578 3.11l-.656.12A.287.287 0 0 1 7.59 3a.29.29 0 0 1 .23-.336l.657-.117a.28.28 0 0 1 .332.226.29.29 0 0 1-.23.336m0 0" style="stroke:none;fill-rule:nonzero;fill:#f48fb1;fill-opacity:1"/><path d="m10.219 8.39.246-.73a.287.287 0 0 1 .543.184l-.246.73a.287.287 0 0 1-.364.18.29.29 0 0 1-.18-.363m0 0" style="stroke:none;fill-rule:nonzero;fill:#f06392;fill-opacity:1"/><path d="m2.746 5.137-.625.453a.283.283 0 0 1-.398-.063.283.283 0 0 1 .062-.398l.621-.453a.287.287 0 0 1 .403.062.29.29 0 0 1-.063.399M3.988 7.14l-.73-.238a.28.28 0 0 1-.184-.359.28.28 0 0 1 .36-.184l.734.239c.148.05.23.21.18.363a.284.284 0 0 1-.36.18m0 0" style="stroke:none;fill-rule:nonzero;fill:#f48fb1;fill-opacity:1"/><path d="m7.043 8.738-.77.004a.285.285 0 1 1-.003-.57l.77-.004c.16-.004.288.125.288.285a.287.287 0 0 1-.285.285M12.691 7.078l-.73-.238a.28.28 0 0 1-.184-.36.286.286 0 0 1 .364-.183l.73.238c.149.05.23.211.18.363a.283.283 0 0 1-.36.18m0 0" style="stroke:none;fill-rule:nonzero;fill:#84d2f6;fill-opacity:1"/><use xlink:href="#p" mask="url(#o)"/></svg>