<svg xmlns="http://www.w3.org/2000/svg" xmlns:xlink="http://www.w3.org/1999/xlink" width="16pt" height="16pt" viewBox="0 0 16 16"><defs><clipPath id="b"><path d="M0 0h16v16H0z"/></clipPath><clipPath id="c"><path d="M0 0h16v16H0z"/></clipPath><clipPath id="d"><path d="M0 0h16v16H0z"/></clipPath><mask id="f"><g filter="url(#a)"><path d="M0 0h16v16H0z" style="fill:#000;fill-opacity:.2;stroke:none"/></g></mask><mask id="h"><g filter="url(#a)"><path d="M0 0h16v16H0z" style="fill:#000;fill-opacity:.2;stroke:none"/></g></mask><mask id="k"><g filter="url(#a)"><path d="M0 0h16v16H0z" style="fill:#000;fill-opacity:.431373;stroke:none"/></g></mask><g id="g" clip-path="url(#b)"><path d="m10.578 10.203.344.34c.023.023.058.039.098.039a.14.14 0 0 0 .093-.035l.278.277q.041.041.101.04h.012c.043 0 .441.034 1.71 1.218l.243.223c1.273 1.187 2.195 2.043 1.855 2.523-.05.074-.12.106-.222.106-.23 0-.496-.176-.496-.176-.004-.004-.008-.004-.012-.008-1.52-.848-3.363-2.965-3.465-3.168a.5.5 0 0 1-.055-.187.14.14 0 0 0-.093-.118.1.1 0 0 0-.047-.011h-.012l-.258-.258a.15.15 0 0 0 .032-.09.13.13 0 0 0-.043-.098l-.34-.34zm0-.2-.473.477.442.438-.094.09.438.433.03-.035a.6.6 0 0 0 .071.239c.117.242 1.969 2.363 3.524 3.226 0 0 .297.203.574.203.129 0 .25-.043.336-.164.433-.617-.625-1.543-2.117-2.93-1.243-1.16-1.692-1.253-1.805-1.253h-.016l-.375-.38-.093.094Zm0 0" style="stroke:none;fill-rule:nonzero;fill:#eee;fill-opacity:1"/></g><g id="i" clip-path="url(#c)"><path d="M6.223.926a5.55 5.55 0 0 1 5.539 5.543 5.545 5.545 0 0 1-5.54 5.539 5.545 5.545 0 0 1-5.538-5.54A5.55 5.55 0 0 1 6.223.927m0-.137a5.68 5.68 0 1 0 0 11.36 5.68 5.68 0 0 0 0-11.36m0 0" style="stroke:none;fill-rule:nonzero;fill:#eee;fill-opacity:1"/></g><g id="l" clip-path="url(#d)"><path d="M6.227 4.445c1.21 0 1.992.73 1.992 1.942 0 1.21-.594 1.718-1.778 1.968-1.234.262-2.277-.78-2.277-1.992 0-1.21.852-1.918 2.063-1.918m0 0" style="stroke:none;fill-rule:nonzero;fill:#e6ddd6;fill-opacity:1"/></g><radialGradient id="j" cx="54.857" cy="81.09" r="28.39" fx="54.857" fy="81.09" gradientTransform="rotate(90 8.356 7.988)scale(.125)" gradientUnits="userSpaceOnUse"><stop offset="0" style="stop-color:#fff;stop-opacity:1"/><stop offset=".479" style="stop-color:#fdfdfd;stop-opacity:1"/><stop offset=".69" style="stop-color:#f8f6f6;stop-opacity:1"/><stop offset=".849" style="stop-color:#eeebe9;stop-opacity:1"/><stop offset=".981" style="stop-color:#e1dad7;stop-opacity:1"/><stop offset="1" style="stop-color:#ded7d4;stop-opacity:1"/></radialGradient><radialGradient id="m" cx="41.607" cy="46.81" r="18.766" fx="41.607" fy="46.81" gradientTransform="scale(.125)" gradientUnits="userSpaceOnUse"><stop offset=".005" style="stop-color:#fdbf00;stop-opacity:1"/><stop offset=".167" style="stop-color:#fcb70b;stop-opacity:1"/><stop offset=".555" style="stop-color:#fba822;stop-opacity:1"/><stop offset=".803" style="stop-color:#faa32a;stop-opacity:1"/><stop offset="1" style="stop-color:#fc923b;stop-opacity:1"/></radialGradient><linearGradient id="e" x1="91.244" x2="122.67" y1="41.823" y2="6.63" gradientTransform="rotate(90 8.356 7.988)scale(.125)" gradientUnits="userSpaceOnUse"><stop offset="0" style="stop-color:#000;stop-opacity:1"/><stop offset="1" style="stop-color:#4d4d4d;stop-opacity:1"/></linearGradient><filter id="a" width="100%" height="100%" x="0%" y="0%" filterUnits="objectBoundingBox"><feColorMatrix in="SourceGraphic" values="0 0 0 0 1 0 0 0 0 1 0 0 0 0 1 0 0 0 1 0"/></filter></defs><path d="m11.113 10.34.434.433-.66.66-.434-.433Zm0 0" style="stroke:none;fill-rule:nonzero;fill:#343434;fill-opacity:1"/><path d="m10.582 9.996.492.496-.472.473-.497-.496Zm0 0" style="stroke:none;fill-rule:nonzero;fill:#212121;fill-opacity:1"/><path d="M15.426 14.898c.433-.613-.625-1.543-2.117-2.93-1.489-1.386-1.836-1.25-1.836-1.25l-.532.516s-.07.157.051.399c.117.238 1.969 2.363 3.524 3.226 0 .004.632.434.91.04m-.617-.332a.21.21 0 0 1 .21-.21.21.21 0 1 1 0 .421.21.21 0 0 1-.21-.21m0 0" style="stroke:none;fill-rule:nonzero;fill:url(#e)"/><use xlink:href="#g" mask="url(#f)"/><path d="M11.902 6.469a5.68 5.68 0 1 1-11.36 0 5.68 5.68 0 0 1 11.36 0m0 0" style="stroke:none;fill-rule:nonzero;fill:#252525;fill-opacity:1"/><use xlink:href="#i" mask="url(#h)"/><path d="M10.758 6.469a4.536 4.536 0 1 1-9.073-.002 4.536 4.536 0 0 1 9.073.002m0 0" style="stroke:none;fill-rule:nonzero;fill:#575757;fill-opacity:1"/><path d="M6.492 2.96c-.66-.12-1.316.177-1.922.466-.57.27-1.18.578-1.476 1.133-.313.593-.2 1.308-.309 1.968-.066.399-.21.828-.031 1.192.14.285.457.449.613.726.117.215.13.473.207.703.106.332.352.614.66.766.313.152.684.172 1.012.055.309-.11.586-.336.914-.34.227 0 .438.105.664.144.348.055.707-.07.996-.277.29-.203.512-.488.72-.777.202-.29.394-.586.585-.887.18-.281.36-.566.477-.879a2.44 2.44 0 0 0-.157-2.012c-.324-.578-.824-.882-1.418-1.128-.554-.227-.902-.739-1.535-.852m0 0" style="stroke:none;fill-rule:nonzero;fill:url(#j)"/><path d="M4.043 4.875c-.035-.016-.086-.008-.11.023-.027.032-.027.086 0 .114.028.031.083.035.11.008.031-.028.035-.082.004-.11M4.05 4.453a.13.13 0 0 0-.12.09c-.016.05.02.117.074.117.047.004.086-.035.094-.078.011-.043-.008-.09-.032-.129M4.227 4.258c-.028-.016-.07.008-.07.043 0 .031.042.058.07.043.03-.016.035-.063.007-.082M4.504 3.988c-.031-.031-.098-.011-.106.032-.007.046.04.09.082.078s.067-.07.043-.11M5.008 3.816c-.031-.011-.07.016-.067.051.008.031.055.047.079.024.02-.028-.004-.075-.036-.07M3.547 7.336a.11.11 0 0 1 .031.148.117.117 0 0 1-.152.04c-.047-.028-.067-.098-.043-.149.027-.05.094-.074.144-.05M3.617 7.645c-.023-.036-.086-.036-.105.003-.02.04.011.09.054.09s.075-.054.051-.09M3.816 8.168a.093.093 0 0 0-.132-.008.093.093 0 0 0 .007.133c.04.031.106.02.13-.023.027-.043.003-.106-.04-.125M3.445 5.965a.09.09 0 0 0-.105.05c-.016.044.008.094.047.106.043.016.093-.012.097-.059.004-.03-.015-.062-.039-.078a.15.15 0 0 0-.09-.027M3.219 6.277h-.074c-.016.016-.012.051.011.063.02.012.051-.008.055-.031.004-.024-.023-.047-.05-.043M3.145 6.406c-.02-.023-.063-.02-.079.008-.015.027.004.066.032.07.027 0 .054-.027.047-.054-.004-.024-.04-.04-.067-.028M3.195 6.629c-.015-.02-.05-.02-.066.004a.05.05 0 0 0 .008.066c.035.004.062-.043.039-.07M5.465 3.945a.082.082 0 0 0-.11.051c-.011.043.024.094.067.102.047.004.09-.04.086-.086-.004-.043-.059-.078-.102-.059M5.617 3.754c-.023-.016-.062.008-.066.035-.004.031.027.059.054.055.032 0 .055-.031.055-.059-.004-.031-.027-.058-.055-.062M8.996 7.047c-.031-.027-.086-.012-.105.023a.094.094 0 0 0 .007.114c.024.03.059.05.094.046a.1.1 0 0 0 .082-.062c.008-.035-.011-.078-.047-.09M9.063 7.32c-.043-.015-.094.024-.094.067-.004.047.047.086.094.07.042-.012.062-.074.035-.11M9.047 7.621c-.024-.027-.07-.031-.094-.004-.023.028-.012.078.02.094.035.016.078-.008.082-.043M8.668 7.809c-.023-.02-.066-.012-.074.02-.012.026.015.062.047.058.03-.004.05-.043.035-.067-.004-.004-.012-.004-.016-.004M8.203 8.125c-.035-.027-.094-.004-.098.04-.007.038.04.081.079.065.043-.015.054-.078.02-.105M9.18 5.297c-.024-.031-.07-.043-.102-.027-.035.015-.055.058-.039.093.012.035.055.059.09.043.035-.015.05-.066.027-.093" style="stroke:none;fill-rule:nonzero;fill:#a3a3a3;fill-opacity:1"/><use xlink:href="#l" mask="url(#k)"/><path d="M8.027 6.375a1.789 1.789 0 1 1-3.577 0 1.789 1.789 0 0 1 3.577 0m0 0" style="stroke:none;fill-rule:nonzero;fill:url(#m)"/></svg>