<svg xmlns="http://www.w3.org/2000/svg" xmlns:xlink="http://www.w3.org/1999/xlink" width="16pt" height="16pt" viewBox="0 0 16 16"><defs><radialGradient id="c" cx="47.113" cy="41.023" r="59.665" fx="47.113" fy="41.023" gradientTransform="scale(.125)" gradientUnits="userSpaceOnUse"><stop offset=".384" style="stop-color:#fb8c00;stop-opacity:1"/><stop offset=".783" style="stop-color:#ef6c00;stop-opacity:1"/></radialGradient><clipPath id="b"><path d="M0 0h16v16H0z"/></clipPath><filter id="a" width="100%" height="100%" x="0%" y="0%" filterUnits="objectBoundingBox"><feColorMatrix in="SourceGraphic" values="0 0 0 0 1 0 0 0 0 1 0 0 0 0 1 0 0 0 1 0"/></filter><mask id="d"><g filter="url(#a)"><path d="M0 0h16v16H0z" style="fill:#000;fill-opacity:.2;stroke:none"/></g></mask><g id="e" clip-path="url(#b)"><path d="m6.703 1.395.598 1.449a1.077 1.077 0 0 0 1.86.226l.87-1.187.012 1.23c.004.461.383.836.848.836a.82.82 0 0 0 .488-.16l3.262-2.351-2.746 4.332a.59.59 0 0 0-.02.593c.102.184.297.301.508.305l1.82.016-1.633.656a.57.57 0 0 0-.363.562c.008.25.168.461.406.535l1.426.458-1.758.394a.58.58 0 0 0-.41.344.58.58 0 0 0 .04.531l1.94 3.137-2.07-1.79a.74.74 0 0 0-.48-.183.75.75 0 0 0-.574.274.73.73 0 0 0-.149.632l.598 2.25-1.688-2.125q-.016-.023-.039-.043a.86.86 0 0 0-.574-.226.86.86 0 0 0-.852.738l-.246 1.266-.484-.797a1.037 1.037 0 0 0-1.645-.348L3.75 14.68l.723-1.995a.78.78 0 0 0-.094-.723.795.795 0 0 0-1.07-.223l-1.57.965 1.464-1.77a.59.59 0 0 0 .086-.605.59.59 0 0 0-.465-.344l-1.308-.296 1.03-.63a.98.98 0 0 0 .47-.902.98.98 0 0 0-.575-.836l-1.066-.484 1.063-.121a1.3 1.3 0 0 0 1.05-.781 1.29 1.29 0 0 0-.148-1.297l-1.133-1.52 1.637 1.305a.67.67 0 0 0 .43.152.696.696 0 0 0 .656-.918l-.172-.508.265.286a.869.869 0 0 0 1.492-.484zM6.617.539c-.097 0-.195.063-.207.184l-.27 2.183a.488.488 0 0 1-.843.27l-.793-.848a.2.2 0 0 0-.152-.07c-.13 0-.25.129-.2.277l.422 1.242a.32.32 0 0 1-.5.352L1.441 2.023a.22.22 0 0 0-.129-.046c-.156 0-.285.183-.171.335L3.039 4.86a.932.932 0 0 1-.644 1.48l-1.66.192c-.212.024-.255.313-.063.399l1.617.73c.445.2.484.82.066 1.074l-1.21.739c-.36.218-.286.515.132.543l1.489.336c.172.007.257.21.152.343L.816 13.23c-.12.149 0 .344.16.344a.23.23 0 0 0 .11-.031l2.426-1.488a.418.418 0 0 1 .61.5l-.95 2.625a.21.21 0 0 0 .2.28.2.2 0 0 0 .136-.054l2.394-2.183a.658.658 0 0 1 1.059.242l.605.996c.086.215.2.324.301.324.11 0 .203-.125.23-.37l.301-1.528a.476.476 0 0 1 .797-.297l1.95 2.453c.128.121.261.184.367.184.129 0 .21-.106.164-.332l-.73-2.758a.36.36 0 0 1 .355-.434c.082 0 .164.027.238.09l2.887 2.496c.043.04.09.055.136.055.145 0 .274-.168.176-.324L12.23 9.965a.207.207 0 0 1 .133-.313l2.352-.523c.21-.047.223-.34.02-.406l-2.008-.641a.21.21 0 0 1-.016-.395l2.406-.968c.211-.086.153-.403-.078-.407l-2.652-.019a.208.208 0 0 1-.176-.32L15.418.914c.098-.152-.031-.324-.18-.324a.2.2 0 0 0-.12.043L11.16 3.484a.45.45 0 0 1-.27.094.47.47 0 0 1-.472-.465l-.016-1.73a.209.209 0 0 0-.379-.121L8.86 2.852a.7.7 0 0 1-1.21-.148L6.811.671a.205.205 0 0 0-.195-.133m0 0" style="stroke:none;fill-rule:nonzero;fill:#424242;fill-opacity:1"/></g></defs><path d="m8.855 2.848 1.168-1.59c.118-.16.375-.078.375.12l.02 1.731a.468.468 0 0 0 .742.375L15.117.63c.184-.137.422.086.297.281l-3.203 5.063a.21.21 0 0 0 .176.32l2.656.02c.227.003.285.32.074.406l-2.406.968a.21.21 0 0 0 .016.395l2.007.64c.207.067.192.36-.015.407l-2.356.523a.21.21 0 0 0-.133.313l2.512 4.058c.125.204-.133.426-.316.27l-2.89-2.5a.361.361 0 0 0-.59.348l.73 2.757c.078.399-.235.418-.535.145L9.195 12.59a.481.481 0 0 0-.8.3l-.297 1.524c-.059.48-.356.496-.536.05l-.605-1a.657.657 0 0 0-1.055-.237L3.508 15.41c-.164.145-.414-.02-.34-.226l.953-2.63a.418.418 0 0 0-.613-.495l-2.422 1.48c-.2.125-.418-.129-.27-.309l2.102-2.539a.21.21 0 0 0-.152-.34l-1.489-.335c-.418-.028-.492-.328-.132-.543l1.21-.739A.609.609 0 0 0 2.29 7.66L.672 6.93C.48 6.844.523 6.555.734 6.53l1.66-.187a.935.935 0 0 0 .645-1.485L1.145 2.313c-.149-.196.105-.442.296-.29L4.078 4.13c.246.2.598-.05.496-.348L4.152 2.54c-.074-.215.2-.375.352-.21l.793.85c.281.305.793.141.844-.273L6.41.723c.023-.215.316-.254.398-.055l.84 2.035c.206.5.886.586 1.206.145m0 0" style="stroke:none;fill-rule:nonzero;fill:url(#c)"/><path d="M10.898 5.2c.266-.122.403.066.239.312-.227.34-.727.984-.918 1.187a.408.408 0 0 0 .14.664l.942.176c.187.078.176.352-.02.41l-.863.215a.386.386 0 0 0-.168.64l.918 1.274c.102.117-.027.293-.172.235l-1.332-.66c-.531-.301-1.055-.11-1.242.472l-.434 1.367c-.031.149-.242.16-.289.016l-.34-1.184a.474.474 0 0 0-.789-.203l-1.113 1.11c-.129.105-.309-.051-.219-.196l.535-1.117c.122-.191-.113-.652-.34-.64l-.995-.071c-.172 0-.325-.145-.31-.316a.3.3 0 0 1 .18-.246c.286-.13.794-.41 1.235-.665A.874.874 0 0 0 5.82 6.72L4.871 5.46c-.176-.223.059-.535.324-.426l1.73 1.23c.302.126.634-.074.673-.398l.152-1.332c.016-.14.207-.18.277-.058l.547 1.093a.814.814 0 0 0 1.067.375Zm0 0" style="stroke:none;fill-rule:nonzero;fill:#ffeb3b;fill-opacity:1"/><use xlink:href="#e" mask="url(#d)"/></svg>