<svg xmlns="http://www.w3.org/2000/svg" xmlns:xlink="http://www.w3.org/1999/xlink" width="16pt" height="16pt" viewBox="0 0 16 16"><defs><clipPath id="e"><path d="M0 3h16v10H0Zm0 0"/></clipPath><clipPath id="f"><path d="M15.453 8.234s-1.613 4.688-7.441 4.688C2.18 12.922.566 8.234.566 8.234s.887-1.187 1.059-1.523C2.273 5.453 4.5 3.566 8.012 3.42c3.172-.132 5.633 1.884 6.406 3.25.27.477 1.035 1.563 1.035 1.563m0 0"/></clipPath><clipPath id="b"><path d="M0 0h16v16H0z"/></clipPath><clipPath id="c"><path d="M0 0h16v16H0z"/></clipPath><clipPath id="l"><path d="M0 3h16v6H0Zm0 0"/></clipPath><clipPath id="m"><path d="M15.422 8.066c-.512-1.289-2.594-4.984-7.367-4.988h-.11c-4.773.004-6.855 3.7-7.367 4.988-.008.032-.043.145-.035.215.004.047.008.055.023.078.016.02.067.016.106-.035 1.09-1.386 3.308-4.152 7.277-4.152h.101c3.97 0 6.188 2.766 7.278 4.152.04.051.09.055.106.035.015-.023.02-.03.023-.078.008-.07-.027-.183-.035-.215m0 0"/></clipPath><clipPath id="d"><path d="M0 0h16v16H0z"/></clipPath><mask id="g"><g filter="url(#a)"><path d="M0 0h16v16H0z" style="fill:#000;fill-opacity:.2;stroke:none"/></g></mask><mask id="j"><g filter="url(#a)"><path d="M0 0h16v16H0z" style="fill:#000;fill-opacity:.2;stroke:none"/></g></mask><mask id="n"><g filter="url(#a)"><path d="M0 0h16v16H0z" style="fill:#000;fill-opacity:.2;stroke:none"/></g></mask><g id="h" clip-path="url(#b)"><path d="M8 2.836c4.129 0 6.414 3.484 7.016 4.55.117.204.02.548-.024.65l-.012.034c-.003.012-.378 1.082-1.421 2.16-1.407 1.454-3.27 2.192-5.547 2.192-2.262 0-4.117-.727-5.52-2.16-.965-.989-1.379-1.996-1.441-2.164-.063-.305-.078-.672-.04-.77C1.556 6.273 3.657 2.836 8 2.836m0-.5c-4.527 0-6.785 3.504-7.434 4.762-.171.332 0 1.136 0 1.136s1.614 4.688 7.446 4.688c5.828 0 7.441-4.688 7.441-4.688s.27-.62 0-1.093C14.68 5.773 12.246 2.336 8 2.336m0 0" style="stroke:none;fill-rule:nonzero;fill:#424242;fill-opacity:1"/></g><g id="k" clip-path="url(#c)"><path d="M8 4.734c1.93 0 3.5 1.57 3.5 3.5s-1.57 3.5-3.5 3.5-3.5-1.57-3.5-3.5 1.57-3.5 3.5-3.5m0-.375a3.874 3.874 0 1 0 0 7.75 3.874 3.874 0 1 0 0-7.75m0 0" style="stroke:none;fill-rule:nonzero;fill:#424242;fill-opacity:1"/></g><g id="o" clip-path="url(#d)"><path d="M7.953 3.578h.102c1.922.004 3.586.637 4.941 1.883a8 8 0 0 1 1.914 2.687c-.765.637-3.926 3.086-7.191 3.086-.032 0-.032 0-1.407.125-.578.055-1.222.114-1.34.125-3.09-.007-3.773-2.437-3.91-3.187l-.011-.063c.152-.382.722-1.648 1.949-2.773 1.36-1.246 3.02-1.879 4.945-1.883zm.102-.5h-.11c-4.773.004-6.855 3.7-7.367 4.988-.008.032-.043.145-.035.215.004.047.008.055.023.078.016.02.457 3.625 4.422 3.625h.004c.02 0 2.711-.25 2.727-.25h.004c3.968 0 7.699-3.355 7.71-3.375.016-.023.024-.03.028-.078a.7.7 0 0 0-.04-.215c-.51-1.289-2.593-4.98-7.366-4.988m0 0" style="stroke:none;fill-rule:nonzero;fill:#424242;fill-opacity:1"/></g><linearGradient id="i" x1="64" x2="64" y1="96.869" y2="34.869" gradientTransform="scale(.125)" gradientUnits="userSpaceOnUse"><stop offset="0" style="stop-color:#b27e60;stop-opacity:1"/><stop offset=".168" style="stop-color:#ac795d;stop-opacity:1"/><stop offset=".396" style="stop-color:#9b6d54;stop-opacity:1"/><stop offset=".658" style="stop-color:#7e5846;stop-opacity:1"/><stop offset=".944" style="stop-color:#573a32;stop-opacity:1"/><stop offset="1" style="stop-color:#4e342e;stop-opacity:1"/></linearGradient><filter id="a" width="100%" height="100%" x="0%" y="0%" filterUnits="objectBoundingBox"><feColorMatrix in="SourceGraphic" values="0 0 0 0 1 0 0 0 0 1 0 0 0 0 1 0 0 0 1 0"/></filter></defs><path d="M15.453 8.234s-1.613 4.688-7.441 4.688C2.18 12.922.566 8.234.566 8.234s1.72-5.156 7.446-5.156c5.722 0 7.441 5.156 7.441 5.156m0 0" style="stroke:none;fill-rule:nonzero;fill:#fff;fill-opacity:1"/><g clip-path="url(#e)"><g clip-path="url(#f)"><use xlink:href="#h" mask="url(#g)"/></g></g><path d="M11.875 8.234a3.874 3.874 0 1 1-7.75 0 3.874 3.874 0 1 1 7.75 0m0 0" style="stroke:none;fill-rule:nonzero;fill:url(#i)"/><use xlink:href="#k" mask="url(#j)"/><path d="M9.805 8.234a1.805 1.805 0 1 1-3.611-.001 1.805 1.805 0 0 1 3.61.001m0 0" style="stroke:none;fill-rule:nonzero;fill:#212121;fill-opacity:1"/><path d="M6.797 6.93a.903.903 0 1 1-1.804 0 .903.903 0 0 1 1.804 0m0 0" style="stroke:none;fill-rule:nonzero;fill:#eee;fill-opacity:1"/><path d="M15.422 8.066c-.512-1.289-2.594-4.984-7.367-4.988h-.11c-4.773.004-6.855 3.7-7.367 4.988-.008.032-.043.145-.035.215.004.047.008.055.023.078.016.02.067.016.106-.035 1.09-1.386 3.308-4.152 7.277-4.152h.101c3.97 0 6.188 2.766 7.278 4.152.04.051.09.055.106.035.015-.023.02-.03.023-.078.008-.07-.027-.183-.035-.215m0 0" style="stroke:none;fill-rule:nonzero;fill:#424242;fill-opacity:1"/><g clip-path="url(#l)"><g clip-path="url(#m)"><use xlink:href="#o" mask="url(#n)"/></g></g></svg>