<svg xmlns="http://www.w3.org/2000/svg" xmlns:xlink="http://www.w3.org/1999/xlink" width="16pt" height="16pt" viewBox="0 0 16 16"><defs><linearGradient id="d" x1="64" x2="64" y1="88.452" y2="31.207" gradientTransform="scale(.125)" gradientUnits="userSpaceOnUse"><stop offset=".228" style="stop-color:#fb8c00;stop-opacity:1"/><stop offset=".714" style="stop-color:#ef6c00;stop-opacity:1"/></linearGradient><linearGradient id="e" x1="64" x2="64" y1="121.87" y2="65.176" gradientTransform="scale(.125)" gradientUnits="userSpaceOnUse"><stop offset="0" style="stop-color:#ffb300;stop-opacity:1"/><stop offset=".025" style="stop-color:#ffb504;stop-opacity:1"/><stop offset=".311" style="stop-color:#ffce28;stop-opacity:1"/><stop offset=".577" style="stop-color:#ffe042;stop-opacity:1"/><stop offset=".815" style="stop-color:#ffea52;stop-opacity:1"/><stop offset="1" style="stop-color:#ffee58;stop-opacity:1"/></linearGradient><clipPath id="b"><path d="M0 0h16v16H0z"/></clipPath><clipPath id="c"><path d="M0 0h16v16H0z"/></clipPath><mask id="f"><g filter="url(#a)"><path d="M0 0h16v16H0z" style="fill:#000;fill-opacity:.2;stroke:none"/></g></mask><mask id="h"><g filter="url(#a)"><path d="M0 0h16v16H0z" style="fill:#000;fill-opacity:.2;stroke:none"/></g></mask><g id="g" clip-path="url(#b)"><path d="M9.074 1.344c-.011.336.008.754.094 1.242.11.64.562 1.5.992 2.262.977 1.726.453 3.27.434 3.332a.5.5 0 0 0 .894.43c.004-.008.465-.758 1.028-1.692.054-.086.109-.164.164-.242q-.018.204-.035.445c-.04.649.078 1.293.19 1.918.126.68.255 1.387.173 2.094-.211 1.758-2.086 3.39-3.625 3.676a7 7 0 0 1-1.25.125c-.824 0-1.555-.196-2.305-.61a5.54 5.54 0 0 1-2.207-2.289 5.8 5.8 0 0 1-.648-2.926c.035-.707.254-1.445.5-2.058.41 1.148 1.363 1.761 1.418 1.797a.5.5 0 0 0 .27.074c.097 0 .198-.027.284-.086a.5.5 0 0 0 .203-.512c-.003-.027-.527-2.676.762-4.636.8-1.223 1.922-1.958 2.664-2.344m.617-.817s-2.285.73-3.703 2.887C4.574 5.57 5.16 8.426 5.16 8.426s-1.75-1.098-1.297-3.13q.007-.027-.004-.026c-.093 0-1.296 1.992-1.386 3.816-.106 2.121.949 4.469 3.113 5.676a5.06 5.06 0 0 0 2.547.672c.445 0 .89-.051 1.34-.133 1.765-.324 3.797-2.137 4.03-4.11.173-1.441-.437-2.754-.358-4.039.09-1.453.359-1.843.359-1.843s-.84.406-1.414 1.351c-.57.945-1.027 1.688-1.027 1.688s.64-1.782-.47-3.746c-.359-.641-.831-1.524-.933-2.102-.219-1.262.031-1.973.031-1.973m3.813 4.723" style="stroke:none;fill-rule:nonzero;fill:#424242;fill-opacity:1"/></g><g id="i" clip-path="url(#c)"><path d="M8.246 6.734c.3.414.613.942.8 1.532.74 2.351-.444 3.41-.491 3.449a.503.503 0 0 0 .43.875c.074-.02.769-.188 1.238-.95q.098-.163.168-.316c.07.13.136.278.183.45.254.93.168 1.68-.25 2.23-.547.715-1.547.969-2.238.969q-.058.001-.11-.004c-.46-.016-1.867-.219-2.273-.867a2.7 2.7 0 0 1-.156-2.602c.215-.465.629-.914 1.027-1.344.317-.34.617-.664.832-1.004.516-.812.742-1.707.84-2.418m-.437-1.27s.144 1.895-.825 3.419c-.468.734-1.468 1.492-1.894 2.41a3.2 3.2 0 0 0 .187 3.074c.602.957 2.457 1.094 2.676 1.106h.133c1.434 0 3.762-.926 2.969-3.828-.258-.942-.926-1.348-.926-1.348s.039.476-.332 1.082c-.375.601-.922.723-.922.723s1.508-1.254.648-3.989C9.047 6.605 7.81 5.465 7.81 5.465m0 0" style="stroke:none;fill-rule:nonzero;fill:#424242;fill-opacity:1"/></g><filter id="a" width="100%" height="100%" x="0%" y="0%" filterUnits="objectBoundingBox"><feColorMatrix in="SourceGraphic" values="0 0 0 0 1 0 0 0 0 1 0 0 0 0 1 0 0 0 1 0"/></filter></defs><path d="M9.691.527s-.25.711-.03 1.973c.097.578.573 1.465.933 2.102 1.11 1.964.469 3.746.469 3.746s.457-.743 1.027-1.688c.574-.945 1.414-1.351 1.414-1.351s-.27.39-.36 1.843c-.078 1.285.528 2.598.36 4.04-.234 1.972-2.27 3.785-4.031 4.109-1.282.234-2.52.222-3.891-.54-2.16-1.206-3.215-3.554-3.11-5.675.098-1.945 1.458-4.078 1.391-3.79-.453 2.032 1.297 3.13 1.297 3.13s-.586-2.856.828-5.012C7.406 1.258 9.691.527 9.691.527m0 0" style="stroke:none;fill-rule:nonzero;fill:url(#d)"/><path d="M7.809 5.465s.144 1.894-.825 3.418c-.468.734-1.468 1.492-1.894 2.41a3.2 3.2 0 0 0 .187 3.074c.602.957 2.457 1.094 2.676 1.106 1.418.054 3.918-.84 3.102-3.828-.258-.942-.926-1.348-.926-1.348s.039.476-.332 1.082c-.375.605-.922.723-.922.723s1.508-1.254.648-3.989C9.047 6.605 7.81 5.465 7.81 5.465m0 0" style="stroke:none;fill-rule:nonzero;fill:url(#e)"/><use xlink:href="#g" mask="url(#f)"/><use xlink:href="#i" mask="url(#h)"/></svg>