<svg xmlns="http://www.w3.org/2000/svg" width="16pt" height="16pt" viewBox="0 0 16 16"><defs><linearGradient id="a" x1="63.995" x2="63.995" y1="120.79" y2="79.168" gradientTransform="scale(.125)" gradientUnits="userSpaceOnUse"><stop offset="0" style="stop-color:#c9c4b2;stop-opacity:1"/><stop offset=".137" style="stop-color:#d8d3bf;stop-opacity:1"/><stop offset=".382" style="stop-color:#eee7d2;stop-opacity:1"/><stop offset=".62" style="stop-color:#fbf4dd;stop-opacity:1"/><stop offset=".842" style="stop-color:#fff8e1;stop-opacity:1"/></linearGradient><linearGradient id="b" x1="64" x2="64" y1="23.66" y2="106.2" gradientTransform="scale(.125)" gradientUnits="userSpaceOnUse"><stop offset=".152" style="stop-color:#ff5e20;stop-opacity:1"/><stop offset=".464" style="stop-color:#e7551d;stop-opacity:1"/><stop offset=".999" style="stop-color:#c24719;stop-opacity:1"/></linearGradient><linearGradient id="c" x1="64" x2="64" y1="94.336" y2="104.55" gradientTransform="scale(.125)" gradientUnits="userSpaceOnUse"><stop offset=".163" style="stop-color:#4d4d4d;stop-opacity:1"/><stop offset=".367" style="stop-color:#373737;stop-opacity:1"/><stop offset=".784" style="stop-color:#0f0f0f;stop-opacity:1"/><stop offset="1" style="stop-color:#000;stop-opacity:1"/></linearGradient></defs><path d="M8.004 15.098c-.207-.024-2.879-.38-4.793-2.297C1.586 11.176.887 10.129.68 9.785c.203-.187.656-.617 1.199-1.219l.414-.464C3.719 6.488 5.672 4.282 8 4.282c2.5 0 4.66 2.433 6.07 4.265a8 8 0 0 0 1.25 1.27c-.199.347-.87 1.394-2.57 3.093-2.012 2.012-4.547 2.18-4.746 2.188m0 0" style="stroke:none;fill-rule:nonzero;fill:url(#a)"/><path d="M8 4.469c2.418 0 4.54 2.39 5.922 4.191.406.527.875.957 1.156 1.2-.27.43-.957 1.413-2.46 2.917-1.927 1.926-4.34 2.118-4.606 2.133-.282-.035-2.828-.402-4.668-2.242-1.446-1.445-2.149-2.426-2.422-2.852a20 20 0 0 0 1.094-1.125q.2-.222.418-.468C3.836 6.64 5.758 4.469 8 4.469m0-.375c-2.648 0-4.781 2.703-6.262 4.347C1.016 9.242.441 9.75.441 9.75s.582 1.129 2.637 3.184C5.137 14.992 8 15.285 8 15.285s2.715-.078 4.883-2.242c2.168-2.168 2.676-3.277 2.676-3.277s-.743-.559-1.34-1.336C12.863 6.668 10.633 4.094 8 4.094m0 0" style="stroke:none;fill-rule:nonzero;fill:#cfc6aa;fill-opacity:1"/><path d="M5.82 3.813c.532 1.976-.332 3.8-.332 3.8s-3.383-.363-4.18-2.25C.52 3.484 1.364.715 1.364.715s3.93 1.12 4.457 3.098m0 0" style="stroke:none;fill-rule:nonzero;fill:#ff5e21;fill-opacity:1"/><path d="M4.402 3.57c.344 1.121-.53 2.215-.53 2.215s-1.384-.297-1.919-1.34c-.496-.96-.058-2.613-.058-2.613s2.16.617 2.507 1.738m0 0" style="stroke:none;fill-rule:nonzero;fill:#881d05;fill-opacity:1"/><path d="M10.18 3.813c-.532 1.976.332 3.8.332 3.8s3.383-.363 4.18-2.25c.788-1.879-.055-4.648-.055-4.648s-3.93 1.12-4.457 3.098m0 0" style="stroke:none;fill-rule:nonzero;fill:#ff5e21;fill-opacity:1"/><path d="M11.598 3.57c-.344 1.121.53 2.215.53 2.215s1.384-.297 1.919-1.34c.496-.96.058-2.613.058-2.613s-2.16.617-2.507 1.738m0 0" style="stroke:none;fill-rule:nonzero;fill:#881d05;fill-opacity:1"/><path d="m15.492 8.336-.687-.902a21 21 0 0 1-1.27-1.895c-.96-1.582-2.887-2.559-5.539-2.582-2.746-.023-4.648 1.004-5.625 2.652-.39.66-.808 1.313-1.289 1.938l-.625.82c-.05.067 1.215.156 1.215.156.004.086-.922.72-1.234 1.184-.047.07 3.68-2.816 5.527-1.531C7.477 9.23 7.996 13.73 7.996 13.73s.5-4.523 1.98-5.585c1.676-1.204 5.618 1.617 5.579 1.562-.293-.426-1.313-1.113-1.305-1.184.004 0 1.309-.105 1.242-.187m0 0" style="stroke:none;fill-rule:nonzero;fill:url(#b)"/><path d="M1.605 1.223c.844.289 2.907 1.09 3.633 2.27.07.112.192.179.32.179.036 0 .07-.008.102-.016a8.1 8.1 0 0 1 2.242-.293h.09a8.6 8.6 0 0 1 2.29.313q.052.014.105.015c.129 0 .25-.066.32-.183.719-1.188 2.8-1.996 3.648-2.285.188.789.536 2.675-.03 4.023a2.1 2.1 0 0 1-.583.77.38.38 0 0 0-.066.488c.297.457.558.836.828 1.187l.328.43c-.191.02-.414.043-.613.059a.36.36 0 0 0-.29.18c-1.132-.567-2.113-.86-2.89-.86-.508 0-.941.125-1.281.371-.688.492-1.258 1.64-1.692 3.402q-.041.17-.078.332a10 10 0 0 0-.078-.32c-.445-1.758-1.027-2.898-1.73-3.387-.38-.265-.844-.398-1.383-.398-.89 0-1.89.367-2.813.848a.37.37 0 0 0-.289-.172 13 13 0 0 1-.562-.047l.25-.324c.289-.383.586-.813.898-1.309a.37.37 0 0 0-.07-.484 2.16 2.16 0 0 1-.578-.77c-.563-1.34-.215-3.23-.028-4.02M14.617.747s-3.234.926-4.226 2.57A8.9 8.9 0 0 0 8 2.988h-.098c-.867 0-1.648.11-2.343.309C4.547 1.664 1.344.747 1.344.747S.5 3.515 1.289 5.394c.149.351.387.652.68.902-.274.437-.567.867-.883 1.281l-.629.82c-.05.067 1.215.157 1.215.157.008.086-.922.718-1.23 1.183.03 0 2.468-1.863 4.359-1.863.43 0 .828.098 1.164.332 1.512 1.055 2.031 5.555 2.031 5.555s.5-4.524 1.98-5.586c.297-.211.66-.301 1.063-.301 1.86 0 4.488 1.863 4.52 1.863-.293-.425-1.313-1.113-1.309-1.187 0 0 1.305-.102 1.242-.188l-.691-.902a19 19 0 0 1-.813-1.164c.293-.254.532-.555.68-.906.793-1.875-.05-4.645-.05-4.645m0 0" style="stroke:none;fill-rule:nonzero;fill:#cc3e0a;fill-opacity:1"/><path d="m5.441 10.309-.02-.024q-.005-.01-.019-.027a.1.1 0 0 1-.015-.02.3.3 0 0 1-.059-.054 2.3 2.3 0 0 0-.336-.243l-.156-.082q-.082-.035-.168-.066a1 1 0 0 0-.09-.035c-.027-.008-.05-.016-.082-.024q-.087-.023-.168-.043a2 2 0 0 0-.297-.035c-.086-.004-.152 0-.199.004q-.072.005-.074.004l-.059.008a.34.34 0 0 1-.383-.285.34.34 0 0 1 .164-.34l.032-.02q.035-.018.093-.05c.083-.04.204-.082.348-.11.145-.027.313-.035.488-.015q.135.01.27.043c.043.007.09.023.14.035.055.02.067.023.126.043q.129.05.253.113c.082.043.157.094.227.144a1.7 1.7 0 0 1 .477.504c.03.055.05.098.074.145.012.023.02.047.027.062q.004.019.008.032.007.028.008.027a.345.345 0 0 1-.239.426.33.33 0 0 1-.37-.117M12.266 9.676q.001.001-.028-.004-.013-.004-.031-.008h-.027q-.036-.002-.082-.004h-.114a2 2 0 0 0-.296.035c-.055.008-.114.024-.172.04a1 1 0 0 0-.172.058 1 1 0 0 0-.094.035q-.033.013-.078.031c-.05.028-.106.051-.156.079a2 2 0 0 0-.25.167c-.063.051-.114.098-.149.13l-.047.054-.043.043A.338.338 0 0 1 9.953 10s0-.012.012-.035a1.39 1.39 0 0 1 .23-.41 1.9 1.9 0 0 1 .594-.473 1 1 0 0 1 .133-.062c.05-.024.066-.028.121-.051q.13-.048.266-.078c.09-.024.18-.032.27-.043.175-.016.347-.004.491.023q.106.02.196.05c.062.02.105.04.156.063l.058.032c.012.007.02.011.028.02l.023.01a.348.348 0 0 1-.265.63m0 0" style="stroke:none;fill-rule:nonzero;fill:#000;fill-opacity:1"/><path d="M53.813 113.188c5.343 0 9.687-4.407 9.687-9.688V96M73.188 113.188c-5.344 0-9.688-4.407-9.688-9.688V96" style="fill:none;stroke-width:3;stroke-linecap:round;stroke-linejoin:round;stroke:#404040;stroke-opacity:1;stroke-miterlimit:10" transform="scale(.125)"/><path d="M7.25 11.75a.345.345 0 0 0-.328.473c.183.496.52.859 1.055.859.007 0 .015-.004.023-.004h.023c.54 0 .872-.36 1.059-.855a.348.348 0 0 0-.332-.473Zm0 0" style="stroke:none;fill-rule:nonzero;fill:url(#c)"/></svg>