<svg xmlns="http://www.w3.org/2000/svg" width="16pt" height="16pt" viewBox="0 0 16 16"><defs><clipPath id="b"><path d="M3 8h10v6H3Zm0 0"/></clipPath><clipPath id="c"><path d="M8 8.11c-2.004 0-4.18 2.023-4.18 4.515 0 .7.664 1.105 1.258.82.73-.347 1.813-1.043 2.922-1.043s2.191.696 2.922 1.043c.594.285 1.258-.12 1.258-.82 0-2.492-2.328-4.516-4.18-4.516m0 0"/></clipPath><clipPath id="d"><path d="M4 8h8v3H4Zm0 0"/></clipPath><clipPath id="e"><path d="M8 8.11c-2.004 0-4.18 2.023-4.18 4.515 0 .7.664 1.105 1.258.82.73-.347 1.813-1.043 2.922-1.043s2.191.696 2.922 1.043c.594.285 1.258-.12 1.258-.82 0-2.492-2.328-4.516-4.18-4.516m0 0"/></clipPath><clipPath id="f"><path d="M4 8h8v3H4Zm0 0"/></clipPath><clipPath id="g"><path d="M8 8.11c-2.004 0-4.18 2.023-4.18 4.515 0 .7.664 1.105 1.258.82.73-.347 1.813-1.043 2.922-1.043s2.191.696 2.922 1.043c.594.285 1.258-.12 1.258-.82 0-2.492-2.328-4.516-4.18-4.516m0 0"/></clipPath><clipPath id="h"><path d="M8 9.848c1.469 0 2.832.23 3.906.652V6.418H4.094V10.5C5.168 10.078 6.53 9.848 8 9.848m0 0"/></clipPath><linearGradient id="a" x1="64" x2="64" y1="19.717" y2="107.7" gradientTransform="scale(.125)" gradientUnits="userSpaceOnUse"><stop offset=".566" style="stop-color:#f6a323;stop-opacity:1"/><stop offset=".917" style="stop-color:#fee133;stop-opacity:1"/></linearGradient></defs><path d="M8 14.984C4.508 14.984.75 12.801.75 8 .75 3.2 4.508 1.016 8 1.016c1.934 0 3.727.636 5.047 1.8C14.488 4.09 15.25 5.883 15.25 8c0 2.11-.762 3.895-2.203 5.172C11.723 14.344 9.93 14.984 8 14.984m0 0" style="stroke:none;fill-rule:nonzero;fill:url(#a)"/><path d="M8 1.266c1.875 0 3.61.617 4.879 1.738C14.266 4.23 15 5.957 15 8c0 2.035-.734 3.758-2.121 4.984-1.277 1.13-3.008 1.75-4.879 1.75-1.879 0-3.613-.613-4.879-1.726C1.734 11.789 1 10.058 1 8c0-2.066.734-3.8 2.121-5.02C4.383 1.875 6.117 1.266 8 1.266m0-.5C4.105.766.5 3.266.5 8c0 4.71 3.605 7.234 7.5 7.234s7.5-2.59 7.5-7.234C15.5 3.328 11.895.766 8 .766m0 0" style="stroke:none;fill-rule:nonzero;fill:#eb8f00;fill-opacity:1"/><path d="M102.188 50.469c0-8.938-7.22-16.219-16.188-16.219-7.156-.031-12.969 5.75-12.969 12.906a10.33 10.33 0 0 0 10.344 10.407c4.563 0 8.281-3.688 8.313-8.282 0-3.656-2.97-6.656-6.626-6.656a5.31 5.31 0 0 0-5.312 5.313M30.313 33.813c-5.157 7.312-3.407 17.406 3.906 22.562 5.843 4.125 13.937 2.75 18.062-3.125 3.313-4.656 2.188-11.125-2.5-14.437-3.75-2.657-8.906-1.75-11.562 2-2.094 3-1.407 7.124 1.593 9.25 2.407 1.687 5.72 1.124 7.407-1.282" style="fill:none;stroke-width:5;stroke-linecap:round;stroke-linejoin:round;stroke:#242424;stroke-opacity:1;stroke-miterlimit:10" transform="scale(.125)"/><g clip-path="url(#b)"><g clip-path="url(#c)"><path d="M8 8.11c-2.004 0-4.18 2.023-4.18 4.515 0 .7.664 1.105 1.258.82.73-.347 1.813-.703 2.922-.703s2.191.352 2.922.703c.594.285 1.258-.12 1.258-.82 0-2.492-2.328-4.516-4.18-4.516m0 0" style="stroke:none;fill-rule:nonzero;fill:#242424;fill-opacity:1"/></g></g><g clip-path="url(#d)"><g clip-path="url(#e)"><path d="M8 9.848c1.469 0 2.832.23 3.906.652V6.418H4.094V10.5C5.168 10.078 6.53 9.848 8 9.848m0 0" style="stroke:none;fill-rule:nonzero;fill:#fff;fill-opacity:1"/></g></g><g clip-path="url(#f)"><g clip-path="url(#g)"><g clip-path="url(#h)"><path d="M8 8.676c.762 0 1.672.441 2.383 1.156.793.797 1.23 1.79 1.23 2.797 0 .234-.156.344-.297.344a.3.3 0 0 1-.148-.036c-.477-.23-1.738-.757-3.168-.757s-2.691.527-3.168.758a.3.3 0 0 1-.148.035c-.141 0-.297-.11-.297-.344 0-2.227 1.941-3.953 3.613-3.953m0-.567c-2.004 0-4.18 2.024-4.18 4.516 0 .547.407.914.864.914a.9.9 0 0 0 .394-.094c.73-.347 1.813-.703 2.922-.703s2.191.352 2.922.703a.9.9 0 0 0 .394.094c.457 0 .864-.367.864-.914 0-2.492-2.328-4.516-4.18-4.516m0 0" style="stroke:none;fill-rule:nonzero;fill:#eb8f00;fill-opacity:1"/></g></g></g></svg>