<svg xmlns="http://www.w3.org/2000/svg" width="16pt" height="16pt" viewBox="0 0 16 16"><defs><clipPath id="b"><path d="M3 10h10v1H3Zm0 0"/></clipPath><clipPath id="c"><path d="M11.734 9.207c.594 0 1.079.578 1.079 1.281 0 .707-.485 1.282-1.079 1.282H4.266c-.594 0-1.078-.575-1.078-1.282 0-.703.484-1.281 1.078-1.281Zm0 0"/></clipPath><clipPath id="d"><path d="M4 9h1v3H4Zm0 0"/></clipPath><clipPath id="e"><path d="M11.734 9.207c.594 0 1.079.578 1.079 1.281 0 .707-.485 1.282-1.079 1.282H4.266c-.594 0-1.078-.575-1.078-1.282 0-.703.484-1.281 1.078-1.281Zm0 0"/></clipPath><clipPath id="f"><path d="M6 9h1v3H6Zm0 0"/></clipPath><clipPath id="g"><path d="M11.734 9.207c.594 0 1.079.578 1.079 1.281 0 .707-.485 1.282-1.079 1.282H4.266c-.594 0-1.078-.575-1.078-1.282 0-.703.484-1.281 1.078-1.281Zm0 0"/></clipPath><clipPath id="h"><path d="M7 9h2v3H7Zm0 0"/></clipPath><clipPath id="i"><path d="M11.734 9.207c.594 0 1.079.578 1.079 1.281 0 .707-.485 1.282-1.079 1.282H4.266c-.594 0-1.078-.575-1.078-1.282 0-.703.484-1.281 1.078-1.281Zm0 0"/></clipPath><clipPath id="j"><path d="M9 9h2v3H9Zm0 0"/></clipPath><clipPath id="k"><path d="M11.734 9.207c.594 0 1.079.578 1.079 1.281 0 .707-.485 1.282-1.079 1.282H4.266c-.594 0-1.078-.575-1.078-1.282 0-.703.484-1.281 1.078-1.281Zm0 0"/></clipPath><clipPath id="l"><path d="M11 9h1v3h-1Zm0 0"/></clipPath><clipPath id="m"><path d="M11.734 9.207c.594 0 1.079.578 1.079 1.281 0 .707-.485 1.282-1.079 1.282H4.266c-.594 0-1.078-.575-1.078-1.282 0-.703.484-1.281 1.078-1.281Zm0 0"/></clipPath><linearGradient id="a" x1="64" x2="64" y1="19.717" y2="107.7" gradientTransform="scale(.125)" gradientUnits="userSpaceOnUse"><stop offset=".5" style="stop-color:#fee133;stop-opacity:1"/><stop offset=".612" style="stop-color:#fede32;stop-opacity:1"/><stop offset=".708" style="stop-color:#fcd32f;stop-opacity:1"/><stop offset=".797" style="stop-color:#fac12b;stop-opacity:1"/><stop offset=".883" style="stop-color:#f7a924;stop-opacity:1"/><stop offset=".9" style="stop-color:#f6a323;stop-opacity:1"/></linearGradient></defs><path d="M8 14.984C4.508 14.984.75 12.801.75 8 .75 3.2 4.508 1.016 8 1.016c1.934 0 3.727.636 5.047 1.8C14.488 4.09 15.25 5.883 15.25 8c0 2.11-.762 3.895-2.203 5.172C11.723 14.344 9.93 14.984 8 14.984m0 0" style="stroke:none;fill-rule:nonzero;fill:url(#a)"/><path d="M8 1.266c1.875 0 3.61.617 4.879 1.738C14.266 4.23 15 5.957 15 8c0 2.035-.734 3.758-2.121 4.984-1.277 1.13-3.008 1.75-4.879 1.75-1.879 0-3.613-.613-4.879-1.726C1.734 11.789 1 10.058 1 8c0-2.066.734-3.8 2.121-5.02C4.383 1.875 6.117 1.266 8 1.266m0-.5C4.105.766.5 3.266.5 8c0 4.71 3.605 7.234 7.5 7.234s7.5-2.59 7.5-7.234C15.5 3.328 11.895.766 8 .766m0 0" style="stroke:none;fill-rule:nonzero;fill:#eb8f00;fill-opacity:1"/><path d="M4.434 12.031a1.5 1.5 0 0 1-1.497-1.5v-.082c0-.824.672-1.496 1.497-1.496h7.132c.825 0 1.496.672 1.496 1.496v.082a1.5 1.5 0 0 1-1.496 1.5Zm0 0" style="stroke:none;fill-rule:nonzero;fill:#fff;fill-opacity:1"/><path d="M11.566 9.203c.688 0 1.246.559 1.246 1.246v.082a1.25 1.25 0 0 1-1.246 1.25H4.434a1.25 1.25 0 0 1-1.247-1.25v-.082c0-.687.56-1.246 1.247-1.246Zm0-.5H4.434a1.75 1.75 0 0 0-1.747 1.746v.082c0 .961.786 1.75 1.747 1.75h7.132c.961 0 1.746-.789 1.746-1.75v-.082a1.75 1.75 0 0 0-1.746-1.746m0 0" style="stroke:none;fill-rule:nonzero;fill:#eb8f00;fill-opacity:1"/><g clip-path="url(#b)"><g clip-path="url(#c)"><path d="M16.406 83.938h95.188" style="fill:none;stroke-width:4;stroke-linecap:butt;stroke-linejoin:miter;stroke:#b3b3b0;stroke-opacity:1;stroke-miterlimit:10" transform="scale(.125)"/></g></g><g clip-path="url(#d)"><g clip-path="url(#e)"><path d="M37.031 68.656v30.531" style="fill:none;stroke-width:4;stroke-linecap:butt;stroke-linejoin:miter;stroke:#b3b3b0;stroke-opacity:1;stroke-miterlimit:10" transform="scale(.125)"/></g></g><g clip-path="url(#f)"><g clip-path="url(#g)"><path d="M50.75 68.656v30.531" style="fill:none;stroke-width:4;stroke-linecap:butt;stroke-linejoin:miter;stroke:#b3b3b0;stroke-opacity:1;stroke-miterlimit:10" transform="scale(.125)"/></g></g><g clip-path="url(#h)"><g clip-path="url(#i)"><path d="M64.5 68.656v30.531" style="fill:none;stroke-width:4;stroke-linecap:butt;stroke-linejoin:miter;stroke:#b3b3b0;stroke-opacity:1;stroke-miterlimit:10" transform="scale(.125)"/></g></g><g clip-path="url(#j)"><g clip-path="url(#k)"><path d="M78.25 68.656v30.531" style="fill:none;stroke-width:4;stroke-linecap:butt;stroke-linejoin:miter;stroke:#b3b3b0;stroke-opacity:1;stroke-miterlimit:10" transform="scale(.125)"/></g></g><g clip-path="url(#l)"><g clip-path="url(#m)"><path d="M92 68.656v30.531" style="fill:none;stroke-width:4;stroke-linecap:butt;stroke-linejoin:miter;stroke:#b3b3b0;stroke-opacity:1;stroke-miterlimit:10" transform="scale(.125)"/></g></g><path d="M5.582 4.734c-.523 0-1 .442-1 1.176 0 .735.477 1.176 1 1.176.527 0 1-.441 1-1.176s-.473-1.176-1-1.176M10.418 4.734c-.527 0-1 .442-1 1.176 0 .735.473 1.176 1 1.176.523 0 1-.441 1-1.176s-.477-1.176-1-1.176m0 0" style="stroke:none;fill-rule:nonzero;fill:#242424;fill-opacity:1"/></svg>