<svg xmlns="http://www.w3.org/2000/svg" width="16pt" height="16pt" viewBox="0 0 16 16"><defs><clipPath id="b"><path d="M3 9h10v5H3Zm0 0"/></clipPath><clipPath id="c"><path d="M9.125 12.945c2.016-.363 3.352-1.68 3.664-3.16.059-.27-.21-.504-.512-.457-1.226.207-2.699.324-4.277.324-1.582 0-3.05-.117-4.277-.324-.305-.047-.575.192-.512.461.406 1.785 2.371 3.254 4.785 3.254a6.5 6.5 0 0 0 1.129-.098"/></clipPath><clipPath id="d"><path d="M3 9h10v2H3Zm0 0"/></clipPath><clipPath id="e"><path d="M9.125 12.945c2.016-.363 3.352-1.68 3.664-3.16.059-.27-.21-.504-.512-.457-1.226.207-2.699.324-4.277.324-1.582 0-3.05-.117-4.277-.324-.305-.047-.575.192-.512.461.406 1.785 2.371 3.254 4.785 3.254a6.5 6.5 0 0 0 1.129-.098"/></clipPath><clipPath id="f"><path d="M5 11h6v3H5Zm0 0"/></clipPath><clipPath id="g"><path d="M9.125 12.945c2.016-.363 3.352-1.68 3.664-3.16.059-.27-.21-.504-.512-.457-1.226.207-2.699.324-4.277.324-1.582 0-3.05-.117-4.277-.324-.305-.047-.575.192-.512.461.406 1.785 2.371 3.254 4.785 3.254a6.5 6.5 0 0 0 1.129-.098"/></clipPath><linearGradient id="a" x1="64.44" x2="64.44" y1="14.199" y2="115.76" gradientTransform="scale(.125)" gradientUnits="userSpaceOnUse"><stop offset=".001" style="stop-color:#9cd18d;stop-opacity:1"/><stop offset=".544" style="stop-color:#6aae74;stop-opacity:1"/><stop offset="1" style="stop-color:#3c8f5e;stop-opacity:1"/></linearGradient></defs><path d="M8.055 14.465c-3.723 0-6.75-2.293-6.75-5.106 0-1.062.425-2.082 1.234-2.945a.67.67 0 0 0 .047-.855 2.55 2.55 0 0 1-.477-1.493 2.59 2.59 0 0 1 2.594-2.582 2.59 2.59 0 0 1 2.598 2.582v.016c0 .05.02.102.058.137.036.031.082.05.13.05H7.5q.304-.018.555-.019c.183 0 .375.008.586.02h.011c.051 0 .098-.016.133-.051a.18.18 0 0 0 .055-.14v-.013a2.59 2.59 0 0 1 2.598-2.582 2.59 2.59 0 0 1 2.593 2.582c0 .543-.168 1.063-.488 1.504a.676.676 0 0 0 .043.856c.8.863 1.223 1.875 1.223 2.93-.004 2.816-3.032 5.109-6.754 5.109m0 0" style="stroke:none;fill-rule:nonzero;fill:url(#a)"/><path d="M11.434 1.672a2.4 2.4 0 0 1 2.406 2.394c0 .504-.156.985-.45 1.395a.86.86 0 0 0 .06 1.094c.765.828 1.167 1.793 1.167 2.8 0 2.711-2.941 4.918-6.562 4.918S1.492 12.07 1.492 9.355c0-1.011.41-1.984 1.184-2.812a.866.866 0 0 0 .062-1.094 2.37 2.37 0 0 1-.441-1.383 2.4 2.4 0 0 1 2.406-2.394 2.4 2.4 0 0 1 2.406 2.39v.016c0 .106.043.207.121.277a.36.36 0 0 0 .254.102h.028q.298-.019.543-.02c.18 0 .367.008.574.02h.023a.38.38 0 0 0 .258-.102.38.38 0 0 0 .117-.273v-.016a2.4 2.4 0 0 1 2.407-2.394m0-.375a2.775 2.775 0 0 0-2.782 2.77v.015a10 10 0 0 0-1.168-.004v-.016a2.777 2.777 0 0 0-2.78-2.769 2.777 2.777 0 0 0-2.782 2.77c0 .597.187 1.148.512 1.601a.49.49 0 0 1-.032.621c-.808.867-1.285 1.926-1.285 3.07 0 2.926 3.106 5.293 6.938 5.293s6.937-2.367 6.937-5.293c0-1.136-.469-2.19-1.27-3.054a.49.49 0 0 1-.027-.621c.328-.453.52-1.012.52-1.614a2.775 2.775 0 0 0-2.781-2.77m0 0" style="stroke:none;fill-rule:nonzero;fill:#388558;fill-opacity:1"/><path d="M6.402 4.297a1.624 1.624 0 1 1-3.25 0 1.624 1.624 0 1 1 3.25 0m0 0" style="stroke:none;fill-rule:nonzero;fill:#fff;fill-opacity:1"/><path d="M5.578 4.297a.799.799 0 0 1-1.598 0 .798.798 0 0 1 1.598 0m0 0" style="stroke:none;fill-rule:nonzero;fill:#404040;fill-opacity:1"/><path d="M13 4.297a1.624 1.624 0 1 1-3.25 0 1.624 1.624 0 1 1 3.25 0m0 0" style="stroke:none;fill-rule:nonzero;fill:#fff;fill-opacity:1"/><path d="M12.172 4.297a.798.798 0 1 1-1.596-.002.798.798 0 0 1 1.596.002M7.7 7.871c0-.27-.138-.484-.305-.484-.165 0-.301.215-.301.484 0 .266.136.484.3.484.168 0 .305-.218.305-.484M8.996 7.871c0-.27-.133-.484-.3-.484-.165 0-.301.215-.301.484 0 .266.136.484.3.484.168 0 .301-.218.301-.484m0 0" style="stroke:none;fill-rule:nonzero;fill:#404040;fill-opacity:1"/><g clip-path="url(#b)"><g clip-path="url(#c)"><path d="M64 77.219c-12.656 0-24.406-.938-34.219-2.594-2.437-.375-4.593 1.531-4.093 3.688 3.25 14.28 18.968 26.03 38.28 26.03 21.157 0 35.376-12.124 38.345-26.062.437-2.156-1.688-4.031-4.126-3.656-9.78 1.656-21.53 2.594-34.187 2.594Zm0 0" style="fill-rule:nonzero;fill:#404040;fill-opacity:1;stroke-width:1.297;stroke-linecap:butt;stroke-linejoin:miter;stroke:#404040;stroke-opacity:1;stroke-miterlimit:10" transform="scale(.125)"/></g></g><g clip-path="url(#d)"><g clip-path="url(#e)"><path d="M13.375 9.293V8H2.625v1.293A11.45 11.45 0 0 0 8 10.641c1.898 0 3.75-.48 5.375-1.348m0 0" style="stroke:none;fill-rule:nonzero;fill:#fff;fill-opacity:1"/></g></g><g clip-path="url(#f)"><g clip-path="url(#g)"><path d="M8 11.805c-1.184 0-2.219.578-2.77 1.437.715.352 1.692.567 2.77.567s2.055-.215 2.77-.567c-.551-.86-1.586-1.437-2.77-1.437m0 0" style="stroke:none;fill-rule:nonzero;fill:#ff4f4f;fill-opacity:1"/></g></g></svg>