<svg xmlns="http://www.w3.org/2000/svg" width="16pt" height="16pt" viewBox="0 0 16 16"><defs><linearGradient id="b" x1="26.975" x2="26.975" y1="51.531" y2="131.29" gradientTransform="scale(.125)" gradientUnits="userSpaceOnUse"><stop offset=".01" style="stop-color:#efd3d7;stop-opacity:1"/><stop offset=".205" style="stop-color:#e3c5ca;stop-opacity:1"/><stop offset=".435" style="stop-color:#d1afb5;stop-opacity:1"/><stop offset=".953" style="stop-color:#907894;stop-opacity:1"/></linearGradient><linearGradient id="c" x1="51.62" x2="51.62" y1="130.55" y2="11.535" gradientTransform="scale(.125)" gradientUnits="userSpaceOnUse"><stop offset=".01" style="stop-color:#efd3d7;stop-opacity:1"/><stop offset=".232" style="stop-color:#ddbec3;stop-opacity:1"/><stop offset=".435" style="stop-color:#d1afb5;stop-opacity:1"/><stop offset="1" style="stop-color:#907894;stop-opacity:1"/></linearGradient><linearGradient id="d" x1="79.244" x2="79.244" y1="54.661" y2="128.91" gradientTransform="scale(.125)" gradientUnits="userSpaceOnUse"><stop offset=".01" style="stop-color:#efd3d7;stop-opacity:1"/><stop offset=".205" style="stop-color:#e3c5ca;stop-opacity:1"/><stop offset=".435" style="stop-color:#d1afb5;stop-opacity:1"/><stop offset=".953" style="stop-color:#907894;stop-opacity:1"/></linearGradient><linearGradient id="e" x1="102.06" x2="102.06" y1="41.459" y2="126.19" gradientTransform="scale(.125)" gradientUnits="userSpaceOnUse"><stop offset=".01" style="stop-color:#efd3d7;stop-opacity:1"/><stop offset=".205" style="stop-color:#e3c5ca;stop-opacity:1"/><stop offset=".435" style="stop-color:#d1afb5;stop-opacity:1"/><stop offset=".953" style="stop-color:#907894;stop-opacity:1"/></linearGradient><linearGradient id="f" x1="64" x2="64" y1="5.219" y2="112.26" gradientTransform="scale(.125)" gradientUnits="userSpaceOnUse"><stop offset="0" style="stop-color:#e2d3f5;stop-opacity:1"/><stop offset="1" style="stop-color:#9f88ba;stop-opacity:1"/></linearGradient><radialGradient id="a" cx="63.47" cy="85.108" r="57.963" fx="63.47" fy="85.108" gradientTransform="scale(.125)" gradientUnits="userSpaceOnUse"><stop offset=".011" style="stop-color:#fafafa;stop-opacity:1"/><stop offset=".999" style="stop-color:#debcc0;stop-opacity:1"/></radialGradient></defs><path d="M7.367 1.355a.12.12 0 0 0-.07.118c.016.472-.031 2.816-2.39 4.511-1.778 1.278-3.762 2.434-3.762 4.73 0 2.567 2.132 2.704 2.132 2.704s-.035.621.825 1.2c1.128.757 2.437.148 2.437.148s.492.68 1.629.68c1.504 0 1.996-.903 1.996-.903s.649.375 1.34.227c1.406-.305 1.547-1.52 1.547-1.52s1.336.113 1.738-1.734c.352-1.621-.89-3.22-2.86-4.586-1.972-1.364-2.617-1.758-2.757-2.973-.11-.953.09-2.578.187-3.23.02-.125-.125-.2-.242-.149Zm0 0" style="stroke:none;fill-rule:nonzero;fill:url(#a)"/><path d="M2.406 13.145c.364.195.746.257.871.273-.328-2.04.54-3.29 1.305-4.598-1.21 1.11-3.094 2.688-2.176 4.325m0 0" style="stroke:none;fill-rule:nonzero;fill:url(#b)"/><path d="M7.082 2.992c-.004.555-.086 1.246-.496 2.406-.508 1.438-1.547 2.985-1.547 2.985s1.168-1.438 2-2.625c.293 1.75-2.312 4.144-2.312 6.375 0 2.52 1.8 2.629 1.8 2.629s-1.64-1.075-.05-4.504C8.082 6.797 8.504 3.852 7.94 1.102l-.296.128a.6.6 0 0 0-.352.524c-.012.289-.059.726-.211 1.238m0 0" style="stroke:none;fill-rule:nonzero;fill:url(#c)"/><path d="M11.047 11.57c-.621-3-2.152-3.27-2.027-6.02-.563 2.337-.407 3.938.5 5.442 1.222 2.031.648 3.551.648 3.551.074.035 1.258-1.125.879-2.973m0 0" style="stroke:none;fill-rule:nonzero;fill:url(#d)"/><path d="m13.176 9.055.363 1.515s-1.066-1.851-2.418-2.96c0 0 1.637 1.976 1.93 3.82.144.922 0 1.824 0 1.824s.761.008 1.234-.703c.547-2.356-1.11-3.496-1.11-3.496m0 0" style="stroke:none;fill-rule:nonzero;fill:url(#e)"/><path d="M8.95 1.047c-.106.82-.352 2.07-.259 2.867.164 1.418.93 1.945 2.778 3.223l.265.183c1.97 1.364 2.934 2.348 2.754 3.934-.168 1.516-1.289 1.7-1.402 1.707 0 0-.078 1.242-1.473 1.398-.96.102-1.336-.332-1.336-.332S9.79 15.07 8.172 15.11c-1.176.032-1.973-.699-1.973-.699s-.558.309-1.37.137a2.14 2.14 0 0 1-1.376-.93c-.219-.344-.223-.547-.223-.547-.32-.035-1.777-.234-1.742-2.293 0-1.863 1.512-2.93 3.114-4.054.175-.125.355-.25.527-.375C7.457 4.676 7.64 2.44 7.664 1.555l1.152-.453Zm.398-.461a.27.27 0 0 0-.23-.008l-1.782.79a.08.08 0 0 0-.043.073c.02.38.035 2.801-2.387 4.543-1.777 1.278-3.761 2.434-3.761 4.73 0 2.306 1.507 2.61 1.855 2.657 0 0 .02.566.93 1.172.433.289 1.066.457 1.465.457.527 0 .671-.086.925-.14 0 0 .524.585 1.848.585 1.594 0 2.148-.828 2.148-.828.141.07.418.188.852.188 1.71.203 2.156-1.551 2.156-1.551.281-.027 1.309-.258 1.508-2.02.207-1.84-.93-2.937-2.902-4.304-1.973-1.364-2.617-1.758-2.758-2.973-.129-1.102.16-2.96.215-3.293a.08.08 0 0 0-.04-.078m0 0" style="stroke:none;fill-rule:nonzero;fill:url(#f)"/></svg>