<svg xmlns="http://www.w3.org/2000/svg" xmlns:xlink="http://www.w3.org/1999/xlink" width="16pt" height="16pt" viewBox="0 0 16 16"><defs><clipPath id="f"><path d="M4 7h8v4H4Zm0 0"/></clipPath><clipPath id="g"><path d="M8 7.71c-1.191 0-2.293-.097-3.215-.269a.33.33 0 0 0-.387.387c.309 1.5 1.782 2.73 3.598 2.73 1.988 0 3.328-1.269 3.606-2.734a.332.332 0 0 0-.387-.383c-.922.172-2.027.27-3.215.27m0 0"/></clipPath><clipPath id="b"><path d="M0 0h16v16H0z"/></clipPath><clipPath id="j"><path d="M6 7h4v5H6Zm0 0"/></clipPath><clipPath id="k"><path d="M4.785 7.89v4.13h6.36V7.89c-.946.165-2.032.255-3.145.255s-2.2-.086-3.14-.25"/></clipPath><clipPath id="l"><path d="M4 7h8v6H4Zm0 0"/></clipPath><clipPath id="m"><path d="M4.785 7.89v4.13h6.36V7.89c-.946.165-2.032.255-3.145.255s-2.2-.086-3.14-.25"/></clipPath><clipPath id="c"><path d="M0 0h16v16H0z"/></clipPath><clipPath id="d"><path d="M0 0h16v16H0z"/></clipPath><mask id="h"><g filter="url(#a)"><path d="M0 0h16v16H0z" style="fill:#000;fill-opacity:.2;stroke:none"/></g></mask><mask id="n"><g filter="url(#a)"><path d="M0 0h16v16H0z" style="fill:#000;fill-opacity:.301961;stroke:none"/></g></mask><mask id="p"><g filter="url(#a)"><path d="M0 0h16v16H0z" style="fill:#000;fill-opacity:.301961;stroke:none"/></g></mask><g id="i" clip-path="url(#b)"><path d="M11.219 7.824a2.9 2.9 0 0 1-1.016 1.625c-.594.48-1.355.735-2.207.735-1.531 0-2.898-1.012-3.215-2.36.961.172 2.074.262 3.219.262s2.258-.09 3.219-.262m.058-.386q-.032 0-.062.003c-.922.172-2.027.27-3.215.27-1.191 0-2.293-.098-3.215-.27q-.034-.004-.062-.003a.33.33 0 0 0-.325.39c.309 1.5 1.782 2.73 3.598 2.73 1.988 0 3.328-1.269 3.606-2.734a.328.328 0 0 0-.325-.386m0 0" style="stroke:none;fill-rule:nonzero;fill:#000;fill-opacity:1"/></g><g id="o" clip-path="url(#c)"><path d="M9.473 7.11v3.421c0 .606-.493 1.098-1.098 1.098h-.613A1.1 1.1 0 0 1 6.66 10.53V7.11zm.355-.355H6.305v3.777c0 .801.652 1.453 1.457 1.453h.613c.8 0 1.453-.652 1.453-1.453Zm0 0" style="stroke:none;fill-rule:nonzero;fill:#ab3f2e;fill-opacity:1"/></g><g id="q" clip-path="url(#d)"><path d="M64.531 54.031v25.532" style="fill:none;stroke-width:3;stroke-linecap:round;stroke-linejoin:miter;stroke:#ab3f2e;stroke-opacity:1;stroke-miterlimit:10" transform="scale(.125)"/></g><linearGradient id="e" x1="64" x2="64" y1="8.531" y2="121.13" gradientTransform="scale(.125)" gradientUnits="userSpaceOnUse"><stop offset=".001" style="stop-color:#c7c7c7;stop-opacity:1"/><stop offset=".28" style="stop-color:#cacaca;stop-opacity:1"/><stop offset=".525" style="stop-color:#d5d5d5;stop-opacity:1"/><stop offset=".758" style="stop-color:#e7e7e7;stop-opacity:1"/><stop offset=".947" style="stop-color:#fcfcfc;stop-opacity:1"/></linearGradient><filter id="a" width="100%" height="100%" x="0%" y="0%" filterUnits="objectBoundingBox"><feColorMatrix in="SourceGraphic" values="0 0 0 0 1 0 0 0 0 1 0 0 0 0 1 0 0 0 1 0"/></filter></defs><path d="M12.629 15.348c-.125 0-.418-.157-.676-.297-.488-.258-1.094-.578-1.691-.578-.532 0-.926.254-1.278.476-.312.2-.609.387-.984.395-.402-.008-.7-.203-1.016-.406-.355-.231-.718-.465-1.242-.465-.597 0-1.207.32-1.695.578-.258.136-.559.293-.684.293-.148 0-.402-.125-.414-.192 0-.007.004-.023.008-.03 0-.013.266-1.29.477-2.567.46-2.77.257-2.852.043-2.942C2.02 9.02.64 6.898.676 5.75c.004-.246.097-.512.242-.523q.019-.005.031-.004c.043 0 .055.007.18.164.074.093.168.207.305.34.64.62 1.168.898 2.003 1.058.016 0 .032.004.047.004q.09 0 .157-.059a.25.25 0 0 0 .093-.19V4.823c0-1.035.43-2.062 1.184-2.824.8-.805 1.887-1.25 3.066-1.25 2.332 0 4.301 1.867 4.301 4.074V6.54c0 .074.035.149.094.195a.25.25 0 0 0 .156.055q.025-.001.055-.008c.808-.183 1.422-.511 1.984-1.054.137-.133.23-.25.305-.344.129-.16.137-.16.176-.16h.03c.145.015.235.28.243.523.027 1.152-1.351 3.274-2.805 3.867-.218.09-.421.172.04 2.946.214 1.277.476 2.55.48 2.562 0 .012.004.02.004.027-.012.07-.266.2-.418.2m0 0" style="stroke:none;fill-rule:nonzero;fill:url(#e)"/><path d="M7.984 1c2.192 0 4.047 1.75 4.047 3.824V6.54a.502.502 0 0 0 .614.488c.855-.199 1.503-.543 2.101-1.12.137-.13.23-.247.305-.34.011.05.023.117.027.187.012.55-.312 1.324-.867 2.074-.543.73-1.227 1.324-1.785 1.555-.43.176-.559.515-.11 3.215a75 75 0 0 0 .457 2.457.5.5 0 0 1-.136.043c-.098-.02-.371-.16-.567-.266-.511-.273-1.144-.61-1.804-.61-.606 0-1.036.274-1.414.516-.293.188-.547.348-.844.36-.336-.012-.578-.168-.887-.368-.363-.238-.777-.507-1.375-.507-.664 0-1.3.336-1.812.609-.2.105-.47.246-.57.266a.5.5 0 0 1-.137-.043c.07-.344.28-1.399.457-2.453.449-2.704.316-3.043-.114-3.22-.554-.226-1.238-.82-1.78-1.55-.556-.75-.88-1.527-.864-2.078q.002-.113.027-.191.104.141.309.343c.68.66 1.238.953 2.129 1.121a.4.4 0 0 0 .093.012.5.5 0 0 0 .317-.117.49.49 0 0 0 .183-.383V4.824c0-.969.407-1.933 1.114-2.648C5.844 1.418 6.87 1 7.984 1m0-.5c-2.652 0-4.5 2.09-4.5 4.324V6.54c-.824-.156-1.289-.426-1.875-.992-.355-.34-.394-.574-.66-.574-.02 0-.035 0-.058.004-.325.035-.457.437-.465.765-.04 1.442 1.62 3.559 2.957 4.106.375.152-.672 5.226-.672 5.226-.102.324.43.524.656.524.453 0 1.461-.875 2.375-.875.906 0 1.305.855 2.266.87.894-.015 1.347-.87 2.254-.87.914 0 1.914.875 2.367.875.226 0 .762-.2.656-.524 0 0-1.047-5.074-.668-5.226 1.332-.547 2.996-2.664 2.957-4.106-.008-.328-.14-.73-.465-.765q-.03-.005-.058-.004c-.266 0-.301.234-.653.574-.59.566-1.183.836-1.867.992V4.824C12.531 2.551 10.543.5 7.984.5m0 0" style="stroke:none;fill-rule:nonzero;fill:#a1a1a1;fill-opacity:1"/><g clip-path="url(#f)"><g clip-path="url(#g)"><path d="M8 7.71c-1.191 0-2.293-.097-3.215-.269a.33.33 0 0 0-.387.387c.309 1.5 1.782 2.73 3.598 2.73 1.988 0 3.328-1.269 3.606-2.734a.332.332 0 0 0-.387-.383c-.922.172-2.027.27-3.215.27m0 0" style="stroke:none;fill-rule:nonzero;fill:#242424;fill-opacity:1"/><use xlink:href="#i" mask="url(#h)"/></g></g><g clip-path="url(#j)"><g clip-path="url(#k)"><path d="M8.375 11.984h-.613a1.456 1.456 0 0 1-1.457-1.453V6.754h3.523v3.777c0 .801-.652 1.453-1.453 1.453m0 0" style="stroke:none;fill-rule:nonzero;fill:#e04c74;fill-opacity:1"/></g></g><g clip-path="url(#l)"><g clip-path="url(#m)"><use xlink:href="#o" mask="url(#n)"/><use xlink:href="#q" mask="url(#p)"/></g></g><path d="M11.52 5.234c0 1.09-.883 1.973-1.973 1.973a1.974 1.974 0 1 1 1.973-1.973m0 0" style="stroke:none;fill-rule:nonzero;fill:#fff;fill-opacity:1"/><path d="M9.547 3.758a1.477 1.477 0 0 1 0 2.953A1.48 1.48 0 0 1 8.07 5.234c0-.812.66-1.476 1.477-1.476m0-.5a1.976 1.976 0 1 0 0 3.953c1.09 0 1.973-.887 1.973-1.977a1.973 1.973 0 0 0-1.973-1.976m0 0" style="stroke:none;fill-rule:nonzero;fill:#a1a1a1;fill-opacity:1"/><path d="M10.234 5.234a.694.694 0 0 0-.687-.703.695.695 0 0 0-.692.703c0 .387.31.7.692.7a.694.694 0 0 0 .687-.7M6.762 6.031l-.028-.011q-.007-.006-.027-.012A.1.1 0 0 0 6.68 6q-.032-.011-.086-.027a2.3 2.3 0 0 0-.438-.055c-.117 0-.246.008-.375.027-.023.004-.074.008-.097.012-.028.008-.059.012-.09.02a2 2 0 0 0-.477.16 2 2 0 0 0-.183.105l-.047.031-.016.016-.027.016a.226.226 0 0 1-.32-.047.23.23 0 0 1 0-.274s.003-.007.019-.027c.012-.016.031-.043.059-.07a1 1 0 0 1 .101-.102q.06-.054.14-.11c.106-.073.239-.144.387-.198.07-.028.149-.055.227-.075q.06-.01.125-.027l.121-.02c.16-.023.328-.027.484-.015.157.015.305.047.426.086q.096.035.168.07c.051.02.086.047.125.07q.028.016.051.032c.008.007.02.015.023.02l.024.015a.24.24 0 0 1 .035.328.24.24 0 0 1-.277.07m0 0" style="stroke:none;fill-rule:nonzero;fill:#242424;fill-opacity:1"/><path d="M6.7 5.945s-.009-.004-.02-.02l-.051-.038c-.043-.035-.106-.09-.188-.153-.086-.058-.183-.129-.296-.199q-.084-.051-.172-.11c-.059-.034-.125-.07-.184-.1-.066-.04-.125-.075-.187-.106-.059-.032-.122-.063-.18-.094a7 7 0 0 0-.324-.148c-.094-.043-.172-.07-.227-.09-.05-.016-.082-.028-.082-.028l-.023-.004a.234.234 0 0 1-.149-.293.226.226 0 0 1 .227-.16h.031q.036.001.09.008c.078.008.183.024.3.055.122.031.258.078.395.133q.105.045.211.097l.207.106c.074.043.14.086.207.125q.1.066.192.133c.12.09.226.183.316.27.086.085.156.167.2.23a.4.4 0 0 1 .066.097.234.234 0 0 1-.079.32.24.24 0 0 1-.28-.03m0 0" style="stroke:none;fill-rule:nonzero;fill:#242424;fill-opacity:1"/></svg>