<svg xmlns="http://www.w3.org/2000/svg" xmlns:xlink="http://www.w3.org/1999/xlink" width="16pt" height="16pt" viewBox="0 0 16 16"><defs><radialGradient id="c" cx="25.701" cy="65.316" r="19.444" fx="25.701" fy="65.316" gradientTransform="matrix(.12239 0 0 .11626 .26 .926)" gradientUnits="userSpaceOnUse"><stop offset="0" style="stop-color:#ed7770;stop-opacity:1"/><stop offset=".9" style="stop-color:#ed7770;stop-opacity:0"/></radialGradient><radialGradient id="e" cx="100.77" cy="65.316" r="19.444" fx="100.77" fy="65.316" gradientTransform="matrix(.12239 0 0 .11626 .26 .926)" gradientUnits="userSpaceOnUse"><stop offset="0" style="stop-color:#ed7770;stop-opacity:1"/><stop offset=".9" style="stop-color:#ed7770;stop-opacity:0"/></radialGradient><radialGradient id="k" cx="92.422" cy="70.397" r="57.806" fx="92.422" fy="70.397" gradientTransform="rotate(-121.543 128.082 8.713)scale(1 -1)" gradientUnits="userSpaceOnUse"><stop offset=".668" style="stop-color:#fee133;stop-opacity:1"/><stop offset=".872" style="stop-color:#f9b928;stop-opacity:1"/></radialGradient><clipPath id="b"><path d="M0 0h16v16H0z"/></clipPath><clipPath id="d"><path d="M0 0h16v16H0z"/></clipPath><mask id="g"><g filter="url(#a)"><path d="M0 0h16v16H0z" style="fill:#000;fill-opacity:.8;stroke:none"/></g></mask><mask id="i"><g filter="url(#a)"><path d="M0 0h16v16H0z" style="fill:#000;fill-opacity:.8;stroke:none"/></g></mask><g id="h" clip-path="url(#b)"><path d="M5.594 8.52a2.189 2.189 0 0 1-4.375 0c0-1.208.98-2.188 2.187-2.188s2.188.98 2.188 2.188m0 0" style="stroke:none;fill-rule:nonzero;fill:url(#c)"/></g><g id="j" clip-path="url(#d)"><path d="M14.781 8.52c0 1.207-.98 2.187-2.187 2.187a2.19 2.19 0 0 1-2.188-2.187 2.189 2.189 0 0 1 4.375 0m0 0" style="stroke:none;fill-rule:nonzero;fill:url(#e)"/></g><linearGradient id="f" x1="64" x2="64" y1="19.717" y2="107.7" gradientTransform="scale(.125)" gradientUnits="userSpaceOnUse"><stop offset=".5" style="stop-color:#fee133;stop-opacity:1"/><stop offset=".612" style="stop-color:#fede32;stop-opacity:1"/><stop offset=".708" style="stop-color:#fcd32f;stop-opacity:1"/><stop offset=".797" style="stop-color:#fac12b;stop-opacity:1"/><stop offset=".883" style="stop-color:#f7a924;stop-opacity:1"/><stop offset=".9" style="stop-color:#f6a323;stop-opacity:1"/></linearGradient><filter id="a" width="100%" height="100%" x="0%" y="0%" filterUnits="objectBoundingBox"><feColorMatrix in="SourceGraphic" values="0 0 0 0 1 0 0 0 0 1 0 0 0 0 1 0 0 0 1 0"/></filter></defs><path d="M8 14.984C4.508 14.984.75 12.801.75 8 .75 3.2 4.508 1.016 8 1.016c1.934 0 3.727.636 5.047 1.8C14.488 4.09 15.25 5.883 15.25 8c0 2.11-.762 3.895-2.203 5.172C11.723 14.344 9.93 14.984 8 14.984m0 0" style="stroke:none;fill-rule:nonzero;fill:url(#f)"/><path d="M8 1.266c1.875 0 3.61.617 4.879 1.738C14.266 4.23 15 5.957 15 8c0 2.035-.734 3.758-2.121 4.984-1.277 1.13-3.008 1.75-4.879 1.75-1.879 0-3.613-.613-4.879-1.726C1.734 11.789 1 10.058 1 8c0-2.066.734-3.8 2.121-5.02C4.383 1.875 6.117 1.266 8 1.266m0-.5C4.105.766.5 3.266.5 8c0 4.71 3.605 7.234 7.5 7.234s7.5-2.59 7.5-7.234C15.5 3.328 11.895.766 8 .766m0 0" style="stroke:none;fill-rule:nonzero;fill:#eb8f00;fill-opacity:1"/><use xlink:href="#h" mask="url(#g)"/><use xlink:href="#j" mask="url(#i)"/><path d="M45.719 57.406c2.531-.531 4.562 3.469 5.031 5.407 1.25 5-2.531 7.78-3.281 12.312-.157 1 .093 2.25.906 1.656.344-.281 24.719-14.937 24.719-14.937 2.656-1.625 5.781-1.344 7.406 1.281 1.625 2.656.469 5.594-2.187 7.219L59.969 81.938 84.938 67.03c2.656-1.625 5.812-1.344 7.437 1.313 1.625 2.625.469 5.562-2.219 7.187l-24.75 15.625L85.812 79c2.657-1.625 5.813-1.344 7.438 1.281 1.625 2.656.438 5.594-2.219 7.219l-20.156 12.813L83.313 93c2.656-1.625 5.78-1.344 7.406 1.313 1.625 2.624.156 5.03-2.5 6.656 0 0-30.563 18.25-33.5 19.625-4.844 2.281-15.094 5.062-24.031-9.469-11.5-18.75-.844-26.406 2.062-31.187 2.313-3.75 5.219-7.532 7.156-11.626 1.719-3.593 1.219-9.968 5.813-10.906m0 0" style="fill-rule:nonzero;fill:url(#k);stroke-width:4;stroke-linecap:round;stroke-linejoin:round;stroke:#eb8f00;stroke-opacity:1;stroke-miterlimit:10" transform="scale(.125)"/><path d="M6.195 6.14q-.001.002-.02-.027-.016-.021-.054-.066-.025-.03-.066-.07-.043-.048-.09-.094a2 2 0 0 0-.106-.09 1 1 0 0 0-.105-.066c-.031-.024-.063-.028-.082-.032-.008-.004-.02-.004-.027-.008-.004.004-.004 0-.008 0l-.008.004h-.004c.016 0-.031 0 .035-.003l-.07.003h-.004.008c.011-.003 0 0 0 0q-.008-.001-.016.004c-.02.008-.05.012-.082.032a1 1 0 0 0-.105.066c-.032.027-.07.059-.102.09a3 3 0 0 0-.226.25l-.032.035a.53.53 0 0 1-.703.074.45.45 0 0 1-.183-.433s.011-.051.035-.141a1.67 1.67 0 0 1 .578-.844c.105-.078.23-.156.383-.207q.053-.022.113-.039c.043-.008.074-.02.129-.027l.078-.012c.023 0 .059-.004.062-.004l.07-.008h.067l.031.004.067.004q.06.008.125.016a1.348 1.348 0 0 1 .613.273c.211.156.336.332.426.477q.063.112.098.207a1 1 0 0 1 .058.168c.016.043.016.066.024.09l.003.03c.047.25-.14.493-.414.532a.52.52 0 0 1-.496-.187M10.883 6.14q-.001.002-.02-.027-.018-.021-.054-.066-.025-.03-.067-.07-.041-.048-.09-.094a2 2 0 0 0-.105-.09.7.7 0 0 0-.106-.066c-.03-.024-.062-.028-.082-.032-.007-.004-.02-.004-.027-.008-.004.004-.004 0-.008 0l-.008.004h-.004c.016 0-.035 0 .036-.003l-.07.003h-.005.008c.012-.003 0 0-.004 0q-.006-.001-.011.004c-.02.008-.051.012-.082.032a.7.7 0 0 0-.106.066q-.053.042-.105.09a5 5 0 0 0-.16.176l-.067.074-.027.035a.53.53 0 0 1-.703.074.44.44 0 0 1-.184-.433s.008-.051.035-.141c.024-.09.07-.215.156-.363.086-.149.211-.32.422-.48.102-.079.23-.157.38-.208a1 1 0 0 1 .116-.039c.04-.008.075-.02.13-.027l.077-.012c.024 0 .059-.004.063-.004l.07-.008h.067l.03.004.063.004q.066.008.125.016.125.022.239.062a1.571 1.571 0 0 1 .902.895c.027.058.043.12.059.168.015.043.015.066.02.09q.006.03.007.03c.043.25-.14.493-.414.532a.52.52 0 0 1-.496-.187m0 0" style="stroke:none;fill-rule:nonzero;fill:#242424;fill-opacity:1"/></svg>