<svg xmlns="http://www.w3.org/2000/svg" width="16pt" height="16pt" viewBox="0 0 16 16"><defs><linearGradient id="a" x1="63.992" x2="63.992" y1="20.702" y2="106.73" gradientTransform="scale(.125)" gradientUnits="userSpaceOnUse"><stop offset=".5" style="stop-color:#fee133;stop-opacity:1"/><stop offset=".612" style="stop-color:#fede32;stop-opacity:1"/><stop offset=".708" style="stop-color:#fcd32f;stop-opacity:1"/><stop offset=".797" style="stop-color:#fac12b;stop-opacity:1"/><stop offset=".883" style="stop-color:#f7a924;stop-opacity:1"/><stop offset=".9" style="stop-color:#f6a323;stop-opacity:1"/></linearGradient></defs><path d="M8 14.832C4.586 14.832.91 12.695.91 8S4.586 1.168 8 1.168c1.89 0 3.64.629 4.93 1.766C14.344 4.176 15.086 5.93 15.086 8c0 2.063-.742 3.809-2.156 5.059-1.29 1.144-3.043 1.773-4.93 1.773m0 0" style="stroke:none;fill-rule:nonzero;fill:url(#a)"/><path d="M8 1.418c1.828 0 3.523.605 4.766 1.703 1.355 1.195 2.07 2.883 2.07 4.879 0 1.988-.715 3.672-2.07 4.871-1.246 1.102-2.938 1.711-4.77 1.711-1.836 0-3.527-.602-4.766-1.687C1.875 11.703 1.16 10.012 1.16 8c0-2.02.715-3.715 2.07-4.902C4.465 2.016 6.16 1.418 8 1.418m0-.5C4.188.918.66 3.368.66 8c0 4.61 3.528 7.082 7.34 7.082 3.809 0 7.336-2.535 7.336-7.082C15.336 3.43 11.809.918 8 .918m0 0" style="stroke:none;fill-rule:nonzero;fill:#eb8f00;fill-opacity:1"/><path d="M15.5 5.676s-.531.011-.531.437c0 1.055.011 3.313-2.746 3.313-2.207 0-3.262-1.14-3.438-2.399-.074-.523-.258-1.093-.785-1.093s-.71.57-.785 1.093c-.176 1.258-1.23 2.399-3.438 2.399-2.757 0-2.746-2.258-2.746-3.313 0-.426-.531-.437-.531-.437v-1.04s1.023-.16 2.582-.16 2.184 0 3.422.126C7.238 4.676 8 4.684 8 4.684s.762-.008 1.496-.082c1.242-.122 1.863-.122 3.422-.122 1.562 0 2.582.157 2.582.157Zm0 0" style="stroke:none;fill-rule:nonzero;fill:#000;fill-opacity:1"/><path d="M2.64 6.492c-.011.203-.093.387-.288.422a.36.36 0 0 1-.422-.29c-.07-.37.011-.718.226-.98.203-.246.504-.386.824-.386.2 0 .375.125.375.324 0 .234-.187.332-.375.398-.18.067-.324.27-.34.512M10.586 6.492c-.012.203-.09.387-.29.422a.3.3 0 0 1-.066.008.366.366 0 0 1-.355-.297c-.07-.371.012-.719.23-.98.2-.247.5-.387.82-.387.2 0 .376.125.376.324 0 .234-.188.332-.375.398-.176.067-.324.27-.34.512m0 0" style="stroke:none;fill-rule:nonzero;fill:#858585;fill-opacity:1"/><path d="M8 11.727c-1.437 0-2.465-.747-2.773-1.22-.122-.179-.145-.378-.063-.527a.32.32 0 0 1 .3-.175q.066 0 .138.023a8.2 8.2 0 0 0 2.406.348c.84 0 1.668-.121 2.394-.348a.4.4 0 0 1 .137-.023c.129 0 .238.062.3.175.079.149.056.348-.062.528-.312.472-1.34 1.219-2.777 1.219m0 0" style="stroke:none;fill-rule:nonzero;fill:#242424;fill-opacity:1"/></svg>