<svg xmlns="http://www.w3.org/2000/svg" width="16pt" height="16pt" viewBox="0 0 16 16"><defs><clipPath id="b"><path d="M2 8h12v6H2Zm0 0"/></clipPath><clipPath id="c"><path d="M8 8.68c-1.965 0-3.79-.164-5.312-.446a.546.546 0 0 0-.637.641c.508 2.477 2.945 4.508 5.945 4.508 3.285 0 5.492-2.098 5.953-4.52a.545.545 0 0 0-.636-.629c-1.524.282-3.348.446-5.313.446m0 0"/></clipPath><clipPath id="d"><path d="M2 8h12v3H2Zm0 0"/></clipPath><clipPath id="e"><path d="M8 8.68c-1.965 0-3.79-.164-5.312-.446a.546.546 0 0 0-.637.641c.508 2.477 2.945 4.508 5.945 4.508 3.285 0 5.492-2.098 5.953-4.52a.545.545 0 0 0-.636-.629c-1.524.282-3.348.446-5.313.446m0 0"/></clipPath><clipPath id="f"><path d="M4 11h8v3H4Zm0 0"/></clipPath><clipPath id="g"><path d="M8 8.68c-1.965 0-3.79-.164-5.312-.446a.546.546 0 0 0-.637.641c.508 2.477 2.945 4.508 5.945 4.508 3.285 0 5.492-2.098 5.953-4.52a.545.545 0 0 0-.636-.629c-1.524.282-3.348.446-5.313.446m0 0"/></clipPath><clipPath id="h"><path d="M2 8h12v6H2Zm0 0"/></clipPath><clipPath id="i"><path d="M8 8.68c-1.965 0-3.79-.164-5.312-.446a.546.546 0 0 0-.637.641c.508 2.477 2.945 4.508 5.945 4.508 3.285 0 5.492-2.098 5.953-4.52a.545.545 0 0 0-.636-.629c-1.524.282-3.348.446-5.313.446m0 0"/></clipPath><clipPath id="j"><path d="M1.344 6.676v1.863C3.39 9.74 5.64 10.41 8 10.41s4.61-.672 6.656-1.87V6.675ZM8 11.668c-1.473 0-2.758.8-3.441 1.992.89.485 2.105.785 3.441.785 1.34 0 2.55-.3 3.441-.785A3.96 3.96 0 0 0 8 11.668m0 0"/></clipPath><linearGradient id="a" x1="63.742" x2="63.742" y1="18.823" y2="106.85" gradientTransform="scale(.125)" gradientUnits="userSpaceOnUse"><stop offset=".5" style="stop-color:#fee133;stop-opacity:1"/><stop offset=".612" style="stop-color:#fede32;stop-opacity:1"/><stop offset=".708" style="stop-color:#fcd32f;stop-opacity:1"/><stop offset=".797" style="stop-color:#fac12b;stop-opacity:1"/><stop offset=".883" style="stop-color:#f7a924;stop-opacity:1"/><stop offset=".9" style="stop-color:#f6a323;stop-opacity:1"/></linearGradient><linearGradient id="k" x1="10.672" x2="10.672" y1="35.665" y2="35.582" gradientTransform="scale(.125)" gradientUnits="userSpaceOnUse"><stop offset="0" style="stop-color:#9e9e9e;stop-opacity:1"/><stop offset="1" style="stop-color:#616161;stop-opacity:1"/></linearGradient><linearGradient id="l" x1="10.296" x2="10.296" y1="35.92" y2="35.673" gradientTransform="scale(.125)" gradientUnits="userSpaceOnUse"><stop offset="0" style="stop-color:#9e9e9e;stop-opacity:1"/><stop offset="1" style="stop-color:#616161;stop-opacity:1"/></linearGradient><linearGradient id="m" x1="229.46" x2="229.46" y1="35.665" y2="35.582" gradientTransform="matrix(-.125 0 0 .125 43.39 0)" gradientUnits="userSpaceOnUse"><stop offset="0" style="stop-color:#9e9e9e;stop-opacity:1"/><stop offset="1" style="stop-color:#616161;stop-opacity:1"/></linearGradient><linearGradient id="n" x1="229.08" x2="229.08" y1="35.92" y2="35.673" gradientTransform="matrix(-.125 0 0 .125 43.39 0)" gradientUnits="userSpaceOnUse"><stop offset="0" style="stop-color:#9e9e9e;stop-opacity:1"/><stop offset="1" style="stop-color:#616161;stop-opacity:1"/></linearGradient></defs><path d="M7.969 14.879C4.473 14.879.715 12.69.715 7.89.715 3.086 4.477.902 7.969.902c1.933 0 3.726.641 5.047 1.805 1.441 1.273 2.207 3.066 2.207 5.184 0 2.109-.766 3.898-2.207 5.175-1.325 1.168-3.118 1.813-5.047 1.813m0 0" style="stroke:none;fill-rule:nonzero;fill:url(#a)"/><path d="M7.969 1.152c1.875 0 3.61.618 4.879 1.743 1.386 1.222 2.12 2.953 2.12 4.996 0 2.035-.734 3.761-2.12 4.988-1.278 1.129-3.012 1.754-4.883 1.754-1.88 0-3.613-.617-4.883-1.73C1.699 11.682.965 9.948.965 7.89c0-2.07.734-3.805 2.12-5.024C4.353 1.762 6.083 1.152 7.97 1.152m0-.5C4.074.652.465 3.152.465 7.891c0 4.714 3.61 7.242 7.504 7.242s7.5-2.594 7.5-7.242c.004-4.672-3.606-7.239-7.5-7.239m0 0" style="stroke:none;fill-rule:nonzero;fill:#eb8f00;fill-opacity:1"/><path d="M11.18 5.39c.484 0 .925.41.925 1.09s-.44 1.09-.925 1.09c-.489 0-.93-.41-.93-1.09s.445-1.09.93-1.09M4.82 5.39c-.484 0-.925.41-.925 1.09s.44 1.09.925 1.09c.489 0 .93-.41.93-1.09s-.445-1.09-.93-1.09m0 0" style="stroke:none;fill-rule:nonzero;fill:#242424;fill-opacity:1"/><g clip-path="url(#b)"><g clip-path="url(#c)"><path d="M8 8.68c-1.965 0-3.79-.164-5.312-.446a.546.546 0 0 0-.637.641c.508 2.477 2.945 4.508 5.945 4.508 3.285 0 5.492-2.098 5.953-4.52a.545.545 0 0 0-.636-.629c-1.524.282-3.348.446-5.313.446m0 0" style="stroke:none;fill-rule:nonzero;fill:#242424;fill-opacity:1"/></g></g><g clip-path="url(#d)"><g clip-path="url(#e)"><path d="M14.656 8.54V6.675H1.344v1.863C3.39 9.74 5.64 10.41 8 10.41s4.61-.672 6.656-1.87m0 0" style="stroke:none;fill-rule:nonzero;fill:#fff;fill-opacity:1"/></g></g><g clip-path="url(#f)"><g clip-path="url(#g)"><path d="M8 11.668c-1.473 0-2.758.8-3.441 1.992.89.485 2.105.785 3.441.785s2.55-.3 3.441-.785A3.96 3.96 0 0 0 8 11.668m0 0" style="stroke:none;fill-rule:nonzero;fill:#ed7770;fill-opacity:1"/></g></g><g clip-path="url(#h)"><g clip-path="url(#i)"><g clip-path="url(#j)"><path d="M13.414 8.75c.008 0 .016.012.016.016-.207 1.105-.825 2.12-1.73 2.855-.997.809-2.278 1.234-3.704 1.234a5.83 5.83 0 0 1-3.582-1.214c-.965-.754-1.621-1.774-1.848-2.875.004-.004.012-.016.024-.016 1.61.297 3.48.457 5.41.457s3.8-.16 5.41-.457zm0-.523q-.05-.002-.101.007c-1.524.282-3.348.45-5.313.45s-3.79-.168-5.312-.45a.546.546 0 0 0-.637.64c.508 2.478 2.945 4.509 5.945 4.509 3.285 0 5.492-2.098 5.953-4.52a.542.542 0 0 0-.535-.636m0 0" style="stroke:none;fill-rule:nonzero;fill:#eb8f00;fill-opacity:1"/></g></g></g><path d="M9.395 4.691a.18.18 0 0 0-.207-.03c-.004.003-.231.12-.516.1l-.035-.003a11 11 0 0 0-.715-.028H7.91c-.144 0-.453.016-.676.032-.277.015-.472-.094-.472-.094a.18.18 0 0 0-.219.02.23.23 0 0 0-.059.234l.375 1.226a.2.2 0 0 0 .16.145.19.19 0 0 0 .184-.102c.004-.003.234-.402.777-.41.536.008.77.395.778.41a.18.18 0 0 0 .164.102h.023a.21.21 0 0 0 .16-.148l.348-1.227a.23.23 0 0 0-.058-.227m0 0" style="stroke:none;fill-rule:nonzero;fill:#000;fill-opacity:1"/><path d="M7.383 4.8s-1-1.163-4.582-.827c-2.39.222-2.52.445-2.52.445l-.015.902s.355.102.59.387c.226.281.335 1.863.71 2.61.579 1.152 3.454.859 3.454.859s1.175.094 1.746-.895c.574-.984.75-2.41.75-2.41Zm-.84 2.106C6.316 7.961 6.031 8.68 4.078 8.57 2.824 8.496 1.95 8.5 1.746 6.668c-.121-1.14.016-1.57.11-1.707.093-.137.43-.531 2.37-.461 1.946.066 2.223.504 2.337.703.117.195.21.649-.02 1.703M8.484 5.871s.176 1.426.75 2.41c.57.989 1.746.895 1.746.895s2.875.293 3.454-.86c.375-.746.484-2.328.71-2.609.231-.285.59-.387.59-.387l-.015-.902s-.13-.223-2.52-.445c-3.582-.336-4.582.828-4.582.828Zm.95-.668c.113-.2.394-.637 2.336-.703 1.945-.07 2.28.324 2.375.46.093.138.23.567.105 1.708-.2 1.832-1.074 1.828-2.328 1.902-1.953.11-2.238-.61-2.465-1.664-.23-1.054-.137-1.508-.023-1.703m0 0" style="stroke:none;fill-rule:nonzero;fill:#000;fill-opacity:1"/><path d="M1.355 4.45q-.021 0-.042.007.021-.007.042-.008m0 0" style="stroke:none;fill-rule:nonzero;fill:url(#k)"/><path d="M1.27 4.484" style="stroke:none;fill-rule:nonzero;fill:url(#l)"/><path d="M14.688 4.45" style="stroke:none;fill-rule:nonzero;fill:url(#m)"/><path d="M14.773 4.484" style="stroke:none;fill-rule:nonzero;fill:url(#n)"/><path d="M.945 5.031H.727a.19.19 0 0 1-.192-.191c0-.106.086-.195.192-.195h.218c.106 0 .192.09.192.195a.19.19 0 0 1-.192.191M15.273 5.031h-.218a.19.19 0 0 1-.192-.191c0-.106.086-.195.192-.195h.218c.106 0 .192.09.192.195a.19.19 0 0 1-.192.191m0 0" style="stroke:none;fill-rule:nonzero;fill:#fff;fill-opacity:1"/></svg>