<svg xmlns="http://www.w3.org/2000/svg" width="16pt" height="16pt" viewBox="0 0 16 16"><defs><radialGradient id="a" cx="51.77" cy="31.401" r="87.039" fx="51.77" fy="31.401" gradientTransform="matrix(-.00028 .125 -.09841 -.00021 9.575 -2.54)" gradientUnits="userSpaceOnUse"><stop offset=".6" style="stop-color:#e0bb95;stop-opacity:1"/><stop offset="1" style="stop-color:#cca47a;stop-opacity:1"/></radialGradient><radialGradient id="b" cx="1968" cy="-697.5" r="20.331" fx="1968" fy="-697.5" gradientTransform="matrix(-.17354 .00992 -.00468 -.08493 351.125 -71.43)" gradientUnits="userSpaceOnUse"><stop offset=".5" style="stop-color:#e0bb95;stop-opacity:1"/><stop offset=".995" style="stop-color:#cca47a;stop-opacity:1"/></radialGradient><radialGradient id="c" cx="2030.2" cy="-819.12" r="18.753" fx="2030.2" fy="-819.12" gradientTransform="matrix(-.21209 -.00024 .00036 -.08505 444.313 -59.424)" gradientUnits="userSpaceOnUse"><stop offset=".5" style="stop-color:#e0bb95;stop-opacity:1"/><stop offset=".703" style="stop-color:#deb892;stop-opacity:1"/><stop offset=".868" style="stop-color:#d6b088;stop-opacity:1"/><stop offset=".995" style="stop-color:#cca47a;stop-opacity:1"/></radialGradient><radialGradient id="d" cx="2072.2" cy="-723.45" r="20.446" fx="2072.2" fy="-723.45" gradientTransform="matrix(-.16336 -.00079 .00056 -.08505 351.587 -45.835)" gradientUnits="userSpaceOnUse"><stop offset=".5" style="stop-color:#e0bb95;stop-opacity:1"/><stop offset=".703" style="stop-color:#deb892;stop-opacity:1"/><stop offset=".868" style="stop-color:#d6b088;stop-opacity:1"/><stop offset=".995" style="stop-color:#cca47a;stop-opacity:1"/></radialGradient><radialGradient id="e" cx="2051.2" cy="-807.84" r="18.611" fx="2051.2" fy="-807.84" gradientTransform="matrix(-.20447 -.00024 .00035 -.08505 432.837 -56.19)" gradientUnits="userSpaceOnUse"><stop offset=".5" style="stop-color:#e0bb95;stop-opacity:1"/><stop offset=".703" style="stop-color:#deb892;stop-opacity:1"/><stop offset=".868" style="stop-color:#d6b088;stop-opacity:1"/><stop offset=".995" style="stop-color:#cca47a;stop-opacity:1"/></radialGradient></defs><path d="M10.691 15.207c-1.082-.008-2.699-.05-4.293-.2-1.093-.105-2.226-.269-3.085-.753-.243-.14-.508-.172-.743-.203a4 4 0 0 1-.273-.04 1.324 1.324 0 0 1-1.04-1.284l-.01-4.094c0-.567.401-1.04.96-1.125.012-.004.02-.004.031-.008.067-.023 1.711-.559 2.95-1.523A4.3 4.3 0 0 0 6.52 4.102c.253-.72.253-1.5.25-2.125 0-.407 0-.91.109-.985a1.6 1.6 0 0 1 .879-.265c.965 0 1.949.882 1.988 1.777.027.625-.184 1.36-.383 2.07-.238.84-.445 1.567-.258 2.059a.19.19 0 0 0 .176.12l.91-.03h.008c1.02 0 1.852.832 1.852 1.851l.008 5.274c0 .363-.141.707-.399.96a1.35 1.35 0 0 1-.96.399Zm0 0" style="stroke:none;fill-rule:nonzero;fill:url(#a)"/><path d="M7.758.914c.855 0 1.765.809 1.8 1.598.024.593-.18 1.312-.374 2.008-.25.875-.461 1.628-.254 2.18a.38.38 0 0 0 .351.241h.016l.898-.03h.008c.914 0 1.66.745 1.664 1.663l.004 5.274a1.167 1.167 0 0 1-1.168 1.172h-.012a52 52 0 0 1-4.273-.2c-1.074-.101-2.184-.261-3.016-.73-.273-.156-.57-.192-.808-.223a3 3 0 0 1-.254-.039 1.14 1.14 0 0 1-.895-1.101l-.011-4.094c0-.473.336-.867.804-.942.02 0 .04-.007.055-.011.07-.024 1.742-.57 3.008-1.559a4.47 4.47 0 0 0 1.394-1.957c.266-.746.262-1.547.262-2.187 0-.305 0-.72.05-.844.231-.149.481-.219.75-.219m0-.375c-.331 0-.667.09-.98.297-.406.27.032 1.879-.433 3.2A4.1 4.1 0 0 1 5.07 5.827C3.844 6.785 2.18 7.32 2.18 7.32a1.33 1.33 0 0 0-1.121 1.317l.011 4.093c.004.704.496 1.301 1.184 1.461.277.067.656.047.965.227.828.469 1.89.656 3.164.777 1.574.149 3.176.192 4.305.2h.015c.852 0 1.547-.692 1.543-1.547l-.004-5.274a2.04 2.04 0 0 0-2.039-2.039h-.015l-.907.031c-.312-.828.711-2.695.653-4.07C9.89 1.52 8.848.54 7.758.54m0 0" style="stroke:none;fill-rule:nonzero;fill:#ba8f63;fill-opacity:1"/><path d="M8.266 7.813c.234.625.238 1.601 0 2.203-.344.87-1.188 1.629-2.157 1.765-.238.031-.097.25.141.219 1.05-.145 2.473-.574 2.844-1.516 1.015-2.593-.172-3.953-.703-3.546-.254.195-.258.519-.125.875m0 0" style="stroke:none;fill-rule:nonzero;fill:#ba8f63;fill-opacity:1"/><path d="M10.785 8.738c-1.047 0-2.3-.191-2.355-1.117a.87.87 0 0 1 .246-.68c.472-.503 1.636-.777 3.277-.777.594 0 1.027.04 1.031.04h.032q.021-.006.05-.005c.532 0 .973.48 1.012 1.09.035.633-.379 1.172-.93 1.203l-.011.004h-.016c-.012.004-1.168.242-2.336.242m0 0" style="stroke:none;fill-rule:nonzero;fill:url(#b)"/><path d="M11.953 6.352c.586 0 1.012.035 1.016.035l.027.004h.027q.022-.005.043-.004c.43 0 .793.402.825.914.03.527-.309.98-.754 1.004l-.055.008c-.012.003-1.152.238-2.297.238-.664 0-1.191-.074-1.566-.227-.516-.21-.59-.508-.602-.715a.69.69 0 0 1 .195-.539c.43-.457 1.579-.718 3.141-.718m0-.375c-1.426 0-3.793.214-3.71 1.656.062 1.039 1.316 1.293 2.542 1.293 1.2 0 2.375-.246 2.375-.246.652-.04 1.149-.664 1.106-1.403-.043-.71-.575-1.265-1.2-1.265q-.032-.001-.062.004s-.438-.04-1.05-.04m0 0" style="stroke:none;fill-rule:nonzero;fill:#ba8f63;fill-opacity:1"/><path d="M11.57 11.117c-1.367 0-2.992-.226-2.992-1.32s1.625-1.32 2.992-1.32c1.157 0 2.207.168 2.22.168l.015.003h.015c.551 0 .934.582.934 1.106 0 .55-.41 1.191-.934 1.191h-.015l-.016.004c-.012 0-1.066.168-2.219.168m0 0" style="stroke:none;fill-rule:nonzero;fill:url(#c)"/><path d="M11.57 8.664c1.137 0 2.18.168 2.188.168l.031.004h.031c.426 0 .746.488.746.918 0 .453-.343 1.004-.746 1.004h-.03l-.032.008c-.008 0-1.051.164-2.188.164-.855 0-1.535-.09-2.02-.266-.702-.258-.784-.617-.784-.867s.082-.606.785-.863c.484-.18 1.164-.27 2.02-.27m0-.375c-1.493 0-3.18.274-3.18 1.508 0 1.238 1.687 1.512 3.18 1.512 1.183 0 2.25-.172 2.25-.172.644 0 1.12-.742 1.12-1.38 0-.64-.476-1.292-1.12-1.292 0-.004-1.067-.176-2.25-.176m0 0" style="stroke:none;fill-rule:nonzero;fill:#ba8f63;fill-opacity:1"/><path d="M12.61 15.273c-.528 0-3.196-.039-4-.851a.63.63 0 0 1-.212-.465c.004-.656 1.125-1.031 3.082-1.031.7 0 1.239.05 1.247.05h.015c.293 0 .57.122.774.336.21.22.324.508.324.817-.004.629-.496 1.14-1.102 1.14-.008.004-.054.004-.129.004m0 0" style="stroke:none;fill-rule:nonzero;fill:url(#d)"/><path d="M11.484 13.113c.684 0 1.22.051 1.223.051h.031a.9.9 0 0 1 .64.281c.177.18.274.426.27.684 0 .527-.41.957-.914.957h-.129c-2.27 0-3.5-.426-3.867-.793-.136-.14-.152-.258-.152-.332.004-.524 1.113-.848 2.898-.848m0-.375c-1.343 0-3.27.18-3.273 1.219-.004 1.434 3.664 1.504 4.398 1.504h.129c.711 0 1.285-.598 1.29-1.332 0-.738-.575-1.336-1.286-1.34 0 0-.547-.05-1.258-.05m0 0" style="stroke:none;fill-rule:nonzero;fill:#ba8f63;fill-opacity:1"/><path d="M12.14 13.29c-1.124 0-3.738-.126-3.738-1.31 0-.992 1.887-1.14 3.008-1.14.996 0 1.852.113 1.86.113h.027c.52 0 1.125.258 1.125.985 0 .687-.535 1.312-1.125 1.312h-.016c-.008 0-.488.04-1.14.04m0 0" style="stroke:none;fill-rule:nonzero;fill:url(#e)"/><path d="M11.41 10.656v.375c.98 0 1.828.11 1.836.11h.047c.453 0 .941.21.941.797 0 .578-.457 1.124-.941 1.124h-.016l-.015.004c-.004 0-.477.04-1.121.04-.684 0-1.657-.047-2.43-.25-.742-.2-1.121-.493-1.121-.872 0-.117 0-.468.793-.718.496-.157 1.176-.235 2.027-.235Zm0 0c-1.445 0-3.195.227-3.195 1.328 0 1.293 2.426 1.496 3.926 1.496.668 0 1.152-.043 1.152-.043.707 0 1.316-.726 1.316-1.5 0-.769-.609-1.171-1.316-1.171 0 0-.867-.11-1.883-.11M3.473 14.363 2.875 12l-.25 2.125Zm0 0" style="stroke:none;fill-rule:nonzero;fill:#ba8f63;fill-opacity:1"/></svg>