<svg xmlns="http://www.w3.org/2000/svg" width="16pt" height="16pt" viewBox="0 0 16 16"><defs><linearGradient id="a" x1="63.799" x2="63.799" y1="122.24" y2="5.237" gradientTransform="scale(.125)" gradientUnits="userSpaceOnUse"><stop offset="0" style="stop-color:#000;stop-opacity:1"/><stop offset=".216" style="stop-color:#0f0f0f;stop-opacity:1"/><stop offset=".633" style="stop-color:#373737;stop-opacity:1"/><stop offset=".837" style="stop-color:#4d4d4d;stop-opacity:1"/></linearGradient><linearGradient id="b" x1="63.807" x2="63.807" y1="43.351" y2="119.21" gradientTransform="scale(.125)" gradientUnits="userSpaceOnUse"><stop offset=".259" style="stop-color:#999;stop-opacity:1"/><stop offset=".409" style="stop-color:#949494;stop-opacity:1"/><stop offset=".587" style="stop-color:#868686;stop-opacity:1"/><stop offset=".778" style="stop-color:#6e6e6e;stop-opacity:1"/><stop offset=".967" style="stop-color:#4f4f4f;stop-opacity:1"/></linearGradient></defs><path d="M3.234 8.3q-.04 0-.086-.003c-1.011-.184-1.66-.977-1.644-2.02.008-.632.176-1.386.926-1.386q.446.002 1.086.332a.2.2 0 0 0 .082.02c.437.007.586.644.582 1.183-.012.886-.399 1.875-.946 1.875m0 0" style="stroke:none;fill-rule:nonzero;fill:#4d4d4d;fill-opacity:1"/><path d="M2.375 4.75v.375h.027c.266 0 .618.082 1.016.285.05.027.113.027.168.031.281.004.406.512.398.989-.007.851-.379 1.687-.75 1.687-.02 0-.035-.004-.054-.008-1.114-.199-1.528-1.074-1.52-1.828.012-.797.34-1.203.715-1.203zm.055-.047c-.828 0-1.102.75-1.114 1.57-.015 1.063.61 1.993 1.801 2.207.04.004.082.008.117.008 1.215 0 1.621-3.406.368-3.433-.477-.246-.864-.352-1.172-.352m0 0" style="stroke:none;fill-rule:nonzero;fill:#333;fill-opacity:1"/><path d="M12.766 8.3c-.547 0-.934-.988-.946-1.874-.004-.54.145-1.176.582-1.184a.2.2 0 0 0 .082-.02q.64-.329 1.086-.331c.75 0 .918.754.926 1.386.016 1.043-.633 1.836-1.644 2.02q-.047.005-.086.004m0 0" style="stroke:none;fill-rule:nonzero;fill:#4d4d4d;fill-opacity:1"/><path d="M13.57 5.078c.48 0 .727.406.739 1.203.011.75-.375 1.63-1.493 1.828q-.029.005-.05.004c-.375 0-.746-.836-.754-1.691-.008-.473.113-.988.394-.996a.35.35 0 0 0 .164-.04c.399-.202.735-.308 1-.308m0-.375c-.308 0-.695.106-1.172.352-1.253.023-.847 3.433.368 3.433.035 0 .078-.004.117-.008 1.191-.214 1.816-1.144 1.8-2.207-.011-.82-.285-1.57-1.113-1.57m0 0" style="stroke:none;fill-rule:nonzero;fill:#333;fill-opacity:1"/><path d="M7.836 15.281c-2.695 0-5.848-1.457-5.848-5.566 0-.902.285-1.637.559-2.344.25-.637.48-1.234.473-1.887a4.62 4.62 0 0 1 1.34-3.336C5.292 1.2 6.612.656 7.976.656c1.351 0 2.628.465 3.585 1.313 1.008.89 1.563 2.14 1.563 3.52 0 .636.184 1.226.379 1.85.223.716.457 1.458.457 2.38 0 3.82-3.176 5.562-6.125 5.562m0 0" style="stroke:none;fill-rule:nonzero;fill:url(#a)"/><path d="M7.977.844c1.308 0 2.539.449 3.46 1.265.684.606 1.5 1.684 1.5 3.38 0 .663.188 1.269.391 1.906.219.699.445 1.425.445 2.32 0 1.707-.652 3.12-1.882 4.082-1.059.82-2.536 1.293-4.051 1.293-1.547 0-2.945-.457-3.938-1.285-1.129-.942-1.722-2.356-1.722-4.09 0-.867.277-1.586.547-2.277.253-.653.492-1.27.48-1.958a4.44 4.44 0 0 1 1.29-3.203C5.39 1.367 6.66.844 7.976.844m0-.375c-2.805 0-5.188 2.164-5.145 5.02.02 1.312-1.031 2.464-1.031 4.226 0 4.004 2.941 5.754 6.035 5.754 3 0 6.312-1.75 6.312-5.754 0-1.77-.835-2.91-.835-4.227 0-3.062-2.555-5.02-5.336-5.02m0 0" style="stroke:none;fill-rule:nonzero;fill:#1a1a1a;fill-opacity:1"/><path d="M12.48 7.586c0-.969-.683-1.785-1.593-2.059a2.32 2.32 0 0 0-1.403.016c-.515.172-.941.789-1.52.789-.816 0-1.413-.91-2.241-.91-1.246 0-2.25.969-2.25 2.164 0 1.101.855 2.008 1.957 2.144-.727.75-.961 1.782-.961 2.5 0 1.254 1.386 2.672 3.578 2.672 2.195 0 3.418-1.422 3.418-2.672 0-.722-.164-1.757-.875-2.507 1.07-.168 1.89-1.059 1.89-2.137m0 0" style="stroke:none;fill-rule:nonzero;fill:url(#b)"/><path d="m11.32 13.43-.043-.086c-.03-.051-.07-.145-.125-.23-.03-.044-.058-.094-.093-.15-.04-.05-.082-.109-.125-.167q-.078-.087-.16-.18-.093-.088-.196-.183c-.074-.055-.144-.121-.23-.172q-.064-.04-.13-.086l-.14-.074c-.09-.055-.195-.094-.297-.141-.11-.035-.21-.082-.328-.113a4 4 0 0 0-.715-.153 6 6 0 0 0-.758-.047c-.128.004-.27 0-.39.012l-.188.012-.187.023c-.25.035-.492.078-.715.153-.117.03-.223.078-.328.113-.102.047-.207.086-.3.14q-.073.037-.138.075a3 3 0 0 1-.129.086c-.085.05-.156.117-.23.172q-.104.095-.195.183-.084.093-.16.18l-.125.168c-.04.055-.067.11-.098.152-.059.094-.09.176-.121.227l-.04.078-.007.015a.173.173 0 0 1-.23.075.17.17 0 0 1-.079-.219q-.001 0 .04-.09c.027-.062.058-.156.12-.262l.098-.18q.066-.093.137-.198c.05-.07.113-.141.176-.215a6 6 0 0 1 .214-.22c.086-.066.165-.144.262-.206q.07-.048.145-.102.075-.041.152-.09c.106-.066.223-.113.336-.171.117-.043.238-.098.363-.133a4.7 4.7 0 0 1 .785-.176q.104-.011.207-.027l.207-.016c.145-.012.27-.008.407-.016.285.008.554.016.828.059.27.04.535.094.785.176.125.035.246.09.363.133.114.058.23.105.336.171.051.032.106.063.153.09q.074.053.144.102c.098.062.18.14.262.207q.116.112.215.219.093.11.175.214.073.105.133.2c.043.066.075.129.106.183.066.114.086.196.117.254l.035.09a.17.17 0 0 1-.09.223.16.16 0 0 1-.21-.082M6.406 7.434c0-.403-.285-.727-.64-.727s-.645.324-.645.727.29.726.645.726.64-.324.64-.726M10.828 7.348c0-.403-.289-.727-.644-.727-.352 0-.641.324-.641.727s.289.73.64.73c.356 0 .645-.328.645-.73m0 0" style="stroke:none;fill-rule:nonzero;fill:#000;fill-opacity:1"/><path d="m9.5 10.117.074-.05c.04-.028.102-.075.172-.141.07-.067.152-.149.207-.25a.54.54 0 0 0 .063-.352c-.004-.031-.016-.07-.024-.097-.008-.024-.015-.051-.023-.067a.512.512 0 0 0-.156-.203.51.51 0 0 0-.442-.082.6.6 0 0 0-.129.04q-.083.033-.164.065l-.086.036-.031.011-.043.02q-.082.04-.168.074l-.164.074-.168.078-.164.079-.086.039-.04.02-.026.015c-.024.008-.07.027-.13.027a.4.4 0 0 1-.132-.031l-.016-.012-.043-.02-.082-.038-.172-.082-.332-.153c-.207-.086-.465-.207-.62-.246a.52.52 0 0 0-.438.082.6.6 0 0 0-.207.375.52.52 0 0 0 .066.344c.055.105.137.187.203.254.07.062.133.11.18.14q.065.047.066.047l.008.004a.19.19 0 0 1 .047.262.18.18 0 0 1-.246.055l-.082-.047c-.055-.035-.137-.082-.23-.16a1.5 1.5 0 0 1-.31-.336.94.94 0 0 1-.14-.637c.028-.215.13-.473.352-.66a.9.9 0 0 1 .39-.192c.149-.035.293-.03.446 0 .039.008.082.02.105.024l.043.015.024.008.007.004.024.008q.088.033.172.066.169.07.343.145.17.072.34.148l.168.078.13.059.027.012a.2.2 0 0 0-.09-.02c-.043 0-.075.016-.082.016-.008.004 0 .004.015-.008l.047-.02.082-.039.344-.156q.083-.034.172-.074.086-.035.168-.07l.043-.02.047-.02.086-.03q.081-.034.164-.067.1-.037.207-.063c.285-.062.617.004.832.196.109.09.195.203.25.32a1 1 0 0 0 .043.094c.007.031.015.047.023.074a.958.958 0 0 1-.105.809 1.5 1.5 0 0 1-.309.336 1.6 1.6 0 0 1-.23.16l-.079.047a.186.186 0 0 1-.254-.07.19.19 0 0 1 .063-.247m0 0" style="stroke:none;fill-rule:nonzero;fill:#666;fill-opacity:1"/><path d="m7.2 10.125-.63-.363a.28.28 0 0 1-.105-.38l.008-.015a.28.28 0 0 1 .382-.101l.63.363a.28.28 0 0 1 .1.383l-.007.011a.275.275 0 0 1-.379.102M8.75 10.125l.633-.363a.28.28 0 0 0 .101-.38l-.007-.015a.28.28 0 0 0-.383-.101l-.63.363a.28.28 0 0 0-.1.383l.007.011c.074.133.246.18.379.102m0 0" style="stroke:none;fill-rule:nonzero;fill:#000;fill-opacity:1"/></svg>