<svg xmlns="http://www.w3.org/2000/svg" width="16pt" height="16pt" viewBox="0 0 16 16"><defs><radialGradient id="c" cx="2113.8" cy="196" r="16.524" fx="2113.8" fy="196" gradientTransform="matrix(-.10255 .07249 -.04757 -.06782 231.412 -130.988)" gradientUnits="userSpaceOnUse"><stop offset=".5" style="stop-color:#f9ddbd;stop-opacity:1"/><stop offset="1" style="stop-color:#edc391;stop-opacity:1"/></radialGradient><radialGradient id="d" cx="1576" cy="632.2" r="16.282" fx="1576" fy="632.2" gradientTransform="matrix(-.07166 .08324 -.06225 -.05441 159.887 -85.69)" gradientUnits="userSpaceOnUse"><stop offset=".5" style="stop-color:#f9ddbd;stop-opacity:1"/><stop offset="1" style="stop-color:#edc391;stop-opacity:1"/></radialGradient><radialGradient id="e" cx="2191.9" cy="324.78" r="13.76" fx="2191.9" fy="324.78" gradientTransform="matrix(-.09766 .06071 -.04424 -.07241 232.25 -101.487)" gradientUnits="userSpaceOnUse"><stop offset=".5" style="stop-color:#f9ddbd;stop-opacity:1"/><stop offset="1" style="stop-color:#edc391;stop-opacity:1"/></radialGradient><radialGradient id="f" cx="1695.7" cy="291.65" r="16.872" fx="1695.7" fy="291.65" gradientTransform="matrix(.07456 .07519 -.08949 .09024 -93.686 -143.975)" gradientUnits="userSpaceOnUse"><stop offset=".5" style="stop-color:#f9ddbd;stop-opacity:1"/><stop offset="1" style="stop-color:#edc391;stop-opacity:1"/></radialGradient><linearGradient id="a" x1="2495.9" x2="2568.3" y1="-119.34" y2="-119.34" gradientTransform="matrix(-.12287 .01646 .01632 .12391 323.975 -20.944)" gradientUnits="userSpaceOnUse"><stop offset="0" style="stop-color:#edc391;stop-opacity:1"/><stop offset=".007" style="stop-color:#edc492;stop-opacity:1"/><stop offset=".164" style="stop-color:#f2cfa5;stop-opacity:1"/><stop offset=".346" style="stop-color:#f6d7b3;stop-opacity:1"/><stop offset=".575" style="stop-color:#f8dcbb;stop-opacity:1"/><stop offset="1" style="stop-color:#f9ddbd;stop-opacity:1"/></linearGradient><linearGradient id="b" x1="233.93" x2="343.48" y1="195.87" y2="195.87" gradientTransform="matrix(.12287 .01646 -.01632 .12391 -25.108 -20.944)" gradientUnits="userSpaceOnUse"><stop offset="0" style="stop-color:#f9ddbd;stop-opacity:1"/><stop offset=".327" style="stop-color:#f8dbba;stop-opacity:1"/><stop offset=".604" style="stop-color:#f5d5af;stop-opacity:1"/><stop offset=".862" style="stop-color:#f0cb9e;stop-opacity:1"/><stop offset="1" style="stop-color:#edc391;stop-opacity:1"/></linearGradient><clipPath id="g"><path d="M5 3h6v4H5Zm0 0"/></clipPath><clipPath id="h"><path d="M5.605 5.84c-.28-.485-.12-1.05.403-1.375l2.91-1.297c.316-.117.676.648.676.648l.511.934s.454.668.504.73c.258.313-.132-.09-.664-.207-.945-.207-2.37.934-3.054 1.055s-1.004 0-1.286-.488m0 0"/></clipPath></defs><path d="M6.242 5.016c.473-.407 1.668-1.38 2.668-1.637.254-.066.485-.098.703-.098.387 0 .668.106.938.203.242.09.492.18.789.18.133 0 .262-.016.398-.05.172-.048.348-.16.532-.282.273-.176.578-.379.91-.379.273 0 .543.133.828.406l.875.825c.433.433.46 1.03.41 1.453-.129 1.035-.906 2.258-1.793 2.836Zm0 0" style="stroke:none;fill-rule:nonzero;fill:url(#a)"/><path d="M13.18 3.14c.222 0 .449.118.699.36l.867.816c.309.313.426.747.36 1.297-.122.953-.817 2.074-1.626 2.645L6.582 4.973c.547-.457 1.535-1.2 2.371-1.414.242-.059.457-.09.66-.09.352 0 .606.09.871.191.258.094.524.192.856.192q.216 0 .445-.059c.203-.055.39-.176.59-.305.262-.168.527-.347.805-.347m0-.375c-.625 0-1.11.566-1.489.664a1.3 1.3 0 0 1-.351.047c-.57 0-.945-.383-1.727-.383-.215 0-.46.027-.754.101-1.332.344-2.953 1.868-2.953 1.868l7.606 3.62c1.441-.863 2.718-3.41 1.5-4.636l-.875-.82c-.352-.34-.668-.461-.957-.461m0 0" style="stroke:none;fill-rule:nonzero;fill:#e6b77e;fill-opacity:1"/><path d="M8.313 12.953a.8.8 0 0 1-.532-.195L1.816 7.484C1.133 6.883.711 6.125.688 5.461Q.666 4.75 1.23 4.18l.872-.817c.285-.273.554-.406.828-.406.332 0 .636.2.906.375.187.121.363.238.535.281.137.035.266.055.399.055.296 0 .546-.094.785-.184.273-.097.55-.199.937-.199.219 0 .45.031.707.098 1.27.324 2.86 1.805 2.875 1.82l3.524 3.137a.84.84 0 0 1 .101 1.176l-.027.03a.817.817 0 0 1-1 .203.2.2 0 0 0-.09-.022.18.18 0 0 0-.113.043.18.18 0 0 0-.067.19.84.84 0 0 1-.168.747l-.027.027a.8.8 0 0 1-.625.293.8.8 0 0 1-.504-.172.17.17 0 0 0-.113-.039.2.2 0 0 0-.098.028.19.19 0 0 0-.09.191.83.83 0 0 1-.183.668l-.024.031a.817.817 0 0 1-1.117.13.2.2 0 0 0-.11-.036.2.2 0 0 0-.09.024.18.18 0 0 0-.097.18.83.83 0 0 1-.195.605l-.024.027a.82.82 0 0 1-.624.29m0 0" style="stroke:none;fill-rule:nonzero;fill:url(#b)"/><path d="M2.926 3.14c.277 0 .547.18.808.348.2.13.387.254.59.305.153.039.297.059.446.059.328 0 .593-.098.851-.192.266-.098.52-.191.871-.191.203 0 .418.031.66.094 1.223.312 2.778 1.761 2.793 1.777q.007.002.008.004l3.524 3.136.003.004c.27.23.301.637.075.91l-.028.032a.62.62 0 0 1-.77.156.4.4 0 0 0-.175-.043.36.36 0 0 0-.23.082.38.38 0 0 0-.133.387.66.66 0 0 1-.13.578l-.027.027a.627.627 0 0 1-.867.094.4.4 0 0 0-.23-.078.37.37 0 0 0-.192.05.38.38 0 0 0-.18.383.64.64 0 0 1-.144.52l-.023.031a.63.63 0 0 1-.86.102.4.4 0 0 0-.222-.074.374.374 0 0 0-.375.406.65.65 0 0 1-.149.469l-.027.027a.63.63 0 0 1-.89.078L1.937 7.348C1.293 6.778.895 6.07.875 5.457c-.016-.422.145-.793.484-1.137l.871-.82c.25-.242.477-.36.696-.36m0-.374c-.285 0-.602.12-.953.46l-.875.82c-1.22 1.231-.344 2.755.593 3.579l5.965 5.277c.192.16.422.243.657.243.285 0 .57-.125.769-.36l.027-.031c.18-.215.254-.48.235-.738.18.132.39.195.597.195.29 0 .57-.121.77-.36l.027-.027c.2-.238.27-.539.227-.82a1.01 1.01 0 0 0 1.387-.149l.023-.027a1.01 1.01 0 0 0 .207-.914 1.009 1.009 0 0 0 1.23-.246l.028-.031c.36-.43.308-1.075-.117-1.438l-3.52-3.133S8.578 3.54 7.246 3.2a2.9 2.9 0 0 0-.754-.105c-.781 0-1.152.386-1.726.386q-.16 0-.348-.046c-.383-.102-.867-.668-1.492-.668m0 0" style="stroke:none;fill-rule:nonzero;fill:#e6b77e;fill-opacity:1"/><path d="M3.793 10.855a.8.8 0 0 1-.66-.347.815.815 0 0 1 .207-1.121l1.375-.95a.793.793 0 0 1 1.105.207.81.81 0 0 1-.207 1.122l-1.375.949a.75.75 0 0 1-.445.14m0 0" style="stroke:none;fill-rule:nonzero;fill:url(#c)"/><path d="M5.164 8.484c.2 0 .387.098.5.266a.626.626 0 0 1-.156.863l-1.375.95a.604.604 0 0 1-.844-.16.624.624 0 0 1 .16-.864l1.371-.95a.6.6 0 0 1 .344-.105m0-.375a1 1 0 0 0-.559.172l-1.37.95a1 1 0 0 0-.258 1.378c.191.282.5.434.816.434a1 1 0 0 0 .555-.176l1.37-.945a1 1 0 0 0 .259-1.383.99.99 0 0 0-.813-.43m0 0" style="stroke:none;fill-rule:nonzero;fill:#e6b77e;fill-opacity:1"/><path d="M6.633 13.047a.78.78 0 0 1-.528-.207.81.81 0 0 1-.066-1.137l.797-.906a.79.79 0 0 1 1.125-.067c.328.297.36.81.066 1.141l-.8.902a.8.8 0 0 1-.594.274m0 0" style="stroke:none;fill-rule:nonzero;fill:url(#d)"/><path d="M7.434 10.715c.148 0 .293.055.402.156a.626.626 0 0 1 .05.875l-.8.906a.6.6 0 0 1-.453.207.6.6 0 0 1-.403-.156.62.62 0 0 1-.05-.875l.797-.906a.62.62 0 0 1 .457-.207m0-.375a.99.99 0 0 0-.739.332l-.797.906a1 1 0 0 0 .082 1.402.97.97 0 0 0 .653.25c.27 0 .539-.113.734-.332l.801-.906a.997.997 0 0 0-.734-1.652m0 0" style="stroke:none;fill-rule:nonzero;fill:#e6b77e;fill-opacity:1"/><path d="M2.79 9.527a.78.78 0 0 1-.673-.375.805.805 0 0 1 .254-1.101l.836-.524a.783.783 0 0 1 1.09.258.806.806 0 0 1-.258 1.102l-.836.52a.75.75 0 0 1-.414.12m0 0" style="stroke:none;fill-rule:nonzero;fill:url(#e)"/><path d="M3.625 7.598c.207 0 .402.105.512.289a.617.617 0 0 1-.196.843l-.836.52a.6.6 0 0 1-.316.09.59.59 0 0 1-.512-.29.617.617 0 0 1 .196-.843l.836-.52a.6.6 0 0 1 .316-.09m0-.374a1 1 0 0 0-.516.144l-.836.524a.994.994 0 0 0-.316 1.359c.184.3.504.465.832.465a1 1 0 0 0 .516-.145l.836-.523a.994.994 0 0 0 .316-1.36.98.98 0 0 0-.832-.464m0 0" style="stroke:none;fill-rule:nonzero;fill:#e6b77e;fill-opacity:1"/><path d="M4.957 12.309a.77.77 0 0 1-.547-.23.79.79 0 0 1 0-1.106l1.469-1.48a.76.76 0 0 1 .547-.231.787.787 0 0 1 .547 1.34l-1.465 1.476a.78.78 0 0 1-.551.23m0 0" style="stroke:none;fill-rule:nonzero;fill:url(#f)"/><path d="M6.426 9.45c.156 0 .304.062.414.175.234.23.234.61 0 .844l-1.469 1.48a.585.585 0 0 1-.828 0 .606.606 0 0 1 0-.847l1.469-1.48a.59.59 0 0 1 .414-.173m0-.375a.96.96 0 0 0-.68.285l-1.469 1.48a.976.976 0 0 0 0 1.372.95.95 0 0 0 .68.285.97.97 0 0 0 .684-.285l1.468-1.48a.976.976 0 0 0 0-1.372.98.98 0 0 0-.683-.285m0 0" style="stroke:none;fill-rule:nonzero;fill:#e6b77e;fill-opacity:1"/><g clip-path="url(#g)"><g clip-path="url(#h)"><path d="M6.46 6.184c-.327 0-.507-.114-.694-.438-.23-.398-.098-.848.328-1.117l2.89-1.285c.118-.043.309-.067.52-.067.633 0 1.23.192 1.312.422.004.012.012.02.016.031l.922 1.563.004.016c-.008 0-.078.05-.324.05-.356 0-.907-.101-1.438-.265q-.166-.052-.355-.051c-.594 0-1.274.363-1.868.684-.359.195-.703.375-.918.414a2 2 0 0 1-.394.043m0 0" style="stroke:none;fill-rule:nonzero;fill:#f9ddbd;fill-opacity:1"/><path d="M9.508 3.465c.62 0 1.086.191 1.133.297.007.023.02.043.03.066l.794 1.344h-.027c-.34 0-.868-.098-1.383-.258a1.4 1.4 0 0 0-.414-.059c-.641 0-1.34.375-1.953.707-.333.18-.676.364-.864.395-.144.027-.261.04-.363.04-.23 0-.363-.052-.531-.345-.18-.304-.078-.64.254-.855l2.87-1.281c.098-.032.266-.051.454-.051m0-.375c-.238 0-.45.023-.594.078l-2.91 1.293c-.52.324-.684.894-.402 1.379.214.37.453.531.859.531q.186-.001.43-.043C7.5 6.218 8.727 5.23 9.64 5.23q.158-.002.304.043c.492.153 1.082.274 1.489.274.355 0 .578-.094.492-.332l-.934-1.578c-.129-.371-.883-.547-1.484-.547m0 0" style="stroke:none;fill-rule:nonzero;fill:#e6b77e;fill-opacity:1"/></g></g></svg>