<svg xmlns="http://www.w3.org/2000/svg" width="16pt" height="16pt" viewBox="0 0 16 16"><defs><linearGradient id="a" x1="14.568" x2="34.854" y1="21.21" y2="21.21" gradientTransform="scale(.125)" gradientUnits="userSpaceOnUse"><stop offset="0" style="stop-color:#e4c7ff;stop-opacity:1"/><stop offset="1" style="stop-color:#997fb3;stop-opacity:1"/></linearGradient><linearGradient id="b" x1="93.146" x2="113.43" y1="21.21" y2="21.21" gradientTransform="scale(.125)" gradientUnits="userSpaceOnUse"><stop offset="0" style="stop-color:#997fb3;stop-opacity:1"/><stop offset="1" style="stop-color:#e4c7ff;stop-opacity:1"/></linearGradient><linearGradient id="c" x1="64" x2="64" y1="10.827" y2="78.082" gradientTransform="scale(.125)" gradientUnits="userSpaceOnUse"><stop offset="0" style="stop-color:#e4c7ff;stop-opacity:1"/><stop offset="1" style="stop-color:#997fb3;stop-opacity:1"/></linearGradient><linearGradient id="d" x1="64" x2="64" y1="72.133" y2="143.24" gradientTransform="scale(.125)" gradientUnits="userSpaceOnUse"><stop offset=".001" style="stop-color:#decef2;stop-opacity:1"/><stop offset=".515" style="stop-color:#cbbbdf;stop-opacity:1"/><stop offset=".997" style="stop-color:#bdadd1;stop-opacity:1"/></linearGradient><linearGradient id="e" x1="16.835" x2="30.062" y1="61.578" y2="72.496" gradientTransform="scale(.125)" gradientUnits="userSpaceOnUse"><stop offset="0" style="stop-color:#f5edff;stop-opacity:1"/><stop offset="1" style="stop-color:#dbcbef;stop-opacity:1"/></linearGradient><linearGradient id="f" x1="26.368" x2="35.359" y1="67.302" y2="74.724" gradientTransform="scale(.125)" gradientUnits="userSpaceOnUse"><stop offset=".213" style="stop-color:#3b393d;stop-opacity:1"/><stop offset=".397" style="stop-color:#343235;stop-opacity:1"/><stop offset=".676" style="stop-color:#1f1e20;stop-opacity:1"/><stop offset=".998" style="stop-color:#000;stop-opacity:1"/></linearGradient><linearGradient id="g" x1="1160.1" x2="1173.3" y1="61.578" y2="72.496" gradientTransform="matrix(-.125 0 0 .125 158.9 0)" gradientUnits="userSpaceOnUse"><stop offset="0" style="stop-color:#f5edff;stop-opacity:1"/><stop offset="1" style="stop-color:#dbcbef;stop-opacity:1"/></linearGradient><linearGradient id="h" x1="1169.6" x2="1178.6" y1="67.302" y2="74.724" gradientTransform="matrix(-.125 0 0 .125 158.9 0)" gradientUnits="userSpaceOnUse"><stop offset=".213" style="stop-color:#3b393d;stop-opacity:1"/><stop offset=".397" style="stop-color:#343235;stop-opacity:1"/><stop offset=".676" style="stop-color:#1f1e20;stop-opacity:1"/><stop offset=".998" style="stop-color:#000;stop-opacity:1"/></linearGradient></defs><path d="M2.219 1.844c.203 0 .37.187.527.312q.03.022.059.043c.207.133.43.246.664.324.226.082.828.149.883.426.035.18-.137.336-.27.426-.039.027-.086.055-.133.082-.246.137-.57.246-.847.246-.043 0-.086 0-.125-.008-.5-.066-.934-.453-1.094-.93a1.2 1.2 0 0 1-.059-.316c-.015-.254.098-.562.352-.601q.02-.005.043-.004m0-.36q-.047-.001-.094.004c-.46.067-.687.555-.664.977q.013.207.078.414A1.75 1.75 0 0 0 2.926 4.05q.082.011.172.011c.316 0 .699-.109 1.027-.292.063-.036.113-.067.164-.098.438-.3.45-.625.418-.79-.086-.445-.605-.57-.95-.652-.066-.02-.132-.035-.167-.046a2.6 2.6 0 0 1-.586-.29c-.012-.003-.024-.015-.035-.023q-.044-.034-.086-.074c-.156-.133-.371-.313-.664-.313M13.781 1.844a.2.2 0 0 1 .043.004c.254.035.367.347.352.601-.004.11-.028.215-.059.317-.16.476-.594.863-1.094.93a1 1 0 0 1-.125.007c-.277 0-.601-.11-.847-.246a2 2 0 0 1-.133-.082c-.129-.09-.305-.246-.27-.426.051-.277.653-.347.883-.426q.353-.123.664-.328a1 1 0 0 0 .059-.043c.156-.12.324-.308.527-.308m0-.36c-.293 0-.508.18-.66.313q-.047.04-.09.074l-.035.024a2.6 2.6 0 0 1-.582.289c-.039.011-.105.027-.172.046-.344.083-.863.208-.945.653-.031.164-.02.488.418.789q.069.045.16.098c.328.183.71.293 1.027.293q.09 0 .172-.012a1.75 1.75 0 0 0 1.387-1.172c.047-.137.07-.277.078-.414.024-.422-.2-.91-.66-.977q-.051-.005-.098-.004m0 0" style="stroke:none;fill-rule:nonzero;fill:#a37dc7;fill-opacity:1"/><path d="M3.375 13.406q.06-.001.117.016l.051.015c.223.067.352.301.285.524l-.176.601a.42.42 0 0 1-.402.305.5.5 0 0 1-.121-.02l-.05-.015a.42.42 0 0 1-.286-.523l.176-.598a.425.425 0 0 1 .406-.305m0-.238a.67.67 0 0 0-.637.473l-.175.601a.65.65 0 0 0 .054.504c.086.156.223.27.395.316l.05.016q.095.028.188.027a.67.67 0 0 0 .637-.476l.176-.602a.69.69 0 0 0-.055-.504.67.67 0 0 0-.399-.316l-.05-.016a.7.7 0 0 0-.184-.023M12.625 13.406c.184 0 .352.121.406.305l.176.598a.42.42 0 0 1-.285.523l-.05.016a.5.5 0 0 1-.122.02.42.42 0 0 1-.402-.306l-.176-.601a.42.42 0 0 1 .285-.524l.05-.015a.6.6 0 0 1 .118-.016m0-.238a.7.7 0 0 0-.184.023l-.05.016a.667.667 0 0 0-.453.824l.175.598a.67.67 0 0 0 .825.45l.05-.013a.66.66 0 0 0 .395-.32.65.65 0 0 0 .055-.504l-.176-.597a.67.67 0 0 0-.637-.477m0 0" style="stroke:none;fill-rule:nonzero;fill:#c9bda2;fill-opacity:1"/><path d="m3.129 14.848-.05-.016a.42.42 0 0 1-.286-.523l.176-.598a.424.424 0 0 1 .523-.29l.051.017c.223.066.352.3.285.523l-.176.601a.42.42 0 0 1-.523.286M12.871 14.848l.05-.016a.42.42 0 0 0 .286-.523l-.176-.598a.424.424 0 0 0-.523-.29l-.051.017a.42.42 0 0 0-.285.523l.176.601a.42.42 0 0 0 .523.286m0 0" style="stroke:none;fill-rule:nonzero;fill:#f7f1e3;fill-opacity:1"/><path d="M3.95 3.457c.046-.027.093-.055.132-.082.129-.09.305-.246.27-.426-.051-.277-.653-.347-.883-.426a3 3 0 0 1-.664-.328 1 1 0 0 1-.059-.043c-.168-.132-.348-.34-.57-.304-.254.035-.367.343-.352.601.004.106.028.215.059.317.555.496 1.32.726 2.066.691m0 0" style="stroke:none;fill-rule:nonzero;fill:url(#a)"/><path d="M1.883 2.766c.16.476.594.859 1.094.93.3.038.687-.083.972-.239-.746.035-1.511-.195-2.066-.691m0 0" style="stroke:none;fill-rule:nonzero;fill:#f7f1e3;fill-opacity:1"/><path d="M12.05 3.457a2 2 0 0 1-.132-.082c-.129-.09-.305-.246-.27-.426.051-.277.653-.347.883-.426q.353-.123.664-.328a1 1 0 0 0 .059-.043c.168-.132.348-.34.57-.304.254.035.367.343.352.601a1.3 1.3 0 0 1-.059.317c-.555.496-1.32.726-2.066.691m0 0" style="stroke:none;fill-rule:nonzero;fill:url(#b)"/><path d="M14.117 2.766c-.16.476-.594.859-1.094.93-.3.038-.687-.083-.972-.239.746.035 1.511-.195 2.066-.691m0 0" style="stroke:none;fill-rule:nonzero;fill:#f7f1e3;fill-opacity:1"/><path d="M8.535 12.559h-1.07c-3.067 0-5.574-2.09-5.574-5.157v-.441c0-3.066 2.507-5.574 5.574-5.574h1.07c3.067 0 5.574 2.508 5.574 5.574v.441c0 3.067-2.507 5.157-5.574 5.157m0 0" style="stroke:none;fill-rule:nonzero;fill:url(#c)"/><path d="M8 14.406c-4.965 0-7.207-1.738-7.207-3.437C.793 9.273 2.75 7.477 8 7.477s7.207 1.796 7.207 3.492c0 1.699-2.242 3.437-7.207 3.437m0 0" style="stroke:none;fill-rule:nonzero;fill:url(#d)"/><path d="M8.535 1.383c3.067 0 5.574 2.512 5.574 5.578v.437c0 .5-.066.97-.187 1.41.894.63 1.285 1.403 1.285 2.16 0 1.696-2.242 3.434-7.207 3.434S.793 12.664.793 10.97c0-.758.387-1.531 1.285-2.16a5.2 5.2 0 0 1-.187-1.41V6.96c0-3.07 2.507-5.578 5.574-5.578zm0-.36h-1.07a5.945 5.945 0 0 0-5.938 5.938v.441c0 .43.047.856.145 1.262C.867 9.297.43 10.11.43 10.97c0 1.89 2.34 3.797 7.57 3.797 2.344 0 4.297-.391 5.64-1.125 1.68-.918 1.93-2.067 1.93-2.672 0-.86-.437-1.672-1.242-2.305.094-.406.145-.832.145-1.262v-.441a5.945 5.945 0 0 0-5.938-5.938m0 0" style="stroke:none;fill-rule:nonzero;fill:#a37dc7;fill-opacity:1"/><path d="M5.234 6.813a.436.436 0 1 1-.871 0 .436.436 0 1 1 .871 0M11.637 6.813a.436.436 0 1 1-.871 0 .436.436 0 1 1 .871 0m0 0" style="stroke:none;fill-rule:nonzero;fill:#000;fill-opacity:1"/><path d="M3.273 10.184c-.785-.239-1.257-.977-1.054-1.649s1.008-1.02 1.793-.781c.785.238 1.258.976 1.054 1.644-.203.672-1.003 1.024-1.793.786m0 0" style="stroke:none;fill-rule:nonzero;fill:url(#e)"/><path d="M3.613 9.215c-.328-.235-.48-.578-.347-.766.136-.187.511-.148.84.09.324.234.48.578.343.766-.136.187-.511.148-.836-.09m0 0" style="stroke:none;fill-rule:nonzero;fill:url(#f)"/><path d="M12.727 10.184c.785-.239 1.257-.977 1.054-1.649s-1.008-1.02-1.793-.781c-.785.238-1.258.976-1.054 1.644.203.672 1.004 1.024 1.793.786m0 0" style="stroke:none;fill-rule:nonzero;fill:url(#g)"/><path d="M12.387 9.215c.328-.235.48-.578.347-.766-.136-.187-.511-.148-.84.09-.324.234-.48.578-.343.766.136.187.511.148.836-.09m0 0" style="stroke:none;fill-rule:nonzero;fill:url(#h)"/><path d="M4.719 11.098a.244.244 0 0 0-.242.246.244.244 0 1 0 .488 0 .245.245 0 0 0-.246-.246M4.563 12.176a.244.244 0 1 0 0 .488.244.244 0 1 0 0-.488M3.828 11.484a.244.244 0 1 0 0 .488c.133 0 .246-.109.246-.242a.25.25 0 0 0-.246-.246M5.453 11.887a.25.25 0 0 0-.246.246c0 .133.113.242.246.242a.244.244 0 1 0 0-.488M11.523 11.344a.244.244 0 1 0-.488 0c0 .136.11.246.246.246.137 0 .242-.11.242-.246M11.438 12.176a.244.244 0 1 0 0 .488.244.244 0 1 0 0-.488M12.172 11.484a.25.25 0 0 0-.246.246c0 .133.113.243.246.243a.244.244 0 1 0 0-.489M10.547 11.887a.244.244 0 1 0 0 .488c.133 0 .246-.11.246-.242a.25.25 0 0 0-.246-.246m0 0" style="stroke:none;fill-rule:nonzero;fill:#9785ab;fill-opacity:1"/></svg>