<svg xmlns="http://www.w3.org/2000/svg" xmlns:xlink="http://www.w3.org/1999/xlink" width="16pt" height="16pt" viewBox="0 0 16 16"><defs><linearGradient id="c" x1="185.86" x2="186.68" y1="289.95" y2="304.88" gradientTransform="rotate(45 36.055 63.733)scale(-.125 .1443)" gradientUnits="userSpaceOnUse"><stop offset="0" style="stop-color:#d1824d;stop-opacity:1"/><stop offset=".365" style="stop-color:#f6c970;stop-opacity:1"/><stop offset="1" style="stop-color:#fee8af;stop-opacity:1"/></linearGradient><linearGradient id="d" x1="186.11" x2="187.01" y1="296.69" y2="312.95" gradientTransform="rotate(45 29.438 60.992)scale(-.125 .125)" gradientUnits="userSpaceOnUse"><stop offset="0" style="stop-color:#ff3800;stop-opacity:1"/><stop offset=".995" style="stop-color:#7d1d00;stop-opacity:1"/></linearGradient><linearGradient id="e" x1="186.43" x2="187.6" y1="312.03" y2="345.98" gradientTransform="rotate(45 29.438 60.992)scale(-.125 .125)" gradientUnits="userSpaceOnUse"><stop offset="0" style="stop-color:#f6c970;stop-opacity:1"/><stop offset=".022" style="stop-color:#f7c96f;stop-opacity:1"/><stop offset=".192" style="stop-color:#ffca68;stop-opacity:1"/><stop offset="1" style="stop-color:#b74e09;stop-opacity:1"/></linearGradient><linearGradient id="h" x1="28.134" x2="104.9" y1="17.396" y2="97.571" gradientTransform="scale(.125)" gradientUnits="userSpaceOnUse"><stop offset="0" style="stop-color:#ff0;stop-opacity:1"/><stop offset=".536" style="stop-color:#ffcb00;stop-opacity:1"/><stop offset=".995" style="stop-color:#ffe973;stop-opacity:1"/></linearGradient><clipPath id="b"><path d="M0 0h16v16H0z"/></clipPath><filter id="a" width="100%" height="100%" x="0%" y="0%" filterUnits="objectBoundingBox"><feColorMatrix in="SourceGraphic" values="0 0 0 0 1 0 0 0 0 1 0 0 0 0 1 0 0 0 1 0"/></filter><mask id="f"><g filter="url(#a)"><path d="M0 0h16v16H0z" style="fill:#000;fill-opacity:.2;stroke:none"/></g></mask><g id="g" clip-path="url(#b)"><path d="M4.766 1.102c.156 0 .308.039.441.113.133.137.547.816.91 1.418.774 1.273 1.828 3.02 2.774 4.05C10 7.896 11.32 8.853 12.375 9.622c.832.602 1.55 1.125 1.734 1.469.227.41.063.82-.113 1.09a.37.37 0 0 0-.055.265c.028.18-.023.336-.168.508l-.043.055c-.199.238-.296.336-.472.336a.6.6 0 0 1-.11-.012q-.033-.005-.066-.004a.37.37 0 0 0-.293.137.38.38 0 0 0-.055.379c.149.36.125.644-.086.933-.183.262-.453.383-.843.383-.48 0-1.133-.183-1.989-.566-2.445-1.086-5.93-3.844-7.714-8.035-1.442-3.391-.63-3.95-.196-4.246q.059-.04.106-.075.081-.06.129-.062c.027 0 .109.02.289.199.07.074.168.11.265.11a.4.4 0 0 0 .13-.02.38.38 0 0 0 .245-.324.9.9 0 0 1 .13-.375c.25-.41.48-.41.558-.41.047 0 .094.003.144.019a.378.378 0 0 0 .336-.082.8.8 0 0 1 .528-.191m0-.375c-.274 0-.551.09-.774.285A1 1 0 0 0 3.758.98c-.293 0-.61.145-.88.594a1.2 1.2 0 0 0-.183.535c-.195-.191-.37-.308-.554-.308a.6.6 0 0 0-.352.133c-.476.347-1.7.859-.031 4.77 1.906 4.484 5.633 7.222 7.906 8.234.848.378 1.566.597 2.14.597.497 0 .883-.164 1.15-.539.304-.422.312-.851.128-1.293a1 1 0 0 0 .176.016c.394 0 .594-.274.8-.52.227-.27.297-.535.255-.812.203-.317.453-.883.128-1.477-.488-.902-3.254-2.277-5.27-4.48-1.53-1.66-3.398-5.313-3.75-5.524-.198-.117-.425-.18-.655-.18m0 0" style="stroke:none;fill-rule:nonzero;fill:#424242;fill-opacity:1"/></g></defs><path d="M14.11 12.64c-.434.762-2.477-.46-6.255-4.835-3.777-4.371-4.343-5.98-4.187-6.344C4 .699 4.84.555 5.422.906 5.77 1.117 7.64 4.77 9.168 6.43c2.02 2.203 4.785 3.578 5.273 4.48.489.902-.332 1.73-.332 1.73m0 0" style="stroke:none;fill-rule:nonzero;fill:url(#c)"/><path d="M14.059 13.195c-.586.7-1.09 1.598-6.16-3.949-5.07-5.543-5.606-6.71-5.02-7.676.582-.96 1.371-.52 1.656-.27.285.255 2.04 3.337 4.453 5.973 2.418 2.637 6.399 4.344 5.07 5.922m0 0" style="stroke:none;fill-rule:nonzero;fill:url(#d)"/><path d="M12.953 14.996c-.57.805-1.707.645-3.289-.059-2.273-1.011-6-3.75-7.906-8.234-1.664-3.91-.442-4.422.031-4.77s.805.02 1.344.68c.535.664 2.004 2.543 3.582 4.375C8.297 8.82 8.64 9.137 10.3 10.703c1.66 1.563 3.601 2.969 2.652 4.293m0 0" style="stroke:none;fill-rule:nonzero;fill:url(#e)"/><use xlink:href="#g" mask="url(#f)"/><path d="M12.691 12.207a1 1 0 0 1-.546-.145c-.325-.203-.438-.539-.536-.835-.066-.192-.125-.375-.234-.485-.133-.129-.363-.176-.61-.222-.304-.063-.648-.13-.913-.383-.305-.297-.375-.715-.426-1.055l-.008-.05c-.035-.227-.105-.54-.293-.645-.094-.055-.238-.075-.39-.094-.286-.04-.645-.09-.848-.418-.14-.219-.133-.46-.125-.656.004-.13.004-.25-.032-.309-.043-.062-.168-.105-.304-.148-.196-.063-.438-.14-.606-.352-.183-.23-.191-.508-.195-.73-.004-.149-.008-.29-.062-.36-.051-.07-.192-.113-.34-.16-.207-.062-.465-.14-.645-.363-.2-.246-.203-.54-.207-.781 0-.149-.004-.293-.05-.383-.067-.13-.255-.207-.4-.246a3 3 0 0 0-.194-.051 2.2 2.2 0 0 1-.567-.191c-.305-.16-.586-.508-.52-.91a.312.312 0 0 1 .618.097c-.012.082.074.2.195.262s.266.097.418.136q.112.025.223.055.575.165.781.559c.117.222.121.457.125.668 0 .168.004.316.066.394.059.074.196.114.34.16.215.063.485.145.66.387.168.227.176.496.184.711.004.152.008.293.063.36.046.062.171.105.304.148.211.066.477.152.637.398.144.223.137.47.133.668-.004.125-.008.246.027.305.047.078.188.102.406.129.196.027.418.058.617.176.415.234.536.703.598 1.086l.008.05c.039.274.086.555.238.704.137.124.364.171.606.218.308.063.66.13.925.39.211.216.305.49.387.735.074.223.14.418.274.504.175.106.464.027.726-.058a.31.31 0 0 1 .395.199c.05.164-.04.34-.203.394-.168.055-.426.137-.7.137m0 0" style="stroke:none;fill-rule:nonzero;fill:url(#h)"/></svg>