<svg xmlns="http://www.w3.org/2000/svg" xmlns:xlink="http://www.w3.org/1999/xlink" width="16pt" height="16pt" viewBox="0 0 16 16"><defs><clipPath id="b"><path d="M0 0h16v16H0z"/></clipPath><clipPath id="c"><path d="M0 0h16v16H0z"/></clipPath><clipPath id="d"><path d="M0 0h16v16H0z"/></clipPath><clipPath id="e"><path d="M0 0h16v16H0z"/></clipPath><mask id="h"><g filter="url(#a)"><path d="M0 0h16v16H0z" style="fill:#000;fill-opacity:.2;stroke:none"/></g></mask><mask id="j"><g filter="url(#a)"><path d="M0 0h16v16H0z" style="fill:#000;fill-opacity:.2;stroke:none"/></g></mask><mask id="l"><g filter="url(#a)"><path d="M0 0h16v16H0z" style="fill:#000;fill-opacity:.2;stroke:none"/></g></mask><mask id="n"><g filter="url(#a)"><path d="M0 0h16v16H0z" style="fill:#000;fill-opacity:.2;stroke:none"/></g></mask><g id="i" clip-path="url(#b)"><path d="m3.684 1.441 8.632.012-.035.297v.043c0 2.508-1.203 4.348-3.476 5.328a.63.63 0 0 0-.38.582.64.64 0 0 0 .364.594q.046.02.117.055c.856.378 3.446 1.53 3.446 5.695l.003.469-8.707-.012.012-.457v-.008c0-1.77.488-3.21 1.453-4.293.77-.863 1.637-1.262 2.008-1.43l.082-.039a.64.64 0 0 0 .36-.593.64.64 0 0 0-.375-.582c-1.043-.446-3.465-1.86-3.465-5.293v-.04zm-.417-.379.082.747c0 3.964 3.047 5.363 3.691 5.64.195.082.2.399.008.489-.645.3-3.762 1.55-3.762 6.101l-.02.84 9.47.016-.008-.848c0-4.637-3.133-5.79-3.782-6.09-.191-.09-.187-.41.008-.492.64-.274 3.703-1.582 3.703-5.672l.078-.715Zm0 0" style="stroke:none;fill-rule:nonzero;fill:#424242;fill-opacity:1"/></g><g id="k" clip-path="url(#c)"><path d="M12.871.875a.38.38 0 0 1 .379.379.38.38 0 0 1-.379.375H3.13a.376.376 0 0 1-.379-.375c0-.207.172-.379.379-.379Zm0-.375H3.13a.752.752 0 1 0 0 1.504h9.742a.751.751 0 1 0 0-1.504m0 0" style="stroke:none;fill-rule:nonzero;fill:#424242;fill-opacity:1"/></g><g id="m" clip-path="url(#d)"><path d="M10.93 4.828c-.157.563-.817.942-1.457 1.313-.707.406-1.375.793-1.375 1.445v4.297c0 .137.113.242.25.242h2.03c.743 0 1.11.434 1.356 1.59l.227 1.05-7.824-.019.21-1.012c.235-1.156.614-1.609 1.356-1.609h1.988a.24.24 0 0 0 .25-.242l-.003-4.285c0-.653-.672-1.051-1.38-1.473-.628-.375-1.273-.762-1.43-1.297Zm.28-.254-6.366.004c0 1.512 2.843 1.91 2.843 3.016l.004 4.281H5.703c-.992 0-1.379.715-1.601 1.809l-.274 1.308 8.442.024-.29-1.352c-.23-1.086-.613-1.789-1.601-1.789H8.348V7.582c0-1.117 2.863-1.437 2.863-3.008m0 0" style="stroke:none;fill-rule:nonzero;fill:#424242;fill-opacity:1"/></g><g id="o" clip-path="url(#e)"><path d="M12.89 14.414c.2 0 .36.16.36.356s-.16.355-.36.355H3.11c-.2 0-.36-.16-.36-.355 0-.196.16-.356.36-.356Zm0-.375H3.11a.733.733 0 0 0-.735.73c0 .403.328.731.734.731h9.782a.733.733 0 0 0 .734-.73.733.733 0 0 0-.734-.73m0 0" style="stroke:none;fill-rule:nonzero;fill:#424242;fill-opacity:1"/></g><linearGradient id="f" x1="83.2" x2="46.534" y1="111.65" y2="20.316" gradientTransform="scale(.125)" gradientUnits="userSpaceOnUse"><stop offset=".002" style="stop-color:#bbdefb;stop-opacity:1"/><stop offset="1" style="stop-color:#e3f2fd;stop-opacity:1"/></linearGradient><linearGradient id="g" x1="64.395" x2="64.395" y1="38.333" y2="114.21" gradientTransform="scale(.125)" gradientUnits="userSpaceOnUse"><stop offset="0" style="stop-color:#ffca7b;stop-opacity:1"/><stop offset=".254" style="stop-color:#ffa726;stop-opacity:1"/><stop offset=".469" style="stop-color:#ffcc80;stop-opacity:1"/><stop offset=".659" style="stop-color:#ffc875;stop-opacity:1"/><stop offset=".867" style="stop-color:#ffa726;stop-opacity:1"/></linearGradient><filter id="a" width="100%" height="100%" x="0%" y="0%" filterUnits="objectBoundingBox"><feColorMatrix in="SourceGraphic" values="0 0 0 0 1 0 0 0 0 1 0 0 0 0 1 0 0 0 1 0"/></filter></defs><path d="M7.04 7.45c.194.081.198.398.007.487-.645.301-3.762 1.551-3.762 6.102l-.02.84 9.47.016-.005-.848c0-4.637-3.136-5.79-3.78-6.09-.196-.09-.192-.41.003-.492.64-.274 3.703-1.582 3.703-5.672l.078-.715-9.468-.016.082.747c0 3.964 3.047 5.363 3.691 5.64m0 0" style="stroke:none;fill-rule:nonzero;fill:url(#f)"/><path d="M11.98 13.664c-.23-1.086-.613-1.789-1.601-1.789H8.348V7.582c0-1.117 2.863-1.441 2.863-3.008l-6.367.004c0 1.512 2.843 1.906 2.843 3.016l.004 4.281H5.703c-.992 0-1.379.715-1.601 1.809l-.274 1.308 8.442.024Zm0 0" style="stroke:none;fill-rule:nonzero;fill:url(#g)"/><use xlink:href="#i" mask="url(#h)"/><path d="M3.129.5h9.742a.752.752 0 1 1 0 1.504H3.13a.751.751 0 1 1 0-1.504m0 0" style="stroke:none;fill-rule:nonzero;fill:#795548;fill-opacity:1"/><use xlink:href="#k" mask="url(#j)"/><use xlink:href="#m" mask="url(#l)"/><path d="M3.11 14.04h9.78c.407 0 .735.327.735.73s-.328.73-.734.73H3.109a.73.73 0 1 1 0-1.46m0 0" style="stroke:none;fill-rule:nonzero;fill:#795548;fill-opacity:1"/><use xlink:href="#o" mask="url(#n)"/></svg>