<svg xmlns="http://www.w3.org/2000/svg" width="16pt" height="16pt" viewBox="0 0 16 16"><defs><radialGradient id="b" cx="30.792" cy="85.808" r="21.667" fx="30.792" fy="85.808" gradientTransform="matrix(.125 0 0 .09134 0 3.245)" gradientUnits="userSpaceOnUse"><stop offset="0" style="stop-color:#ed7770;stop-opacity:1"/><stop offset=".9" style="stop-color:#ed7770;stop-opacity:0"/></radialGradient><radialGradient id="c" cx="97.208" cy="85.336" r="21.667" fx="97.208" fy="85.336" gradientTransform="matrix(.125 0 0 .09134 0 3.226)" gradientUnits="userSpaceOnUse"><stop offset="0" style="stop-color:#ed7770;stop-opacity:1"/><stop offset=".9" style="stop-color:#ed7770;stop-opacity:0"/></radialGradient><linearGradient id="a" x1="-10016" x2="-10016" y1="-3234.3" y2="-3146.3" gradientTransform="translate(-1244 -390.75)scale(-.125)" gradientUnits="userSpaceOnUse"><stop offset="0" style="stop-color:#40c0e7;stop-opacity:1"/><stop offset=".138" style="stop-color:#46c5c9;stop-opacity:1"/><stop offset=".532" style="stop-color:#55d479;stop-opacity:1"/><stop offset=".813" style="stop-color:#5fdd46;stop-opacity:1"/><stop offset=".95" style="stop-color:#63e133;stop-opacity:1"/></linearGradient></defs><path d="M8 14.984c-1.934 0-3.727-.636-5.047-1.8C1.512 11.91.75 10.117.75 8c0-2.11.762-3.895 2.203-5.172C4.277 1.656 6.07 1.016 8 1.016c3.492 0 7.25 2.183 7.25 6.984 0 4.8-3.758 6.984-7.25 6.984m0 0" style="stroke:none;fill-rule:nonzero;fill:url(#a)"/><path d="M8 1.266c1.879 0 3.613.613 4.879 1.726C14.266 4.211 15 5.942 15 8c0 2.066-.734 3.8-2.121 5.02-1.262 1.105-2.996 1.718-4.879 1.718-1.875 0-3.61-.62-4.879-1.742C1.734 11.77 1 10.043 1 8c0-2.035.734-3.758 2.121-4.984C4.395 1.886 6.13 1.266 8 1.266m0-.5C4.105.766.5 3.356.5 8c0 4.672 3.605 7.234 7.5 7.234s7.5-2.5 7.5-7.234C15.5 3.29 11.895.766 8 .766m0 0" style="stroke:none;fill-rule:nonzero;fill:#47a9b0;fill-opacity:1"/><path d="M6.34 11.082c0-1.055-1.117-1.91-2.492-1.91s-2.489.855-2.489 1.91 1.114 1.91 2.489 1.91 2.492-.855 2.492-1.91m0 0" style="stroke:none;fill-rule:nonzero;fill:url(#b)"/><path d="M14.64 11.02c0-1.055-1.113-1.91-2.488-1.91s-2.492.855-2.492 1.91 1.117 1.91 2.492 1.91 2.489-.856 2.489-1.91m0 0" style="stroke:none;fill-rule:nonzero;fill:url(#c)"/><path d="M42.875 79.625c1.938 2.188 3.344 6.688 3.281 9.625s-1.25 5.844-3.281 7.969M85.125 79.375c-1.937 2.219-3.344 6.938-3.281 9.875s1.25 5.844 3.281 7.969" style="fill:none;stroke-width:5.2632;stroke-linecap:round;stroke-linejoin:round;stroke:#242424;stroke-opacity:1;stroke-miterlimit:10" transform="scale(.125)"/><path d="M46.156 89.25s4.063-5.062 17.188-5.062 18.5 5.062 18.5 5.062" style="fill:none;stroke-width:5.2632;stroke-linecap:round;stroke-linejoin:round;stroke:#242424;stroke-opacity:1;stroke-miterlimit:10" transform="scale(.125)"/><path d="M10.344 5.836c.523 0 1 .441 1 1.18 0 .734-.477 1.175-1 1.175-.524 0-1-.441-1-1.175 0-.739.476-1.18 1-1.18M5.648 5.836c-.523 0-1 .441-1 1.18 0 .734.477 1.175 1 1.175.524 0 1-.441 1-1.175 0-.739-.476-1.18-1-1.18m0 0" style="stroke:none;fill-rule:nonzero;fill:#242424;fill-opacity:1"/><path d="M6.387 4.07s0 .035-.004.094c-.004.016-.004.031-.008.055-.004.02-.012.047-.016.07l-.023.086c-.008.027-.02.05-.031.082q-.03.087-.082.18a2 2 0 0 1-.118.187c-.05.059-.097.121-.156.176-.054.059-.12.11-.183.16a2 2 0 0 1-.207.133c-.067.039-.145.066-.215.098q-.105.036-.211.062c-.07.012-.137.024-.195.027-.063.008-.118.004-.168.004a1 1 0 0 1-.13-.015l-.109-.02a.223.223 0 0 1-.164-.27.23.23 0 0 1 .149-.16l.039-.011q0-.001.078-.02c.027-.004.054-.015.09-.027a1 1 0 0 0 .109-.035q.064-.02.129-.051c.047-.016.09-.043.137-.062.047-.028.093-.051.14-.083.047-.027.09-.062.137-.093.043-.035.09-.067.129-.106.043-.035.078-.074.117-.11.031-.038.074-.073.102-.112l.082-.106c.027-.039.05-.066.066-.094l.024-.035q.016-.018.027-.043c.027-.05.047-.082.047-.082a.224.224 0 0 1 .312-.078c.07.04.11.117.106.2M10.035 3.945s.02.032.047.086c.008.012.016.032.023.043.008.008.02.024.028.035.015.024.039.055.062.09q.038.052.086.106c.028.039.067.074.102.113q.053.054.117.11c.04.038.082.07.129.105.043.031.09.07.137.094q.07.045.14.082c.047.02.09.046.137.066.043.016.086.035.125.047q.06.026.113.039c.031.008.063.02.086.023.051.012.082.024.082.024l.035.008a.224.224 0 0 1-.011.43q-.002 0-.114.023a.6.6 0 0 1-.125.011 1 1 0 0 1-.168-.003 1 1 0 0 1-.199-.028 1 1 0 0 1-.21-.062c-.071-.028-.145-.055-.216-.098-.07-.039-.14-.086-.207-.129-.062-.055-.125-.105-.183-.164-.059-.05-.106-.117-.156-.176a1.6 1.6 0 0 1-.2-.367q-.018-.041-.03-.082a1 1 0 0 1-.02-.082q-.01-.04-.02-.074-.005-.029-.004-.05c-.008-.063-.008-.099-.008-.099a.23.23 0 0 1 .223-.234c.082 0 .156.047.2.113m0 0" style="stroke:none;fill-rule:nonzero;fill:#6d4c41;fill-opacity:1"/></svg>