<svg xmlns="http://www.w3.org/2000/svg" width="16pt" height="16pt" viewBox="0 0 16 16"><defs><clipPath id="b"><path d="M1 7h13v6H1Zm0 0"/></clipPath><clipPath id="c"><path d="M7.934 7.816c-1.965 0-3.79-.164-5.313-.445a.542.542 0 0 0-.633.637c.504 2.476 2.942 4.512 5.942 4.512 3.285 0 5.492-2.102 5.953-4.52a.542.542 0 0 0-.637-.629c-1.523.281-3.348.445-5.312.445m0 0"/></clipPath><clipPath id="d"><path d="M1 7h13v3H1Zm0 0"/></clipPath><clipPath id="e"><path d="M7.934 7.816c-1.965 0-3.79-.164-5.313-.445a.542.542 0 0 0-.633.637c.504 2.476 2.942 4.512 5.942 4.512 3.285 0 5.492-2.102 5.953-4.52a.542.542 0 0 0-.637-.629c-1.523.281-3.348.445-5.312.445m0 0"/></clipPath><clipPath id="f"><path d="M4 10h8v3H4Zm0 0"/></clipPath><clipPath id="g"><path d="M7.934 7.816c-1.965 0-3.79-.164-5.313-.445a.542.542 0 0 0-.633.637c.504 2.476 2.942 4.512 5.942 4.512 3.285 0 5.492-2.102 5.953-4.52a.542.542 0 0 0-.637-.629c-1.523.281-3.348.445-5.312.445m0 0"/></clipPath><clipPath id="h"><path d="M1 7h13v6H1Zm0 0"/></clipPath><clipPath id="i"><path d="M7.934 7.816c-1.965 0-3.79-.164-5.313-.445a.542.542 0 0 0-.633.637c.504 2.476 2.942 4.512 5.942 4.512 3.285 0 5.492-2.102 5.953-4.52a.542.542 0 0 0-.637-.629c-1.523.281-3.348.445-5.312.445m0 0"/></clipPath><clipPath id="j"><path d="M1.281 5.813v1.859c2.047 1.203 4.293 1.871 6.653 1.871 2.363 0 4.609-.668 6.656-1.871v-1.86ZM7.934 10.8a3.97 3.97 0 0 0-3.442 1.996c.89.484 2.106.785 3.442.785 1.34 0 2.55-.3 3.441-.785A3.97 3.97 0 0 0 7.934 10.8m0 0"/></clipPath><linearGradient id="a" x1="64" x2="64" y1="19.717" y2="107.7" gradientTransform="scale(.125)" gradientUnits="userSpaceOnUse"><stop offset=".5" style="stop-color:#fee133;stop-opacity:1"/><stop offset=".612" style="stop-color:#fede32;stop-opacity:1"/><stop offset=".708" style="stop-color:#fcd32f;stop-opacity:1"/><stop offset=".797" style="stop-color:#fac12b;stop-opacity:1"/><stop offset=".883" style="stop-color:#f7a924;stop-opacity:1"/><stop offset=".9" style="stop-color:#f6a323;stop-opacity:1"/></linearGradient></defs><path d="M8 14.984C4.508 14.984.75 12.801.75 8 .75 3.2 4.508 1.016 8 1.016c1.934 0 3.727.636 5.047 1.8C14.488 4.09 15.25 5.883 15.25 8c0 2.11-.762 3.895-2.203 5.172C11.723 14.344 9.93 14.984 8 14.984m0 0" style="stroke:none;fill-rule:nonzero;fill:url(#a)"/><path d="M8 1.266c1.875 0 3.61.617 4.879 1.738C14.266 4.23 15 5.957 15 8c0 2.035-.734 3.758-2.121 4.984-1.277 1.13-3.008 1.75-4.879 1.75-1.879 0-3.613-.613-4.879-1.726C1.734 11.789 1 10.058 1 8c0-2.066.734-3.8 2.121-5.02C4.383 1.875 6.117 1.266 8 1.266m0-.5C4.105.766.5 3.266.5 8c0 4.71 3.605 7.234 7.5 7.234s7.5-2.59 7.5-7.234C15.5 3.328 11.895.766 8 .766m0 0" style="stroke:none;fill-rule:nonzero;fill:#eb8f00;fill-opacity:1"/><g clip-path="url(#b)"><g clip-path="url(#c)"><path d="M7.934 7.816c-1.965 0-3.79-.164-5.313-.445a.542.542 0 0 0-.633.637c.504 2.476 2.942 4.512 5.942 4.512 3.285 0 5.492-2.102 5.953-4.52a.542.542 0 0 0-.637-.629c-1.523.281-3.348.445-5.312.445m0 0" style="stroke:none;fill-rule:nonzero;fill:#242424;fill-opacity:1"/></g></g><g clip-path="url(#d)"><g clip-path="url(#e)"><path d="M14.59 7.672v-1.86H1.28v1.86c2.047 1.203 4.293 1.871 6.653 1.871 2.363 0 4.609-.668 6.656-1.871m0 0" style="stroke:none;fill-rule:nonzero;fill:#fff;fill-opacity:1"/></g></g><g clip-path="url(#f)"><g clip-path="url(#g)"><path d="M7.934 10.8a3.97 3.97 0 0 0-3.442 1.997c.89.484 2.106.785 3.442.785 1.34 0 2.55-.3 3.441-.785A3.97 3.97 0 0 0 7.934 10.8m0 0" style="stroke:none;fill-rule:nonzero;fill:#ed7770;fill-opacity:1"/></g></g><g clip-path="url(#h)"><g clip-path="url(#i)"><g clip-path="url(#j)"><path d="M13.348 7.887c.011 0 .02.008.02.015a4.88 4.88 0 0 1-1.731 2.856c-.996.805-2.278 1.234-3.707 1.234a5.86 5.86 0 0 1-3.582-1.215c-.965-.754-1.621-1.773-1.844-2.879 0-.003.008-.011.02-.011h.003c1.606.297 3.477.453 5.407.453s3.8-.156 5.41-.453zm0-.528a.5.5 0 0 0-.102.012c-1.52.281-3.348.445-5.312.445s-3.79-.164-5.313-.445a.544.544 0 0 0-.633.637c.504 2.476 2.942 4.512 5.942 4.512 3.285 0 5.492-2.102 5.953-4.52a.542.542 0 0 0-.535-.64m0 0" style="stroke:none;fill-rule:nonzero;fill:#eb8f00;fill-opacity:1"/></g></g></g><path d="m32.094 17.125 8.031 10.719a1.99 1.99 0 0 0 1.688.781l13.374-.562c1.688-.094 2.688 1.78 1.72 3.125l-7.688 10.968c-.375.563-.469 1.25-.219 1.875l4.656 12.532c.594 1.562-.843 3.093-2.437 2.624L38.406 55.25a1.99 1.99 0 0 0-1.843.375l-10.47 8.313c-1.28 1.03-3.218.124-3.218-1.532L22.625 49c0-.656-.344-1.281-.875-1.625l-11.156-7.406c-1.406-.907-1.125-3.032.437-3.563l12.657-4.343c.625-.22 1.125-.72 1.28-1.376l3.595-12.906c.437-1.593 2.53-1.968 3.53-.656ZM95.906 17.125l-8.031 10.719a1.99 1.99 0 0 1-1.687.781l-13.376-.562c-1.687-.094-2.687 1.78-1.718 3.125l7.687 10.968c.375.563.469 1.25.219 1.875l-4.656 12.532c-.594 1.562.844 3.093 2.437 2.624l12.813-3.937a1.99 1.99 0 0 1 1.844.375l10.468 8.313c1.313 1.03 3.219.124 3.25-1.532L105.375 49c0-.656.344-1.281.875-1.625l11.156-7.406c1.406-.907 1.125-3.032-.437-3.563l-12.656-4.343c-.626-.22-1.126-.72-1.282-1.376l-3.594-12.906c-.437-1.593-2.53-1.968-3.53-.656Zm0 0" style="fill-rule:nonzero;fill:#cc1775;fill-opacity:1;stroke-width:4;stroke-linecap:butt;stroke-linejoin:miter;stroke:#b3005c;stroke-opacity:1;stroke-miterlimit:10" transform="scale(.125)"/></svg>