<svg xmlns="http://www.w3.org/2000/svg" width="16pt" height="16pt" viewBox="0 0 16 16"><defs><linearGradient id="a" x1="64" x2="64" y1="19.698" y2="107.72" gradientTransform="scale(.125)" gradientUnits="userSpaceOnUse"><stop offset=".5" style="stop-color:#fee133;stop-opacity:1"/><stop offset=".612" style="stop-color:#fede32;stop-opacity:1"/><stop offset=".708" style="stop-color:#fcd32f;stop-opacity:1"/><stop offset=".797" style="stop-color:#fac12b;stop-opacity:1"/><stop offset=".883" style="stop-color:#f7a924;stop-opacity:1"/><stop offset=".9" style="stop-color:#f6a323;stop-opacity:1"/></linearGradient></defs><path d="M8 14.988C4.508 14.988.746 12.801.746 8 .746 3.2 4.508 1.012 8 1.012c1.938 0 3.73.64 5.047 1.804C14.492 4.09 15.254 5.883 15.254 8c0 2.11-.762 3.898-2.207 5.176-1.32 1.168-3.113 1.812-5.047 1.812m0 0" style="stroke:none;fill-rule:nonzero;fill:url(#a)"/><path d="M8 1.262c1.875 0 3.61.617 4.883 1.742 1.387 1.223 2.12 2.95 2.12 4.996 0 2.035-.733 3.762-2.124 4.988-1.274 1.13-3.008 1.75-4.879 1.75-1.883 0-3.617-.613-4.883-1.726C1.73 11.793.997 10.059.997 8c0-2.07.733-3.805 2.12-5.02 1.266-1.109 3-1.718 4.883-1.718m0-.5C4.105.762.496 3.262.496 8c0 4.71 3.61 7.238 7.504 7.238 3.895 0 7.504-2.59 7.504-7.238 0-4.672-3.61-7.238-7.504-7.238m0 0" style="stroke:none;fill-rule:nonzero;fill:#eb8f00;fill-opacity:1"/><path d="M9.293 3.063c.113-.094.23-.18.348-.27q.189-.121.39-.23c.281-.13.578-.25.934-.262.086-.008.18.008.27.015.093.004.183.04.273.067.023.008.047.012.07.02l.063.034.125.067c.078.055.156.113.218.176a1.55 1.55 0 0 1 .387.664c.024.074.043.152.05.203l.009.035a.277.277 0 0 1-.223.324.29.29 0 0 1-.3-.14 3 3 0 0 0-.192-.336 1 1 0 0 0-.207-.227c-.016-.02-.04-.027-.059-.039-.02-.012-.035-.027-.054-.035l-.063-.024-.027-.015c-.008-.004-.024-.004-.032-.008a.8.8 0 0 0-.28-.027c-.204-.004-.438.082-.673.156-.117.055-.238.098-.355.152q-.174.09-.36.168l-.023.012a.283.283 0 0 1-.289-.48M5.703 4.816a1.671 1.671 0 0 1-.492.043 2.3 2.3 0 0 1-.469-.066 3.6 3.6 0 0 0-.71-.106.9.9 0 0 0-.274.04.44.44 0 0 0-.2.117c-.128.117-.245.343-.37.578a.286.286 0 0 1-.383.121.29.29 0 0 1-.145-.3c.024-.141.059-.286.117-.434.055-.145.13-.301.254-.446.117-.144.29-.27.477-.336.183-.07.367-.09.535-.086.336.012.625.098.898.2.114.043.22.07.336.093l.172.024c.055.004.125.008.16.008l.047.004a.277.277 0 0 1 .27.289.29.29 0 0 1-.223.257m0 0" style="stroke:none;fill-rule:nonzero;fill:#eb8f00;fill-opacity:1"/><path d="M5.496 11.41c.223-.246.824-.543 1.668-.52 1.11.028 1.719.524 1.719.524.36.305.195.766-.192.723-.62-.075-.593-.188-1.71-.211-.813-.012-1.204.113-1.239.117-.219.004-.312-.07-.351-.223a.46.46 0 0 1 .105-.41m0 0" style="stroke:none;fill-rule:nonzero;fill:#242424;fill-opacity:1"/><path d="M10.29 5.473c.554 0 1.058.468 1.058 1.242 0 .773-.504 1.242-1.059 1.242-.55 0-1.055-.469-1.055-1.242 0-.774.504-1.242 1.055-1.242m0 0" style="stroke:none;fill-rule:nonzero;fill:#303030;fill-opacity:1"/><path d="M4.652 5.688c-.523 0-1 .44-1 1.175s.477 1.18 1 1.18c.524 0 1-.445 1-1.18s-.476-1.176-1-1.176m0 0" style="stroke:none;fill-rule:nonzero;fill:#242424;fill-opacity:1"/><path d="M100.156 53.688c0 11.374-9.219 20.593-20.594 20.593-11.374 0-20.593-9.219-20.593-20.594 0-11.374 9.218-20.593 20.594-20.593 11.374 0 20.593 9.218 20.593 20.594Zm0 0" style="fill-rule:nonzero;fill:#ccc;fill-opacity:.501961;stroke-width:3.5;stroke-linecap:butt;stroke-linejoin:miter;stroke:#404040;stroke-opacity:1;stroke-miterlimit:10" transform="scale(.125)"/><path d="M13.313 6.234h-.696V7.36h.695c.336 0 .68-.207.68-.543V6.77c0-.336-.344-.536-.68-.536m-.06.965a.427.427 0 0 1-.433-.418c0-.23.196-.414.434-.414a.42.42 0 0 1 .43.414c0 .23-.192.418-.43.418m0 0" style="stroke:none;fill-rule:nonzero;fill:#404040;fill-opacity:1"/><path d="M11.852 6.559a1.8 1.8 0 0 0-.61-1.211 1.9 1.9 0 0 0-1.254-.457 1.94 1.94 0 0 0-1.258.441c-.355.29-.574.73-.617 1.203a.06.06 0 0 1-.066.05c-.031 0-.05-.026-.055-.054-.008-.25.04-.508.133-.746.098-.238.25-.457.441-.637.38-.359.907-.539 1.426-.539.52 0 1.043.196 1.418.563a1.824 1.824 0 0 1 .559 1.383c0 .03-.028.058-.059.054a.06.06 0 0 1-.058-.05m0 0" style="stroke:none;fill-rule:nonzero;fill:#fff;fill-opacity:1"/><path d="M13.266 8.844h-.004a.06.06 0 0 1-.063-.063v-.578c0-.035.028-.062.063-.062h.004c.035 0 .062.027.062.062v.578a.06.06 0 0 1-.062.063M13.266 9.805h-.004a.06.06 0 0 1-.063-.063v-.578c0-.035.028-.062.063-.062h.004c.035 0 .062.027.062.062v.578a.06.06 0 0 1-.062.063M13.266 10.766h-.004a.06.06 0 0 1-.063-.063v-.574c0-.035.028-.063.063-.063h.004c.035 0 .062.028.062.063v.574a.06.06 0 0 1-.062.063M13.266 11.73h-.004a.06.06 0 0 1-.063-.062v-.582c0-.035.028-.063.063-.063h.004c.035 0 .062.028.062.063v.578c0 .035-.027.066-.062.066M13.266 12.691h-.004a.06.06 0 0 1-.063-.062v-.578c0-.035.028-.063.063-.063h.004c.035 0 .062.028.062.063v.578a.064.064 0 0 1-.062.062M13.266 13.652h-.004a.064.064 0 0 1-.063-.062v-.578c0-.035.028-.063.063-.063h.004c.035 0 .062.028.062.063v.578a.064.064 0 0 1-.062.062M13.266 14.613h-.004a.064.064 0 0 1-.063-.062v-.578c0-.036.028-.063.063-.063h.004c.035 0 .062.027.062.063v.578a.06.06 0 0 1-.062.062M13.266 7.832h-.004a.064.064 0 0 1-.063-.062V7.19c0-.035.028-.062.063-.062h.004c.035 0 .062.027.062.062v.579a.064.064 0 0 1-.062.062m0 0" style="stroke:none;fill-rule:nonzero;fill:#404040;fill-opacity:1"/><path d="M108.719 64.094a2.64 2.64 0 0 1-2.625 2.625c-1.438 0-2.594-1.188-2.594-2.625a2.587 2.587 0 0 1 2.594-2.594c1.437 0 2.625 1.156 2.625 2.594ZM108.719 71.75a2.64 2.64 0 0 1-2.625 2.625c-1.438 0-2.594-1.187-2.594-2.625s1.156-2.625 2.594-2.625a2.64 2.64 0 0 1 2.625 2.625ZM108.719 79.406a2.64 2.64 0 0 1-2.625 2.625c-1.438 0-2.594-1.187-2.594-2.625a2.587 2.587 0 0 1 2.594-2.594c1.437 0 2.625 1.157 2.625 2.594ZM108.719 87.063c0 1.437-1.188 2.593-2.625 2.593a2.587 2.587 0 0 1-2.594-2.594c0-1.437 1.156-2.624 2.594-2.624a2.64 2.64 0 0 1 2.625 2.624ZM108.719 94.719a2.64 2.64 0 0 1-2.625 2.625c-1.438 0-2.594-1.188-2.594-2.625a2.587 2.587 0 0 1 2.594-2.594c1.437 0 2.625 1.156 2.625 2.594ZM108.719 102.375a2.64 2.64 0 0 1-2.625 2.625c-1.438 0-2.594-1.187-2.594-2.625a2.587 2.587 0 0 1 2.594-2.594c1.437 0 2.625 1.156 2.625 2.594ZM108.719 110.031c0 1.438-1.188 2.594-2.625 2.594a2.587 2.587 0 0 1-2.594-2.594c0-1.437 1.156-2.625 2.594-2.625a2.64 2.64 0 0 1 2.625 2.625ZM108.719 117.688a2.64 2.64 0 0 1-2.625 2.624c-1.438 0-2.594-1.187-2.594-2.624a2.587 2.587 0 0 1 2.594-2.594c1.437 0 2.625 1.156 2.625 2.594Zm0 0" style="fill:none;stroke-width:1;stroke-linecap:butt;stroke-linejoin:miter;stroke:#404040;stroke-opacity:1;stroke-miterlimit:10" transform="scale(.125)"/></svg>