<svg xmlns="http://www.w3.org/2000/svg" xmlns:xlink="http://www.w3.org/1999/xlink" width="16pt" height="16pt" viewBox="0 0 16 16"><defs><radialGradient id="c" cx="29.786" cy="66.916" r="19.444" fx="29.786" fy="66.916" gradientTransform="matrix(.12239 0 0 .11626 .26 1.011)" gradientUnits="userSpaceOnUse"><stop offset="0" style="stop-color:#ed7770;stop-opacity:1"/><stop offset=".9" style="stop-color:#ed7770;stop-opacity:0"/></radialGradient><linearGradient id="d" x1="64.074" x2="64.074" y1="19.743" y2="107.8" gradientTransform="scale(.125)" gradientUnits="userSpaceOnUse"><stop offset=".5" style="stop-color:#fee133;stop-opacity:1"/><stop offset=".612" style="stop-color:#fede32;stop-opacity:1"/><stop offset=".708" style="stop-color:#fcd32f;stop-opacity:1"/><stop offset=".797" style="stop-color:#fac12b;stop-opacity:1"/><stop offset=".883" style="stop-color:#f7a924;stop-opacity:1"/><stop offset=".9" style="stop-color:#f6a323;stop-opacity:1"/></linearGradient><clipPath id="b"><path d="M0 0h16v16H0z"/></clipPath><filter id="a" width="100%" height="100%" x="0%" y="0%" filterUnits="objectBoundingBox"><feColorMatrix in="SourceGraphic" values="0 0 0 0 1 0 0 0 0 1 0 0 0 0 1 0 0 0 1 0"/></filter><mask id="e"><g filter="url(#a)"><path d="M0 0h16v16H0z" style="fill:#000;fill-opacity:.8;stroke:none"/></g></mask><g id="f" clip-path="url(#b)"><path d="M6.094 8.793a2.189 2.189 0 0 1-4.375 0 2.186 2.186 0 1 1 4.375 0m0 0" style="stroke:none;fill-rule:nonzero;fill:url(#c)"/></g></defs><path d="M8.008 15C4.516 15 .754 12.813.754 8.008s3.762-6.992 7.254-6.992c1.937 0 3.73.64 5.05 1.804 1.442 1.274 2.208 3.067 2.208 5.188 0 2.11-.766 3.898-2.207 5.176C11.734 14.355 9.94 15 8.008 15m0 0" style="stroke:none;fill-rule:nonzero;fill:url(#d)"/><path d="M8.008 1.266c1.879 0 3.61.617 4.883 1.742 1.39 1.226 2.125 2.953 2.125 5 0 2.035-.735 3.762-2.125 4.988-1.278 1.133-3.008 1.754-4.883 1.754-1.88 0-3.617-.613-4.883-1.73-1.387-1.22-2.121-2.954-2.121-5.012 0-2.07.734-3.805 2.121-5.024 1.266-1.109 3-1.718 4.883-1.718m0-.5C4.113.766.504 3.266.504 8.008c0 4.715 3.61 7.242 7.504 7.242 3.898 0 7.508-2.594 7.508-7.242 0-4.676-3.61-7.242-7.508-7.242m0 0" style="stroke:none;fill-rule:nonzero;fill:#eb8f00;fill-opacity:1"/><path d="M29.094 44.063c-.907 0-1.719-.438-2.188-1.126-.468-.687-.562-1.562-.25-2.437 1.969-5 5.969-9.219 11-11.531 1.875-.875 3.844-1.469 5.875-1.719.125-.031.25-.031.375-.031 1.313 0 2.344.843 2.532 2.125a2.754 2.754 0 0 1-1.876 3.031l-.406-.719.282.75C39.094 34.25 34.344 38 31.406 42.72c-.5.843-1.343 1.343-2.312 1.343Zm0 0" style="fill-rule:nonzero;fill:#eb8f00;fill-opacity:1;stroke-width:1;stroke-linecap:butt;stroke-linejoin:miter;stroke:#eb8f00;stroke-opacity:1;stroke-miterlimit:10" transform="scale(.125)"/><path d="M12.207 11.938q-.582-.002-1.305-.114c.203-.336.266-.742.157-1.129-.188-.668-.325-1.593.09-2.21a1 1 0 0 1 .843-.446c.203 0 .395.059.559.172.312.21.48.555.457.918a.24.24 0 0 0 .11.223.23.23 0 0 0 .14.043q.053 0 .105-.024a1.02 1.02 0 0 1 1.012.07c.23.153.383.387.438.653.05.261 0 .527-.153.758-.48.742-1.262 1.085-2.453 1.085m0 0" style="stroke:none;fill-rule:nonzero;fill:#cc1775;fill-opacity:1"/><path d="M11.992 8.285c.149 0 .293.047.414.13l.008.007a.76.76 0 0 1 .344.687.5.5 0 0 0 .715.485.77.77 0 0 1 .762.055.77.77 0 0 1 .218 1.066c-.273.418-.805.969-2.25.969a8 8 0 0 1-.933-.063c.109-.316.12-.664.027-.996-.172-.617-.305-1.469.055-2.008a.78.78 0 0 1 .64-.332m0-.5c-.41 0-.812.2-1.055.559-.453.68-.332 1.656-.117 2.422.125.449-.03.933-.394 1.23a9.7 9.7 0 0 0 1.781.191c1.383 0 2.18-.453 2.664-1.199a1.265 1.265 0 0 0-.355-1.754 1.25 1.25 0 0 0-.707-.214c-.192 0-.383.043-.551.125a1.27 1.27 0 0 0-.563-1.141 1.23 1.23 0 0 0-.703-.219m0 0" style="stroke:none;fill-rule:nonzero;fill:#b3005c;fill-opacity:1"/><path d="M7.86 9.309c.046 0 .113-.004.175 0a3 3 0 0 1 .387.043c.066.011.133.023.203.046.066.016.137.047.207.07.07.036.14.067.211.118.066.043.137.11.195.172a.8.8 0 0 1 .153.238c.046.082.058.176.078.262v.008l.004.035v.035l.004.043v.031l-.004.024q-.001.041-.008.09c-.004.027-.012.058-.016.085-.008.028-.02.051-.027.079a.7.7 0 0 1-.07.136.7.7 0 0 1-.09.121c-.035.035-.067.07-.106.094-.07.055-.144.094-.215.129-.07.031-.14.05-.207.07q-.104.023-.203.04c-.07.007-.125.011-.21.015l.015-.676c.055.004.086.008.125.012.039.008.074.012.113.02q.111.027.223.066c.148.058.3.144.43.281.066.07.117.149.164.234q.03.066.054.133c.016.047.024.09.035.137s.012.09.016.133l.004.066v.031l-.008.07-.012.09c.004.005-.007.047-.02.075a.4.4 0 0 1-.034.094q-.017.046-.04.09l-.042.066c-.031.043-.063.09-.098.12q-.054.053-.11.099c-.034.027-.073.05-.113.078a.6.6 0 0 1-.109.058 1 1 0 0 1-.11.051c-.074.027-.144.055-.214.074-.145.04-.281.063-.418.078-.067.012-.137.016-.203.02-.07.004-.133.008-.215.008H7.75a.44.44 0 0 1 .012-.88c.011 0 .023.005.035.005a2 2 0 0 0 .144.004c.051 0 .106 0 .157-.004q.152-.006.293-.035c.046-.004.086-.02.129-.032.023-.004.035-.011.054-.02.016-.007.035-.01.047-.019l.043-.023a.1.1 0 0 1 .027-.02c.012-.004.008-.011.016-.015q.006-.007.012-.008s-.004.004-.004.008c-.004.004 0 .008 0 .011 0 0 .008.016.008-.007l.02-.09v-.012l.003-.004v-.004c-.004.02.004-.047-.008.047v-.039c0-.016.004-.035 0-.047q-.005-.02-.004-.039l-.011-.035a.3.3 0 0 0-.036-.063.4.4 0 0 0-.16-.12 1 1 0 0 0-.117-.044q-.033-.012-.066-.02l-.051-.007-.012-.004a.34.34 0 0 1-.265-.402.33.33 0 0 1 .289-.27c.027-.004.078-.011.117-.02q.063-.012.121-.03a.5.5 0 0 0 .16-.09c.008-.008.008-.016.016-.02q.005-.006.004-.012c.004 0 0-.004 0-.007v-.004c0 .004-.004.008-.004.008q-.001.005.004.011l-.004-.027-.004-.043-.004-.031v-.004c.008.07.004.02.004.035v-.004c-.012-.016-.008-.04-.02-.047-.008-.012-.023-.023-.03-.035-.02-.008-.028-.023-.056-.035a1 1 0 0 0-.082-.035c-.035-.008-.066-.02-.105-.028a1.2 1.2 0 0 0-.25-.023 1 1 0 0 0-.137 0c-.043 0-.086.004-.148.008a.44.44 0 0 1-.473-.403.44.44 0 0 1 .402-.468h.032ZM9.082 6.52s.008-.004.027-.02c.004-.008.016-.016.028-.023.015-.016.039-.028.062-.043.051-.032.098-.063.16-.094q.093-.046.207-.086c.157-.055.34-.094.536-.113.195-.02.406-.012.613.015.062.012.086.012.144.024q.087.017.157.035c.101.023.195.058.289.094.183.07.351.16.484.257a1.7 1.7 0 0 1 .402.399.34.34 0 0 1-.082.476.34.34 0 0 1-.398-.003l-.035-.024-.074-.05a2.52 2.52 0 0 0-.785-.297c-.04-.012-.07-.016-.106-.024-.027-.004-.094-.012-.117-.02a4 4 0 0 0-.446-.03c-.14.003-.27.01-.375.027q-.075.016-.14.027a1 1 0 0 0-.098.027q-.018.002-.031.004-.022.011-.04.016l-.027.011a.35.35 0 0 1-.453-.19.355.355 0 0 1 .098-.395m0 0" style="stroke:none;fill-rule:nonzero;fill:#242424;fill-opacity:1"/><path d="M8.996 6.559q.002.001.016-.028a2.346 2.346 0 0 1 .313-.387c.109-.109.241-.226.39-.335.078-.055.152-.114.238-.164.082-.055.16-.102.254-.157.078-.043.168-.093.258-.136.086-.043.176-.079.262-.118.171-.07.34-.125.488-.16.148-.039.281-.058.379-.062.094-.008.156-.008.156-.008a.345.345 0 0 1 .328.36.33.33 0 0 1-.223.308l-.027.012s-.035.011-.094.035c-.062.023-.156.058-.27.11-.112.05-.245.112-.386.187l-.219.113a7 7 0 0 0-.445.254 5 5 0 0 0-.21.129 7 7 0 0 0-.36.234q-.153.111-.235.176c-.02.016-.039.027-.058.047q-.024.021-.024.02a.34.34 0 0 1-.488-.024.355.355 0 0 1-.043-.406m0 0" style="stroke:none;fill-rule:nonzero;fill:#242424;fill-opacity:1"/><use xlink:href="#f" mask="url(#e)"/><path d="M5.582 5.078c-.523 0-1 .442-1 1.176s.477 1.176 1 1.176c.527 0 1-.442 1-1.176s-.473-1.176-1-1.176m0 0" style="stroke:none;fill-rule:nonzero;fill:#242424;fill-opacity:1"/></svg>