<svg xmlns="http://www.w3.org/2000/svg" width="16pt" height="16pt" viewBox="0 0 16 16"><defs><linearGradient id="a" x1="64" x2="64" y1="122.24" y2="5.643" gradientTransform="scale(.125)" gradientUnits="userSpaceOnUse"><stop offset=".07" style="stop-color:#603813;stop-opacity:1"/><stop offset=".834" style="stop-color:#8c6239;stop-opacity:1"/></linearGradient><linearGradient id="b" x1="64" x2="64" y1="101.46" y2="27.886" gradientTransform="scale(.125)" gradientUnits="userSpaceOnUse"><stop offset="0" style="stop-color:#e6a500;stop-opacity:1"/><stop offset=".077" style="stop-color:#eaac0d;stop-opacity:1"/><stop offset=".302" style="stop-color:#f3be2d;stop-opacity:1"/><stop offset=".52" style="stop-color:#facb44;stop-opacity:1"/><stop offset=".723" style="stop-color:#fed252;stop-opacity:1"/><stop offset=".899" style="stop-color:#ffd557;stop-opacity:1"/></linearGradient><linearGradient id="c" x1="64" x2="64" y1="66.629" y2="75.856" gradientTransform="scale(.125)" gradientUnits="userSpaceOnUse"><stop offset=".163" style="stop-color:#4d4d4d;stop-opacity:1"/><stop offset=".367" style="stop-color:#373737;stop-opacity:1"/><stop offset=".784" style="stop-color:#0f0f0f;stop-opacity:1"/><stop offset="1" style="stop-color:#000;stop-opacity:1"/></linearGradient></defs><path d="M7.988 15.281a14.4 14.4 0 0 1-2.347-1.187c-.688-.446-1.192-1.031-1.493-1.383-.242-.277-.32-.371-.453-.371a.2.2 0 0 0-.148.062c-.063.067-.067.149-.067.207a.7.7 0 0 1-.027.25C2.38 12.031 1.97 11.07 1.82 10.566c-.043-.144-.144-.234-.265-.234q-.153 0-.27.18c-.008.015-.02.039-.023.054a.6.6 0 0 1-.176.246c-.668-1.695.039-3.292.379-3.906a.285.285 0 0 0-.254-.422c-.031 0-.059 0-.086.012l-.375.11C.805 5.14 1.777 4.045 2.203 3.64a.28.28 0 0 0 .074-.29.3.3 0 0 0-.234-.199 1.4 1.4 0 0 1-.348-.097C2.86 1.117 4.585.707 5.84.707c.984 0 1.781.242 2.031.332A.2.2 0 0 0 8 1.086a.18.18 0 0 0 .129-.05 6.5 6.5 0 0 1 2.035-.333c1.254 0 2.977.41 4.14 2.348a1.4 1.4 0 0 1-.343.101.29.29 0 0 0-.238.196.29.29 0 0 0 .074.293c.426.406 1.402 1.496 1.457 2.964l-.379-.113a.295.295 0 0 0-.336.133.29.29 0 0 0-.004.281c.344.614 1.047 2.211.38 3.907a.64.64 0 0 1-.18-.254.2.2 0 0 0-.024-.047c-.074-.117-.164-.18-.266-.18-.125 0-.222.09-.265.234-.149.508-.559 1.47-1.64 2.301a.7.7 0 0 1-.036-.258c0-.03.004-.129-.066-.203a.21.21 0 0 0-.149-.062c-.133 0-.223.101-.46.37-.317.36-.849.958-1.567 1.376-1 .582-2.008 1.062-2.274 1.191m0 0" style="stroke:none;fill-rule:nonzero;fill:url(#a)"/><path d="M10.16.89c1.668 0 2.965.696 3.86 2.06a1 1 0 0 1-.086.015.47.47 0 0 0-.387.324.46.46 0 0 0 .121.484c.383.368 1.227 1.309 1.375 2.575l-.117-.035a.479.479 0 0 0-.547.215.47.47 0 0 0-.008.468c.305.55.91 1.91.488 3.395-.14-.203-.304-.246-.414-.246-.164 0-.367.097-.445.367-.133.441-.469 1.246-1.316 1.988a.4.4 0 0 0-.11-.223.4.4 0 0 0-.285-.125c-.215 0-.336.137-.601.434-.31.351-.829.937-1.52 1.34-.918.535-1.84.984-2.184 1.148a14 14 0 0 1-2.242-1.14c-.668-.43-1.16-1-1.453-1.344-.258-.3-.375-.438-.594-.438a.403.403 0 0 0-.395.34c-.835-.742-1.171-1.539-1.3-1.976-.078-.274-.281-.371-.445-.371-.114 0-.274.046-.414.246-.422-1.485.183-2.844.488-3.395a.474.474 0 0 0-.555-.68l-.117.032c.148-1.266.996-2.207 1.375-2.57a.46.46 0 0 0 .121-.485.46.46 0 0 0-.387-.324q-.042-.008-.086-.016C2.875 1.586 4.172.891 5.84.891c.918 0 1.664.218 1.937.312.063.047.141.07.223.07s.16-.023.223-.07A6.3 6.3 0 0 1 10.16.891m0-.375c-1.039 0-1.879.265-2.113.351A.14.14 0 0 0 8 .898c-.012-.011-.027-.027-.047-.03A6.7 6.7 0 0 0 5.84.515c-1.402 0-3.176.48-4.36 2.53a.097.097 0 0 0 .047.138c.11.05.297.128.489.156.082.012.117.11.058.164C1.633 3.926.563 5.117.56 6.719a.1.1 0 0 0 .101.101q.016.001.031-.004l.485-.144c.012 0 .023-.004.031-.004.074 0 .129.074.09.144-.328.594-1.125 2.344-.344 4.176.016.04.055.059.094.059a.1.1 0 0 0 .062-.016.87.87 0 0 0 .329-.41q.004-.007.003-.008c.043-.066.082-.093.114-.093.039 0 .07.046.086.097.152.524.593 1.574 1.785 2.457q.029.022.062.02a.1.1 0 0 0 .09-.051.83.83 0 0 0 .09-.441q-.006-.076.023-.075c.133 0 .762 1.036 1.844 1.73A14.2 14.2 0 0 0 8 15.5c.02 0 1.172-.55 2.355-1.238 1.122-.653 1.793-1.727 1.93-1.727q.032-.002.027.067c-.011.218.051.359.098.445.02.031.055.047.094.047a.14.14 0 0 0 .066-.02c1.188-.883 1.633-1.933 1.79-2.457.015-.05.042-.097.085-.097.032 0 .067.023.11.09q.005.005.004.011a.84.84 0 0 0 .332.406c.015.016.039.02.058.02.04 0 .078-.024.094-.063.781-1.832-.016-3.578-.344-4.171-.039-.07.016-.145.09-.145q.013-.001.031.004l.485.14a.1.1 0 0 0 .03.008c.056 0 .106-.047.106-.101-.007-1.606-1.074-2.793-1.515-3.215-.063-.059-.028-.156.058-.168a1.8 1.8 0 0 0 .489-.152.1.1 0 0 0 .043-.137C13.336.997 11.563.516 10.16.516m0 0" style="stroke:none;fill-rule:nonzero;fill:#61422a;fill-opacity:1"/><path d="M48.406 36a10.963 10.963 0 0 1-10.968 10.969C31.406 46.969 26.5 42.062 26.5 36s4.906-10.969 10.938-10.969A10.963 10.963 0 0 1 48.406 36Zm0 0" style="fill-rule:nonzero;fill:#fbb03b;fill-opacity:1;stroke-width:3;stroke-linecap:butt;stroke-linejoin:round;stroke:#e68d00;stroke-opacity:1;stroke-miterlimit:10" transform="scale(.125)"/><path d="M5.46 4.5a.781.781 0 1 1-1.561 0 .781.781 0 0 1 1.562 0m0 0" style="stroke:none;fill-rule:nonzero;fill:#fff;fill-opacity:1"/><path d="M101.5 36c0 6.063-4.906 10.969-10.937 10.969A10.963 10.963 0 0 1 79.593 36a10.963 10.963 0 0 1 10.97-10.969c6.03 0 10.937 4.907 10.937 10.969Zm0 0" style="fill-rule:nonzero;fill:#fbb03b;fill-opacity:1;stroke-width:3;stroke-linecap:butt;stroke-linejoin:round;stroke:#e68d00;stroke-opacity:1;stroke-miterlimit:10" transform="scale(.125)"/><path d="M12.102 4.5a.781.781 0 1 1-1.563 0 .781.781 0 0 1 1.563 0m0 0" style="stroke:none;fill-rule:nonzero;fill:#fff;fill-opacity:1"/><path d="M8 12.684c-2.926 0-4.82-1.762-4.82-4.489 0-2.863 1.894-4.71 4.82-4.71s4.82 1.847 4.82 4.71c0 2.727-1.894 4.489-4.82 4.489m0 0" style="stroke:none;fill-rule:nonzero;fill:url(#b)"/><path d="M8 3.672c2.813 0 4.633 1.777 4.633 4.523 0 2.653-1.778 4.301-4.633 4.301s-4.633-1.648-4.633-4.3c0-2.747 1.82-4.524 4.633-4.524m0-.375c-3.2 0-5.008 2.133-5.008 4.898 0 2.766 1.863 4.676 5.008 4.676s5.008-1.91 5.008-4.676S11.199 3.297 8 3.297m0 0" style="stroke:none;fill-rule:nonzero;fill:#e68d00;fill-opacity:1"/><path d="M64 92.375v-9.5" style="fill:none;stroke-width:3;stroke-linecap:round;stroke-linejoin:round;stroke:#000;stroke-opacity:1;stroke-miterlimit:10" transform="scale(.125)"/><path d="M6.336 7.223c0-.485-.344-.88-.774-.88s-.773.395-.773.88c0 .484.344.875.774.875s.773-.391.773-.875M11.21 7.223c0-.485-.343-.88-.773-.88s-.773.395-.773.88c0 .484.344.875.774.875s.773-.391.773-.875m0 0" style="stroke:none;fill-rule:nonzero;fill:#404040;fill-opacity:1"/><path d="M8.328 9.95c0-.81-.703-1.462-1.57-1.462s-1.57.653-1.57 1.461c0 .805.703 1.461 1.57 1.461s1.57-.656 1.57-1.46m0 0" style="stroke:none;fill-rule:nonzero;fill:#fff;fill-opacity:1"/><path d="M10.813 9.95c0-.81-.704-1.462-1.57-1.462-.868 0-1.571.653-1.571 1.461 0 .805.703 1.461 1.57 1.461s1.57-.656 1.57-1.46m0 0" style="stroke:none;fill-rule:nonzero;fill:#fff;fill-opacity:1"/><path d="M8 9.438c.379 0 .727-.395.938-.708a.226.226 0 0 0-.192-.355H7.254c-.184 0-.297.203-.191.355.21.313.558.707.937.707m0 0" style="stroke:none;fill-rule:nonzero;fill:url(#c)"/><path d="M55.781 96.219 63.72 92.5M72.219 96.219 63.78 92.5" style="fill:none;stroke-width:3;stroke-linecap:round;stroke-linejoin:round;stroke:#000;stroke-opacity:1;stroke-miterlimit:10" transform="scale(.125)"/></svg>