<svg xmlns="http://www.w3.org/2000/svg" xmlns:xlink="http://www.w3.org/1999/xlink" width="16pt" height="16pt" viewBox="0 0 16 16"><defs><clipPath id="f"><path d="M2 6h12v4H2Zm0 0"/></clipPath><clipPath id="g"><path d="M7.984 9.543c-3.91 0-5.757-.813-5.757-.813s2.539-3.316 5.757-3.316c3.22 0 5.778 3.305 5.778 3.305s-1.867.824-5.778.824m0 0"/></clipPath><clipPath id="b"><path d="M0 0h16v16H0z"/></clipPath><clipPath id="c"><path d="M0 0h16v16H0z"/></clipPath><linearGradient id="d" x1="64" x2="64" y1="38.902" y2="103.02" gradientTransform="scale(.125)" gradientUnits="userSpaceOnUse"><stop offset="0" style="stop-color:#e91e63;stop-opacity:1"/><stop offset=".76" style="stop-color:#f06292;stop-opacity:1"/></linearGradient><linearGradient id="e" x1="63.938" x2="63.938" y1="43.543" y2="60.137" gradientTransform="scale(.125)" gradientUnits="userSpaceOnUse"><stop offset=".107" style="stop-color:#e0e0e0;stop-opacity:1"/><stop offset=".455" style="stop-color:#fafafa;stop-opacity:1"/></linearGradient><linearGradient id="h" x1="63.994" x2="63.994" y1="50.542" y2="72.417" gradientTransform="scale(.125)" gradientUnits="userSpaceOnUse"><stop offset=".545" style="stop-color:#632627;stop-opacity:1"/><stop offset=".893" style="stop-color:#522627;stop-opacity:1"/></linearGradient><mask id="i"><g filter="url(#a)"><path d="M0 0h16v16H0z" style="fill:#000;fill-opacity:.2;stroke:none"/></g></mask><mask id="k"><g filter="url(#a)"><path d="M0 0h16v16H0z" style="fill:#000;fill-opacity:.2;stroke:none"/></g></mask><g id="j" clip-path="url(#b)"><path d="M9.559 3.926c.433 0 1.46.34 3.46 2.601a32 32 0 0 1 1.887 2.368c-.363.214-.965.613-1.758 1.246q-.217.176-.453.375c-1.09.918-2.449 2.058-4.68 2.058-2.62 0-3.84-1.144-4.917-2.156q-.141-.134-.282-.262a11.5 11.5 0 0 0-1.722-1.3C1.454 8.374 2.168 7.445 3 6.52 5.027 4.277 6.043 3.94 6.465 3.94c.59 0 .926.211 1.101.387a.645.645 0 0 0 .903.024 1.6 1.6 0 0 1 1.09-.426m0-.375c-.657 0-1.106.304-1.34.527a.3.3 0 0 1-.188.07.3.3 0 0 1-.199-.082c-.21-.214-.629-.5-1.363-.5-2.086 0-5.922 5.407-5.922 5.407s.996.515 2.02 1.457c1.132 1.043 2.437 2.52 5.449 2.52 2.707 0 4.214-1.59 5.37-2.52 1.29-1.032 2.067-1.414 2.067-1.414S11.695 3.55 9.56 3.55m0 0" style="stroke:none;fill-rule:nonzero;fill:#424242;fill-opacity:1"/></g><g id="l" clip-path="url(#c)"><path d="M7.984 5.79c2.34 0 4.348 1.905 5.13 2.757-.22.066-.516.144-.887.223-.848.183-2.274.398-4.243.398-2.652 0-4.343-.383-5.113-.613.774-.856 2.777-2.766 5.113-2.766m0-.375c-3.218 0-5.757 3.316-5.757 3.316s1.847.813 5.757.813 5.774-.824 5.774-.824-2.555-3.305-5.774-3.305m0 0" style="stroke:none;fill-rule:nonzero;fill:#424242;fill-opacity:1"/></g><filter id="a" width="100%" height="100%" x="0%" y="0%" filterUnits="objectBoundingBox"><feColorMatrix in="SourceGraphic" values="0 0 0 0 1 0 0 0 0 1 0 0 0 0 1 0 0 0 1 0"/></filter></defs><path d="M8.016 12.95c-3.012 0-4.317-1.477-5.45-2.52C1.543 9.488.546 8.973.546 8.973S4.384 3.566 6.47 3.566c.734 0 1.152.286 1.363.5.106.106.277.11.387.012a1.94 1.94 0 0 1 1.34-.527c2.136 0 5.894 5.465 5.894 5.465s-.777.382-2.066 1.414c-1.157.93-2.664 2.52-5.371 2.52m0 0" style="stroke:none;fill-rule:nonzero;fill:url(#d)"/><path d="M7.984 9.543c-3.91 0-5.757-.813-5.757-.813s2.539-3.316 5.757-3.316c3.22 0 5.778 3.305 5.778 3.305s-1.867.824-5.778.824m0 0" style="stroke:none;fill-rule:nonzero;fill:url(#e)"/><g clip-path="url(#f)"><g clip-path="url(#g)"><path d="M15.797 10.227c0 2.59-3.492 4.687-7.797 4.687S.203 12.816.203 10.227c0-1.383 3.824-3.48 3.824-3.48s1.028.448 3.973.448c2.941 0 4.035-.418 4.035-.418s3.762 2.086 3.762 3.45m0 0" style="stroke:none;fill-rule:nonzero;fill:url(#h)"/></g></g><use xlink:href="#j" mask="url(#i)"/><use xlink:href="#l" mask="url(#k)"/></svg>