<svg xmlns="http://www.w3.org/2000/svg" xmlns:xlink="http://www.w3.org/1999/xlink" width="16pt" height="16pt" viewBox="0 0 16 16"><defs><radialGradient id="c" cx="63.41" cy="-3.001" r="76.735" fx="63.41" fy="-3.001" gradientTransform="matrix(.12481 0 0 .11671 .012 .53)" gradientUnits="userSpaceOnUse"><stop offset=".475" style="stop-color:#e53935;stop-opacity:1"/><stop offset=".913" style="stop-color:#c62828;stop-opacity:1"/></radialGradient><clipPath id="b"><path d="M0 0h16v16H0z"/></clipPath><filter id="a" width="100%" height="100%" x="0%" y="0%" filterUnits="objectBoundingBox"><feColorMatrix in="SourceGraphic" values="0 0 0 0 1 0 0 0 0 1 0 0 0 0 1 0 0 0 1 0"/></filter><mask id="d"><g filter="url(#a)"><path d="M0 0h16v16H0z" style="fill:#000;fill-opacity:.2;stroke:none"/></g></mask><g id="e" clip-path="url(#b)"><path d="M11.738 1.512c1.059 0 2.051.457 2.657 1.222.71.895.898 2.172.543 3.696-.75 3.203-5.887 7.21-6.946 8.008-1.07-.805-6.203-4.81-6.953-8.008-.355-1.524-.168-2.797.54-3.692.612-.77 1.605-1.226 2.66-1.226 2.445 0 3.386 2.976 3.398 3.008l.351 1.171.364-1.168c.007-.03.96-3.011 3.386-3.011m0-.375C9 1.137 7.992 4.41 7.992 4.41S7 1.137 4.238 1.137c-2.07 0-4.437 1.64-3.562 5.379.87 3.734 7.289 8.37 7.289 8.37S8 14.872 8 14.853c0 .02.02.03.02.03s6.41-4.632 7.28-8.366c.876-3.739-1.488-5.38-3.562-5.38m0 0" style="stroke:none;fill-rule:nonzero;fill:#424242;fill-opacity:1"/></g></defs><path d="M11.738 1.137C9 1.137 7.992 4.41 7.992 4.41S7 1.137 4.238 1.137c-2.07 0-4.437 1.64-3.562 5.379.87 3.734 7.289 8.37 7.289 8.37S8 14.872 8 14.853c0 .02.02.03.02.03s6.41-4.632 7.28-8.366c.876-3.739-1.488-5.38-3.562-5.38m0 0" style="stroke:none;fill-rule:nonzero;fill:url(#c)"/><use xlink:href="#e" mask="url(#d)"/></svg>