<svg xmlns="http://www.w3.org/2000/svg" width="16pt" height="16pt" viewBox="0 0 16 16"><defs><clipPath id="b"><path d="M4 8h2v3H4Zm0 0"/></clipPath><clipPath id="c"><path d="m4.043 8.984.031-.004-.027-1.105c0-.605.187-1.3 1.039-1.453.437-.078.93.113 1.074.113s.156-.125.156-.125l.012-4.75c0-.578.36-1.125 1.043-1.125.688 0 1.074.465 1.074 1.125l.106 4.637s.039.195.07.207c.184.055.418-.172 1.086-.047s.871.672 1.094.715c.222.047.379-.086 1.008-.086.632 0 1.187.492 1.187 1.098l-.043 3.718c0 .516-.433 1.032-.531 1.145a2.12 2.12 0 0 0-.547 1.418v.25c0 .59-.523.816-1.14.82l-4.348.02c-.582.004-1.055-.364-1.055-1.008 0-.645-.062-1.227-.578-1.48-.52-.258-1.55-1.5-1.649-2.75-.07-.864.278-1.258.938-1.333m0 0"/></clipPath><radialGradient id="a" cx="927.09" cy="26.957" r="74.733" fx="927.09" fy="26.957" gradientTransform="matrix(-.13028 0 0 .125 128.225 0)" gradientUnits="userSpaceOnUse"><stop offset=".6" style="stop-color:#f9ddbd;stop-opacity:1"/><stop offset="1" style="stop-color:#edc391;stop-opacity:1"/></radialGradient></defs><path d="M6.371 15.371c-.394 0-.855-.215-.855-.824 0-.633-.055-1.34-.684-1.649-.43-.21-1.555-1.648-1.637-2.847-.05-.715.239-.817.762-1.004.05-.02.106-.04.16-.059.133-.05.133-.05.117-1.117 0-.742.29-1.16.887-1.266.059-.007.121-.015.191-.015.211 0 .434.05.594.09.11.023.192.043.254.043.23 0 .332-.176.344-.29q.005-.01.004-.023l.008-4.75c0-.453.27-.937.859-.937.555 0 .887.347.887.937l.101 4.64c0 .013.004.024.004.036.043.2.086.312.203.348.04.011.075.02.117.02.075 0 .145-.02.223-.04.106-.023.235-.055.414-.055q.16 0 .348.036c.367.066.57.28.734.457.117.12.219.23.36.257a1 1 0 0 0 .129.012c.085 0 .168-.016.261-.031a3 3 0 0 1 .656-.067c.543 0 1 .418 1 .91l-.042 3.72c0 .413-.368.85-.52 1.019-.379.43-.621.976-.621 1.543v.254c0 .515-.5.629-.926.629Zm0 0" style="stroke:none;fill-rule:nonzero;fill:url(#a)"/><path d="M7.375.875h.023c.61 0 .727.504.727.785v.008l.078 4.64c0 .02-.012.044-.008.067.032.156.078.414.325.488.058.016.109.028.171.028.094 0 .18-.024.266-.043.102-.024.211-.051.367-.051q.146-.002.317.031c.304.055.468.23.629.402.125.133.257.274.457.313a1 1 0 0 0 .168.016c.101 0 .195-.016.293-.036.14-.027.316-.058.624-.058.43 0 .81.336.81.719l-.044 3.722c0 .239-.156.574-.437.89a2.52 2.52 0 0 0-.641 1.665v.254c0 .113-.027.445-.766.445l-4.351.024c-.324 0-.676-.168-.676-.637 0-.5 0-1.43-.785-1.817-.395-.19-1.457-1.574-1.535-2.695-.04-.57.117-.625.636-.812q.078-.03.16-.059c.25-.094.247-.309.247-.5v-.328l-.008-.461c0-.855.418-1.027.734-1.086a1 1 0 0 1 .157-.012c.195 0 .402.047.55.082.125.032.215.051.301.051.313 0 .504-.23.527-.457q.005-.018.004-.043l.008-4.765c0-.282.14-.77.672-.77m-.004-.34c-.684 0-1.043.55-1.043 1.13l-.012 4.75s-.011.12-.156.12c-.117 0-.48-.133-.848-.133q-.116.001-.226.02c-.852.152-1.04.848-1.04 1.453 0 0 .016.934.005.938-.598.226-1.106.312-1.04 1.25.087 1.25 1.223 2.75 1.743 3.007.516.254.574.805.574 1.45s.469.98 1.047.98h.004l4.355.008c.618 0 1.141-.2 1.141-.79v-.25c0-.519.195-1.023.547-1.421.098-.11.539-.625.539-1.14L13 8.186c0-.609-.555-1.097-1.187-1.097-.54 0-.735.094-.918.094q-.048.002-.094-.008c-.223-.043-.426-.594-1.094-.715a2 2 0 0 0-.383-.04c-.332 0-.504.095-.636.095a.3.3 0 0 1-.063-.008c-.031-.012-.074-.207-.074-.207l-.102-4.64C8.445 1.003 8.06.534 7.371.534m0 0" style="stroke:none;fill-rule:nonzero;fill:#e6b77e;fill-opacity:1"/><g clip-path="url(#b)"><g clip-path="url(#c)"><path d="M5.059 10.566c-.16.11-.766-.261-.95-.882-.214-.72-.02-1.407-.02-1.407s.36.77.513 1.063c.343.644.609 1.12.457 1.226m0 0" style="stroke:none;fill-rule:nonzero;fill:#e6b77e;fill-opacity:1"/></g></g></svg>