<svg xmlns="http://www.w3.org/2000/svg" width="16pt" height="16pt" viewBox="0 0 16 16"><defs><clipPath id="c"><path d="M4 9h8v4H4Zm0 0"/></clipPath><clipPath id="d"><path d="M8.82 12.848c1.473-.293 2.446-1.368 2.672-2.575a.316.316 0 0 0-.37-.37c-.895.167-1.97.261-3.122.261-1.156 0-2.227-.094-3.121-.262a.316.316 0 0 0-.371.375c.297 1.457 1.726 2.649 3.488 2.649q.436-.002.824-.078"/></clipPath><clipPath id="e"><path d="M4 9h8v2H4Zm0 0"/></clipPath><clipPath id="f"><path d="M8.82 12.848c1.473-.293 2.446-1.368 2.672-2.575a.316.316 0 0 0-.37-.37c-.895.167-1.97.261-3.122.261-1.156 0-2.227-.094-3.121-.262a.316.316 0 0 0-.371.375c.297 1.457 1.726 2.649 3.488 2.649q.436-.002.824-.078"/></clipPath><clipPath id="g"><path d="M5 11h6v2H5Zm0 0"/></clipPath><clipPath id="h"><path d="M8.82 12.848c1.473-.293 2.446-1.368 2.672-2.575a.316.316 0 0 0-.37-.37c-.895.167-1.97.261-3.122.261-1.156 0-2.227-.094-3.121-.262a.316.316 0 0 0-.371.375c.297 1.457 1.726 2.649 3.488 2.649q.436-.002.824-.078"/></clipPath><linearGradient id="a" x1="64.071" x2="64.071" y1="113.87" y2="13.865" gradientTransform="scale(.125)" gradientUnits="userSpaceOnUse"><stop offset="0" style="stop-color:#825c40;stop-opacity:1"/><stop offset=".167" style="stop-color:#855f41;stop-opacity:1"/><stop offset=".31" style="stop-color:#906746;stop-opacity:1"/><stop offset=".445" style="stop-color:#a2764d;stop-opacity:1"/><stop offset=".488" style="stop-color:#a97c50;stop-opacity:1"/></linearGradient><linearGradient id="b" x1="64.071" x2="64.071" y1="36.395" y2="109.5" gradientTransform="scale(.125)" gradientUnits="userSpaceOnUse"><stop offset=".259" style="stop-color:#e6b175;stop-opacity:1"/><stop offset=".455" style="stop-color:#e2ac70;stop-opacity:1"/><stop offset=".686" style="stop-color:#d59e62;stop-opacity:1"/><stop offset=".935" style="stop-color:#c0884a;stop-opacity:1"/><stop offset=".969" style="stop-color:#bd8446;stop-opacity:1"/></linearGradient></defs><path d="M6.29 8.25c0-1.734-1.255-3.14-2.802-3.14s-2.8 1.406-2.8 3.14 1.253 3.14 2.8 3.14S6.29 9.985 6.29 8.25m0 0" style="stroke:none;fill-rule:nonzero;fill:#e6b175;fill-opacity:1"/><path d="M3.488 5.297c1.442 0 2.614 1.324 2.614 2.953s-1.172 2.953-2.614 2.953S.875 9.88.875 8.25s1.172-2.953 2.613-2.953m0-.375C1.84 4.922.5 6.41.5 8.25s1.34 3.328 2.988 3.328c1.653 0 2.989-1.488 2.989-3.328S5.14 4.922 3.488 4.922m0 0" style="stroke:none;fill-rule:nonzero;fill:#8b5e3c;fill-opacity:1"/><path d="M12.512 11.39c-1.547 0-2.801-1.406-2.801-3.14s1.254-3.14 2.8-3.14c1.544 0 2.802 1.406 2.802 3.14s-1.258 3.14-2.801 3.14m0 0" style="stroke:none;fill-rule:nonzero;fill:#e6b175;fill-opacity:1"/><path d="M12.512 5.297c1.441 0 2.613 1.324 2.613 2.953s-1.172 2.953-2.613 2.953S9.898 9.88 9.898 8.25s1.172-2.953 2.614-2.953m0-.375c-1.653 0-2.989 1.488-2.989 3.328s1.336 3.328 2.989 3.328c1.648 0 2.988-1.488 2.988-3.328s-1.34-3.328-2.988-3.328m0 0" style="stroke:none;fill-rule:nonzero;fill:#8b5e3c;fill-opacity:1"/><path d="M8.008 14.234c-1.793 0-3.332-.683-4.453-1.972-1.04-1.196-1.61-2.79-1.61-4.496 0-3 1.875-6.032 6.063-6.032s6.062 3.032 6.062 6.032c0 1.707-.57 3.3-1.605 4.496-1.121 1.289-2.664 1.972-4.457 1.972m0 0" style="stroke:none;fill-rule:nonzero;fill:url(#a)"/><path d="M8.008 1.922c1.793 0 3.297.59 4.351 1.703.985 1.043 1.524 2.512 1.524 4.14 0 1.66-.555 3.212-1.559 4.372-1.086 1.25-2.578 1.91-4.316 1.91s-3.227-.66-4.313-1.91c-1.007-1.16-1.562-2.711-1.562-4.371 0-1.63.543-3.098 1.527-4.141 1.05-1.113 2.555-1.703 4.348-1.703m0-.375c-3.992 0-6.25 2.785-6.25 6.219 0 3.437 2.324 6.656 6.25 6.656s6.25-3.219 6.25-6.656c0-3.434-2.254-6.22-6.25-6.22m0 0" style="stroke:none;fill-rule:nonzero;fill:#8b5e3c;fill-opacity:1"/><path d="M13.148 7.027c0-1.367-1.152-2.476-2.574-2.476-1.27 0-2.32.879-2.535 2.039-.012 0-.027-.004-.039-.004h-.02C7.762 5.43 6.71 4.55 5.445 4.55c-1.422 0-2.578 1.11-2.578 2.476 0 .735.336 1.391.867 1.844a2.5 2.5 0 0 0-.222 1.031c0 1.832 2.008 3.786 4.488 3.786s4.488-1.954 4.488-3.786c0-.355-.074-.699-.215-1.02a2.43 2.43 0 0 0 .875-1.855m0 0" style="stroke:none;fill-rule:nonzero;fill:url(#b)"/><path d="M6.16 7.375c0-.613-.441-1.113-.984-1.113s-.985.5-.985 1.113c0 .617.442 1.113.985 1.113s.984-.496.984-1.113M11.809 7.375c0-.613-.442-1.113-.985-1.113s-.984.5-.984 1.113c0 .617.441 1.113.984 1.113s.985-.496.985-1.113m0 0" style="stroke:none;fill-rule:nonzero;fill:#404040;fill-opacity:1"/><g clip-path="url(#c)"><g clip-path="url(#d)"><path d="M64 81.313c-9.25 0-17.812-.75-24.969-2.094-1.781-.344-3.343 1.219-2.968 3 2.374 11.656 13.812 21.187 27.906 21.187 15.437 0 25.812-9.875 27.969-21.219a2.53 2.53 0 0 0-2.97-2.968C81.813 80.53 73.219 81.313 64 81.313Zm0 0" style="fill-rule:nonzero;fill:#404040;fill-opacity:1;stroke-width:1;stroke-linecap:butt;stroke-linejoin:miter;stroke:#404040;stroke-opacity:1;stroke-miterlimit:10" transform="scale(.125)"/></g></g><g clip-path="url(#e)"><g clip-path="url(#f)"><path d="M11.875 9.871V8.75h-7.75v1.121A7.34 7.34 0 0 0 8 10.973c1.387 0 2.75-.395 3.875-1.102m0 0" style="stroke:none;fill-rule:nonzero;fill:#fff;fill-opacity:1"/></g></g><g clip-path="url(#g)"><g clip-path="url(#h)"><path d="M8 11.918a2.33 2.33 0 0 0-2.02 1.172c.52.285 1.235.46 2.02.46s1.5-.175 2.02-.46A2.33 2.33 0 0 0 8 11.918m0 0" style="stroke:none;fill-rule:nonzero;fill:#ff4f4f;fill-opacity:1"/></g></g><path d="M7.648 8.766c0-.27-.136-.489-.304-.489s-.305.22-.305.489c0 .27.137.488.305.488s.304-.219.304-.488M8.96 8.766c0-.27-.136-.489-.304-.489s-.304.22-.304.489c0 .27.136.488.304.488s.305-.219.305-.488m0 0" style="stroke:none;fill-rule:nonzero;fill:#404040;fill-opacity:1"/></svg>