<svg xmlns="http://www.w3.org/2000/svg" width="16pt" height="16pt" viewBox="0 0 16 16"><defs><linearGradient id="a" x1="27.926" x2="27.926" y1="11.279" y2="59.394" gradientTransform="scale(.125)" gradientUnits="userSpaceOnUse"><stop offset=".511" style="stop-color:#f2f2f2;stop-opacity:1"/><stop offset=".608" style="stop-color:#e7e7e7;stop-opacity:1"/><stop offset=".777" style="stop-color:#cacaca;stop-opacity:1"/><stop offset=".89" style="stop-color:#b3b3b3;stop-opacity:1"/></linearGradient><linearGradient id="b" x1="100.07" x2="100.07" y1="11.279" y2="59.394" gradientTransform="scale(.125)" gradientUnits="userSpaceOnUse"><stop offset=".511" style="stop-color:#f2f2f2;stop-opacity:1"/><stop offset=".608" style="stop-color:#e7e7e7;stop-opacity:1"/><stop offset=".777" style="stop-color:#cacaca;stop-opacity:1"/><stop offset=".89" style="stop-color:#b3b3b3;stop-opacity:1"/></linearGradient><linearGradient id="c" x1="64.002" x2="64.002" y1="118.46" y2="27.454" gradientTransform="scale(.125)" gradientUnits="userSpaceOnUse"><stop offset=".11" style="stop-color:#b3b3b3;stop-opacity:1"/><stop offset=".223" style="stop-color:#cacaca;stop-opacity:1"/><stop offset=".392" style="stop-color:#e7e7e7;stop-opacity:1"/><stop offset=".489" style="stop-color:#f2f2f2;stop-opacity:1"/></linearGradient><linearGradient id="d" x1="64.002" x2="64.002" y1="73.646" y2="87.648" gradientTransform="scale(.125)" gradientUnits="userSpaceOnUse"><stop offset=".163" style="stop-color:#575757;stop-opacity:1"/><stop offset=".645" style="stop-color:#262626;stop-opacity:1"/><stop offset="1" style="stop-color:#000;stop-opacity:1"/></linearGradient></defs><path d="M3.492 6.797a2.804 2.804 0 0 1-2.804-2.8A2.807 2.807 0 0 1 3.492 1.19c1.547 0 2.801 1.258 2.801 2.805 0 1.543-1.258 2.8-2.8 2.8m0 0" style="stroke:none;fill-rule:nonzero;fill:url(#a)"/><path d="M3.492 1.379A2.62 2.62 0 0 1 6.11 3.996a2.62 2.62 0 0 1-2.617 2.617 2.617 2.617 0 0 1 0-5.234m0-.375A2.99 2.99 0 0 0 .5 3.996a2.99 2.99 0 0 0 2.992 2.988 2.99 2.99 0 1 0 0-5.98m0 0" style="stroke:none;fill-rule:nonzero;fill:#a3a3a3;fill-opacity:1"/><path d="M5.219 3.996a1.727 1.727 0 0 1-3.453 0c0-.957.773-1.73 1.726-1.73s1.727.773 1.727 1.73m0 0" style="stroke:none;fill-rule:nonzero;fill:#ffbdbd;fill-opacity:1"/><path d="M12.508 6.797a2.804 2.804 0 0 1-2.805-2.8 2.81 2.81 0 0 1 2.805-2.806 2.807 2.807 0 0 1 2.805 2.805c0 1.547-1.258 2.8-2.805 2.8m0 0" style="stroke:none;fill-rule:nonzero;fill:url(#b)"/><path d="M12.508 1.379a2.62 2.62 0 0 1 2.617 2.617 2.62 2.62 0 0 1-2.617 2.617 2.617 2.617 0 0 1 0-5.234m0-.375a2.992 2.992 0 1 0 0 5.984 2.992 2.992 0 0 0 0-5.984m0 0" style="stroke:none;fill-rule:nonzero;fill:#a3a3a3;fill-opacity:1"/><path d="M14.234 3.996a1.727 1.727 0 0 1-3.453 0 1.728 1.728 0 1 1 3.453 0m0 0" style="stroke:none;fill-rule:nonzero;fill:#ffbdbd;fill-opacity:1"/><path d="M8 14.809c-.937 0-2.504-.414-3.883-1.332-.863-.579-2.308-1.817-2.308-3.657 0-3.074 2.367-6.39 6.191-6.39s6.191 3.316 6.191 6.39c0 1.84-1.445 3.078-2.308 3.657-1.38.918-2.945 1.332-3.883 1.332m0 0" style="stroke:none;fill-rule:nonzero;fill:url(#c)"/><path d="M8 3.617c1.695 0 3.246.692 4.367 1.942a6.46 6.46 0 0 1 1.637 4.261c0 .688-.211 1.352-.633 1.977-.379.558-.914 1.07-1.59 1.523-1.347.899-2.87 1.301-3.781 1.301-.91 0-2.43-.402-3.777-1.3-.68-.454-1.215-.966-1.594-1.524-.418-.625-.633-1.29-.633-1.977 0-1.55.598-3.105 1.64-4.261A5.78 5.78 0 0 1 8 3.617m0-.375c-3.887 0-6.379 3.313-6.379 6.578 0 3.262 4.25 5.176 6.379 5.176s6.379-1.914 6.379-5.176c0-3.265-2.492-6.578-6.379-6.578m0 0" style="stroke:none;fill-rule:nonzero;fill:#a3a3a3;fill-opacity:1"/><path d="m8.703 11.79-.586-.544a.217.217 0 0 0-.297 0l-.61.543c-.046.043-.085.106-.085.168v-.008c0 .442.39.801.828.801h.05c.442 0 .747-.36.747-.8v.003c0-.062 0-.121-.047-.164m0 0" style="stroke:none;fill-rule:nonzero;fill:#fff;fill-opacity:1"/><path d="M63.375 85.969c0 4.25-3.469 7.687-7.719 7.687a7.68 7.68 0 0 1-7.687-7.687M79.25 85.969a7.68 7.68 0 0 1-7.687 7.687 7.68 7.68 0 0 1-7.688-7.687" style="fill:none;stroke-width:3;stroke-linecap:round;stroke-linejoin:round;stroke:gray;stroke-opacity:1;stroke-miterlimit:10" transform="scale(.125)"/><path d="M9.328 10.027C9.328 9.57 8.734 9.2 8 9.2s-1.328.371-1.328.828.594.828 1.328.828 1.328-.37 1.328-.828m0 0" style="stroke:none;fill-rule:nonzero;fill:url(#d)"/><path d="m20.156 107.313 13.188-12.188M31.75 89.719l-16.344 6.5M13 84.5h18M108 107.313 94.844 95.125M96.438 89.719l16.312 6.5M115 84.5H98" style="fill:none;stroke-width:3;stroke-linecap:round;stroke-linejoin:round;stroke:#404040;stroke-opacity:1;stroke-miterlimit:10" transform="scale(.125)"/><path d="m11.48 8.2-.964-.223.988-.465.035-.024a.41.41 0 0 0 .05-.629c-.14-.144-.374-.148-.542-.03-.39.276-1.313.921-1.676 1.175-.062.043-.05.14.02.172l1.816.797q.016.008.04.015c.237.078.5-.078.534-.34.028-.199-.11-.386-.3-.449M4.52 8.2l.964-.223-.988-.465-.035-.024a.41.41 0 0 1-.05-.629c.14-.144.374-.148.542-.03.39.276 1.313.921 1.676 1.175.062.043.05.14-.02.172l-1.816.797q-.016.008-.04.015a.413.413 0 0 1-.534-.34c-.028-.199.11-.386.3-.449m0 0" style="stroke:none;fill-rule:nonzero;fill:#404040;fill-opacity:1"/></svg>