<svg xmlns="http://www.w3.org/2000/svg" xmlns:xlink="http://www.w3.org/1999/xlink" width="16pt" height="16pt" viewBox="0 0 16 16"><defs><clipPath id="b"><path d="M0 0h16v16H0z"/></clipPath><clipPath id="c"><path d="M0 0h16v16H0z"/></clipPath><clipPath id="d"><path d="M0 0h16v16H0z"/></clipPath><clipPath id="o"><path d="M6 3h4v3H6Zm0 0"/></clipPath><clipPath id="p"><path d="M13.172 9.246c.078-.043.16-.09.234-.14.719-.497.938-1.356.91-2.188-.09-2.871-2.105-5.438-4.875-6.203-2.699-.742-5.574.797-6.914 3.16a6.64 6.64 0 0 0-.843 3.043c-.032 1.035.34 2.004 1.347 2.422l.028.012c.753-1.403 7.816-1.739 10.113-.106m0 0"/></clipPath><clipPath id="q"><path d="M2 2h3v3H2Zm0 0"/></clipPath><clipPath id="r"><path d="M13.172 9.246c.078-.043.16-.09.234-.14.719-.497.938-1.356.91-2.188-.09-2.871-2.105-5.438-4.875-6.203-2.699-.742-5.574.797-6.914 3.16a6.64 6.64 0 0 0-.843 3.043c-.032 1.035.34 2.004 1.347 2.422l.028.012c.753-1.403 7.816-1.739 10.113-.106m0 0"/></clipPath><clipPath id="s"><path d="M2 6h3v3H2Zm0 0"/></clipPath><clipPath id="t"><path d="M13.172 9.246c.078-.043.16-.09.234-.14.719-.497.938-1.356.91-2.188-.09-2.871-2.105-5.438-4.875-6.203-2.699-.742-5.574.797-6.914 3.16a6.64 6.64 0 0 0-.843 3.043c-.032 1.035.34 2.004 1.347 2.422l.028.012c.753-1.403 7.816-1.739 10.113-.106m0 0"/></clipPath><clipPath id="u"><path d="M10 5h3v3h-3Zm0 0"/></clipPath><clipPath id="v"><path d="M13.172 9.246c.078-.043.16-.09.234-.14.719-.497.938-1.356.91-2.188-.09-2.871-2.105-5.438-4.875-6.203-2.699-.742-5.574.797-6.914 3.16a6.64 6.64 0 0 0-.843 3.043c-.032 1.035.34 2.004 1.347 2.422l.028.012c.753-1.403 7.816-1.739 10.113-.106m0 0"/></clipPath><clipPath id="w"><path d="M10 1h5v4h-5Zm0 0"/></clipPath><clipPath id="x"><path d="M13.172 9.246c.078-.043.16-.09.234-.14.719-.497.938-1.356.91-2.188-.09-2.871-2.105-5.438-4.875-6.203-2.699-.742-5.574.797-6.914 3.16a6.64 6.64 0 0 0-.843 3.043c-.032 1.035.34 2.004 1.347 2.422l.028.012c.753-1.403 7.816-1.739 10.113-.106m0 0"/></clipPath><clipPath id="y"><path d="M5 0h4v3H5Zm0 0"/></clipPath><clipPath id="z"><path d="M13.172 9.246c.078-.043.16-.09.234-.14.719-.497.938-1.356.91-2.188-.09-2.871-2.105-5.438-4.875-6.203-2.699-.742-5.574.797-6.914 3.16a6.64 6.64 0 0 0-.843 3.043c-.032 1.035.34 2.004 1.347 2.422l.028.012c.753-1.403 7.816-1.739 10.113-.106m0 0"/></clipPath><clipPath id="e"><path d="M0 0h16v16H0z"/></clipPath><mask id="g"><g filter="url(#a)"><path d="M0 0h16v16H0z" style="fill:#000;fill-opacity:.2;stroke:none"/></g></mask><mask id="j"><g filter="url(#a)"><path d="M0 0h16v16H0z" style="fill:#000;fill-opacity:.2;stroke:none"/></g></mask><mask id="l"><g filter="url(#a)"><path d="M0 0h16v16H0z" style="fill:#000;fill-opacity:.501961;stroke:none"/></g></mask><mask id="A"><g filter="url(#a)"><path d="M0 0h16v16H0z" style="fill:#000;fill-opacity:.2;stroke:none"/></g></mask><g id="h" clip-path="url(#b)"><path d="M8.04.902c.44 0 .878.059 1.3.176 2.625.723 4.515 3.129 4.601 5.848.02.605-.093 1.422-.746 1.87a3 3 0 0 1-.199.118c-.422.223-.973.328-1.684.328a11 11 0 0 1-.8-.031c-.352-.027-.715-.07-1.067-.117-.191-.024-.394-.051-.59-.074a7 7 0 0 0-.703-.036c-.566 0-1.125.063-1.668.125q-.3.037-.601.067c-.375.035-.774.07-1.176.07-.602 0-1.098-.082-1.508-.246l-.027-.012C2.16 8.57 2.039 7.516 2.059 6.926a6.2 6.2 0 0 1 .796-2.867C3.925 2.172 6.008.902 8.04.902m0-.375c-2.242 0-4.402 1.391-5.512 3.348a6.64 6.64 0 0 0-.843 3.043c-.032 1.035.34 2.004 1.347 2.422l.028.012c.52.207 1.082.273 1.652.273.41 0 .82-.035 1.21-.074.743-.07 1.485-.188 2.231-.188.22 0 .442.008.66.035.56.063 1.114.149 1.672.188.27.02.547.035.829.035.644 0 1.3-.078 1.859-.371q.122-.065.238-.14c.719-.497.934-1.356.906-2.188-.09-2.871-2.101-5.438-4.875-6.203A5 5 0 0 0 8.04.527m0 0" style="stroke:none;fill-rule:nonzero;fill:#424242;fill-opacity:1"/></g><g id="k" clip-path="url(#c)"><path d="M7.89 8.824h.048c.503 0 .835.102 1.003.176.043.332.137 1.016.23 1.406.028.094.052.196.079.297.266 1.031.664 2.594.227 3.543-.168.36-.442.606-.84.754a1.9 1.9 0 0 1-.657.121c-.796 0-1.437-.516-1.593-1.281q-.004-.024-.008-.047l-.012-.05c-.129-.876.094-1.81.305-2.712.05-.207.101-.426.148-.636.145-.676.207-1.13.235-1.383.222-.086.558-.188.836-.188m0-.375c-.543 0-1.192.305-1.192.305s-.015.48-.246 1.562c-.242 1.121-.625 2.32-.457 3.48l.024.118c.199.969 1.023 1.578 1.96 1.578.254 0 .52-.043.786-.14.527-.196.855-.532 1.05-.95.54-1.168 0-2.964-.28-4.086-.126-.5-.25-1.554-.25-1.554s-.427-.313-1.348-.313H7.89m0 0" style="stroke:none;fill-rule:nonzero;fill:#424242;fill-opacity:1"/></g><g id="m" clip-path="url(#d)"><path d="M9.457 5.125a9.1 9.1 0 0 0-1.844-2.266C6.211 2.83 6.59 3.984 6.59 3.984S7.008 5.5 9.457 5.125m0 0" style="stroke:none;fill-rule:nonzero;fill:#fff;fill-opacity:1"/></g><g id="B" clip-path="url(#e)"><path d="M8.04.902c.44 0 .882.059 1.3.176 2.625.723 4.515 3.129 4.601 5.848.02.605-.093 1.422-.746 1.87a.03.03 0 0 0-.015.009c-1.075-.645-2.98-1.028-5.184-1.028-1.879 0-4.195.297-5.043 1.106-.812-.473-.91-1.41-.894-1.953a6.2 6.2 0 0 1 .796-2.871C3.925 2.172 6.008.902 8.04.902m0-.375c-2.242 0-4.402 1.391-5.512 3.348a6.64 6.64 0 0 0-.843 3.043c-.032 1.035.34 2.004 1.347 2.422l.028.012C3.46 8.602 5.676 8.156 8 8.156c2.012 0 4.105.332 5.172 1.09.082-.043.16-.086.238-.14.719-.497.934-1.356.906-2.188-.09-2.867-2.101-5.434-4.875-6.2A5 5 0 0 0 8.04.529m0 0" style="stroke:none;fill-rule:nonzero;fill:#424242;fill-opacity:1"/></g><linearGradient id="f" x1="63.644" x2="65.245" y1="62.776" y2="82.784" gradientTransform="scale(.125)" gradientUnits="userSpaceOnUse"><stop offset="0" style="stop-color:#a1887f;stop-opacity:1"/><stop offset=".995" style="stop-color:#eed1c2;stop-opacity:1"/></linearGradient><linearGradient id="i" x1="64" x2="64" y1="61.15" y2="113.42" gradientTransform="scale(.125)" gradientUnits="userSpaceOnUse"><stop offset=".005" style="stop-color:#eed1c2;stop-opacity:1"/><stop offset="1" style="stop-color:#eecb92;stop-opacity:1"/></linearGradient><radialGradient id="n" cx="46.245" cy="27.894" r="62.356" fx="46.245" fy="27.894" gradientTransform="scale(.125)" gradientUnits="userSpaceOnUse"><stop offset=".005" style="stop-color:#ff7a86;stop-opacity:1"/><stop offset=".813" style="stop-color:#de121c;stop-opacity:1"/><stop offset="1" style="stop-color:#ee000c;stop-opacity:1"/></radialGradient><filter id="a" width="100%" height="100%" x="0%" y="0%" filterUnits="objectBoundingBox"><feColorMatrix in="SourceGraphic" values="0 0 0 0 1 0 0 0 0 1 0 0 0 0 1 0 0 0 1 0"/></filter></defs><path d="M3 9.328c.89.36 1.871.313 2.809.219.957-.094 1.925-.262 2.89-.152.559.062 1.11.148 1.672.187.871.066 1.969.074 2.77-.348C11 7.488 3.707 7.684 3 9.328m0 0" style="stroke:none;fill-rule:nonzero;fill:url(#f)"/><use xlink:href="#h" mask="url(#g)"/><path d="M9.535 10.316c-.125-.5-.25-1.554-.25-1.554s-.433-.317-1.37-.313c-.548-.011-1.22.305-1.22.305s-.011.48-.246 1.562c-.242 1.125-.62 2.325-.453 3.48.004.04.016.079.024.118.68.18 1.59-.285 2.378-.285.133 0 .403.27.668.535.25.156.504.23.746.238.543-1.168.004-2.964-.277-4.086m0 0" style="stroke:none;fill-rule:nonzero;fill:url(#i)"/><path d="M8.398 13.629c-.789 0-1.699.465-2.378.285.25 1.234 1.523 1.887 2.746 1.438.53-.196.859-.532 1.05-.95a1.56 1.56 0 0 1-.746-.238c-.27-.27-.535-.535-.672-.535m0 0" style="stroke:none;fill-rule:nonzero;fill:#efebe9;fill-opacity:1"/><use xlink:href="#k" mask="url(#j)"/><use xlink:href="#m" mask="url(#l)"/><path d="M13.172 9.246c.078-.043.16-.09.234-.14.719-.497.938-1.356.91-2.188-.09-2.871-2.105-5.438-4.875-6.203-2.699-.742-5.574.797-6.914 3.16a6.64 6.64 0 0 0-.843 3.043c-.032 1.035.34 2.004 1.347 2.422l.028.012c.753-1.403 7.816-1.739 10.113-.106m0 0" style="stroke:none;fill-rule:nonzero;fill:url(#n)"/><g clip-path="url(#o)"><g clip-path="url(#p)"><path d="M9.313 4.39c0-.605-.704-1.093-1.575-1.093-.867 0-1.57.488-1.57 1.094 0 .605.703 1.097 1.57 1.097.871 0 1.574-.492 1.574-1.097m0 0" style="stroke:none;fill-rule:nonzero;fill:#ffd9cf;fill-opacity:1"/></g></g><g clip-path="url(#q)"><g clip-path="url(#r)"><path d="M4.793 3.64c0-.495-.559-.894-1.242-.894-.688 0-1.242.399-1.242.895s.554.898 1.242.898c.683 0 1.242-.402 1.242-.898m0 0" style="stroke:none;fill-rule:nonzero;fill:#ffd9cf;fill-opacity:1"/></g></g><g clip-path="url(#s)"><g clip-path="url(#t)"><path d="M4.86 7.008c0-.555-.548-1.004-1.223-1.004-.672 0-1.219.45-1.219 1.004 0 .555.547 1.008 1.219 1.008.676 0 1.222-.453 1.222-1.008m0 0" style="stroke:none;fill-rule:nonzero;fill:#ffd9cf;fill-opacity:1"/></g></g><g clip-path="url(#u)"><g clip-path="url(#v)"><path d="M12.957 6.785c0-.492-.46-.894-1.023-.894-.567 0-1.024.402-1.024.894 0 .496.457.895 1.024.895.562 0 1.023-.399 1.023-.895m0 0" style="stroke:none;fill-rule:nonzero;fill:#ffd9cf;fill-opacity:1"/></g></g><g clip-path="url(#w)"><g clip-path="url(#x)"><path d="M12.594 1.836c-.985-.188-1.887.21-2.016.887-.129.68.567 1.382 1.547 1.566.984.188 1.883-.21 2.012-.887.129-.68-.563-1.379-1.543-1.566m0 0" style="stroke:none;fill-rule:nonzero;fill:#ffd9cf;fill-opacity:1"/></g></g><g clip-path="url(#y)"><g clip-path="url(#z)"><path d="M8.008.594c-.2-.5-.914-.68-1.602-.406-.683.269-1.078.898-.879 1.394.2.5.918.684 1.602.41.684-.273 1.078-.898.879-1.398m0 0" style="stroke:none;fill-rule:nonzero;fill:#ffd9cf;fill-opacity:1"/></g></g><use xlink:href="#B" mask="url(#A)"/></svg>