<svg xmlns="http://www.w3.org/2000/svg" xmlns:xlink="http://www.w3.org/1999/xlink" width="16pt" height="16pt" viewBox="0 0 16 16"><defs><radialGradient id="c" cx="67.25" cy="9.25" r="98.804" fx="67.25" fy="9.25" gradientTransform="scale(.125)" gradientUnits="userSpaceOnUse"><stop offset="0" style="stop-color:#40c4ff;stop-opacity:1"/><stop offset="1" style="stop-color:#0091ea;stop-opacity:1"/></radialGradient><clipPath id="b"><path d="M0 0h16v16H0z"/></clipPath><filter id="a" width="100%" height="100%" x="0%" y="0%" filterUnits="objectBoundingBox"><feColorMatrix in="SourceGraphic" values="0 0 0 0 1 0 0 0 0 1 0 0 0 0 1 0 0 0 1 0"/></filter><mask id="d"><g filter="url(#a)"><path d="M0 0h16v16H0z" style="fill:#000;fill-opacity:.2;stroke:none"/></g></mask><g id="e" clip-path="url(#b)"><path d="M13.07.875c.028 0 .055.023.055.055v10.996l-.004.062c-.016.496-.266 1.028-.687 1.446-.434.433-.993.691-1.496.691-.22 0-.536-.05-.774-.29-.234-.233-.332-.589-.273-1 .062-.448.304-.898.672-1.269.421-.421.949-.671 1.449-.687l.363-.012V4.516a.627.627 0 0 0-.719-.618l-6.5.977a.615.615 0 0 0-.531.613v7.438l-.004.062c-.016.496-.266 1.028-.687 1.446-.434.433-.993.691-1.497.691-.218 0-.535-.05-.773-.29-.234-.233-.332-.589-.273-1 .062-.448.304-.898.672-1.269.421-.421.949-.671 1.449-.687l.363-.012V2.301c0-.028.02-.051.047-.055L13.059.875zm0-.375q-.032-.001-.062.004l-9.14 1.371a.43.43 0 0 0-.368.426v9.203c-.566.016-1.195.293-1.7.797-.882.883-1.062 2.137-.402 2.8.274.27.641.399 1.04.399.585 0 1.238-.277 1.761-.8.504-.505.781-1.134.797-1.7H5V5.488c0-.12.09-.226.21-.246l6.5-.976h.04c.137 0 .25.109.25.25v5.988c-.566.016-1.195.293-1.7.797-.882.883-1.062 2.137-.402 2.8.274.27.641.399 1.04.399.585 0 1.238-.277 1.761-.8.504-.505.781-1.134.797-1.7h.004V.93a.43.43 0 0 0-.43-.43m0 0" style="stroke:none;fill-rule:nonzero;fill:#424242;fill-opacity:1"/></g></defs><path d="M3.867 1.875a.43.43 0 0 0-.367.426v9.203c-.566.016-1.195.293-1.7.797-.882.883-1.062 2.137-.402 2.8.665.66 1.918.481 2.801-.402.504-.504.781-1.133.797-1.699H5V5.488c0-.12.09-.226.21-.246l6.5-.976c.153-.02.29.097.29.25v5.988c-.566.016-1.195.293-1.7.797-.882.883-1.062 2.137-.402 2.8.665.66 1.918.481 2.801-.402.504-.504.781-1.133.797-1.699h.004V.93a.43.43 0 0 0-.492-.426Zm0 0" style="stroke:none;fill-rule:nonzero;fill:url(#c)"/><use xlink:href="#e" mask="url(#d)"/></svg>