<svg xmlns="http://www.w3.org/2000/svg" xmlns:xlink="http://www.w3.org/1999/xlink" width="16pt" height="16pt" viewBox="0 0 16 16"><defs><clipPath id="b"><path d="M0 0h16v16H0z"/></clipPath><clipPath id="c"><path d="M0 0h16v16H0z"/></clipPath><clipPath id="d"><path d="M0 0h16v16H0z"/></clipPath><clipPath id="e"><path d="M0 0h16v16H0z"/></clipPath><clipPath id="f"><path d="M0 0h16v16H0z"/></clipPath><clipPath id="g"><path d="M0 0h16v16H0z"/></clipPath><clipPath id="h"><path d="M0 0h16v16H0z"/></clipPath><clipPath id="i"><path d="M0 0h16v16H0z"/></clipPath><clipPath id="j"><path d="M0 0h16v16H0z"/></clipPath><clipPath id="k"><path d="M0 0h16v16H0z"/></clipPath><mask id="m"><g filter="url(#a)"><path d="M0 0h16v16H0z" style="fill:#000;fill-opacity:.2;stroke:none"/></g></mask><mask id="o"><g filter="url(#a)"><path d="M0 0h16v16H0z" style="fill:#000;fill-opacity:.560784;stroke:none"/></g></mask><mask id="q"><g filter="url(#a)"><path d="M0 0h16v16H0z" style="fill:#000;fill-opacity:.560784;stroke:none"/></g></mask><mask id="s"><g filter="url(#a)"><path d="M0 0h16v16H0z" style="fill:#000;fill-opacity:.560784;stroke:none"/></g></mask><mask id="u"><g filter="url(#a)"><path d="M0 0h16v16H0z" style="fill:#000;fill-opacity:.560784;stroke:none"/></g></mask><mask id="w"><g filter="url(#a)"><path d="M0 0h16v16H0z" style="fill:#000;fill-opacity:.560784;stroke:none"/></g></mask><mask id="y"><g filter="url(#a)"><path d="M0 0h16v16H0z" style="fill:#000;fill-opacity:.560784;stroke:none"/></g></mask><mask id="A"><g filter="url(#a)"><path d="M0 0h16v16H0z" style="fill:#000;fill-opacity:.560784;stroke:none"/></g></mask><mask id="C"><g filter="url(#a)"><path d="M0 0h16v16H0z" style="fill:#000;fill-opacity:.560784;stroke:none"/></g></mask><mask id="E"><g filter="url(#a)"><path d="M0 0h16v16H0z" style="fill:#000;fill-opacity:.560784;stroke:none"/></g></mask><g id="n" clip-path="url(#b)"><path d="M13.285 1.395q.047 0 .094.003c.07.004.105.016.125.024.039.02.078.074.168.203l.043.07c.18.262.406.614.586.996.34.723.676 1.836.34 3.024-.157.555-.418 1.492-.871 1.976-1.477 1.59-2.606 2.043-3.434 2.372-.469.187-.84.335-1.106.636-.308.344-.449.742-.582 1.13q-.03.093-.066.187c-.125.343-.344.691-.695 1.097-.922 1.063-2.149 1.719-3.282 1.754H4.52c-.754 0-1.504-.289-2.176-.832-.852-.691-1.317-1.617-1.301-2.61.016-1.265.898-2.593 2.148-3.226.465-.238.977-.36 1.512-.484.668-.16 1.36-.324 1.992-.723.7-.433 1.047-1.285 1.328-1.969l.07-.164.028-.066c.328-.785.664-1.598 1.313-2.094.558-.426 1.304-.636 2.023-.836.273-.074.55-.156.816-.242.34-.11.688-.226 1.012-.226m0-.375c-.387 0-.77.125-1.125.246-.976.324-2.113.496-2.953 1.136-.746.57-1.105 1.47-1.457 2.313-.281.672-.602 1.555-1.25 1.96-1.078.673-2.375.63-3.477 1.188-1.289.66-2.335 2.09-2.355 3.559-.016 1.164.55 2.183 1.441 2.906.688.559 1.52.918 2.41.918q.048.001.094-.004c1.371-.039 2.684-.87 3.559-1.883.312-.363.598-.761.762-1.214.152-.418.27-.856.574-1.196.61-.68 2.191-.484 4.535-3 .492-.527.762-1.433.957-2.133.309-1.101.117-2.261-.36-3.285a8 8 0 0 0-.617-1.047c-.128-.191-.203-.328-.363-.402a.8.8 0 0 0-.258-.059q-.058-.004-.117-.003m0 0" style="stroke:none;fill-rule:nonzero;fill:#424242;fill-opacity:1"/></g><g id="p" clip-path="url(#c)"><path d="M11.133 3.605c.515.407.969-.558 1.078-.921.008-.024.008-.043.008-.063.027-.047.031-.105 0-.148-.09-.13-.235-.2-.39-.137a.5.5 0 0 0-.099.07c-.335.172-1.058.84-.597 1.2m0 0" style="stroke:none;fill-rule:nonzero;fill:#ffcf7a;fill-opacity:1"/></g><g id="r" clip-path="url(#d)"><path d="M10.512 5.035c.312.125.492-.195.636-.414.063-.094.145-.21.168-.32.098-.047.145-.207.028-.293-.422-.309-1.082-.117-1.137.445-.023.227.078.492.305.582m0 0" style="stroke:none;fill-rule:nonzero;fill:#ffcf7a;fill-opacity:1"/></g><g id="t" clip-path="url(#e)"><path d="M9.55 6.52c.196.082.407-.02.555-.145.16-.133.403-.383.375-.61a1 1 0 0 0-.02-.077.15.15 0 0 0-.042-.086c-.371-.391-.977-.098-1.094.375-.05.207.012.453.227.543m0 0" style="stroke:none;fill-rule:nonzero;fill:#ffcf7a;fill-opacity:1"/></g><g id="v" clip-path="url(#f)"><path d="M9.047 7.73c.156-.082.324-.218.36-.402a.36.36 0 0 0-.044-.246.336.336 0 0 0-.297-.328c-.203-.024-.375.129-.449.309-.066.164-.12.43-.02.593.102.16.298.157.45.074m0 0" style="stroke:none;fill-rule:nonzero;fill:#ffcf7a;fill-opacity:1"/></g><g id="x" clip-path="url(#g)"><path d="M7.7 9.254c.304-.008.464-.363.48-.625.008-.09-.016-.188-.078-.246-.122-.113-.32-.067-.45.035-.246.191-.468.848.047.836m0 0" style="stroke:none;fill-rule:nonzero;fill:#ffcf7a;fill-opacity:1"/></g><g id="z" clip-path="url(#h)"><path d="M5.816 10.355c.137-.007.258-.085.375-.152q.287-.159.575-.324a.17.17 0 0 0 .074-.094c.11-.027.187-.16.086-.265-.219-.22-.52-.098-.785-.036-.27.063-.707.082-.758.43-.035.254.187.453.433.441m0 0" style="stroke:none;fill-rule:nonzero;fill:#ffcf7a;fill-opacity:1"/></g><g id="B" clip-path="url(#i)"><path d="M4.066 10.398c.168.2.426.461.704.477.21.016.418-.152.406-.355.039-.055.047-.13-.02-.192a1.01 1.01 0 0 0-1.047-.183c-.105.039-.105.183-.043.253m0 0" style="stroke:none;fill-rule:nonzero;fill:#ffcf7a;fill-opacity:1"/></g><g id="D" clip-path="url(#j)"><path d="M3.121 11.629c.106.059.219.101.309.117.277.047.695-.074.668-.422a.3.3 0 0 0-.067-.176c-.066-.234-.183-.46-.437-.53-.25-.071-.594.105-.754.288-.29.328-.047.606.281.723m0 0" style="stroke:none;fill-rule:nonzero;fill:#ffcf7a;fill-opacity:1"/></g><g id="F" clip-path="url(#k)"><path d="M2.18 12.324a.43.43 0 0 0 .336-.242.16.16 0 0 0 .054-.098c.032-.191-.097-.379-.273-.453-.195-.078-.422-.011-.578.121-.149.125-.246.344-.117.52.12.16.394.18.578.152m0 0" style="stroke:none;fill-rule:nonzero;fill:#ffcf7a;fill-opacity:1"/></g><linearGradient id="l" x1="54.15" x2="92.65" y1="53.435" y2="88.435" gradientTransform="scale(.125)" gradientUnits="userSpaceOnUse"><stop offset="0" style="stop-color:#f4c676;stop-opacity:1"/><stop offset=".132" style="stop-color:#eebd68;stop-opacity:1"/><stop offset=".381" style="stop-color:#dfa544;stop-opacity:1"/><stop offset=".717" style="stop-color:#c67e0a;stop-opacity:1"/><stop offset=".739" style="stop-color:#c47b06;stop-opacity:1"/><stop offset=".985" style="stop-color:#e08b04;stop-opacity:1"/></linearGradient><filter id="a" width="100%" height="100%" x="0%" y="0%" filterUnits="objectBoundingBox"><feColorMatrix in="SourceGraphic" values="0 0 0 0 1 0 0 0 0 1 0 0 0 0 1 0 0 0 1 0"/></filter></defs><path d="M13.664 1.082c.156.074.23.211.363.402.23.336.442.68.614 1.047.48 1.024.672 2.184.363 3.285-.195.7-.465 1.602-.957 2.133-2.344 2.516-3.93 2.32-4.54 3-.304.34-.421.774-.57 1.192-.167.457-.453.851-.765 1.218-.875 1.012-2.188 1.844-3.555 1.883-.926.028-1.797-.336-2.508-.914-.886-.723-1.453-1.742-1.437-2.906.015-1.473 1.062-2.902 2.351-3.555C4.125 7.31 5.422 7.352 6.5 6.676c.648-.403.969-1.29 1.25-1.961.352-.844.71-1.742 1.457-2.313.84-.64 1.977-.812 2.953-1.136.395-.133.82-.274 1.246-.243a.8.8 0 0 1 .258.059m0 0" style="stroke:none;fill-rule:nonzero;fill:url(#l)"/><use xlink:href="#n" mask="url(#m)"/><path d="m13.984 1.363.043.215c.012.07.036.156.043.262.012.101.028.222.04.355q.009.2.019.442l-.012.254q0 .128-.015.27c-.024.37-.106.788-.235 1.23-.125.441-.32.906-.582 1.363-.262.46-.594.914-1.008 1.32l-.152.153-.168.14q-.082.076-.168.145-.088.07-.176.133c-.238.18-.488.343-.746.503-.512.317-1.043.618-1.531.977-.492.355-.922.785-1.328 1.227-.406.441-.801.886-1.223 1.277-.11.098-.215.191-.328.281s-.223.168-.332.254c-.117.074-.23.152-.348.223-.12.066-.23.136-.351.195a6 6 0 0 1-1.395.508 5.5 5.5 0 0 1-1.246.144 5.4 5.4 0 0 1-.96-.09c-.134-.015-.25-.05-.352-.074a2 2 0 0 1-.254-.07q-.206-.063-.207-.062l.21.058q.101.031.255.063c.101.02.218.05.351.066.262.043.586.066.957.063a6.2 6.2 0 0 0 1.23-.165c.442-.109.907-.277 1.368-.523.117-.055.226-.133.344-.195.113-.07.222-.149.335-.227.11-.082.223-.164.329-.25q.162-.135.32-.277c.418-.387.805-.832 1.21-1.278.407-.445.84-.886 1.34-1.25.5-.359 1.036-.66 1.544-.972.258-.16.508-.32.742-.492q.087-.066.176-.133c.054-.043.109-.094.164-.14l.164-.141a6.4 6.4 0 0 0 1.156-1.434c.262-.45.465-.906.594-1.34.043-.11.062-.219.09-.324.03-.102.058-.207.074-.309.02-.101.043-.203.058-.297l.036-.285q.02-.14.023-.27c.004-.085.012-.167.016-.25q-.005-.241-.004-.44c-.012-.134-.024-.25-.031-.356-.008-.102-.032-.188-.04-.262-.027-.14-.039-.215-.039-.215m0 0" style="stroke:none;fill-rule:nonzero;fill:#a37c57;fill-opacity:1"/><path d="m8.613 12.84-.066.058c-.043.04-.106.102-.195.165-.086.07-.2.148-.329.234-.066.039-.132.082-.207.129q-.115.065-.242.129-.13.064-.265.133c-.098.039-.192.082-.293.12-.207.083-.422.16-.653.223a6.855 6.855 0 0 1-1.473.27c-.062.004-.124.011-.19.011l-.192.004a6 6 0 0 1-1.113-.125 6 6 0 0 1-.665-.187 5 5 0 0 1-.57-.234 4 4 0 0 1-.457-.243 6 6 0 0 1-.34-.214c-.09-.063-.156-.118-.203-.153q-.072-.058-.074-.058l.078.046a6.047 6.047 0 0 0 1.04.523q.263.107.57.2.31.09.656.156.34.069.71.09c.122.012.243.012.368.016l.187-.008c.059 0 .121-.008.184-.012.246-.015.496-.043.734-.09a8 8 0 0 0 1.352-.343q.304-.106.562-.22.129-.058.246-.112.114-.059.215-.11c.133-.074.25-.14.34-.203.094-.058.164-.11.215-.144q.07-.05.07-.051m0 0" style="stroke:none;fill-rule:nonzero;fill:#a67e58;fill-opacity:1"/><path d="m13.496 1.047-.289.719c-.191.46-.457 1.117-.816 1.886-.36.77-.801 1.657-1.371 2.559a14.298 14.298 0 0 1-2.078 2.602 15 15 0 0 1-2.614 2.062q-.168.106-.336.207l-.34.188c-.222.128-.449.234-.668.34-.441.214-.867.386-1.27.527-.198.078-.394.129-.581.187-.09.028-.18.059-.27.082l-.261.059c-.336.09-.633.133-.875.176-.122.027-.235.03-.329.043l-.242.027q-.201.019-.203.02.002.001.203-.028c.13-.02.324-.035.567-.086.242-.047.539-.101.867-.195q.129-.037.258-.067c.09-.027.175-.058.27-.09.183-.058.378-.113.573-.195.399-.144.82-.324 1.254-.543a10 10 0 0 0 .66-.347q.167-.093.332-.192.167-.1.333-.207c.453-.277.89-.601 1.332-.941.43-.352.859-.715 1.253-1.117.407-.391.774-.817 1.13-1.246.347-.43.66-.88.945-1.325.57-.89 1.03-1.77 1.398-2.53.371-.767.66-1.411.86-1.864.195-.453.308-.711.308-.711m0 0" style="stroke:none;fill-rule:nonzero;fill:#a37c57;fill-opacity:1"/><path d="m13.188 1.047-.168.101c-.11.063-.266.168-.465.297q-.146.107-.32.23c-.114.09-.239.18-.364.286a9.87 9.87 0 0 0-2.437 2.996q-.177.34-.329.703c-.097.242-.19.488-.289.738-.191.5-.41 1.016-.754 1.454q-.127.162-.285.308c-.05.043-.101.09-.152.133l-.168.129a3.7 3.7 0 0 1-.727.383c-.5.207-1.02.328-1.511.46-.492.13-.969.258-1.38.47a6.5 6.5 0 0 0-1.105.703c-.32.25-.597.5-.832.734a8 8 0 0 0-.582.629c-.156.18-.27.328-.347.43-.078.101-.118.156-.118.156s.04-.055.11-.16c.074-.106.183-.258.332-.442.152-.187.34-.41.57-.648s.5-.5.82-.754c.32-.258.688-.512 1.11-.73.422-.223.898-.36 1.394-.493.493-.137 1.004-.262 1.493-.465a3.7 3.7 0 0 0 .703-.375l.156-.117c.05-.043.102-.094.152-.137.094-.086.184-.191.27-.293.332-.418.547-.921.742-1.418.098-.246.191-.496.293-.742q.156-.362.336-.707a9.6 9.6 0 0 1 2.504-2.98c.129-.106.258-.196.37-.281l.33-.223c.202-.125.362-.223.476-.281q.17-.094.172-.094m0 0" style="stroke:none;fill-rule:nonzero;fill:#a37c57;fill-opacity:1"/><path d="M14.11 4.836a.18.18 0 0 0 .144.047c.043.02.09.023.137-.004l.09-.05c.074-.044.09-.114.074-.18a.4.4 0 0 0 .058-.157.31.31 0 0 0-.136-.312l-.04-.055c-.046-.059-.132-.055-.195-.031-.297.12-.363.523-.133.742M13.57 6.219q.013.023.032.047s.003.004.007.004a.2.2 0 0 0 .067.058l.035.024.035.011c.02.008.043.016.066.016.004 0 .008.004.016.004.16.008.281-.113.348-.246.058-.13.105-.293.078-.434-.027-.148-.14-.277-.293-.285-.32-.023-.48.36-.453.625q.007.053.027.105c.004.004 0 .012.004.016q.012.022.024.04 0 .009.007.015M12.816 7.582c.22.188.52.094.614-.121a.17.17 0 0 0 .105-.176c-.023-.219-.062-.453-.242-.601a.47.47 0 0 0-.484-.082c-.368.168-.243.765.007.98M12.445 8.48a.4.4 0 0 0 .035-.183c.079-.063.11-.2.004-.277-.222-.16-.5-.293-.78-.223-.22.058-.423.25-.438.484-.04.64.953.719 1.18.2M10.73 9.895a.73.73 0 0 0 .348-.329.9.9 0 0 0 .152-.168.2.2 0 0 0 .012-.148.55.55 0 0 0-.375-.469c-.27-.09-.555.047-.726.262-.164.2-.243.516-.07.738.156.207.44.219.66.114M9.074 10.555a.4.4 0 0 0 .262-.172 1 1 0 0 0 .086-.051.37.37 0 0 0 .156-.285.31.31 0 0 0-.101-.379c-.262-.184-.582-.047-.79.172-.132.11-.242.258-.203.41.055.21.391.336.59.305M7.586 12.266c.223.16.516.097.676-.098a.39.39 0 0 0 .14-.324.5.5 0 0 0-.02-.133c-.023-.29-.304-.531-.609-.414a.47.47 0 0 0-.226.176.51.51 0 0 0 .039.793M6.16 13.395c.266.296.578.02.692-.262a.46.46 0 0 0 .03-.25.37.37 0 0 0-.171-.383.73.73 0 0 0-.371-.117c-.137-.047-.285-.024-.38.097-.187.247.024.72.2.915M4.945 13.926a.14.14 0 0 0 .13.008.3.3 0 0 0 .241-.051l.012-.008s0-.004.004-.004a.36.36 0 0 0 .152-.215.3.3 0 0 0-.004-.168.33.33 0 0 0-.18-.242c-.179-.094-.425-.031-.519.16a.407.407 0 0 0 .164.52M3.336 13.844c.094.113.258.129.394.105a1 1 0 0 0 .083-.027c.136-.024.265-.086.304-.235.047-.164-.086-.308-.238-.34a.7.7 0 0 0-.313.012.4.4 0 0 0-.132.036.28.28 0 0 0-.153.238.27.27 0 0 0 .055.21m0 0" style="stroke:none;fill-rule:nonzero;fill:#ba7404;fill-opacity:1"/><path d="M13.324 2.61c.125.038.207-.067.203-.172.051-.055.075-.145.008-.22q-.041-.046-.082-.09c-.062-.073-.16-.058-.226-.007-.184.133-.098.426.097.488M13.332 3.953c.195-.129.281-.605.027-.703a.22.22 0 0 0-.164-.082c-.175-.016-.3.133-.324.293a.7.7 0 0 0 .055.394.284.284 0 0 0 .406.098M12.66 5.453c.192-.031.309-.219.383-.383.074-.156.082-.343-.04-.484a.31.31 0 0 0-.206-.227c-.184-.054-.352.051-.418.22-.094.257-.176.944.281.874M11.754 6.5c.406.047.812-.367.668-.707-.035-.36-.563-.457-.875-.156-.317.3-.219.82.207.863M11.035 7.52c.16-.024.39-.215.477-.41a.14.14 0 0 0 .043-.141q-.01-.03-.02-.059a.476.476 0 0 0-.8-.133c-.247.274-.133.805.3.743M6.23 11.559a.6.6 0 0 0 .254-.211c.106-.157-.105-.305-.234-.211a.12.12 0 0 0-.094.043l-.113.117c-.129.137.02.332.187.262M4.941 12.234c.188.18.532.09.637-.132a.15.15 0 0 0 .082-.075.29.29 0 0 0-.062-.363c-.114-.11-.27-.11-.407-.055-.113.043-.242.121-.304.227a.315.315 0 0 0 .054.398M3.574 12.8c.219.177.555.04.793-.128a.5.5 0 0 0 .156-.133.05.05 0 0 0 .02-.02c.258-.269-.375-.39-.531-.359-.23.043-.746.395-.438.64m0 0" style="stroke:none;fill-rule:nonzero;fill:#c97d04;fill-opacity:1"/><use xlink:href="#p" mask="url(#o)"/><use xlink:href="#r" mask="url(#q)"/><use xlink:href="#t" mask="url(#s)"/><use xlink:href="#v" mask="url(#u)"/><use xlink:href="#x" mask="url(#w)"/><use xlink:href="#z" mask="url(#y)"/><use xlink:href="#B" mask="url(#A)"/><use xlink:href="#D" mask="url(#C)"/><use xlink:href="#F" mask="url(#E)"/><path d="M2.523 13.098c.149-.008.286-.082.32-.239.063-.296-.355-.437-.562-.277l-.027.012c-.133.07-.191.234-.113.363.078.133.246.152.382.14m0 0" style="stroke:none;fill-rule:nonzero;fill:#c97d04;fill-opacity:1"/><path d="M10.043 3.125c.156-.07.258-.246.195-.395-.004-.015 0-.027-.004-.042-.015-.083-.109-.149-.191-.126h-.004c-.168-.046-.328.07-.434.22-.074.054-.148.124-.152.222-.012.316.426.195.59.121M8.996 4.875c.219 0 .438-.176.524-.379.09-.144.117-.34.011-.48a.4.4 0 0 0-.168-.133c-.004-.004-.004-.012-.004-.012-.125-.152-.347-.133-.484-.012-.145.13-.266.407-.25.602.016.203.168.414.371.414M8.273 6.352a.36.36 0 0 0 .325-.075c.238-.207.242-1.086-.23-.96-.364.097-.54.734-.216.976a.4.4 0 0 0 .121.059M7.105 7.879c.22.012.473-.184.59-.36.102-.148.11-.374-.023-.503a.38.38 0 0 0-.473-.235c-.254.074-.351.34-.386.578-.032.23.007.5.292.52M5.125 8.344c.004.004.004.011.008.015a.24.24 0 0 0 .144.121c.078.11.25.118.364.047a.37.37 0 0 0 .175-.351v-.012c.016-.168-.113-.297-.273-.32a.35.35 0 0 0-.25.062.4.4 0 0 0-.168.168 1 1 0 0 0-.04.055.17.17 0 0 0 .04.215M4.355 9.223a.3.3 0 0 0 .09-.028c.164-.066.356-.351.262-.535-.07-.14-.312-.14-.445-.144-.246 0-.813.086-.617.46.046.094.144.149.242.188.148.059.316.094.468.059M2.75 10.145a.15.15 0 0 0 .063-.028c.003-.004.011-.008.015-.012a.16.16 0 0 0 .05-.07c.15-.191.294-.379.442-.57.063-.078.024-.164-.047-.207a.14.14 0 0 0-.16-.067.8.8 0 0 0-.629.817c.008.125.172.226.266.137m0 0" style="stroke:none;fill-rule:nonzero;fill:#ffcf7a;fill-opacity:1"/></svg>