<svg xmlns="http://www.w3.org/2000/svg" xmlns:xlink="http://www.w3.org/1999/xlink" width="16pt" height="16pt" viewBox="0 0 16 16"><defs><clipPath id="b"><path d="M0 0h16v16H0z"/></clipPath><clipPath id="d"><path d="M0 0h16v16H0z"/></clipPath><clipPath id="k"><path d="M10 1h5v3h-5Zm0 0"/></clipPath><clipPath id="l"><path d="m14.34 1.688-4.184 2.359s.2.547 1.297 1.39c1.094.848 1.711.926 1.711.926Zm0 0"/></clipPath><clipPath id="m"><path d="M10 2h5v3h-5Zm0 0"/></clipPath><clipPath id="n"><path d="m14.34 1.688-4.184 2.359s.2.547 1.297 1.39c1.094.848 1.711.926 1.711.926Zm0 0"/></clipPath><clipPath id="o"><path d="M10 2h5v4h-5Zm0 0"/></clipPath><clipPath id="p"><path d="m14.34 1.688-4.184 2.359s.2.547 1.297 1.39c1.094.848 1.711.926 1.711.926Zm0 0"/></clipPath><clipPath id="q"><path d="M10 4h5v3h-5Zm0 0"/></clipPath><clipPath id="r"><path d="m14.34 1.688-4.184 2.359s.2.547 1.297 1.39c1.094.848 1.711.926 1.711.926Zm0 0"/></clipPath><clipPath id="s"><path d="M10 1h5v3h-5Zm0 0"/></clipPath><clipPath id="t"><path d="m14.34 1.688-4.184 2.359s.2.547 1.297 1.39c1.094.848 1.711.926 1.711.926Zm0 0"/></clipPath><clipPath id="u"><path d="M10 3h5v2h-5Zm0 0"/></clipPath><clipPath id="v"><path d="m14.34 1.688-4.184 2.359s.2.547 1.297 1.39c1.094.848 1.711.926 1.711.926Zm0 0"/></clipPath><clipPath id="w"><path d="M10 4h5v3h-5Zm0 0"/></clipPath><clipPath id="x"><path d="m14.34 1.688-4.184 2.359s.2.547 1.297 1.39c1.094.848 1.711.926 1.711.926Zm0 0"/></clipPath><radialGradient id="c" cx="35.994" cy="68.577" r="19.444" fx="35.994" fy="68.577" gradientTransform="matrix(.12239 0 0 .10963 -.186 1.43)" gradientUnits="userSpaceOnUse"><stop offset="0" style="stop-color:#ed7770;stop-opacity:1"/><stop offset=".9" style="stop-color:#ed7770;stop-opacity:0"/></radialGradient><radialGradient id="e" cx="97.787" cy="68.577" r="19.444" fx="97.787" fy="68.577" gradientTransform="matrix(.12239 0 0 .10963 -.186 1.43)" gradientUnits="userSpaceOnUse"><stop offset="0" style="stop-color:#ed7770;stop-opacity:1"/><stop offset=".9" style="stop-color:#ed7770;stop-opacity:0"/></radialGradient><linearGradient id="f" x1="64" x2="64" y1="28.991" y2="110.68" gradientTransform="scale(.125)" gradientUnits="userSpaceOnUse"><stop offset=".5" style="stop-color:#fee133;stop-opacity:1"/><stop offset=".612" style="stop-color:#fede32;stop-opacity:1"/><stop offset=".708" style="stop-color:#fcd32f;stop-opacity:1"/><stop offset=".797" style="stop-color:#fac12b;stop-opacity:1"/><stop offset=".883" style="stop-color:#f7a924;stop-opacity:1"/><stop offset=".9" style="stop-color:#f6a323;stop-opacity:1"/></linearGradient><linearGradient id="y" x1="82.033" x2="119.38" y1="82.759" y2="82.759" gradientTransform="scale(.125)" gradientUnits="userSpaceOnUse"><stop offset="0" style="stop-color:#004054;stop-opacity:1"/><stop offset=".994" style="stop-color:#45a4ff;stop-opacity:1"/></linearGradient><mask id="g"><g filter="url(#a)"><path d="M0 0h16v16H0z" style="fill:#000;fill-opacity:.8;stroke:none"/></g></mask><mask id="i"><g filter="url(#a)"><path d="M0 0h16v16H0z" style="fill:#000;fill-opacity:.8;stroke:none"/></g></mask><g id="h" clip-path="url(#b)"><path d="M6.406 8.95c0-1.141-.98-2.063-2.187-2.063S2.03 7.809 2.03 8.949c0 1.137.98 2.063 2.188 2.063 1.207 0 2.187-.926 2.187-2.063m0 0" style="stroke:none;fill-rule:nonzero;fill:url(#c)"/></g><g id="j" clip-path="url(#d)"><path d="M13.969 8.95c0-1.141-.98-2.063-2.188-2.063-1.207 0-2.187.922-2.187 2.062 0 1.137.98 2.063 2.187 2.063s2.188-.926 2.188-2.063m0 0" style="stroke:none;fill-rule:nonzero;fill:url(#e)"/></g><filter id="a" width="100%" height="100%" x="0%" y="0%" filterUnits="objectBoundingBox"><feColorMatrix in="SourceGraphic" values="0 0 0 0 1 0 0 0 0 1 0 0 0 0 1 0 0 0 1 0"/></filter></defs><path d="M8 15.25c-3.242 0-6.73-2.031-6.73-6.484 0-4.457 3.488-6.489 6.73-6.489 1.797 0 3.46.594 4.684 1.676 1.34 1.18 2.05 2.844 2.05 4.809 0 1.957-.71 3.617-2.05 4.804C11.457 14.652 9.793 15.25 8 15.25m0 0" style="stroke:none;fill-rule:nonzero;fill:url(#f)"/><path d="M8 2.527c1.734 0 3.34.57 4.52 1.614 1.28 1.129 1.96 2.73 1.96 4.625 0 1.882-.68 3.476-1.96 4.613C11.336 14.422 9.734 15 8 15c-1.742 0-3.348-.566-4.52-1.602-1.285-1.128-1.96-2.73-1.96-4.636 0-1.914.68-3.52 1.96-4.645C4.648 3.09 6.254 2.527 8 2.527m0-.5c-3.625 0-6.98 2.328-6.98 6.735C1.02 13.148 4.375 15.5 8 15.5s6.98-2.41 6.98-6.734c0-4.352-3.355-6.739-6.98-6.739m0 0" style="stroke:none;fill-rule:nonzero;fill:#eb8f00;fill-opacity:1"/><use xlink:href="#h" mask="url(#g)"/><use xlink:href="#j" mask="url(#i)"/><path d="M6.195 8.172q-.001 0-.02-.024-.016-.023-.054-.07-.025-.03-.066-.07l-.09-.094a2 2 0 0 0-.106-.09 1 1 0 0 0-.105-.066c-.031-.02-.063-.024-.082-.031-.008-.004-.02-.004-.027-.004-.004 0-.004-.004-.008 0h-.012.035-.07c-.016 0-.004.004-.004.004q.007.001.008-.004c.011-.004 0 0 0 0l-.016.004c-.02.007-.05.011-.082.03-.031.02-.07.04-.105.071-.032.027-.07.059-.102.09a2 2 0 0 0-.226.246L5.03 8.2a.53.53 0 0 1-.703.074.45.45 0 0 1-.183-.433s.011-.05.035-.14a1.67 1.67 0 0 1 .578-.845c.105-.078.23-.152.383-.207.035-.011.074-.027.113-.035.043-.011.074-.023.129-.031l.078-.008.062-.008.07-.003.04-.004h.012l.015.003h.031l.067.004q.06.008.125.016c.078.016.16.04.234.066.149.051.278.13.38.207a1.556 1.556 0 0 1 .523.684 1 1 0 0 1 .058.168c.016.047.016.07.024.09q.004.03.003.031c.047.254-.14.492-.414.531a.52.52 0 0 1-.496-.187M10.883 8.172q-.001 0-.02-.024l-.054-.07q-.025-.03-.067-.07l-.09-.094a2 2 0 0 0-.105-.09.7.7 0 0 0-.106-.066c-.03-.02-.062-.024-.082-.031-.007-.004-.02-.004-.027-.004-.004 0-.004-.004-.008 0h-.011.035-.07c-.016 0-.008.004-.005.004q.004.001.008-.004c.012-.004 0 0-.004 0s-.007.004-.011.004c-.02.007-.051.011-.082.03-.032.02-.07.04-.106.071q-.053.042-.105.09a3 3 0 0 0-.16.172l-.067.074-.027.035a.53.53 0 0 1-.703.074.44.44 0 0 1-.184-.433s.008-.05.035-.14c.024-.09.07-.216.156-.364.086-.149.211-.32.422-.48.102-.079.23-.153.38-.208.034-.011.073-.027.116-.035.04-.011.075-.023.13-.031l.077-.008.063-.008.07-.003.04-.004h.007l.02.003h.03l.063.004q.066.008.125.016a1.5 1.5 0 0 1 .618.273c.21.16.336.332.421.48q.066.114.102.204c.027.059.043.121.059.168.015.047.015.07.02.09q.006.03.007.031c.043.254-.14.492-.414.531a.52.52 0 0 1-.496-.187m0 0" style="stroke:none;fill-rule:nonzero;fill:#242424;fill-opacity:1"/><path d="M13.133 6.61c-.028-.005-.695-.098-1.832-.973-1.125-.864-1.356-1.442-1.38-1.504l-.07-.2 4.876-2.75-1.375 5.458Zm0 0" style="stroke:none;fill-rule:nonzero;fill:#ff4545;fill-opacity:1"/><path d="m14.34 1.688-1.176 4.675s-.617-.078-1.71-.926c-1.099-.843-1.298-1.39-1.298-1.39ZM15.11.68l-1.016.574L9.91 3.609l-.367.207.145.399c.039.113.304.73 1.457 1.617 1.171.902 1.878 1.016 1.957 1.023l.437.06.11-.435 1.175-4.675Zm0 0" style="stroke:none;fill-rule:nonzero;fill:#c93737;fill-opacity:1"/><g clip-path="url(#k)"><g clip-path="url(#l)"><path d="m9.727 2.793.168-1.168 5.933.848-.168 1.168Zm0 0" style="stroke:none;fill-rule:nonzero;fill:#ff0;fill-opacity:1"/><path d="m10.105 1.906 5.438.778-.094.671-5.437-.777Zm-.421-.566-.075.492-.093.676-.07.496.492.07 5.437.778.496.07.07-.496.098-.672.07-.496-.496-.07-5.437-.778Zm0 0" style="stroke:none;fill-rule:nonzero;fill:#c93737;fill-opacity:1"/></g></g><g clip-path="url(#m)"><g clip-path="url(#n)"><path d="m9.648 4.07.168-1.168 5.934.852-.168 1.168Zm0 0" style="stroke:none;fill-rule:nonzero;fill:#ff0;fill-opacity:1"/></g></g><g clip-path="url(#o)"><g clip-path="url(#p)"><path d="m10.027 3.188 5.438.777-.094.676-5.437-.782Zm-.422-.567-.074.496-.094.672-.074.496.496.07 5.438.778.496.07.07-.492.098-.676.07-.492-.496-.074-5.437-.778Zm0 0" style="stroke:none;fill-rule:nonzero;fill:#c93737;fill-opacity:1"/></g></g><g clip-path="url(#q)"><g clip-path="url(#r)"><path d="m9.344 5.484.164-1.168 5.933.852-.168 1.168Zm0 0" style="stroke:none;fill-rule:nonzero;fill:#ff0;fill-opacity:1"/><path d="m9.723 4.602 5.437.777-.098.672-5.437-.778Zm-.426-.567-.07.492-.098.676-.07.496.492.07 5.437.778.496.07.07-.496.098-.672.07-.496-.492-.07-5.437-.778Zm0 0" style="stroke:none;fill-rule:nonzero;fill:#c93737;fill-opacity:1"/></g></g><path d="m14.34 1.688-4.184 2.359s.2.547 1.297 1.39c1.094.848 1.711.926 1.711.926Zm0 0" style="stroke:none;fill-rule:nonzero;fill:#ff4545;fill-opacity:1"/><g clip-path="url(#s)"><g clip-path="url(#t)"><path d="m10.105 1.902 5.438.782-.098.671-5.437-.777Zm0 0" style="stroke:none;fill-rule:nonzero;fill:#ff9c9c;fill-opacity:1"/></g></g><g clip-path="url(#u)"><g clip-path="url(#v)"><path d="m10.027 3.188 5.438.777-.098.672-5.433-.778Zm0 0" style="stroke:none;fill-rule:nonzero;fill:#ff9c9c;fill-opacity:1"/></g></g><g clip-path="url(#w)"><g clip-path="url(#x)"><path d="m9.723 4.598 5.433.78-.094.673-5.437-.778Zm0 0" style="stroke:none;fill-rule:nonzero;fill:#ff9c9c;fill-opacity:1"/></g></g><path d="M3.875 1.875c0-.344-.39-.625-.875-.625-.484 0-.875.281-.875.625s.39.625.875.625c.484 0 .875-.281.875-.625m0 0" style="stroke:none;fill-rule:nonzero;fill:#ff00a2;fill-opacity:1"/><path d="M6.563 2.813c-.27-.27-.653-.32-.856-.118-.203.203-.148.582.121.852.266.27.649.32.852.117.203-.2.152-.582-.117-.852m0 0" style="stroke:none;fill-rule:nonzero;fill:#fd3b3b;fill-opacity:1"/><path d="M9.898 1.625c-.16-.21-.668-.094-1.128.262-.461.36-.704.816-.54 1.031.165.21.672.09 1.133-.266.461-.355.7-.816.535-1.027m0 0" style="stroke:none;fill-rule:nonzero;fill:#0ef;fill-opacity:1"/><path d="M3.148 10.027c-.226-.39-.546-.62-.722-.523-.172.101-.13.496.094.887.226.386.546.62.718.52.176-.098.133-.497-.09-.884m0 0" style="stroke:none;fill-rule:nonzero;fill:#0048ff;fill-opacity:1"/><path d="M12.5 13.813c0-.38-.195-.688-.437-.688-.243 0-.438.309-.438.688s.195.687.438.687c.242 0 .437-.309.437-.687m0 0" style="stroke:none;fill-rule:nonzero;fill:#f63bbe;fill-opacity:1"/><path d="M15.086 6.672c-.078-.113-.441.004-.809.262-.367.261-.601.562-.52.671.079.114.442-.003.81-.261.367-.258.597-.559.519-.672m0 0" style="stroke:none;fill-rule:nonzero;fill:#0c0;fill-opacity:1"/><path d="M2.668 14.332c-.227-.344-.531-.547-.676-.453-.14.094-.074.453.153.797.226.347.527.55.671.457s.079-.453-.148-.801m0 0" style="stroke:none;fill-rule:nonzero;fill:#0048ff;fill-opacity:1"/><path d="M2.625 12.32c-.016-.172-.36-.285-.773-.258-.41.032-.739.196-.727.368.016.172.36.285.773.258.41-.032.739-.192.727-.368m0 0" style="stroke:none;fill-rule:nonzero;fill:#7acded;fill-opacity:1"/><path d="M3.895 10.773c-.008-.117-.415-.187-.91-.152-.497.031-.891.152-.883.274.007.117.418.187.914.152.492-.031.886-.152.879-.274m0 0" style="stroke:none;fill-rule:nonzero;fill:#ff82b2;fill-opacity:1"/><path d="m8.922 11.281.047.64 1.312-.015c-.004-.187-.02-.375-.027-.578-.738-.023-1.332-.047-1.332-.047m0 0" style="stroke:none;fill-rule:nonzero;fill:#7f0099;fill-opacity:1"/><path d="M14.86 9.777a1.44 1.44 0 0 0-.692-.855 1.193 1.193 0 0 0-1.617.488 1.01 1.01 0 0 0 .406 1.363c.2.11.426.137.64.086a.8.8 0 0 0 .516-.402c.114-.21.106-.508-.023-.742a.64.64 0 0 0-.524-.348.23.23 0 0 0-.25.215.236.236 0 0 0 .215.254c.024 0 .094.008.145.105.054.098.054.23.023.293a.34.34 0 0 1-.219.164.43.43 0 0 1-.3-.039.537.537 0 0 1-.219-.727.72.72 0 0 1 .43-.35.74.74 0 0 1 .554.054.963.963 0 0 1 .39 1.313c-.241.456-.698.746-1.366.757-.39.004-1.692-.039-2.715-.074.008.2.023.39.027.578l2.66-.027c.79 0 1.438-.317 1.809-1.012.18-.336.223-.726.11-1.094m0 0" style="stroke:none;fill-rule:nonzero;fill:url(#y)"/><path d="M7.973 10.23h.136c.055.004.11.004.16.012.11.012.215.028.329.063.113.03.23.074.347.156.055.035.114.09.164.144.051.063.098.125.125.2.067.144.09.289.063.453a.68.68 0 0 1-.258.418 1 1 0 0 1-.351.168 1.4 1.4 0 0 1-.344.043l.011-.578c.082.004.133.015.196.027.062.016.125.031.187.055.121.046.25.12.356.234.11.11.187.27.21.418.012.039.012.074.016.113 0 .04.008.067 0 .114a1 1 0 0 1-.02.128c-.003.043-.027.086-.042.13a.8.8 0 0 1-.332.363 1.4 1.4 0 0 1-.36.152 2 2 0 0 1-.343.066 2.5 2.5 0 0 1-.348.024.38.38 0 0 1-.375-.38.38.38 0 0 1 .379-.37h.023l.012.004c.149.008.336.004.48-.028.153-.027.254-.093.262-.113 0-.004.008-.004.008-.008q-.001-.01.004-.015c.004-.016.004-.051.004-.07a.2.2 0 0 0-.04-.106.3.3 0 0 0-.128-.098.3.3 0 0 0-.094-.035c-.031-.012-.078-.02-.094-.023l-.011-.004a.29.29 0 0 1-.227-.348.295.295 0 0 1 .25-.226l.094-.016c.031-.008.066-.02.094-.027a.34.34 0 0 0 .129-.07c.02-.024.011-.024.011-.036.004 0-.004-.02-.004-.031-.011-.012-.007-.031-.02-.035-.007-.02-.027-.032-.062-.051a.4.4 0 0 0-.148-.05 1 1 0 0 0-.207-.02c-.035-.004-.074 0-.11 0l-.054.003-.04.004h-.038a.373.373 0 0 1-.375-.375c0-.214.168-.379.375-.379m0 0" style="stroke:none;fill-rule:nonzero;fill:#242424;fill-opacity:1"/><path d="M15.691.813a.6.6 0 0 1-.597.597.6.6 0 0 1-.598-.597.6.6 0 0 1 .598-.598.6.6 0 0 1 .597.598m0 0" style="stroke:none;fill-rule:nonzero;fill:#c93737;fill-opacity:1"/></svg>