<svg xmlns="http://www.w3.org/2000/svg" xmlns:xlink="http://www.w3.org/1999/xlink" width="16pt" height="16pt" viewBox="0 0 16 16"><defs><clipPath id="b"><path d="M0 0h16v16H0z"/></clipPath><clipPath id="c"><path d="M0 0h16v16H0z"/></clipPath><clipPath id="d"><path d="M0 0h16v16H0z"/></clipPath><clipPath id="e"><path d="M0 0h16v16H0z"/></clipPath><mask id="g"><g filter="url(#a)"><path d="M0 0h16v16H0z" style="fill:#000;fill-opacity:.2;stroke:none"/></g></mask><mask id="j"><g filter="url(#a)"><path d="M0 0h16v16H0z" style="fill:#000;fill-opacity:.2;stroke:none"/></g></mask><mask id="m"><g filter="url(#a)"><path d="M0 0h16v16H0z" style="fill:#000;fill-opacity:.4;stroke:none"/></g></mask><mask id="p"><g filter="url(#a)"><path d="M0 0h16v16H0z" style="fill:#000;fill-opacity:.2;stroke:none"/></g></mask><g id="h" clip-path="url(#b)"><path d="M2.836 1.047c.633 0 1.543.09 2.707.266 1.562.234 2.305 1.324 2.234 2.273-.066.898-.797 1.219-1.457 1.219-.047 0-.097-.004-.148-.004-2.031-.117-3.223-2.735-3.61-3.746.075-.008.165-.008.274-.008m0-.375c-.656 0-.773.094-.773.094s1.28 4.246 4.085 4.406q.09.005.172.004c2.633 0 2.473-3.754-.722-4.235-1.391-.21-2.243-.27-2.762-.27m0 0" style="stroke:none;fill-rule:nonzero;fill:#424242;fill-opacity:1"/></g><g id="k" clip-path="url(#c)"><path d="M13.348.941c-.313 1.059-1.325 3.86-3.41 4.145-.114.02-.227.023-.329.023-.625 0-1.328-.316-1.43-1.207-.054-.476.098-.992.419-1.418.379-.507.968-.867 1.699-1.039 1.723-.398 2.605-.496 3.05-.504m.055-.375c-.449 0-1.367.09-3.187.516-3.145.73-3.098 4.402-.606 4.402q.183.002.383-.027c2.86-.39 3.828-4.84 3.828-4.84s-.074-.05-.418-.05m0 0" style="stroke:none;fill-rule:nonzero;fill:#424242;fill-opacity:1"/></g><g id="n" clip-path="url(#d)"><path d="M2.238 4.031c-1.02 1.336-1.285 3.211-.847 5 .441 1.781 1.488 3.192 2.996 4.223C7.98 15.71 8.27 15.488 8.27 15.488s2.902-2.511 2.996-6.504c.062-2.617-.93-4.863-2.786-5.968-1.714-1.024-3.464-.715-3.632-.668-1.141.285-2.008.89-2.61 1.683m0 0" style="stroke:none;fill-rule:nonzero;fill:#666;fill-opacity:1"/></g><g id="q" clip-path="url(#e)"><path d="M10.102 2.477c1.84 0 3.609.96 4.394 2.394 1 1.82.738 4.383-.656 6.375-1.89 2.707-5.313 3.797-5.59 3.879h-.023c-.118 0-.485-.031-1.313-.344-.613-.234-1.457-.715-2.91-1.66-1.488-.973-2.477-2.39-2.926-4.226-.379-1.543.008-3.278 1.043-4.637.59-.778 1.399-1.301 2.402-1.551a4.8 4.8 0 0 1 1.153-.125c.746 0 1.43.145 2.035.434q.076.04.16.039a.4.4 0 0 0 .184-.047l.164-.094c.12-.074.234-.14.347-.18a4.5 4.5 0 0 1 1.536-.257M8.234 15.129l-.007.004c-.004 0 .003-.004.007-.004m1.868-13.027c-.57 0-1.137.09-1.66.277-.204.07-.383.2-.567.297-.777-.371-1.57-.473-2.2-.473a5 5 0 0 0-1.241.14c-1.141.286-2.008.891-2.61 1.684C.81 5.367.274 7.195.714 8.984c.438 1.782 1.395 3.348 3.087 4.45 1.347.879 2.293 1.437 2.984 1.699.848.32 1.266.367 1.445.367.079 0 .11-.008.11-.008s3.746-1.07 5.812-4.031c1.496-2.145 1.715-4.879.676-6.77-.89-1.617-2.848-2.59-4.726-2.59m0 0" style="stroke:none;fill-rule:nonzero;fill:#424242;fill-opacity:1"/></g><radialGradient id="l" cx="90.293" cy="43.697" r="54.581" fx="90.293" fy="43.697" gradientTransform="scale(.125)" gradientUnits="userSpaceOnUse"><stop offset=".163" style="stop-color:#f7d3a8;stop-opacity:1"/><stop offset=".336" style="stop-color:#fbceaa;stop-opacity:1"/><stop offset=".442" style="stop-color:#ffc7ad;stop-opacity:1"/><stop offset=".514" style="stop-color:#ffb8a1;stop-opacity:1"/><stop offset=".652" style="stop-color:#ff9282;stop-opacity:1"/><stop offset=".839" style="stop-color:#ff5450;stop-opacity:1"/><stop offset=".892" style="stop-color:#ff4141;stop-opacity:1"/><stop offset=".929" style="stop-color:#fa4242;stop-opacity:1"/><stop offset=".971" style="stop-color:#ec4444;stop-opacity:1"/><stop offset=".984" style="stop-color:#e64545;stop-opacity:1"/></radialGradient><radialGradient id="o" cx="43.901" cy="51.406" r="61.587" fx="43.901" fy="51.406" gradientTransform="rotate(71.844 5.768 6.63)scale(.125 .1329)" gradientUnits="userSpaceOnUse"><stop offset=".163" style="stop-color:#f7d3a8;stop-opacity:1"/><stop offset=".336" style="stop-color:#fbceaa;stop-opacity:1"/><stop offset=".442" style="stop-color:#ffc7ad;stop-opacity:1"/><stop offset=".513" style="stop-color:#ffb8a1;stop-opacity:1"/><stop offset=".65" style="stop-color:#ff9282;stop-opacity:1"/><stop offset=".836" style="stop-color:#ff5450;stop-opacity:1"/><stop offset=".888" style="stop-color:#ff4141;stop-opacity:1"/><stop offset=".924" style="stop-color:#fa4242;stop-opacity:1"/><stop offset=".932" style="stop-color:#f84242;stop-opacity:1"/><stop offset=".984" style="stop-color:#e64545;stop-opacity:1"/></radialGradient><linearGradient id="f" x1="21.507" x2="64.841" y1="21.454" y2="21.454" gradientTransform="rotate(-12.45 5.669 3.275)scale(.125)" gradientUnits="userSpaceOnUse"><stop offset=".123" style="stop-color:#689f38;stop-opacity:1"/><stop offset=".322" style="stop-color:#73a743;stop-opacity:1"/><stop offset=".668" style="stop-color:#8ebd60;stop-opacity:1"/><stop offset=".993" style="stop-color:#aed581;stop-opacity:1"/></linearGradient><linearGradient id="i" x1="41.596" x2="86.103" y1="25.334" y2="25.334" gradientTransform="rotate(7.95 3.19 137.406)scale(-.125 .125)" gradientUnits="userSpaceOnUse"><stop offset=".123" style="stop-color:#689f38;stop-opacity:1"/><stop offset=".322" style="stop-color:#73a743;stop-opacity:1"/><stop offset=".668" style="stop-color:#8ebd60;stop-opacity:1"/><stop offset=".993" style="stop-color:#aed581;stop-opacity:1"/></linearGradient><filter id="a" width="100%" height="100%" x="0%" y="0%" filterUnits="objectBoundingBox"><feColorMatrix in="SourceGraphic" values="0 0 0 0 1 0 0 0 0 1 0 0 0 0 1 0 0 0 1 0"/></filter></defs><path d="M2.063.766s1.28 4.246 4.085 4.406c2.809.164 2.711-3.738-.55-4.23C2.434.46 2.063.765 2.063.765m0 0" style="stroke:none;fill-rule:nonzero;fill:url(#f)"/><use xlink:href="#h" mask="url(#g)"/><path d="M13.82.617s-.968 4.45-3.832 4.84c-2.86.395-3.07-3.61.227-4.375C13.418.336 13.82.617 13.82.617m0 0" style="stroke:none;fill-rule:nonzero;fill:url(#i)"/><use xlink:href="#k" mask="url(#j)"/><path d="M8.438 2.422c-2.043.734-3.29 3.133-3.512 5.187-.164 1.512.144 2.68.715 3.891 1.855 3.941 2.71 3.988 2.71 3.988s3.735-1.066 5.797-4.027c1.5-2.145 1.72-4.875.68-6.77-1.16-2.113-4.133-3.082-6.39-2.27m0 0" style="stroke:none;fill-rule:nonzero;fill:url(#l)"/><use xlink:href="#n" mask="url(#m)"/><path d="M1.824 4.031C.81 5.367.274 7.238.714 9.027c.438 1.782 1.446 3.305 3.087 4.407 3.629 2.441 4.605 2.03 4.605 2.03s2.356-2.487 2.45-6.48c.058-2.617-.782-5.004-2.637-6.113-1.715-1.02-3.614-.566-3.785-.523-1.141.285-2.008.89-2.61 1.683m0 0" style="stroke:none;fill-rule:nonzero;fill:url(#o)"/><use xlink:href="#q" mask="url(#p)"/></svg>