<svg xmlns="http://www.w3.org/2000/svg" width="16pt" height="16pt" viewBox="0 0 16 16"><defs><radialGradient id="a" cx="38.607" cy="81.51" r="35.58" fx="38.607" fy="81.51" gradientTransform="matrix(.11739 .02927 -.03823 .16428 6.11 -4.331)" gradientUnits="userSpaceOnUse"><stop offset=".243" style="stop-color:#cca47a;stop-opacity:1"/><stop offset=".688" style="stop-color:#e0bb95;stop-opacity:1"/><stop offset=".994" style="stop-color:#cca47a;stop-opacity:1"/></radialGradient><radialGradient id="c" cx="-154.89" cy="3.273" r="13.987" fx="-154.89" fy="3.273" gradientTransform="matrix(.01303 .12396 -.08281 .00918 8.562 26.11)" gradientUnits="userSpaceOnUse"><stop offset="0" style="stop-color:#e0bb95;stop-opacity:1"/><stop offset=".409" style="stop-color:#deb892;stop-opacity:1"/><stop offset=".739" style="stop-color:#d6b088;stop-opacity:1"/><stop offset=".995" style="stop-color:#cca47a;stop-opacity:1"/></radialGradient><radialGradient id="d" cx="-286.65" cy="-42.464" r="12.587" fx="-286.65" fy="-42.464" gradientTransform="matrix(.10572 -.02225 .02476 .11764 35.608 6.508)" gradientUnits="userSpaceOnUse"><stop offset="0" style="stop-color:#e0bb95;stop-opacity:1"/><stop offset=".411" style="stop-color:#deb892;stop-opacity:1"/><stop offset=".743" style="stop-color:#d6b088;stop-opacity:1"/><stop offset="1" style="stop-color:#cca47a;stop-opacity:1"/></radialGradient><radialGradient id="g" cx="-89.658" cy="231.79" r="51.951" fx="-89.658" fy="231.79" gradientTransform="matrix(.09945 0 0 .10864 16.715 -15.287)" gradientUnits="userSpaceOnUse"><stop offset="0" style="stop-color:#e0bb95;stop-opacity:1"/><stop offset=".411" style="stop-color:#deb892;stop-opacity:1"/><stop offset=".743" style="stop-color:#d6b088;stop-opacity:1"/><stop offset="1" style="stop-color:#cca47a;stop-opacity:1"/></radialGradient><clipPath id="e"><path d="M6 8h7v5H6Zm0 0"/></clipPath><clipPath id="f"><path d="M6.855 8.793c-.91 0-1.058.941-.84 1.484.215.54.86.914 1.434.864 2.063-.188 2.578.117 2.848.675.371.77.812.758 1.265.758.813 0 .692-1.195.72-2.328.03-1.277-2.337-1.75-2.337-1.75s-2.656.297-3.09.297m0 0"/></clipPath><clipPath id="h"><path d="M5 8h8v5H5Zm0 0"/></clipPath><clipPath id="i"><path d="M6.855 8.793c-.91 0-1.058.941-.84 1.484.215.54.86.914 1.434.864 2.063-.188 2.578.117 2.848.675.371.77.812.758 1.265.758.813 0 .692-1.195.72-2.328.03-1.277-2.337-1.75-2.337-1.75s-2.656.297-3.09.297m0 0"/></clipPath><linearGradient id="b" x1="75.52" x2="75.52" y1="23.222" y2="90.835" gradientTransform="scale(.125)" gradientUnits="userSpaceOnUse"><stop offset="0" style="stop-color:#e0bb95;stop-opacity:1"/><stop offset=".411" style="stop-color:#deb892;stop-opacity:1"/><stop offset=".743" style="stop-color:#d6b088;stop-opacity:1"/><stop offset="1" style="stop-color:#cca47a;stop-opacity:1"/></linearGradient></defs><path d="M7.66 15.34c-3.027 0-4.5-1.606-4.5-4.914V7.64c0-.094.008-.157.012-.192.09.055.246.196.367.301.414.371.977.879 1.633.879h.012c.023 0 2.312-.172 4.175-.172 1.903 0 2.235.176 2.29.23.55.524.863.88.863 1.985 0 2.258-1.274 4.668-4.852 4.668m0 0" style="stroke:none;fill-rule:nonzero;fill:url(#a)"/><path d="m3.348 7.832.062.059c.438.39 1.035.925 1.762.925h.027c.024 0 2.305-.171 4.16-.171 1.766 0 2.118.156 2.168.183.524.5.797.817.797 1.844 0 1.207-.375 2.3-1.058 3.078-.817.93-2.028 1.402-3.606 1.402-1.594 0-2.71-.441-3.418-1.351-.594-.77-.894-1.903-.894-3.371zm-.223-.594c-.098 0-.152.114-.152.403v2.785c0 2.808 1.035 5.101 4.687 5.101s5.04-2.46 5.04-4.855c0-1.152-.333-1.559-.923-2.121-.222-.215-1.242-.281-2.418-.281-1.894 0-4.187.171-4.187.171-.93 0-1.723-1.203-2.047-1.203m0 0" style="stroke:none;fill-rule:nonzero;fill:#ba8f63;fill-opacity:1"/><path d="M10.875 9.852c-.125 0-.121-.004-.176-.012a1.06 1.06 0 0 1-.855-.758.19.19 0 0 0-.16-.137h-.028a.19.19 0 0 0-.164.094 1.03 1.03 0 0 1-.902.524c-.488 0-.906-.333-1.016-.805l-1.582-6.82a1.043 1.043 0 0 1 2.031-.473L9.566 7.59c.024.086.098.16.184.16h.008c.09 0 .164-.086.18-.176l.906-5.613c.078-.504.52-.887 1.027-.887.05 0 .11 0 .16.008.567.09.957.621.871 1.188l-1.011 6.699a1.045 1.045 0 0 1-1.016.883m0 0" style="stroke:none;fill-rule:nonzero;fill:url(#b)"/><path d="M7.012.848c.398 0 .738.27.828.66 0 .004.004.004.004.008L9.387 7.62a.37.37 0 0 0 .363.281h.016a.375.375 0 0 0 .355-.316l.906-5.606a.86.86 0 0 1 .844-.726.852.852 0 0 1 .844.984l-1.031 6.7a.86.86 0 0 1-.973.714.86.86 0 0 1-.695-.62.36.36 0 0 0-.313-.274q-.023-.005-.047-.004a.37.37 0 0 0-.324.187.85.85 0 0 1-.547.41q-.095.019-.195.02a.844.844 0 0 1-.828-.66L6.176 1.895a.86.86 0 0 1 .64-1.028q.096-.019.196-.02m0-.374a1.23 1.23 0 0 0-1.2 1.508l1.579 6.816c.132.566.64.953 1.199.953q.136 0 .277-.035c.348-.078.625-.297.79-.586a1.22 1.22 0 0 0 1.187.91c.594 0 1.117-.434 1.21-1.043l1.032-6.7A1.228 1.228 0 0 0 11.87.884a1.23 1.23 0 0 0-1.215 1.039L9.75 7.527 8.207 1.422a1.23 1.23 0 0 0-1.195-.95m0 0" style="stroke:none;fill-rule:nonzero;fill:#ba8f63;fill-opacity:1"/><path d="M6.465 9.895a1.064 1.064 0 0 1-1.067-.973l-.183-2.055a1.078 1.078 0 0 1 .973-1.164c.03 0 .062-.004.097-.004.555 0 1.012.418 1.063.973L7.53 8.73a1.07 1.07 0 0 1-.968 1.16q-.053.006-.098.005m0 0" style="stroke:none;fill-rule:nonzero;fill:url(#c)"/><path d="M6.281 5.887a.89.89 0 0 1 .88.804l.183 2.055a.88.88 0 0 1-.203.645.87.87 0 0 1-.598.312c-.027 0-.055.004-.078.004a.88.88 0 0 1-.88-.805l-.183-2.054a.88.88 0 0 1 .203-.645.87.87 0 0 1 .598-.312c.027 0 .05-.004.078-.004m0-.375q-.056.002-.113.004a1.26 1.26 0 0 0-1.14 1.367l.183 2.055a1.26 1.26 0 0 0 1.254 1.144q.054.001.113-.004a1.257 1.257 0 0 0 1.14-1.363L7.536 6.66a1.263 1.263 0 0 0-1.254-1.148m0 0" style="stroke:none;fill-rule:nonzero;fill:#ba8f63;fill-opacity:1"/><path d="M4.438 10.238c-.5 0-.938-.351-1.04-.84L3.11 8.023a1.05 1.05 0 0 1 .153-.796c.152-.239.39-.399.668-.461q.112-.019.218-.02c.5 0 .938.356 1.04.84l.289 1.375a1.06 1.06 0 0 1-.82 1.258 1 1 0 0 1-.22.02m0 0" style="stroke:none;fill-rule:nonzero;fill:url(#d)"/><path d="M4.148 6.934c.41 0 .77.293.856.691L5.293 9a.877.877 0 0 1-.676 1.035 1 1 0 0 1-.183.016.87.87 0 0 1-.852-.692l-.289-1.375a.872.872 0 0 1 .855-1.05m0-.375q-.123-.002-.257.027a1.247 1.247 0 0 0-.965 1.476l.289 1.376a1.25 1.25 0 0 0 1.48.96c.676-.14 1.106-.8.965-1.476l-.289-1.375a1.25 1.25 0 0 0-1.223-.988M10.984 11.238c-.46-.136-.972-.187-1.418.032-.464.226-.699.68-.882 1.132-.094.223.27.32.359.102.156-.375.352-.758.746-.922.356-.145.738-.09 1.098.02.23.066.332-.297.097-.364m0 0" style="stroke:none;fill-rule:nonzero;fill:#ba8f63;fill-opacity:1"/><g clip-path="url(#e)"><g clip-path="url(#f)"><path d="M11.672 12.941c-.371-.007-.867-.504-1.207-1.207-.29-.601-.836-.84-1.95-.84-.312 0-.667.02-1.081.06q-.048.002-.094.003c-.477 0-.985-.332-1.152-.754-.106-.258-.114-.668.074-.941q.189-.284.593-.285c.415 0 2.758-.258 3.079-.293.855.203 2.988.902 3.078 1.824q.14 1.502-.38 2.078c-.214.238-.519.351-.921.351Zm0 0" style="stroke:none;fill-rule:nonzero;fill:url(#g)"/></g></g><g clip-path="url(#h)"><g clip-path="url(#i)"><path d="M9.922 8.875c.191.047.82.215 1.457.484.883.38 1.41.805 1.445 1.168.09.942-.02 1.594-.328 1.934-.18.195-.437.293-.785.293h-.035c-.254-.008-.711-.418-1.04-1.102-.323-.672-.937-.945-2.12-.945-.317 0-.68.02-1.098.059-.027.004-.05.004-.078.004-.406 0-.836-.278-.98-.633-.083-.211-.094-.551.054-.77.094-.133.234-.199.441-.199.415 0 2.59-.242 3.067-.293m.023-.383s-2.656.301-3.09.301c-.91 0-1.058.941-.84 1.484.204.504.782.868 1.325.868q.057.001.11-.004c.413-.04.765-.059 1.066-.059 1.191 0 1.566.285 1.78.734.368.77.919 1.305 1.372 1.313h.039c1.508 0 1.594-1.512 1.488-2.637-.12-1.273-3.25-2-3.25-2m0 0" style="stroke:none;fill-rule:nonzero;fill:#ba8f63;fill-opacity:1"/></g></g></svg>