<svg xmlns="http://www.w3.org/2000/svg" width="16pt" height="16pt" viewBox="0 0 16 16"><defs><linearGradient id="a" x1="64" x2="64" y1="118.5" y2="10.998" gradientTransform="scale(.125)" gradientUnits="userSpaceOnUse"><stop offset=".001" style="stop-color:#e08787;stop-opacity:1"/><stop offset=".43" style="stop-color:#ffb5b5;stop-opacity:1"/></linearGradient><linearGradient id="b" x1="-334.83" x2="-334.83" y1="57.052" y2="-34.285" gradientTransform="matrix(-.125 0 0 .125 -28.74 0)" gradientUnits="userSpaceOnUse"><stop offset="0" style="stop-color:#f99;stop-opacity:1"/><stop offset=".43" style="stop-color:#ffb5b5;stop-opacity:1"/></linearGradient><linearGradient id="c" x1="-262.96" x2="-262.96" y1="57.052" y2="-34.285" gradientTransform="translate(35.756)scale(.125)" gradientUnits="userSpaceOnUse"><stop offset="0" style="stop-color:#f99;stop-opacity:1"/><stop offset=".43" style="stop-color:#ffb5b5;stop-opacity:1"/></linearGradient></defs><path d="M8 14.813c-4.27 0-6.719-2.102-6.719-5.762 0-1.918.64-3.828 1.758-5.246.875-1.11 2.445-2.43 4.961-2.43s4.086 1.32 4.96 2.43c1.118 1.418 1.759 3.332 1.759 5.246 0 3.66-2.45 5.762-6.719 5.762m0 0" style="stroke:none;fill-rule:nonzero;fill:url(#a)"/><path d="M8 1.563c2.441 0 3.965 1.28 4.813 2.359 1.093 1.383 1.718 3.254 1.718 5.129 0 1.773-.57 3.16-1.695 4.12-1.113.95-2.79 1.454-4.836 1.454s-3.723-.504-4.836-1.453C2.04 12.21 1.47 10.828 1.47 9.05c0-1.875.625-3.746 1.719-5.13C4.034 2.845 5.558 1.564 8 1.564m0-.375c-4.414 0-6.906 4.05-6.906 7.863C1.094 12.867 3.664 15 8 15s6.906-2.133 6.906-5.95c0-3.812-2.492-7.863-6.906-7.863m0 0" style="stroke:none;fill-rule:nonzero;fill:#ed7e7e;fill-opacity:1"/><path d="M5.309 7.453c0-.719-.516-1.3-1.149-1.3s-1.148.581-1.148 1.3c0 .715.515 1.297 1.148 1.297S5.31 8.168 5.31 7.453M12.988 7.453c0-.719-.515-1.3-1.148-1.3s-1.149.581-1.149 1.3c0 .715.516 1.297 1.149 1.297s1.148-.582 1.148-1.297m0 0" style="stroke:none;fill-rule:nonzero;fill:#404040;fill-opacity:1"/><path d="M8 8.105c-1.598 0-2.89 1.47-2.89 2.875 0 1.407 1.292 2.22 2.89 2.22s2.89-.813 2.89-2.22c0-1.406-1.292-2.875-2.89-2.875m0 0" style="stroke:none;fill-rule:nonzero;fill:#eb7070;fill-opacity:1"/><path d="M7.645 10.918q.001-.036.003-.066-.001-.036-.003-.07c-.016-.614-.243-.977-.528-1.02a.2.2 0 0 0-.062-.012q-.03 0-.063.012c-.285.043-.508.406-.523 1.02q-.005.034-.004.07-.001.03.004.066c.015.617.238.977.523 1.023q.035.007.063.008.034-.001.062-.008c.285-.046.512-.406.528-1.023M9.531 10.918c0-.023.004-.047.004-.066 0-.024-.004-.047-.004-.07-.015-.614-.242-.977-.527-1.02a.2.2 0 0 0-.063-.012q-.029 0-.062.012c-.285.043-.508.406-.524 1.02q-.004.034-.003.07 0 .03.003.066c.016.617.239.977.524 1.023q.032.007.062.008.034-.001.063-.008c.285-.046.512-.406.527-1.023m0 0" style="stroke:none;fill-rule:nonzero;fill:#404040;fill-opacity:1"/><path d="M15.273 5.578c-2.414-.086-4.226-1.84-4.32-4.176.164 0 .469-.004 1.027-.004 1.141 0 2.75.004 3.293.008Zm0 0" style="stroke:none;fill-rule:nonzero;fill:url(#b)"/><path d="M11.98 1.586c1.024 0 2.442.004 3.106.008v3.789c-1.035-.078-1.98-.48-2.691-1.153-.723-.683-1.157-1.613-1.243-2.64.18-.004.442-.004.828-.004m0-.375c-.695 0-1.214.004-1.214.008 0 2.683 2.093 4.55 4.695 4.55V1.22s-2.09-.008-3.48-.008m0 0" style="stroke:none;fill-rule:nonzero;fill:#ed7e7e;fill-opacity:1"/><path d="M.727 1.406c.543-.004 2.152-.008 3.293-.008.558 0 .863.004 1.027.004-.094 2.336-1.906 4.09-4.32 4.176Zm0 0" style="stroke:none;fill-rule:nonzero;fill:url(#c)"/><path d="M4.02 1.586c.386 0 .648 0 .828.004-.086 1.027-.52 1.953-1.243 2.64-.71.672-1.656 1.075-2.69 1.153v-3.79c.663-.003 2.081-.007 3.105-.007m0-.375c-1.391 0-3.48.008-3.48.008v4.55c2.6 0 4.694-1.867 4.694-4.55 0-.004-.52-.008-1.214-.008m0 0" style="stroke:none;fill-rule:nonzero;fill:#ed7e7e;fill-opacity:1"/></svg>