<svg xmlns="http://www.w3.org/2000/svg" xmlns:xlink="http://www.w3.org/1999/xlink" width="16pt" height="16pt" viewBox="0 0 16 16"><defs><radialGradient id="g" cx="59.419" cy="35.771" r="5.74" fx="59.419" fy="35.771" gradientTransform="matrix(-.13334 -.00477 -.00406 .11336 16.785 .831)" gradientUnits="userSpaceOnUse"><stop offset="0" style="stop-color:#b9b789;stop-opacity:1"/><stop offset="1" style="stop-color:#000;stop-opacity:1"/></radialGradient><radialGradient id="h" cx="58.6" cy="84.185" r="5.227" fx="58.6" fy="84.185" gradientTransform="rotate(162.752 6.315 .101)scale(.125 -.125)" gradientUnits="userSpaceOnUse"><stop offset="0" style="stop-color:#b9b789;stop-opacity:1"/><stop offset="1" style="stop-color:#000;stop-opacity:1"/></radialGradient><linearGradient id="c" x1="14.094" x2="93.971" y1="124.14" y2="24.147" gradientTransform="matrix(-.125 0 0 .125 15.908 0)" gradientUnits="userSpaceOnUse"><stop offset="0" style="stop-color:#ffe165;stop-opacity:1"/><stop offset=".016" style="stop-color:#c7a259;stop-opacity:1"/><stop offset=".025" style="stop-color:#a67c52;stop-opacity:1"/><stop offset=".826" style="stop-color:#da8108;stop-opacity:1"/><stop offset=".911" style="stop-color:#e08200;stop-opacity:1"/><stop offset=".934" style="stop-color:#dd7e00;stop-opacity:1"/><stop offset=".956" style="stop-color:#d27300;stop-opacity:1"/><stop offset=".976" style="stop-color:#c16000;stop-opacity:1"/><stop offset=".996" style="stop-color:#aa4600;stop-opacity:1"/><stop offset="1" style="stop-color:#a44000;stop-opacity:1"/></linearGradient><linearGradient id="d" x1="15.502" x2="81.681" y1="117.97" y2="35.128" gradientTransform="matrix(-.125 0 0 .125 15.908 0)" gradientUnits="userSpaceOnUse"><stop offset="0" style="stop-color:#ffe165;stop-opacity:1"/><stop offset=".499" style="stop-color:#ffdf64;stop-opacity:1"/><stop offset=".679" style="stop-color:#ffd85f;stop-opacity:1"/><stop offset=".808" style="stop-color:#fecc56;stop-opacity:1"/><stop offset=".911" style="stop-color:#febc4a;stop-opacity:1"/><stop offset="1" style="stop-color:#fda63a;stop-opacity:1"/></linearGradient><clipPath id="b"><path d="M0 0h16v16H0z"/></clipPath><filter id="a" width="100%" height="100%" x="0%" y="0%" filterUnits="objectBoundingBox"><feColorMatrix in="SourceGraphic" values="0 0 0 0 1 0 0 0 0 1 0 0 0 0 1 0 0 0 1 0"/></filter><mask id="e"><g filter="url(#a)"><path d="M0 0h16v16H0z" style="fill:#000;fill-opacity:.2;stroke:none"/></g></mask><g id="f" clip-path="url(#b)"><path d="M8.941.938q.066.179.145.359c.094.21.2.45.293.797.023.097.09.18.18.23.117.067.18.242.343.785.063.207.141.465.246.774.207.62.41 1.086.586 1.496.188.434.336.777.426 1.148.117.504.235.68.406.828.004.004.008.004.012.008.004.012.016.035.027.09.168.7.32 1.04.696 1.715l.004.004c.523.887.652 1.195.668 1.297-.008.297.172.664.472 1.226.16.301.344.645.38.82.03.157.1.41.19.739.063.223.133.476.196.715l.008.027c.09.266.195.621.187.895a5 5 0 0 1-.594-.399.5.5 0 0 0-.085-.047c-.59-.226-1.32-.578-2.051-.98q-.194-.107-.414-.23c-1.258-.708-2.344-1.301-2.934-1.434s-2.93-1.477-3.652-2.227c-.817-.84-1.446-1.101-1.86-1.27l-.023-.007a4 4 0 0 0-.434-.152A1.5 1.5 0 0 1 2 8.008a2.3 2.3 0 0 0-.371-.137c-.04-.012-.082-.027-.117-.039.004-.023.008-.055.02-.098.167-.562 1.25-2.632 2.597-4.101 1.5-1.64 4-2.586 4.812-2.695M9.078.55c-.687 0-3.527.976-5.23 2.828-1.332 1.453-2.485 3.586-2.676 4.25-.184.613.254.512.656.71.344.177.418.138.82.302.403.164.98.394 1.754 1.195.774.8 3.164 2.176 3.84 2.332.676.152 2.309 1.102 3.25 1.625.809.445 1.535.785 2.094 1.004.39.285.742.523.957.523.098 0 .172-.054.203-.175.09-.336-.008-.778-.176-1.27-.148-.574-.332-1.187-.383-1.437-.101-.497-.859-1.563-.843-1.97.011-.214-.313-.8-.715-1.484-.36-.64-.5-.96-.66-1.62-.114-.47-.246-.083-.45-.926-.18-.766-.59-1.403-1.019-2.676-.383-1.149-.406-1.574-.762-1.77-.187-.691-.414-.98-.508-1.39Q9.22.55 9.078.55m0 0" style="stroke:none;fill-rule:nonzero;fill:#424242;fill-opacity:1"/></g></defs><path d="M1.172 7.629c.195-.664 1.344-2.797 2.676-4.25C5.778 1.277 9.164.305 9.234.602c.106.472.391.785.59 1.738.196.953 1.059 3.566 1.707 4.765.649 1.196 1.832 2.957 1.817 3.364-.02.402.742 1.469.843 1.969.102.496.723 2.433.551 2.601s-1.52-.289-3.25-1.25c-.941-.52-2.574-1.469-3.25-1.625-.676-.152-3.066-1.527-3.84-2.328-.773-.8-1.351-1.027-1.754-1.195-.402-.164-.476-.125-.82-.297-.402-.203-.84-.102-.656-.715m0 0" style="stroke:none;fill-rule:nonzero;fill:url(#c)"/><path d="M2.781 7.75s.207-.715 1.426-2.125 1.828-2.082 2.809-2.516c1.093-.484 2.004-1.078 2.593-1.171.282-.047.465.546.891 1.824.43 1.273.84 1.91 1.02 2.676.199.843.335.457.449.925.172.707.324 1.024.738 1.758.398.707.55 1.512.55 1.512.4.64.544 1.14.868 2.035.344.953.781 1.879.621 2.477-.156.597-1.223-.48-2.113-1.02-.895-.54-2.617-1.258-3.473-1.918-.293-.223-1.566-.535-2.36-.98-.902-.504-1.398-.758-2.335-1.54-.863-.718-.606-.609-1.219-1.03-.613-.427-.484-.438-.465-.907m0 0" style="stroke:none;fill-rule:nonzero;fill:url(#d)"/><use xlink:href="#f" mask="url(#e)"/><path d="M6.727 11.168A8.6 8.6 0 0 1 5.53 10.5c-.441-.29-.883-.7-1.355-.996.312-.352.836-.57 1.39-.574.891-.008 1.739.316 1.622 1.375-.04.36-.208.64-.461.863m0 0" style="stroke:none;fill-rule:nonzero;fill:#da455a;fill-opacity:1"/><path d="M6.848 9.938c-.043-.051-.106-.098-.172-.079-.051.016-.082.079-.082.133s.02.11.035.164c.055.18.031.34.004.52-.02.136-.031.258.129.18.289-.145.25-.708.086-.918M5.594 9.324c-.082.016-.164.067-.196.14a.26.26 0 0 0 .04.22c.078.125.23.207.382.199.078-.004.137-.012.211.027.043.02.082.11.14.106.102-.008.122-.18.106-.254-.05-.278-.418-.496-.683-.438M5.484 9.148a1.6 1.6 0 0 1-.449.079c-.023 0-.05-.004-.058-.024-.008-.023.015-.047.039-.058.09-.047.18-.098.28-.114.099-.015.212.004.278.078q-.03.023-.058.04M6.688 9.656a1.5 1.5 0 0 0-.297-.324c-.04-.027-.102-.05-.13-.012-.011.02-.007.051.005.075a.52.52 0 0 0 .367.316M6.148 9.266a.65.65 0 0 1-.402-.172.29.29 0 0 1 .246-.035.28.28 0 0 1 .176.175" style="stroke:none;fill-rule:nonzero;fill:#de7c8a;fill-opacity:1"/><path d="M7.328 7.086c.203-.77-.328-1.566-1.023-1.75-.696-.184-1.543.23-1.746 1.004-.2.77.316 1.601 1.015 1.789.696.184 1.555-.274 1.754-1.043m0 0" style="stroke:none;fill-rule:nonzero;fill:#da455a;fill-opacity:1"/><path d="M4.96 6.105a.4.4 0 0 1 .099-.117c.039-.027.093-.047.144-.031s.086.059.106.106c.035.09 0 .203-.09.238-.051.02-.11.015-.16.039-.043.023-.067.07-.086.113-.04.094-.118.211-.164.063-.043-.118.097-.317.152-.41M6.098 6.02c-.012-.102-.125-.165-.23-.176-.196-.02-.583.222-.337.414.164.129.594-.016.567-.238M6.094 5.508c.05.004.105.015.144.047.04.03.059.086.032.129-.032.05-.11.046-.172.043-.118-.012-.512.12-.555-.032-.05-.172.441-.199.55-.187M5.434 6.816c.023-.03.062-.05.097-.043.055.016.078.075.098.125.047.106.344.614.008.528-.227-.055-.328-.45-.203-.61M6.836 6.988c0-.074-.02-.156-.086-.199-.055-.039-.137-.043-.203-.023a.39.39 0 0 0-.27.28c-.015.075-.023.126-.074.18-.031.032-.125.044-.133.094-.02.09.133.149.207.157.266.023.547-.243.559-.489M6.855 6.266a.6.6 0 0 0-.14-.227.4.4 0 0 0-.246-.113.24.24 0 0 0-.223.129.18.18 0 0 0 .074.23c.04.02.082.027.117.043.079.031.13.098.192.152.203.168.293-.035.226-.214M7.02 6.938a1.4 1.4 0 0 1 .035-.407c.004-.02.015-.043.035-.047.023 0 .035.028.043.051.023.09.047.18.039.27-.012.09-.055.18-.14.222-.009-.02-.012-.043-.02-.058M6.758 7.484a.55.55 0 0 1 .25-.304.25.25 0 0 1-.028.222.27.27 0 0 1-.199.11M6.414 6.602c.05.007.106.02.156.027-.008-.094-.117-.168-.21-.149v.075M5.207 5.816c-.035-.046.012-.117.066-.117.059 0 .106.067.086.121-.02.051-.093.07-.148.043M5.73 6.527a.2.2 0 0 1 .09.047c.086.067.367.399.106.34-.13-.031-.43-.426-.196-.387M6.04 6.637c-.028-.051-.06-.098-.075-.153-.012-.054 0-.117.047-.144.054-.035.129-.008.172.043a.4.4 0 0 1 .066.172c.016.074.082.37-.035.402-.125.031-.145-.258-.176-.32m0 0" style="stroke:none;fill-rule:nonzero;fill:#de7c8a;fill-opacity:1"/><path d="M10.984 8.184c.207-.813-.332-1.649-1.03-1.844-.704-.195-1.563.242-1.77 1.055-.204.812.32 1.69 1.023 1.886.707.196 1.574-.285 1.777-1.097m0 0" style="stroke:none;fill-rule:nonzero;fill:#da455a;fill-opacity:1"/><path d="M8.594 7.148a.4.4 0 0 1 .094-.12.16.16 0 0 1 .148-.036c.05.016.086.063.105.113.036.094 0 .215-.09.25-.05.024-.113.016-.16.043-.046.024-.07.075-.09.122-.039.093-.117.218-.164.066-.042-.125.098-.336.157-.438M9.738 7.059c-.011-.106-.125-.176-.23-.184-.2-.02-.59.234-.34.434.164.136.602-.012.57-.25M9.625 9.066c.059-.023.117-.07.113-.132-.004-.051-.05-.094-.101-.11-.051-.015-.106-.011-.157-.011-.18.003-.32-.063-.48-.133-.121-.055-.227-.098-.191.066.058.305.582.418.816.32M9.07 7.898a.09.09 0 0 1 .098-.039c.055.012.078.075.098.13.046.109.347.648.007.558-.226-.063-.332-.477-.203-.649M10.484 8.082c.004-.078-.02-.164-.086-.21-.058-.044-.136-.044-.203-.024a.39.39 0 0 0-.273.297.37.37 0 0 1-.078.187c-.031.035-.121.047-.133.098-.016.097.137.16.21.168.27.023.556-.254.563-.516M10.508 7.32a.7.7 0 0 0-.145-.242.36.36 0 0 0-.246-.113.24.24 0 0 0-.226.133c-.036.082-.004.199.074.242.039.023.082.027.12.047.075.031.126.101.192.16.203.176.297-.04.23-.227M10.148 6.813a.6.6 0 0 1 .344.238c.024.031.055.07.09.066.031-.008.047-.039.047-.07a.2.2 0 0 0-.04-.082 1.1 1.1 0 0 0-.32-.305c-.054-.035-.128-.058-.175-.02-.028.028-.028.075-.016.11q.025.051.067.098M9.68 7.707c-.028-.05-.059-.098-.075-.156-.011-.055 0-.125.047-.153.051-.035.133-.007.172.043.043.051.059.122.07.184.016.078.083.39-.039.422-.125.035-.144-.27-.175-.34m0 0" style="stroke:none;fill-rule:nonzero;fill:#de7c8a;fill-opacity:1"/><path d="M12.707 11.77c.184-.723-.293-1.473-.922-1.645-.625-.172-1.39.219-1.57.941-.184.727.285 1.508.91 1.68s1.398-.254 1.582-.976m0 0" style="stroke:none;fill-rule:nonzero;fill:#da455a;fill-opacity:1"/><path d="M10.578 10.848c.024-.04.047-.082.082-.11.04-.031.086-.047.133-.031a.18.18 0 0 1 .094.098c.031.086 0 .191-.078.226-.047.02-.102.012-.145.035a.2.2 0 0 0-.078.11c-.04.086-.106.195-.149.058-.035-.113.086-.296.141-.386M10.594 12.004c.07.059.191.062.238-.016.027-.047.023-.105.012-.164l-.035-.23a.3.3 0 0 0-.036-.121c-.093-.137-.27-.063-.293.066-.027.133.008.371.114.465M11.598 10.766c-.012-.094-.114-.157-.207-.164-.176-.02-.524.207-.305.386.148.121.539-.011.512-.222M11.594 10.285c.047.008.094.016.129.043.035.031.054.086.03.125-.03.047-.1.043-.16.035-.1-.008-.456.117-.495-.027-.043-.16.398-.184.496-.176M11.496 12.555c.05-.024.102-.063.102-.121-.004-.047-.047-.082-.094-.098-.043-.012-.094-.008-.14-.008-.16 0-.282-.058-.427-.121-.105-.047-.203-.086-.171.063.058.27.523.37.73.285M11 11.516a.084.084 0 0 1 .09-.04c.05.012.07.07.09.114.039.101.304.578.004.496-.204-.05-.293-.422-.184-.57M12.262 11.68c.004-.07-.02-.149-.078-.192-.051-.039-.121-.039-.184-.02a.36.36 0 0 0-.242.266c-.016.063-.024.114-.067.164-.027.032-.113.043-.117.09-.015.086.117.14.184.145.242.023.496-.223.504-.453M12.281 11a.6.6 0 0 0-.129-.215.34.34 0 0 0-.218-.105c-.082 0-.168.043-.2.12-.035.075-.007.177.067.216.031.02.07.027.105.039.067.03.114.093.172.144.18.16.262-.031.203-.199M12.426 11.629a1.6 1.6 0 0 1 .031-.383c.004-.02.016-.039.031-.043.024 0 .035.027.04.047a.7.7 0 0 1 .034.254c-.007.086-.046.172-.124.21a.3.3 0 0 1-.016-.058M11.96 10.547c.122.031.235.11.306.21.023.032.05.067.082.06.027-.005.043-.032.039-.06 0-.027-.016-.05-.032-.073a1 1 0 0 0-.289-.274c-.046-.027-.113-.05-.152-.015a.1.1 0 0 0-.016.097c.012.031.036.059.059.086M11.762 12.488q.176-.053.324-.164c.031-.023.066-.07.039-.101-.016-.016-.04-.016-.062-.016a.42.42 0 0 0-.336.227M10.934 10.578c-.02.05-.086.07-.133.043M10.797 10.578c-.031-.047.008-.113.062-.113" style="stroke:none;fill-rule:nonzero;fill:#de7c8a;fill-opacity:1"/><path d="M7.957 4.574c-.012.364.316.668.738.684.418.012.77-.27.782-.63.011-.362-.317-.667-.739-.679-.418-.015-.77.266-.781.625m.402.016c.008-.168.172-.3.368-.293.199.004.351.148.347.316-.008.172-.172.301-.37.297-.196-.008-.349-.152-.345-.32m0 0" style="stroke:none;fill-rule:nonzero;fill:url(#g)"/><path d="M7.89 10.684c.106.332.508.609.837.507s.457-.546.355-.879a.63.63 0 0 0-.785-.417.63.63 0 0 0-.406.789m.317-.098a.3.3 0 0 1 .191-.371.3.3 0 0 1 .368.195.3.3 0 0 1-.192.371.3.3 0 0 1-.367-.195m0 0" style="stroke:none;fill-rule:nonzero;fill:url(#h)"/></svg>