<svg xmlns="http://www.w3.org/2000/svg" width="16pt" height="16pt" viewBox="0 0 16 16"><defs><clipPath id="b"><path d="M4 10h8v4H4Zm0 0"/></clipPath><clipPath id="c"><path d="M8 10.605a17.7 17.7 0 0 1-3.125-.261.32.32 0 0 0-.375.375c.297 1.453 1.734 2.652 3.496 2.652 1.934 0 3.234-1.238 3.504-2.66a.32.32 0 0 0-.375-.367A17.7 17.7 0 0 1 8 10.605m0 0"/></clipPath><linearGradient id="a" x1="63.997" x2="63.997" y1="14.837" y2="122.33" gradientTransform="translate(.234 -.31)scale(.12134)" gradientUnits="userSpaceOnUse"><stop offset=".003" style="stop-color:#cca093;stop-opacity:1"/><stop offset=".842" style="stop-color:#8a533f;stop-opacity:1"/></linearGradient></defs><path d="M7.992 14.535c-4.035 0-5.18-.332-6.015-.574-.09-.027-.176-.055-.266-.078-.766-.211-.824-1.211-.68-1.79.16-.636.703-1.136 1.45-1.335a.44.44 0 0 0 .3-.262.45.45 0 0 0-.031-.398 1.35 1.35 0 0 1-.152-1.07c.101-.352.363-.68.718-.895.141-.086.278-.125.465-.168.008 0 .02-.004.035-.004.141-.024.352-.059.438-.23a.29.29 0 0 0-.008-.278 1.5 1.5 0 0 1-.039-1.297c.2-.484.61-.86 1.098-1.008l.093-.015c.141-.016.317-.04.391-.195a.28.28 0 0 0-.012-.27c-.515-.898.008-1.293.47-1.645.218-.164.39-.293.421-.488.07-.402.023-.707-.16-1.047.742.223 1.3.43 1.902.79C9.621 3 10.13 3.651 9.957 4.27q-.005.021-.016.05c-.02.07-.046.157-.046.254 0 .39.492.547.851.66.09.028.184.059.219.079.305.152.558.398.715.695.148.27.215.59.195.902a2 2 0 0 1-.05.172c-.075.215-.153.453-.055.652q.076.149.242.204c.71.234 1.097.55 1.258 1.023.101.3.093.637-.02.934a1 1 0 0 1-.035.074c-.07.156-.176.39-.07.597a.41.41 0 0 0 .308.215c.774.16 1.328.637 1.52 1.309l.023.098c.098.527.02 1.414-.598 1.68-.757.323-3.257.667-6.406.667m0 0" style="stroke:none;fill-rule:nonzero;fill:url(#a)"/><path d="M6.91 1.871c.504.168.93.352 1.375.613 1.09.653 1.574 1.23 1.438 1.723l-.012.04c-.024.081-.059.194-.059.331 0 .567.618.758 1.024.887.062.023.156.05.18.062.261.133.476.344.613.594.12.227.18.496.164.758a1 1 0 0 1-.04.129c-.077.23-.183.543-.038.836.078.156.21.27.379.324.632.21.972.48 1.105.875.082.246.078.523-.016.766-.007.015-.015.039-.027.062-.086.184-.226.496-.07.805.094.18.261.3.476.347.403.079 1.11.336 1.336 1.137q.011.029.016.074c.082.434.031 1.204-.453 1.41-.586.25-2.817.649-6.313.649-3.996 0-5.12-.328-5.945-.563-.094-.027-.18-.054-.27-.078-.625-.172-.609-1.082-.507-1.496.136-.547.617-.98 1.277-1.16a.68.68 0 0 0 .46-.406.68.68 0 0 0-.046-.613 1.12 1.12 0 0 1-.129-.88c.086-.292.309-.566.613-.753.114-.067.223-.102.387-.137q.011.001.027-.004c.165-.027.477-.078.618-.36a.54.54 0 0 0-.012-.495 1.27 1.27 0 0 1-.031-1.094c.172-.41.523-.734.937-.867a.4.4 0 0 0 .063-.008c.168-.02.445-.059.578-.328a.53.53 0 0 0-.02-.5c-.386-.68-.097-.946.407-1.328.238-.184.464-.352.511-.641.047-.266.047-.492.004-.71m-.488-.65a.202.202 0 0 0-.168.31c.191.32.242.581.176.964-.063.356-1.72.797-.864 2.293.063.106-.218.094-.332.129-1.086.332-1.75 1.605-1.203 2.648.067.122-.226.149-.3.164-.204.043-.368.09-.54.196-.406.246-.707.62-.828 1.035-.12.422-.05.879.18 1.262.07.117.008.27-.121.304-.762.203-1.43.727-1.625 1.512-.172.684-.074 1.828.848 2.082.925.254 1.855.656 6.347.656 3.297 0 5.742-.359 6.5-.687.758-.324.856-1.34.742-1.945-.007-.043-.02-.082-.027-.118-.23-.816-.898-1.316-1.707-1.48-.3-.063-.086-.399-.023-.563.136-.351.144-.746.023-1.097-.219-.653-.793-.973-1.41-1.176-.281-.094.015-.582.027-.785a1.9 1.9 0 0 0-.222-1.035 1.9 1.9 0 0 0-.817-.793c-.207-.106-.937-.227-.937-.52 0-.082.03-.16.05-.242.282-1.008-.933-1.832-1.656-2.266-.668-.398-1.281-.61-2.05-.836-.02-.011-.044-.011-.063-.011m0 0" style="stroke:none;fill-rule:nonzero;fill:#703d2b;fill-opacity:1"/><path d="M11.46 8.121c0 .832-.67 1.504-1.503 1.504a1.5 1.5 0 0 1-1.504-1.504c0-.832.672-1.504 1.504-1.504s1.504.672 1.504 1.504m0 0" style="stroke:none;fill-rule:nonzero;fill:#fff;fill-opacity:1"/><path d="M10.652 8.121a.7.7 0 0 0-.695-.707.7.7 0 0 0-.695.707c0 .39.312.707.695.707a.7.7 0 0 0 .695-.707m0 0" style="stroke:none;fill-rule:nonzero;fill:#242424;fill-opacity:1"/><path d="M7.547 8.121c0 .832-.672 1.504-1.504 1.504a1.5 1.5 0 0 1-1.504-1.504c0-.832.672-1.504 1.504-1.504s1.504.672 1.504 1.504m0 0" style="stroke:none;fill-rule:nonzero;fill:#fff;fill-opacity:1"/><path d="M6.738 8.121a.7.7 0 0 0-.695-.707.7.7 0 0 0-.695.707c0 .39.312.707.695.707a.7.7 0 0 0 .695-.707m0 0" style="stroke:none;fill-rule:nonzero;fill:#242424;fill-opacity:1"/><g clip-path="url(#b)"><g clip-path="url(#c)"><path d="M8 10.605a17.7 17.7 0 0 1-3.125-.261.32.32 0 0 0-.375.375c.297 1.453 1.734 2.652 3.496 2.652 1.934 0 3.234-1.238 3.504-2.66a.32.32 0 0 0-.375-.367A17.7 17.7 0 0 1 8 10.605m0 0" style="stroke:none;fill-rule:nonzero;fill:#000;fill-opacity:1"/></g></g></svg>