<svg xmlns="http://www.w3.org/2000/svg" xmlns:xlink="http://www.w3.org/1999/xlink" width="16pt" height="16pt" viewBox="0 0 16 16"><defs><clipPath id="b"><path d="M0 0h16v16H0z"/></clipPath><clipPath id="c"><path d="M0 0h16v16H0z"/></clipPath><clipPath id="d"><path d="M0 0h16v16H0z"/></clipPath><clipPath id="ad"><path d="M4 6h2v10H4Zm0 0"/></clipPath><clipPath id="ae"><path d="M11.89 6.75H4.06s.828 7.684.828 7.719c0 .488 1.351 1.058 3.02 1.058 1.558 0 2.84-.527 3-.902h.019Zm0 0"/></clipPath><clipPath id="af"><path d="M5 6h2v10H5Zm0 0"/></clipPath><clipPath id="ag"><path d="M11.89 6.75H4.06s.828 7.684.828 7.719c0 .488 1.351 1.058 3.02 1.058 1.558 0 2.84-.527 3-.902h.019Zm0 0"/></clipPath><clipPath id="ah"><path d="M7 6h2v10H7Zm0 0"/></clipPath><clipPath id="ai"><path d="M11.89 6.75H4.06s.828 7.684.828 7.719c0 .488 1.351 1.058 3.02 1.058 1.558 0 2.84-.527 3-.902h.019Zm0 0"/></clipPath><clipPath id="aj"><path d="M8 6h3v10H8Zm0 0"/></clipPath><clipPath id="ak"><path d="M11.89 6.75H4.06s.828 7.684.828 7.719c0 .488 1.351 1.058 3.02 1.058 1.558 0 2.84-.527 3-.902h.019Zm0 0"/></clipPath><clipPath id="al"><path d="M10 6h2v10h-2Zm0 0"/></clipPath><clipPath id="am"><path d="M11.89 6.75H4.06s.828 7.684.828 7.719c0 .488 1.351 1.058 3.02 1.058 1.558 0 2.84-.527 3-.902h.019Zm0 0"/></clipPath><clipPath id="e"><path d="M0 0h16v16H0z"/></clipPath><clipPath id="f"><path d="M0 0h16v16H0z"/></clipPath><clipPath id="h"><path d="M0 0h16v16H0z"/></clipPath><clipPath id="i"><path d="M0 0h16v16H0z"/></clipPath><clipPath id="j"><path d="M0 0h16v16H0z"/></clipPath><clipPath id="k"><path d="M0 0h16v16H0z"/></clipPath><clipPath id="l"><path d="M0 0h16v16H0z"/></clipPath><clipPath id="m"><path d="M0 0h16v16H0z"/></clipPath><clipPath id="n"><path d="M0 0h16v16H0z"/></clipPath><clipPath id="o"><path d="M0 0h16v16H0z"/></clipPath><clipPath id="p"><path d="M0 0h16v16H0z"/></clipPath><clipPath id="q"><path d="M0 0h16v16H0z"/></clipPath><clipPath id="r"><path d="M0 0h16v16H0z"/></clipPath><clipPath id="s"><path d="M0 0h16v16H0z"/></clipPath><clipPath id="t"><path d="M0 0h16v16H0z"/></clipPath><clipPath id="u"><path d="M0 0h16v16H0z"/></clipPath><clipPath id="v"><path d="M0 0h16v16H0z"/></clipPath><clipPath id="w"><path d="M0 0h16v16H0z"/></clipPath><clipPath id="x"><path d="M0 0h16v16H0z"/></clipPath><clipPath id="y"><path d="M0 0h16v16H0z"/></clipPath><clipPath id="z"><path d="M0 0h16v16H0z"/></clipPath><clipPath id="A"><path d="M0 0h16v16H0z"/></clipPath><clipPath id="B"><path d="M0 0h16v16H0z"/></clipPath><clipPath id="C"><path d="M0 0h16v16H0z"/></clipPath><clipPath id="D"><path d="M0 0h16v16H0z"/></clipPath><clipPath id="E"><path d="M0 0h16v16H0z"/></clipPath><clipPath id="F"><path d="M0 0h16v16H0z"/></clipPath><clipPath id="G"><path d="M0 0h16v16H0z"/></clipPath><clipPath id="H"><path d="M0 0h16v16H0z"/></clipPath><clipPath id="I"><path d="M0 0h16v16H0z"/></clipPath><clipPath id="J"><path d="M0 0h16v16H0z"/></clipPath><clipPath id="K"><path d="M0 0h16v16H0z"/></clipPath><clipPath id="L"><path d="M0 0h16v16H0z"/></clipPath><clipPath id="M"><path d="M0 0h16v16H0z"/></clipPath><clipPath id="N"><path d="M0 0h16v16H0z"/></clipPath><clipPath id="O"><path d="M0 0h16v16H0z"/></clipPath><clipPath id="P"><path d="M0 0h16v16H0z"/></clipPath><clipPath id="Q"><path d="M0 0h16v16H0z"/></clipPath><clipPath id="R"><path d="M0 0h16v16H0z"/></clipPath><clipPath id="S"><path d="M0 0h16v16H0z"/></clipPath><clipPath id="T"><path d="M0 0h16v16H0z"/></clipPath><clipPath id="U"><path d="M0 0h16v16H0z"/></clipPath><clipPath id="V"><path d="M0 0h16v16H0z"/></clipPath><clipPath id="W"><path d="M0 0h16v16H0z"/></clipPath><mask id="X"><g filter="url(#a)"><path d="M0 0h16v16H0z" style="fill:#000;fill-opacity:.2;stroke:none"/></g></mask><mask id="Z"><g filter="url(#a)"><path d="M0 0h16v16H0z" style="fill:#000;fill-opacity:.2;stroke:none"/></g></mask><mask id="ab"><g filter="url(#a)"><path d="M0 0h16v16H0z" style="fill:#000;fill-opacity:.2;stroke:none"/></g></mask><mask id="an"><g filter="url(#a)"><path d="M0 0h16v16H0z" style="fill:#000;fill-opacity:.2;stroke:none"/></g></mask><mask id="ap"><g filter="url(#a)"><path d="M0 0h16v16H0z" style="fill:#000;fill-opacity:.501961;stroke:none"/></g></mask><mask id="as"><g filter="url(#a)"><path d="M0 0h16v16H0z" style="fill:#000;fill-opacity:.2;stroke:none"/></g></mask><mask id="au"><g filter="url(#a)"><path d="M0 0h16v16H0z" style="fill:#000;fill-opacity:.2;stroke:none"/></g></mask><mask id="aw"><g filter="url(#a)"><path d="M0 0h16v16H0z" style="fill:#000;fill-opacity:.2;stroke:none"/></g></mask><mask id="ay"><g filter="url(#a)"><path d="M0 0h16v16H0z" style="fill:#000;fill-opacity:.2;stroke:none"/></g></mask><mask id="aA"><g filter="url(#a)"><path d="M0 0h16v16H0z" style="fill:#000;fill-opacity:.2;stroke:none"/></g></mask><mask id="aC"><g filter="url(#a)"><path d="M0 0h16v16H0z" style="fill:#000;fill-opacity:.2;stroke:none"/></g></mask><mask id="aE"><g filter="url(#a)"><path d="M0 0h16v16H0z" style="fill:#000;fill-opacity:.2;stroke:none"/></g></mask><mask id="aG"><g filter="url(#a)"><path d="M0 0h16v16H0z" style="fill:#000;fill-opacity:.2;stroke:none"/></g></mask><mask id="aI"><g filter="url(#a)"><path d="M0 0h16v16H0z" style="fill:#000;fill-opacity:.2;stroke:none"/></g></mask><mask id="aK"><g filter="url(#a)"><path d="M0 0h16v16H0z" style="fill:#000;fill-opacity:.2;stroke:none"/></g></mask><mask id="aM"><g filter="url(#a)"><path d="M0 0h16v16H0z" style="fill:#000;fill-opacity:.2;stroke:none"/></g></mask><mask id="aO"><g filter="url(#a)"><path d="M0 0h16v16H0z" style="fill:#000;fill-opacity:.2;stroke:none"/></g></mask><mask id="aQ"><g filter="url(#a)"><path d="M0 0h16v16H0z" style="fill:#000;fill-opacity:.2;stroke:none"/></g></mask><mask id="aS"><g filter="url(#a)"><path d="M0 0h16v16H0z" style="fill:#000;fill-opacity:.2;stroke:none"/></g></mask><mask id="aU"><g filter="url(#a)"><path d="M0 0h16v16H0z" style="fill:#000;fill-opacity:.2;stroke:none"/></g></mask><mask id="aW"><g filter="url(#a)"><path d="M0 0h16v16H0z" style="fill:#000;fill-opacity:.2;stroke:none"/></g></mask><mask id="aY"><g filter="url(#a)"><path d="M0 0h16v16H0z" style="fill:#000;fill-opacity:.2;stroke:none"/></g></mask><mask id="ba"><g filter="url(#a)"><path d="M0 0h16v16H0z" style="fill:#000;fill-opacity:.2;stroke:none"/></g></mask><mask id="bc"><g filter="url(#a)"><path d="M0 0h16v16H0z" style="fill:#000;fill-opacity:.2;stroke:none"/></g></mask><mask id="be"><g filter="url(#a)"><path d="M0 0h16v16H0z" style="fill:#000;fill-opacity:.2;stroke:none"/></g></mask><mask id="bg"><g filter="url(#a)"><path d="M0 0h16v16H0z" style="fill:#000;fill-opacity:.2;stroke:none"/></g></mask><mask id="bi"><g filter="url(#a)"><path d="M0 0h16v16H0z" style="fill:#000;fill-opacity:.2;stroke:none"/></g></mask><mask id="bk"><g filter="url(#a)"><path d="M0 0h16v16H0z" style="fill:#000;fill-opacity:.2;stroke:none"/></g></mask><mask id="bm"><g filter="url(#a)"><path d="M0 0h16v16H0z" style="fill:#000;fill-opacity:.2;stroke:none"/></g></mask><mask id="bo"><g filter="url(#a)"><path d="M0 0h16v16H0z" style="fill:#000;fill-opacity:.2;stroke:none"/></g></mask><mask id="bq"><g filter="url(#a)"><path d="M0 0h16v16H0z" style="fill:#000;fill-opacity:.2;stroke:none"/></g></mask><mask id="bs"><g filter="url(#a)"><path d="M0 0h16v16H0z" style="fill:#000;fill-opacity:.2;stroke:none"/></g></mask><mask id="bu"><g filter="url(#a)"><path d="M0 0h16v16H0z" style="fill:#000;fill-opacity:.2;stroke:none"/></g></mask><mask id="bw"><g filter="url(#a)"><path d="M0 0h16v16H0z" style="fill:#000;fill-opacity:.2;stroke:none"/></g></mask><mask id="by"><g filter="url(#a)"><path d="M0 0h16v16H0z" style="fill:#000;fill-opacity:.2;stroke:none"/></g></mask><mask id="bA"><g filter="url(#a)"><path d="M0 0h16v16H0z" style="fill:#000;fill-opacity:.2;stroke:none"/></g></mask><mask id="bC"><g filter="url(#a)"><path d="M0 0h16v16H0z" style="fill:#000;fill-opacity:.2;stroke:none"/></g></mask><mask id="bE"><g filter="url(#a)"><path d="M0 0h16v16H0z" style="fill:#000;fill-opacity:.2;stroke:none"/></g></mask><mask id="bG"><g filter="url(#a)"><path d="M0 0h16v16H0z" style="fill:#000;fill-opacity:.2;stroke:none"/></g></mask><mask id="bI"><g filter="url(#a)"><path d="M0 0h16v16H0z" style="fill:#000;fill-opacity:.2;stroke:none"/></g></mask><mask id="bK"><g filter="url(#a)"><path d="M0 0h16v16H0z" style="fill:#000;fill-opacity:.2;stroke:none"/></g></mask><mask id="bM"><g filter="url(#a)"><path d="M0 0h16v16H0z" style="fill:#000;fill-opacity:.2;stroke:none"/></g></mask><mask id="bO"><g filter="url(#a)"><path d="M0 0h16v16H0z" style="fill:#000;fill-opacity:.2;stroke:none"/></g></mask><mask id="bQ"><g filter="url(#a)"><path d="M0 0h16v16H0z" style="fill:#000;fill-opacity:.2;stroke:none"/></g></mask><mask id="bS"><g filter="url(#a)"><path d="M0 0h16v16H0z" style="fill:#000;fill-opacity:.2;stroke:none"/></g></mask><mask id="bU"><g filter="url(#a)"><path d="M0 0h16v16H0z" style="fill:#000;fill-opacity:.2;stroke:none"/></g></mask><mask id="bW"><g filter="url(#a)"><path d="M0 0h16v16H0z" style="fill:#000;fill-opacity:.2;stroke:none"/></g></mask><g id="Y" clip-path="url(#b)"><path d="M55.531 10.5c-.343.563-.406 1.281-.343 1.938.093 1.062.593 2.124 1.53 2.593.938.438 2.313-.031 2.5-1.062.063.5.47.969.97 1.094.5.093 1.062-.157 1.343-.594-.093.625.219 1.281.75 1.625.532.343 1.25.343 1.782 0 1.312.468 2.718-.719 2.968-2.063.281-1.375-.312-2.719-1-3.937.563-.406.813-1.125.781-1.813-.03-.687-.343-1.344-.718-1.906-1.281-1.875-3.781-2.937-5.969-2.281-1.375.406-2.5 1.562-2.969 2.906-.218.656.032 1.531-.156 2.094-.25.625-1.062.687-1.469 1.406m0 0" style="fill:none;stroke-width:.7223;stroke-linecap:round;stroke-linejoin:round;stroke:#757575;stroke-opacity:1;stroke-miterlimit:10" transform="scale(.125)"/></g><g id="aa" clip-path="url(#c)"><path d="M53.75 12.063c-1.344.718-1.969 2.718-.969 3.874-.687.563-1 1.532-.718 2.376.28.812 1.062 1.437 1.937 1.468-.469.875.25 2.032 1.188 2.25.937.219 1.968-.312 2.562-1.093-.406 1.312.375 2.875 1.656 3.312 1.282.469 2.875-.25 3.375-1.531 1.094-.219 2.032-1 2.438-2 .437-1.032.344-2.25-.281-3.157.906-1.812.374-4.218-1.22-5.468-1.593-1.219-3.28-.906-5-.281-1.062.374-1.062.187-2.25-.063-.906-.219-1.874-.156-2.718.313m0 0" style="fill:none;stroke-width:.7223;stroke-linecap:round;stroke-linejoin:round;stroke:#757575;stroke-opacity:1;stroke-miterlimit:10" transform="scale(.125)"/></g><g id="ac" clip-path="url(#d)"><path d="M40.594 29.719c.5.437 1.187.625 1.843.656 1.063.094 2.188-.219 2.813-1.062.625-.875.375-2.313-.625-2.657a1.31 1.31 0 0 0 1.25-.75c.188-.5.031-1.093-.344-1.437a1.61 1.61 0 0 0 1.719-.438c.438-.468.563-1.187.313-1.75.656-1.218-.25-2.812-1.563-3.312-1.281-.469-2.719-.125-4.031.343-.313-.625-.969-1-1.657-1.093-.687-.063-1.374.125-2 .406-2.062.969-3.53 3.25-3.25 5.5.157 1.406 1.094 2.719 2.344 3.406.625.344 1.532.25 2.032.532.593.312.5 1.125 1.156 1.656m0 0" style="fill:none;stroke-width:.7223;stroke-linecap:round;stroke-linejoin:round;stroke:#757575;stroke-opacity:1;stroke-miterlimit:10" transform="scale(.125)"/></g><g id="ao" clip-path="url(#e)"><path d="m11.488 7.125-.902 7.3a.1.1 0 0 0-.008.024c-.105.203-1.137.676-2.668.676-1.543 0-2.55-.484-2.656-.703-.012-.11-.094-.883-.79-7.297Zm.426-.371H4.047s.832 7.652.832 7.691c0 .489 1.36 1.055 3.031 1.055 1.567 0 2.856-.484 3.016-.918h.015Zm0 0" style="stroke:none;fill-rule:nonzero;fill:#424242;fill-opacity:1"/></g><g id="aq" clip-path="url(#f)"><path d="M11.676 7.25H4.25s.79 7.262.79 7.297c0 .46 1.28.969 2.858.969 1.477 0 2.692-.516 2.844-.891h.02Zm0 0" style="stroke:none;fill-rule:nonzero;fill:url(#g)"/></g><g id="at" clip-path="url(#h)"><path d="M62.781 24.406c1.219-1.218 3.438-1.25 4.719-.062 1.281 1.156 1.438 3.375.344 4.718 1.406 0 2.781.938 3.25 2.282.437 1.343-.156 3-1.406 3.656-1.25.688-3 .281-3.75-.906.656.875.062 2.218-.907 2.687s-2.125.344-3.156.063c-.687-.188-1.375-.438-1.812-.969s-.47-1.469.124-1.844c-.812.407-2-.156-2.187-1.062-.187-.907.625-1.875 1.563-1.844-2.876.938-2.75-3.062-1.72-4.562.563-.813 1.25-2.25 2.094-2.75.594-.313 3.188.28 2.844.593m0 0" style="fill:none;stroke-width:.7223;stroke-linecap:round;stroke-linejoin:round;stroke:#757575;stroke-opacity:1;stroke-miterlimit:10" transform="scale(.125)"/></g><g id="av" clip-path="url(#i)"><path d="M6 3h-.004c.117 0 .234.094.27.219a.43.43 0 0 1-.082.375.09.09 0 0 0 .003.113q.03.029.067.027a.1.1 0 0 0 .05-.015.1.1 0 0 1 .032-.008c.047 0 .098.031.117.078.043.078.027.184.012.27a.4.4 0 0 1-.063.16c-.02.023-.05.043-.078.043q-.007.001-.015-.004c-.024-.008-.051-.035-.079-.07q-.018-.018-.03-.036c-.028-.027-.102-.097-.2-.097a.2.2 0 0 0-.09.023c-.023.016-.043.04-.043.07a.09.09 0 0 0 .028.075c.117.109.265.273.222.418-.031.097-.14.144-.234.144a.3.3 0 0 1-.098-.02c-.172-.062-.258-.245-.297-.347a.1.1 0 0 0-.066-.059h-.02a.1.1 0 0 0-.066.032.24.24 0 0 1-.176.066c-.105 0-.2-.05-.238-.129a.24.24 0 0 1 .012-.23.24.24 0 0 1 .183-.141c.051-.008.086-.047.082-.098-.008-.082.024-.113.082-.168a.45.45 0 0 0 .125-.16c.02-.05.008-.113-.004-.183-.011-.051-.03-.153-.007-.164q.03-.007.058-.008c.059 0 .113.027.145.066.015.024.043.04.074.04.008 0 .016-.005.023-.005a.09.09 0 0 0 .067-.078c.004-.11.113-.199.23-.199m0-.102c-.16 0-.312.133-.32.29a.27.27 0 0 0-.305-.09c-.148.054-.012.32-.043.394-.058.149-.226.16-.215.371-.218.028-.367.305-.265.504.058.117.187.18.32.18a.33.33 0 0 0 .242-.098c.063.172.176.336.348.403a.4.4 0 0 0 .133.023c.14 0 .281-.074.32-.207.059-.191-.102-.375-.246-.512a.1.1 0 0 1 .047-.011c.047 0 .094.035.129.07.047.05.086.11.148.129.016.004.027.008.043.008a.2.2 0 0 0 .149-.079.43.43 0 0 0 .078-.195c.023-.113.035-.23-.016-.332a.25.25 0 0 0-.2-.125.16.16 0 0 0-.081.024.52.52 0 0 0 .097-.457.405.405 0 0 0-.351-.29zm0 0" style="stroke:none;fill-rule:nonzero;fill:#757575;fill-opacity:1"/></g><g id="ax" clip-path="url(#j)"><path d="M66.219 53.063c-1.906.25-3.188 2.656-2.313 4.374.875 1.72 3.594 2.126 4.907.72.562 1.5 1.53 2.937 3.03 3.5 1.5.562 3.47-.094 3.938-1.626.5-1.656-.906-3.25-2.156-4.406.5-.281 1.125.063 1.531.5.406.406.75.938 1.313 1.125.594.188 1.25-.125 1.656-.625.375-.5.563-1.094.688-1.719.187-.968.28-2-.157-2.875s-1.625-1.406-2.437-.906c.844-1.125 1.25-2.625.844-3.969s-1.657-2.468-3.063-2.5c-1.406-.062-2.812 1.094-2.844 2.5-.594-.781-1.75-1.125-2.687-.781-1.281.5-.094 2.813-.344 3.469-.531 1.25-2 1.406-1.906 3.218m0 0" style="fill:none;stroke-width:.7223;stroke-linecap:round;stroke-linejoin:round;stroke:#757575;stroke-opacity:1;stroke-miterlimit:10" transform="scale(.125)"/></g><g id="az" clip-path="url(#k)"><path d="M44.719 30.75c.125 1.063.906 2.031 1.937 2.344-.968.343-1.562 1.468-1.312 2.468.218 1 1.281 1.72 2.281 1.594.094 1.688 1.313 3.25 2.938 3.75 1.593.469 3.5-.156 4.468-1.531 1.438.75 3.438.281 4.375-1.062.969-1.344.75-3.376-.468-4.5.843-.5 1.218-1.657.843-2.563s-1.468-1.437-2.406-1.187c.281-1.25-.312-2.688-1.437-3.375-1.094-.688-2.657-.563-3.657.28-.531-1.124-1.875-1.843-3.093-1.624-1.25.218-2.25 1.281-2.407 2.531-1.343-.219-2.187 1.75-2.062 2.875m0 0" style="fill:none;stroke-width:.8638;stroke-linecap:round;stroke-linejoin:round;stroke:#757575;stroke-opacity:1;stroke-miterlimit:10" transform="scale(.125)"/></g><g id="aB" clip-path="url(#l)"><path d="M27.938 44.281c.187 1 .843 1.907 1.718 2.344-1.406.75-2.093 2.625-1.531 4.125s2.344 2.406 3.875 2a2.6 2.6 0 0 0 1.969 1.438 2.72 2.72 0 0 0 2.281-.876c1 .594 2.438.313 3.156-.593.719-.907.688-2.375-.125-3.25.719-.219 1.25-.938 1.282-1.719.03-.75-.5-1.5-1.188-1.75-.719-.25-1.5-.062-2.219-.094-.75-.031-1.593-.531-1.562-1.281.062-1.156 2.125-1.531 1.937-2.687-.125-.594-.875-.876-1.5-.813s-1.218.344-1.843.25c-.657-.062-1.22-.5-1.844-.75-2.313-.937-4.813 1.219-4.407 3.656m0 0" style="fill:none;stroke-width:.7223;stroke-linecap:round;stroke-linejoin:round;stroke:#757575;stroke-opacity:1;stroke-miterlimit:10" transform="scale(.125)"/></g><g id="aD" clip-path="url(#m)"><path d="M27.625 38.469a3.34 3.34 0 0 0-.031 2.937c-1.563-.218-3.219.875-3.657 2.438-.437 1.531.438 3.312 1.938 3.906-.156.844.156 1.719.75 2.313.625.562 1.531.812 2.344.624.468 1.094 1.75 1.72 2.906 1.407 1.125-.313 1.938-1.532 1.813-2.719.718.25 1.593 0 2.062-.625.469-.594.5-1.5.063-2.125-.407-.625-1.157-.906-1.72-1.375-.593-.469-1-1.375-.5-1.937.72-.907 2.626 0 3.126-1.032.281-.562-.157-1.218-.719-1.562-.531-.313-1.187-.438-1.625-.875-.5-.469-.687-1.157-1.031-1.719-1.344-2.094-4.625-1.844-5.719.344m0 0" style="fill:none;stroke-width:.7223;stroke-linecap:round;stroke-linejoin:round;stroke:#757575;stroke-opacity:1;stroke-miterlimit:10" transform="scale(.125)"/></g><g id="aF" clip-path="url(#n)"><path d="M76.719 38.75a4.64 4.64 0 0 0 2.344 3.188c-1.907 1-2.844 3.53-2.063 5.53.781 2.032 3.188 3.25 5.25 2.688.531 1.032 1.563 1.782 2.719 1.938 1.125.125 2.344-.313 3.094-1.188 1.343.813 3.312.469 4.28-.781 1-1.25.907-3.219-.187-4.375 1-.312 1.719-1.281 1.75-2.312.031-1.032-.656-2.032-1.625-2.376-.937-.343-2-.062-3.031-.124-1-.063-2.156-.688-2.125-1.688.094-1.562 2.906-2.062 2.656-3.625-.156-.844-1.187-1.187-2.031-1.094-.875.094-1.687.438-2.531.344-.906-.094-1.656-.719-2.531-1.062-3.094-1.22-6.532 1.656-5.97 4.937m0 0" style="fill:none;stroke-width:.7223;stroke-linecap:round;stroke-linejoin:round;stroke:#757575;stroke-opacity:1;stroke-miterlimit:10" transform="scale(.125)"/></g><g id="aH" clip-path="url(#o)"><path d="M29.469 39.656c.156.969.843 1.875 1.718 2.344-1.406.719-2.093 2.594-1.53 4.063S32 48.437 33.53 48.03c.375.75 1.125 1.313 1.969 1.407a2.72 2.72 0 0 0 2.281-.876c1 .594 2.438.344 3.157-.562s.687-2.375-.126-3.219c.72-.218 1.25-.937 1.282-1.687.031-.75-.5-1.5-1.219-1.75-.687-.25-1.469-.063-2.187-.094-.75-.031-1.594-.5-1.563-1.25.063-1.156 2.125-1.5 1.938-2.656-.126-.625-.876-.875-1.5-.813-.626.094-1.22.344-1.844.282-.657-.094-1.219-.532-1.844-.782-2.312-.906-4.812 1.219-4.406 3.625m0 0" style="fill:none;stroke-width:.7223;stroke-linecap:round;stroke-linejoin:round;stroke:#757575;stroke-opacity:1;stroke-miterlimit:10" transform="scale(.125)"/></g><g id="aJ" clip-path="url(#p)"><path d="M38.719 25.125a3.27 3.27 0 0 0-1.313 2.594c-1.281-.907-3.25-.688-4.281.5-1.062 1.156-1.062 3.156 0 4.343-.5.657-.656 1.594-.375 2.376.281.812 1 1.437 1.813 1.656-.063 1.156.812 2.281 1.968 2.531 1.125.25 2.375-.469 2.782-1.562.53.53 1.406.687 2.093.374.688-.343 1.125-1.124 1-1.874-.093-.72-.593-1.313-.906-2-.312-.688-.281-1.657.375-1.97 1.063-.468 2.344 1.22 3.25.532.5-.375.375-1.187.031-1.687-.312-.532-.843-.938-1.062-1.532-.219-.625-.094-1.343-.157-2-.25-2.468-3.28-3.75-5.218-2.281m0 0" style="fill:none;stroke-width:.7223;stroke-linecap:round;stroke-linejoin:round;stroke:#757575;stroke-opacity:1;stroke-miterlimit:10" transform="scale(.125)"/></g><g id="aL" clip-path="url(#q)"><path d="M33.438 25.125a3.33 3.33 0 0 0-1.282 2.594c-1.281-.907-3.281-.688-4.312.5-1.063 1.156-1.063 3.156 0 4.343-.5.657-.625 1.594-.344 2.376a2.63 2.63 0 0 0 1.781 1.656c-.062 1.156.813 2.281 1.969 2.531s2.406-.469 2.813-1.562c.5.53 1.406.687 2.062.374.688-.343 1.125-1.124 1.031-1.874-.093-.72-.625-1.313-.937-2s-.282-1.657.406-1.97c1.031-.468 2.313 1.22 3.25.532.5-.375.375-1.187.031-1.687-.343-.532-.843-.938-1.062-1.532-.25-.625-.094-1.343-.188-2-.25-2.468-3.281-3.75-5.218-2.281m0 0" style="fill:none;stroke-width:.7223;stroke-linecap:round;stroke-linejoin:round;stroke:#757575;stroke-opacity:1;stroke-miterlimit:10" transform="scale(.125)"/></g><g id="aN" clip-path="url(#r)"><path d="M39.156 44.063c-.656.593-1 1.53-.875 2.437-1.25-.687-2.968-.281-3.812.875-.813 1.125-.594 2.906.437 3.844-.343.656-.375 1.5-.062 2.156.343.688 1.031 1.188 1.781 1.281.031 1.032.938 1.969 2 2.063 1.031.093 2.063-.657 2.313-1.688.53.438 1.312.5 1.906.125.562-.343.843-1.093.687-1.75-.156-.656-.687-1.125-1.031-1.687-.344-.594-.406-1.469.156-1.782.907-.53 2.219.844 2.938.126.406-.376.218-1.063-.125-1.5-.344-.438-.844-.75-1.094-1.25-.281-.532-.25-1.188-.344-1.75-.468-2.188-3.281-3-4.875-1.5m0 0" style="fill:none;stroke-width:.7223;stroke-linecap:round;stroke-linejoin:round;stroke:#757575;stroke-opacity:1;stroke-miterlimit:10" transform="scale(.125)"/></g><g id="aP" clip-path="url(#s)"><path d="M63.156 46.813c-.656.593-1 1.53-.875 2.437-1.25-.687-2.968-.281-3.812.875-.813 1.125-.594 2.906.437 3.844-.343.656-.375 1.5-.062 2.156.343.688 1.031 1.188 1.781 1.281.031 1.032.938 1.969 2 2.063 1.031.093 2.063-.657 2.313-1.688.53.438 1.312.5 1.906.125.562-.343.844-1.093.687-1.75-.156-.656-.687-1.125-1.031-1.687-.344-.594-.406-1.469.156-1.782.906-.53 2.219.844 2.938.126.406-.376.219-1.063-.125-1.5s-.844-.75-1.094-1.25c-.281-.532-.25-1.188-.344-1.75-.469-2.188-3.281-3-4.875-1.5m0 0" style="fill:none;stroke-width:.7223;stroke-linecap:round;stroke-linejoin:round;stroke:#757575;stroke-opacity:1;stroke-miterlimit:10" transform="scale(.125)"/></g><g id="aR" clip-path="url(#t)"><path d="M64.219 41.531c-.656.625-1 1.563-.875 2.438-1.25-.688-2.969-.282-3.813.875-.812 1.156-.625 2.906.438 3.843a2.55 2.55 0 0 0-.063 2.188c.344.656 1.032 1.156 1.75 1.25.063 1.063.969 2 2 2.063 1.063.093 2.094-.657 2.344-1.657.531.407 1.313.469 1.875.094.594-.344.875-1.094.719-1.75-.156-.625-.688-1.125-1.031-1.687-.344-.563-.407-1.438.156-1.782.906-.531 2.187.844 2.937.157.406-.407.219-1.094-.125-1.532-.375-.406-.844-.75-1.125-1.25-.25-.531-.219-1.156-.312-1.75-.469-2.187-3.281-3-4.875-1.5m0 0" style="fill:none;stroke-width:.7223;stroke-linecap:round;stroke-linejoin:round;stroke:#757575;stroke-opacity:1;stroke-miterlimit:10" transform="scale(.125)"/></g><g id="aT" clip-path="url(#u)"><path d="M68.875 36.125c-.656.625-1 1.563-.875 2.438-1.25-.688-2.969-.282-3.812.874-.813 1.157-.594 2.938.437 3.876-.344.624-.375 1.468-.062 2.156a2.53 2.53 0 0 0 1.78 1.281c.032 1.031.938 1.969 2 2.063 1.032.062 2.063-.688 2.313-1.688.531.438 1.313.469 1.906.125.563-.375.844-1.125.688-1.781-.156-.625-.687-1.094-1.031-1.688-.344-.562-.406-1.437.156-1.781.906-.5 2.219.875 2.938.156.406-.375.218-1.093-.126-1.531-.343-.406-.843-.75-1.093-1.25-.281-.531-.219-1.156-.344-1.75-.469-2.156-3.281-3-4.875-1.5m0 0" style="fill:none;stroke-width:.7223;stroke-linecap:round;stroke-linejoin:round;stroke:#757575;stroke-opacity:1;stroke-miterlimit:10" transform="scale(.125)"/></g><g id="aV" clip-path="url(#v)"><path d="M46.406 44.531c-.656.594-1 1.532-.906 2.438-1.219-.688-2.969-.282-3.781.875-.813 1.156-.625 2.906.437 3.843a2.35 2.35 0 0 0-.062 2.188c.312.656 1.031 1.156 1.75 1.25.062 1.031.968 1.969 2 2.063 1.031.093 2.093-.657 2.343-1.688.5.438 1.313.5 1.876.125.562-.344.874-1.094.718-1.75s-.687-1.125-1.031-1.687-.406-1.47.156-1.782c.907-.531 2.188.844 2.938.125.406-.375.218-1.062-.125-1.5-.375-.437-.844-.75-1.125-1.25-.25-.531-.219-1.156-.344-1.75-.469-2.187-3.281-3-4.844-1.5m0 0" style="fill:none;stroke-width:.7223;stroke-linecap:round;stroke-linejoin:round;stroke:#757575;stroke-opacity:1;stroke-miterlimit:10" transform="scale(.125)"/></g><g id="aX" clip-path="url(#w)"><path d="M46.25 45.625c-.719.688-1.094 1.688-.969 2.656-1.343-.75-3.218-.312-4.125.938-.875 1.25-.656 3.156.469 4.156-.406.719-.437 1.625-.062 2.344a2.44 2.44 0 0 0 1.906 1.375c.062 1.125 1.031 2.125 2.156 2.218 1.125.094 2.25-.718 2.5-1.812.563.469 1.438.531 2.063.125.624-.375.937-1.187.78-1.906-.187-.688-.75-1.188-1.124-1.813s-.438-1.562.187-1.937c.969-.563 2.344.906 3.157.156.437-.437.25-1.187-.126-1.656-.374-.469-.937-.813-1.187-1.344-.312-.562-.25-1.25-.375-1.906-.5-2.313-3.531-3.188-5.25-1.594m0 0" style="fill:none;stroke-width:.7223;stroke-linecap:round;stroke-linejoin:round;stroke:#757575;stroke-opacity:1;stroke-miterlimit:10" transform="scale(.125)"/></g><g id="aZ" clip-path="url(#x)"><path d="M47.531 36.531c-.656.594-.968 1.532-.875 2.438-1.25-.688-2.968-.282-3.781.875-.844 1.125-.625 2.906.438 3.843a2.45 2.45 0 0 0-.094 2.188c.343.656 1.031 1.156 1.781 1.25.063 1.031.938 1.969 2 2.063 1.031.093 2.094-.657 2.313-1.688.53.438 1.312.5 1.906.125.562-.344.875-1.094.687-1.75-.156-.656-.687-1.125-1.031-1.687-.312-.563-.406-1.47.188-1.782.874-.531 2.187.844 2.906.125.406-.375.218-1.062-.125-1.5-.344-.437-.844-.75-1.094-1.25-.281-.531-.219-1.156-.344-1.75-.468-2.187-3.281-3-4.875-1.5m0 0" style="fill:none;stroke-width:.7223;stroke-linecap:round;stroke-linejoin:round;stroke:#757575;stroke-opacity:1;stroke-miterlimit:10" transform="scale(.125)"/></g><g id="bb" clip-path="url(#y)"><path d="M60.5 32.719c-.656.625-1 1.531-.875 2.437-1.25-.687-3-.281-3.812.875-.813 1.125-.626 2.907.437 3.844-.375.656-.375 1.5-.062 2.188.343.656 1.03 1.156 1.75 1.25.062 1.062.968 1.968 2 2.062 1.062.094 2.093-.656 2.343-1.687.532.437 1.313.5 1.875.124.594-.343.875-1.093.719-1.75-.156-.656-.687-1.124-1.031-1.687s-.407-1.469.156-1.781c.906-.532 2.188.843 2.938.125.406-.375.218-1.063-.126-1.5-.374-.438-.843-.75-1.124-1.25-.25-.532-.22-1.157-.313-1.75-.5-2.188-3.281-3-4.875-1.5m0 0" style="fill:none;stroke-width:.7223;stroke-linecap:round;stroke-linejoin:round;stroke:#757575;stroke-opacity:1;stroke-miterlimit:10" transform="scale(.125)"/></g><g id="bd" clip-path="url(#z)"><path d="M10.71 3.656c.118 0 .247.07.274.207.008.024.008.047.012.07a.4.4 0 0 0 .043.172c.024.055.066.09.102.125l.046.047c.02.028.028.063.024.067l.062.066-.07-.062a.3.3 0 0 1-.086-.024.4.4 0 0 0-.152-.035.19.19 0 0 0-.195.149.3.3 0 0 0 .039.222.4.4 0 0 0 .054.078c.028.04.055.074.063.11a.11.11 0 0 1-.047.12.1.1 0 0 1-.059.016.12.12 0 0 1-.074-.023.1.1 0 0 0-.059-.02.1.1 0 0 0-.027.008c-.031.008-.05.035-.058.063a.2.2 0 0 1-.18.14h-.016a.19.19 0 0 1-.168-.172.095.095 0 0 0-.078-.085.2.2 0 0 1-.148-.106.2.2 0 0 1 .004-.187.085.085 0 0 0-.02-.114c-.098-.086-.113-.254-.039-.363a.28.28 0 0 1 .23-.11q.071-.001.126.028a.1.1 0 0 0 .042.012q.03.001.051-.016a.09.09 0 0 0 .04-.086.28.28 0 0 1 .085-.226.25.25 0 0 1 .18-.07m0-.095a.366.366 0 0 0-.355.402.3.3 0 0 0-.168-.042.38.38 0 0 0-.305.152.375.375 0 0 0 .055.48.287.287 0 0 0 .21.43.28.28 0 0 0 .25.258.1.1 0 0 0 .024.004.29.29 0 0 0 .27-.21.2.2 0 0 0 .128.042q.06.002.106-.031a.2.2 0 0 0 .09-.219c-.02-.078-.086-.14-.13-.21-.042-.071-.05-.18.02-.223a.1.1 0 0 1 .063-.016c.078 0 .164.059.238.059a.1.1 0 0 0 .066-.024c.055-.05.028-.137-.015-.191-.043-.051-.106-.094-.137-.157-.035-.066-.027-.144-.043-.218a.37.37 0 0 0-.367-.285m0 0" style="stroke:none;fill-rule:nonzero;fill:#616161;fill-opacity:1"/></g><g id="bf" clip-path="url(#A)"><path d="M10.14 3.11a.27.27 0 0 1 .172.058.29.29 0 0 1 .055.363c-.02.028-.02.04-.004.07.016.028.047.024.078.024h.012c.078 0 .16.063.211.125a.29.29 0 0 1 .035.29.27.27 0 0 1-.21.17.4.4 0 0 1-.071.009.5.5 0 0 0-.176.027.5.5 0 0 0-.133.09c-.02.02-.035.031-.05.047a.13.13 0 0 1-.059.02c-.008 0-.012-.005-.012-.005-.004-.011.02-.062.032-.09.03-.066.074-.16.027-.253-.035-.075-.106-.114-.2-.114a.4.4 0 0 0-.14.032q-.046.022-.086.047a.3.3 0 0 1-.11.054q-.01.005-.015.004a.13.13 0 0 1-.105-.062.12.12 0 0 1 .02-.13.09.09 0 0 0 .023-.085.09.09 0 0 0-.059-.063.2.2 0 0 1-.125-.21.2.2 0 0 1 .188-.153h.003a.085.085 0 0 0 .086-.066.21.21 0 0 1 .121-.141.2.2 0 0 1 .075-.012q.06 0 .113.035a.1.1 0 0 0 .05.016.08.08 0 0 0 .063-.027.3.3 0 0 1 .192-.07m0-.09a.37.37 0 0 0-.254.093.3.3 0 0 0-.164-.047c-.036 0-.075-.015-.106-.003-.086.035-.156.187-.176.187h-.007c-.13 0-.25.121-.27.246a.3.3 0 0 0 .184.32.21.21 0 0 0-.036.239c.036.066.11.113.184.113.008 0 .02 0 .027-.004.086-.012.149-.074.223-.11a.2.2 0 0 1 .102-.023c.05 0 .097.02.117.063.055.117-.125.265-.047.363.02.027.05.035.082.035.04 0 .078-.015.11-.035.058-.039.1-.098.167-.125.07-.031.149-.016.223-.023.273-.036.402-.38.234-.59a.37.37 0 0 0-.285-.137h-.011a.376.376 0 0 0-.07-.48.34.34 0 0 0-.227-.082m0 0" style="stroke:none;fill-rule:nonzero;fill:#616161;fill-opacity:1"/></g><g id="bh" clip-path="url(#B)"><path d="M11.457 3.371c.066 0 .129.024.176.063a.28.28 0 0 1 .05.359c-.015.027-.019.035-.003.066.015.028.047.016.082.016h.008c.082 0 .164.07.214.133a.29.29 0 0 1 .032.289.26.26 0 0 1-.207.176q-.035.006-.075.007c-.05.004-.113.004-.171.032-.055.02-.098.058-.133.09-.02.015-.035.035-.055.043a.1.1 0 0 1-.055.023c-.008 0-.011-.004-.011-.004-.004-.016.02-.062.027-.09.031-.066.074-.16.031-.254a.21.21 0 0 0-.199-.117.3.3 0 0 0-.145.035l-.082.047a.4.4 0 0 1-.113.055h-.015a.12.12 0 0 1-.102-.059.12.12 0 0 1 .02-.129.1.1 0 0 0 .023-.086.09.09 0 0 0-.063-.062c-.082-.027-.136-.133-.12-.219a.2.2 0 0 1 .183-.16h.004c.043 0 .078-.02.09-.062a.19.19 0 0 1 .12-.137.2.2 0 0 1 .184.023.1.1 0 0 0 .051.016.1.1 0 0 0 .063-.024.3.3 0 0 1 .191-.07m0-.09a.38.38 0 0 0-.254.098.27.27 0 0 0-.164-.05c-.035 0-.07-.02-.101-.009-.09.035-.157.18-.176.18h-.008c-.129 0-.25.129-.274.254-.023.129.063.281.188.32a.22.22 0 0 0-.035.242.2.2 0 0 0 .18.114q.015.001.03-.004c.083-.012.15-.07.223-.11a.2.2 0 0 1 .102-.023c.05 0 .098.02.117.062.055.118-.129.266-.047.364.02.027.051.035.082.035a.2.2 0 0 0 .106-.035c.058-.04.105-.098.168-.125.07-.028.148-.016.222-.024.274-.035.407-.379.235-.59a.37.37 0 0 0-.285-.136h-.008a.376.376 0 0 0-.07-.48.35.35 0 0 0-.231-.083m0 0" style="stroke:none;fill-rule:nonzero;fill:#616161;fill-opacity:1"/></g><g id="bj" clip-path="url(#C)"><path d="M8.293 1.79c.066 0 .129.022.172.062.101.082.125.25.055.359a.11.11 0 0 0-.004.105c.015.028.046.059.078.059h.011a.27.27 0 0 1 .211.09.26.26 0 0 1 .036.27.26.26 0 0 1-.211.163q-.03.005-.07.004c-.055 0-.118 0-.176.028a.5.5 0 0 0-.133.09q-.029.023-.051.042a.1.1 0 0 1-.059.02h-.011c-.004-.016.02-.062.03-.09.032-.07.075-.164.028-.258-.035-.07-.105-.113-.199-.113a.3.3 0 0 0-.14.035l-.087.047a.3.3 0 0 1-.109.055h-.016c-.043 0-.085-.024-.101-.059a.11.11 0 0 1 .016-.129.09.09 0 0 0 .023-.086.09.09 0 0 0-.059-.062c-.082-.027-.14-.156-.125-.238S7.5 2 7.59 2c.043 0 .082 0 .09-.043.015-.062.062-.102.12-.125.024-.008.048-.004.071-.004.043 0 .082.016.113.04a.1.1 0 0 0 .055.015q.031 0 .063-.024a.3.3 0 0 1 .191-.07m0-.09a.38.38 0 0 0-.254.098.27.27 0 0 0-.164-.05.3.3 0 0 0-.105.034.26.26 0 0 0-.176.219h-.008c-.129 0-.25.086-.27.21a.27.27 0 0 0 .184.302.2.2 0 0 0-.035.23c.035.067.11.11.183.11.008 0 .02 0 .028-.004.086-.016.148-.075.222-.114A.3.3 0 0 1 8 2.711c.05 0 .098.02.117.062.055.118-.125.266-.047.368.02.023.051.03.082.03q.061.001.11-.034c.058-.04.101-.098.168-.125.07-.028.148-.016.222-.024.274-.035.403-.379.235-.59a.37.37 0 0 0-.285-.136H8.59a.376.376 0 0 0-.07-.48.34.34 0 0 0-.227-.083m0 0" style="stroke:none;fill-rule:nonzero;fill:#616161;fill-opacity:1"/></g><g id="bl" clip-path="url(#D)"><path d="M8.953 1a.27.27 0 0 1 .172.059.29.29 0 0 1 .055.363c-.02.027-.02.031-.004.062.015.028.047.016.078.016h.012c.078 0 .16.07.21.133a.3.3 0 0 1 .036.289c-.04.094-.117.168-.211.18a.4.4 0 0 1-.07.007.5.5 0 0 0-.176.028c-.055.023-.098.062-.133.093q-.029.025-.05.043a.13.13 0 0 1-.06.02h-.011c-.004-.016.02-.063.031-.09.031-.07.074-.164.027-.258-.035-.07-.105-.113-.199-.113a.4.4 0 0 0-.14.031 1 1 0 0 0-.086.051c-.04.024-.075.047-.11.055H8.31a.12.12 0 0 1-.106-.059.13.13 0 0 1 .02-.133.08.08 0 0 0 .023-.082.1.1 0 0 0-.059-.066c-.082-.024-.14-.133-.124-.215.015-.082.097-.164.187-.164.043 0 .078-.016.09-.059a.2.2 0 0 1 .12-.136c.024-.008.048-.008.071-.008q.065 0 .114.035a.1.1 0 0 0 .054.016q.031 0 .063-.024A.26.26 0 0 1 8.953 1m0-.09a.37.37 0 0 0-.254.094.3.3 0 0 0-.164-.05c-.035 0-.074-.02-.105-.009-.086.035-.157.18-.176.18h-.008c-.129 0-.25.129-.27.254-.023.129.06.281.184.324a.21.21 0 0 0-.035.238c.035.067.11.114.184.114h.027c.086-.016.148-.075.223-.11a.2.2 0 0 1 .101-.023c.05 0 .098.016.117.062.055.114-.125.262-.047.364.02.023.051.035.082.035.04 0 .079-.016.11-.04.058-.038.101-.097.168-.124.07-.028.148-.016.223-.024.273-.035.402-.375.234-.59a.37.37 0 0 0-.285-.136H9.25a.38.38 0 0 0-.07-.48.33.33 0 0 0-.227-.079m0 0" style="stroke:none;fill-rule:nonzero;fill:#616161;fill-opacity:1"/></g><g id="bn" clip-path="url(#E)"><path d="M10.535 2.45c.067 0 .13.023.172.062.102.082.125.25.055.36a.08.08 0 0 0-.004.085c.015.031.047.043.078.043h.012c.078 0 .164.047.21.11a.27.27 0 0 1 .036.277.27.27 0 0 1-.211.172q-.03.002-.07.003c-.055 0-.114 0-.176.028-.055.02-.094.058-.133.09q-.029.023-.05.043a.1.1 0 0 1-.06.02h-.011c-.004-.016.02-.063.031-.09.031-.071.074-.165.027-.258-.035-.07-.105-.114-.199-.114a.3.3 0 0 0-.14.035c-.032.012-.059.032-.086.047a.3.3 0 0 1-.11.055h-.015c-.043 0-.086-.023-.102-.059a.11.11 0 0 1 .016-.129.09.09 0 0 0 .023-.085.1.1 0 0 0-.058-.067c-.082-.023-.141-.105-.125-.187.015-.086.097-.141.187-.141.043 0 .082-.043.09-.082a.24.24 0 0 1 .121-.152.2.2 0 0 1 .07-.016q.064 0 .117.035c.012.012.032.012.051.012q.031 0 .063-.024a.27.27 0 0 1 .191-.074m0-.09a.36.36 0 0 0-.254.098.27.27 0 0 0-.164-.05.3.3 0 0 0-.105.015c-.086.035-.157.078-.176.203h-.008a.29.29 0 0 0-.27.23.28.28 0 0 0 .184.31.21.21 0 0 0-.035.233c.035.067.11.11.184.11.007 0 .02 0 .03-.004.083-.012.145-.074.22-.11a.2.2 0 0 1 .101-.023c.051 0 .098.02.117.063.059.117-.125.265-.046.363.019.027.05.035.082.035.039 0 .078-.016.109-.035.059-.04.101-.098.168-.125.07-.031.148-.016.223-.024.273-.035.402-.378.234-.59a.37.37 0 0 0-.285-.136h-.012a.38.38 0 0 0-.066-.48.35.35 0 0 0-.23-.083m0 0" style="stroke:none;fill-rule:nonzero;fill:#616161;fill-opacity:1"/></g><g id="bp" clip-path="url(#F)"><path d="M9.535 1.965c.078 0 .149.023.2.066.113.098.14.29.058.41-.02.032-.023.086-.004.118.02.035.055.066.09.066h.012c.093 0 .183.031.242.105.07.086.082.196.039.305a.3.3 0 0 1-.238.188c-.028.004-.051.004-.082.004-.059 0-.13 0-.2.03-.062.024-.105.067-.148.102a.3.3 0 0 1-.059.047.13.13 0 0 1-.066.024c-.008 0-.012-.004-.012-.004-.008-.012.02-.07.031-.098.036-.078.086-.187.036-.293-.04-.082-.121-.129-.227-.129a.4.4 0 0 0-.16.04.5.5 0 0 0-.094.054c-.05.027-.09.055-.129.059-.008.003-.011.003-.02.003a.13.13 0 0 1-.113-.07.14.14 0 0 1 .02-.148.1.1 0 0 0 .027-.094.1.1 0 0 0-.066-.074c-.094-.031-.16-.149-.145-.246.02-.094.114-.184.211-.184h.004c.047 0 .09-.02.102-.066a.23.23 0 0 1 .136-.157.25.25 0 0 1 .21.027q.027.02.056.02.04.002.07-.027a.33.33 0 0 1 .22-.078m0-.102a.4.4 0 0 0-.286.11.32.32 0 0 0-.187-.059c-.04 0-.083-.016-.118 0-.101.04-.18.211-.203.211h-.008c-.144 0-.28.137-.304.281a.334.334 0 0 0 .21.36.24.24 0 0 0-.038.27c.039.073.12.128.203.128q.017.001.035-.004c.094-.015.168-.082.25-.125a.3.3 0 0 1 .117-.023c.059 0 .11.02.133.066.062.133-.145.3-.05.414.019.028.054.04.089.04.043 0 .09-.016.125-.04.062-.047.113-.113.187-.14.079-.036.168-.02.254-.028.309-.043.457-.43.266-.672a.43.43 0 0 0-.32-.152h-.012a.43.43 0 0 0-.082-.547.4.4 0 0 0-.262-.09m0 0" style="stroke:none;fill-rule:nonzero;fill:#616161;fill-opacity:1"/></g><g id="br" clip-path="url(#G)"><path d="M8.77 3.082c.046 0 .097.02.132.05.016.013.04.02.059.02a.1.1 0 0 0 .055-.015.3.3 0 0 1 .16-.051q.125 0 .203.082c.09.094.094.262.012.363-.024.028-.032.063-.016.094a.09.09 0 0 0 .074.055.28.28 0 0 1 .207.125.28.28 0 0 1-.23.422c-.024 0-.043 0-.067-.004q-.044-.005-.086-.004a.3.3 0 0 0-.09.011.4.4 0 0 0-.14.075c-.023.011-.04.027-.059.035a.1.1 0 0 1-.05.015q-.019-.001-.02-.003c-.004-.016.024-.059.04-.086.038-.063.093-.153.058-.25-.028-.086-.114-.137-.219-.137a.3.3 0 0 0-.11.016c-.03.011-.062.027-.09.039a.3.3 0 0 1-.12.043.12.12 0 0 1-.11-.075.12.12 0 0 1 .035-.125.09.09 0 0 0 .032-.082.09.09 0 0 0-.051-.07.194.194 0 0 1-.102-.219.2.2 0 0 1 .18-.133.1.1 0 0 1 .023.004h.012c.04 0 .074-.023.086-.062a.2.2 0 0 1 .137-.125q.03-.007.055-.008m0-.09A1 1 0 0 0 8.695 3a.3.3 0 0 0-.199.188q-.018-.005-.035-.004a.285.285 0 0 0-.266.195.29.29 0 0 0 .149.328.21.21 0 0 0-.059.227.2.2 0 0 0 .188.132h.011c.082-.003.153-.058.23-.086a.3.3 0 0 1 .079-.011c.062 0 .117.02.137.074.039.121-.16.25-.09.355.02.036.055.047.094.047a.2.2 0 0 0 .097-.023c.059-.031.114-.086.18-.106.023-.007.043.02.066.02.051 0 .102.039.153.039h.004c.277 0 .449-.355.3-.586a.37.37 0 0 0-.273-.184.394.394 0 0 0-.016-.496.38.38 0 0 0-.265-.113.37.37 0 0 0-.22.07.3.3 0 0 0-.19-.074m0 0" style="stroke:none;fill-rule:nonzero;fill:#616161;fill-opacity:1"/></g><g id="bt" clip-path="url(#H)"><path d="M78.719 59.563c.75-.5 1.25-1.344 1.312-2.25 1.094.874 2.875.78 3.875-.22s1.094-2.75.219-3.874c.469-.594.656-1.407.438-2.125a2.34 2.34 0 0 0-1.532-1.532c.125-1.062-.594-2.124-1.625-2.374-1-.282-2.156.28-2.562 1.25-.438-.5-1.219-.688-1.844-.438s-1.062.938-1 1.625c.031.656.469 1.219.719 1.813.25.624.156 1.5-.469 1.75-.937.343-2-1.22-2.875-.657-.469.313-.375 1.032-.125 1.532.281.5.719.874.875 1.406.188.593.031 1.187.063 1.812.093 2.219 2.718 3.5 4.53 2.282m0 0" style="fill:none;stroke-width:.7223;stroke-linecap:round;stroke-linejoin:round;stroke:#757575;stroke-opacity:1;stroke-miterlimit:10" transform="scale(.125)"/></g><g id="bv" clip-path="url(#I)"><path d="M82.5 42.063c-.875-.22-1.844 0-2.562.562-.063-1.437-1.344-2.687-2.75-2.75-1.438-.062-2.813 1.031-3.032 2.438-.75.03-1.469.468-1.875 1.093-.375.657-.437 1.5-.125 2.188-.844.593-1.125 1.843-.656 2.781s1.688 1.406 2.656 1.063c-.062.687.313 1.374.938 1.656.594.281 1.375.156 1.844-.344.468-.469.593-1.187.906-1.781.281-.594 1-1.125 1.562-.813.938.469.469 2.282 1.469 2.532.531.156 1.031-.376 1.219-.907.187-.531.187-1.125.469-1.625.312-.5.874-.781 1.28-1.218 1.563-1.532.75-4.344-1.343-4.876m0 0" style="fill:none;stroke-width:.7223;stroke-linecap:round;stroke-linejoin:round;stroke:#757575;stroke-opacity:1;stroke-miterlimit:10" transform="scale(.125)"/></g><g id="bx" clip-path="url(#J)"><path d="M10.875 3.918c.02 0 .047.004.066.012.079.023.149.082.22.136.023.024.062.059.105.102.168.16.394.379.586.379a.2.2 0 0 0 .082-.016.3.3 0 0 0 .132-.105c.032-.035.04-.043.063-.043.008 0 .016.004.027.004.059.011.121.074.172.172.05.113.07.226.047.324-.023.101-.098.187-.184.21q-.022.006-.046.005c-.075 0-.149-.043-.168-.102a.1.1 0 0 0-.086-.059q-.012-.001-.024.004a.09.09 0 0 0-.066.102.13.13 0 0 1-.028.094.12.12 0 0 1-.082.05h-.011c-.063 0-.125-.054-.13-.113a.1.1 0 0 0-.07-.082h-.02a.09.09 0 0 0-.077.043c-.035.059-.106.094-.188.094a.21.21 0 0 1-.175-.082c-.008-.016-.02-.031-.028-.047a.4.4 0 0 0-.078-.113.24.24 0 0 0-.156-.063.17.17 0 0 0-.14.067c-.06.086-.024.187.038.254q.02.02.043.043c.02.015.04.035.047.05.012.024 0 .063-.027.09a.2.2 0 0 1-.133.043h-.004a.36.36 0 0 1-.34-.426q.005-.064.004-.129c-.008-.125-.066-.222-.148-.265q-.016-.007-.02-.031c0-.028.012-.067.031-.086.051-.051.133-.07.22-.09l.01-.004c.122-.027.243-.067.317-.168a1 1 0 0 0 .063-.125.3.3 0 0 1 .047-.09c.03-.035.082-.039.109-.039m0-.09a.23.23 0 0 0-.176.07c-.058.063-.066.153-.117.223-.059.082-.16.113-.262.137-.097.02-.203.043-.273.113-.07.074-.082.211.004.262.07.035.101.117.105.195.004.074-.011.168-.008.246.012.219.215.426.434.426h.008c.07 0 .144-.04.195-.086.047-.05.074-.14.043-.203-.023-.043-.07-.078-.105-.117-.036-.04-.059-.102-.028-.14.012-.024.04-.036.067-.036.031 0 .066.016.09.039.043.04.062.102.097.148a.3.3 0 0 0 .25.122c.102 0 .211-.047.266-.141.008.11.113.2.219.2q.01.001.023-.005a.223.223 0 0 0 .188-.25.27.27 0 0 0 .324.153.38.38 0 0 0 .25-.278.6.6 0 0 0-.059-.383c-.047-.093-.125-.203-.238-.222-.016-.004-.027-.004-.043-.004-.117 0-.121.113-.227.156q-.021.007-.05.008c-.2 0-.508-.36-.633-.461-.074-.062-.153-.129-.246-.156a.3.3 0 0 0-.098-.016m0 0" style="stroke:none;fill-rule:nonzero;fill:#616161;fill-opacity:1"/></g><g id="bz" clip-path="url(#K)"><path d="M50.344 25.563c-.344.562-.407 1.28-.344 1.937.094 1.031.625 2.125 1.563 2.563.937.468 2.312-.032 2.5-1.063.03.531.437 1 .937 1.094.531.125 1.094-.125 1.344-.563-.094.594.218 1.282.75 1.625.531.344 1.25.344 1.781 0 1.313.469 2.75-.718 3-2.093.25-1.344-.344-2.72-1-3.938.531-.406.781-1.125.75-1.812s-.344-1.313-.719-1.907c-1.281-1.843-3.781-2.906-5.968-2.25-1.376.407-2.5 1.563-2.97 2.907-.25.656.032 1.53-.187 2.093-.218.625-1.031.688-1.437 1.407m0 0" style="fill:none;stroke-width:.7223;stroke-linecap:round;stroke-linejoin:round;stroke:#757575;stroke-opacity:1;stroke-miterlimit:10" transform="scale(.125)"/></g><g id="bB" clip-path="url(#L)"><path d="M44 21.344c-.312.562-.406 1.281-.344 1.937.125 1.063.625 2.125 1.563 2.594.937.438 2.312-.031 2.5-1.062.062.5.468.968.968 1.062.5.125 1.063-.125 1.344-.562a1.66 1.66 0 0 0 .719 1.625 1.72 1.72 0 0 0 1.813 0c1.28.468 2.718-.72 2.968-2.063.25-1.375-.312-2.75-1-3.937.563-.407.813-1.125.782-1.813-.063-.719-.344-1.344-.75-1.906-1.282-1.875-3.782-2.938-5.938-2.282-1.406.407-2.531 1.563-3 2.907-.219.656.031 1.531-.156 2.093-.219.625-1.063.688-1.469 1.407m0 0" style="fill:none;stroke-width:.7223;stroke-linecap:round;stroke-linejoin:round;stroke:#757575;stroke-opacity:1;stroke-miterlimit:10" transform="scale(.125)"/></g><g id="bD" clip-path="url(#M)"><path d="M10.418 5.078c.191 0 .39.106.504.27q.07.104.074.191a.18.18 0 0 1-.059.152.087.087 0 0 0-.027.114c.07.125.145.28.117.43-.02.105-.12.202-.21.202a.1.1 0 0 1-.044-.007q-.016-.007-.03-.008c-.02 0-.036.008-.052.016a.1.1 0 0 1-.062.019.13.13 0 0 1-.063-.02.12.12 0 0 1-.05-.113.09.09 0 0 0-.059-.097.1.1 0 0 0-.031-.008.08.08 0 0 0-.074.047.07.07 0 0 1-.059.03h-.012c-.023-.007-.047-.046-.05-.073-.008-.047-.043-.098-.09-.098h-.004c-.043 0-.082.047-.09.09-.008.05-.07.086-.125.086-.02 0-.04 0-.059-.008-.09-.043-.133-.152-.14-.246a.3.3 0 0 1 .03-.192c.013-.023.04-.039.067-.058.043-.027.098-.063.121-.125.02-.05.02-.106.016-.156 0-.043-.004-.082.008-.11a.49.49 0 0 1 .453-.328m0-.09a.573.573 0 0 0-.54.39c-.026.079.005.192-.019.263-.03.074-.132.086-.187.172-.04.074-.05.164-.04.246.013.128.075.265.192.32a.2.2 0 0 0 .098.023c.098 0 .2-.058.215-.156a.16.16 0 0 0 .12.137q.014.005.032.004c.055 0 .11-.028.137-.074a.22.22 0 0 0 .09.203q.053.03.113.03t.113-.03q.038.01.074.011c.137 0 .27-.129.297-.273.035-.172-.039-.34-.125-.492.07-.051.102-.14.098-.227a.5.5 0 0 0-.09-.238.72.72 0 0 0-.578-.309m0 0" style="stroke:none;fill-rule:nonzero;fill:#616161;fill-opacity:1"/></g><g id="bF" clip-path="url(#N)"><path d="M49.188 53.75c-.313.563-.407 1.281-.344 1.938.093 1.062.625 2.124 1.562 2.593.938.438 2.313-.031 2.5-1.062.032.5.469.968.969 1.093.5.094 1.063-.156 1.313-.593-.063.625.218 1.281.75 1.625.53.343 1.25.343 1.78 0 1.313.468 2.75-.719 3-2.063.25-1.375-.343-2.718-1-3.937.532-.407.813-1.125.75-1.813-.03-.687-.343-1.343-.718-1.906-1.281-1.875-3.781-2.937-5.969-2.281-1.375.406-2.5 1.562-2.968 2.906-.22.656.03 1.531-.188 2.094-.187.625-1.031.687-1.437 1.406m0 0" style="fill:none;stroke-width:.7223;stroke-linecap:round;stroke-linejoin:round;stroke:#757575;stroke-opacity:1;stroke-miterlimit:10" transform="scale(.125)"/></g><g id="bH" clip-path="url(#O)"><path d="M33.688 35.781c-.313 1.719.437 3.438 1.312 4.938.5.781 1.063 1.625 1.938 1.968.874.344 2.062-.03 2.28-.937.594.656 1.188 1.313 1.938 1.75s1.688.625 2.469.281c.969-.437 1.469-1.5 1.875-2.468a88 88 0 0 1 1.25-3.032c.5-1.218 1-2.5.813-3.812-.25-1.594-1.594-2.875-3.188-3.219-1.562-.375-3.25.188-4.437 1.281 0 .032-1.844-.093-2.126-.031-.5.156-1.124.344-1.593.5-1.282.469-2.282 1.406-2.532 2.781m0 0" style="fill:none;stroke-width:.7223;stroke-linecap:round;stroke-linejoin:round;stroke:#757575;stroke-opacity:1;stroke-miterlimit:10" transform="scale(.125)"/></g><g id="bJ" clip-path="url(#P)"><path d="M11.64 5.156a.48.48 0 0 1 .419.239.1.1 0 0 0 .078.05c.105.004.21.067.27.157.054.09.062.21.019.308a.1.1 0 0 0 .008.086.25.25 0 0 1-.063.332.22.22 0 0 1-.137.043.25.25 0 0 1-.195-.09.1.1 0 0 0-.113-.027.09.09 0 0 0-.043.11c.023.074.02.183-.047.241a.13.13 0 0 1-.086.032c-.031 0-.074-.012-.09-.047-.012-.027-.039-.043-.07-.047h-.012a.09.09 0 0 0-.07.035.19.19 0 0 1-.195.059.18.18 0 0 1-.122-.16.12.12 0 0 0-.03-.063.1.1 0 0 0-.06-.023h-.023a.21.21 0 0 1-.148-.07.3.3 0 0 1-.07-.212.42.42 0 0 1 .136-.246q.035-.029.059-.05c.07-.055.101-.086.136-.215.055-.215.137-.368.329-.426a.4.4 0 0 1 .12-.016m0-.09a.7.7 0 0 0-.148.02c-.238.074-.328.27-.387.488-.039.137-.058.125-.168.223a.5.5 0 0 0-.167.305c-.02.183.125.382.308.382q.007.001.02-.004a.28.28 0 0 0 .187.243.27.27 0 0 0 .293-.09c.031.062.102.094.172.094.05 0 .105-.02.145-.055.09-.082.109-.223.07-.34a.34.34 0 0 0 .27.129c.07 0 .136-.02.19-.059a.35.35 0 0 0 .087-.457.44.44 0 0 0-.028-.394.44.44 0 0 0-.343-.2.58.58 0 0 0-.5-.285m0 0" style="stroke:none;fill-rule:nonzero;fill:#616161;fill-opacity:1"/></g><g id="bL" clip-path="url(#Q)"><path d="M10.953 5.402c.172 0 .34.098.418.243a.09.09 0 0 0 .078.046c.106.008.211.067.266.157a.34.34 0 0 1 .023.312.1.1 0 0 0 .008.086.255.255 0 0 1-.062.332.25.25 0 0 1-.336-.05.1.1 0 0 0-.07-.036.1.1 0 0 0-.044.012.095.095 0 0 0-.043.105c.024.079.02.188-.046.246-.02.02-.051.028-.082.028-.036 0-.075-.012-.09-.043a.1.1 0 0 0-.075-.05h-.007a.08.08 0 0 0-.07.034.18.18 0 0 1-.145.07q-.029 0-.051-.007a.19.19 0 0 1-.125-.16.08.08 0 0 0-.031-.067.1.1 0 0 0-.059-.02h-.023c-.051 0-.102-.027-.145-.074a.28.28 0 0 1-.07-.207.4.4 0 0 1 .137-.246q.035-.029.058-.05c.07-.06.102-.09.137-.215.055-.215.133-.368.328-.426a.4.4 0 0 1 .121-.02m0-.09a.5.5 0 0 0-.148.024c-.239.07-.332.27-.39.488-.036.133-.056.121-.169.223a.5.5 0 0 0-.164.305c-.02.18.125.378.305.378h.023a.27.27 0 0 0 .262.254c.086 0 .168-.039.219-.105.03.062.097.094.168.094a.2.2 0 0 0 .144-.051c.094-.082.11-.223.074-.34a.34.34 0 0 0 .27.125.32.32 0 0 0 .187-.055.35.35 0 0 0 .09-.457.44.44 0 0 0-.027-.394.43.43 0 0 0-.344-.2.59.59 0 0 0-.5-.288m0 0" style="stroke:none;fill-rule:nonzero;fill:#616161;fill-opacity:1"/></g><g id="bN" clip-path="url(#R)"><path d="M11.29 5.703c.01 0 .023.004.034.004.082.02.14.078.176.125.016.02.023.035.035.05.043.067.07.095.168.134.164.062.277.132.305.285a.37.37 0 0 1-.211.394.1.1 0 0 0-.059.07.25.25 0 0 1-.246.22.22.22 0 0 1-.125-.036.1.1 0 0 0-.047-.011.1.1 0 0 0-.039.011.2.2 0 0 1-.078.016.19.19 0 0 1-.16-.086c-.043-.078-.016-.195.062-.242a.09.09 0 0 0 .036-.11.09.09 0 0 0-.086-.058c-.004 0-.012 0-.016.004q-.023.005-.047.004c-.055 0-.105-.02-.129-.055a.1.1 0 0 1-.008-.074c.004-.012.008-.032.028-.035a.1.1 0 0 0 .055-.067.1.1 0 0 0-.024-.086c-.039-.035-.05-.066-.031-.113.02-.043.066-.047.12-.047l.005-.027c.023 0 .047-.024.062-.04a.12.12 0 0 0 .028-.074c.004-.082.101-.156.191-.156m0-.09c-.137 0-.277.102-.277.239H11a.23.23 0 0 0-.203.132.23.23 0 0 0 .05.243c-.09.03-.117.168-.058.246.043.062.125.093.203.093q.031 0 .063-.007a.283.283 0 0 0-.094.363.283.283 0 0 0 .36.105q.077.048.171.047.078 0 .149-.035a.35.35 0 0 0 .187-.258.46.46 0 0 0 .27-.496c-.04-.2-.188-.289-.36-.355-.105-.04-.093-.055-.164-.153a.4.4 0 0 0-.23-.156q-.031-.007-.055-.008m0 0" style="stroke:none;fill-rule:nonzero;fill:#616161;fill-opacity:1"/></g><g id="bP" clip-path="url(#S)"><path d="M64.625 49.656c-.156 1.532 1.125 3.188 2.656 3.032a2.145 2.145 0 0 0 1.5 1.937c.813.281 1.813-.031 2.344-.719.406.875 1.75.969 2.5.313.719-.625.875-1.782.563-2.688.843 1.063 2.562 1.344 3.687.532 1.094-.782 1.438-2.5.688-3.657.437-1 .343-2.218-.22-3.156a3.62 3.62 0 0 0-2.75-1.594c-.937-1.781-3.218-2.718-5.156-2.125-1.906.594-2.656 2.157-3.124 3.907-.282 1.093-.438.968-1.344 1.78-.688.657-1.219 1.5-1.344 2.438m0 0" style="fill:none;stroke-width:.7223;stroke-linecap:round;stroke-linejoin:round;stroke:#757575;stroke-opacity:1;stroke-miterlimit:10" transform="scale(.125)"/></g><g id="bR" clip-path="url(#T)"><path d="M47.75 46.5c-.156 1.531 1.125 3.188 2.625 3.031.063.875.688 1.688 1.5 1.938.844.281 1.813-.032 2.344-.719.437.875 1.781.969 2.531.313.719-.657.875-1.782.563-2.688.843 1.063 2.562 1.313 3.687.531 1.094-.781 1.438-2.5.688-3.656.437-1 .343-2.219-.22-3.156-.593-.938-1.656-1.532-2.75-1.594-.937-1.781-3.218-2.719-5.156-2.125-1.937.563-2.656 2.156-3.124 3.906-.282 1.094-.47.969-1.344 1.782-.688.656-1.219 1.5-1.344 2.437m0 0" style="fill:none;stroke-width:.7223;stroke-linecap:round;stroke-linejoin:round;stroke:#757575;stroke-opacity:1;stroke-miterlimit:10" transform="scale(.125)"/></g><g id="bT" clip-path="url(#U)"><path d="M56.25 38.625c-.156 1.5 1.125 3.156 2.625 3.031.063.875.688 1.688 1.5 1.938.844.25 1.813-.063 2.344-.75.437.875 1.781 1 2.531.343.719-.656.875-1.78.563-2.718.843 1.093 2.562 1.343 3.687.562 1.094-.812 1.438-2.5.688-3.656.437-1 .343-2.25-.22-3.156-.593-.938-1.656-1.563-2.75-1.594-.937-1.781-3.218-2.75-5.156-2.156s-2.656 2.156-3.124 3.906c-.282 1.094-.47 1-1.344 1.813-.688.656-1.219 1.468-1.344 2.437m0 0" style="fill:none;stroke-width:.7223;stroke-linecap:round;stroke-linejoin:round;stroke:#757575;stroke-opacity:1;stroke-miterlimit:10" transform="scale(.125)"/></g><g id="bV" clip-path="url(#V)"><path d="M9.535 3.863c.043 0 .086.032.09.063a.09.09 0 0 0 .043.078.1.1 0 0 0 .047.012.1.1 0 0 0 .039-.012.2.2 0 0 1 .062-.012c.036 0 .07.012.094.035.04.035.055.102.035.153a.1.1 0 0 0 0 .07q.02.035.055.047c.05.02.074.066.082.094a.22.22 0 0 1-.012.187.35.35 0 0 1-.187.133q-.037.011-.063.016a.3.3 0 0 0-.187.125c-.125.148-.223.207-.344.207q-.023.001-.05-.004a.394.394 0 0 1-.325-.352.08.08 0 0 0-.047-.074.28.28 0 0 1-.144-.207.27.27 0 0 1 .09-.234.09.09 0 0 0 .03-.083c-.015-.093.063-.199.157-.218h.027c.09 0 .176.074.196.16.007.039.047.078.086.078h.004c.046 0 .082-.047.085-.09.012-.078.055-.144.114-.164q.005-.005.023-.004Zm0-.09a.2.2 0 0 0-.047.008c-.097.028-.164.133-.175.235a.305.305 0 0 0-.286-.223q-.018.002-.043.004a.295.295 0 0 0-.23.32.38.38 0 0 0-.121.313c.015.117.09.222.191.277a.485.485 0 0 0 .403.438q.032.004.062.003c.176 0 .3-.109.41-.242.078-.09.09-.074.211-.11a.43.43 0 0 0 .235-.175c.085-.137.035-.355-.118-.41a.24.24 0 0 0-.054-.254.26.26 0 0 0-.157-.059.2.2 0 0 0-.101.028c-.004-.09-.094-.153-.18-.153m0 0" style="stroke:none;fill-rule:nonzero;fill:#616161;fill-opacity:1"/></g><g id="bX" clip-path="url(#W)"><path d="M8.523 1.977a.49.49 0 0 1 .418.238.09.09 0 0 0 .075.05.333.333 0 0 1 .293.465c-.012.028-.012.063.007.086.067.106.04.262-.062.332a.24.24 0 0 1-.137.043.26.26 0 0 1-.199-.09.08.08 0 0 0-.07-.035q-.022.001-.043.008c-.04.02-.055.067-.043.11.023.074.02.183-.047.242-.02.02-.05.027-.082.027-.035 0-.074-.008-.09-.043a.1.1 0 0 0-.074-.05H8.46a.1.1 0 0 0-.07.035.19.19 0 0 1-.145.07.2.2 0 0 1-.05-.008.19.19 0 0 1-.126-.16.08.08 0 0 0-.03-.063.08.08 0 0 0-.06-.023h-.023a.21.21 0 0 1-.144-.07.3.3 0 0 1-.07-.211.4.4 0 0 1 .136-.246l.059-.051c.07-.055.101-.086.136-.215.055-.215.133-.367.328-.426a.4.4 0 0 1 .121-.015m0-.094a.5.5 0 0 0-.148.023c-.238.07-.332.266-.39.489-.036.132-.06.12-.169.222a.5.5 0 0 0-.164.305c-.02.18.125.379.305.379h.023a.27.27 0 0 0 .262.254c.086 0 .168-.04.219-.106.031.063.098.094.168.094a.2.2 0 0 0 .144-.05c.094-.083.11-.223.075-.34a.34.34 0 0 0 .27.124.32.32 0 0 0 .187-.054.347.347 0 0 0 .086-.457.42.42 0 0 0-.028-.395.42.42 0 0 0-.34-.2.58.58 0 0 0-.5-.288m0 0" style="stroke:none;fill-rule:nonzero;fill:#616161;fill-opacity:1"/></g><linearGradient id="g" x1="36.732" x2="91.298" y1="91.059" y2="91.059" gradientTransform="scale(.125)" gradientUnits="userSpaceOnUse"><stop offset="0" style="stop-color:#fff;stop-opacity:1"/><stop offset=".733" style="stop-color:gray;stop-opacity:1"/><stop offset="1" style="stop-color:#fff;stop-opacity:1"/></linearGradient><linearGradient id="ar" x1="29.131" x2="98.632" y1="55.742" y2="55.742" gradientTransform="scale(.125)" gradientUnits="userSpaceOnUse"><stop offset="0" style="stop-color:#fff;stop-opacity:1"/><stop offset=".733" style="stop-color:#b8b8b8;stop-opacity:1"/><stop offset="1" style="stop-color:#fff;stop-opacity:1"/></linearGradient><filter id="a" width="100%" height="100%" x="0%" y="0%" filterUnits="objectBoundingBox"><feColorMatrix in="SourceGraphic" values="0 0 0 0 1 0 0 0 0 1 0 0 0 0 1 0 0 0 1 0"/></filter></defs><path d="M6.941 1.313c-.043.07-.05.16-.043.242.012.133.075.265.192.324.117.055.289-.004.312-.133a.17.17 0 0 0 .121.137.17.17 0 0 0 .168-.074.21.21 0 0 0 .094.203.21.21 0 0 0 .223 0c.164.058.34-.09.37-.258.036-.172-.038-.34-.124-.492.07-.051.101-.14.098-.227a.5.5 0 0 0-.09-.238C8.102.562 7.789.43 7.516.512a.58.58 0 0 0-.371.363c-.028.082.003.191-.02.262-.031.078-.133.086-.184.176m0 0" style="stroke:none;fill-rule:nonzero;fill:#fcfed4;fill-opacity:1"/><use xlink:href="#Y" mask="url(#X)"/><path d="M7.266 1.34c-.043-.055-.063-.13-.043-.192A.21.21 0 0 1 7.355 1c-.035-.035-.027-.094 0-.137a.22.22 0 0 1 .13-.066c.046-.012.109-.004.136.035.035.055 0 .137.043.184.04.039.102.02.149-.004.046-.024.101-.055.148-.032.066.028.062.13.02.184-.047.055-.118.082-.172.125a.36.36 0 0 0-.13.207c-.023.102-.062.367-.202.223-.047-.047-.032-.145-.055-.203-.04-.082-.102-.11-.156-.176m0 0" style="stroke:none;fill-rule:nonzero;fill:#ef9b53;fill-opacity:1"/><path d="M6.719 1.508c-.168.09-.246.34-.121.484a.28.28 0 0 0-.09.297c.035.102.133.18.242.184-.059.109.031.254.148.28.118.028.247-.038.32-.136-.05.164.048.36.208.414.16.059.36-.031.422-.191a.423.423 0 0 0 .27-.645.57.57 0 0 0-.153-.683c-.2-.153-.41-.114-.625-.035-.133.046-.133.023-.281-.008a.47.47 0 0 0-.34.039m0 0" style="stroke:none;fill-rule:nonzero;fill:#fcfed4;fill-opacity:1"/><use xlink:href="#aa" mask="url(#Z)"/><path d="M7.223 1.953c-.004.082.039.176.117.203.11.04.254-.05.34.028.03.03.047.082.09.093.03.012.066-.007.097-.015s.078.004.082.035c-.02.004-.027.031-.02.047.008.02.024.035.036.05.047.063.015.157-.047.204-.059.047-.145.054-.219.054-.043 0-.094.004-.113.04-.008.019-.008.05-.024.066-.027.035-.082.008-.113-.024-.11-.093-.226-.207-.242-.351-.008-.07.012-.149-.004-.219-.016-.059-.058-.113-.07-.176-.024-.097.035-.285.133-.32.039.09-.04.191-.043.285m0 0" style="stroke:none;fill-rule:nonzero;fill:#bf7c43;fill-opacity:1"/><path d="M5.074 3.715a.38.38 0 0 0 .23.082c.133.012.274-.027.352-.133.078-.11.047-.289-.078-.332a.16.16 0 0 0 .156-.094.17.17 0 0 0-.043-.18.2.2 0 0 0 .215-.054.21.21 0 0 0 .04-.219c.081-.152-.032-.351-.196-.414-.16-.058-.34-.016-.504.043a.27.27 0 0 0-.207-.137.5.5 0 0 0-.25.051c-.258.121-.441.406-.406.688.02.175.137.34.293.425.078.043.191.032.254.067.074.039.062.14.144.207m0 0" style="stroke:none;fill-rule:nonzero;fill:#fcfed4;fill-opacity:1"/><use xlink:href="#ac" mask="url(#ab)"/><path d="M5.156 3.398a.22.22 0 0 1-.199.012.22.22 0 0 1-.121-.156c-.04.027-.098.012-.133-.024a.25.25 0 0 1-.047-.136c0-.051.016-.11.063-.133.058-.023.133.023.187-.012.043-.027.035-.094.02-.144-.016-.051-.035-.11-.008-.153.039-.058.137-.043.184.012s.062.129.097.188c.04.074.106.132.184.164.094.039.351.125.183.238-.054.039-.148.008-.21.023-.086.024-.126.078-.2.121m0 0" style="stroke:none;fill-rule:nonzero;fill:#ef9b53;fill-opacity:1"/><path d="M11.89 6.75H4.06s.828 7.684.828 7.719c0 .488 1.351 1.058 3.02 1.058 1.558 0 2.84-.527 3-.902h.019Zm0 0" style="stroke:none;fill-rule:nonzero;fill:#fff;fill-opacity:1"/><g clip-path="url(#ad)"><g clip-path="url(#ae)"><path d="m5.61 16.348-.758.007-1.34-10.253h1.105Zm0 0" style="stroke:none;fill-rule:nonzero;fill:#db0700;fill-opacity:1"/></g></g><g clip-path="url(#af)"><g clip-path="url(#ag)"><path d="m6.95 16.328-.755.012-.722-10.238h1.101Zm0 0" style="stroke:none;fill-rule:nonzero;fill:#db0700;fill-opacity:1"/></g></g><g clip-path="url(#ah)"><g clip-path="url(#ai)"><path d="m8.285 16.309-.75.011-.11-10.218h1.098Zm0 0" style="stroke:none;fill-rule:nonzero;fill:#db0700;fill-opacity:1"/></g></g><g clip-path="url(#aj)"><g clip-path="url(#ak)"><path d="m9.617 16.293-.75.008.5-10.2h1.094Zm0 0" style="stroke:none;fill-rule:nonzero;fill:#db0700;fill-opacity:1"/></g></g><g clip-path="url(#al)"><g clip-path="url(#am)"><path d="m10.945 16.273-.75.012 1.106-10.183h1.086Zm0 0" style="stroke:none;fill-rule:nonzero;fill:#db0700;fill-opacity:1"/></g></g><use xlink:href="#ao" mask="url(#an)"/><use xlink:href="#aq" mask="url(#ap)"/><path d="M7.984 7.348c-2.265 0-4.125-.485-4.324-1.098a.4.4 0 0 0-.02.11c0 .831 1.946 1.324 4.344 1.324s4.344-.543 4.344-1.325a.4.4 0 0 0-.015-.109c-.204.613-2.063 1.098-4.329 1.098m0 0" style="stroke:none;fill-rule:nonzero;fill:url(#ar)"/><path d="M7.848 3.05a.44.44 0 0 1 .59-.007c.16.144.18.422.042.59a.44.44 0 0 1 .407.285.394.394 0 0 1-.176.457.365.365 0 0 1-.469-.113c.082.11.008.277-.113.336s-.266.043-.395.007a.43.43 0 0 1-.226-.12c-.055-.067-.059-.184.015-.231-.101.05-.25-.02-.273-.133s.078-.234.195-.23c-.36.117-.343-.383-.215-.57.07-.102.157-.282.262-.344.074-.04.399.035.356.074m0 0" style="stroke:none;fill-rule:nonzero;fill:#fcfed4;fill-opacity:1"/><use xlink:href="#at" mask="url(#as)"/><path d="M5.11 3.863c-.223.028-.372.309-.27.504.101.2.414.242.566.082.063.172.176.34.348.403.168.066.398-.008.45-.184.058-.191-.102-.371-.247-.508.059-.035.133.008.176.055.047.05.086.113.148.133.07.02.145-.016.192-.07a.5.5 0 0 0 .078-.2c.023-.11.035-.23-.016-.328-.05-.102-.187-.164-.281-.105a.52.52 0 0 0 .098-.457c-.047-.153-.192-.282-.352-.286-.16-.007-.32.125-.328.29a.26.26 0 0 0-.305-.09c-.148.054-.012.32-.043.394-.058.145-.23.16-.215.367m0 0" style="stroke:none;fill-rule:nonzero;fill:#fcfed4;fill-opacity:1"/><use xlink:href="#av" mask="url(#au)"/><path d="M8.277 6.633c-.238.031-.398.332-.289.547s.45.265.614.09c.07.187.191.367.378.437.188.07.434-.012.493-.203.062-.207-.114-.406-.27-.55.063-.036.14.007.192.062.05.05.093.117.164.14.074.024.156-.015.207-.078a.5.5 0 0 0 .086-.215c.023-.12.035-.25-.02-.36-.055-.108-.203-.175-.305-.112a.57.57 0 0 0 .106-.496c-.051-.168-.207-.31-.383-.313-.176-.008-.352.137-.355.313a.305.305 0 0 0-.336-.098c-.16.062-.012.351-.043.433-.067.157-.25.176-.239.403m0 0" style="stroke:none;fill-rule:nonzero;fill:#fcfed4;fill-opacity:1"/><use xlink:href="#ax" mask="url(#aw)"/><path d="M5.59 3.844a.36.36 0 0 0 .242.293.27.27 0 0 0-.164.308c.027.125.16.215.285.2.012.21.164.406.367.468.2.059.438-.02.559-.191.18.094.43.035.547-.133a.44.44 0 0 0-.059-.562c.106-.063.153-.207.106-.32a.26.26 0 0 0-.301-.15.41.41 0 0 0-.18-.421.4.4 0 0 0-.457.035.37.37 0 0 0-.387-.203.37.37 0 0 0-.3.316c-.168-.027-.274.22-.258.36m0 0" style="stroke:none;fill-rule:nonzero;fill:#fcfed4;fill-opacity:1"/><use xlink:href="#az" mask="url(#ay)"/><path d="M3.492 5.535a.42.42 0 0 0 .215.293.43.43 0 0 0-.191.516c.07.187.293.3.484.25.047.097.14.164.246.18a.34.34 0 0 0 .285-.11c.125.074.305.04.395-.074a.324.324 0 0 0-.016-.406.24.24 0 0 0 .16-.215.23.23 0 0 0-.148-.219c-.09-.031-.188-.008-.277-.012-.094-.004-.2-.066-.196-.16.008-.144.266-.191.242-.336-.015-.074-.109-.11-.187-.101-.078.007-.152.043-.23.03-.083-.007-.153-.062-.231-.093-.29-.117-.602.152-.55.457m0 0" style="stroke:none;fill-rule:nonzero;fill:#fcfed4;fill-opacity:1"/><use xlink:href="#aB" mask="url(#aA)"/><path d="M3.453 4.809a.42.42 0 0 0-.004.367.43.43 0 0 0-.457.304.42.42 0 0 0 .242.489.33.33 0 0 0 .094.289c.078.07.192.101.293.078a.314.314 0 0 0 .363.176.33.33 0 0 0 .227-.34c.09.031.2 0 .258-.078a.23.23 0 0 0 .008-.266c-.051-.078-.145-.113-.215-.172-.074-.058-.125-.172-.063-.242.09-.113.328 0 .39-.129.036-.07-.019-.152-.089-.195-.066-.04-.148-.055-.203-.11-.063-.058-.086-.144-.129-.214-.168-.262-.578-.23-.715.043m0 0" style="stroke:none;fill-rule:nonzero;fill:#fcfed4;fill-opacity:1"/><use xlink:href="#aD" mask="url(#aC)"/><path d="M9.59 4.844a.58.58 0 0 0 .293.398.574.574 0 0 0-.258.692.57.57 0 0 0 .656.336.46.46 0 0 0 .34.242c.14.015.293-.04.387-.149a.426.426 0 0 0 .535-.097.43.43 0 0 0-.023-.547.32.32 0 0 0 .218-.29.31.31 0 0 0-.203-.296c-.117-.043-.25-.008-.379-.016-.125-.008-.27-.086-.265-.21.011-.196.363-.259.332-.454-.02-.105-.149-.148-.254-.137-.11.012-.211.055-.317.043-.113-.011-.207-.09-.316-.132-.387-.153-.816.207-.746.617m0 0" style="stroke:none;fill-rule:nonzero;fill:#fcfed4;fill-opacity:1"/><use xlink:href="#aF" mask="url(#aE)"/><path d="M3.684 4.957c.02.121.105.234.214.293a.42.42 0 0 0-.191.508c.07.183.293.297.484.246.047.094.141.164.247.176a.34.34 0 0 0 .285-.11.316.316 0 0 0 .394-.07.32.32 0 0 0-.015-.402.24.24 0 0 0 .16-.211.23.23 0 0 0-.153-.219c-.086-.031-.183-.008-.273-.012-.094-.004-.2-.062-.195-.156.007-.145.265-.187.242-.332-.016-.078-.11-.11-.188-.102-.078.012-.152.043-.23.036-.082-.012-.152-.067-.23-.098-.29-.113-.602.152-.551.453m0 0" style="stroke:none;fill-rule:nonzero;fill:#fcfed4;fill-opacity:1"/><use xlink:href="#aH" mask="url(#aG)"/><path d="M4.84 3.14a.41.41 0 0 0-.164.325.42.42 0 0 0-.535.062.42.42 0 0 0 0 .543.32.32 0 0 0-.047.297c.035.102.125.18.226.207a.32.32 0 0 0 .246.317.314.314 0 0 0 .348-.196.24.24 0 0 0 .262.047.23.23 0 0 0 .125-.234c-.012-.09-.074-.164-.114-.25-.039-.086-.035-.207.047-.246.133-.059.293.152.407.066.062-.047.046-.148.004-.21-.04-.067-.106-.118-.133-.192-.028-.078-.012-.168-.02-.25-.031-.309-.41-.469-.652-.285m0 0" style="stroke:none;fill-rule:nonzero;fill:#fcfed4;fill-opacity:1"/><use xlink:href="#aJ" mask="url(#aI)"/><path d="M4.18 3.14a.42.42 0 0 0-.16.325.42.42 0 0 0-.54.062.42.42 0 0 0 0 .543.32.32 0 0 0-.042.297c.035.102.12.18.222.207a.32.32 0 0 0 .246.317c.145.03.301-.059.352-.196a.23.23 0 0 0 .258.047.24.24 0 0 0 .129-.234c-.012-.09-.079-.164-.118-.25s-.035-.207.051-.246c.129-.059.29.152.406.066.063-.047.047-.148.004-.21-.043-.067-.105-.118-.133-.192-.03-.078-.011-.168-.023-.25-.031-.309-.41-.469-.652-.285m0 0" style="stroke:none;fill-rule:nonzero;fill:#fcfed4;fill-opacity:1"/><use xlink:href="#aL" mask="url(#aK)"/><path d="M4.895 5.508a.35.35 0 0 0-.11.305.38.38 0 0 0-.476.109.38.38 0 0 0 .054.48.31.31 0 0 0-.008.27.3.3 0 0 0 .223.16.28.28 0 0 0 .25.258.28.28 0 0 0 .29-.211.21.21 0 0 0 .237.016.21.21 0 0 0 .086-.22c-.02-.081-.086-.14-.128-.21-.043-.074-.051-.184.019-.223.113-.066.277.106.367.016.051-.047.028-.133-.015-.188s-.106-.093-.137-.156c-.035-.066-.031-.148-.043-.219-.059-.273-.41-.375-.61-.187m0 0" style="stroke:none;fill-rule:nonzero;fill:#fcfed4;fill-opacity:1"/><use xlink:href="#aN" mask="url(#aM)"/><path d="M7.895 5.852a.35.35 0 0 0-.11.304.38.38 0 0 0-.476.11.38.38 0 0 0 .054.48.31.31 0 0 0-.008.27.3.3 0 0 0 .223.16.28.28 0 0 0 .25.258.28.28 0 0 0 .29-.211.21.21 0 0 0 .237.015.21.21 0 0 0 .086-.218c-.02-.082-.086-.141-.129-.211-.042-.075-.05-.184.02-.223.113-.066.277.105.367.016.051-.047.028-.133-.015-.188s-.106-.094-.137-.156c-.035-.067-.031-.149-.043-.219-.059-.273-.41-.375-.61-.187m0 0" style="stroke:none;fill-rule:nonzero;fill:#fcfed4;fill-opacity:1"/><use xlink:href="#aP" mask="url(#aO)"/><path d="M8.027 5.191a.36.36 0 0 0-.109.305.38.38 0 0 0-.477.11.375.375 0 0 0 .055.48.32.32 0 0 0-.008.273.3.3 0 0 0 .219.157.28.28 0 0 0 .25.257.284.284 0 0 0 .293-.207c.066.051.164.059.234.012a.2.2 0 0 0 .09-.219c-.02-.078-.086-.14-.129-.21s-.05-.18.02-.223c.113-.067.273.105.367.02.05-.051.027-.137-.016-.192-.046-.05-.105-.094-.14-.156-.031-.067-.028-.145-.04-.22-.058-.273-.41-.374-.609-.187m0 0" style="stroke:none;fill-rule:nonzero;fill:#fcfed4;fill-opacity:1"/><use xlink:href="#aR" mask="url(#aQ)"/><path d="M8.61 4.516a.36.36 0 0 0-.11.304.38.38 0 0 0-.477.11.385.385 0 0 0 .055.484.31.31 0 0 0-.008.27.32.32 0 0 0 .223.16.28.28 0 0 0 .25.258.29.29 0 0 0 .289-.211.21.21 0 0 0 .238.015.22.22 0 0 0 .086-.222c-.02-.079-.086-.137-.129-.211-.043-.07-.05-.18.02-.223.113-.062.277.11.367.02.05-.047.027-.137-.016-.192-.043-.05-.105-.094-.136-.156-.035-.067-.028-.145-.043-.219-.059-.27-.41-.375-.61-.187m0 0" style="stroke:none;fill-rule:nonzero;fill:#fcfed4;fill-opacity:1"/><use xlink:href="#aT" mask="url(#aS)"/><path d="M5.8 5.566a.37.37 0 0 0-.112.305.38.38 0 0 0-.473.11.375.375 0 0 0 .055.48.3.3 0 0 0-.008.273c.039.082.129.145.218.157a.29.29 0 0 0 .25.257.286.286 0 0 0 .293-.21.2.2 0 0 0 .235.015.21.21 0 0 0 .09-.219c-.02-.082-.086-.14-.13-.21-.042-.07-.05-.184.02-.223.114-.067.274.105.367.015.051-.046.028-.132-.015-.187-.047-.055-.106-.094-.14-.156-.032-.067-.028-.145-.044-.22a.37.37 0 0 0-.605-.187m0 0" style="stroke:none;fill-rule:nonzero;fill:#fcfed4;fill-opacity:1"/><use xlink:href="#aV" mask="url(#aU)"/><path d="M5.781 5.703a.4.4 0 0 0-.12.332.41.41 0 0 0-.516.117.41.41 0 0 0 .058.52.31.31 0 0 0-.008.293c.043.094.137.16.239.172.007.14.128.265.27.277.14.012.28-.09.312-.226.07.058.18.066.257.015a.23.23 0 0 0 .098-.238c-.023-.086-.094-.149-.14-.227s-.055-.195.023-.242c.121-.07.293.113.394.02.055-.055.032-.149-.015-.207-.047-.059-.117-.102-.149-.168-.039-.07-.03-.157-.046-.239-.063-.289-.442-.398-.657-.199m0 0" style="stroke:none;fill-rule:nonzero;fill:#fcfed4;fill-opacity:1"/><use xlink:href="#aX" mask="url(#aW)"/><path d="M5.941 4.566a.36.36 0 0 0-.109.305.376.376 0 0 0-.473.11.37.37 0 0 0 .055.48.3.3 0 0 0-.012.273.3.3 0 0 0 .223.157.28.28 0 0 0 .25.257.28.28 0 0 0 .29-.21.2.2 0 0 0 .324-.203c-.02-.083-.087-.141-.13-.212-.039-.07-.05-.183.024-.222.11-.067.273.105.363.015.05-.046.027-.132-.016-.187s-.105-.094-.136-.156c-.035-.067-.028-.145-.043-.22-.059-.273-.41-.374-.61-.187m0 0" style="stroke:none;fill-rule:nonzero;fill:#fcfed4;fill-opacity:1"/><use xlink:href="#aZ" mask="url(#aY)"/><path d="M7.563 4.09a.36.36 0 0 0-.11.305.38.38 0 0 0-.476.109.375.375 0 0 0 .054.48.3.3 0 0 0-.008.274.3.3 0 0 0 .22.156.28.28 0 0 0 .25.258.28.28 0 0 0 .292-.211.2.2 0 0 0 .235.016.2.2 0 0 0 .09-.22c-.02-.081-.087-.14-.13-.21s-.05-.184.02-.223c.113-.066.273.106.367.016.051-.047.028-.133-.015-.188-.047-.054-.106-.093-.141-.156-.031-.066-.027-.144-.04-.219a.372.372 0 0 0-.608-.187m0 0" style="stroke:none;fill-rule:nonzero;fill:#fcfed4;fill-opacity:1"/><use xlink:href="#bb" mask="url(#ba)"/><path d="M10.469 3.66a.38.38 0 0 0-.114.305.38.38 0 0 0-.472.11.375.375 0 0 0 .055.48.287.287 0 0 0 .21.43.28.28 0 0 0 .25.257.29.29 0 0 0 .293-.207c.063.05.164.059.235.012a.21.21 0 0 0 .09-.219c-.02-.078-.086-.14-.13-.21-.042-.071-.05-.18.02-.223.11-.067.274.105.367.02.051-.052.028-.138-.015-.192-.047-.051-.11-.094-.14-.157-.036-.066-.028-.144-.044-.218a.37.37 0 0 0-.605-.188m0 0" style="stroke:none;fill-rule:nonzero;fill:#dee0bb;fill-opacity:1"/><use xlink:href="#bd" mask="url(#bc)"/><path d="M10.734 3.719a.36.36 0 0 0-.293-.137.376.376 0 0 0-.07-.48.37.37 0 0 0-.484.011.31.31 0 0 0-.27-.031.3.3 0 0 0-.176.207.28.28 0 0 0-.277.227.28.28 0 0 0 .184.308.21.21 0 0 0-.036.235c.04.078.13.12.211.109.082-.016.149-.074.223-.113.074-.035.184-.035.219.039.055.117-.13.265-.047.363.043.059.133.04.191 0 .055-.039.102-.098.164-.125.07-.027.149-.016.223-.023a.37.37 0 0 0 .238-.59m0 0" style="stroke:none;fill-rule:nonzero;fill:#dee0bb;fill-opacity:1"/><use xlink:href="#bf" mask="url(#be)"/><path d="M12.055 3.98a.38.38 0 0 0-.297-.136.38.38 0 0 0-.07-.48.38.38 0 0 0-.485.015.288.288 0 0 0-.445.176.284.284 0 0 0-.278.226.286.286 0 0 0 .188.309.21.21 0 0 0-.035.234c.039.074.129.121.21.106.083-.012.145-.075.22-.11.078-.035.183-.035.222.04.055.117-.129.261-.05.363.046.054.132.039.19 0 .06-.043.102-.102.169-.125.07-.032.148-.016.222-.024.278-.039.407-.379.239-.594m0 0" style="stroke:none;fill-rule:nonzero;fill:#dee0bb;fill-opacity:1"/><use xlink:href="#bh" mask="url(#bg)"/><path d="M8.89 2.398a.38.38 0 0 0-.296-.136.376.376 0 0 0-.07-.48.37.37 0 0 0-.485.015.288.288 0 0 0-.445.176.28.28 0 0 0-.278.226.29.29 0 0 0 .184.309.21.21 0 0 0-.035.234c.039.074.129.117.21.106.087-.016.15-.075.223-.11.075-.035.184-.035.22.04.054.113-.126.261-.048.363.043.054.133.039.192 0 .058-.043.101-.102.168-.125.07-.032.148-.016.222-.028.274-.035.407-.379.239-.59m0 0" style="stroke:none;fill-rule:nonzero;fill:#dee0bb;fill-opacity:1"/><use xlink:href="#bj" mask="url(#bi)"/><path d="M9.547 1.61a.35.35 0 0 0-.293-.137.38.38 0 0 0-.07-.485.38.38 0 0 0-.485.016.31.31 0 0 0-.27-.031.3.3 0 0 0-.175.207.28.28 0 0 0-.277.226.284.284 0 0 0 .183.309.21.21 0 0 0-.035.234c.04.074.129.121.21.106.087-.012.15-.07.224-.11.074-.035.183-.035.218.04.055.117-.125.265-.047.363.043.054.133.039.192 0 .058-.04.101-.098.168-.125.07-.028.148-.016.223-.024.273-.039.406-.379.234-.59m0 0" style="stroke:none;fill-rule:nonzero;fill:#dee0bb;fill-opacity:1"/><use xlink:href="#bl" mask="url(#bk)"/><path d="M11.133 3.059a.37.37 0 0 0-.297-.137.376.376 0 0 0-.07-.48.38.38 0 0 0-.485.011.31.31 0 0 0-.27-.031.3.3 0 0 0-.175.207.284.284 0 0 0-.277.23.28.28 0 0 0 .183.305.22.22 0 0 0-.035.234.21.21 0 0 0 .215.11c.082-.016.144-.074.219-.113.074-.036.183-.036.218.039.059.117-.125.265-.046.363.046.058.132.039.19 0 .06-.04.102-.098.169-.125.07-.027.148-.016.223-.024.277-.035.406-.378.238-.59m0 0" style="stroke:none;fill-rule:nonzero;fill:#dee0bb;fill-opacity:1"/><use xlink:href="#bn" mask="url(#bm)"/><path d="M10.21 2.652A.41.41 0 0 0 9.88 2.5a.434.434 0 0 0-.078-.547.426.426 0 0 0-.551.02.326.326 0 0 0-.504.199.32.32 0 0 0-.316.254.33.33 0 0 0 .21.351.23.23 0 0 0-.038.266.23.23 0 0 0 .238.121c.094-.016.168-.086.254-.125.082-.043.207-.043.25.043.062.133-.145.3-.055.414.05.059.149.043.215-.004.066-.043.117-.11.191-.14.078-.032.168-.016.25-.028.313-.043.461-.43.266-.672m0 0" style="stroke:none;fill-rule:nonzero;fill:#dee0bb;fill-opacity:1"/><use xlink:href="#bp" mask="url(#bo)"/><path d="M9.734 3.758a.36.36 0 0 0-.277-.168.37.37 0 0 0-.012-.485.38.38 0 0 0-.484-.042A.29.29 0 0 0 8.699 3a.29.29 0 0 0-.199.188.286.286 0 0 0-.305.19.29.29 0 0 0 .149.329.21.21 0 0 0-.059.227.2.2 0 0 0 .2.132c.081-.003.152-.058.23-.086s.187-.015.215.067c.039.121-.16.246-.09.355.039.059.129.051.187.02.063-.031.114-.086.18-.106.074-.02.152.004.227.004.277-.004.445-.332.3-.562m0 0" style="stroke:none;fill-rule:nonzero;fill:#dee0bb;fill-opacity:1"/><use xlink:href="#br" mask="url(#bq)"/><path d="M9.84 7.445a.37.37 0 0 0 .164-.28c.137.108.36.097.484-.028a.38.38 0 0 0 .028-.485.3.3 0 0 0 .054-.265.3.3 0 0 0-.191-.192.28.28 0 0 0-.203-.297.28.28 0 0 0-.32.157A.21.21 0 0 0 9.624 6a.205.205 0 0 0-.125.203c.004.082.059.152.09.227.031.078.02.187-.059.218-.117.043-.25-.152-.36-.082-.058.04-.046.13-.015.192.035.062.09.11.11.176.023.074.004.148.007.226.012.277.34.438.567.285m0 0" style="stroke:none;fill-rule:nonzero;fill:#fcfed4;fill-opacity:1"/><use xlink:href="#bt" mask="url(#bs)"/><path d="M10.313 5.258a.38.38 0 0 0-.32.07.37.37 0 0 0-.345-.344.375.375 0 0 0-.378.305.3.3 0 0 0-.235.137.3.3 0 0 0-.015.273.28.28 0 0 0-.082.348.28.28 0 0 0 .332.133.21.21 0 0 0 .117.207c.074.035.172.02.23-.043.059-.059.074-.149.113-.223.036-.074.125-.14.196-.101.117.058.058.285.183.316.067.02.13-.047.153-.113.023-.067.023-.141.058-.203.04-.063.11-.098.16-.153.196-.191.094-.543-.168-.61m0 0" style="stroke:none;fill-rule:nonzero;fill:#fcfed4;fill-opacity:1"/><use xlink:href="#bv" mask="url(#bu)"/><path d="M11.215 4c-.074-.062-.152-.129-.246-.156-.094-.031-.207-.016-.274.054-.054.063-.062.153-.113.22-.059.081-.164.112-.262.136-.097.023-.203.047-.273.117s-.082.211.004.262c.07.035.101.117.105.191.004.078-.015.153-.011.23a.45.45 0 0 0 .445.41c.07 0 .14-.019.191-.07.051-.046.074-.128.043-.19-.023-.048-.066-.079-.101-.118-.036-.04-.063-.098-.032-.14.036-.048.114-.036.157.007.043.04.066.102.097.149.117.168.41.156.516-.02a.22.22 0 0 0 .242.195.22.22 0 0 0 .188-.25c.046.125.199.188.324.153a.38.38 0 0 0 .25-.278.6.6 0 0 0-.059-.382c-.047-.094-.125-.204-.234-.223-.164-.031-.156.105-.274.152-.191.078-.543-.336-.683-.449m0 0" style="stroke:none;fill-rule:nonzero;fill:#dee0bb;fill-opacity:1"/><use xlink:href="#bx" mask="url(#bw)"/><path d="M11.004 4.035c.027.04.05.098.012.13-.016.01-.043.01-.063.022-.047.024-.039.094-.004.13.04.03.094.035.145.03.047-.003.101-.011.148 0 .051.012.094.06.086.106-.004.059-.074.098-.062.156.004.04.05.067.05.106.004.039-.039.066-.074.066a.2.2 0 0 1-.101-.047c-.063-.043-.118-.09-.184-.125a.32.32 0 0 0-.215-.03c-.07.023-.133.093-.12.167.003.035.023.066.023.102.003.035-.024.074-.06.066-.019-.004-.034-.027-.042-.05-.04-.079-.168-.25-.152-.34.02-.106.074-.083.148-.133.043-.032.395-.457.465-.356m0 0" style="stroke:none;fill-rule:nonzero;fill:#ef9b53;fill-opacity:1"/><path d="M6.293 3.195a.4.4 0 0 0-.043.243c.012.128.078.265.195.32.117.058.29-.004.313-.133a.15.15 0 0 0 .117.137.16.16 0 0 0 .168-.07.21.21 0 0 0 .094.203.21.21 0 0 0 .222 0c.164.058.344-.09.375-.262.032-.168-.043-.34-.125-.492a.27.27 0 0 0 .094-.227.5.5 0 0 0-.09-.238c-.16-.23-.472-.364-.746-.281a.58.58 0 0 0-.37.363c-.032.082.003.191-.024.262-.028.078-.13.085-.18.175m0 0" style="stroke:none;fill-rule:nonzero;fill:#fcfed4;fill-opacity:1"/><use xlink:href="#bz" mask="url(#by)"/><path d="M6.617 3.223c-.043-.055-.062-.13-.043-.192a.22.22 0 0 1 .13-.148c-.032-.035-.028-.094.003-.137a.2.2 0 0 1 .125-.066c.05-.012.113-.008.14.035.036.055 0 .137.044.183.039.04.101.02.148-.003.047-.024.102-.055.149-.032.066.028.062.125.015.184-.043.055-.113.082-.168.125a.34.34 0 0 0-.129.207c-.023.101-.062.367-.203.223-.047-.047-.031-.145-.058-.204-.036-.082-.098-.109-.153-.175m0 0" style="stroke:none;fill-rule:nonzero;fill:#ef9b53;fill-opacity:1"/><path d="M5.5 2.668c-.04.07-.05.16-.043.242.016.133.078.266.195.324.118.055.29-.004.313-.132a.16.16 0 0 0 .12.132.16.16 0 0 0 .169-.07.21.21 0 0 0 .09.203c.066.043.16.043.226 0 .16.059.34-.09.371-.258.032-.171-.039-.343-.125-.492.07-.05.102-.14.098-.226a.47.47 0 0 0-.094-.239c-.16-.234-.472-.367-.742-.285a.58.58 0 0 0-.375.363c-.027.083.004.192-.02.262-.027.078-.132.086-.183.176m0 0" style="stroke:none;fill-rule:nonzero;fill:#fcfed4;fill-opacity:1"/><use xlink:href="#bB" mask="url(#bA)"/><path d="M5.824 2.695c-.043-.054-.058-.129-.043-.191a.23.23 0 0 1 .133-.149c-.031-.035-.027-.093.004-.136.027-.04.078-.059.125-.067.05-.011.11-.007.137.035.035.055 0 .137.047.184.035.04.097.02.144-.004.047-.023.102-.054.149-.031.066.027.062.125.02.18-.048.058-.114.086-.169.129a.37.37 0 0 0-.133.207c-.023.101-.058.367-.203.222-.047-.047-.027-.144-.055-.203-.039-.082-.097-.11-.156-.176m0 0" style="stroke:none;fill-rule:nonzero;fill:#ef9b53;fill-opacity:1"/><path d="M9.672 5.813c-.04.074-.05.16-.04.246.013.128.075.265.192.32s.29-.004.313-.133a.16.16 0 0 0 .12.137.16.16 0 0 0 .169-.074.22.22 0 0 0 .09.207c.066.039.16.039.226 0 .16.058.34-.094.371-.262.032-.172-.039-.34-.125-.492.07-.051.102-.14.098-.227a.5.5 0 0 0-.094-.238c-.16-.234-.472-.363-.742-.281a.58.58 0 0 0-.375.363c-.027.078.004.191-.02.262-.027.074-.132.086-.183.172m0 0" style="stroke:none;fill-rule:nonzero;fill:#dee0bb;fill-opacity:1"/><use xlink:href="#bD" mask="url(#bC)"/><path d="M9.996 5.84c-.043-.05-.059-.125-.043-.192a.22.22 0 0 1 .133-.144c-.031-.035-.027-.098.004-.137.027-.039.078-.058.125-.07.05-.008.113-.004.14.039.036.055-.003.137.043.184.036.035.098.02.149-.004.047-.024.098-.055.148-.032.063.028.063.125.016.18-.043.055-.113.082-.168.129A.37.37 0 0 0 10.41 6c-.02.102-.058.367-.203.223-.047-.051-.027-.145-.055-.203-.035-.082-.097-.114-.156-.18m0 0" style="stroke:none;fill-rule:nonzero;fill:#ef9b53;fill-opacity:1"/><path d="M6.148 6.719c-.039.07-.05.16-.043.242.012.133.079.266.196.324.117.055.289-.004.312-.133.004.063.059.121.121.137a.16.16 0 0 0 .164-.074.22.22 0 0 0 .094.203.21.21 0 0 0 .223 0c.164.059.344-.09.375-.258.031-.172-.043-.34-.125-.492a.26.26 0 0 0 .094-.227.5.5 0 0 0-.09-.238c-.16-.234-.473-.367-.746-.285a.58.58 0 0 0-.371.363c-.028.082.003.192-.024.262-.023.078-.129.086-.18.176m0 0" style="stroke:none;fill-rule:nonzero;fill:#fcfed4;fill-opacity:1"/><use xlink:href="#bF" mask="url(#bE)"/><path d="M6.473 6.746c-.043-.05-.059-.125-.043-.191a.22.22 0 0 1 .133-.145c-.032-.039-.028-.098.003-.137a.2.2 0 0 1 .125-.07c.051-.008.11-.004.137.04.035.054 0 .136.047.179.035.039.098.023.145 0 .046-.027.101-.055.152-.035.062.031.062.129.016.183-.047.055-.114.082-.168.125a.38.38 0 0 0-.133.211c-.024.098-.059.367-.203.223-.047-.05-.028-.145-.055-.203-.04-.082-.102-.114-.156-.18m0 0" style="stroke:none;fill-rule:nonzero;fill:#ef9b53;fill-opacity:1"/><path d="M4.21 4.473c-.038.215.056.43.165.617.063.098.133.203.242.246.11.043.258-.004.285-.117.075.082.149.164.243.218.093.055.21.079.308.036.121-.055.184-.188.234-.309q.075-.193.157-.379c.062-.152.125-.312.101-.476a.51.51 0 0 0-.398-.403.62.62 0 0 0-.555.16c0 .004-.23-.011-.265-.003-.063.019-.141.042-.2.062-.16.059-.285.176-.316.348m0 0" style="stroke:none;fill-rule:nonzero;fill:#fcfed4;fill-opacity:1"/><use xlink:href="#bH" mask="url(#bG)"/><path d="M5.027 4.36c-.004.038.051.054.094.05.04-.004.094-.004.106.035.007.035-.028.075-.008.106.011.02.039.023.054.039.02.02.012.055-.003.078-.02.023-.043.035-.067.05-.113.083-.152.231-.183.364.082.023.18-.039.187-.125.004-.016.004-.035.012-.05.011-.016.031-.024.047-.012.015.015-.004.043-.008.066-.008.05.074.074.11.039.034-.035.03-.098.019-.145-.016-.05-.043-.097-.04-.152.005-.05.051-.101.102-.09.063.02.059.114.106.157.039.03.105.015.136-.028.028-.039.024-.101-.003-.144a.24.24 0 0 0-.122-.094c-.05-.02-.125-.031-.168-.066-.054-.047-.039-.145-.074-.172-.035-.036-.293.046-.297.093m0 0" style="stroke:none;fill-rule:nonzero;fill:#bf7c43;fill-opacity:1"/><path d="M10.77 6.102c-.02.191.136.398.328.378a.28.28 0 0 0 .187.243.27.27 0 0 0 .293-.09c.055.11.223.12.313.039.093-.082.109-.223.074-.34.105.137.32.168.457.07a.347.347 0 0 0 .09-.457.44.44 0 0 0-.028-.394.44.44 0 0 0-.343-.2.57.57 0 0 0-.645-.265c-.242.07-.332.27-.39.488-.036.133-.06.121-.168.223a.5.5 0 0 0-.168.305m0 0" style="stroke:none;fill-rule:nonzero;fill:#dee0bb;fill-opacity:1"/><use xlink:href="#bJ" mask="url(#bI)"/><path d="M11.426 5.95c.066.05.164.066.234.019.094-.067.106-.235.219-.258.043-.008.094.008.129-.02.027-.023.031-.058.043-.09.015-.03.047-.062.078-.046-.012.02.008.039.027.047.02.003.04-.004.059-.004.078 0 .14.078.14.156a.34.34 0 0 1-.082.215c-.023.031-.05.074-.03.11.01.023.034.038.038.062.012.043-.043.066-.082.078-.144.035-.3.066-.43-.004-.062-.04-.113-.098-.18-.125-.058-.02-.128-.016-.187-.043-.09-.04-.21-.195-.183-.293.097.016.133.137.207.195m0 0" style="stroke:none;fill-rule:nonzero;fill:#bf7c43;fill-opacity:1"/><path d="M10.082 6.352c-.023.191.137.398.328.378a.27.27 0 0 0 .48.152c.055.11.223.122.313.04.094-.082.11-.223.074-.34.102.137.32.168.457.07a.346.346 0 0 0 .086-.457.43.43 0 0 0-.027-.394.43.43 0 0 0-.34-.2.57.57 0 0 0-.648-.265c-.239.07-.328.27-.387.488-.04.133-.059.121-.168.223a.48.48 0 0 0-.168.305m0 0" style="stroke:none;fill-rule:nonzero;fill:#dee0bb;fill-opacity:1"/><use xlink:href="#bL" mask="url(#bK)"/><path d="M10.734 6.195c.067.051.168.07.239.024.093-.07.105-.239.218-.262.043-.008.094.008.13-.02.027-.019.03-.054.042-.085s.047-.063.078-.047c-.011.015.008.039.028.043.02.007.039 0 .058 0 .078 0 .137.078.141.156s-.04.148-.082.21c-.024.036-.05.079-.035.114.011.024.035.035.043.063.011.039-.043.066-.086.078-.14.031-.297.066-.426-.008-.062-.035-.113-.094-.184-.121-.058-.024-.125-.02-.183-.043-.09-.04-.215-.195-.188-.293.098.012.133.137.207.191m0 0" style="stroke:none;fill-rule:nonzero;fill:#bf7c43;fill-opacity:1"/><path d="M11.344 5.621c-.153-.035-.332.078-.332.23a.22.22 0 0 0-.211.133.22.22 0 0 0 .05.243c-.093.03-.117.168-.062.246.059.082.172.105.266.086a.28.28 0 0 0-.09.363.275.275 0 0 0 .36.105.35.35 0 0 0 .316.012.35.35 0 0 0 .187-.258.46.46 0 0 0 .27-.496c-.04-.2-.188-.289-.36-.355-.105-.04-.093-.055-.164-.153a.4.4 0 0 0-.23-.156m0 0" style="stroke:none;fill-rule:nonzero;fill:#dee0bb;fill-opacity:1"/><use xlink:href="#bN" mask="url(#bM)"/><path d="M11.41 6.16c-.047.047-.07.125-.035.184.047.082.18.105.191.199.004.035-.015.074.004.105.016.024.043.032.07.043.024.012.044.043.028.067-.012-.012-.031 0-.035.015-.008.02-.004.036-.004.051-.008.063-.074.102-.137.098a.28.28 0 0 1-.164-.082c-.027-.024-.058-.047-.09-.035-.015.008-.031.023-.05.027-.036.008-.051-.039-.055-.074-.016-.117-.028-.242.039-.34.031-.05.086-.086.113-.137.024-.047.024-.101.05-.144.04-.07.173-.157.25-.125-.023.074-.12.093-.175.148m0 0" style="stroke:none;fill-rule:nonzero;fill:#bf7c43;fill-opacity:1"/><path d="M8.078 6.207c-.02.191.14.398.332.379.004.11.082.21.188.242a.27.27 0 0 0 .293-.09c.05.11.218.121.312.04.09-.079.11-.223.07-.337a.35.35 0 0 0 .461.067.35.35 0 0 0 .086-.457.44.44 0 0 0-.027-.395.45.45 0 0 0-.344-.199.56.56 0 0 0-.644-.266c-.239.075-.332.27-.39.489-.036.136-.056.12-.169.222a.53.53 0 0 0-.168.305m0 0" style="stroke:none;fill-rule:nonzero;fill:#fcfed4;fill-opacity:1"/><use xlink:href="#bP" mask="url(#bO)"/><path d="M9.086 5.758a.4.4 0 0 1-.063.02c-.07.011-.136-.012-.203-.012-.136.004-.261.101-.37.187-.032.027-.067.07-.044.098.016.015.043.015.059.027.031.016.023.063.015.094-.015.066-.02.14.012.195.031.055.113.086.18.055a.2.2 0 0 1 .05-.031c.02-.004.044.004.04.023.031-.004.05-.043.047-.07 0-.028-.012-.055.004-.082.019-.04.07-.051.105-.074.09-.07.031-.2.09-.29a.17.17 0 0 1 .07-.066q.007-.034.008-.074m0 0" style="stroke:none;fill-rule:nonzero;fill:#bf7c43;fill-opacity:1"/><path d="M5.969 5.813c-.02.19.14.398.328.378a.28.28 0 0 0 .187.243.27.27 0 0 0 .293-.09c.055.11.223.12.317.039.09-.082.11-.223.07-.336.106.133.32.164.461.066a.35.35 0 0 0 .086-.457.44.44 0 0 0-.027-.394.44.44 0 0 0-.344-.2.56.56 0 0 0-.645-.265c-.242.07-.332.27-.39.488-.035.137-.059.121-.168.223a.53.53 0 0 0-.168.305m0 0" style="stroke:none;fill-rule:nonzero;fill:#fcfed4;fill-opacity:1"/><use xlink:href="#bR" mask="url(#bQ)"/><path d="M6.977 5.363q-.035.013-.063.02c-.07.008-.137-.012-.207-.012-.133.004-.258.102-.367.188-.031.027-.067.07-.043.097.016.016.043.016.058.024.032.02.024.062.016.097-.016.067-.02.141.012.196a.14.14 0 0 0 .18.05c.015-.007.03-.02.05-.027.02-.004.043.004.04.02.03 0 .05-.04.046-.067 0-.027-.011-.058.004-.086.02-.035.07-.047.106-.07.086-.07.03-.2.086-.29a.2.2 0 0 1 .074-.066q.007-.033.008-.074m0 0" style="stroke:none;fill-rule:nonzero;fill:#bf7c43;fill-opacity:1"/><path d="M7.031 4.828c-.02.188.14.395.328.379a.28.28 0 0 0 .188.242.28.28 0 0 0 .293-.094c.055.11.223.125.316.043.09-.082.11-.222.07-.34a.35.35 0 0 0 .461.07.35.35 0 0 0 .086-.456.44.44 0 0 0-.027-.395.43.43 0 0 0-.344-.199.565.565 0 0 0-.644-.27c-.242.075-.332.27-.39.489-.036.137-.06.125-.169.226a.52.52 0 0 0-.168.305m0 0" style="stroke:none;fill-rule:nonzero;fill:#fcfed4;fill-opacity:1"/><use xlink:href="#bT" mask="url(#bS)"/><path d="M7.688 4.672c.066.05.167.07.234.023.098-.07.105-.238.219-.261.046-.008.097.007.132-.02.024-.02.032-.055.043-.086.012-.031.047-.062.075-.047-.008.016.007.04.03.043.02.004.04 0 .06 0 .078 0 .136.078.14.156 0 .079-.039.149-.082.211-.023.036-.055.075-.035.114.012.023.035.035.043.058.008.043-.043.07-.086.082-.14.032-.297.067-.426-.008-.062-.035-.113-.093-.183-.12-.059-.024-.125-.02-.184-.044-.09-.039-.215-.195-.188-.293.098.012.133.133.207.192m0 0" style="stroke:none;fill-rule:nonzero;fill:#bf7c43;fill-opacity:1"/><path d="M10.145 4.621c.085-.137.035-.355-.118-.41a.24.24 0 0 0-.054-.254.23.23 0 0 0-.258-.031c-.004-.106-.13-.176-.227-.145-.097.028-.164.133-.175.235a.3.3 0 0 0-.329-.22.3.3 0 0 0-.23.321.37.37 0 0 0-.117.317.35.35 0 0 0 .191.273.48.48 0 0 0 .399.438c.21.03.351-.086.476-.235.074-.094.086-.074.207-.113a.43.43 0 0 0 .235-.176m0 0" style="stroke:none;fill-rule:nonzero;fill:#dee0bb;fill-opacity:1"/><use xlink:href="#bV" mask="url(#bU)"/><path d="M9.586 4.508c-.031-.067-.102-.117-.172-.102-.098.016-.164.145-.262.121-.035-.007-.07-.039-.105-.03-.031.007-.047.034-.067.054-.023.02-.058.031-.074.008.012-.012.008-.036-.008-.043-.011-.012-.03-.016-.043-.024-.062-.023-.078-.11-.054-.168a.3.3 0 0 1 .14-.133c.032-.02.067-.043.067-.078 0-.02-.016-.039-.012-.058.008-.035.059-.04.094-.032.12.028.254.059.328.157.035.05.05.117.094.16.039.039.09.058.129.101.054.063.093.227.035.29-.067-.047-.051-.153-.09-.223m0 0" style="stroke:none;fill-rule:nonzero;fill:#bf7c43;fill-opacity:1"/><path d="M7.652 2.922c-.02.187.137.398.328.379a.27.27 0 0 0 .48.152c.056.11.224.121.313.04.094-.083.11-.223.075-.34.105.136.32.167.457.07a.346.346 0 0 0 .086-.457.42.42 0 0 0-.028-.395.42.42 0 0 0-.34-.2.57.57 0 0 0-.644-.265c-.242.07-.332.266-.39.489-.036.132-.06.12-.169.222a.48.48 0 0 0-.168.305m0 0" style="stroke:none;fill-rule:nonzero;fill:#dee0bb;fill-opacity:1"/><use xlink:href="#bX" mask="url(#bW)"/><path d="M8.309 2.766c.066.054.164.07.234.023.094-.066.105-.238.219-.258.043-.011.093.008.129-.02.027-.023.03-.058.043-.09.015-.03.046-.062.078-.046-.012.016.008.04.027.047.02.004.04-.004.059-.004.078 0 .136.078.14.156a.34.34 0 0 1-.082.215c-.023.031-.05.074-.031.11.012.023.035.038.04.062.01.043-.044.066-.087.078-.14.035-.297.066-.426-.004-.062-.039-.113-.098-.18-.125-.058-.02-.128-.02-.187-.043-.09-.039-.21-.195-.183-.293.093.016.132.137.207.192m0 0" style="stroke:none;fill-rule:nonzero;fill:#bf7c43;fill-opacity:1"/></svg>