<svg xmlns="http://www.w3.org/2000/svg" width="16pt" height="16pt" viewBox="0 0 16 16"><defs><linearGradient id="a" x1="64" x2="64" y1="20.717" y2="108.7" gradientTransform="scale(.125)" gradientUnits="userSpaceOnUse"><stop offset=".451" style="stop-color:#fee133;stop-opacity:1"/><stop offset=".544" style="stop-color:#fdd831;stop-opacity:1"/><stop offset=".698" style="stop-color:#fabf2a;stop-opacity:1"/><stop offset=".837" style="stop-color:#f6a323;stop-opacity:1"/></linearGradient><linearGradient id="b" x1="14.615" x2="46.992" y1="115.8" y2="64.922" gradientTransform="scale(.125)" gradientUnits="userSpaceOnUse"><stop offset=".008" style="stop-color:#f6a323;stop-opacity:1"/><stop offset=".025" style="stop-color:#f7a724;stop-opacity:1"/><stop offset=".145" style="stop-color:#fac12b;stop-opacity:1"/><stop offset=".27" style="stop-color:#fcd32f;stop-opacity:1"/><stop offset=".401" style="stop-color:#fede32;stop-opacity:1"/><stop offset=".549" style="stop-color:#fee133;stop-opacity:1"/></linearGradient></defs><path d="M8 15.11c-3.492 0-7.25-2.184-7.25-6.985 0-4.8 3.758-6.984 7.25-6.984 1.934 0 3.727.636 5.047 1.8 1.441 1.274 2.203 3.067 2.203 5.184 0 2.11-.762 3.895-2.203 5.172C11.723 14.469 9.93 15.109 8 15.109m0 0" style="stroke:none;fill-rule:nonzero;fill:url(#a)"/><path d="M8 1.39c1.875 0 3.61.618 4.879 1.739C14.266 4.355 15 6.082 15 8.125c0 2.035-.734 3.758-2.121 4.984C11.602 14.24 9.87 14.86 8 14.86c-1.879 0-3.613-.613-4.879-1.726C1.734 11.914 1 10.183 1 8.125c0-2.066.734-3.8 2.121-5.02C4.383 2 6.117 1.391 8 1.391m0-.5C4.105.89.5 3.39.5 8.125c0 4.71 3.605 7.234 7.5 7.234s7.5-2.59 7.5-7.234C15.5 3.453 11.895.891 8 .891m0 0" style="stroke:none;fill-rule:nonzero;fill:#eb8f00;fill-opacity:1"/><path d="M39.625 10.688a2.69 2.69 0 0 1-.156-2.438c.343-.75 1.062-1.281 1.968-1.437 5.313-.907 10.97.375 15.563 3.53 1.688 1.157 3.219 2.532 4.469 4.126.093.125.156.219.218.344.688 1.124.47 2.437-.53 3.25A2.71 2.71 0 0 1 57.593 18l.406-.687-.5.593c-4.312-3.625-10-5.781-15.562-5.906-.97 0-1.813-.5-2.313-1.312ZM90.656 18.281c.813.344 1.406 1.063 1.563 1.875.156.844-.094 1.657-.781 2.344-3.782 3.813-9.157 6.031-14.72 6.125a20.9 20.9 0 0 1-6.062-.812 1.2 1.2 0 0 1-.344-.157c-1.218-.531-1.78-1.718-1.468-2.937.312-1.125 1.406-2.188 2.969-2.032l.062.813.063-.781c5.624.468 11.5-1.063 16.093-4.157.781-.562 1.75-.687 2.625-.28Zm0 0" style="fill-rule:nonzero;fill:#eb8f00;fill-opacity:1;stroke-width:1;stroke-linecap:butt;stroke-linejoin:miter;stroke:#eb8f00;stroke-opacity:1;stroke-miterlimit:10" transform="scale(.125)"/><path d="M9.516 8.688a.22.22 0 0 1-.11-.055c-.535-.461-1.199-.79-1.941-.953a4.43 4.43 0 0 0-2.16.027.25.25 0 0 1-.121.004.23.23 0 0 1-.168-.184.22.22 0 0 1 .093-.222A3.23 3.23 0 0 1 7.66 6.82a3.23 3.23 0 0 1 2.094 1.532.21.21 0 0 1-.012.242.23.23 0 0 1-.226.094m0 0" style="stroke:none;fill-rule:nonzero;fill:#242424;fill-opacity:1"/><path d="M3.398 15.441A2.3 2.3 0 0 1 2.023 15c-.777-.555-.91-1.465-1.023-2.266-.066-.449-.016-.73.031-.98a2 2 0 0 0-.011-.926c-.024-.098-.09-.254-.153-.402-.183-.418-.39-.895-.137-1.2.133-.164.364-.257.63-.257.242 0 .472.078.632.219.34.292.5.609.688 1.347.078.305.183.395.347.457a.3.3 0 0 0 .121.024c.192 0 .504-.102 1.051-.336.207-.09.469-.215.746-.352.856-.422 1.828-.894 2.489-.894q.163-.002.296.039c.31.086.516.293.57.558a.78.78 0 0 1-.273.75c-.23.196-1.25.672-1.87.903q.075.074.128.168c.094.187.094.418 0 .707a.6.6 0 0 1-.066.136c.18.223.226.492.136.782a.5.5 0 0 1-.082.168c.082.09.172.246.133.496-.093.586-.718.77-1.582 1.023l-.277.082a4 4 0 0 1-1.149.195m0 0" style="stroke:none;fill-rule:nonzero;fill:url(#b)"/><path d="M1.36 9.223c.167 0 .343.05.468.156.297.258.434.527.61 1.223.093.37.25.53.5.628a.6.6 0 0 0 .21.036c.243 0 .582-.11 1.149-.352.808-.344 2.316-1.226 3.137-1.226.082 0 .16.007.226.027.512.148.492.637.203.879-.199.168-1.332.707-1.949.914-.445.152-.531.199-.523.234q.002.012.027.012c.039 0 .117-.016.203-.016.05 0 .102.004.156.024.399.12.352.46.266.722-.063.188-.18.157-.16.25.008.04.09.067.117.102.125.14.188.324.113.57a.24.24 0 0 1-.117.153q-.1.066-.02.156c.067.074.22.129.18.39-.078.473-.71.614-1.683.903a3.7 3.7 0 0 1-1.075.183c-.46 0-.855-.129-1.23-.394-.668-.473-.797-1.227-.922-2.098-.129-.875.223-1.027.016-1.93-.086-.374-.57-1.109-.344-1.382.094-.11.262-.164.441-.164m0-.5c-.343 0-.644.125-.824.347-.351.422-.101.996.102 1.457.058.133.12.282.14.356.086.383.051.57.008.828-.047.254-.105.57-.035 1.059.125.855.266 1.82 1.129 2.437.46.324.957.484 1.523.484.364 0 .762-.066 1.215-.203q.14-.041.274-.078c.918-.27 1.64-.484 1.761-1.226a.8.8 0 0 0-.086-.551q.017-.043.028-.078a1.06 1.06 0 0 0-.09-.875c.008-.012.012-.028.016-.04.039-.124.16-.484.015-.831.613-.254 1.426-.641 1.652-.832a1.03 1.03 0 0 0 .36-.993c-.078-.359-.348-.632-.746-.75a1.4 1.4 0 0 0-.367-.046c-.72 0-1.72.488-2.598.917-.274.133-.535.262-.734.348-.317.133-.758.313-.954.313-.015 0-.027-.004-.03-.004-.079-.028-.134-.051-.196-.285C2.746 9.77 2.582 9.37 2.156 9a1.24 1.24 0 0 0-.797-.277m0 0" style="stroke:none;fill-rule:nonzero;fill:#eb8f00;fill-opacity:1"/><path d="M10.098 3.89c.523 0 1 .442 1 1.176 0 .735-.477 1.176-1 1.176-.524 0-1-.441-1-1.176s.476-1.175 1-1.175M5.766 2.754c-.524 0-1 .441-1 1.176 0 .738.476 1.18 1 1.18.527 0 1-.442 1-1.18 0-.735-.473-1.176-1-1.176m0 0" style="stroke:none;fill-rule:nonzero;fill:#242424;fill-opacity:1"/></svg>