<svg xmlns="http://www.w3.org/2000/svg" xmlns:xlink="http://www.w3.org/1999/xlink" width="16pt" height="16pt" viewBox="0 0 16 16"><defs><linearGradient id="d" x1="64" x2="64" y1="3.167" y2="124.88" gradientTransform="scale(.125)" gradientUnits="userSpaceOnUse"><stop offset="0" style="stop-color:#ffeb3b;stop-opacity:1"/><stop offset=".419" style="stop-color:#ffdc28;stop-opacity:1"/><stop offset=".995" style="stop-color:#ffc107;stop-opacity:1"/></linearGradient><linearGradient id="i" x1="90.488" x2="90.488" y1="22.5" y2="113.37" gradientTransform="scale(.125)" gradientUnits="userSpaceOnUse"><stop offset="0" style="stop-color:#616161;stop-opacity:1"/><stop offset=".495" style="stop-color:#3f3f3f;stop-opacity:1"/><stop offset="1" style="stop-color:#212121;stop-opacity:1"/></linearGradient><linearGradient id="j" x1="37.512" x2="37.512" y1="22.5" y2="113.37" gradientTransform="scale(.125)" gradientUnits="userSpaceOnUse"><stop offset="0" style="stop-color:#616161;stop-opacity:1"/><stop offset=".495" style="stop-color:#3f3f3f;stop-opacity:1"/><stop offset="1" style="stop-color:#212121;stop-opacity:1"/></linearGradient><linearGradient id="k" x1="64" x2="64" y1="22.5" y2="113.37" gradientTransform="scale(.125)" gradientUnits="userSpaceOnUse"><stop offset="0" style="stop-color:#616161;stop-opacity:1"/><stop offset=".495" style="stop-color:#3f3f3f;stop-opacity:1"/><stop offset="1" style="stop-color:#212121;stop-opacity:1"/></linearGradient><linearGradient id="l" x1="64" x2="64" y1="22.5" y2="113.37" gradientTransform="scale(.125)" gradientUnits="userSpaceOnUse"><stop offset="0" style="stop-color:#616161;stop-opacity:1"/><stop offset=".495" style="stop-color:#3f3f3f;stop-opacity:1"/><stop offset="1" style="stop-color:#212121;stop-opacity:1"/></linearGradient><clipPath id="b"><path d="M0 0h16v16H0z"/></clipPath><clipPath id="c"><path d="M0 0h16v16H0z"/></clipPath><mask id="e"><g filter="url(#a)"><path d="M0 0h16v16H0z" style="fill:#000;fill-opacity:.2;stroke:none"/></g></mask><mask id="g"><g filter="url(#a)"><path d="M0 0h16v16H0z" style="fill:#000;fill-opacity:.2;stroke:none"/></g></mask><g id="f" clip-path="url(#b)"><path d="M8 .875A7.13 7.13 0 0 1 15.125 8 7.13 7.13 0 0 1 8 15.125 7.13 7.13 0 0 1 .875 8 7.13 7.13 0 0 1 8 .875M8 .5C3.86.5.5 3.86.5 8s3.36 7.5 7.5 7.5 7.5-3.36 7.5-7.5S12.14.5 8 .5m0 0" style="stroke:none;fill-rule:nonzero;fill:#424242;fill-opacity:1"/></g><g id="h" clip-path="url(#c)"><path d="M11.016 3.047q.066 0 .125.035a5.88 5.88 0 0 1 2.73 4.73.23.23 0 0 1-.226.235H9.563a.22.22 0 0 1-.22-.188 1.35 1.35 0 0 0-.5-.875.23.23 0 0 1-.062-.293l2.043-3.535c.04-.07.114-.11.192-.11m0-.374a.6.6 0 0 0-.52.297L8.457 6.508a.6.6 0 0 0 .152.773c.2.157.329.383.364.633.039.29.293.508.59.508h4.082a.603.603 0 0 0 .601-.625 6.26 6.26 0 0 0-2.906-5.031.6.6 0 0 0-.324-.094M4.984 3.047c.079 0 .153.039.192.11l2.043 3.538c.058.098.027.22-.063.29a1.36 1.36 0 0 0-.5.874.22.22 0 0 1-.218.188H2.355a.226.226 0 0 1-.226-.235 5.87 5.87 0 0 1 2.73-4.73.24.24 0 0 1 .125-.035m0-.375a.6.6 0 0 0-.324.094 6.25 6.25 0 0 0-2.906 5.03.603.603 0 0 0 .602.625h4.082c.296 0 .55-.218.59-.51a.98.98 0 0 1 .363-.634.596.596 0 0 0 .152-.773l-2.04-3.535a.6.6 0 0 0-.519-.297M8.59 9.29c.078 0 .152.038.191.108l2.043 3.54c.063.109.02.25-.094.308a5.854 5.854 0 0 1-5.465 0 .22.22 0 0 1-.09-.309L7.22 9.399a.22.22 0 0 1 .273-.093 1.37 1.37 0 0 0 1.016 0 .2.2 0 0 1 .082-.016m0-.375a.5.5 0 0 0-.223.043 1 1 0 0 1-.734 0 .597.597 0 0 0-.738.254L4.852 12.75a.59.59 0 0 0-.055.465c.043.156.152.289.297.363.89.469 1.894.719 2.906.719a6.2 6.2 0 0 0 2.906-.719.59.59 0 0 0 .297-.363.59.59 0 0 0-.055-.465L9.105 9.21a.6.6 0 0 0-.515-.296m0 0" style="stroke:none;fill-rule:nonzero;fill:#424242;fill-opacity:1"/><path d="M8 7.14a.904.904 0 1 1-.002 1.808A.904.904 0 0 1 8 7.14m0-.375c-.703 0-1.277.574-1.277 1.28A1.28 1.28 0 0 0 8 9.325a1.28 1.28 0 0 0 0-2.558m0 0" style="stroke:none;fill-rule:nonzero;fill:#424242;fill-opacity:1"/></g><filter id="a" width="100%" height="100%" x="0%" y="0%" filterUnits="objectBoundingBox"><feColorMatrix in="SourceGraphic" values="0 0 0 0 1 0 0 0 0 1 0 0 0 0 1 0 0 0 1 0"/></filter></defs><path d="M15.5 8c0 4.14-3.36 7.5-7.5 7.5S.5 12.14.5 8 3.86.5 8 .5s7.5 3.36 7.5 7.5m0 0" style="stroke:none;fill-rule:nonzero;fill:url(#d)"/><use xlink:href="#f" mask="url(#e)"/><use xlink:href="#h" mask="url(#g)"/><path d="M9.563 8.047h4.082c.128 0 .23-.11.226-.235a5.87 5.87 0 0 0-2.73-4.73.23.23 0 0 0-.317.074l-2.043 3.54c-.058.097-.027.218.063.288.265.215.453.524.5.875a.22.22 0 0 0 .219.188m0 0" style="stroke:none;fill-rule:nonzero;fill:url(#i)"/><path d="M7.219 6.695 5.176 3.156a.23.23 0 0 0-.317-.074 5.88 5.88 0 0 0-2.73 4.73.23.23 0 0 0 .226.235h4.083a.22.22 0 0 0 .218-.188c.047-.351.235-.664.5-.875.09-.07.121-.191.063-.289m0 0" style="stroke:none;fill-rule:nonzero;fill:url(#j)"/><path d="M8 9.402c-.18 0-.352-.035-.508-.097a.22.22 0 0 0-.273.093l-2.043 3.54c-.063.109-.02.25.094.308a5.854 5.854 0 0 0 5.465 0 .22.22 0 0 0 .09-.309L8.78 9.399a.22.22 0 0 0-.273-.093A1.4 1.4 0 0 1 8 9.402m0 0" style="stroke:none;fill-rule:nonzero;fill:url(#k)"/><path d="M8.902 8.047A.9.9 0 0 1 8 8.949a.904.904 0 1 1 .902-.902m0 0" style="stroke:none;fill-rule:nonzero;fill:url(#l)"/></svg>