<svg xmlns="http://www.w3.org/2000/svg" width="16pt" height="16pt" viewBox="0 0 16 16"><defs><clipPath id="b"><path d="M5 2h8v12H5Zm0 0"/></clipPath><clipPath id="c"><path d="M7.285 7.7c.582-1.856.969-3.63 1.156-5.153a.534.534 0 0 1 .79-.406c2.19 1.21 3.386 4.117 2.5 6.953-.977 3.101-3.618 4.566-6.04 4.285a.54.54 0 0 1-.406-.79c.719-1.355 1.418-3.034 2-4.89m0 0"/></clipPath><clipPath id="d"><path d="M5 2h5v12H5Zm0 0"/></clipPath><clipPath id="e"><path d="M7.285 7.7c.582-1.856.969-3.63 1.156-5.153a.534.534 0 0 1 .79-.406c2.19 1.21 3.386 4.117 2.5 6.953-.977 3.101-3.618 4.566-6.04 4.285a.54.54 0 0 1-.406-.79c.719-1.355 1.418-3.034 2-4.89m0 0"/></clipPath><clipPath id="f"><path d="M9 5h4v8H9Zm0 0"/></clipPath><clipPath id="g"><path d="M7.285 7.7c.582-1.856.969-3.63 1.156-5.153a.534.534 0 0 1 .79-.406c2.19 1.21 3.386 4.117 2.5 6.953-.977 3.101-3.618 4.566-6.04 4.285a.54.54 0 0 1-.406-.79c.719-1.355 1.418-3.034 2-4.89m0 0"/></clipPath><clipPath id="h"><path d="M5 2h8v12H5Zm0 0"/></clipPath><clipPath id="i"><path d="M7.285 7.7c.582-1.856.969-3.63 1.156-5.153a.534.534 0 0 1 .79-.406c2.19 1.21 3.386 4.117 2.5 6.953-.977 3.101-3.618 4.566-6.04 4.285a.54.54 0 0 1-.406-.79c.719-1.355 1.418-3.034 2-4.89m0 0"/></clipPath><clipPath id="j"><path d="m3.414 13.395 1.758.554c1.746-1.578 3.047-3.504 3.746-5.734.7-2.23.734-4.555.207-6.848L7.367.817Zm7.555-.965c.726-.696 1.367-1.754 1.765-3.016.399-1.266.473-2.5.278-3.488a3.92 3.92 0 0 0-2.903 2.664 3.92 3.92 0 0 0 .86 3.84m0 0"/></clipPath><linearGradient id="a" x1="63.952" x2="63.952" y1="20.106" y2="107.23" gradientTransform="rotate(-72.567 .001 -2.9)scale(-.125 .125)" gradientUnits="userSpaceOnUse"><stop offset=".5" style="stop-color:#fee133;stop-opacity:1"/><stop offset=".612" style="stop-color:#fede32;stop-opacity:1"/><stop offset=".708" style="stop-color:#fcd32f;stop-opacity:1"/><stop offset=".797" style="stop-color:#fac12b;stop-opacity:1"/><stop offset=".883" style="stop-color:#f7a924;stop-opacity:1"/><stop offset=".9" style="stop-color:#f6a323;stop-opacity:1"/></linearGradient></defs><path d="M8.102 15.203a7.6 7.6 0 0 1-2.254-.36c-2-.628-3.465-1.882-4.243-3.62-.707-1.594-.78-3.477-.207-5.301C2.383 2.793 4.914.773 7.848.773c.746 0 1.52.125 2.3.372 2.016.632 3.489 1.886 4.258 3.625.7 1.582.77 3.464.192 5.296-.977 3.121-3.528 5.137-6.496 5.137m0 0" style="stroke:none;fill-rule:nonzero;fill:url(#a)"/><path d="M7.852.523v.5c.718 0 1.464.122 2.222.36 1.946.61 3.364 1.816 4.102 3.488.676 1.527.742 3.344.183 5.121-.945 3.012-3.402 4.961-6.257 4.961-.711 0-1.442-.117-2.18-.348-1.93-.609-3.344-1.812-4.09-3.484-.68-1.535-.754-3.355-.195-5.125.453-1.441 1.25-2.668 2.304-3.55a6 6 0 0 1 3.907-1.423zm0 0c-3.297 0-5.75 2.325-6.692 5.32-1.156 3.68.2 7.852 4.613 9.235a7.8 7.8 0 0 0 2.329.375c3.277 0 5.793-2.312 6.738-5.312 1.156-3.68-.164-7.84-4.613-9.235A7.9 7.9 0 0 0 7.852.523m0 0" style="stroke:none;fill-rule:nonzero;fill:#eb8f00;fill-opacity:1"/><g clip-path="url(#b)"><g clip-path="url(#c)"><path d="M7.285 7.7c.582-1.856.969-3.63 1.156-5.153a.534.534 0 0 1 .79-.406c2.19 1.21 3.386 4.117 2.5 6.953-.977 3.101-3.618 4.566-6.04 4.285a.54.54 0 0 1-.406-.79c.719-1.355 1.418-3.034 2-4.89m0 0" style="stroke:none;fill-rule:nonzero;fill:#242424;fill-opacity:1"/></g></g><g clip-path="url(#d)"><g clip-path="url(#e)"><path d="m5.172 13.95-1.758-.555L7.367.816l1.758.551c.527 2.293.492 4.617-.207 6.848-.7 2.23-2 4.156-3.746 5.734m0 0" style="stroke:none;fill-rule:nonzero;fill:#fff;fill-opacity:1"/></g></g><g clip-path="url(#f)"><g clip-path="url(#g)"><path d="M10.11 8.586a3.93 3.93 0 0 1 2.902-2.66c.195.984.12 2.219-.278 3.484s-1.039 2.324-1.765 3.02a3.92 3.92 0 0 1-.86-3.844m0 0" style="stroke:none;fill-rule:nonzero;fill:#ed7770;fill-opacity:1"/></g></g><g clip-path="url(#h)"><g clip-path="url(#i)"><g clip-path="url(#j)"><path d="m8.977 2.07.003.524c.973.539 1.743 1.46 2.168 2.597a5.77 5.77 0 0 1 .082 3.747c-.753 2.402-2.695 3.953-4.94 3.953q-.27.002-.54-.032s-.012-.011-.004-.027c.758-1.43 1.465-3.152 2.035-4.977.574-1.82.98-3.636 1.176-5.246.004-.015.02-.015.02-.015Zm0 0c-.262 0-.5.196-.536.477-.187 1.523-.574 3.297-1.156 5.152-.582 1.856-1.281 3.535-2 4.89a.54.54 0 0 0 .406.79q.3.035.598.035c2.246 0 4.543-1.469 5.441-4.32.887-2.836-.308-5.742-2.5-6.953a.47.47 0 0 0-.253-.07m0 0" style="stroke:none;fill-rule:nonzero;fill:#eb8f00;fill-opacity:1"/></g></g></g><path d="M6.32 4.227c.207-.727.762-2.524 1.395-3.149.234-.238.55-.367.883-.367.336 0 .652.133.886.371a1.247 1.247 0 0 1-.004 1.773c-.628.625-2.433 1.172-3.16 1.372m0 0" style="stroke:none;fill-rule:nonzero;fill:#5f7aff;fill-opacity:1"/><path d="M8.598.898a1.067 1.067 0 0 1 .75 1.825c-.489.488-1.84.965-2.754 1.234.273-.91.761-2.258 1.254-2.746.199-.203.465-.313.75-.313m0-.375c-.368 0-.735.141-1.016.418-.84.836-1.527 3.551-1.527 3.551s2.718-.672 3.558-1.508A1.442 1.442 0 0 0 8.598.524m0 0" style="stroke:none;fill-rule:nonzero;fill:#4864ed;fill-opacity:1"/><path d="M5.238 15.059a1.38 1.38 0 0 1-1.324-.98c-.289-.946.121-3.009.297-3.794.582.555 2.07 2.043 2.355 2.985.11.355.075.73-.101 1.058a1.39 1.39 0 0 1-1.227.73m0 0" style="stroke:none;fill-rule:nonzero;fill:#5f7aff;fill-opacity:1"/><path d="M4.324 10.648c.742.735 1.836 1.93 2.063 2.676a1.2 1.2 0 0 1-1.149 1.547c-.52 0-.992-.348-1.144-.851-.227-.747.02-2.348.23-3.372m-.222-.726s-.743 2.969-.368 4.207a1.577 1.577 0 0 0 1.965 1.05 1.574 1.574 0 0 0 1.047-1.964c-.375-1.238-2.644-3.293-2.644-3.293m0 0" style="stroke:none;fill-rule:nonzero;fill:#4864ed;fill-opacity:1"/><path d="m3.887 10.969.238-1.531L2.98 10.69c-.015.012-.03.028-.046.04-.297.238-.704.148-.844-.211-.11-.282.015-.63.258-.82.57-.458 1.914-1.528 2.437-1.946.094-.074.219-.016.219.105l.035 3.063q.001.029-.004.062c-.031.391-.37.704-.734.637-.274-.05-.442-.34-.414-.652M6.379 3.387l-.645 1.41L5.47 3.12a.3.3 0 0 0-.016-.058c-.117-.364-.504-.516-.82-.293-.246.175-.336.53-.238.828.222.695.75 2.332.957 2.968.039.114.171.13.242.028l1.718-2.528.032-.054c.191-.344.078-.797-.258-.938-.258-.11-.555.04-.707.313m0 0" style="stroke:none;fill-rule:nonzero;fill:#242424;fill-opacity:1"/></svg>