<svg xmlns="http://www.w3.org/2000/svg" xmlns:xlink="http://www.w3.org/1999/xlink" width="16pt" height="16pt" viewBox="0 0 16 16"><defs><clipPath id="b"><path d="M0 0h16v16H0z"/></clipPath><clipPath id="c"><path d="M0 0h16v16H0z"/></clipPath><clipPath id="d"><path d="M0 0h16v16H0z"/></clipPath><clipPath id="e"><path d="M0 0h16v16H0z"/></clipPath><clipPath id="f"><path d="M0 0h16v16H0z"/></clipPath><mask id="g"><g filter="url(#a)"><path d="M0 0h16v16H0z" style="fill:#000;fill-opacity:.2;stroke:none"/></g></mask><mask id="i"><g filter="url(#a)"><path d="M0 0h16v16H0z" style="fill:#000;fill-opacity:.2;stroke:none"/></g></mask><mask id="k"><g filter="url(#a)"><path d="M0 0h16v16H0z" style="fill:#000;fill-opacity:.2;stroke:none"/></g></mask><mask id="m"><g filter="url(#a)"><path d="M0 0h16v16H0z" style="fill:#000;fill-opacity:.2;stroke:none"/></g></mask><mask id="q"><g filter="url(#a)"><path d="M0 0h16v16H0z" style="fill:#000;fill-opacity:.2;stroke:none"/></g></mask><g id="h" clip-path="url(#b)"><path d="m8.234 10.691-.09 1.653c0 .05.012.101.04.144v.004c.035.055.097.16.152.254l-.094.082a.25.25 0 0 0-.133.211l-.023.387q-.001.02.004.043l.094.789-.028.355c-.008.106.047.2.137.246-.04.036-.074.07-.094.094a.22.22 0 0 0-.082.164l-.012.133h-.242l-.066-.648v-.059a.24.24 0 0 0-.125-.223 2 2 0 0 1-.156-.113c.082-.094.156-.176.187-.21q.02-.014.031-.024a.25.25 0 0 0 .082-.18l.012-.418v-.016a.26.26 0 0 0-.121-.214l-.129-.075c.086-.11.156-.195.18-.222a.3.3 0 0 0 .074-.176l.012-1.973Zm.266-.254-.902.016-.016 2.215c-.012.008-.375.469-.375.469l.371.222v.016l-.008.41c-.03 0-.406.453-.406.453s.242.215.387.293l-.004.078.094.887h.695l.027-.363c.098-.086.34-.352.34-.352s-.254-.136-.3-.148l.03-.387-.097-.812.023-.387a.1.1 0 0 0 .032-.02c.09-.078.265-.234.265-.234s-.199-.336-.261-.438v-.003Zm0 0" style="stroke:none;fill-rule:nonzero;fill:#424242;fill-opacity:1"/></g><g id="j" clip-path="url(#c)"><path d="M9.91 10.922c.438 0 .875.394 1.168.726.152.176.281.352.379.497-.406.207-1.023.464-1.492.464a1 1 0 0 1-.211-.02c-.75-.171-1.063-.765-1.176-1.054.219-.254.559-.558 1.281-.613zm0-.375h-.082c-1.043.082-1.445.633-1.668.906 0 0 .27 1.215 1.508 1.5q.14.03.297.031c.879 0 2.02-.707 2.02-.707s-.95-1.73-2.075-1.73m0 0" style="stroke:none;fill-rule:nonzero;fill:#424242;fill-opacity:1"/></g><g id="l" clip-path="url(#d)"><path d="M6.332 10.59c.676 0 .941.324 1.176.613a.3.3 0 0 1 .043.055c-.035.281-.219.96-1.055 1.277-.125.05-.285.074-.469.074-.527 0-1.129-.191-1.5-.328a6 6 0 0 1 .41-.703c.297-.43.758-.953 1.266-.984.043 0 .09-.004.129-.004m0-.375q-.07.001-.152.008c-1.278.074-2.16 2.257-2.16 2.257s1.09.504 2.007.504c.215 0 .422-.027.606-.097 1.32-.504 1.305-1.758 1.305-1.758-.258-.266-.579-.914-1.606-.914m0 0" style="stroke:none;fill-rule:nonzero;fill:#424242;fill-opacity:1"/></g><g id="n" clip-path="url(#e)"><path d="M7.926 7.844c1.187 0 2.156.734 2.156 1.64 0 .907-.969 1.641-2.156 1.641s-2.156-.734-2.156-1.64c0-.907.968-1.641 2.156-1.641m0-.375c-1.399 0-2.531.902-2.531 2.015 0 1.114 1.132 2.016 2.53 2.016 1.4 0 2.532-.902 2.532-2.016S9.324 7.47 7.926 7.47m0 0" style="stroke:none;fill-rule:nonzero;fill:#424242;fill-opacity:1"/></g><g id="r" clip-path="url(#f)"><path d="M6.668 1.11a1.5 1.5 0 0 0 .55.117c.114 0 .223-.016.325-.032.086-.015.168-.027.242-.027.102 0 .192.02.309.121q.365.311.86.445.058.017.124.016a.5.5 0 0 0 .25-.07q.124-.08.242-.125c.114-.043.242-.078.38-.117.179-.047.374-.102.566-.188.156.203.3.418.402.637.156.332.2.66.129.922a1 1 0 0 1-.035.093.48.48 0 0 0 .234.61.63.63 0 0 1 .348.492.63.63 0 0 1-.25.559.8.8 0 0 1-.215.109.48.48 0 0 0-.297.543c.04.191.094.367.148.539q.05.152.086.293c.317 1.183-.125 2.55-1.074 3.328-.496.406-1.254.629-2.133.629a4.9 4.9 0 0 1-1.433-.207 2.1 2.1 0 0 1-1.043-.762c-.367-.515-.559-1.27-.473-1.883a.49.49 0 0 0-.133-.402 2.7 2.7 0 0 1-.53-.762 3.3 3.3 0 0 0-.321-.543 1.6 1.6 0 0 0-.453-.414c.054-.133.109-.258.132-.304.23-.375.56-.68.946-.887a.48.48 0 0 0 .129-.746c-.172-.188-.375-.465-.348-.723.02-.2.172-.41.457-.621.07-.055.281-.133.516-.133.105 0 .175.016.218.031a.47.47 0 0 0 .372.18.49.49 0 0 0 .433-.27q.112-.236.34-.449m-.05-.582c-.364.27-.59.551-.723.825a.1.1 0 0 0-.024-.047c-.14-.117-.351-.164-.57-.164-.301 0-.621.093-.801.226-.937.696-.742 1.43-.176 2.051a2.96 2.96 0 0 0-1.136 1.07c-.043.07-.364.844-.348.844h.02c.273 0 .519.184.683.402.168.223.273.489.414.73.133.231.297.434.48.622-.105.746.122 1.621.555 2.226.309.434.781.778 1.29.942.437.14.995.23 1.577.23.864 0 1.782-.199 2.438-.738 1.094-.894 1.598-2.453 1.234-3.82-.074-.27-.176-.535-.23-.805q.17-.064.324-.168c.305-.226.48-.617.445-.996a1.11 1.11 0 0 0-.613-.875 1 1 0 0 0 .047-.14c.117-.415.031-.864-.152-1.255-.184-.39-.454-.73-.723-1.066-.336.293-.82.328-1.238.492q-.165.066-.317.16a1.7 1.7 0 0 1-.672-.347.9.9 0 0 0-.617-.235c-.207 0-.398.059-.57.059h-.04C6.849.727 6.618.527 6.618.527m0 0" style="stroke:none;fill-rule:nonzero;fill:#424242;fill-opacity:1"/></g><linearGradient id="o" x1="55.927" x2="69.758" y1="29.759" y2="1.244" gradientTransform="scale(.125)" gradientUnits="userSpaceOnUse"><stop offset=".145" style="stop-color:#b71c1c;stop-opacity:1"/><stop offset=".294" style="stop-color:#c82723;stop-opacity:1"/><stop offset=".556" style="stop-color:#e0362e;stop-opacity:1"/><stop offset=".798" style="stop-color:#ef4034;stop-opacity:1"/><stop offset="1" style="stop-color:#f44336;stop-opacity:1"/></linearGradient><linearGradient id="p" x1="30.634" x2="80.591" y1="24.708" y2="24.708" gradientTransform="scale(.125)" gradientUnits="userSpaceOnUse"><stop offset="0" style="stop-color:#e53935;stop-opacity:1"/><stop offset=".238" style="stop-color:#e03632;stop-opacity:1"/><stop offset=".523" style="stop-color:#d12d2a;stop-opacity:1"/><stop offset=".832" style="stop-color:#b91d1d;stop-opacity:1"/><stop offset=".855" style="stop-color:#b71c1c;stop-opacity:1"/></linearGradient><filter id="a" width="100%" height="100%" x="0%" y="0%" filterUnits="objectBoundingBox"><feColorMatrix in="SourceGraphic" values="0 0 0 0 1 0 0 0 0 1 0 0 0 0 1 0 0 0 1 0"/></filter></defs><path d="m8.402 14.633.032-.383-.098-.812.023-.387a.06.06 0 0 0 .032-.024c.09-.074.265-.23.265-.23l-.261-.442.105-1.918-.902.016-.016 2.215c-.012.008-.375.469-.375.469l.371.222v.016l-.008.41c-.027 0-.406.453-.406.453s.242.215.387.293l-.004.078.094.887h.695l.027-.363c.098-.086.34-.352.34-.352s-.254-.133-.3-.148m0 0" style="stroke:none;fill-rule:nonzero;fill:#7cb342;fill-opacity:1"/><use xlink:href="#h" mask="url(#g)"/><path d="M8.16 11.457s.27 1.211 1.508 1.496c.89.207 2.316-.672 2.316-.672s-.996-1.82-2.156-1.73c-1.043.078-1.445.629-1.668.906m0 0" style="stroke:none;fill-rule:nonzero;fill:#7cb342;fill-opacity:1"/><use xlink:href="#j" mask="url(#i)"/><path d="M7.938 11.129s.015 1.254-1.305 1.758c-.953.363-2.613-.407-2.613-.407s.882-2.183 2.16-2.257c1.148-.07 1.488.629 1.758.906m0 0" style="stroke:none;fill-rule:nonzero;fill:#7cb342;fill-opacity:1"/><use xlink:href="#l" mask="url(#k)"/><path d="M10.457 9.484c0-1.113-1.133-2.015-2.531-2.015s-2.531.902-2.531 2.015c0 1.114 1.132 2.016 2.53 2.016 1.4 0 2.532-.902 2.532-2.016m0 0" style="stroke:none;fill-rule:nonzero;fill:#558b2f;fill-opacity:1"/><use xlink:href="#n" mask="url(#m)"/><path d="M8.242 2.2a2.08 2.08 0 0 1 1.13-1.09c.417-.165.898-.2 1.237-.493.27.336.54.68.723 1.067.18.39.27.84.152 1.254-.093.343-.328.64-.613.855a2.7 2.7 0 0 1-.965.441c-.191.051-.386.086-.582.059-.18-.027-.347-.11-.511-.191-.165-.082-.438-.157-.567-.286-.098-.101-.121-.32-.14-.453a2.1 2.1 0 0 1 .039-.886c.023-.079.097-.2.097-.278m0 0" style="stroke:none;fill-rule:nonzero;fill:#c40e00;fill-opacity:1"/><path d="M5.094 5.36c-.176.542-.574 1.093-.668 1.656-.13.757.097 1.668.547 2.297.308.433.78.777 1.289.937 1.097.355 2.918.39 4.015-.504 1.094-.898 1.598-2.453 1.235-3.824-.098-.352-.246-.7-.266-1.067-.031-.535.027-1.02.27-1.5-.532.06-.828.293-1.34.45-.793.246-1.754.273-2.457-.172-1.836-1.168-2.766-.356-2.715-.063.18 1.028.203 1.438.09 1.79m0 0" style="stroke:none;fill-rule:nonzero;fill:#c90000;fill-opacity:1"/><path d="M6.043 3.031s-1.02-1.336.559-2.504c0 0 .226.2.558.22.328.019.746-.231 1.227.179.48.41 1.105.437 1.324.398s.879.5-.09 1.2c-1.055.761-1.344.777-1.344.777s-1.656-.09-1.918-.14c-.257-.052-.316-.13-.316-.13m0 0" style="stroke:none;fill-rule:nonzero;fill:url(#o)"/><path d="M6.867 2.445s1.168-.683 1.883-.215c.715.465-1.008.68-1.312.657-.301-.028-.57-.442-.57-.442m0 0" style="stroke:none;fill-rule:nonzero;fill:#a62121;fill-opacity:1"/><path d="M2.82 5.332c.282-.008.535.18.703.402s.274.489.414.73c.43.747 1.18 1.274 1.993 1.563.812.286 1.687.348 2.55.328.254-.003.508-.02.758.02s.5.137.68.32c-.004-.347-.215-.668-.488-.883-.27-.214-.602-.343-.922-.468l-1.793-.692c-.317-.12-.633-.246-.914-.433-.281-.192-.403-.453-.504-.774a3.5 3.5 0 0 1-.152-1.117c.011-.297-.032-.621-.204-.871-.164-.234-.355-.184-.582-.066a2.96 2.96 0 0 0-1.191 1.097c-.043.067-.363.844-.348.844m0 0" style="stroke:none;fill-rule:nonzero;fill:#e50500;fill-opacity:1"/><path d="M6.688 2.398c.265-.109 1.093.29 1.378.332.547.079.676.122 1.207-.128.399-.188.547-.282.856-.75-.238.535.191 1.125-.059 1.597-.55 1.047-2.648.399-2.945.254-.234-.113-.914-.324-.437-1.305m0 0" style="stroke:none;fill-rule:nonzero;fill:#ef5350;fill-opacity:1"/><path d="M4.48 1.367C2.395 2.922 5.91 4.66 6.684 4.898a3.37 3.37 0 0 0 2.28-.128c.196-.086.388-.184.54-.329.156-.14.55-.57.57-.777-1.082.375-3.258.184-4.086-1.082-.37-.566-.004-1.164-.136-1.277-.336-.278-1.059-.168-1.372.062m0 0" style="stroke:none;fill-rule:nonzero;fill:url(#p)"/><path d="M9.45 4.328c1.155-.133 1.41-1.289 1.968-1.262.344.16.594.512.629.887.039.379-.14.766-.442.996-1.464 1.106-1.91.043-2.238.547-.531.828-1.238 1.207-1.941 1.133-1.117-.121-1.875-1.48-1.594-1.399 1.676.48 1.863-.703 3.617-.902m0 0" style="stroke:none;fill-rule:nonzero;fill:#f41e0f;fill-opacity:1"/><use xlink:href="#r" mask="url(#q)"/></svg>