<svg xmlns="http://www.w3.org/2000/svg" width="16pt" height="16pt" viewBox="0 0 16 16"><defs><linearGradient id="a" x1="64" x2="64" y1="-1028.9" y2="-1116.9" gradientTransform="matrix(.125 0 0 -.125 0 -126.15)" gradientUnits="userSpaceOnUse"><stop offset=".5" style="stop-color:#fee133;stop-opacity:1"/><stop offset=".612" style="stop-color:#fede32;stop-opacity:1"/><stop offset=".708" style="stop-color:#fcd32f;stop-opacity:1"/><stop offset=".797" style="stop-color:#fac12b;stop-opacity:1"/><stop offset=".883" style="stop-color:#f7a924;stop-opacity:1"/><stop offset=".9" style="stop-color:#f6a323;stop-opacity:1"/></linearGradient></defs><path d="M8 14.988C4.512 14.988.75 12.801.75 8 .75 3.2 4.512 1.012 8 1.012c1.938 0 3.727.636 5.05 1.8 1.438 1.274 2.2 3.075 2.2 5.188s-.762 3.898-2.2 5.176c-1.323 1.16-3.124 1.812-5.05 1.812m0 0" style="stroke:none;fill-rule:nonzero;fill:url(#a)"/><path d="M8 1.262c1.875 0 3.613.613 4.875 1.738C14.262 4.227 15 5.95 15 8c0 2.04-.738 3.762-2.125 4.988-1.273 1.125-3.012 1.75-4.875 1.75-1.875 0-3.613-.613-4.875-1.726C1.738 11.789 1 10.062 1 8s.738-3.8 2.125-5.023C4.387 1.875 6.113 1.262 8 1.262m0-.5C4.102.762.5 3.262.5 8c0 4.71 3.602 7.238 7.5 7.238s7.5-2.59 7.5-7.238C15.5 3.324 11.898.762 8 .762m0 0" style="stroke:none;fill-rule:nonzero;fill:#eb8f00;fill-opacity:1"/><path d="M27.406 34.813c-2.218.374-2.312 3.593.094 3.687 4.906.094 10.188-1.687 14.313-5.5a17.8 17.8 0 0 0 3.687-4.5c1.188-2.187-1.594-3.687-3-2.094l-.094.094c-4 4.5-9.5 7.406-15 8.313ZM84.5 26.406c-1.406-1.718-4.187-.093-3 2.094a17.8 17.8 0 0 0 3.688 4.5c4 3.688 9.406 5.594 14.312 5.5 2.5-.094 2.313-3.312.094-3.687C94 33.906 88.5 31 84.5 26.406" style="fill-rule:nonzero;fill:#eb8f00;fill-opacity:1;stroke-width:1;stroke-linecap:butt;stroke-linejoin:miter;stroke:#eb8f00;stroke-opacity:1;stroke-miterlimit:10" transform="scale(.125)"/><path d="M10.5 6.113c.523 0 1 .438 1 1.176 0 .734-.477 1.172-1 1.172s-1-.438-1-1.172c0-.738.477-1.176 1-1.176M5.438 6.113c-.524 0-1 .438-1 1.176 0 .734.476 1.172 1 1.172.523 0 1-.438 1-1.172 0-.738-.477-1.176-1-1.176M7.984 10.25c-1.308 0-2.246.785-2.527 1.223-.105.168-.129.351-.055.488a.3.3 0 0 0 .274.164q.06-.001.125-.02c.66-.21 1.238-.52 2.183-.52.961 0 1.532.31 2.188.52q.066.019.125.02a.3.3 0 0 0 .273-.164c.075-.137.051-.32-.054-.488-.282-.438-1.22-1.223-2.532-1.223m0 0" style="stroke:none;fill-rule:nonzero;fill:#242424;fill-opacity:1"/></svg>