<svg xmlns="http://www.w3.org/2000/svg" xmlns:xlink="http://www.w3.org/1999/xlink" width="16pt" height="16pt" viewBox="0 0 16 16"><defs><linearGradient id="c" x1="17.181" x2="45.393" y1="71.738" y2="73.757" gradientTransform="scale(.125)" gradientUnits="userSpaceOnUse"><stop offset="0" style="stop-color:#ff3d2a;stop-opacity:1"/><stop offset=".041" style="stop-color:#f63424;stop-opacity:1"/><stop offset=".174" style="stop-color:#dd1d14;stop-opacity:1"/><stop offset=".314" style="stop-color:#cc0d09;stop-opacity:1"/><stop offset=".464" style="stop-color:#c10302;stop-opacity:1"/><stop offset=".64" style="stop-color:#be0000;stop-opacity:1"/><stop offset=".99" style="stop-color:#ff1500;stop-opacity:1"/></linearGradient><linearGradient id="d" x1="5.446" x2="33.749" y1="156.28" y2="158.3" gradientTransform="rotate(-9.625 -52.444 -10.25)scale(.125)" gradientUnits="userSpaceOnUse"><stop offset="0" style="stop-color:#ff3d2a;stop-opacity:1"/><stop offset=".041" style="stop-color:#f63424;stop-opacity:1"/><stop offset=".174" style="stop-color:#dd1d14;stop-opacity:1"/><stop offset=".314" style="stop-color:#cc0d09;stop-opacity:1"/><stop offset=".464" style="stop-color:#c10302;stop-opacity:1"/><stop offset=".64" style="stop-color:#be0000;stop-opacity:1"/><stop offset=".99" style="stop-color:#ff1500;stop-opacity:1"/></linearGradient><linearGradient id="e" x1="64.886" x2="93.097" y1="78.777" y2="80.796" gradientTransform="scale(.125)" gradientUnits="userSpaceOnUse"><stop offset="0" style="stop-color:#ff3d2a;stop-opacity:1"/><stop offset=".041" style="stop-color:#f63424;stop-opacity:1"/><stop offset=".174" style="stop-color:#dd1d14;stop-opacity:1"/><stop offset=".314" style="stop-color:#cc0d09;stop-opacity:1"/><stop offset=".464" style="stop-color:#c10302;stop-opacity:1"/><stop offset=".64" style="stop-color:#be0000;stop-opacity:1"/><stop offset=".99" style="stop-color:#ff1500;stop-opacity:1"/></linearGradient><linearGradient id="f" x1="76.479" x2="104.69" y1="68.922" y2="70.941" gradientTransform="scale(.125)" gradientUnits="userSpaceOnUse"><stop offset="0" style="stop-color:#ff3d2a;stop-opacity:1"/><stop offset=".041" style="stop-color:#f63424;stop-opacity:1"/><stop offset=".174" style="stop-color:#dd1d14;stop-opacity:1"/><stop offset=".314" style="stop-color:#cc0d09;stop-opacity:1"/><stop offset=".464" style="stop-color:#c10302;stop-opacity:1"/><stop offset=".64" style="stop-color:#be0000;stop-opacity:1"/><stop offset=".99" style="stop-color:#ff1500;stop-opacity:1"/></linearGradient><linearGradient id="g" x1="93.584" x2="121.8" y1="54.139" y2="56.158" gradientTransform="scale(.125)" gradientUnits="userSpaceOnUse"><stop offset="0" style="stop-color:#ff3d2a;stop-opacity:1"/><stop offset=".041" style="stop-color:#f63424;stop-opacity:1"/><stop offset=".174" style="stop-color:#dd1d14;stop-opacity:1"/><stop offset=".314" style="stop-color:#cc0d09;stop-opacity:1"/><stop offset=".464" style="stop-color:#c10302;stop-opacity:1"/><stop offset=".64" style="stop-color:#be0000;stop-opacity:1"/><stop offset=".99" style="stop-color:#ff1500;stop-opacity:1"/></linearGradient><linearGradient id="h" x1="21.124" x2="124.08" y1="39.244" y2="39.244" gradientTransform="rotate(2.58 -47.509 -17.768)scale(.125)" gradientUnits="userSpaceOnUse"><stop offset=".005" style="stop-color:#fbc02d;stop-opacity:1"/><stop offset=".081" style="stop-color:#fcca30;stop-opacity:1"/><stop offset=".209" style="stop-color:#fdd534;stop-opacity:1"/><stop offset=".36" style="stop-color:#fdd835;stop-opacity:1"/><stop offset=".69" style="stop-color:#fff59d;stop-opacity:1"/><stop offset="1" style="stop-color:#fdd835;stop-opacity:1"/></linearGradient><linearGradient id="i" x1="9.732" x2="74.285" y1="67.527" y2="67.527" gradientTransform="scale(.125)" gradientUnits="userSpaceOnUse"><stop offset="0" style="stop-color:#ffc044;stop-opacity:1"/><stop offset=".847" style="stop-color:#d95f23;stop-opacity:1"/></linearGradient><linearGradient id="j" x1="10.014" x2="117.79" y1="44.887" y2="44.887" gradientTransform="scale(.125)" gradientUnits="userSpaceOnUse"><stop offset="0" style="stop-color:#fff2d9;stop-opacity:1"/><stop offset=".847" style="stop-color:#f7d398;stop-opacity:1"/></linearGradient><linearGradient id="k" x1="72.836" x2="118.4" y1="59.201" y2="59.201" gradientTransform="scale(.125)" gradientUnits="userSpaceOnUse"><stop offset="0" style="stop-color:#ffb219;stop-opacity:1"/><stop offset=".847" style="stop-color:#ca4300;stop-opacity:1"/></linearGradient><clipPath id="b"><path d="M0 0h16v16H0z"/></clipPath><filter id="a" width="100%" height="100%" x="0%" y="0%" filterUnits="objectBoundingBox"><feColorMatrix in="SourceGraphic" values="0 0 0 0 1 0 0 0 0 1 0 0 0 0 1 0 0 0 1 0"/></filter><mask id="l"><g filter="url(#a)"><path d="M0 0h16v16H0z" style="fill:#000;fill-opacity:.2;stroke:none"/></g></mask><g id="m" clip-path="url(#b)"><path d="M7.117 2.32c.196 0 .426.063.746.149l.262.074c.246.062 1.035.297 1.945.566 1.575.47 3.356 1 3.801 1.094.18.04.379.082.461.117 0 .004.004.012.004.02q.001.06.02.113.023.357.035.727.001.073.007.16c.008.113.02.281.004.375a.1.1 0 0 1-.023.031c-.082.098-.113.227-.082.352a.38.38 0 0 0 .242.265q.153.06.258.125a.4.4 0 0 0 .144.055v.008c0 .027.004.047.008.07v.074a.9.9 0 0 0 .063.254.6.6 0 0 0 .058.11.4.4 0 0 0-.144.234.4.4 0 0 0 .047.27.55.55 0 0 0-.34.3.6.6 0 0 0-.012.489c.05.128.137.234.238.32a.24.24 0 0 1-.07.078.385.385 0 0 0-.258.395c.016.226.028.468.04.738q0 .075.007.164c.008.113.02.281.004.375-.305.383-2.578 2.566-3.293 3.09-.184.136-.387.289-.586.441-.45.344-1.055.8-1.344.938h-.023c-.11 0-.227-.047-.469-.149a9 9 0 0 0-.816-.312c-.375-.125-1.055-.332-1.84-.575-1.469-.449-3.883-1.195-4.352-1.421-.046-.145-.054-.504-.062-.797-.004-.114-.004-.23-.012-.352 0-.062.008-.117.02-.176A1 1 0 0 1 1.852 11a.39.39 0 0 0-.063-.453l-.008-.008-.023-.023c-.012-.016-.024-.028-.028-.036v-.003c.004-.004.032-.032.16-.149q.03-.03.051-.058.035-.024.063-.047l.101-.09a.4.4 0 0 0 .079-.477.39.39 0 0 0-.422-.195 1 1 0 0 0-.063-.059.39.39 0 0 0-.004-.386.72.72 0 0 0-.613-.371.3.3 0 0 0-.086-.082v-.004l.192-.207q.03-.037.054-.079a.8.8 0 0 0 .223-.046.393.393 0 0 0 .226-.493c-.054-.152-.062-.46-.07-.812l-.012-.344q-.002-.088.02-.172c.086-.297.402-.46.402-.46a.4.4 0 0 0 .078-.048C2.137 5.875 5.008 3.54 6.07 2.75c.075-.047.47-.277.813-.395a.8.8 0 0 1 .234-.035m0-.39c-.12 0-.242.015-.363.058-.43.149-.902.442-.902.442-1.07.793-3.993 3.168-3.993 3.168s-.472.226-.605.703a.9.9 0 0 0-.035.293c.02.566.008 1.004.101 1.27a.3.3 0 0 1-.113.023c-.094 0-.2-.047-.355-.117a.6.6 0 0 0-.094.195c.043.05.09.086.137.125q-.12.13-.239.265C.617 8.293.56 8.25.496 8.246l-.035.676a.31.31 0 0 0 .309-.04c-.047.192.003.415.132.54a.52.52 0 0 0 .176-.387c.11 0 .215.07.277.176-.074.117-.152.234-.226.351.05.106.148.172.246.172a.2.2 0 0 0 .086-.015c.035.117.094.226.164.324-.102.09-.164.152-.184.172-.175.2-.156.355.02.558q.018.023.043.051a1 1 0 0 0-.074.188.9.9 0 0 0-.035.289c.023.676 0 1.176.164 1.41.168.234 5.086 1.672 6.367 2.098.828.273 1.07.48 1.406.48.012 0 .027 0 .035-.004q.006.019.012.02c.406-.117 1.379-.914 2.14-1.473.758-.559 3.348-3.039 3.422-3.246.067-.195.024-.504.016-.711-.008-.25-.02-.504-.039-.754.172-.059.316-.25.352-.469a.6.6 0 0 0 .007-.172c-.168-.07-.382-.257-.293-.449a.17.17 0 0 1 .16-.101q.066-.002.122.039c.093.062.152.18.207.293.156-.282.074-.719-.164-.89.187-.044.332-.282.316-.517-.02.043-.055.067-.094.067-.062 0-.133-.05-.164-.121a1 1 0 0 1-.031-.14q.005-.015.004-.028a1 1 0 0 0-.008-.082c0-.047-.004-.094-.004-.137-.008-.133-.062-.281-.168-.3q-.012-.006-.02-.005c-.05 0-.093.028-.136.051a1.6 1.6 0 0 0-.332-.156.7.7 0 0 0 .09-.125c.066-.2.023-.504.015-.711-.011-.32-.023-.645-.054-.965a1 1 0 0 1 0 .129c-.008-.344-.192-.383-.774-.508-.687-.148-5.058-1.48-5.722-1.656-.477-.129-.805-.238-1.11-.238M1.738 9.938q-.005-.031-.004-.063.049-.017.102-.027-.051.046-.098.09m0 0" style="stroke:none;fill-rule:nonzero;fill:#424242;fill-opacity:1"/></g></defs><path d="M9.281 13.984c-.355-.351-.82-.437-1.316-.617-1.426-.394-2.746-.703-4.137-1.273-.39-.133-.781-.176-1.176-.266a2.4 2.4 0 0 1-1.222-.82.9.9 0 0 0-.035.293c.023.676 0 1.176.164 1.406.168.238 5.086 1.672 6.367 2.098.894.297 1.105.515 1.488.476-.047-.492.211-.96-.133-1.297m0 0" style="stroke:none;fill-rule:nonzero;fill:#df8826;fill-opacity:1"/><path d="M14.89 9.266c.06-.559-.074-.59-.761-.735-.688-.148-5.059-1.484-5.727-1.66-.664-.176-1.043-.32-1.472-.176-.426.149-.903.442-.903.442-1.066.793-3.988 3.168-3.988 3.168s-.473.226-.61.703c.337.418.759.683 1.227.82.39.09.785.133 1.176.266 1.39.57 2.711.879 4.133 1.273.48.172.98.313 1.332.633.14-.152.379-.117.531-.258 4.649-3.695 5.059-4.449 5.063-4.476m0 0" style="stroke:none;fill-rule:nonzero;fill:#f6d9a4;fill-opacity:1"/><path d="M9.781 13.605c-.152.137-.5.356-.5.38.047.464.059 1.331.098 1.32.406-.117 1.379-.914 2.14-1.473.758-.559 3.348-3.039 3.422-3.246.067-.2.024-.508.016-.715-.012-.32-.023-.64-.055-.96.032.327-.183.546-.367.718-1.496 1.398-3.012 2.57-4.754 3.976m0 0" style="stroke:none;fill-rule:nonzero;fill:#d76208;fill-opacity:1"/><path d="M1.441 10.215c-.175.2-.156.355.02.558.324.383 1.23.852 2.547.938 1.316.09 2.496-.344 3.508-2.434 1.015-2.09-1.332-3.343-1.332-3.343S1.62 10.02 1.44 10.214m0 0" style="stroke:none;fill-rule:nonzero;fill:#ea8a77;fill-opacity:1"/><path d="M1.633 10.32c-.2.184-.035.66 2.21 1.114 0 0-.796-.676-1.32-.996-.523-.325-.699-.297-.89-.118m0 0" style="stroke:none;fill-rule:nonzero;fill:#a72e18;fill-opacity:1"/><path d="M3.617 10.832c-.18.2-.156.355.016.559.328.379 1.23.847 2.547.937 1.32.09 2.496-.344 3.511-2.433S8.355 6.55 8.355 6.55s-4.558 4.086-4.738 4.281m0 0" style="stroke:none;fill-rule:nonzero;fill:#eaa88e;fill-opacity:1"/><path d="M3.805 10.934c-.196.183-.035.66 2.21 1.117 0 0-.796-.676-1.316-1-.523-.32-.703-.293-.894-.117m0 0" style="stroke:none;fill-rule:nonzero;fill:#a72e18;fill-opacity:1"/><path d="M6.195 11.586c-.199.219-.172.394.02.621.363.426 1.37.945 2.84 1.047 1.468.098 2.777-.387 3.91-2.715s-1.488-3.723-1.488-3.723-5.082 4.547-5.282 4.77m0 0" style="stroke:none;fill-rule:nonzero;fill:#ea8a77;fill-opacity:1"/><path d="M6.41 11.7c-.223.202-.043.734 2.461 1.241 0 0-.887-.754-1.469-1.113-.582-.36-.78-.324-.992-.129m0 0" style="stroke:none;fill-rule:nonzero;fill:#a72e18;fill-opacity:1"/><path d="M15.309 7.371c.187-.047.332-.281.316-.516-.05.114-.207.063-.258-.054-.047-.117-.031-.254-.039-.387s-.062-.281-.168-.3c-.09-.016-.168.07-.258.093-.297.082-.496-.562-.793-.469-.082.028-.144.106-.21.172-.31.3-.75.324-1.133.207s-.735-.355-1.102-.539a5 5 0 0 0-.598-.242c.637 1.281 1.223 2.601 2.434 3.059.48.164 1.137.27 1.77.257a.6.6 0 0 0 .007-.172c-.168-.07-.382-.257-.293-.449.051-.113.188-.129.282-.062.093.062.152.18.207.293.156-.282.074-.719-.164-.89M2.469 6.93c-.305.242-.61.492-.903.761-.296.27-.379.23-.714.079a.6.6 0 0 0-.094.199c.043.047.09.082.137.12q-.12.134-.239.266C.617 8.293.56 8.25.496 8.246l-.035.676c.101.039.215.027.309-.04a.59.59 0 0 0 .128.544.53.53 0 0 0 .18-.387c.106-.004.215.066.277.172-.074.117-.152.234-.226.351.062.137.21.208.332.157.059.191.164.36.297.476-.008-.105-.02-.21-.024-.32.102-.027.211-.055.313-.086-.004.14-.012.293.047.418.058.121.203.191.293.098a.5.5 0 0 0 .152.445c.164-1.805.797-3.426 1.504-5.016-.527.391-1.059.782-1.574 1.196m0 0" style="stroke:none;fill-rule:nonzero;fill:#9abc00;fill-opacity:1"/><path d="M7.117 5.172c-.515-.176-1.023-.387-1.547-.297-.449.074-.851.363-1.242.648q-.14.106-.285.211c-.703 1.59-1.34 3.211-1.504 5.012a.4.4 0 0 0 .113.078c.168.078.36.051.54.016.054-.164-.005-.352-.008-.531-.004-.176.136-.391.261-.301-.086.332.196.62.442.797.09.062.191.133.293.097.047-.015.086-.05.133-.062.199-.043.273.332.46.426.192.093.383-.297.227-.465.227-.16.465.195.574.492.074.207.211.441.367.508 1.168-1.664 1.192-4.305 1.176-6.63m0 0" style="stroke:none;fill-rule:nonzero;fill:#c6d500;fill-opacity:1"/><path d="M11.617 11.883a.38.38 0 0 1-.254-.328v-.004a4 4 0 0 1-.238-.38c-.98-2.112-2.062-3.964-3.184-5.808-.28-.02-.554-.101-.824-.191.016 2.324-.008 4.965-1.176 6.629a.2.2 0 0 0 .204-.024c-.043-.144.12-.261.246-.234.12.027.234.125.359.129.191 0 .344-.293.262-.508.14-.156.363-.02.484.16.117.176.215.406.39.473.15.062.31-.012.462-.05.152-.044.343-.028.422.136.058.113.046.265.117.36.07.1.195.097.304.116.239.055.43.274.645.422.21.149.516.207.676-.02-.145-.148-.133-.468.02-.605.152-.136.398-.047.468.172.02.063.027.133.066.184.075.097.204.047.293-.028.149-.125.266-.308.336-.515-.027-.028-.05-.059-.078-.086m0 0" style="stroke:none;fill-rule:nonzero;fill:#9abc00;fill-opacity:1"/><path d="m11.617 11.883.074.086a.4.4 0 0 0 .028-.074.3.3 0 0 1-.102-.012M9.309 5.188c-.446.062-.887.203-1.336.18-.012 0-.02-.005-.032-.005 1.122 1.844 2.204 3.696 3.184 5.809a3 3 0 0 0 .238.379c-.011-.203.196-.387.332-.274-.082-.203-.168-.422-.148-.648.015-.23.183-.453.363-.41.18.047.29.324.473.328.097 0 .172-.074.246-.164-.152-1.77-1.848-3.524-2.852-5.235a4 4 0 0 0-.468.04m0 0" style="stroke:none;fill-rule:nonzero;fill:#9abc00;fill-opacity:1"/><path d="M13.5 8.395c-1.21-.461-1.797-1.778-2.434-3.06a4 4 0 0 0-1.285-.187c1 1.711 2.696 3.465 2.852 5.235.101-.117.195-.262.332-.262.082.004.164.063.242.035.129-.043.156-.27.277-.34.153-.093.375.118.493-.035.105-.144-.047-.36-.18-.46-.067-.243.203-.434.406-.387.207.046.39.207.598.21.222 0 .422-.226.469-.492a5.7 5.7 0 0 1-1.77-.257m0 0" style="stroke:none;fill-rule:nonzero;fill:#7a8e00;fill-opacity:1"/><path d="M5.793 9.086c0-.598-.883-1.082-1.969-1.082S1.86 8.488 1.86 9.086c0 .601.88 1.086 1.965 1.086 1.086 0 1.969-.485 1.969-1.086m0 0" style="stroke:none;fill-rule:nonzero;fill:url(#c)"/><path d="M5.79 8.828C5.79 8.371 4.933 8 3.878 8c-1.059 0-1.914.371-1.914.828 0 .461.855.832 1.914.832 1.055 0 1.91-.37 1.91-.832m0 0" style="stroke:none;fill-rule:nonzero;fill:#e44000;fill-opacity:1"/><path d="M5.79 8.719C5.79 8.324 4.98 8 3.98 8c-1.003 0-1.812.324-1.812.719 0 .398.809.719 1.812.719 1 0 1.81-.32 1.81-.72m0 0" style="stroke:none;fill-rule:nonzero;fill:#891301;fill-opacity:1"/><path d="M8.531 9.664c.078.59-.722 1.25-1.793 1.477-1.07.222-2.004-.075-2.086-.664-.078-.59.723-1.254 1.793-1.477s2.004.074 2.086.664m0 0" style="stroke:none;fill-rule:nonzero;fill:url(#d)"/><path d="M8.492 9.383c-.101-.445-1.023-.613-2.062-.38-1.04.235-1.801.786-1.7 1.227.102.446 1.024.614 2.063.38 1.039-.235 1.797-.786 1.7-1.227m0 0" style="stroke:none;fill-rule:nonzero;fill:#e44000;fill-opacity:1"/><path d="M8.477 9.281c-.086-.386-.954-.52-1.938-.3-.984.218-1.71.707-1.625 1.093.086.383.953.516 1.938.297.98-.219 1.71-.707 1.625-1.09m0 0" style="stroke:none;fill-rule:nonzero;fill:#891301;fill-opacity:1"/><path d="M11.754 9.969c0-.602-.879-1.086-1.965-1.086S7.82 9.367 7.82 9.969c0 .597.883 1.082 1.97 1.082 1.085 0 1.964-.485 1.964-1.082m0 0" style="stroke:none;fill-rule:nonzero;fill:url(#e)"/><path d="M11.754 9.71c0-.456-.856-.827-1.914-.827-1.055 0-1.91.37-1.91.828s.855.828 1.91.828c1.058 0 1.914-.371 1.914-.828m0 0" style="stroke:none;fill-rule:nonzero;fill:#e44000;fill-opacity:1"/><path d="M11.492 9.602c0-.383-.758-.692-1.695-.692-.934 0-1.692.309-1.692.692 0 .378.758.687 1.692.687.937 0 1.695-.309 1.695-.687m0 0" style="stroke:none;fill-rule:nonzero;fill:#891301;fill-opacity:1"/><path d="M13.203 8.734c0-.597-.883-1.086-1.969-1.086S9.27 8.137 9.27 8.734c0 .602.878 1.086 1.964 1.086s1.97-.484 1.97-1.086m0 0" style="stroke:none;fill-rule:nonzero;fill:url(#f)"/><path d="M13.203 8.48c0-.46-.855-.832-1.914-.832-1.055 0-1.91.372-1.91.832 0 .457.855.829 1.91.829 1.059 0 1.914-.371 1.914-.829m0 0" style="stroke:none;fill-rule:nonzero;fill:#e44000;fill-opacity:1"/><path d="M12.941 8.367c0-.379-.757-.687-1.691-.687-.937 0-1.695.308-1.695.687 0 .383.758.692 1.695.692.934 0 1.691-.309 1.691-.692m0 0" style="stroke:none;fill-rule:nonzero;fill:#891301;fill-opacity:1"/><path d="M15.34 6.887c0-.598-.88-1.086-1.965-1.086-1.086 0-1.965.488-1.965 1.086 0 .601.88 1.086 1.965 1.086 1.086 0 1.965-.485 1.965-1.086m0 0" style="stroke:none;fill-rule:nonzero;fill:url(#g)"/><path d="M15.34 6.633c0-.461-.856-.832-1.91-.832-1.059 0-1.914.37-1.914.832 0 .457.855.828 1.914.828 1.054 0 1.91-.371 1.91-.828m0 0" style="stroke:none;fill-rule:nonzero;fill:#e44000;fill-opacity:1"/><path d="M15.078 6.52c0-.38-.758-.688-1.691-.688-.934 0-1.692.309-1.692.688 0 .382.758.69 1.692.69s1.691-.308 1.691-.69m0 0" style="stroke:none;fill-rule:nonzero;fill:#891301;fill-opacity:1"/><path d="M1.734 7.566c-.074.075-.156.153-.187.266-.05.188.066.395.215.484.144.09.312.102.468.157.75.261 1.122 1.39 1.864 1.683.523.207 1.082-.058 1.625-.152.707-.125 1.449.059 2.066.508.5.363 1.012.925 1.578.765.38-.105.645-.507.938-.816.484-.504 1.11-.797 1.742-.816.191-.004.395.011.582-.055.305-.11.535-.442.676-.793.144-.356.226-.746.355-1.11.172-.488.434-.93.758-1.28.035-.04.074-.259.086-.313.016-.086-.047.011-.105-.047-.387-.383-.91-.473-1.395-.602-1.29-.343-2.492-1.043-3.762-1.488-1.265-.441-2.672-.613-3.863.086-.312.184-.484.422-.691.746-.23.36-.582.61-.88.883q-1.033.95-2.07 1.894m0 0" style="stroke:none;fill-rule:nonzero;fill:url(#h)"/><path d="M9.105 9.277c-.355-.351-.82-.441-1.32-.617-1.426-.394-2.742-.703-4.133-1.273-.39-.133-.785-.18-1.175-.266a2.4 2.4 0 0 1-1.227-.82c-.023.09-.04.187-.035.293.023.676 0 1.172.168 1.406s5.086 1.672 6.367 2.098c.895.297 1.105.511 1.488.476-.05-.492.211-.965-.133-1.297m0 0" style="stroke:none;fill-rule:nonzero;fill:url(#i)"/><path d="M14.71 4.555c.06-.555-.07-.586-.757-.73-.691-.15-5.062-1.485-5.726-1.66-.665-.177-1.047-.321-1.473-.177-.426.149-.902.442-.902.442-1.07.793-3.993 3.168-3.993 3.168s-.472.226-.605.703a2.4 2.4 0 0 0 1.226.82c.391.086.782.133 1.176.266 1.39.57 2.707.879 4.133 1.273.477.168.98.313 1.328.633.145-.152.383-.117.531-.258 4.649-3.695 5.059-4.45 5.063-4.48m0 0" style="stroke:none;fill-rule:nonzero;fill:url(#j)"/><path d="M9.605 8.895c-.152.14-.503.359-.5.382.043.461.055 1.332.098 1.32.402-.117 1.375-.917 2.137-1.472.762-.559 3.351-3.04 3.422-3.246.07-.2.027-.508.02-.715a20 20 0 0 0-.055-.96c.027.327-.188.546-.372.718-1.492 1.398-3.011 2.57-4.75 3.973m0 0" style="stroke:none;fill-rule:nonzero;fill:url(#k)"/><use xlink:href="#m" mask="url(#l)"/></svg>