<svg xmlns="http://www.w3.org/2000/svg" xmlns:xlink="http://www.w3.org/1999/xlink" width="16pt" height="16pt" viewBox="0 0 16 16"><defs><clipPath id="e"><path d="M3 9h10v5H3Zm0 0"/></clipPath><clipPath id="f"><path d="M7.836 9.82c-1.594 0-3.07-.133-4.3-.36a.44.44 0 0 0-.516.517c.41 2.003 2.382 3.652 4.812 3.652 2.66 0 4.45-1.703 4.82-3.66a.44.44 0 0 0-.515-.512c-1.235.23-2.711.363-4.301.363m0 0"/></clipPath><clipPath id="b"><path d="M0 0h16v16H0z"/></clipPath><clipPath id="i"><path d="M5 10h6v6H5Zm0 0"/></clipPath><clipPath id="j"><path d="M3.535 10.063v5.519h8.504v-5.52c-1.262.22-2.715.336-4.207.336-1.488 0-2.937-.117-4.2-.335"/></clipPath><clipPath id="k"><path d="M3 10h10v6H3Zm0 0"/></clipPath><clipPath id="l"><path d="M3.535 10.063v5.519h8.504v-5.52c-1.262.22-2.715.336-4.207.336-1.488 0-2.937-.117-4.2-.335"/></clipPath><clipPath id="c"><path d="M0 0h16v16H0z"/></clipPath><mask id="g"><g filter="url(#a)"><path d="M0 0h16v16H0z" style="fill:#000;fill-opacity:.6;stroke:none"/></g></mask><mask id="m"><g filter="url(#a)"><path d="M0 0h16v16H0z" style="fill:#000;fill-opacity:.301961;stroke:none"/></g></mask><g id="h" clip-path="url(#b)"><path d="M12.14 9.969a3.85 3.85 0 0 1-1.355 2.176c-.793.644-1.816.984-2.953.984-2.05 0-3.883-1.352-4.305-3.16 1.29.23 2.774.351 4.309.351 1.531 0 3.02-.12 4.305-.351m.078-.516q-.042-.002-.082.008c-1.235.226-2.711.36-4.305.36-1.59 0-3.066-.133-4.3-.36a.436.436 0 0 0-.512.516c.406 2.007 2.382 3.652 4.812 3.652 2.656 0 4.445-1.7 4.816-3.66a.436.436 0 0 0-.43-.516m0 0" style="stroke:none;fill-rule:nonzero;fill:#000;fill-opacity:1"/></g><g id="n" clip-path="url(#c)"><path d="M63.402 87.17v17.062" style="fill:none;stroke-width:4;stroke-linecap:round;stroke-linejoin:miter;stroke:#ab3f2e;stroke-opacity:1;stroke-miterlimit:10" transform="translate(0 -.221)scale(.125)"/></g><linearGradient id="d" x1="16.934" x2="16.934" y1="4.585" y2="27.865" gradientTransform="scale(.47244)" gradientUnits="userSpaceOnUse"><stop offset=".5" style="stop-color:#fee133;stop-opacity:1"/><stop offset=".612" style="stop-color:#fede32;stop-opacity:1"/><stop offset=".708" style="stop-color:#fcd32f;stop-opacity:1"/><stop offset=".797" style="stop-color:#fac12b;stop-opacity:1"/><stop offset=".883" style="stop-color:#f7a924;stop-opacity:1"/><stop offset=".9" style="stop-color:#f6a323;stop-opacity:1"/></linearGradient><filter id="a" width="100%" height="100%" x="0%" y="0%" filterUnits="objectBoundingBox"><feColorMatrix in="SourceGraphic" values="0 0 0 0 1 0 0 0 0 1 0 0 0 0 1 0 0 0 1 0"/></filter></defs><path d="M8 14.688c-3.492 0-7.25-2.184-7.25-6.985C.75 2.903 4.508.715 8 .715c1.934 0 3.727.64 5.047 1.8 1.441 1.278 2.203 3.067 2.203 5.188 0 2.106-.762 3.895-2.203 5.172C11.723 14.043 9.93 14.688 8 14.688m0 0" style="stroke:none;fill-rule:nonzero;fill:url(#d)"/><path d="M8 .965c1.875 0 3.61.617 4.879 1.738C14.266 3.93 15 5.656 15 7.7c0 2.035-.734 3.758-2.121 4.989-1.274 1.128-3.008 1.75-4.879 1.75-1.879 0-3.61-.614-4.879-1.727C1.734 11.492 1 9.758 1 7.699c0-2.066.734-3.8 2.121-5.015C4.383 1.574 6.117.964 8 .964m0-.5c-3.895 0-7.5 2.5-7.5 7.24 0 4.706 3.605 7.234 7.5 7.234s7.5-2.59 7.5-7.235C15.5 3.031 11.895.465 8 .465m0 0" style="stroke:none;fill-rule:nonzero;fill:#eb8f00;fill-opacity:1"/><g clip-path="url(#e)"><g clip-path="url(#f)"><path d="M7.836 9.82c-1.594 0-3.07-.133-4.3-.36a.44.44 0 0 0-.516.517c.41 2.003 2.382 3.652 4.812 3.652 2.66 0 4.45-1.703 4.82-3.66a.44.44 0 0 0-.515-.512c-1.235.23-2.711.363-4.301.363m0 0" style="stroke:none;fill-rule:nonzero;fill:#242424;fill-opacity:1"/><use xlink:href="#h" mask="url(#g)"/></g></g><g clip-path="url(#i)"><g clip-path="url(#j)"><path d="M8.129 15.54h-.41a2.154 2.154 0 0 1-2.153-2.153v-2.973l4.664-.113.051 3.082a2.155 2.155 0 0 1-2.152 2.156m0 0" style="stroke:none;fill-rule:nonzero;fill:#e04c74;fill-opacity:1"/></g></g><g clip-path="url(#k)"><g clip-path="url(#l)"><use xlink:href="#n" mask="url(#m)"/></g></g><path d="M12.992 6.496a2.674 2.674 0 0 1-2.672 2.676 2.674 2.674 0 0 1 0-5.348c1.477 0 2.672 1.2 2.672 2.672m0 0" style="stroke:none;fill-rule:nonzero;fill:#fff;fill-opacity:1"/><path d="M10.32 4.324c1.196 0 2.172.977 2.172 2.172 0 1.2-.976 2.176-2.172 2.176a2.175 2.175 0 0 1 0-4.348m0-.5a2.674 2.674 0 0 0 0 5.348 2.674 2.674 0 0 0 0-5.348m0 0" style="stroke:none;fill-rule:nonzero;fill:#eb8f00;fill-opacity:1"/><path d="M11.348 6.496a.94.94 0 0 0-.934-.95.94.94 0 0 0-.934.95c0 .527.418.953.934.953a.943.943 0 0 0 .934-.953M6.176 7.387l-.031-.012a.2.2 0 0 1-.04-.02.1.1 0 0 1-.039-.011c-.023-.004-.066-.02-.113-.032l-.156-.035a3.105 3.105 0 0 0-.922-.004c-.031.004-.098.012-.133.02l-.117.023-.238.059a3 3 0 0 0-.395.152q-.164.085-.246.145-.04.03-.062.043-.019.016-.02.015l-.035.028a.307.307 0 0 1-.43-.43q.002 0 .028-.035a1.412 1.412 0 0 1 .21-.23 2.197 2.197 0 0 1 .703-.41q.147-.062.305-.098c.051-.016.11-.028.164-.035a3.018 3.018 0 0 1 .809-.047 2.2 2.2 0 0 1 .785.203c.067.031.117.062.168.094q.039.023.066.043c.012.007.024.019.032.027q.028.019.027.02a.31.31 0 0 1-.32.527m0 0" style="stroke:none;fill-rule:nonzero;fill:#242424;fill-opacity:1"/><path d="M6.09 7.277q0-.001-.024-.027c-.02-.02-.043-.035-.066-.055a4 4 0 0 0-.254-.199 8 8 0 0 0-.39-.27c-.075-.042-.153-.093-.231-.14a8.704 8.704 0 0 0-.492-.277l-.238-.125a7 7 0 0 0-.735-.317l-.11-.035-.03-.012a.306.306 0 0 1 .102-.598h.046q.04.002.117.008c.102.012.242.032.402.075.157.039.336.101.524.18.09.038.187.077.281.124s.192.102.278.145c.097.059.183.11.273.168.086.055.172.117.25.176a3.061 3.061 0 0 1 .762.762q.016.03.015.03a.31.31 0 0 1-.48.387m0 0" style="stroke:none;fill-rule:nonzero;fill:#242424;fill-opacity:1"/></svg>