<svg xmlns="http://www.w3.org/2000/svg" width="16pt" height="16pt" viewBox="0 0 16 16"><defs><linearGradient id="a" x1="64" x2="64" y1="19.72" y2="107.7" gradientTransform="scale(.125)" gradientUnits="userSpaceOnUse"><stop offset=".5" style="stop-color:#fee133;stop-opacity:1"/><stop offset=".612" style="stop-color:#fede32;stop-opacity:1"/><stop offset=".708" style="stop-color:#fcd32f;stop-opacity:1"/><stop offset=".797" style="stop-color:#fac12b;stop-opacity:1"/><stop offset=".883" style="stop-color:#f7a924;stop-opacity:1"/><stop offset=".9" style="stop-color:#f6a323;stop-opacity:1"/></linearGradient></defs><path d="M8 14.988C4.512 14.988.75 12.801.75 8 .75 3.2 4.512 1.012 8 1.012c1.938 0 3.727.636 5.05 1.8 1.438 1.274 2.2 3.075 2.2 5.188s-.762 3.898-2.2 5.176c-1.323 1.16-3.124 1.812-5.05 1.812m0 0" style="stroke:none;fill-rule:nonzero;fill:url(#a)"/><path d="M8 1.262c1.875 0 3.613.613 4.875 1.738C14.262 4.227 15 5.95 15 8c0 2.04-.738 3.762-2.125 4.988-1.273 1.125-3.012 1.75-4.875 1.75-1.875 0-3.613-.613-4.875-1.726C1.738 11.789 1 10.062 1 8s.738-3.8 2.125-5.023C4.387 1.875 6.113 1.262 8 1.262m0-.5C4.102.762.5 3.262.5 8c0 4.71 3.602 7.238 7.5 7.238s7.5-2.59 7.5-7.238C15.5 3.324 11.887.762 8 .762m0 0" style="stroke:none;fill-rule:nonzero;fill:#eb8f00;fill-opacity:1"/><path d="M9.7 11.55c0 .887-.712 1.598-1.598 1.598-.891 0-1.602-.71-1.602-1.597s.71-1.602 1.602-1.602c.886 0 1.597.727 1.597 1.602M10.71 5.863c.528 0 1 .438 1 1.176 0 .734-.472 1.172-1 1.172-.523 0-1-.438-1-1.172 0-.738.477-1.176 1-1.176M5.273 5.863c-.523 0-1 .438-1 1.176 0 .734.477 1.172 1 1.172.528 0 1-.438 1-1.172 0-.738-.472-1.176-1-1.176m0 0" style="stroke:none;fill-rule:nonzero;fill:#242424;fill-opacity:1"/><path d="M83.406 31.313h-.094c-2.218-.063-2.78-3.25-.312-3.688 1.844-.281 3.875-.25 5.844.063 5.531.812 10.219 3.875 13.219 7.718 1.5 1.969-1.157 3.907-2.782 2.407-4.219-3.688-9.875-6.22-15.875-6.5ZM44.844 31.313h.093c2.22-.063 2.782-3.25.313-3.688-1.844-.281-3.875-.25-5.844.063-5.531.812-10.218 3.875-13.218 7.718-1.5 1.969 1.156 3.907 2.78 2.407 4.22-3.688 9.876-6.22 15.876-6.5Zm0 0" style="fill-rule:nonzero;fill:#eb8f00;fill-opacity:1;stroke-width:1;stroke-linecap:butt;stroke-linejoin:miter;stroke:#eb8f00;stroke-opacity:1;stroke-miterlimit:10" transform="scale(.125)"/></svg>