<svg xmlns="http://www.w3.org/2000/svg" width="16pt" height="16pt" viewBox="0 0 16 16"><defs><linearGradient id="a" x1="63.995" x2="63.995" y1="19.897" y2="107.52" gradientTransform="scale(.125)" gradientUnits="userSpaceOnUse"><stop offset=".5" style="stop-color:#fee133;stop-opacity:1"/><stop offset=".612" style="stop-color:#fede32;stop-opacity:1"/><stop offset=".708" style="stop-color:#fcd32f;stop-opacity:1"/><stop offset=".797" style="stop-color:#fac12b;stop-opacity:1"/><stop offset=".883" style="stop-color:#f7a924;stop-opacity:1"/><stop offset=".9" style="stop-color:#f6a323;stop-opacity:1"/></linearGradient></defs><path d="M8 14.957C4.523 14.957.781 12.781.781 8S4.52 1.043 8 1.043c1.926 0 3.71.637 5.023 1.793C14.461 4.106 15.22 5.89 15.22 8c0 2.098-.758 3.879-2.196 5.152-1.316 1.164-3.101 1.805-5.023 1.805m0 0" style="stroke:none;fill-rule:nonzero;fill:url(#a)"/><path d="M8 1.293c1.867 0 3.59.613 4.86 1.73 1.378 1.22 2.109 2.942 2.109 4.977 0 2.023-.73 3.742-2.11 4.965-1.273 1.12-3 1.742-4.859 1.742-1.871 0-3.598-.61-4.86-1.719C1.759 11.773 1.028 10.047 1.028 8c0-2.059.73-3.785 2.114-4.996C4.398 1.898 6.125 1.293 8 1.293m0-.5C4.121.793.527 3.281.527 8c0 4.691 3.594 7.207 7.473 7.207S15.469 12.629 15.469 8c0-4.652-3.59-7.207-7.469-7.207m0 0" style="stroke:none;fill-rule:nonzero;fill:#eb8f00;fill-opacity:1"/><path d="M4.164 10.719h1.059v1.219H4.164ZM5.223 9.223H6.28v1.218H5.223ZM3.102 9.223H4.16v1.218H3.102ZM7.344 9.223h1.058v1.218H7.344ZM9.465 9.223h1.058v1.218H9.465ZM11.586 9.223h1.059v1.218h-1.06ZM6.285 10.719h1.059v1.219H6.285ZM8.406 10.719h1.059v1.219H8.406ZM10.527 10.719h1.059v1.219h-1.059Zm0 0" style="stroke:none;fill-rule:nonzero;fill:#616161;fill-opacity:1"/><path d="M3.102 10.293h9.543v.734H3.102Zm0 0" style="stroke:none;fill-rule:nonzero;fill:#616161;fill-opacity:1"/><path d="m13.383 10.926-.25.25a.264.264 0 0 1-.371 0l-.414-.41a.27.27 0 0 1 0-.375l.25-.25a.264.264 0 0 1 .37 0l.415.414a.264.264 0 0 1 0 .37m0 0" style="stroke:none;fill-rule:nonzero;fill:#242424;fill-opacity:1"/><path d="m15.148 11.719-.988-.957a.74.74 0 0 0-1.043.011l-.203.211a.74.74 0 0 0 .012 1.043l.992.961a.74.74 0 0 0 1.043-.015l.203-.211a.736.736 0 0 0-.016-1.043m-1.945.023a.3.3 0 0 1-.09-.207.3.3 0 0 1 .082-.21l.274-.282a.297.297 0 0 1 .511.2.3.3 0 0 1-.085.21l-.274.281a.29.29 0 0 1-.418.008m1.547.649-.168.175a.337.337 0 0 1-.473.008l-.187-.183a.334.334 0 0 1-.008-.473l.168-.176a.337.337 0 0 1 .473-.008l.187.188c.137.125.14.336.008.469M10.469 4.758c.46 0 .883.539.883 1.437 0 .895-.422 1.438-.883 1.438s-.88-.543-.88-1.438c0-.898.423-1.437.88-1.437M5.527 4.758c-.46 0-.879.539-.879 1.437 0 .895.418 1.438.88 1.438.46 0 .878-.543.878-1.438 0-.898-.418-1.437-.879-1.437m0 0" style="stroke:none;fill-rule:nonzero;fill:#242424;fill-opacity:1"/></svg>