<svg xmlns="http://www.w3.org/2000/svg" width="16pt" height="16pt" viewBox="0 0 16 16"><defs><clipPath id="b"><path d="M3 8h10v6H3Zm0 0"/></clipPath><clipPath id="c"><path d="M8 8.602c-2.117 0-4.418 1.773-4.418 3.96 0 .61.703.965 1.328.72.774-.31 1.918-.618 3.09-.618s2.316.309 3.09.617c.625.246 1.328-.11 1.328-.719 0-2.187-2.461-3.96-4.418-3.96m0 0"/></clipPath><clipPath id="d"><path d="M3 8h10v3H3Zm0 0"/></clipPath><clipPath id="e"><path d="M8 8.602c-2.117 0-4.418 1.773-4.418 3.96 0 .61.703.965 1.328.72.774-.31 1.918-.618 3.09-.618s2.316.309 3.09.617c.625.246 1.328-.11 1.328-.719 0-2.187-2.461-3.96-4.418-3.96m0 0"/></clipPath><clipPath id="f"><path d="M8 10.129c1.55 0 2.992.2 4.129.57V7.121H3.87v3.574C5.008 10.328 6.45 10.13 8 10.13m0 0"/></clipPath><linearGradient id="a" x1="64" x2="64" y1="110.28" y2="22.3" gradientTransform="matrix(.125 0 0 -.125 0 16.25)" gradientUnits="userSpaceOnUse"><stop offset=".566" style="stop-color:#f6a323;stop-opacity:1"/><stop offset=".917" style="stop-color:#fee133;stop-opacity:1"/></linearGradient><linearGradient id="g" x1="64.981" x2="64.981" y1="85.333" y2="125.34" gradientTransform="scale(.125)" gradientUnits="userSpaceOnUse"><stop offset="0" style="stop-color:#469643;stop-opacity:1"/><stop offset=".02" style="stop-color:#489743;stop-opacity:1"/><stop offset=".443" style="stop-color:#6db141;stop-opacity:1"/><stop offset=".784" style="stop-color:#84c03f;stop-opacity:1"/><stop offset="1" style="stop-color:#8cc63f;stop-opacity:1"/></linearGradient></defs><path d="M8 14.984C4.508 14.984.75 12.801.75 8 .75 3.2 4.508 1.016 8 1.016c1.934 0 3.727.636 5.047 1.8C14.488 4.09 15.25 5.883 15.25 8c0 2.11-.762 3.895-2.203 5.172C11.723 14.344 9.93 14.984 8 14.984m0 0" style="stroke:none;fill-rule:nonzero;fill:url(#a)"/><path d="M8 1.266c1.875 0 3.61.617 4.879 1.738C14.266 4.23 15 5.957 15 8c0 2.035-.734 3.758-2.121 4.984-1.277 1.13-3.008 1.75-4.879 1.75-1.879 0-3.613-.613-4.879-1.726C1.734 11.789 1 10.058 1 8c0-2.066.734-3.8 2.121-5.02C4.383 1.875 6.117 1.266 8 1.266m0-.5C4.105.766.5 3.266.5 8c0 4.71 3.605 7.234 7.5 7.234s7.5-2.59 7.5-7.234C15.5 3.328 11.895.766 8 .766m0 0" style="stroke:none;fill-rule:nonzero;fill:#eb8f00;fill-opacity:1"/><path d="M8 8.602c-2.117 0-4.418 1.773-4.418 3.96 0 .61.703.965 1.328.72.774-.31 1.918-.618 3.09-.618s2.316.309 3.09.617c.625.246 1.328-.11 1.328-.719 0-2.187-2.461-3.96-4.418-3.96m0 0" style="stroke:none;fill-rule:nonzero;fill:#eb8f00;fill-opacity:1"/><g clip-path="url(#b)"><g clip-path="url(#c)"><path d="M8 8.602c-2.117 0-4.418 1.773-4.418 3.96 0 .61.703.965 1.328.72.774-.31 1.918-.618 3.09-.618s2.316.309 3.09.617c.625.246 1.328-.11 1.328-.719 0-2.187-2.461-3.96-4.418-3.96m0 0" style="stroke:none;fill-rule:nonzero;fill:#242424;fill-opacity:1"/></g></g><g clip-path="url(#d)"><g clip-path="url(#e)"><g clip-path="url(#f)"><path d="M8 9.098c.805 0 1.77.39 2.52 1.011.84.7 1.3 1.57 1.3 2.454 0 .207-.164.3-.316.3a.4.4 0 0 1-.156-.031c-.504-.2-1.836-.664-3.348-.664s-2.844.465-3.348.664a.4.4 0 0 1-.156.031c-.152 0-.316-.093-.316-.3 0-1.954 2.054-3.465 3.82-3.465m0-.496c-2.117 0-4.418 1.773-4.418 3.96 0 .477.43.797.914.797.137 0 .277-.023.414-.078.774-.308 1.918-.617 3.09-.617s2.316.309 3.09.617c.137.055.277.078.414.078.484 0 .914-.32.914-.796 0-2.188-2.461-3.961-4.418-3.961m0 0" style="stroke:none;fill-rule:nonzero;fill:#eb8f00;fill-opacity:1"/></g></g></g><path d="M14.09 14.027c-.016-.105-.176-.168-.356-.14-.183.027-.316.133-.3.238.015.11.175.172.355.145.184-.028.316-.133.3-.243M2.848 13.602c-.243-.075-.477-.02-.52.12-.047.145.117.321.356.395.242.074.476.02.52-.12.042-.142-.118-.321-.356-.395m0 0" style="stroke:none;fill-rule:nonzero;fill:#368231;fill-opacity:1"/><path d="M12.086 14.895c.61-.184.832-.395.805-.547-.04-.2-.891-.227-1.891-.086v-3.325s-1.016-.3-3.062-.3c-2.274 0-3.063.3-3.063.3v2.985c-.625-.04-1.098.039-1.121.207-.02.137.379.297.863.434-.945.097-1.515.25-1.515.421 0 .293 1.804.532 4.007.532.98 0 1.895-.047 2.59-.125.364.058.875.093 1.442.093 1.101 0 2-.14 2-.312 0-.121-.426-.223-1.055-.277m0 0" style="stroke:none;fill-rule:nonzero;fill:url(#g)"/><path d="M7.582 13.816c0-.324-.133-.586-.3-.586-.169 0-.302.262-.302.586 0 .329.133.59.301.59s.301-.261.301-.59M8.125 11.738c0-.281-.125-.508-.281-.508s-.282.227-.282.508c0 .285.125.512.282.512s.281-.227.281-.512M10.043 12.98c0-.503-.223-.906-.496-.906-.274 0-.496.403-.496.906 0 .5.222.907.496.907.273 0 .496-.407.496-.907M6.262 12.29c0-.227-.106-.411-.235-.411-.132 0-.234.184-.234.41 0 .227.102.41.234.41.13 0 .235-.183.235-.41m0 0" style="stroke:none;fill-rule:nonzero;fill:#368231;fill-opacity:1"/><path d="M12.793 14.8c.285-.175.34-.35.312-.488-.035-.183-.328-.453-1.855-.265L11.254 11l-.34-.082-.039 3.562.215-.03c.902-.13 1.422-.09 1.605-.044-.074.07-.265.188-.664.309L11.09 15l.98.082c.297.027.508.059.653.09-.297.062-.832.125-1.582.125a9.5 9.5 0 0 1-1.41-.094l-.028-.004-.027.004a24 24 0 0 1-2.567.125c-1.98 0-3.324-.183-3.722-.344.168-.066.55-.16 1.265-.234l.973-.102-.941-.265a4 4 0 0 1-.625-.227c.148-.039.43-.074.867-.05l.199.011.012-3.254-.387.098v2.766c-.54-.016-1.11.05-1.152.378-.016.125.035.247.265.372-.812.144-.941.328-.941.507 0 .23.226.414 1.34.563.761.101 1.777.156 2.847.156.946 0 1.864-.043 2.586-.125.387.063.899.094 1.446.094 1.808 0 2.187-.27 2.187-.5.004-.137-.074-.274-.535-.371m0 0" style="stroke:none;fill-rule:nonzero;fill:#368231;fill-opacity:1"/><path d="m4.148 7.07 1.524-.297-1.57-.652a.4.4 0 0 1-.055-.027c-.324-.2-.379-.61-.09-.867.227-.196.598-.2.863-.036.621.38 2.086 1.278 2.657 1.63.101.062.09.195-.028.242L4.586 8.137c-.02.008-.04.011-.059.02-.379.105-.793-.11-.851-.473-.043-.274.172-.532.472-.614M11.977 7.04l-1.524-.298 1.57-.652a.4.4 0 0 0 .055-.027c.324-.2.379-.61.09-.868-.227-.195-.598-.199-.863-.035-.621.38-2.086 1.277-2.657 1.63-.101.062-.09.194.028.241l2.863 1.074q.03.01.059.02c.379.105.793-.11.851-.473.043-.273-.172-.53-.472-.613m0 0" style="stroke:none;fill-rule:nonzero;fill:#242424;fill-opacity:1"/><path d="M52.219 22.906s-.032.313-.063.875c-.031.157-.031.282-.031.469a9 9 0 0 0-.187.656l-.188.75-.281.75a11 11 0 0 1-.75 1.657 17 17 0 0 1-1.094 1.687c-.437.563-.875 1.125-1.406 1.625-.532.531-1.094 1-1.688 1.469-.625.406-1.218.843-1.875 1.187-.625.375-1.312.594-1.937.875-.657.219-1.313.438-1.938.563a9.7 9.7 0 0 1-1.812.25 8 8 0 0 1-1.5.031c-.469 0-.844-.062-1.188-.125-.625-.094-1-.187-1-.187-1.062-.282-1.75-1.376-1.468-2.47a2.07 2.07 0 0 1 1.343-1.437l.344-.093s.281-.094.719-.188c.218-.062.5-.125.812-.219.313-.093.625-.187 1-.343.375-.094.75-.282 1.157-.438.406-.156.812-.406 1.25-.594.406-.25.843-.468 1.25-.75.437-.25.843-.562 1.25-.843.406-.313.843-.625 1.187-.97.375-.312.719-.655 1.063-1 .312-.374.656-.687.937-1.03.25-.344.531-.657.75-.97.25-.343.438-.593.563-.843.093-.125.187-.219.25-.312.093-.125.156-.282.218-.407.25-.468.438-.75.438-.75a2.016 2.016 0 0 1 2.812-.718c.719.406 1.063 1.125 1.063 1.843ZM79.625 21.781s.188.282.438.782c.062.093.124.28.218.375.063.093.156.218.219.343.156.219.344.469.594.813.219.312.5.625.75.968.281.344.625.657.937 1.032.344.343.688.687 1.063 1.031.344.344.781.625 1.156.938.438.312.813.625 1.25.843.438.282.875.532 1.281.75.438.188.844.438 1.25.594s.781.344 1.156.438c.344.156.688.25 1 .343s.594.188.813.219c.438.125.719.188.719.188l.312.125c1.094.312 1.656 1.468 1.344 2.53-.25.688-.781 1.188-1.469 1.344 0 0-.344.094-1 .22-.312.062-.687.093-1.156.124a8.5 8.5 0 0 1-1.531-.031 13 13 0 0 1-1.781-.25c-.626-.125-1.282-.344-1.938-.562-.625-.282-1.344-.532-1.937-.907-.657-.343-1.282-.75-1.907-1.156-.562-.5-1.156-.937-1.656-1.469-.531-.5-.969-1.093-1.406-1.625a17 17 0 0 1-1.094-1.687 11 11 0 0 1-.75-1.657q-.188-.375-.281-.75c-.094-.28-.156-.53-.219-.75-.062-.25-.125-.468-.156-.656-.031-.218-.031-.343-.031-.468-.063-.563-.063-.907-.063-.907-.031-1.125.875-2.062 2.031-2.093.781-.063 1.469.343 1.844.968Zm0 0" style="fill-rule:nonzero;fill:#6d4c41;fill-opacity:1;stroke-width:1;stroke-linecap:butt;stroke-linejoin:miter;stroke:#6d4c41;stroke-opacity:1;stroke-miterlimit:10" transform="scale(.125)"/></svg>