<svg xmlns="http://www.w3.org/2000/svg" xmlns:xlink="http://www.w3.org/1999/xlink" width="16pt" height="16pt" viewBox="0 0 16 16"><defs><clipPath id="f"><path d="M3 7h10v7H3Zm0 0"/></clipPath><clipPath id="g"><path d="M8.348 9.559c-1.508.507-2.95.855-4.192 1.03a.44.44 0 0 0-.32.653c1.027 1.77 3.426 2.7 5.727 1.926 2.515-.852 3.671-3.031 3.398-5.008a.443.443 0 0 0-.652-.32c-1.094.613-2.454 1.21-3.961 1.719m0 0"/></clipPath><clipPath id="b"><path d="M0 0h16v16H0z"/></clipPath><clipPath id="j"><path d="M5 9h6v7H5Zm0 0"/></clipPath><clipPath id="k"><path d="m4.348 11.16 1.765 5.23 8.059-2.718-1.762-5.23c-1.129.613-2.465 1.187-3.879 1.663-1.414.473-2.824.829-4.09 1.024"/></clipPath><clipPath id="l"><path d="M4 8h11v8H4Zm0 0"/></clipPath><clipPath id="m"><path d="m4.348 11.16 1.765 5.23 8.059-2.718-1.762-5.23c-1.129.613-2.465 1.187-3.879 1.663-1.414.473-2.824.829-4.09 1.024"/></clipPath><clipPath id="c"><path d="M0 0h16v16H0z"/></clipPath><clipPath id="d"><path d="M0 0h16v16H0z"/></clipPath><mask id="h"><g filter="url(#a)"><path d="M0 0h16v16H0z" style="fill:#000;fill-opacity:.6;stroke:none"/></g></mask><mask id="n"><g filter="url(#a)"><path d="M0 0h16v16H0z" style="fill:#000;fill-opacity:.301961;stroke:none"/></g></mask><mask id="p"><g filter="url(#a)"><path d="M0 0h16v16H0z" style="fill:#000;fill-opacity:.301961;stroke:none"/></g></mask><g id="i" clip-path="url(#b)"><path d="M12.477 8.32a3.88 3.88 0 0 1-.59 2.496c-.547.864-1.407 1.512-2.485 1.875-.492.168-1 .25-1.511.25-1.477 0-2.871-.73-3.575-1.867 1.293-.191 2.739-.55 4.192-1.039 1.453-.492 2.82-1.082 3.969-1.715m.046-.535a.44.44 0 0 0-.214.055c-1.094.613-2.454 1.21-3.961 1.719-1.508.507-2.95.855-4.192 1.03a.44.44 0 0 0-.32.653c.777 1.34 2.344 2.2 4.055 2.2.55 0 1.113-.087 1.672-.274 2.519-.852 3.671-3.031 3.398-5.008a.44.44 0 0 0-.438-.375m0 0" style="stroke:none;fill-rule:nonzero;fill:#000;fill-opacity:1"/></g><g id="o" clip-path="url(#c)"><path d="m9.73 9.684.204 3.703c.046.91-.66 1.687-1.57 1.726l-.41.024h-.079c-.883 0-1.61-.692-1.648-1.575l-.207-2.75Zm.473-.172-4.707 1.41.23 2.664a2.154 2.154 0 0 0 2.149 2.05h.105l.41-.023a2.15 2.15 0 0 0 2.047-2.25Zm0 0" style="stroke:none;fill-rule:nonzero;fill:#ab3f2e;fill-opacity:1"/></g><g id="q" clip-path="url(#d)"><path d="m62.813 82.094 1.593 21.094" style="fill:none;stroke-width:4;stroke-linecap:round;stroke-linejoin:miter;stroke:#ab3f2e;stroke-opacity:1;stroke-miterlimit:10" transform="scale(.125)"/></g><linearGradient id="e" x1="64" x2="64" y1="19.717" y2="107.7" gradientTransform="scale(.125)" gradientUnits="userSpaceOnUse"><stop offset=".5" style="stop-color:#fee133;stop-opacity:1"/><stop offset=".612" style="stop-color:#fede32;stop-opacity:1"/><stop offset=".708" style="stop-color:#fcd32f;stop-opacity:1"/><stop offset=".797" style="stop-color:#fac12b;stop-opacity:1"/><stop offset=".883" style="stop-color:#f7a924;stop-opacity:1"/><stop offset=".9" style="stop-color:#f6a323;stop-opacity:1"/></linearGradient><filter id="a" width="100%" height="100%" x="0%" y="0%" filterUnits="objectBoundingBox"><feColorMatrix in="SourceGraphic" values="0 0 0 0 1 0 0 0 0 1 0 0 0 0 1 0 0 0 1 0"/></filter></defs><path d="M8 14.984C4.508 14.984.75 12.801.75 8 .75 3.2 4.508 1.016 8 1.016c1.934 0 3.727.636 5.047 1.8C14.488 4.09 15.25 5.883 15.25 8c0 2.11-.762 3.895-2.203 5.172C11.723 14.344 9.93 14.984 8 14.984m0 0" style="stroke:none;fill-rule:nonzero;fill:url(#e)"/><path d="M8 1.266c1.875 0 3.61.617 4.879 1.738C14.266 4.23 15 5.957 15 8c0 2.035-.734 3.758-2.121 4.984-1.277 1.13-3.008 1.75-4.879 1.75-1.879 0-3.613-.613-4.879-1.726C1.734 11.789 1 10.058 1 8c0-2.066.734-3.8 2.121-5.02C4.383 1.875 6.117 1.266 8 1.266m0-.5C4.105.766.5 3.266.5 8c0 4.71 3.605 7.234 7.5 7.234s7.5-2.59 7.5-7.234C15.5 3.328 11.895.766 8 .766m0 0" style="stroke:none;fill-rule:nonzero;fill:#eb8f00;fill-opacity:1"/><path d="M12.805 5.11a2.75 2.75 0 0 1-2.75 2.745 2.748 2.748 0 1 1 0-5.496c1.52 0 2.75 1.23 2.75 2.75m0 0" style="stroke:none;fill-rule:nonzero;fill:#fff;fill-opacity:1"/><path d="M10.055 2.86c.922 0 1.742.55 2.086 1.402a2.25 2.25 0 0 1-1.243 2.93 2.241 2.241 0 0 1-2.926-1.238 2.248 2.248 0 0 1 2.083-3.095m0-.5A2.749 2.749 0 0 0 7.508 6.14a2.75 2.75 0 0 0 2.547 1.72 2.749 2.749 0 0 0 0-5.5m0 0" style="stroke:none;fill-rule:nonzero;fill:#eb8f00;fill-opacity:1"/><path d="M10.93 5.125c0 .484-.39.875-.875.875a.874.874 0 0 1-.875-.875c0-.484.39-.875.875-.875.484 0 .875.39.875.875m0 0" style="stroke:none;fill-rule:nonzero;fill:#242424;fill-opacity:1"/><path d="M6.484 7.113a1.999 1.999 0 1 1-4 0 1.999 1.999 0 1 1 4 0m0 0" style="stroke:none;fill-rule:nonzero;fill:#fff;fill-opacity:1"/><path d="M4.492 5.613c.613 0 1.16.367 1.39.938a1.5 1.5 0 0 1-.007 1.148 1.51 1.51 0 0 1-1.383.914c-.613 0-1.16-.367-1.387-.937a1.5 1.5 0 0 1 1.387-2.063m0-.5c-.25 0-.504.047-.75.149a1.998 1.998 0 0 0 1.5 3.703 1.999 1.999 0 0 0-.75-3.852m0 0" style="stroke:none;fill-rule:nonzero;fill:#eb8f00;fill-opacity:1"/><path d="M5.367 7.125a.876.876 0 1 1-1.748-.002.876.876 0 0 1 1.748.002m0 0" style="stroke:none;fill-rule:nonzero;fill:#242424;fill-opacity:1"/><g clip-path="url(#f)"><g clip-path="url(#g)"><path d="M8.348 9.559c-1.508.507-2.95.855-4.192 1.03a.44.44 0 0 0-.32.653c1.027 1.77 3.426 2.7 5.727 1.926 2.515-.852 3.671-3.031 3.398-5.008a.443.443 0 0 0-.652-.32c-1.094.613-2.454 1.21-3.961 1.719m0 0" style="stroke:none;fill-rule:nonzero;fill:#242424;fill-opacity:1"/><use xlink:href="#i" mask="url(#h)"/></g></g><g clip-path="url(#j)"><g clip-path="url(#k)"><path d="m8.387 15.613-.41.024a2.153 2.153 0 0 1-2.25-2.051l-.23-2.715 4.706-1.36.23 3.852a2.15 2.15 0 0 1-2.046 2.25m0 0" style="stroke:none;fill-rule:nonzero;fill:#e04c74;fill-opacity:1"/></g></g><g clip-path="url(#l)"><g clip-path="url(#m)"><use xlink:href="#o" mask="url(#n)"/><use xlink:href="#q" mask="url(#p)"/></g></g></svg>