<svg xmlns="http://www.w3.org/2000/svg" width="16pt" height="16pt" viewBox="0 0 16 16"><defs><linearGradient id="a" x1="64" x2="64" y1="105.26" y2="22.739" gradientTransform="scale(.125)" gradientUnits="userSpaceOnUse"><stop offset=".001" style="stop-color:#c7c7c7;stop-opacity:1"/><stop offset=".28" style="stop-color:#cacaca;stop-opacity:1"/><stop offset=".525" style="stop-color:#d5d5d5;stop-opacity:1"/><stop offset=".758" style="stop-color:#e7e7e7;stop-opacity:1"/><stop offset=".947" style="stop-color:#fcfcfc;stop-opacity:1"/></linearGradient></defs><path d="M2.547 14.215a.79.79 0 0 1-.613-.293c-.2-.246-.168-.527-.137-.672a.25.25 0 0 0-.047-.215.25.25 0 0 0-.195-.09H1.53a.77.77 0 0 1-.61-.273.791.791 0 0 1 .614-1.281c.23 0 .445.101.594.273q.012.028.035.066c.043.051.102.09.168.098h.031q.09-.001.16-.055L12.855 3.43a.25.25 0 0 0 .094-.172.27.27 0 0 0-.062-.188 1 1 0 0 0-.055-.047.786.786 0 0 1 1.238-.964.77.77 0 0 1 .133.668.25.25 0 0 0 .05.214.25.25 0 0 0 .196.094h.024a.76.76 0 0 1 .605.274.787.787 0 0 1-.117 1.105.78.78 0 0 1-.492.172.78.78 0 0 1-.594-.27.2.2 0 0 0-.04-.066.24.24 0 0 0-.167-.098c-.008 0-.02-.004-.031-.004a.27.27 0 0 0-.157.055L3.148 12.547a.27.27 0 0 0-.093.176c-.004.07.02.136.062.187q.031.03.055.047a.793.793 0 0 1-.133 1.086.8.8 0 0 1-.492.172m0 0" style="stroke:none;fill-rule:nonzero;fill:#ccc;fill-opacity:1"/><path d="M13.453 2.016c.164 0 .317.07.418.195.129.164.11.355.086.457a.5.5 0 0 0 .488.617h.024c.097 0 .285.024.414.18a.537.537 0 0 1-.418.87.52.52 0 0 1-.383-.163.507.507 0 0 0-.387-.27q-.03-.005-.058-.004a.5.5 0 0 0-.317.114L2.988 12.355a.503.503 0 0 0-.062.72q.035.03.058.054a.53.53 0 0 1-.105.715.53.53 0 0 1-.75-.078.54.54 0 0 1-.086-.457.5.5 0 0 0-.488-.618H1.53a.52.52 0 0 1-.41-.18.54.54 0 0 1 .078-.753.53.53 0 0 1 .336-.117c.149 0 .285.058.387.164.008.02.027.047.043.07a.52.52 0 0 0 .34.2q.03.002.058.003a.5.5 0 0 0 .317-.113l10.332-8.34a.503.503 0 0 0 .062-.719l-.058-.058a.53.53 0 0 1 .437-.832m0-.5a1.035 1.035 0 0 0-.8 1.684c.011.015.03.023.046.034L2.363 11.578c-.011-.015-.011-.035-.027-.05a1.023 1.023 0 0 0-1.45-.157 1.037 1.037 0 0 0-.156 1.457c.204.25.5.367.801.367h.024c-.07.301-.024.625.183.883.207.254.508.387.809.387a1.035 1.035 0 0 0 .8-1.684c-.011-.015-.03-.02-.046-.035l10.332-8.344c.012.016.015.035.027.051.203.254.504.383.805.383a1.033 1.033 0 0 0 .805-1.684 1.02 1.02 0 0 0-.805-.367h-.024c.075-.3.024-.625-.183-.887a1.02 1.02 0 0 0-.805-.382m0 0" style="stroke:none;fill-rule:nonzero;fill:#a1a1a1;fill-opacity:1"/><path d="M13.453 14.215a.8.8 0 0 1-.492-.176.79.79 0 0 1-.133-1.082 1 1 0 0 0 .055-.047.24.24 0 0 0 .062-.187.27.27 0 0 0-.093-.176L2.523 4.203a.27.27 0 0 0-.16-.055q-.013-.001-.031.004a.24.24 0 0 0-.168.098.2.2 0 0 0-.039.066.77.77 0 0 1-.59.27.786.786 0 0 1-.613-1.277.77.77 0 0 1 .61-.274h.023a.25.25 0 0 0 .195-.094.25.25 0 0 0 .047-.214c-.031-.145-.063-.426.137-.672a.8.8 0 0 1 .613-.29.786.786 0 0 1 .621 1.258 1 1 0 0 0-.055.047.25.25 0 0 0-.058.188c.004.066.039.133.09.172l10.335 8.343a.25.25 0 0 0 .157.055h.031a.27.27 0 0 0 .168-.098 1 1 0 0 0 .039-.066.782.782 0 0 1 1.086-.098.786.786 0 0 1 .117 1.102.77.77 0 0 1-.605.273h-.028a.25.25 0 0 0-.242.309.77.77 0 0 1-.137.672.78.78 0 0 1-.613.293m0 0" style="stroke:none;fill-rule:nonzero;fill:#ccc;fill-opacity:1"/><path d="M2.547 2.016a.53.53 0 0 1 .438.832l-.06.058a.503.503 0 0 0 .063.719l10.332 8.344c.09.07.2.11.317.11q.03.001.058-.005a.49.49 0 0 0 .383-.27.55.55 0 0 1 .387-.163.52.52 0 0 1 .332.12.53.53 0 0 1 .082.75.51.51 0 0 1-.41.184h-.024a.5.5 0 0 0-.488.614c.023.101.043.296-.086.457a.54.54 0 0 1-.75.082.53.53 0 0 1-.105-.715c.015-.02.035-.035.058-.059a.503.503 0 0 0-.062-.719L2.68 4.012a.5.5 0 0 0-.313-.114q-.032-.001-.062.004a.5.5 0 0 0-.34.196.3.3 0 0 0-.043.074.53.53 0 0 1-.719.047.535.535 0 0 1-.082-.754.52.52 0 0 1 .414-.18h.024a.5.5 0 0 0 .484-.617.53.53 0 0 1 .086-.453.53.53 0 0 1 .418-.2m0-.5c-.305 0-.602.13-.809.383a1.03 1.03 0 0 0-.183.887H1.53c-.3 0-.597.113-.8.367-.36.446-.29 1.094.156 1.453a1.031 1.031 0 0 0 1.45-.152c.015-.016.015-.035.026-.055l10.332 8.344c-.011.016-.03.024-.047.04a1.035 1.035 0 0 0 .805 1.683c.3 0 .602-.133.805-.387.21-.258.258-.586.183-.887h.028c.3 0 .597-.113.8-.367.36-.445.29-1.094-.156-1.453a1.02 1.02 0 0 0-.648-.23c-.3 0-.602.132-.805.382-.012.02-.015.04-.027.055L3.3 3.234c.015-.011.035-.02.047-.035a1.035 1.035 0 0 0-.801-1.683m0 0" style="stroke:none;fill-rule:nonzero;fill:#a1a1a1;fill-opacity:1"/><path d="M5.883 13.156a.21.21 0 0 1-.211-.21v-1.391a.25.25 0 0 0-.25-.25H4.68c-.375 0-.727-.145-.989-.41a1.4 1.4 0 0 1-.41-.989V7.56A4.72 4.72 0 0 1 8 2.844a4.72 4.72 0 0 1 4.715 4.715v2.343c0 .774-.63 1.403-1.399 1.403h-.738a.25.25 0 0 0-.25.25v1.39c0 .117-.098.211-.215.211Zm0 0" style="stroke:none;fill-rule:nonzero;fill:url(#a)"/><path d="M8 3.094a4.47 4.47 0 0 1 4.465 4.465v2.343c0 .637-.516 1.153-1.149 1.153h-.738c-.277 0-.5.222-.5.5v1.351H5.922v-1.351c0-.278-.227-.5-.5-.5H4.68c-.305 0-.594-.121-.813-.34a1.14 1.14 0 0 1-.336-.813V7.56A4.477 4.477 0 0 1 8 3.094m0-.5a4.97 4.97 0 0 0-4.965 4.965v2.343a1.647 1.647 0 0 0 1.649 1.653h.738v1.39c0 .254.207.461.46.461h4.231a.46.46 0 0 0 .465-.46v-1.391h.738c.91 0 1.653-.742 1.653-1.653V7.56A4.975 4.975 0 0 0 8 2.594m0 0" style="stroke:none;fill-rule:nonzero;fill:#a1a1a1;fill-opacity:1"/><path d="M8.305 10.383h-.617a.333.333 0 0 1-.317-.43l.207-.668c.125-.414.715-.414.84 0l.207.668a.335.335 0 0 1-.32.43M9.129 8.05a1.287 1.287 0 1 1 2.574.004 1.287 1.287 0 0 1-2.574-.003M4.293 8.05c0-.71.574-1.284 1.289-1.284.711 0 1.285.574 1.285 1.285a1.288 1.288 0 1 1-2.574 0M6.695 13.379h-.047a.27.27 0 0 1-.27-.27v-.718a.27.27 0 0 1 .27-.274h.047c.153 0 .274.121.274.274v.718a.27.27 0 0 1-.274.27M8.02 13.36h-.047a.27.27 0 0 1-.27-.274v-.719a.27.27 0 0 1 .27-.27h.047a.27.27 0 0 1 .273.27v.719a.27.27 0 0 1-.273.273M9.344 13.36h-.047a.27.27 0 0 1-.27-.274v-.719a.27.27 0 0 1 .27-.27h.047a.27.27 0 0 1 .273.27v.719a.27.27 0 0 1-.273.273m0 0" style="stroke:none;fill-rule:nonzero;fill:#242424;fill-opacity:1"/></svg>