<svg xmlns="http://www.w3.org/2000/svg" width="16pt" height="16pt" viewBox="0 0 16 16"><defs><linearGradient id="a" x1="64" x2="64" y1="21.465" y2="109.45" gradientTransform="scale(.125)" gradientUnits="userSpaceOnUse"><stop offset=".5" style="stop-color:#fee133;stop-opacity:1"/><stop offset=".612" style="stop-color:#fede32;stop-opacity:1"/><stop offset=".708" style="stop-color:#fcd32f;stop-opacity:1"/><stop offset=".797" style="stop-color:#fac12b;stop-opacity:1"/><stop offset=".883" style="stop-color:#f7a924;stop-opacity:1"/><stop offset=".9" style="stop-color:#f6a323;stop-opacity:1"/></linearGradient></defs><path d="M8 15.203C4.508 15.203.75 13.02.75 8.22S4.508 1.234 8 1.23c1.934 0 3.727.641 5.047 1.805C14.488 4.31 15.25 6.102 15.25 8.22c0 2.11-.762 3.894-2.203 5.172C11.723 14.563 9.93 15.203 8 15.203m0 0" style="stroke:none;fill-rule:nonzero;fill:url(#a)"/><path d="M8 1.48c1.875 0 3.61.622 4.879 1.743C14.266 4.449 15 6.176 15 8.219c0 2.035-.734 3.758-2.121 4.984-1.277 1.129-3.008 1.75-4.879 1.75-1.879 0-3.613-.613-4.879-1.726C1.734 12.007 1 10.277 1 8.219c0-2.067.734-3.801 2.121-5.02C4.383 2.094 6.117 1.48 8 1.48m0-.5C4.105.98.5 3.484.5 8.22c0 4.707 3.605 7.234 7.5 7.234s7.5-2.59 7.5-7.234C15.5 3.547 11.895.98 8 .98m0 0" style="stroke:none;fill-rule:nonzero;fill:#eb8f00;fill-opacity:1"/><path d="M9.773 2.703q-.066-.029-.136-.05a1.4 1.4 0 0 0-.164-.06c-.086-.027-.176-.05-.262-.077a10 10 0 0 0-.313-.102c-.199-.066-.453-.219-.582.066a.5.5 0 0 0-.05.204c.004.105.074.148.168.187.09.035.187.07.28.102.032.007.067.02.098.027.02.008.051.012.047.035 0 .016-.023.031-.035.043a1 1 0 0 0-.07.05l-.035.024q-.105.071-.211.137c-.055.04-.113.074-.168.113q-.03.024-.067.047c-.078.047-.14.102-.21.156l-.024.024c-.066.059-.133.125-.14.215-.008.113.078.168.18.215a1 1 0 0 0 .112.043h.004c.121.05.258.085.395.132q.156.05.312.098c.2.066.453.219.582-.062a.5.5 0 0 0 .051-.207c-.004-.102-.078-.149-.168-.188a3 3 0 0 0-.281-.098c-.024-.007-.043-.011-.066-.02-.012-.007-.04-.01-.051-.019-.024-.027.023-.047.039-.058l.152-.094c.05-.035.106-.07.156-.11q.036-.021.079-.05a1 1 0 0 0 .168-.117c.132-.11.449-.243.343-.465a.4.4 0 0 0-.133-.14M12.258 1.512c-.051-.024-.106-.035-.156-.051a2 2 0 0 0-.188-.05c-.098-.02-.195-.044-.289-.063q-.175-.044-.352-.086c-.226-.059-.511-.203-.628.117a.6.6 0 0 0-.043.23c.015.114.097.157.199.188.105.035.215.062.32.09l.106.023c.023.008.058.008.054.035.004.02-.02.035-.031.047a1 1 0 0 1-.113.09c-.07.059-.149.117-.219.172a3 3 0 0 0-.172.137c-.023.02-.047.035-.074.054a3 3 0 0 0-.215.188l-.027.027c-.067.07-.133.149-.133.246 0 .125.098.176.215.219q.056.023.125.035l.004.004c.136.047.293.074.441.11q.175.04.352.085c.222.055.511.2.629-.12a.6.6 0 0 0 .042-.227c-.015-.114-.097-.16-.203-.192a3 3 0 0 0-.316-.086q-.036-.009-.07-.02c-.02-.003-.047-.003-.059-.01-.031-.028.02-.056.035-.067q.084-.058.16-.121c.051-.04.11-.082.16-.13q.042-.027.083-.062a2 2 0 0 0 .175-.14c.137-.137.47-.305.336-.54a.35.35 0 0 0-.148-.132M15.578 1.121a.5.5 0 0 0-.2-.183 4.668 4.668 0 0 0-.457-.133q-.193-.04-.382-.086-.234-.06-.469-.114c-.3-.074-.68-.27-.836.16a.7.7 0 0 0-.054.301c.02.153.129.211.265.254.137.047.282.082.422.117q.07.019.145.032c.027.008.07.011.07.047 0 .023-.027.046-.047.062-.031.031-.066.055-.098.082q-.022.017-.046.04l-.293.222a5 5 0 0 0-.23.183l-.095.07c-.105.079-.195.165-.289.25l-.035.04c-.09.09-.18.191-.18.32 0 .168.133.235.286.293q.081.035.168.05l.004.005c.183.062.39.097.59.144q.234.06.468.114c.297.074.68.27.836-.157a.75.75 0 0 0 .055-.304c-.02-.153-.13-.211-.266-.254-.14-.047-.281-.082-.422-.117l-.097-.02c-.02-.008-.059-.008-.075-.023-.039-.032.028-.07.051-.086q.105-.076.211-.157c.07-.058.145-.109.211-.171.04-.028.074-.055.113-.086.078-.059.157-.118.23-.188.18-.172.622-.402.446-.707m0 0" style="stroke:none;fill-rule:nonzero;fill:#d7598b;fill-opacity:1"/><path d="M6.957 12.914a.86.86 0 0 1-.707-1.336c.39-.598.996-.914 1.75-.914s1.36.316 1.75.914a.84.84 0 0 1 .043.879.86.86 0 0 1-.75.457.8.8 0 0 1-.29-.05 2.28 2.28 0 0 0-1.507 0 .8.8 0 0 1-.289.05M6.203 6.836l-.027.027c-.012.012-.043.047-.063.063l-.086.07q-.056.042-.125.09a2 2 0 0 1-.148.086c-.05.027-.113.047-.172.07-.059.02-.125.031-.187.047a2 2 0 0 1-.196.012h.016-.074c-.036 0-.04-.004-.051-.004a1.097 1.097 0 0 1-.277-.059 1.345 1.345 0 0 1-.32-.156 2 2 0 0 1-.216-.164l-.078-.07-.031-.032a.44.44 0 0 0-.57-.023.33.33 0 0 0-.098.406l.02.04q.015.034.054.105a1.75 1.75 0 0 0 .824.715c.118.05.247.093.38.12.07.012.132.024.218.032.04.004.082.008.106.012l.093.004c.14-.004.282-.02.418-.047a2 2 0 0 0 .38-.121c.116-.051.226-.11.316-.172.093-.063.171-.133.238-.2.07-.062.125-.128.168-.187.02-.031.043-.059.058-.082l.051-.082c.035-.05.035-.07.051-.094l.012-.031c.086-.188-.016-.399-.227-.473a.44.44 0 0 0-.457.098M11.813 6.836l-.024.027c-.016.012-.047.047-.062.063q-.038.03-.086.07-.058.042-.125.09c-.047.027-.094.059-.149.086s-.113.047-.172.07c-.062.02-.125.031-.187.047a2 2 0 0 1-.2.012h.02-.078c-.031 0-.04-.004-.05-.004a.4.4 0 0 1-.087-.012 1 1 0 0 1-.187-.047c-.059-.02-.121-.039-.172-.07a1.676 1.676 0 0 1-.363-.25c-.051-.043-.079-.07-.079-.07l-.03-.032a.44.44 0 0 0-.571-.023.33.33 0 0 0-.098.406l.02.04c.012.023.027.058.055.105.05.086.136.21.269.343q.1.101.242.196.136.1.313.176c.117.05.246.093.379.12.07.012.132.024.218.032.04.004.086.008.106.012l.094.004c.144-.004.28-.02.418-.047a2 2 0 0 0 .695-.293c.094-.063.172-.133.238-.2.07-.062.121-.128.168-.187a1 1 0 0 1 .059-.082l.05-.082c.032-.05.036-.07.047-.094.008-.02.016-.031.016-.031.082-.188-.02-.399-.227-.473a.45.45 0 0 0-.46.098m0 0" style="stroke:none;fill-rule:nonzero;fill:#242424;fill-opacity:1"/></svg>