<svg xmlns="http://www.w3.org/2000/svg" xmlns:xlink="http://www.w3.org/1999/xlink" width="16pt" height="16pt" viewBox="0 0 16 16"><defs><clipPath id="b"><path d="M0 0h16v16H0z"/></clipPath><clipPath id="c"><path d="M0 0h16v16H0z"/></clipPath><clipPath id="d"><path d="M0 0h16v16H0z"/></clipPath><clipPath id="e"><path d="M0 0h16v16H0z"/></clipPath><clipPath id="f"><path d="M0 0h16v16H0z"/></clipPath><clipPath id="g"><path d="M0 0h16v16H0z"/></clipPath><clipPath id="h"><path d="M0 0h16v16H0z"/></clipPath><clipPath id="i"><path d="M0 0h16v16H0z"/></clipPath><clipPath id="j"><path d="M0 0h16v16H0z"/></clipPath><clipPath id="k"><path d="M0 0h16v16H0z"/></clipPath><clipPath id="l"><path d="M0 0h16v16H0z"/></clipPath><clipPath id="m"><path d="M0 0h16v16H0z"/></clipPath><clipPath id="n"><path d="M0 0h16v16H0z"/></clipPath><clipPath id="o"><path d="M0 0h16v16H0z"/></clipPath><clipPath id="p"><path d="M0 0h16v16H0z"/></clipPath><clipPath id="q"><path d="M0 0h16v16H0z"/></clipPath><mask id="w"><g filter="url(#a)"><path d="M0 0h16v16H0z" style="fill:#000;fill-opacity:.2;stroke:none"/></g></mask><mask id="y"><g filter="url(#a)"><path d="M0 0h16v16H0z" style="fill:#000;fill-opacity:.8;stroke:none"/></g></mask><mask id="A"><g filter="url(#a)"><path d="M0 0h16v16H0z" style="fill:#000;fill-opacity:.101961;stroke:none"/></g></mask><mask id="C"><g filter="url(#a)"><path d="M0 0h16v16H0z" style="fill:#000;fill-opacity:.101961;stroke:none"/></g></mask><mask id="E"><g filter="url(#a)"><path d="M0 0h16v16H0z" style="fill:#000;fill-opacity:.101961;stroke:none"/></g></mask><mask id="G"><g filter="url(#a)"><path d="M0 0h16v16H0z" style="fill:#000;fill-opacity:.101961;stroke:none"/></g></mask><mask id="I"><g filter="url(#a)"><path d="M0 0h16v16H0z" style="fill:#000;fill-opacity:.101961;stroke:none"/></g></mask><mask id="K"><g filter="url(#a)"><path d="M0 0h16v16H0z" style="fill:#000;fill-opacity:.101961;stroke:none"/></g></mask><mask id="M"><g filter="url(#a)"><path d="M0 0h16v16H0z" style="fill:#000;fill-opacity:.101961;stroke:none"/></g></mask><mask id="O"><g filter="url(#a)"><path d="M0 0h16v16H0z" style="fill:#000;fill-opacity:.101961;stroke:none"/></g></mask><mask id="Q"><g filter="url(#a)"><path d="M0 0h16v16H0z" style="fill:#000;fill-opacity:.101961;stroke:none"/></g></mask><mask id="S"><g filter="url(#a)"><path d="M0 0h16v16H0z" style="fill:#000;fill-opacity:.101961;stroke:none"/></g></mask><mask id="U"><g filter="url(#a)"><path d="M0 0h16v16H0z" style="fill:#000;fill-opacity:.101961;stroke:none"/></g></mask><mask id="W"><g filter="url(#a)"><path d="M0 0h16v16H0z" style="fill:#000;fill-opacity:.2;stroke:none"/></g></mask><mask id="Y"><g filter="url(#a)"><path d="M0 0h16v16H0z" style="fill:#000;fill-opacity:.2;stroke:none"/></g></mask><mask id="aa"><g filter="url(#a)"><path d="M0 0h16v16H0z" style="fill:#000;fill-opacity:.2;stroke:none"/></g></mask><g id="x" clip-path="url(#b)"><path d="M4.625 9H5v2.5h-.375Zm0 0" style="stroke:none;fill-rule:nonzero;fill:#424242;fill-opacity:1"/></g><g id="z" clip-path="url(#c)"><path d="M5 9h1v2.5H5Zm0 0" style="stroke:none;fill-rule:nonzero;fill:#eee;fill-opacity:1"/></g><g id="B" clip-path="url(#d)"><path d="M6.758 9h.125v2.5h-.125Zm0 0" style="stroke:none;fill-rule:nonzero;fill:#e0e0e0;fill-opacity:1"/></g><g id="D" clip-path="url(#e)"><path d="M7.414 9h.125v2.5h-.125Zm0 0" style="stroke:none;fill-rule:nonzero;fill:#e0e0e0;fill-opacity:1"/></g><g id="F" clip-path="url(#f)"><path d="M8.07 9h.125v2.5H8.07Zm0 0" style="stroke:none;fill-rule:nonzero;fill:#e0e0e0;fill-opacity:1"/></g><g id="H" clip-path="url(#g)"><path d="M8.727 9h.125v2.5h-.125Zm0 0" style="stroke:none;fill-rule:nonzero;fill:#e0e0e0;fill-opacity:1"/></g><g id="J" clip-path="url(#h)"><path d="M9.383 9h.125v2.5h-.125Zm0 0" style="stroke:none;fill-rule:nonzero;fill:#e0e0e0;fill-opacity:1"/></g><g id="L" clip-path="url(#i)"><path d="M10.04 9h.124v2.5h-.125Zm0 0" style="stroke:none;fill-rule:nonzero;fill:#e0e0e0;fill-opacity:1"/></g><g id="N" clip-path="url(#j)"><path d="M10.695 9h.125v2.5h-.125Zm0 0" style="stroke:none;fill-rule:nonzero;fill:#e0e0e0;fill-opacity:1"/></g><g id="P" clip-path="url(#k)"><path d="M11.352 9h.125v2.5h-.125Zm0 0" style="stroke:none;fill-rule:nonzero;fill:#e0e0e0;fill-opacity:1"/></g><g id="R" clip-path="url(#l)"><path d="M12.008 9h.125v2.5h-.125Zm0 0" style="stroke:none;fill-rule:nonzero;fill:#e0e0e0;fill-opacity:1"/></g><g id="T" clip-path="url(#m)"><path d="M12.664 9h.125v2.5h-.125Zm0 0" style="stroke:none;fill-rule:nonzero;fill:#e0e0e0;fill-opacity:1"/></g><g id="V" clip-path="url(#n)"><path d="M13.32 9h.125v2.5h-.125Zm0 0" style="stroke:none;fill-rule:nonzero;fill:#e0e0e0;fill-opacity:1"/></g><g id="X" clip-path="url(#o)"><path d="M15.125 9.375v1.75H1.063c-.075-.098-.188-.414-.188-.875 0-.46.113-.777.188-.875ZM15.242 9H1c-.277 0-.5.559-.5 1.25s.223 1.25.5 1.25h14.242a.255.255 0 0 0 .258-.258V9.258A.255.255 0 0 0 15.242 9m0 0" style="stroke:none;fill-rule:nonzero;fill:#424242;fill-opacity:1"/></g><g id="Z" clip-path="url(#p)"><path d="M12.8 1.176c.387.152.786.39 1.063.762.344.464.446 1.074.301 1.816-.273 1.418-.48 2.762-.207 3.715-.539-.563-.992-1.453-.836-2.703.195-1.551.336-2.703-.32-3.59M11.746.543c-.098 0-.133.129-.043.18 1.395.808 1.313 1.863 1.047 3.996-.266 2.16 1.133 3.414 2.035 3.77q.031.01.055.011c.14 0 .226-.203.09-.285-1-.594-.805-2.281-.399-4.39.5-2.59-1.797-3.184-2.773-3.282zm0 0" style="stroke:none;fill-rule:nonzero;fill:#424242;fill-opacity:1"/></g><g id="ab" clip-path="url(#q)"><path d="M11.105 1.191c.239.121.47.293.633.524.266.367.336.851.211 1.437-.219 1.043-.394 2.035-.277 2.809-.34-.457-.582-1.11-.457-1.969.16-1.144.293-2.066-.11-2.8M10.078.5c-.078 0-.11.105-.039.148 1.133.684 1.05 1.547.805 3.29-.25 1.765.879 2.816 1.613 3.12a.1.1 0 0 0 .047.008c.113 0 .187-.16.074-.23-.808-.504-.625-1.883-.262-3.606.446-2.113-1.43-2.632-2.23-2.73zm0 0" style="stroke:none;fill-rule:nonzero;fill:#424242;fill-opacity:1"/></g><linearGradient id="r" x1="106.6" x2="106.6" y1="6.5" y2="75.447" gradientTransform="scale(.125)" gradientUnits="userSpaceOnUse"><stop offset="0" style="stop-color:#eee;stop-opacity:1"/><stop offset="1" style="stop-color:#bdbdbd;stop-opacity:1"/></linearGradient><linearGradient id="s" x1="90.539" x2="90.539" y1="6.5" y2="67.051" gradientTransform="scale(.125)" gradientUnits="userSpaceOnUse"><stop offset="0" style="stop-color:#eee;stop-opacity:1"/><stop offset="1" style="stop-color:#bdbdbd;stop-opacity:1"/></linearGradient><linearGradient id="t" x1="76" x2="76" y1="69.468" y2="94.966" gradientTransform="scale(.125)" gradientUnits="userSpaceOnUse"><stop offset="0" style="stop-color:#eee;stop-opacity:1"/><stop offset=".267" style="stop-color:#e9e9e9;stop-opacity:1"/><stop offset=".594" style="stop-color:#dadada;stop-opacity:1"/><stop offset=".953" style="stop-color:#c1c1c1;stop-opacity:1"/><stop offset="1" style="stop-color:#bdbdbd;stop-opacity:1"/></linearGradient><linearGradient id="u" x1="117.68" x2="117.68" y1="71.875" y2="92.899" gradientTransform="scale(.125)" gradientUnits="userSpaceOnUse"><stop offset="0" style="stop-color:#ff6e40;stop-opacity:1"/><stop offset=".224" style="stop-color:#ff6a3a;stop-opacity:1"/><stop offset=".519" style="stop-color:#ff5d2a;stop-opacity:1"/><stop offset=".852" style="stop-color:#ff480e;stop-opacity:1"/><stop offset="1" style="stop-color:#ff3d00;stop-opacity:1"/></linearGradient><linearGradient id="v" x1="22" x2="22" y1="72.5" y2="90.677" gradientTransform="scale(.125)" gradientUnits="userSpaceOnUse"><stop offset="0" style="stop-color:#ffc107;stop-opacity:1"/><stop offset="1" style="stop-color:#ffa000;stop-opacity:1"/></linearGradient><filter id="a" width="100%" height="100%" x="0%" y="0%" filterUnits="objectBoundingBox"><feColorMatrix in="SourceGraphic" values="0 0 0 0 1 0 0 0 0 1 0 0 0 0 1 0 0 0 1 0"/></filter></defs><path d="M14.93 8.215c.156.094.023.34-.145.273-.902-.355-2.3-1.61-2.035-3.77.266-2.132.348-3.187-1.047-3.995-.094-.051-.05-.192.055-.18.976.098 3.273.691 2.777 3.281-.406 2.11-.601 3.797.395 4.39m0 0" style="stroke:none;fill-rule:nonzero;fill:url(#r)"/><path d="M12.578 6.836c.129.078.016.277-.121.223-.734-.305-1.867-1.356-1.613-3.121.246-1.743.328-2.606-.805-3.29-.074-.043-.035-.16.05-.148.802.094 2.677.613 2.227 2.73-.363 1.723-.546 3.102.262 3.606m0 0" style="stroke:none;fill-rule:nonzero;fill:url(#s)"/><path d="M6 9H5v2.5h9V9Zm0 0" style="stroke:none;fill-rule:nonzero;fill:url(#t)"/><path d="M15.242 11.5h-1.32V9h1.32c.145 0 .258.113.258.258v1.984a.255.255 0 0 1-.258.258m0 0" style="stroke:none;fill-rule:nonzero;fill:url(#u)"/><path d="M1 9c-.277 0-.5.559-.5 1.25s.223 1.25.5 1.25h4V9Zm0 0" style="stroke:none;fill-rule:nonzero;fill:url(#v)"/><use xlink:href="#x" mask="url(#w)"/><use xlink:href="#z" mask="url(#y)"/><path d="m1.188 9.105-.102.106c-.024.027-.008.07.027.07h.203c.032 0 .051-.043.028-.07l-.102-.106a.04.04 0 0 0-.054 0M1.973 10.996l.16-.144c.039-.036.02-.102-.028-.106l-.296-.031c-.051-.008-.082.055-.051.098l.133.175a.06.06 0 0 0 .082.008M1.305 11.258l-.11.12c-.023.028-.008.079.032.075h.222c.04 0 .059-.05.031-.078l-.113-.117c-.015-.02-.043-.02-.062 0M2.02 9.637l-.098.105c-.024.028-.008.07.027.07h.2c.035 0 .05-.042.027-.07l-.098-.105a.04.04 0 0 0-.058 0M.852 9.848l.101.242c.024.058.102.058.125-.004l.125-.348c.02-.062-.035-.117-.09-.093l-.226.109a.07.07 0 0 0-.035.094M1.094 10.695l.039.09c.008.024.039.024.047 0l.05-.137c.008-.02-.015-.043-.035-.035l-.086.043c-.015.008-.023.024-.015.04M1.46 9.895l-.077.027c-.02.004-.024.031-.004.043l.101.055c.02.011.04-.008.032-.028l-.024-.082c-.004-.012-.015-.02-.027-.015M2.656 9.344l-.101.105c-.024.028-.008.07.027.07h.203c.031 0 .05-.042.027-.07l-.101-.105a.04.04 0 0 0-.055 0M3.473 10.992l-.207-.015c-.051-.004-.082.058-.047.101l.191.242c.031.04.098.02.102-.035l.015-.226c0-.036-.023-.063-.054-.067M3.492 9.875l-.101.105c-.024.028-.008.07.027.07h.2a.04.04 0 0 0 .027-.07l-.098-.105a.04.04 0 0 0-.055 0M4.133 9.434l.086.12c.02.028.062.016.07-.019l.024-.21c.003-.04-.036-.063-.063-.04l-.11.094c-.019.012-.019.039-.007.055M4.422 9.66l-.16.082c-.04.02-.04.082.004.094l.234.094c.04.015.078-.032.059-.07l-.075-.176c-.011-.024-.039-.036-.062-.024M3.652 10.516l-.097.105c-.024.027-.008.07.027.07h.2c.034 0 .05-.043.027-.07l-.102-.105c-.012-.016-.039-.016-.055 0M2.996 9.219l.031.203c.008.047.067.062.094.023l.156-.238c.028-.039-.004-.094-.05-.086l-.188.031a.06.06 0 0 0-.043.067M2.324 10.086l.098.242c.023.063.101.059.125 0l.125-.351c.023-.059-.035-.118-.09-.09l-.227.105c-.03.016-.046.059-.03.094M2.563 10.93l.039.093c.007.024.039.024.046 0l.051-.136c.008-.024-.015-.043-.035-.035l-.086.043a.03.03 0 0 0-.015.035M2.93 10.133l-.078.027c-.02.004-.02.031-.004.043l.105.055c.016.012.035-.008.031-.028l-.027-.082c-.004-.011-.016-.02-.027-.015M3.453 9.523l-.012.075c0 .02.016.03.032.02l.078-.063c.015-.012.011-.035-.008-.035l-.07-.012c-.008-.004-.02.004-.02.015M4.008 9.047l-.063.035c-.015.008-.011.031.008.04l.094.026c.016.004.031-.015.023-.03l-.035-.067c-.008-.008-.02-.012-.027-.004M4.094 10.016l-.114.035c-.027.008-.03.05-.007.062l.148.09c.024.012.055-.012.047-.043l-.035-.12c-.004-.02-.024-.032-.04-.024M4.402 10.512l.11.097c.027.024.066 0 .062-.035l-.015-.215c-.004-.035-.047-.05-.07-.023l-.09.117a.05.05 0 0 0 .003.059M3.21 10.492l.063.055c.016.015.036 0 .036-.02l-.012-.117a.02.02 0 0 0-.035-.012l-.051.063a.024.024 0 0 0 0 .031M.727 10.465l-.118.027c-.027.008-.035.047-.011.063l.144.097c.024.02.055-.007.051-.035l-.027-.129a.035.035 0 0 0-.04-.023M1.992 10.234l-.078.028c-.02.004-.023.035-.004.043l.102.054c.02.012.039-.004.031-.027l-.023-.082c-.004-.012-.016-.02-.028-.016M4.46 10.953l-.187.067c-.043.015-.05.082-.007.105l.246.14c.043.024.09-.023.078-.07l-.063-.203c-.007-.031-.035-.047-.066-.039M1.953 9.207l-.121.043a.038.038 0 0 0-.004.07l.16.09c.028.016.059-.012.051-.043L2 9.234a.04.04 0 0 0-.047-.027m0 0" style="stroke:none;fill-rule:nonzero;fill:#ffca28;fill-opacity:1"/><path d="m14.668 9.082-.105.11a.04.04 0 0 0 .027.07h.215a.04.04 0 0 0 .027-.07l-.105-.11a.04.04 0 0 0-.059 0M15.113 10.984l.176-.144c.04-.035.02-.102-.035-.106l-.316-.03c-.055-.005-.086.058-.055.097l.144.176a.066.066 0 0 0 .086.007M14.797 11.234l-.117.121a.045.045 0 0 0 .03.079l.243-.004c.04 0 .059-.047.031-.078l-.125-.118c-.015-.02-.046-.015-.062 0M15 9.512l-.105.105a.04.04 0 0 0 .027.07h.215a.04.04 0 0 0 .027-.07l-.105-.105a.04.04 0 0 0-.059 0M14.309 9.828l.109.242c.027.059.11.059.133-.004l.133-.347a.072.072 0 0 0-.094-.094l-.242.11a.07.07 0 0 0-.04.093M14.57 10.672l.04.094c.011.023.042.023.05 0l.05-.137c.013-.02-.01-.043-.034-.035l-.094.043c-.012.004-.02.023-.012.035M14.96 9.875l-.081.023c-.02.008-.024.036-.004.047l.11.055c.019.012.038-.008.035-.027l-.028-.082q-.013-.023-.031-.016M14.176 10.445l-.13.028c-.026.007-.034.047-.007.062l.152.098c.028.015.063-.008.055-.035l-.031-.13c-.004-.015-.02-.03-.04-.023M14.762 10.234l-.082.028c-.02.004-.024.035-.004.043l.11.054c.019.012.038-.004.034-.027l-.03-.082q-.01-.02-.028-.016M14.188 9.45l-.083.023c-.02.007-.023.035-.003.043l.109.058c.02.008.039-.008.035-.027l-.027-.082a.03.03 0 0 0-.031-.016M15.254 9.219l-.133.043c-.035.008-.039.054-.008.07l.176.09a.038.038 0 0 0 .055-.043l-.043-.133c-.008-.023-.028-.035-.047-.027M15.23 10.27l-.132.043a.038.038 0 0 0-.004.07l.172.094c.03.011.066-.016.054-.047l-.043-.133c-.004-.02-.027-.031-.047-.027M14.367 11.031l-.133.043c-.03.008-.035.055-.004.07l.172.09c.032.016.067-.011.055-.043l-.043-.132a.035.035 0 0 0-.047-.028m0 0" style="stroke:none;fill-rule:nonzero;fill:#e64a19;fill-opacity:1"/><use xlink:href="#B" mask="url(#A)"/><use xlink:href="#D" mask="url(#C)"/><use xlink:href="#F" mask="url(#E)"/><use xlink:href="#H" mask="url(#G)"/><use xlink:href="#J" mask="url(#I)"/><use xlink:href="#L" mask="url(#K)"/><use xlink:href="#N" mask="url(#M)"/><use xlink:href="#P" mask="url(#O)"/><use xlink:href="#R" mask="url(#Q)"/><use xlink:href="#T" mask="url(#S)"/><use xlink:href="#V" mask="url(#U)"/><use xlink:href="#X" mask="url(#W)"/><use xlink:href="#Z" mask="url(#Y)"/><use xlink:href="#ab" mask="url(#aa)"/></svg>