<svg xmlns="http://www.w3.org/2000/svg" xmlns:xlink="http://www.w3.org/1999/xlink" width="16pt" height="16pt" viewBox="0 0 16 16"><defs><clipPath id="b"><path d="M0 0h16v16H0z"/></clipPath><clipPath id="c"><path d="M0 0h16v16H0z"/></clipPath><clipPath id="d"><path d="M0 0h16v16H0z"/></clipPath><clipPath id="e"><path d="M0 0h16v16H0z"/></clipPath><clipPath id="f"><path d="M0 0h16v16H0z"/></clipPath><clipPath id="g"><path d="M0 0h16v16H0z"/></clipPath><mask id="i"><g filter="url(#a)"><path d="M0 0h16v16H0z" style="fill:#000;fill-opacity:.2;stroke:none"/></g></mask><mask id="k"><g filter="url(#a)"><path d="M0 0h16v16H0z" style="fill:#000;fill-opacity:.2;stroke:none"/></g></mask><mask id="n"><g filter="url(#a)"><path d="M0 0h16v16H0z" style="fill:#000;fill-opacity:.2;stroke:none"/></g></mask><mask id="p"><g filter="url(#a)"><path d="M0 0h16v16H0z" style="fill:#000;fill-opacity:.2;stroke:none"/></g></mask><mask id="r"><g filter="url(#a)"><path d="M0 0h16v16H0z" style="fill:#000;fill-opacity:.2;stroke:none"/></g></mask><mask id="t"><g filter="url(#a)"><path d="M0 0h16v16H0z" style="fill:#000;fill-opacity:.2;stroke:none"/></g></mask><g id="j" clip-path="url(#b)"><path d="M8 7.035c1.434 0 2.426.254 3.117.805.613.484 1.028 1.226 1.348 2.406.195.711.515 2.5-.695 3.707a.373.373 0 0 0 .218.637c1.27.152 2.059.355 2.528.535h-13c.468-.176 1.242-.379 2.492-.531a.372.372 0 0 0 .215-.637c-.414-.406-1.305-1.582-.696-3.703C4.133 8.168 5.023 7.035 8 7.035m0-.375c-3.129 0-4.172 1.2-4.828 3.488-.399 1.375-.317 2.98.789 4.075-2.055.254-3.426.703-3.457 1.277h15.023c-.03-.578-1.418-1.031-3.496-1.281 1.098-1.09 1.172-2.692.797-4.07C12.203 7.858 11.125 6.66 8 6.66m0 0" style="stroke:none;fill-rule:nonzero;fill:#424242;fill-opacity:1"/></g><g id="l" clip-path="url(#c)"><path d="M10.566 6.5c.098 0 .23.55.23.742-.007.133-.503.653-2.812.653-.464 0-.859-.012-1.285-.055H6.66c-.094 0-.2.039-.27.101a.39.39 0 0 0-.14.278v2.484c0 .23-.203.422-.437.422a.434.434 0 0 1-.438-.422V7.727c0-.086 0-.172-.055-.239-.09-.105-.12-.226-.133-.261.008-.196.157-.602.258-.727h5.18m.016-.375H5.37c-.293 0-.574.824-.574 1.117 0 .11.078.32.203.485v2.976c0 .438.371.797.813.797a.81.81 0 0 0 .812-.797V8.22q.564.06 1.34.062c2.82 0 3.195-.746 3.195-1.039s-.223-1.117-.52-1.117m0 0" style="stroke:none;fill-rule:nonzero;fill:#424242;fill-opacity:1"/></g><g id="o" clip-path="url(#d)"><path d="M7.992 2.434a2.31 2.31 0 0 1 2.309 2.308c0 .696 0 1.297-.266 1.688-.293.422-.957.625-2.043.625-1.082 0-1.75-.203-2.039-.625-.27-.39-.27-.989-.27-1.688a2.31 2.31 0 0 1 2.31-2.308m0-.375a2.686 2.686 0 0 0-2.684 2.683c0 1.485 0 2.688 2.683 2.688 2.684 0 2.684-1.203 2.684-2.688 0-1.48-1.2-2.683-2.684-2.683m0 0" style="stroke:none;fill-rule:nonzero;fill:#424242;fill-opacity:1"/></g><g id="q" clip-path="url(#e)"><path d="M1.828 6.094c.09 0 .168.023.313.16a.56.56 0 0 1 .16.219c.031.074.133.277.39.277H2.7a.36.36 0 0 0 .203-.047c.024.16.035.324.024.387a.382.382 0 0 0 .203.422l-.66.437a.36.36 0 0 0-.043-.191.37.37 0 0 0-.235-.192 2.2 2.2 0 0 1-.464-.457c-.227-.285-.305-.492-.301-.558.015-.36.226-.43.226-.43a.6.6 0 0 1 .176-.027m0-.375a1 1 0 0 0-.277.043c-.188.05-.477.281-.5.773-.016.48.804 1.352 1.043 1.39a.322.322 0 0 0 .29.465q.092 0 .175-.054l.87-.574a.32.32 0 0 0 .094-.446.33.33 0 0 0-.23-.14c.043-.219-.047-.781-.129-.98-.027-.071-.148-.231-.289-.231-.023 0-.047-.012-.074-.004-.242.094-.074.414-.11.414-.043 0-.062-.203-.296-.418-.172-.156-.34-.238-.567-.238m0 0" style="stroke:none;fill-rule:nonzero;fill:#424242;fill-opacity:1"/></g><g id="s" clip-path="url(#f)"><path d="M14.172 6.094q.076 0 .176.027s.21.07.226.43c.004.066-.074.273-.3.558-.2.254-.395.418-.465.457a.37.37 0 0 0-.235.192.4.4 0 0 0-.043.191l-.66-.437a.37.37 0 0 0 .203-.41c-.011-.063 0-.239.024-.399.058.043.129.047.203.047h.008c.257 0 .359-.207.39-.277a.6.6 0 0 1 .16-.23c.145-.134.223-.15.313-.15m0-.374c-.227 0-.395.082-.567.238-.234.215-.253.418-.296.418-.032 0 .132-.32-.11-.414-.023-.008-.047-.004-.07-.004-.145 0-.266.164-.293.234-.082.2-.172.766-.129.98a.32.32 0 0 0-.227.145.32.32 0 0 0 .09.446l.871.574a.317.317 0 0 0 .445-.09.33.33 0 0 0 .02-.32c.242-.04 1.063-.91 1.043-1.39-.02-.49-.312-.723-.5-.774a1 1 0 0 0-.277-.043m0 0" style="stroke:none;fill-rule:nonzero;fill:#424242;fill-opacity:1"/></g><g id="u" clip-path="url(#g)"><path d="M10.21.875c.067 0 .165.07.165.14v2.786c0 .207.129.324.336.324h.664V4.5h-6.75v-.375h.664c.207 0 .336-.117.336-.324V1.016c0-.07.098-.141.164-.141h4.461M10.21.5H5.79c-.274 0-.54.238-.54.516V3.75h-.777c-.137 0-.223.164-.223.3v.598c0 .137.086.227.223.227h7.05c.141 0 .227-.09.227-.227v-.597c0-.137-.086-.301-.227-.301h-.773V1.016c0-.278-.266-.516-.54-.516m0 0" style="stroke:none;fill-rule:nonzero;fill:#eee;fill-opacity:1"/></g><radialGradient id="h" cx="63.934" cy="87.394" r="37.317" fx="63.934" fy="87.394" gradientTransform="matrix(0 .125 -.13812 0 20.063 2.933)" gradientUnits="userSpaceOnUse"><stop offset=".671" style="stop-color:#fafafa;stop-opacity:1"/><stop offset=".886" style="stop-color:#cfd8dc;stop-opacity:1"/></radialGradient><radialGradient id="m" cx="64.179" cy="59.232" r="30.289" fx="64.179" fy="59.232" gradientTransform="scale(.125)" gradientUnits="userSpaceOnUse"><stop offset=".621" style="stop-color:#fff;stop-opacity:1"/><stop offset=".831" style="stop-color:#cfd8dc;stop-opacity:1"/></radialGradient><filter id="a" width="100%" height="100%" x="0%" y="0%" filterUnits="objectBoundingBox"><feColorMatrix in="SourceGraphic" values="0 0 0 0 1 0 0 0 0 1 0 0 0 0 1 0 0 0 1 0"/></filter></defs><path d="M8.016 14C3.895 14 .55 14.602.5 15.5h15.027c-.047-.898-3.39-1.5-7.511-1.5m0 0" style="stroke:none;fill-rule:nonzero;fill:#cfd8dc;fill-opacity:1"/><path d="M12.828 10.148c.64 2.348-.027 5.352-4.828 5.352-4.805 0-5.504-3.016-4.832-5.352.66-2.289 1.703-3.488 4.828-3.488 3.129 0 4.207 1.2 4.832 3.488m0 0" style="stroke:none;fill-rule:nonzero;fill:url(#h)"/><use xlink:href="#j" mask="url(#i)"/><path d="M10.64 6.125H5.372c-.293 0-.574.824-.574 1.117 0 .11.078.32.203.485v2.976c0 .438.371.797.813.797a.81.81 0 0 0 .812-.797V8.22q.564.06 1.34.062c2.82 0 3.195-.746 3.195-1.039s-.223-1.117-.52-1.117m0 0" style="stroke:none;fill-rule:nonzero;fill:#f44336;fill-opacity:1"/><use xlink:href="#l" mask="url(#k)"/><path d="M10.676 4.742a2.684 2.684 0 1 1-5.367 0 2.683 2.683 0 1 1 5.367 0m0 0" style="stroke:none;fill-rule:nonzero;fill:url(#m)"/><use xlink:href="#o" mask="url(#n)"/><path d="M10.434 4.848H5.566a.28.28 0 0 1-.277-.278V1.016c0-.278.223-.5.5-.5h4.422c.273 0 .5.222.5.5V4.57a.28.28 0 0 1-.277.278m0 0" style="stroke:none;fill-rule:nonzero;fill:#424242;fill-opacity:1"/><path d="M5.29 3.016h5.42v.863H5.29Zm0 0" style="stroke:none;fill-rule:nonzero;fill:#f44336;fill-opacity:1"/><path d="M11.527 4.898H4.473a.25.25 0 0 1-.25-.25v-.597c0-.137.113-.25.25-.25h7.05c.141 0 .25.113.25.25v.597a.246.246 0 0 1-.246.25M8.523 10.102a.533.533 0 0 1-.53.535.533.533 0 0 1 0-1.067c.292 0 .53.239.53.532M7.129 5.438a.335.335 0 0 1-.336.332.332.332 0 1 1 0-.665c.184 0 .336.149.336.332M9.527 5.438a.335.335 0 0 1-.336.332.332.332 0 1 1 0-.665c.184 0 .336.149.336.332m0 0" style="stroke:none;fill-rule:nonzero;fill:#424242;fill-opacity:1"/><path d="M8.39 5.973a.398.398 0 1 1-.796 0 .398.398 0 1 1 .797 0m0 0" style="stroke:none;fill-rule:nonzero;fill:#ef6c00;fill-opacity:1"/><path d="M8.523 12.234a.532.532 0 1 1-1.063 0 .532.532 0 0 1 1.063 0M6.793 6.246c.336.867 2.102.863 2.437-.012.063-.171-.21-.242-.273-.074-.219.574-1.668.594-1.895.012-.066-.168-.335-.094-.269.074m0 0" style="stroke:none;fill-rule:nonzero;fill:#424242;fill-opacity:1"/><path d="M4.348 8.836c-.106-.063-.282.039-.399.226-.113.192-.12.395-.02.458.106.062.282-.04.4-.227.112-.191.124-.395.019-.457m0 0" style="stroke:none;fill-rule:nonzero;fill:#b0bec5;fill-opacity:1"/><path d="M2.063 6.883c.374.906 1.058 1.722 1.796 2.36.184.155.45-.106.266-.266-.684-.59-1.367-1.38-1.7-2.192-.09-.223-.452-.125-.362.098m0 0" style="stroke:none;fill-rule:nonzero;fill:#8d6e63;fill-opacity:1"/><path d="M1.05 6.535c.02-.488.313-.723.5-.773.384-.11.61 0 .845.215.234.214.253.437.296.433.032 0-.136-.336.106-.43.18-.07.332.137.363.215.09.22.188.844.117 1.02-.066.18-.949.734-1.175.719-.223-.02-1.07-.91-1.051-1.399m0 0" style="stroke:none;fill-rule:nonzero;fill:#43a047;fill-opacity:1"/><path d="m3.45 7.754-.907.594a.3.3 0 0 1-.418-.086l-.023-.032a.307.307 0 0 1 .086-.421l.906-.594a.3.3 0 0 1 .418.086l.023.031a.31.31 0 0 1-.086.422m0 0" style="stroke:none;fill-rule:nonzero;fill:#2e7d32;fill-opacity:1"/><path d="M12.047 9.063c-.113-.188-.29-.29-.395-.227s-.093.266.02.457c.117.187.293.289.398.227.102-.063.094-.266-.023-.457m0 0" style="stroke:none;fill-rule:nonzero;fill:#b0bec5;fill-opacity:1"/><path d="M13.574 6.785c-.336.813-1.015 1.602-1.699 2.192-.184.16.082.421.266.265.734-.637 1.422-1.453 1.793-2.36.093-.222-.27-.32-.36-.097m0 0" style="stroke:none;fill-rule:nonzero;fill:#8d6e63;fill-opacity:1"/><path d="M14.95 6.535c-.02-.488-.313-.723-.5-.773-.384-.11-.61 0-.845.215-.234.214-.253.437-.296.433-.032 0 .136-.336-.106-.43-.18-.07-.332.137-.363.215-.09.22-.188.844-.117 1.02.066.176.949.734 1.175.719.223-.02 1.07-.91 1.051-1.399m0 0" style="stroke:none;fill-rule:nonzero;fill:#43a047;fill-opacity:1"/><path d="m12.55 7.754.907.594c.14.093.328.054.418-.086l.023-.032a.307.307 0 0 0-.085-.421l-.907-.594a.3.3 0 0 0-.418.086l-.023.031a.31.31 0 0 0 .086.422m0 0" style="stroke:none;fill-rule:nonzero;fill:#2e7d32;fill-opacity:1"/><use xlink:href="#q" mask="url(#p)"/><use xlink:href="#s" mask="url(#r)"/><use xlink:href="#u" mask="url(#t)"/></svg>