<svg xmlns="http://www.w3.org/2000/svg" width="16pt" height="16pt" viewBox="0 0 16 16"><defs><linearGradient id="a" x1="64" x2="64" y1="110.4" y2="17.6" gradientTransform="scale(.125)" gradientUnits="userSpaceOnUse"><stop offset=".072" style="stop-color:#792d85;stop-opacity:1"/><stop offset=".305" style="stop-color:#ac1cb3;stop-opacity:1"/><stop offset=".542" style="stop-color:#d90ddc;stop-opacity:1"/><stop offset=".725" style="stop-color:#f503f6;stop-opacity:1"/><stop offset=".831" style="stop-color:#f0f;stop-opacity:1"/></linearGradient></defs><path d="M3.648 13.8h1.454v1.45H3.648Zm0 0" style="stroke:none;fill-rule:nonzero;fill:#40c0e7;fill-opacity:1"/><path d="M3.648.75h1.454V2.2H3.648Zm0 0" style="stroke:none;fill-rule:nonzero;fill:#f0f;fill-opacity:1"/><path d="M10.898 13.8h1.454v1.45h-1.454Zm0 0" style="stroke:none;fill-rule:nonzero;fill:#40c0e7;fill-opacity:1"/><path d="M13.8 6.547v-1.45h-1.448V3.649h-1.454V2.2H9.45v1.45H6.551v-1.45H5.1v1.45H3.649v1.449H2.2v1.449H.75v5.8H2.2V8h1.448v4.348h1.45l.004.004V13.8H6.55v-2.418H5.1v-1.45h5.797v1.45H9.45V13.8h1.45v-1.45l.003-.003h1.45V8H13.8v4.348h1.449V6.547Zm-8.698-1.45H6.55v1.45H5.1Zm5.796 1.45H9.45v-1.45h1.45Zm0 0" style="stroke:none;fill-rule:nonzero;fill:url(#a)"/><path d="M10.898.75h1.454V2.2h-1.454Zm0 0" style="stroke:none;fill-rule:nonzero;fill:#f0f;fill-opacity:1"/><path d="M29.188 110.406h11.625V122H29.187Zm0 0" style="fill-rule:nonzero;fill:#792d85;fill-opacity:1;stroke-width:4;stroke-linecap:butt;stroke-linejoin:miter;stroke:#6f21a1;stroke-opacity:1;stroke-miterlimit:10" transform="scale(.125)"/><path d="M29.188 6h11.625v11.594H29.187Zm0 0" style="fill:none;stroke-width:4;stroke-linecap:butt;stroke-linejoin:miter;stroke:#6f21a1;stroke-opacity:1;stroke-miterlimit:10" transform="scale(.125)"/><path d="M87.188 110.4h11.624v11.594H87.189Zm0 0" style="fill-rule:nonzero;fill:#792d85;fill-opacity:1;stroke-width:4;stroke-linecap:butt;stroke-linejoin:miter;stroke:#6f21a1;stroke-opacity:1;stroke-miterlimit:10" transform="translate(23.25 29.05)scale(-.125)"/><path d="M110.406 52.375V40.781H98.812V29.188H87.189V17.594H75.594v11.593H52.406V17.595H40.813v11.593H29.187v11.594H17.595v11.594H6v46.406h11.594V64h11.593v34.781h11.594l.032 11.625h11.593V91.062H40.813V79.47h46.375v11.594H75.594v19.343h11.594V98.812l11.624-.03V64h11.594v34.781H122V52.375ZM40.813 40.781h11.593v11.594H40.813Zm46.375 11.594H75.594V40.781h11.594Zm0 0" style="fill:none;stroke-width:4;stroke-linecap:butt;stroke-linejoin:miter;stroke:#6f21a1;stroke-opacity:1;stroke-miterlimit:10" transform="scale(.125)"/><path d="M87.188 6.006h11.624V17.6H87.189Zm0 0" style="fill:none;stroke-width:4;stroke-linecap:butt;stroke-linejoin:miter;stroke:#6f21a1;stroke-opacity:1;stroke-miterlimit:10" transform="translate(23.25 2.95)scale(-.125)"/></svg>