<svg xmlns="http://www.w3.org/2000/svg" xmlns:xlink="http://www.w3.org/1999/xlink" width="16pt" height="16pt" viewBox="0 0 16 16"><defs><clipPath id="b"><path d="M0 0h16v16H0z"/></clipPath><clipPath id="c"><path d="M0 0h16v16H0z"/></clipPath><clipPath id="d"><path d="M0 0h16v16H0z"/></clipPath><clipPath id="e"><path d="M0 0h16v16H0z"/></clipPath><clipPath id="f"><path d="M0 0h16v16H0z"/></clipPath><clipPath id="g"><path d="M0 0h16v16H0z"/></clipPath><clipPath id="h"><path d="M0 0h16v16H0z"/></clipPath><clipPath id="i"><path d="M0 0h16v16H0z"/></clipPath><clipPath id="j"><path d="M0 0h16v16H0z"/></clipPath><clipPath id="k"><path d="M0 0h16v16H0z"/></clipPath><clipPath id="l"><path d="M0 0h16v16H0z"/></clipPath><mask id="o"><g filter="url(#a)"><path d="M0 0h16v16H0z" style="fill:#000;fill-opacity:.2;stroke:none"/></g></mask><mask id="q"><g filter="url(#a)"><path d="M0 0h16v16H0z" style="fill:#000;fill-opacity:.301961;stroke:none"/></g></mask><mask id="s"><g filter="url(#a)"><path d="M0 0h16v16H0z" style="fill:#000;fill-opacity:.2;stroke:none"/></g></mask><mask id="v"><g filter="url(#a)"><path d="M0 0h16v16H0z" style="fill:#000;fill-opacity:.8;stroke:none"/></g></mask><mask id="x"><g filter="url(#a)"><path d="M0 0h16v16H0z" style="fill:#000;fill-opacity:.301961;stroke:none"/></g></mask><mask id="z"><g filter="url(#a)"><path d="M0 0h16v16H0z" style="fill:#000;fill-opacity:.8;stroke:none"/></g></mask><mask id="B"><g filter="url(#a)"><path d="M0 0h16v16H0z" style="fill:#000;fill-opacity:.501961;stroke:none"/></g></mask><mask id="D"><g filter="url(#a)"><path d="M0 0h16v16H0z" style="fill:#000;fill-opacity:.2;stroke:none"/></g></mask><mask id="G"><g filter="url(#a)"><path d="M0 0h16v16H0z" style="fill:#000;fill-opacity:.2;stroke:none"/></g></mask><mask id="K"><g filter="url(#a)"><path d="M0 0h16v16H0z" style="fill:#000;fill-opacity:.2;stroke:none"/></g></mask><mask id="O"><g filter="url(#a)"><path d="M0 0h16v16H0z" style="fill:#000;fill-opacity:.2;stroke:none"/></g></mask><g id="p" clip-path="url(#b)"><path d="M8 5.664c1.934 0 3.746.465 5.105 1.309 1.301.808 2.02 1.863 2.02 2.972 0 1.11-.719 2.168-2.02 2.977-1.359.844-3.171 1.305-5.105 1.305s-3.746-.461-5.105-1.305c-1.301-.809-2.02-1.867-2.02-2.977s.719-2.164 2.02-2.972C4.254 6.129 6.066 5.664 8 5.664m0-.375C3.86 5.29.5 7.375.5 9.945c0 2.575 3.36 4.66 7.5 4.66s7.5-2.085 7.5-4.66c0-2.57-3.36-4.656-7.5-4.656m0 0" style="stroke:none;fill-rule:nonzero;fill:#434343;fill-opacity:1"/></g><g id="r" clip-path="url(#c)"><path d="M2.98 8.516c-.503 1.015-.007.902.504 1.515.297.356.239.801.657 1.067.66.425 1.359.363 1.84.418.8.086.828-.18 1.628-.211.528-.016 1.414.418 1.871.18.743-.387 1.66-.239 2.047-.477.684-.414.078-.73.653-1.125.379-.262.98-.211.851-.988-.125-.743-.691-.91-1.62-1.329-.583-.261-.5-.664-1.661-.957-.434-.105-1.219.168-1.703.168-.578 0-1.25-.25-1.953-.082-.758.176-.832.57-1.328.832-.676.348-1.532.48-1.786.989m0 0" style="stroke:none;fill-rule:nonzero;fill:#be3a26;fill-opacity:1"/></g><g id="t" clip-path="url(#d)"><path d="M7.828 6.117c.754 0 1.527.113 2.234.324q.036.012.079.012a.3.3 0 0 0 .207-.086c1.074.227 3.515.91 4.402 2.54.254.46.266 1.073.031 1.554-.207.43-.59.656-.992.898-.344.2-.7.41-.98.754l-.047.055c-.426.516-.707.86-1.332.89q-.043.006-.078.005c-.145 0-.286-.02-.442-.063a.3.3 0 0 0-.074-.012.3.3 0 0 0-.184.07q-.058.049-.12.09-.553.366-1.446.368c-.695 0-1.434-.172-1.93-.301-.468-.121-.82-.172-1.18-.172q-.19-.002-.382.02c-.125.011-.25.03-.371.046-.243.032-.47.063-.7.063H4.41c-.941-.05-1.59-.754-2.101-1.438-.02-.027-.043-.046-.067-.066-.375-.254-.828-.719-.863-1.488 0 0 .004-.012.016-.02a.286.286 0 0 0 .035-.39q-.245-.304-.192-.625c.098-.598.657-1.215 1.657-1.832a7.76 7.76 0 0 1 3.523-1.145.27.27 0 0 0 .156.047h.035c.125-.02.243-.031.364-.047h.023q.407-.051.832-.05m0-.282c-.293 0-.586.016-.863.05-.13.012-.258.032-.39.048a.2.2 0 0 0-.145-.047h-.028A8.05 8.05 0 0 0 2.75 7.074c-.703.438-1.64 1.137-1.79 2.024-.054.328.06.609.25.851a.3.3 0 0 0-.108.246c.035.758.425 1.325.984 1.707.582.782 1.281 1.496 2.312 1.551.043 0 .086.004.13.004.367 0 .73-.074 1.097-.113q.181-.017.352-.016c.378 0 .726.063 1.109.16.598.157 1.312.309 2.004.309.578 0 1.137-.106 1.598-.41q.082-.054.148-.114c.164.047.336.075.516.075.03 0 .058-.004.09-.004.777-.043 1.128-.496 1.581-1.051.586-.711 1.582-.816 2.012-1.707a2.05 2.05 0 0 0-.039-1.813c-.851-1.562-3.043-2.359-4.652-2.691-.016-.004-.024-.004-.04-.004a.2.2 0 0 0-.163.098 8 8 0 0 0-2.313-.34m0 0" style="stroke:none;fill-rule:nonzero;fill:#434343;fill-opacity:1"/></g><g id="w" clip-path="url(#e)"><path d="M7.441 7.035c-.433.113-1.02.367-.972.914.039.442.488.617.875.64.71.048 1.27-.41 1.96-.487.118-.016.981-.051 1.024.144.02.078-.582.203-.629.207a1.2 1.2 0 0 1-.351-.02q-.22-.082-.086.005c.222-.153.105-.657-.184-.461-.668.449-.312 1.011.402 1.03.465.013 1.52-.28 1.301-.952-.222-.68-1.375-.559-1.89-.422-.446.117-.832.394-1.305.41-.129.004-.606-.004-.664-.188-.043-.136.5-.27.601-.293.254-.066.235-.605-.082-.527m0 0" style="stroke:none;fill-rule:nonzero;fill:#f37046;fill-opacity:1"/></g><g id="y" clip-path="url(#f)"><path d="M4.18 9.207c.785-.187 1.258.918 2.043.957.57.031 1.093-.344 1.648-.41.516-.059.918.223 1.402.32.352.07.72.074 1.059-.058.477-.184.711-.618 1.117-.891.625-.422.797-.687.11-1.227-.211-.168-.649.18-.414.368.503.394.308.328-.094.617-.367.265-.594.722-1.078.781-.774.09-1.336-.496-2.137-.344-.441.086-.934.375-1.379.387-.383.012-.656-.285-.93-.504-.445-.363-.84-.558-1.418-.422-.316.074-.285.512.07.426m0 0" style="stroke:none;fill-rule:nonzero;fill:#f37046;fill-opacity:1"/></g><g id="A" clip-path="url(#g)"><path d="M6.613 7.02c-.531.023-1.07.203-1.402.644-.223.297-.3.723-.035 1.02.34.386.863.254 1.304.199.141-.016.555-.082.72-.016.073.028.273.23.366.301.262.195.48-.297.266-.457-.371-.285-.457-.41-.926-.406-.367 0-.777.152-1.133.086-.437-.086-.312-.38-.015-.578.238-.157.508-.223.789-.235s.34-.57.066-.558m0 0" style="stroke:none;fill-rule:nonzero;fill:#f37046;fill-opacity:1"/></g><g id="C" clip-path="url(#h)"><path d="M7.61 7.57c.48-.254.984-.336 1.519-.258.203.032.453.098.613-.085.246-.274-.113-.493-.375-.375-.082.035-.187.164-.16.265.078.266.395.285.406.617.012.293.54.102.528-.168a.58.58 0 0 0-.121-.375c-.036-.05-.278-.218-.286-.242q-.082.135-.16.27.001-.005.008-.004-.134.01-.262.027c.059.016-.074-.023-.011-.164.07-.058.14-.121.21-.18-.074.032-.328-.058-.421-.066a3 3 0 0 0-.606.012c-.387.05-.742.18-1.086.36-.308.16-.105.53.203.366m0 0" style="stroke:none;fill-rule:nonzero;fill:#f37046;fill-opacity:1"/></g><g id="E" clip-path="url(#i)"><path d="M9.36 6.828c.062 0 .113.008.152.016.586.148.761.316.949.488.125.121.266.254.508.363.09.04.176.075.258.114.722.316.976.449 1.05.878.051.301-.027.329-.304.446-.11.043-.235.094-.348.172-.371.254-.379.527-.383.71-.004.137-.004.188-.195.305-.106.063-.348.086-.582.114-.371.039-.84.086-1.262.308-.039.024-.101.031-.187.031-.18 0-.418-.054-.645-.109-.25-.059-.488-.117-.7-.117H7.63c-.36.015-.574.078-.746.129-.149.043-.262.078-.453.078a2 2 0 0 1-.239-.016c-.097-.011-.199-.015-.308-.023-.387-.02-.828-.043-1.238-.309-.133-.086-.184-.203-.258-.402a1.7 1.7 0 0 0-.27-.512 3 3 0 0 0-.39-.375c-.239-.195-.266-.219-.032-.691.106-.215.465-.352.848-.5a6 6 0 0 0 .644-.278c.208-.105.348-.234.47-.347.179-.168.323-.297.671-.38a1.7 1.7 0 0 1 .41-.046c.223 0 .446.035.664.066.22.032.426.063.633.063.203 0 .438-.043.684-.09.226-.043.46-.086.64-.086m0-.281c-.402 0-.957.176-1.324.176-.39 0-.832-.13-1.297-.13q-.236-.001-.472.052c-.688.164-.758.52-1.207.753-.61.32-1.387.442-1.618.899-.457.922-.003.816.457 1.375.27.32.215.726.594.969.598.382 1.235.328 1.668.375q.153.016.27.015c.476 0 .586-.18 1.21-.203h.028c.375 0 .93.227 1.348.227q.18.002.316-.067c.676-.347 1.508-.215 1.86-.43.617-.374.066-.66.59-1.019.343-.238.886-.191.769-.898-.114-.672-.625-.825-1.469-1.203-.527-.239-.45-.602-1.504-.868a1 1 0 0 0-.219-.023m0 0" style="stroke:none;fill-rule:nonzero;fill:#434343;fill-opacity:1"/></g><g id="H" clip-path="url(#j)"><path d="M14.285.64c.121 0 .262.18.293.325a.5.5 0 0 1-.07.34.25.25 0 0 1-.13.11L8.692 2.628c-.218.039-.367.137-.437.293l-.203.418c-.082.176-.297.312-.59.379-.934.215-1.633.312-2.25.398q-.426.063-.828.125a1 1 0 0 1-.145.016q-.039-.002-.054-.004a.6.6 0 0 1 .18-.078l1.765-.473a.27.27 0 0 0 .195-.312v-.008a.27.27 0 0 0-.261-.203q-.018-.001-.036.004l-1.832.226c-.004 0-.004.004-.008.004-.062.008-.109.016-.152.016h-.023a1 1 0 0 1 .172-.07l1.742-.587a.27.27 0 0 0 .18-.304V2.46a.27.27 0 0 0-.262-.207.2.2 0 0 0-.051.008L4 2.598a1 1 0 0 1-.14.015q-.035.001-.051-.004a.7.7 0 0 1 .18-.07c.234-.07.46-.144.702-.223.618-.203 1.317-.433 2.305-.66.086-.02.176-.031.258-.031.176 0 .328.047.434.129l.363.285c.09.07.191.106.312.106a.8.8 0 0 0 .211-.032L14.262.645c.004-.004.015-.004.023-.004m0-.125c-.02 0-.035.004-.055.007L8.543 1.988a.7.7 0 0 1-.184.028.35.35 0 0 1-.23-.075l-.367-.289a.8.8 0 0 0-.508-.152q-.141 0-.29.035c-1.37.313-2.175.63-3.01.883-.216.059-.302.129-.282.219.02.066.078.101.187.101a1 1 0 0 0 .164-.015l1.79-.34c.007-.004.019-.004.027-.004.066 0 .125.043.14.105v.008a.143.143 0 0 1-.097.164l-1.742.586c-.22.07-.301.13-.278.219.012.059.067.094.172.094q.07-.001.176-.02l1.832-.23h.02a.15.15 0 0 1 .14.105v.008a.14.14 0 0 1-.105.164l-1.77.473c-.21.066-.297.129-.277.226.02.07.078.098.187.098q.065 0 .164-.012c.864-.148 1.72-.21 3.09-.527.313-.074.567-.227.672-.445l.203-.418c.047-.106.149-.188.348-.227l5.691-1.215c.211-.047.344-.387.293-.597-.043-.192-.222-.422-.414-.422m0 0" style="stroke:none;fill-rule:nonzero;fill:#434343;fill-opacity:1"/></g><g id="L" clip-path="url(#k)"><path d="M14.285.64c.121 0 .262.18.293.325a.5.5 0 0 1-.07.34.25.25 0 0 1-.13.11L8.692 2.628c-.218.039-.367.137-.437.293l-.203.418c-.082.176-.297.312-.59.379-.934.215-1.633.312-2.25.398q-.426.063-.828.125a1 1 0 0 1-.145.016q-.039-.002-.054-.004a.6.6 0 0 1 .18-.078l1.765-.473a.27.27 0 0 0 .195-.312v-.008a.27.27 0 0 0-.261-.203q-.018-.001-.036.004l-1.832.226c-.004 0-.004.004-.008.004-.062.008-.109.016-.152.016h-.023a1 1 0 0 1 .172-.07l1.742-.587a.27.27 0 0 0 .18-.304V2.46a.27.27 0 0 0-.262-.207.2.2 0 0 0-.051.008L4 2.598a1 1 0 0 1-.14.015q-.035.001-.051-.004a.7.7 0 0 1 .18-.07c.234-.07.46-.144.702-.223.618-.203 1.317-.433 2.305-.66.086-.02.176-.031.258-.031.176 0 .328.047.434.129l.363.285c.09.07.191.106.312.106a.8.8 0 0 0 .211-.032L14.262.645c.004-.004.015-.004.023-.004m0-.125c-.02 0-.035.004-.055.007L8.543 1.988a.7.7 0 0 1-.184.028.35.35 0 0 1-.23-.075l-.367-.289a.8.8 0 0 0-.508-.152q-.141 0-.29.035c-1.37.313-2.175.63-3.01.883-.216.059-.302.129-.282.219.02.066.078.101.187.101a1 1 0 0 0 .164-.015l1.79-.34c.007-.004.019-.004.027-.004.066 0 .125.043.14.105v.008a.143.143 0 0 1-.097.164l-1.742.586c-.22.07-.301.13-.278.219.012.059.067.094.172.094q.07-.001.176-.02l1.832-.23h.02a.15.15 0 0 1 .14.105v.008a.14.14 0 0 1-.105.164l-1.77.473c-.21.066-.297.129-.277.226.02.07.078.098.187.098q.065 0 .164-.012c.864-.148 1.72-.21 3.09-.527.313-.074.567-.227.672-.445l.203-.418c.047-.106.149-.188.348-.227l5.691-1.215c.211-.047.344-.387.293-.597-.043-.192-.222-.422-.414-.422m0 0" style="stroke:none;fill-rule:nonzero;fill:#434343;fill-opacity:1"/></g><g id="P" clip-path="url(#l)"><path d="M4.773 2.582q-.065.001-.125.008c-.011.148-.003.312.008.469q.063-.02.121-.043a3 3 0 0 1-.004-.434M4.93 3.887a3 3 0 0 1-.098-.36c0-.015-.004-.043-.008-.07H4.7l.012.09c.02.121.05.242.094.379a.4.4 0 0 0 .125-.04M4.969 3.813c-.008.046-.012.093-.02.14q.022-.06.051-.121c-.012-.012-.023-.016-.031-.02m0 0" style="stroke:none;fill-rule:nonzero;fill:#434343;fill-opacity:1"/><path d="M4.938 2.188a.11.11 0 0 0-.09-.04h-.016c-.039.004-.086.043-.11.075-.011.02.032.011.04.007.074.032.074.032.113.083.18.304.11 1.328.094 1.476q-.002.012-.004.023c.012.004-.024.211-.031.266.011.008 0 .004.015.004h.012a.13.13 0 0 0 .113-.105q.013-.095.02-.176c.004-.055.12-1.313-.157-1.614M5.063 6.516H5.05a.12.12 0 0 0-.11.105 2.3 2.3 0 0 0 0 .7.12.12 0 0 0 .11.105h.015a.12.12 0 0 0 .114-.074.95.95 0 0 0 0-.758.13.13 0 0 0-.117-.078m.003.785a2.2 2.2 0 0 1-.003-.66c.097.242.09.445.003.66M4.457 2.625a1 1 0 0 0-.129.047c-.016.156-.012.348.004.512a1 1 0 0 1 .121-.04 3 3 0 0 1 .004-.519M4.602 3.984a4 4 0 0 1-.102-.488 1 1 0 0 1-.129.016c.027.16.074.367.113.504.04-.008.075-.028.118-.032m0 0" style="stroke:none;fill-rule:nonzero;fill:#434343;fill-opacity:1"/><path d="M6.39 5.648c-.097-.43.098-.808.102-1.234a2.8 2.8 0 0 0-.27-1.187c-.03-.075-.077-.102-.12-.102-.133 0-.274.242-.2.406.192.414.235.828.149 1.27-.004.015-.004.031-.008.047-.078-.262-.195-.512-.266-.774a2.6 2.6 0 0 1-.082-.73c.008-.18.106-.387-.011-.442l-.051.114a.05.05 0 0 1-.02-.02.4.4 0 0 1-.015.149 2 2 0 0 0-.028.195c-.008.254.02.512.086.765.04.149.094.293.145.43.047.121.09.23.12.348.016.054.067.09.122.09h.004c.058-.004.11-.047.117-.102l.004-.023.004-.02c.094-.476.039-.918-.156-1.348-.02-.039-.012-.093.015-.148a.15.15 0 0 1 .063-.078q.005.006.015.023c.168.375.262.778.258 1.137-.004.152-.031.3-.062.461-.051.25-.102.516-.035.8.027.122.062.227.093.333.11.363.188.629-.058.996-.024.031-.04.039-.04.043-.003-.004-.027-.024-.042-.063a.16.16 0 0 1 .011-.144c.196-.285.079-.613-.023-.906l-.012-.036a.13.13 0 0 0-.117-.082h-.004a.12.12 0 0 0-.117.094 2 2 0 0 1-.078.238c-.16.41-.047.72.062 1.016.047.129.098.258.13.402.085.41-.052.77-.442 1.164q-.047.047-.094.047a.05.05 0 0 1-.047-.027c-.008-.023.004-.059.043-.098.504-.507.352-.922.203-1.324-.02-.05-.039-.105-.058-.156a.12.12 0 0 0-.114-.086h-.003a.12.12 0 0 0-.114.074c-.058.137-.144.274-.222.402l-.028.047a.16.16 0 0 1-.066.059.124.124 0 0 0-.063.156q.083.236.207.453c.016.024-.004.063-.011.082-.036.059-.102.102-.145.102-.008 0-.012 0-.023-.02-.356-.632-.465-1.32-.309-1.933.027-.102.07-.2.117-.305a.13.13 0 0 0 0-.105c-.004-.008-.004-.016-.008-.02l-.011-.023a1.8 1.8 0 0 1-.063-.88c.024-.132.051-.265.07-.362a.13.13 0 0 0-.003-.079l-.07-.148q-.042-.093-.079-.18l-.035-.097c-.035.015-.07.02-.125.03.016.036.031.087.043.118l.148.328q-.042.185-.074.371c-.05.313-.035.637.067.942l.027.05c-.05.11-.098.215-.125.329-.18.695-.027 1.41.316 2.027a.15.15 0 0 0 .133.082c.16 0 .356-.215.266-.371a3 3 0 0 1-.2-.434.24.24 0 0 0 .118-.11c.094-.148.191-.304.258-.46.156.46.39.84-.118 1.355-.16.16-.054.336.098.336a.26.26 0 0 0 .18-.082c.36-.363.586-.758.472-1.277-.109-.504-.398-.82-.191-1.348q.048-.13.078-.254c.102.29.219.586.05.829-.105.16-.003.402.134.402q.072.001.144-.098c.36-.531.114-.879-.015-1.426m0 0" style="stroke:none;fill-rule:nonzero;fill:#434343;fill-opacity:1"/><path d="M5.348 3.984H5.34a.12.12 0 0 0-.117.102c-.028.18-.055.297-.063.336q-.023.1-.047.195a.13.13 0 0 0 .008.078c.074.184.113.328.14.465.048.277-.003.496-.113.781a.14.14 0 0 0 .012.11q.06.099.125.191c.043.063.086.121.125.184.02.039.063.062.106.062q.005.001.015-.004a.12.12 0 0 0 .106-.082c.011-.047.031-.093.05-.144q.022-.052.043-.106c.11-.308.125-.625.043-1a7 7 0 0 0-.171-.613c-.047-.16-.094-.309-.133-.465a.125.125 0 0 0-.121-.09m.3 1.196c.075.324.079.62-.039.93-.03.093-.066.171-.093.253-.079-.129-.172-.246-.25-.379.105-.273.175-.523.12-.843a2.7 2.7 0 0 0-.148-.493l.047-.199c.012-.07.04-.191.063-.34.086.348.218.696.3 1.07M4.563 2.234a.6.6 0 0 1 .312-.32l.016-.008.02-.008q.036-.009.05-.007.022-.001.02.004a.1.1 0 0 0 .046.035c.164.07.266.328.293.742a.125.125 0 0 0 .098.113c.008.004.02.004.027.004a.13.13 0 0 0 .106-.059q.099-.168.222-.167a.3.3 0 0 1 .114.027c.015.008.027.015.02.05-.016.075-.095.153-.15.153-.003 0-.01-.004-.019-.004l-.05.113a.15.15 0 0 0 .07.016c.199 0 .398-.34.183-.438a.4.4 0 0 0-.168-.042c-.14 0-.25.097-.328.226-.027-.402-.129-.742-.367-.848a.15.15 0 0 0-.117-.05.3.3 0 0 0-.09.015q-.024.008-.043.016a.74.74 0 0 0-.394.422l-.024.066s.125-.058.152-.05m0 0" style="stroke:none;fill-rule:nonzero;fill:#434343;fill-opacity:1"/></g><radialGradient id="u" cx="63.91" cy="61.847" r="38.84" fx="63.91" fy="61.847" gradientTransform="matrix(.125 0 0 .05731 0 4.186)" gradientUnits="userSpaceOnUse"><stop offset=".505" style="stop-color:#f05323;stop-opacity:1"/><stop offset="1" style="stop-color:#d74527;stop-opacity:1"/></radialGradient><radialGradient id="I" cx="36.333" cy="25.833" r="39.103" fx="36.333" fy="25.833" gradientTransform="scale(.125)" gradientUnits="userSpaceOnUse"><stop offset=".02" style="stop-color:#fec111;stop-opacity:1"/><stop offset=".935" style="stop-color:#f05323;stop-opacity:1"/></radialGradient><radialGradient id="M" cx="40.333" cy="20.5" r="36.471" fx="40.333" fy="20.5" gradientTransform="scale(.125)" gradientUnits="userSpaceOnUse"><stop offset=".39" style="stop-color:#ffcb28;stop-opacity:1"/><stop offset="1" style="stop-color:#f37046;stop-opacity:1"/></radialGradient><radialGradient id="N" cx="50.333" cy="33.167" r="34.031" fx="50.333" fy="33.167" gradientTransform="scale(.125)" gradientUnits="userSpaceOnUse"><stop offset=".02" style="stop-color:#fec111;stop-opacity:1"/><stop offset="1" style="stop-color:#f05323;stop-opacity:1"/></radialGradient><linearGradient id="m" x1="35.009" x2="88.772" y1="50.578" y2="104.34" gradientTransform="scale(.125)" gradientUnits="userSpaceOnUse"><stop offset=".171" style="stop-color:#fafbfb;stop-opacity:1"/><stop offset=".87" style="stop-color:#eee;stop-opacity:1"/></linearGradient><linearGradient id="n" x1="64.078" x2="64.078" y1="49.895" y2="106.42" gradientTransform="scale(.125)" gradientUnits="userSpaceOnUse"><stop offset=".259" style="stop-color:#fcb316;stop-opacity:1"/><stop offset=".999" style="stop-color:#c98c2b;stop-opacity:1"/></linearGradient><linearGradient id="F" x1="35.005" x2="132.26" y1="26.779" y2="4.256" gradientTransform="scale(.125)" gradientUnits="userSpaceOnUse"><stop offset=".171" style="stop-color:#d0d8dc;stop-opacity:1"/><stop offset="1" style="stop-color:#90a4ae;stop-opacity:1"/></linearGradient><linearGradient id="J" x1="43.038" x2="160.73" y1="24.919" y2="-2.337" gradientTransform="scale(.125)" gradientUnits="userSpaceOnUse"><stop offset=".164" style="stop-color:#b0bec5;stop-opacity:1"/><stop offset="1" style="stop-color:#78909c;stop-opacity:1"/></linearGradient><filter id="a" width="100%" height="100%" x="0%" y="0%" filterUnits="objectBoundingBox"><feColorMatrix in="SourceGraphic" values="0 0 0 0 1 0 0 0 0 1 0 0 0 0 1 0 0 0 1 0"/></filter></defs><path d="M15.375 10.453c0 2.57-3.234 4.531-7.375 4.531-4.14 0-7.375-1.96-7.375-4.53 0-.364-.121-.65-.121-.65H15.5s-.125.258-.125.65m0 0" style="stroke:none;fill-rule:nonzero;fill:#9d9d9d;fill-opacity:1"/><path d="M15.5 9.945c0-2.57-3.36-4.656-7.5-4.656S.5 7.375.5 9.945c0 2.575 3.36 4.66 7.5 4.66s7.5-2.085 7.5-4.66m0 0" style="stroke:none;fill-rule:nonzero;fill:url(#m)"/><path d="M10.637 9.582a1.125 1.125 0 1 1-2.25 0 1.125 1.125 0 0 1 2.25 0m0 0" style="stroke:none;fill-rule:nonzero;fill:#f5f5f5;fill-opacity:1"/><path d="M9.121 10.39a1.125 1.125 0 1 1-2.25 0 1.125 1.125 0 0 1 2.25 0m0 0" style="stroke:none;fill-rule:nonzero;fill:#f5f5f5;fill-opacity:1"/><path d="M1.234 9.547c.02.246.239.437.239.469-.004.3-.2.175-.055.554.14.383.352.907.598 1.086.597.442 1.394 1.153 1.964 1.32 1.043.301 1.895 0 3.06.27 1.034.238 2.05.274 2.937.137.234-.035.378-.36.593-.418.246-.067.567.125.782.031 1.835-.82 1.398-1.168 2.261-1.7.567-.347 1.242-.593 1.172-1.503-.152-1.98-3.09-3.672-7.222-3.672-4.137 0-6.446 1.895-6.329 3.426m0 0" style="stroke:none;fill-rule:nonzero;fill:url(#n)"/><use xlink:href="#p" mask="url(#o)"/><path d="m5.547 8.313.066-.102c.07-.106-.11-.047-.148-.027a1.4 1.4 0 0 0-.211.117c-.05.039-.106.078-.14.129-.024.03-.044.066-.067.097-.074.11.11.051.148.032q.112-.053.211-.121c.047-.036.106-.075.14-.126m0 0" style="stroke:none;fill-rule:nonzero;fill:#ffcc4d;fill-opacity:1"/><path d="M4.223 8.738c-.516-.234-1.121.047-1.403.512-.343.566-.078 1.066.442 1.383.195.12.617-.133.379-.278-.274-.171-.543-.37-.477-.73.059-.328.426-.71.773-.55.22.1.57-.204.286-.337m0 0" style="stroke:none;fill-rule:nonzero;fill:#ffcb28;fill-opacity:1"/><path d="M13.688 10.453c.16-3.469-3.797-4.914-6.723-4.566-.918.105-1.977.265-2.797.71-.684.368-1.23 1.192-.492 1.801.699.575 1.656.309 2.457.555 1.14.344-.54 1.223-.922 1.379-.637.262-1.344.398-2.012.188-.52-.165-1.09-.434-1.46-.84-.516-.57-.071-1.168.394-1.614 1.094-1.05 2.73-1.625 4.219-1.718.293-.02.418-.485.05-.461a8 8 0 0 0-3.648 1.187c-.707.438-1.645 1.137-1.79 2.024-.144.87.888 1.425 1.552 1.71 1 .43 2.02.301 3-.144.547-.25 2-.984 1.468-1.797-.46-.71-1.851-.39-2.535-.652-.445-.168-.863-.512-.355-1.067.152-.168.418-.25.625-.324.62-.226 1.285-.355 1.941-.445a7.2 7.2 0 0 1 2.258.047c2.184.379 4.363 1.601 4.246 4.101-.016.325.512.188.524-.074m0 0" style="stroke:none;fill-rule:nonzero;fill:#fdd836;fill-opacity:1"/><path d="M1.102 10.191c.082 1.758 2.074 2.512 3.613 2.227.922-.168 1.598-.695 2.59-.645.867.047 1.605.454 2.328.895.562.344 1.129.707 1.812.672.778-.04 1.125-.496 1.582-1.047.582-.711 1.578-.816 2.008-1.711A2.04 2.04 0 0 0 15 8.77c-.855-1.563-3.047-2.36-4.656-2.692-.258-.05-.403.484-.106.543 1.504.313 3.098.969 4.121 2.164.399.469.594 1.13.246 1.703-.406.668-1.265.778-1.77 1.348-.487.562-.827 1.101-1.69.941-.536-.101-1.012-.457-1.473-.734-1.164-.703-2.488-1.09-3.82-.582-.801.305-1.43.559-2.317.398-.965-.175-1.937-.703-1.988-1.789-.016-.367-.461-.172-.445.121m0 0" style="stroke:none;fill-rule:nonzero;fill:#fec111;fill-opacity:1"/><path d="M2.824 12.379c1.344-1.816 2.64-.102 3.91.777.852.594 2.782.735 3.246-.457.438-1.12-.996-1.933-1.945-1.738-.457.094-.898.36-1.039.828-.191.629.262 1.191.672 1.613.203.215.5-.261.312-.453-.398-.414-.933-1.105-.152-1.402.406-.156.899-.11 1.25.144.262.192.637.57.457.91-.164.305-.637.383-.95.419-.64.078-1.128-.02-1.644-.395-.71-.516-1.332-1.262-2.191-1.55-.953-.325-1.7.273-2.242 1.007-.192.262.097.594.316.297m0 0" style="stroke:none;fill-rule:nonzero;fill:#fdd836;fill-opacity:1"/><path d="M5.578 10.844c.832.62 2.281.43 3.121-.082 1.004-.61.817-1.696-.21-2.121-.372-.153-1.415-.305-1.028-.922.476-.77 1.824-.13 2.324.254.73.554 1.399.843 2.348.797.601-.028 1.297-.293 1.664.375.164.293.226.87-.016 1.152-.308.36-1.101.32-1.527.496-.774.316-1.238.957-1.55 1.71-.122.302.41.388.51.142.356-.868.864-1.422 1.786-1.633.418-.094.914-.137 1.219-.477.344-.383.347-1.066.136-1.512-.304-.644-.984-.847-1.648-.757-.805.109-1.574.12-2.25-.399-.352-.27-.664-.523-1.086-.683-.625-.235-1.367-.348-1.976-.008-.317.176-.579.476-.57.86.007.476.468.663.85.8.321.117.727.191.97.45.34.359.19.823-.172 1.089-.575.426-1.832.645-2.446.188-.207-.157-.703.09-.449.28m0 0" style="stroke:none;fill-rule:nonzero;fill:#fec111;fill-opacity:1"/><use xlink:href="#r" mask="url(#q)"/><path d="M2.016 11.805c.71.976 1.535 1.734 2.808 1.636.508-.039 1.008-.168 1.524-.117.664.067 1.3.328 1.968.406 1.075.13 2.41.06 2.797-1.144.27-.832-.05-1.883-.992-2.05-.266-.048-.555.39-.21.448.878.157 1.007 1.547.394 2.07-.809.688-2.414.118-3.32-.1-.692-.165-1.329-.032-2.02.03-1.121.094-1.828-.586-2.457-1.445-.164-.226-.656.043-.492.266m0 0" style="stroke:none;fill-rule:nonzero;fill:#fec111;fill-opacity:1"/><use xlink:href="#t" mask="url(#s)"/><path d="M3.445 8.297c-.46.922-.007.816.457 1.375.27.32.215.726.59.969.598.382 1.235.328 1.668.375.727.082.754-.16 1.48-.188.473-.02 1.278.375 1.696.16.672-.347 1.504-.215 1.855-.43.618-.374.07-.663.59-1.023.344-.234.89-.187.77-.894-.11-.672-.625-.825-1.469-1.203-.527-.239-.45-.606-1.504-.868-.394-.097-1.101.149-1.543.149-.52 0-1.133-.227-1.77-.074-.687.16-.757.52-1.206.753-.61.32-1.387.442-1.614.899m0 0" style="stroke:none;fill-rule:nonzero;fill:url(#u)"/><use xlink:href="#w" mask="url(#v)"/><use xlink:href="#y" mask="url(#x)"/><use xlink:href="#A" mask="url(#z)"/><use xlink:href="#C" mask="url(#B)"/><use xlink:href="#E" mask="url(#D)"/><path d="m8.164 3.39.203-.413c.047-.106.149-.192.348-.227l5.691-1.215c.211-.047.344-.387.293-.597-.047-.211-.258-.465-.469-.415L8.543 1.988c-.195.059-.324.024-.414-.047l-.367-.285c-.188-.152-.492-.191-.797-.12-1.371.316-2.176.628-3.012.882-.215.059-.3.133-.281.219.023.097.133.125.351.086l1.79-.34a.14.14 0 0 1 .167.105v.004a.143.143 0 0 1-.097.164l-1.742.586c-.22.07-.301.133-.278.219.02.086.121.117.348.074l1.832-.226c.07-.012.14.035.16.105v.004a.14.14 0 0 1-.105.164l-1.77.473c-.21.07-.297.133-.277.23.023.098.133.113.351.082.864-.148 1.72-.21 3.09-.527.313-.074.567-.227.672-.45m0 0" style="stroke:none;fill-rule:nonzero;fill:url(#F)"/><use xlink:href="#H" mask="url(#G)"/><path d="M4.871 1.781c-.894.301-.496 2.082-.242 2.676.172.398.418.832.324 1.277-.058.258-.219.489-.281.743-.18.695-.031 1.41.316 2.027.13.23.516-.082.399-.29-.352-.628-.473-1.347-.2-2.03.145-.356.266-.649.2-1.043-.102-.567-.465-1.043-.555-1.614-.035-.222-.176-1.246.106-1.34.246-.085.242-.511-.067-.406m0 0" style="stroke:none;fill-rule:nonzero;fill:url(#I)"/><path d="m8.164 3.39.203-.413c.047-.106.149-.192.348-.227l5.691-1.215c.211-.047.344-.387.293-.597-.047-.211-.258-.465-.469-.415L8.543 1.988c-.195.059-.324.024-.414-.047l-.367-.285c-.188-.152-.492-.191-.797-.12-1.371.316-2.176.628-3.012.882-.215.059-.3.133-.281.219.023.097.133.125.351.086l1.79-.34a.14.14 0 0 1 .167.105v.004a.143.143 0 0 1-.097.164l-1.742.586c-.22.07-.301.133-.278.219.02.086.121.117.348.074l1.832-.226c.07-.012.14.035.16.105v.004a.14.14 0 0 1-.105.164l-1.77.473c-.21.07-.297.133-.277.23.023.098.133.113.351.082.864-.148 1.72-.21 3.09-.527.313-.074.567-.227.672-.45m0 0" style="stroke:none;fill-rule:nonzero;fill:url(#J)"/><use xlink:href="#L" mask="url(#K)"/><path d="M5.938 2.48c-.383-.18-.575.274-.637.575-.16.785.183 1.39.347 2.125.07.324.075.62-.039.93-.07.19-.14.324-.148.538-.02.754.68 1.211-.016 1.915-.222.222.055.472.274.253.36-.363.586-.757.476-1.277-.11-.504-.402-.82-.195-1.348.16-.402.176-.765.078-1.203-.066-.316-.219-.605-.3-.918a2.5 2.5 0 0 1-.083-.726c.008-.184.106-.39-.011-.442.218.102.5-.308.253-.422m0 0" style="stroke:none;fill-rule:nonzero;fill:#fdd836;fill-opacity:1"/><path d="M4.758 2.227c.328.003.226 1.386.21 1.562-.042.465-.19.906-.265 1.367-.05.313-.035.637.067.938.062.172.171.285.246.437.195.38.14.657-.067.996-.172.278.207.387.356.145.218-.356.465-.723.293-1.152-.125-.31-.387-.497-.457-.844-.086-.418.054-.82.144-1.227.09-.43.488-2.66-.375-2.672-.234 0-.437.446-.152.45m0 0" style="stroke:none;fill-rule:nonzero;fill:url(#M)"/><path d="M5.902 3.531c.192.414.235.828.149 1.27-.047.25-.094.488-.07.742.035.394.394.867.152 1.227-.145.214.094.574.277.304.356-.527.11-.879-.02-1.426-.097-.43.098-.808.102-1.234a2.8 2.8 0 0 0-.27-1.187c-.128-.282-.421.086-.32.304m0 0" style="stroke:none;fill-rule:nonzero;fill:url(#N)"/><use xlink:href="#P" mask="url(#O)"/></svg>