<svg xmlns="http://www.w3.org/2000/svg" xmlns:xlink="http://www.w3.org/1999/xlink" width="16pt" height="16pt" viewBox="0 0 16 16"><defs><clipPath id="b"><path d="M0 0h16v16H0z"/></clipPath><clipPath id="c"><path d="M0 0h16v16H0z"/></clipPath><clipPath id="d"><path d="M0 0h16v16H0z"/></clipPath><clipPath id="e"><path d="M0 0h16v16H0z"/></clipPath><clipPath id="f"><path d="M0 0h16v16H0z"/></clipPath><clipPath id="g"><path d="M0 0h16v16H0z"/></clipPath><clipPath id="h"><path d="M0 0h16v16H0z"/></clipPath><clipPath id="i"><path d="M0 0h16v16H0z"/></clipPath><mask id="k"><g filter="url(#a)"><path d="M0 0h16v16H0z" style="fill:#000;fill-opacity:.2;stroke:none"/></g></mask><mask id="n"><g filter="url(#a)"><path d="M0 0h16v16H0z" style="fill:#000;fill-opacity:.2;stroke:none"/></g></mask><mask id="q"><g filter="url(#a)"><path d="M0 0h16v16H0z" style="fill:#000;fill-opacity:.2;stroke:none"/></g></mask><mask id="t"><g filter="url(#a)"><path d="M0 0h16v16H0z" style="fill:#000;fill-opacity:.2;stroke:none"/></g></mask><mask id="w"><g filter="url(#a)"><path d="M0 0h16v16H0z" style="fill:#000;fill-opacity:.2;stroke:none"/></g></mask><mask id="z"><g filter="url(#a)"><path d="M0 0h16v16H0z" style="fill:#000;fill-opacity:.2;stroke:none"/></g></mask><mask id="C"><g filter="url(#a)"><path d="M0 0h16v16H0z" style="fill:#000;fill-opacity:.2;stroke:none"/></g></mask><mask id="F"><g filter="url(#a)"><path d="M0 0h16v16H0z" style="fill:#000;fill-opacity:.2;stroke:none"/></g></mask><g id="l" clip-path="url(#b)"><path d="M6.203 2.898q.075-.001.156.004l.102.004c.848.035 2.27.09 3.66 1.172 2.328 1.813 3.434 3.973 2.957 5.785-.367 1.383-1.476 2.434-3.96 3.75l-.216.114-.09.046q-.14.079-.289.157c-.902.48-1.835.98-2.785 1.14-.207.035-.422.051-.633.051-.933 0-1.777-.328-2.308-.91a3.88 3.88 0 0 1-1.035-2.281c-.09-.856.004-1.774.097-2.66q.028-.247.055-.493c.274-2.8.824-4.226 1.969-5.086a3.8 3.8 0 0 1 2.32-.793m0-.375c-.898 0-1.789.293-2.55.868-1.266.96-1.833 2.488-2.114 5.351-.105 1.07-.262 2.172-.152 3.227a4.3 4.3 0 0 0 1.133 2.5c.64.691 1.613 1.031 2.585 1.031q.351 0 .696-.059c1.117-.187 2.172-.796 3.187-1.336l.305-.16c2.543-1.347 3.742-2.449 4.148-3.988.551-2.082-.812-4.406-3.09-6.172C8.81 2.582 7.235 2.562 6.376 2.527q-.089-.005-.172-.004m0 0" style="stroke:none;fill-rule:nonzero;fill:#424242;fill-opacity:1"/></g><g id="o" clip-path="url(#c)"><path d="M13.57 3.555c-.015.058-.027.12-.047.18a3.8 3.8 0 0 1-.363.91c-.129.238-.305.53-.527.73-.242.219-.543.379-.836.535-.32.172-.664.266-.965.266-.254 0-.469-.067-.629-.2-.258-.214-.367-.609-.273-.96.097-.344.386-.657.754-.817.242-.105.511-.144.742-.168.11-.015.226-.015.351-.015.137 0 .274 0 .422-.016a3.5 3.5 0 0 0 1.371-.445m.461-.739c-.277.141-.515.352-.793.493a3.1 3.1 0 0 1-1.078.312c-.258.027-.515.008-.773.035-.293.031-.582.078-.852.196-.453.195-.832.586-.965 1.062s.012 1.035.395 1.352c.246.203.55.285.867.285.387 0 .797-.125 1.14-.309.321-.172.637-.344.91-.586.25-.226.446-.535.606-.832.176-.312.309-.648.399-.992.047-.168.082-.344.105-.516.008-.054.012-.488.04-.5m0 0" style="stroke:none;fill-rule:nonzero;fill:#424242;fill-opacity:1"/></g><g id="r" clip-path="url(#d)"><path d="M9.617 1.613q.004.017.008.028a3 3 0 0 0 .594 1.32q.092.121.168.242c.097.164.203.36.258.57.078.317.015.653-.16.88a.78.78 0 0 1-.594.304.5.5 0 0 1-.133-.016c-.43-.101-.664-.636-.73-1.066-.044-.273-.09-.559-.067-.824.02-.246.129-.512.219-.715a3.5 3.5 0 0 1 .425-.7zm.305-.828c.004.027-.285.25-.32.285a3.785 3.785 0 0 0-.766 1.113c-.117.262-.227.551-.25.837-.024.308.023.613.07.914.094.597.426 1.234 1.012 1.375q.11.023.223.023c.34 0 .683-.176.89-.45.258-.331.328-.788.227-1.194a2.5 2.5 0 0 0-.301-.676c-.113-.192-.262-.356-.375-.543a2.7 2.7 0 0 1-.34-.89c-.047-.263-.027-.532-.07-.794m0 0" style="stroke:none;fill-rule:nonzero;fill:#424242;fill-opacity:1"/></g><g id="u" clip-path="url(#e)"><path d="M6.613 2.031q.419 0 .824.094c.243.05.551.133.786.281.254.156.472.387.687.606.34.347.664.918.465 1.379-.121.277-.434.472-.766.476h-.011c-.325 0-.664-.172-.895-.453-.156-.187-.258-.418-.34-.613a3 3 0 0 1-.101-.309 5 5 0 0 0-.125-.379 3.4 3.4 0 0 0-.633-.996l-.082-.082q.06-.002.113-.004zm0-.375q-.042-.001-.086.004a4 4 0 0 0-.488.04c-.047.003-.371.093-.445.093q-.012.001-.012-.004c.195.215.45.371.645.582.238.258.43.559.558.887.094.226.137.46.23.683.102.254.223.5.395.711.29.352.73.59 1.188.59h.011c.465-.004.922-.277 1.106-.699.265-.61-.074-1.316-.54-1.793-.23-.242-.468-.484-.753-.664-.27-.164-.598-.258-.902-.328a4 4 0 0 0-.907-.102m0 0" style="stroke:none;fill-rule:nonzero;fill:#424242;fill-opacity:1"/></g><g id="x" clip-path="url(#f)"><path d="M11.559 4.82c.191 0 .382.04.558.114.246.105.465.273.64.425.087.07.173.157.259.246a3.557 3.557 0 0 0 1.406.93q.094.031.187.055-.085.054-.171.101-.437.241-.918.372c-.223.058-.516.128-.79.128q-.06 0-.113-.003c-.328-.024-.656-.133-.976-.239-.508-.168-1.121-.558-1.16-1.12-.028-.337.187-.692.511-.872a1.2 1.2 0 0 1 .567-.137m0-.375c-.258 0-.516.059-.743.184-.441.234-.746.73-.707 1.226.051.72.735 1.227 1.418 1.45.348.113.696.226 1.063.254q.07.006.14.007c.297 0 .606-.066.887-.144q.529-.142 1.004-.406c.156-.082.305-.18.45-.282.042-.03.35-.32.39-.32-.297-.105-.617-.129-.914-.234a3.2 3.2 0 0 1-.98-.567c-.204-.168-.368-.375-.567-.543-.227-.191-.465-.367-.738-.48a1.8 1.8 0 0 0-.703-.145m0 0" style="stroke:none;fill-rule:nonzero;fill:#424242;fill-opacity:1"/></g><g id="A" clip-path="url(#g)"><path d="M11.29.867c.097 0 .148.02.163.028.031.105.05.484-.035 1.12-.078.583-.219 1.18-.367 1.551-.211.543-.57 1.016-1.074 1.41a.2.2 0 0 1-.032-.038c.293-.301.79-.86.985-1.368.328-.847.254-2.539.254-2.554a1 1 0 0 1 .004-.145q.047-.005.101-.004m0-.375c-.184 0-.344.047-.344.047s-.156.063-.136.496c.023.43.02 1.754-.227 2.399-.25.644-1.113 1.449-1.113 1.449s.242.508.511.508a.23.23 0 0 0 .133-.047c.317-.235.942-.758 1.29-1.64.343-.884.585-2.669.37-3.005-.105-.164-.304-.207-.484-.207m0 0" style="stroke:none;fill-rule:nonzero;fill:#424242;fill-opacity:1"/></g><g id="D" clip-path="url(#h)"><path d="M7.984 3.598h.036c.472.007.93.222 1.187.558.27.344.32.832.133 1.184-.223.414-.77.664-1.469.664q-.146-.002-.293-.016c-.379-.039-.77-.082-1.125-.207-.328-.117-.648-.355-.887-.55a4.6 4.6 0 0 1-.785-.813q-.104-.136-.195-.277c.105.02.21.035.324.046a3.9 3.9 0 0 0 1.406-.148c.16-.047.309-.105.45-.16.132-.05.257-.102.382-.14.235-.067.536-.141.836-.141m0-.375c-.316 0-.632.07-.937.156-.285.082-.547.219-.836.3q-.488.141-1 .141a6 6 0 0 1-.274-.007c-.351-.028-.695-.149-1.046-.18.035.004.226.457.257.512a5.157 5.157 0 0 0 1.18 1.375c.3.242.637.484 1 .613.39.14.805.183 1.215.226.105.012.219.016.332.016.715 0 1.465-.238 1.797-.86.265-.495.18-1.144-.168-1.59-.344-.448-.914-.695-1.477-.706q-.018.005-.043.004m0 0" style="stroke:none;fill-rule:nonzero;fill:#424242;fill-opacity:1"/></g><g id="G" clip-path="url(#i)"><path d="M10.535 5.195q.154-.001.297.04c.41.109.781.445.973.878.125.285.175.61.207.86.011.132.015.265.02.41 0 .152.003.308.023.476.054.473.191.93.406 1.352.055.101.11.191.168.281a4.802 4.802 0 0 1-1.383-.48c-.273-.149-.617-.352-.851-.61-.254-.277-.442-.625-.625-.957-.297-.547-.497-1.363-.082-1.875.19-.234.507-.375.847-.375m0-.375c-.433 0-.867.18-1.14.512-.508.629-.34 1.582.046 2.293.196.36.395.723.676 1.031.258.285.613.504.953.684.36.191.742.344 1.137.445.191.047.39.086.586.113.066.008.555.008.57.043-.16-.316-.406-.586-.566-.898-.195-.383-.32-.8-.371-1.227-.035-.296-.008-.59-.043-.886-.04-.328-.098-.66-.235-.965-.226-.516-.671-.95-1.218-1.094a1.5 1.5 0 0 0-.395-.05m0 0" style="stroke:none;fill-rule:nonzero;fill:#424242;fill-opacity:1"/></g><linearGradient id="m" x1="111.79" x2="78.884" y1="27.665" y2="46.858" gradientTransform="scale(.125)" gradientUnits="userSpaceOnUse"><stop offset=".007" style="stop-color:#aed581;stop-opacity:1"/><stop offset=".332" style="stop-color:#8ebd60;stop-opacity:1"/><stop offset=".678" style="stop-color:#73a743;stop-opacity:1"/><stop offset=".876" style="stop-color:#689f38;stop-opacity:1"/></linearGradient><linearGradient id="p" x1="77.266" x2="79.322" y1="6.319" y2="43.678" gradientTransform="scale(.125)" gradientUnits="userSpaceOnUse"><stop offset=".007" style="stop-color:#aed581;stop-opacity:1"/><stop offset=".332" style="stop-color:#8ebd60;stop-opacity:1"/><stop offset=".678" style="stop-color:#73a743;stop-opacity:1"/><stop offset=".876" style="stop-color:#689f38;stop-opacity:1"/></linearGradient><linearGradient id="s" x1="46.413" x2="78.288" y1="14.121" y2="38.627" gradientTransform="scale(.125)" gradientUnits="userSpaceOnUse"><stop offset=".007" style="stop-color:#aed581;stop-opacity:1"/><stop offset=".332" style="stop-color:#8ebd60;stop-opacity:1"/><stop offset=".678" style="stop-color:#73a743;stop-opacity:1"/><stop offset=".876" style="stop-color:#689f38;stop-opacity:1"/></linearGradient><linearGradient id="v" x1="-207.98" x2="-166.28" y1="-73.922" y2="-73.922" gradientTransform="rotate(26.263 -38.728 75.692)scale(.125)" gradientUnits="userSpaceOnUse"><stop offset=".123" style="stop-color:#689f38;stop-opacity:1"/><stop offset=".322" style="stop-color:#73a743;stop-opacity:1"/><stop offset=".668" style="stop-color:#8ebd60;stop-opacity:1"/><stop offset=".993" style="stop-color:#aed581;stop-opacity:1"/></linearGradient><linearGradient id="y" x1="75.749" x2="94.844" y1="23.529" y2="23.529" gradientTransform="scale(.125)" gradientUnits="userSpaceOnUse"><stop offset=".123" style="stop-color:#689f38;stop-opacity:1"/><stop offset=".322" style="stop-color:#73a743;stop-opacity:1"/><stop offset=".668" style="stop-color:#8ebd60;stop-opacity:1"/><stop offset=".993" style="stop-color:#aed581;stop-opacity:1"/></linearGradient><linearGradient id="B" x1="33.204" x2="75.703" y1="30.887" y2="42.026" gradientTransform="scale(.125)" gradientUnits="userSpaceOnUse"><stop offset=".007" style="stop-color:#aed581;stop-opacity:1"/><stop offset=".332" style="stop-color:#8ebd60;stop-opacity:1"/><stop offset=".678" style="stop-color:#73a743;stop-opacity:1"/><stop offset=".876" style="stop-color:#689f38;stop-opacity:1"/></linearGradient><linearGradient id="E" x1="-215.59" x2="-168.08" y1="-61.211" y2="-61.211" gradientTransform="rotate(36.78 -28.952 53.284)scale(.125)" gradientUnits="userSpaceOnUse"><stop offset=".123" style="stop-color:#689f38;stop-opacity:1"/><stop offset=".322" style="stop-color:#73a743;stop-opacity:1"/><stop offset=".668" style="stop-color:#8ebd60;stop-opacity:1"/><stop offset=".993" style="stop-color:#aed581;stop-opacity:1"/></linearGradient><radialGradient id="j" cx="-237.34" cy="-43.526" r="61.34" fx="-237.34" fy="-43.526" gradientTransform="matrix(.06555 .10709 -.15584 .09965 14.041 35.92)" gradientUnits="userSpaceOnUse"><stop offset="0" style="stop-color:#ff9e96;stop-opacity:1"/><stop offset=".311" style="stop-color:#ff574a;stop-opacity:1"/><stop offset=".428" style="stop-color:#fa4e43;stop-opacity:1"/><stop offset=".613" style="stop-color:#eb3732;stop-opacity:1"/><stop offset=".769" style="stop-color:#db1f1f;stop-opacity:1"/><stop offset=".996" style="stop-color:#ed2121;stop-opacity:1"/></radialGradient><filter id="a" width="100%" height="100%" x="0%" y="0%" filterUnits="objectBoundingBox"><feColorMatrix in="SourceGraphic" values="0 0 0 0 1 0 0 0 0 1 0 0 0 0 1 0 0 0 1 0"/></filter></defs><path d="M13.441 9.957c.547-2.086-.816-4.406-3.09-6.176C8.81 2.582 7.235 2.562 6.376 2.527a4.24 4.24 0 0 0-2.723.864C2.387 4.35 1.82 5.879 1.54 8.742c-.105 1.07-.262 2.172-.152 3.227a4.3 4.3 0 0 0 1.133 2.5c.793.86 2.097 1.172 3.28.972 1.118-.191 2.173-.796 3.188-1.336l.305-.16c2.543-1.347 3.742-2.449 4.148-3.988m0 0" style="stroke:none;fill-rule:nonzero;fill:url(#j)"/><use xlink:href="#l" mask="url(#k)"/><path d="M4.012 5.465c-.106-.086-.309-.012-.457.168-.149.176-.184.39-.078.48.105.086.312.012.457-.168.148-.18.183-.394.078-.48M5.852 6.285c-.137-.008-.254.176-.266.406s.09.426.226.43c.137.008.254-.176.266-.406s-.09-.426-.226-.43M8.973 7.453c-.121-.058-.305.059-.407.266-.105.207-.09.426.032.488.12.059.304-.059.41-.27.101-.207.086-.421-.035-.484M4.883 7.703c-.133-.016-.266.16-.29.39-.023.231.063.43.2.446s.266-.16.289-.39c.027-.231-.062-.43-.2-.446M2.988 8.41c-.133-.012-.261.164-.285.395-.023.23.07.43.203.441.137.016.266-.16.29-.39.019-.235-.071-.43-.208-.446M4.637 10.11c-.121-.063-.305.058-.407.265-.105.207-.09.426.032.484.125.063.304-.058.41-.265.101-.207.086-.426-.035-.485M6.52 11.477c-.122-.063-.305.058-.41.265-.102.207-.087.426.035.485.12.062.304-.059.406-.266.105-.207.09-.426-.031-.484M8.23 13.023c-.058-.12-.277-.136-.484-.035-.21.102-.328.285-.27.407.06.12.278.136.485.035.21-.102.328-.282.27-.407M8.594 11.441c-.059-.125-.278-.14-.485-.039-.207.106-.328.286-.27.407.063.125.278.14.49.039.206-.106.327-.286.265-.407M4.117 13.184c-.086-.215-.258-.348-.387-.297-.125.05-.156.265-.07.48s.258.348.383.297c.129-.05.16-.266.074-.48M5.832 13.523c-.07-.117-.285-.12-.488-.003-.2.117-.309.304-.242.421.07.118.289.121.488.004.203-.117.308-.304.242-.422M3.09 11.043c-.063-.223-.219-.375-.352-.336-.129.035-.183.246-.125.469.063.222.219.375.352.34.129-.04.187-.246.125-.473M6.684 8.977c-.122-.059-.305.058-.407.265-.105.207-.09.426.032.488.125.06.304-.058.41-.27.101-.206.086-.42-.035-.483M8.441 9.379c-.093-.094-.304-.04-.468.125-.164.164-.22.375-.125.469.097.097.308.043.472-.121.164-.165.22-.375.121-.473M10.027 10.613c-.125-.054-.304.067-.402.278-.098.21-.078.43.047.484.121.059.3-.066.398-.277s.078-.426-.043-.485M11.293 9.238c-.11-.078-.309.008-.445.196-.137.187-.16.402-.047.484.11.078.308-.008.445-.195.137-.188.156-.403.047-.485m0 0" style="stroke:none;fill-rule:nonzero;fill:#603813;fill-opacity:1"/><path d="M11.195 9.332c-.086-.047-.222.035-.3.184-.075.144-.07.3.02.347.085.047.218-.035.296-.183.078-.145.07-.301-.016-.348M9.969 10.668c-.086-.047-.219.035-.297.184-.078.148-.07.304.015.347.086.047.223-.035.297-.18.079-.148.075-.304-.015-.351m0 0" style="stroke:none;fill-rule:nonzero;fill:#fffde7;fill-opacity:1"/><path d="M11.973 6.238c-.63.336-1.461.477-2.008.024-.383-.313-.527-.871-.395-1.348.133-.476.512-.867.965-1.062a2.9 2.9 0 0 1 .852-.2c.258-.027.515-.004.773-.03.375-.04.742-.145 1.078-.317.278-.137.516-.352.793-.493-.027.016-.031.446-.039.5a6 6 0 0 1-.105.516c-.094.344-.227.68-.399.992-.16.297-.355.606-.61.832-.269.246-.589.418-.905.586m0 0" style="stroke:none;fill-rule:nonzero;fill:url(#m)"/><use xlink:href="#o" mask="url(#n)"/><path d="M8.656 3.934c.094.597.422 1.234 1.012 1.37.41.098.86-.09 1.113-.421.258-.336.324-.79.227-1.2a2.6 2.6 0 0 0-.305-.675c-.113-.188-.258-.352-.375-.543a2.7 2.7 0 0 1-.336-.89c-.047-.259-.027-.528-.074-.79.004.027-.281.25-.316.285a5 5 0 0 0-.297.332 3.8 3.8 0 0 0-.47.782c-.116.261-.226.55-.25.836-.026.304.024.613.071.914m0 0" style="stroke:none;fill-rule:nonzero;fill:url(#p)"/><use xlink:href="#r" mask="url(#q)"/><path d="M9.18 2.75c.46.477.8 1.188.539 1.793-.184.422-.645.695-1.106.7-.46.007-.91-.231-1.199-.59-.176-.212-.293-.458-.398-.708-.09-.226-.137-.46-.227-.687a3 3 0 0 0-.562-.883c-.196-.215-.446-.371-.645-.582.02.02.406-.086.461-.094q.239-.034.484-.039a4 4 0 0 1 .993.102c.308.066.636.16.902.328.285.176.523.422.758.66m0 0" style="stroke:none;fill-rule:nonzero;fill:url(#s)"/><use xlink:href="#u" mask="url(#t)"/><path d="M11.527 7.305c-.683-.223-1.367-.73-1.418-1.45-.039-.496.266-.992.707-1.226.438-.238.989-.234 1.45-.04.27.114.507.294.734.481.203.168.363.375.566.543.293.246.625.442.985.567.297.105.617.133.914.234-.031-.008-.348.29-.395.32q-.216.158-.449.286a4.4 4.4 0 0 1-1 .402c-.328.09-.691.164-1.031.14-.367-.03-.715-.144-1.063-.257m0 0" style="stroke:none;fill-rule:nonzero;fill:url(#v)"/><use xlink:href="#x" mask="url(#w)"/><path d="M10.945.54s.614-.18.828.16c.215.335-.027 2.12-.37 3.003-.348.883-.973 1.406-1.29 1.64-.312.235-.644-.46-.644-.46s.863-.805 1.113-1.45c.246-.64.25-1.968.227-2.398-.02-.433.136-.496.136-.496m0 0" style="stroke:none;fill-rule:nonzero;fill:url(#y)"/><use xlink:href="#A" mask="url(#z)"/><path d="M7.54 6.36c.808.085 1.75-.126 2.132-.84.265-.497.176-1.145-.168-1.594-.344-.446-.914-.692-1.477-.703-.336-.008-.664.066-.98.156-.285.082-.55.219-.836.3a3.6 3.6 0 0 1-1.274.134c-.351-.028-.695-.149-1.046-.176.035 0 .222.453.257.508.098.171.211.34.332.496.247.328.532.625.848.879.3.242.637.484 1 .617.39.136.805.183 1.211.222m0 0" style="stroke:none;fill-rule:nonzero;fill:url(#B)"/><use xlink:href="#D" mask="url(#C)"/><path d="M9.441 7.625c-.386-.715-.554-1.664-.046-2.293.359-.437.988-.605 1.535-.46s.992.577 1.218 1.093c.137.305.196.637.235.965.035.293.008.59.043.886.05.426.176.844.37 1.227.161.312.407.582.567.898-.015-.03-.504-.035-.57-.043a6 6 0 0 1-.586-.113 5.2 5.2 0 0 1-1.137-.445c-.34-.18-.695-.399-.953-.684-.281-.308-.48-.672-.676-1.031m0 0" style="stroke:none;fill-rule:nonzero;fill:url(#E)"/><use xlink:href="#G" mask="url(#F)"/><path d="M3.89 5.508c-.074-.063-.222-.012-.328.117-.105.129-.128.285-.054.348.074.062.222.007.328-.121.105-.13.133-.282.055-.344M2.969 8.516c-.09-.016-.18.097-.203.25-.024.152.03.285.12.3.09.012.18-.101.204-.254.023-.152-.031-.285-.121-.296M6.004 6.648c0-.164-.078-.3-.176-.3-.101 0-.18.136-.18.3 0 .168.079.305.18.305.098 0 .176-.137.176-.305M4.867 7.813c-.09-.016-.187.093-.215.246-.027.156.02.293.114.308.09.02.183-.094.214-.246.028-.152-.023-.293-.113-.309M4.555 10.203c-.09-.035-.215.063-.278.215-.058.156-.035.309.055.348.094.035.215-.063.277-.22.063-.151.036-.308-.054-.343M6.605 9.055c-.09-.035-.214.058-.273.215-.062.152-.039.308.055.343.09.035.215-.058.273-.215.063-.156.035-.308-.055-.343M6.426 11.582c-.09-.035-.215.059-.274.215-.062.152-.039.308.055.344.09.035.211-.059.273-.215s.036-.309-.054-.344M5.68 13.543c-.063-.078-.215-.055-.344.05s-.184.255-.125.329c.062.078.219.055.348-.05s.183-.255.12-.329M8.07 13.012c-.062-.078-.218-.055-.347.05-.13.106-.184.25-.121.329.062.074.214.05.347-.055.13-.102.184-.25.121-.324M8.457 11.441c-.05-.086-.207-.086-.352-.004-.144.083-.218.22-.171.305.05.086.207.086.351.004.145-.086.219-.223.172-.305M8.36 9.426c-.07-.07-.223-.031-.34.086s-.157.27-.086.34c.07.07.218.03.336-.09.12-.117.16-.27.09-.336M8.91 7.531c-.086-.043-.219.04-.297.184-.078.148-.07.305.016.351.086.047.219-.035.297-.183.078-.149.07-.305-.016-.352M4.027 13.242c-.039-.164-.148-.277-.246-.254-.094.024-.14.176-.097.336.039.164.148.274.242.25.094-.023.14-.172.101-.332M3.004 10.973c-.055-.145-.168-.239-.254-.203-.086.03-.113.171-.059.32.055.144.168.238.254.207s.11-.176.059-.324m0 0" style="stroke:none;fill-rule:nonzero;fill:#fffde7;fill-opacity:1"/></svg>