<svg xmlns="http://www.w3.org/2000/svg" width="16pt" height="16pt" viewBox="0 0 16 16"><defs><linearGradient id="a" x1="64" x2="64" y1="19.742" y2="107.73" gradientTransform="scale(.125)" gradientUnits="userSpaceOnUse"><stop offset=".5" style="stop-color:#fee133;stop-opacity:1"/><stop offset=".612" style="stop-color:#fede32;stop-opacity:1"/><stop offset=".708" style="stop-color:#fcd32f;stop-opacity:1"/><stop offset=".797" style="stop-color:#fac12b;stop-opacity:1"/><stop offset=".883" style="stop-color:#f7a924;stop-opacity:1"/><stop offset=".9" style="stop-color:#f6a323;stop-opacity:1"/></linearGradient></defs><path d="M8 14.988c-3.492 0-7.25-2.183-7.25-6.984 0-4.8 3.758-6.988 7.25-6.988 1.934 0 3.727.64 5.047 1.804 1.441 1.274 2.203 3.067 2.203 5.184 0 2.105-.762 3.894-2.203 5.172C11.723 14.348 9.93 14.988 8 14.988m0 0" style="stroke:none;fill-rule:nonzero;fill:url(#a)"/><path d="M8 1.266c1.875 0 3.61.62 4.879 1.742C14.266 4.234 15 5.957 15 8.004c0 2.031-.734 3.758-2.121 4.984-1.277 1.13-3.008 1.75-4.879 1.75-1.879 0-3.613-.613-4.879-1.726C1.734 11.793 1 10.062 1 8.004c0-2.066.734-3.8 2.121-5.02C4.383 1.875 6.117 1.266 8 1.266m0-.5C4.105.766.5 3.266.5 8.004c0 4.707 3.605 7.234 7.5 7.234s7.5-2.59 7.5-7.234C15.5 3.332 11.895.766 8 .766m0 0" style="stroke:none;fill-rule:nonzero;fill:#eb8f00;fill-opacity:1"/><path d="M6.957 12.914a.86.86 0 0 1-.707-1.336c.39-.598.996-.914 1.75-.914s1.36.316 1.75.914a.84.84 0 0 1 .043.879.86.86 0 0 1-.75.457.8.8 0 0 1-.29-.05 2.28 2.28 0 0 0-1.507 0 .8.8 0 0 1-.289.05m0 0" style="stroke:none;fill-rule:nonzero;fill:#242424;fill-opacity:1"/><path d="M9.895 3.902c-.004 0-.008-.004-.016-.004-.262-.086-.215-.484.086-.449q.359.045.707.207c.629.29 1.101.817 1.32 1.387.11.285-.273.426-.414.191a3.27 3.27 0 0 0-1.683-1.332M6.105 3.902c.004 0 .008-.004.016-.004.262-.086.215-.484-.086-.449a2.579 2.579 0 0 0-2.027 1.594c-.11.285.273.426.414.191a3.27 3.27 0 0 1 1.683-1.332m0 0" style="stroke:none;fill-rule:nonzero;fill:#eb8f00;fill-opacity:1"/><path d="M13.27 13.059c-1.098 0-1.649-.825-2.184-1.625-.477-.715-.973-1.45-1.84-1.48.656-.556 1.395-.93 1.996-1.009q.4-.053.77-.054c.933 0 1.73.254 2.308.73.489.402.793.945.856 1.527.078.7-.219 1.602-1.309 1.84-.21.051-.414.07-.597.07m0 0" style="stroke:none;fill-rule:nonzero;fill:#5f7aff;fill-opacity:1"/><path d="M12.012 9.145c1.86 0 2.804 1.02 2.914 2.03.066.598-.188 1.368-1.114 1.571a2.5 2.5 0 0 1-.542.066c-.899 0-1.348-.574-1.977-1.515-.387-.578-.813-1.215-1.465-1.473.5-.344 1.016-.574 1.445-.629q.38-.051.739-.05m0-.5c-.254 0-.524.015-.805.054-.789.102-1.625.625-2.219 1.149-.14.125-.082.363.098.363h.016q.052-.005.097-.004c1.66 0 1.79 3.105 4.07 3.105.2 0 .418-.023.653-.078 2.496-.55 1.937-4.59-1.91-4.59m0 0" style="stroke:none;fill-rule:nonzero;fill:#4864ed;fill-opacity:1"/><path d="m6.203 6.836-.027.027c-.012.012-.043.047-.063.063l-.086.07q-.056.042-.125.09a2 2 0 0 1-.148.086c-.05.027-.113.047-.172.07-.059.02-.125.031-.187.047a2 2 0 0 1-.196.012h.016-.074c-.036 0-.04-.004-.051-.004a1.097 1.097 0 0 1-.277-.059 1.345 1.345 0 0 1-.32-.156 2 2 0 0 1-.216-.164l-.078-.07-.031-.032a.44.44 0 0 0-.57-.023.33.33 0 0 0-.098.406l.02.04q.015.034.054.105a1.75 1.75 0 0 0 .824.715c.118.05.247.093.38.12.07.012.132.024.218.032.04.004.082.008.106.012l.093.004c.14-.004.282-.02.418-.047a2 2 0 0 0 .38-.121c.116-.051.226-.11.316-.172.093-.063.171-.133.238-.2.07-.062.125-.128.168-.187.02-.031.043-.059.058-.082l.051-.082c.035-.05.035-.07.051-.094l.012-.031c.086-.188-.016-.399-.227-.473a.44.44 0 0 0-.457.098M11.813 6.836l-.024.027c-.016.012-.047.047-.062.063q-.038.03-.086.07-.058.042-.125.09c-.047.027-.094.059-.149.086s-.113.047-.172.07c-.062.02-.125.031-.187.047a2 2 0 0 1-.2.012h.02-.078c-.031 0-.04-.004-.05-.004a.4.4 0 0 1-.087-.012 1 1 0 0 1-.187-.047c-.059-.02-.121-.039-.172-.07a1.676 1.676 0 0 1-.363-.25c-.051-.043-.079-.07-.079-.07l-.03-.032a.44.44 0 0 0-.571-.023.33.33 0 0 0-.098.406l.02.04c.012.023.027.058.055.105.05.086.136.21.269.343q.1.101.242.196.136.1.313.176c.117.05.246.093.379.12.07.012.132.024.218.032.04.004.086.008.106.012l.094.004c.144-.004.28-.02.418-.047a2 2 0 0 0 .695-.293c.094-.063.172-.133.238-.2.07-.062.121-.128.168-.187a1 1 0 0 1 .059-.082l.05-.082c.032-.05.036-.07.047-.094.008-.02.016-.031.016-.031.082-.188-.02-.399-.227-.473a.45.45 0 0 0-.46.098m0 0" style="stroke:none;fill-rule:nonzero;fill:#242424;fill-opacity:1"/></svg>