<svg xmlns="http://www.w3.org/2000/svg" width="16pt" height="16pt" viewBox="0 0 16 16"><defs><radialGradient id="a" cx="51.77" cy="3.401" r="87.039" fx="51.77" fy="3.401" gradientTransform="rotate(-90.125 12.662 5.87)scale(.125 -.09841)" gradientUnits="userSpaceOnUse"><stop offset=".6" style="stop-color:#f9ddbd;stop-opacity:1"/><stop offset="1" style="stop-color:#edc391;stop-opacity:1"/></radialGradient><radialGradient id="b" cx="1974.3" cy="-927.55" r="20.331" fx="1974.3" fy="-927.55" gradientTransform="matrix(-.17354 -.00992 -.00468 .08493 351.15 107.03)" gradientUnits="userSpaceOnUse"><stop offset=".5" style="stop-color:#f9ddbd;stop-opacity:1"/><stop offset="1" style="stop-color:#edc391;stop-opacity:1"/></radialGradient><radialGradient id="c" cx="2027.8" cy="-1036.9" r="18.753" fx="2027.8" fy="-1036.9" gradientTransform="matrix(-.21209 .00024 .00036 .08505 443.875 93.95)" gradientUnits="userSpaceOnUse"><stop offset=".5" style="stop-color:#f9ddbd;stop-opacity:1"/><stop offset="1" style="stop-color:#edc391;stop-opacity:1"/></radialGradient><radialGradient id="d" cx="2069.3" cy="-964.73" r="20.446" fx="2069.3" fy="-964.73" gradientTransform="matrix(-.16336 .00078 .00057 .08505 351.25 82.36)" gradientUnits="userSpaceOnUse"><stop offset=".5" style="stop-color:#f9ddbd;stop-opacity:1"/><stop offset="1" style="stop-color:#edc391;stop-opacity:1"/></radialGradient><radialGradient id="e" cx="2048.8" cy="-1028.5" r="18.611" fx="2048.8" fy="-1028.5" gradientTransform="matrix(-.20447 .00024 .00035 .08505 432.413 90.963)" gradientUnits="userSpaceOnUse"><stop offset=".5" style="stop-color:#f9ddbd;stop-opacity:1"/><stop offset="1" style="stop-color:#edc391;stop-opacity:1"/></radialGradient></defs><path d="M7.758 15.273q-.475-.001-.88-.265c-.108-.074-.108-.578-.108-.985.003-.625.003-1.406-.25-2.12a4.3 4.3 0 0 0-1.332-1.876C3.949 9.06 2.308 8.523 2.238 8.5c-.008 0-.02-.004-.031-.004a1.135 1.135 0 0 1-.96-1.129l.01-4.094c0-.609.43-1.136 1.04-1.28.078-.02.172-.032.273-.044.235-.027.5-.062.743-.199.859-.488 1.992-.652 3.09-.758C7.992.844 9.612.801 10.69.793c.375 0 .715.14.973.398s.399.598.399.961l-.008 5.278c0 1.02-.832 1.847-1.852 1.847h-.015l-.907-.03a.19.19 0 0 0-.176.12c-.183.492.02 1.219.258 2.063.203.71.41 1.445.383 2.066-.039.899-1.023 1.777-1.988 1.777m0 0" style="stroke:none;fill-rule:nonzero;fill:url(#a)"/><path d="M10.703.98c.313 0 .606.122.828.344.219.219.34.512.34.828l-.004 5.274a1.67 1.67 0 0 1-1.664 1.664h-.008l-.898-.031H9.28a.38.38 0 0 0-.351.242c-.207.55.004 1.304.254 2.18.195.695.398 1.414.375 2.007-.036.793-.946 1.598-1.801 1.598q-.406 0-.746-.219c-.055-.125-.055-.539-.055-.844.004-.64.004-1.437-.258-2.187a4.46 4.46 0 0 0-1.398-1.957C4.039 8.89 2.363 8.344 2.297 8.32l-.059-.011a.95.95 0 0 1-.8-.946l.007-4.093c.004-.524.371-.973.895-1.098.07-.016.16-.027.254-.04.238-.03.535-.07.812-.222.828-.472 1.938-.629 3.012-.734 1.586-.149 3.2-.192 4.273-.2zm0-.375h-.015c-1.13.008-2.731.051-4.305.2-1.274.12-2.336.308-3.164.777-.309.18-.688.16-.965.227-.688.16-1.18.757-1.184 1.46L1.06 7.368c0 .653.476 1.211 1.12 1.313 0 0 1.665.535 2.891 1.496.461.36.992.996 1.274 1.789.468 1.324.027 2.933.433 3.2.313.206.649.296.98.296 1.09 0 2.134-.98 2.177-1.957.058-1.371-.965-3.238-.653-4.07l.906.03h.016c1.121 0 2.035-.91 2.035-2.034l.008-5.278A1.54 1.54 0 0 0 10.703.605m0 0" style="stroke:none;fill-rule:nonzero;fill:#e6b77e;fill-opacity:1"/><path d="M8.266 8.188c.234-.626.238-1.602 0-2.204-.344-.87-1.188-1.629-2.157-1.765-.238-.032-.097-.25.141-.219 1.05.145 2.473.574 2.844 1.516 1.015 2.593-.172 3.953-.703 3.547-.254-.196-.258-.52-.125-.876m0 0" style="stroke:none;fill-rule:nonzero;fill:#e6b77e;fill-opacity:1"/><path d="M11.953 9.836c-1.64 0-2.805-.274-3.277-.777a.87.87 0 0 1-.246-.68c.054-.926 1.312-1.117 2.355-1.117 1.168 0 2.324.238 2.336.242.012 0 .02.004.027.004.551.031.965.57.93 1.203-.035.61-.48 1.09-1.012 1.09q-.029.001-.05-.004h-.012c-.004 0-.012 0-.016.004-.004-.004-.441.035-1.035.035m0 0" style="stroke:none;fill-rule:nonzero;fill:url(#b)"/><path d="M10.785 7.45c1.145 0 2.285.234 2.297.237.02.004.035.004.055.008.445.024.785.477.754 1.004-.032.512-.395.914-.825.914q-.02.001-.043-.004h-.054c-.004 0-.43.04-1.016.04-1.562 0-2.71-.262-3.14-.72a.7.7 0 0 1-.196-.538c.012-.207.086-.504.602-.715.375-.153.902-.227 1.566-.227m0-.375c-1.226 0-2.48.254-2.543 1.293-.082 1.442 2.285 1.656 3.711 1.656.613 0 1.05-.039 1.05-.039h.063c.625 0 1.157-.55 1.2-1.265.039-.735-.453-1.364-1.106-1.403 0 .004-1.176-.242-2.375-.242m0 0" style="stroke:none;fill-rule:nonzero;fill:#e6b77e;fill-opacity:1"/><path d="M11.57 7.523c-1.367 0-2.992-.23-2.992-1.32 0-1.094 1.625-1.324 2.992-1.324 1.157 0 2.207.168 2.22.172h.03c.524 0 .934.64.934 1.191 0 .524-.383 1.106-.934 1.106-.011 0-.023.004-.03.004-.013.003-1.063.171-2.22.171m0 0" style="stroke:none;fill-rule:nonzero;fill:url(#c)"/><path d="M11.57 5.07c1.137 0 2.18.164 2.188.164q.029.007.062.008c.403 0 .746.551.746 1.004 0 .434-.32.918-.746.918q-.034-.001-.062.004c-.008 0-1.051.168-2.188.168-.855 0-1.535-.09-2.02-.27-.702-.257-.784-.617-.784-.863 0-.25.082-.61.785-.867.484-.176 1.164-.266 2.02-.266m0-.375c-1.493 0-3.18.274-3.18 1.508s1.687 1.508 3.18 1.508c1.183 0 2.25-.172 2.25-.172.644 0 1.12-.652 1.12-1.293 0-.637-.476-1.379-1.12-1.379 0 0-1.067-.172-2.25-.172m0 0" style="stroke:none;fill-rule:nonzero;fill:#e6b77e;fill-opacity:1"/><path d="M11.48 3.074c-1.957 0-3.078-.375-3.082-1.031 0-.176.067-.328.211-.469.805-.808 3.473-.847 4-.847h.121c.614 0 1.106.511 1.11 1.144 0 .305-.113.598-.324.813-.207.218-.48.336-.774.336-.004 0-.012 0-.015.003-.008 0-.551.051-1.247.051m0 0" style="stroke:none;fill-rule:nonzero;fill:url(#d)"/><path d="M12.61.914h.128c.5 0 .91.43.914.957a1 1 0 0 1-.27.688.9.9 0 0 1-.64.277h-.035c-.004 0-.535.05-1.223.05-1.785 0-2.894-.324-2.898-.843 0-.078.016-.195.156-.332.363-.371 1.594-.797 3.867-.797m0-.375c-.734 0-4.402.07-4.398 1.504.004 1.039 1.934 1.219 3.273 1.219.711 0 1.258-.051 1.258-.051.711-.004 1.285-.602 1.285-1.34C14.023 1.133 13.45.54 12.738.54Zm0 0" style="stroke:none;fill-rule:nonzero;fill:#e6b77e;fill-opacity:1"/><path d="M11.41 5.156c-1.12 0-3.008-.148-3.008-1.14 0-1.18 2.614-1.309 3.739-1.309.652 0 1.132.04 1.136.04h.016c.594 0 1.129.624 1.129 1.312 0 .726-.61.984-1.129.984q-.012-.001-.023.004c-.008 0-.868.11-1.86.11m0 0" style="stroke:none;fill-rule:nonzero;fill:url(#e)"/><path d="M12.14 2.898c.645 0 1.118.04 1.126.04h.03c.481 0 .938.546.938 1.124 0 .586-.484.797-.937.797h-.05c-.009.004-.856.114-1.837.114-.851 0-1.531-.082-2.023-.235-.793-.25-.793-.601-.793-.718q.001-.571 1.12-.872c.77-.207 1.743-.25 2.427-.25m0-.375c-1.5 0-3.926.2-3.926 1.497 0 1.097 1.75 1.328 3.195 1.328 1.016 0 1.883-.114 1.883-.114.707 0 1.316-.402 1.316-1.171 0-.77-.609-1.5-1.316-1.5 0 0-.484-.04-1.152-.04M3.473 1.637 2.875 4l-.25-2.125Zm0 0" style="stroke:none;fill-rule:nonzero;fill:#e6b77e;fill-opacity:1"/></svg>