<svg xmlns="http://www.w3.org/2000/svg" xmlns:xlink="http://www.w3.org/1999/xlink" width="16pt" height="16pt" viewBox="0 0 16 16"><defs><clipPath id="e"><path d="M9 9h6v7H9Zm0 0"/></clipPath><clipPath id="f"><path d="m7.227 13.633 3.914 3.914 6.023-6.027-3.91-3.91c-.738 1.05-1.684 2.16-2.742 3.218-1.059 1.055-2.164 2-3.215 2.738"/></clipPath><clipPath id="g"><path d="M7 7h9v9H7Zm0 0"/></clipPath><clipPath id="h"><path d="m7.227 13.633 3.914 3.914 6.023-6.027-3.91-3.91c-.738 1.05-1.684 2.16-2.742 3.218-1.059 1.055-2.164 2-3.215 2.738"/></clipPath><clipPath id="b"><path d="M0 0h16v16H0z"/></clipPath><clipPath id="c"><path d="M0 0h16v16H0z"/></clipPath><mask id="i"><g filter="url(#a)"><path d="M0 0h16v16H0z" style="fill:#000;fill-opacity:.301961;stroke:none"/></g></mask><mask id="k"><g filter="url(#a)"><path d="M0 0h16v16H0z" style="fill:#000;fill-opacity:.301961;stroke:none"/></g></mask><g id="j" clip-path="url(#b)"><path d="m12.672 10.266 1.336 1.297c.316.304.484.726.484 1.171 0 .442-.172.856-.484 1.168l-.29.293a1.656 1.656 0 0 1-2.344 0L9.587 12.48Zm.258-.391-3.836 2.707 1.93 1.965a2.12 2.12 0 0 0 1.523.629c.55 0 1.101-.207 1.523-.63l.29-.288a2.155 2.155 0 0 0 0-3.051Zm0 0" style="stroke:none;fill-rule:nonzero;fill:#ab3f2e;fill-opacity:1"/></g><g id="l" clip-path="url(#c)"><path d="m91.76 92.881 6.5 6.969" style="fill:none;stroke-width:4.2184;stroke-linecap:round;stroke-linejoin:miter;stroke:#ab3f2e;stroke-opacity:1;stroke-miterlimit:10" transform="translate(-.001 -.013)scale(.125)"/></g><linearGradient id="d" x1="64" x2="64" y1="19.717" y2="107.7" gradientTransform="scale(.125)" gradientUnits="userSpaceOnUse"><stop offset=".5" style="stop-color:#fee133;stop-opacity:1"/><stop offset=".612" style="stop-color:#fede32;stop-opacity:1"/><stop offset=".708" style="stop-color:#fcd32f;stop-opacity:1"/><stop offset=".797" style="stop-color:#fac12b;stop-opacity:1"/><stop offset=".883" style="stop-color:#f7a924;stop-opacity:1"/><stop offset=".9" style="stop-color:#f6a323;stop-opacity:1"/></linearGradient><filter id="a" width="100%" height="100%" x="0%" y="0%" filterUnits="objectBoundingBox"><feColorMatrix in="SourceGraphic" values="0 0 0 0 1 0 0 0 0 1 0 0 0 0 1 0 0 0 1 0"/></filter></defs><path d="M8 14.96C4.52 14.96.777 12.782.777 8S4.52 1.04 8 1.04c1.926 0 3.71.64 5.027 1.796C14.465 4.106 15.223 5.89 15.223 8c0 2.102-.762 3.883-2.2 5.152C11.707 14.32 9.922 14.961 8 14.961m0 0" style="stroke:none;fill-rule:nonzero;fill:url(#d)"/><path d="M8 1.29c1.867 0 3.594.616 4.86 1.733C14.241 4.246 14.972 5.965 14.972 8c0 2.027-.73 3.746-2.114 4.969C11.59 14.094 9.863 14.71 8 14.71c-1.871 0-3.598-.61-4.86-1.723C1.759 11.773 1.028 10.051 1.028 8c0-2.059.73-3.79 2.114-5C4.398 1.898 6.125 1.29 8 1.29m0-.5C4.121.79.527 3.28.527 8c0 4.691 3.594 7.21 7.473 7.21S15.473 12.63 15.473 8C15.473 3.344 11.879.79 8 .79m0 0" style="stroke:none;fill-rule:nonzero;fill:#eb8f00;fill-opacity:1"/><g clip-path="url(#e)"><g clip-path="url(#f)"><path d="m14.363 14.258-.289.289c-.844.84-2.207.84-3.05 0l-1.93-1.965 3.836-2.707 1.433 1.332c.84.844.84 2.207 0 3.05m0 0" style="stroke:none;fill-rule:nonzero;fill:#e04c74;fill-opacity:1"/></g></g><g clip-path="url(#g)"><g clip-path="url(#h)"><use xlink:href="#j" mask="url(#i)"/><use xlink:href="#l" mask="url(#k)"/></g></g><path d="M3.14 8.797c.715 1.613 2.258 2.836 4.008 3.11a5.3 5.3 0 0 0 4.204-1.137c.668-.543 1.175-1.258 1.543-2.032.328-.343.683.219.386.5-.781 1.903-2.68 3.278-4.73 3.45-1.871.19-3.813-.602-5-2.067-.406-.508-.762-1.078-.942-1.703-.007-.293.407-.379.532-.121M6.195 5.96c-.133-.163-.277-.331-.465-.425-.035-.023-.152-.023-.078-.023-.082 0-.062-.004-.156.035-.215.113-.351.324-.516.492-.23.207-.644.145-.789-.133-.097-.168-.035-.363.028-.531.187-.516.652-.937 1.207-1.008a1.44 1.44 0 0 1 1.258.446c.218.234.386.53.425.851.024.27-.234.496-.492.492a.52.52 0 0 1-.422-.195M10.883 5.96c-.133-.163-.278-.331-.465-.425-.09-.027-.11-.023-.102-.023-.054-.004-.09.015-.171.058-.196.117-.32.309-.48.47-.231.206-.642.144-.786-.134-.102-.168-.035-.363.023-.531.192-.516.657-.937 1.207-1.008.461-.074.946.106 1.262.446.219.234.383.53.426.851.023.27-.235.496-.496.492a.51.51 0 0 1-.418-.195m0 0" style="stroke:none;fill-rule:nonzero;fill:#242424;fill-opacity:1"/></svg>