<svg xmlns="http://www.w3.org/2000/svg" xmlns:xlink="http://www.w3.org/1999/xlink" width="16pt" height="16pt" viewBox="0 0 16 16"><defs><linearGradient id="j" x1="45.554" x2="49.961" y1="-26.325" y2="-18.23" gradientTransform="rotate(45 4.982 9.726)scale(.125)" gradientUnits="userSpaceOnUse"><stop offset="0" style="stop-color:#ffd740;stop-opacity:1"/><stop offset="1" style="stop-color:#ffab00;stop-opacity:1"/></linearGradient><linearGradient id="k" x1="60.071" x2="91.238" y1="55.818" y2="87.068" gradientTransform="scale(.125)" gradientUnits="userSpaceOnUse"><stop offset="0" style="stop-color:#ffc400;stop-opacity:1"/><stop offset="1" style="stop-color:#ffab00;stop-opacity:1"/></linearGradient><linearGradient id="l" x1="67.946" x2="99.113" y1="47.943" y2="79.193" gradientTransform="scale(.125)" gradientUnits="userSpaceOnUse"><stop offset="0" style="stop-color:#ffc400;stop-opacity:1"/><stop offset="1" style="stop-color:#ffab00;stop-opacity:1"/></linearGradient><linearGradient id="m" x1="75.821" x2="106.99" y1="40.068" y2="71.318" gradientTransform="scale(.125)" gradientUnits="userSpaceOnUse"><stop offset="0" style="stop-color:#ffc400;stop-opacity:1"/><stop offset="1" style="stop-color:#ffab00;stop-opacity:1"/></linearGradient><linearGradient id="p" x1="59.041" x2="59.041" y1="18" y2="125.32" gradientTransform="scale(.125)" gradientUnits="userSpaceOnUse"><stop offset="0" style="stop-color:#ffc400;stop-opacity:1"/><stop offset=".594" style="stop-color:#ffc200;stop-opacity:1"/><stop offset=".808" style="stop-color:#fb0;stop-opacity:1"/><stop offset=".96" style="stop-color:#ffb000;stop-opacity:1"/><stop offset="1" style="stop-color:#ffab00;stop-opacity:1"/></linearGradient><linearGradient id="q" x1="64.004" x2="91.014" y1="59.761" y2="86.843" gradientTransform="matrix(.09723 -.02778 -.02778 .09723 3.96 3.96)" gradientUnits="userSpaceOnUse"><stop offset="0" style="stop-color:#ff8f00;stop-opacity:1"/><stop offset=".377" style="stop-color:#ff8f00;stop-opacity:0"/><stop offset=".514" style="stop-color:#ff8f00;stop-opacity:0"/><stop offset=".634" style="stop-color:#ff8f00;stop-opacity:0"/><stop offset="1" style="stop-color:#ff8f00;stop-opacity:1"/></linearGradient><linearGradient id="r" x1="67.946" x2="99.113" y1="47.943" y2="79.193" gradientTransform="matrix(.09325 -.03175 -.03175 .09325 4.67 4.67)" gradientUnits="userSpaceOnUse"><stop offset="0" style="stop-color:#ff8f00;stop-opacity:1"/><stop offset=".377" style="stop-color:#ff8f00;stop-opacity:0"/><stop offset=".514" style="stop-color:#ff8f00;stop-opacity:0"/><stop offset=".634" style="stop-color:#ff8f00;stop-opacity:0"/><stop offset="1" style="stop-color:#ff8f00;stop-opacity:1"/></linearGradient><linearGradient id="s" x1="98.668" x2="83.481" y1="62.956" y2="47.769" gradientTransform="scale(.125)" gradientUnits="userSpaceOnUse"><stop offset="0" style="stop-color:#ff8f00;stop-opacity:1"/><stop offset=".377" style="stop-color:#ff8f00;stop-opacity:0"/><stop offset=".514" style="stop-color:#ff8f00;stop-opacity:0"/><stop offset=".634" style="stop-color:#ff8f00;stop-opacity:0"/><stop offset="1" style="stop-color:#ff8f00;stop-opacity:1"/></linearGradient><linearGradient id="g" x1="34.917" x2="105.44" y1="93.083" y2="22.562" gradientTransform="scale(.125)" gradientUnits="userSpaceOnUse"><stop offset="0" style="stop-color:#ff8f00;stop-opacity:0"/><stop offset=".265" style="stop-color:#ff8f00;stop-opacity:1"/><stop offset=".871" style="stop-color:#ff8f00;stop-opacity:1"/><stop offset="1" style="stop-color:#ff8f00;stop-opacity:0"/></linearGradient><linearGradient id="D" x1="82.743" x2="82.743" y1="34.833" y2="112.85" gradientTransform="scale(.125)" gradientUnits="userSpaceOnUse"><stop offset="0" style="stop-color:#ffd740;stop-opacity:1"/><stop offset="1" style="stop-color:#ffab00;stop-opacity:1"/></linearGradient><clipPath id="b"><path d="M0 0h16v16H0z"/></clipPath><clipPath id="c"><path d="M0 0h16v16H0z"/></clipPath><clipPath id="d"><path d="M0 0h16v16H0z"/></clipPath><clipPath id="e"><path d="M0 0h16v16H0z"/></clipPath><clipPath id="f"><path d="M0 0h16v16H0z"/></clipPath><clipPath id="h"><path d="M0 0h16v16H0z"/></clipPath><clipPath id="i"><path d="M0 0h16v16H0z"/></clipPath><mask id="n"><g filter="url(#a)"><path d="M0 0h16v16H0z" style="fill:#000;fill-opacity:.2;stroke:none"/></g></mask><mask id="t"><g filter="url(#a)"><path d="M0 0h16v16H0z" style="fill:#000;fill-opacity:.2;stroke:none"/></g></mask><mask id="v"><g filter="url(#a)"><path d="M0 0h16v16H0z" style="fill:#000;fill-opacity:.2;stroke:none"/></g></mask><mask id="x"><g filter="url(#a)"><path d="M0 0h16v16H0z" style="fill:#000;fill-opacity:.2;stroke:none"/></g></mask><mask id="z"><g filter="url(#a)"><path d="M0 0h16v16H0z" style="fill:#000;fill-opacity:.701961;stroke:none"/></g></mask><mask id="B"><g filter="url(#a)"><path d="M0 0h16v16H0z" style="fill:#000;fill-opacity:.2;stroke:none"/></g></mask><mask id="E"><g filter="url(#a)"><path d="M0 0h16v16H0z" style="fill:#000;fill-opacity:.2;stroke:none"/></g></mask><g id="o" clip-path="url(#b)"><path d="M14.227.688h.003L15.31 1.77l-.004.003-.137-.132-.133.14c-.008.008-.203.207-.64.207h-.106l-.277.278-.278-.278.274-.273.004-.074c.008-.442.21-.676.218-.688l.122-.137zm0-.188a.2.2 0 0 0-.133.055.19.19 0 0 0 0 .273s-.262.281-.27.809l-.351.351.539.543.351-.355h.032c.543 0 .777-.27.777-.27h.004c.035.04.086.059.133.059a.2.2 0 0 0 .136-.059.19.19 0 0 0 0-.27L14.363.556A.2.2 0 0 0 14.227.5m0 0" style="stroke:none;fill-rule:nonzero;fill:#424242;fill-opacity:1"/></g><g id="u" clip-path="url(#c)"><path d="m7.496 6.535.078.074-.09.09.133.133 3.89 3.879.056.055h.175l.078.078-.441.441-.078-.074v-.176l-.055-.055-3.89-3.882-.133-.133-.086.086-.078-.074q.001-.023.02-.04l.382-.386a.1.1 0 0 1 .04-.016M6.91 5.91a.12.12 0 0 0-.086.035l-.008.008a.1.1 0 0 0-.062-.02.11.11 0 0 0-.082.036l-.18.176a.124.124 0 0 0-.015.148l-.008.004a.13.13 0 0 0 0 .18.14.14 0 0 0 .09.035.14.14 0 0 0 .09-.035l.085-.09.313.312-.102.102a.23.23 0 0 0-.074.176v.07l-.004.004.18.176a.12.12 0 0 0 .086.035.12.12 0 0 0 .09-.035l3.89 3.882v.176l.176.176a.12.12 0 0 0 .09.035.12.12 0 0 0 .086-.035l.531-.531a.12.12 0 0 0 0-.176l-.176-.176h-.175L7.75 6.7a.12.12 0 0 0 0-.176l-.176-.175h-.07a.24.24 0 0 0-.176.074l-.105.101-.313-.308.09-.09a.127.127 0 0 0 0-.176.12.12 0 0 0-.09-.039m0 0" style="stroke:none;fill-rule:nonzero;fill:#424242;fill-opacity:1"/></g><g id="w" clip-path="url(#d)"><path d="m8.48 5.547.079.078-.09.09.133.133 3.89 3.879.055.054h.176l.078.078-.442.442-.078-.074v-.18l-.054-.055-3.891-3.879-.133-.133-.086.09-.078-.078a.1.1 0 0 1 .02-.039l.382-.383q.017-.02.04-.023m-.586-.621a.14.14 0 0 0-.09.035l-.004.008a.1.1 0 0 0-.063-.016.12.12 0 0 0-.086.031l-.175.18a.124.124 0 0 0-.02.145l-.004.007a.127.127 0 0 0 0 .176.14.14 0 0 0 .09.035.14.14 0 0 0 .09-.035l.086-.09.312.313-.105.101a.25.25 0 0 0-.07.176v.074h-.004l.175.176a.14.14 0 0 0 .09.035.14.14 0 0 0 .09-.035l3.89 3.883v.176l.176.176a.12.12 0 0 0 .086.035.12.12 0 0 0 .09-.035l.531-.532a.127.127 0 0 0 0-.175l-.175-.176h-.176l-3.895-3.88a.12.12 0 0 0 0-.175l-.175-.18v.004h-.075a.26.26 0 0 0-.175.074l-.102.102-.312-.309.09-.09a.127.127 0 0 0-.09-.214m0 0" style="stroke:none;fill-rule:nonzero;fill:#424242;fill-opacity:1"/></g><g id="y" clip-path="url(#e)"><path d="m9.465 4.566.078.075-.09.09.133.132 3.89 3.88.055.054h.176l.078.078-.441.441-.078-.074v-.176l-.055-.054-3.89-3.883-.133-.133-.086.086-.079-.074q.001-.023.02-.04l.383-.386a.1.1 0 0 1 .039-.016m-.586-.625a.12.12 0 0 0-.086.036l-.008.007a.1.1 0 0 0-.062-.02A.11.11 0 0 0 8.64 4l-.18.176a.124.124 0 0 0-.016.148l-.008.004a.13.13 0 0 0 0 .18.14.14 0 0 0 .09.035.14.14 0 0 0 .09-.035l.086-.09.313.312-.102.102a.23.23 0 0 0-.074.176v.07l-.004.004.18.176a.12.12 0 0 0 .086.035.12.12 0 0 0 .09-.035l3.89 3.883v.175l.176.176a.12.12 0 0 0 .09.035.12.12 0 0 0 .086-.035l.53-.531a.12.12 0 0 0 0-.176l-.175-.176h-.176L9.72 4.73a.12.12 0 0 0 0-.175l-.176-.176h-.07a.24.24 0 0 0-.176.074l-.106.102-.312-.309.09-.09a.127.127 0 0 0 0-.176.12.12 0 0 0-.09-.039m0 0" style="stroke:none;fill-rule:nonzero;fill:#424242;fill-opacity:1"/></g><g id="A" clip-path="url(#f)"><path d="M5.617 12.836c.23-1.395.457-2.238 1.457-3.238l7.004-6.914a.186.186 0 0 0 .004-.266l-.504-.5a.185.185 0 0 0-.262-.004L6.31 8.832c-1 1-1.844 1.227-3.239 1.457-.789.129-2.402-.223-2.445-.219l2.797 2.801 2.504 2.504c.023.035-.438-1.75-.309-2.54m0 0" style="stroke:none;fill-rule:nonzero;fill:url(#g)"/></g><g id="C" clip-path="url(#h)"><path d="m13.445 2.313.239.238-6.875 6.781c-1.11 1.11-1.34 2.086-1.563 3.441q-.076.496.074 1.465l-3.613-3.617c.363.047.68.07.941.07q.278 0 .485-.035c1.355-.222 2.328-.449 3.437-1.554zm.004-.449a.17.17 0 0 0-.133.055L6.31 8.832c-1 1-1.844 1.227-3.239 1.457-.12.02-.265.027-.422.027-.445 0-.976-.07-1.382-.136L.89 9.809a.246.246 0 0 0-.352 0 .12.12 0 0 0 0 .175l5.477 5.48a.14.14 0 0 0 .09.036.12.12 0 0 0 .09-.035.25.25 0 0 0 0-.356l-.407-.406c-.117-.582-.246-1.402-.168-1.871.227-1.395.453-2.234 1.453-3.234l7.008-6.914a.186.186 0 0 0 0-.266l-.207-.207-.297-.293a.17.17 0 0 0-.129-.055m0 0" style="stroke:none;fill-rule:nonzero;fill:#424242;fill-opacity:1"/></g><g id="F" clip-path="url(#i)"><path d="M12.8 3.629h.016c.489.004.946.2 1.29.543.34.348.523.808.519 1.297s-.2.945-.543 1.289l-4.918 4.847c-.34.336-.797.52-1.277.52h-.02a1.82 1.82 0 0 1-1.808-1.84c.003-.488.199-.945.546-1.289l4.915-4.848c.343-.335.796-.52 1.28-.52m-4.913 7.99c.347 0 .676-.134.922-.38l4.918-4.847c.25-.246.39-.575.394-.926 0-.356-.133-.688-.379-.938a1.3 1.3 0 0 0-.93-.39h-.011c-.348 0-.676.133-.922.379L6.96 9.359a1.3 1.3 0 0 0-.395.93 1.314 1.314 0 0 0 1.305 1.328zM12.8 3.254c-.582 0-1.13.223-1.543.629L6.34 8.73c-.418.41-.649.961-.652 1.551-.008.59.218 1.145.628 1.563s.961.652 1.551.656h.02c.582 0 1.129-.223 1.539-.629l4.918-4.851c.418-.41.648-.961.656-1.551a2.2 2.2 0 0 0-.629-1.563 2.18 2.18 0 0 0-1.55-.652zm-4.914 7.988h-.012a.943.943 0 0 1-.652-1.613L12.14 4.78a.92.92 0 0 1 .66-.27h.008c.254 0 .488.102.664.282a.94.94 0 0 1-.012 1.332l-4.914 4.848a.93.93 0 0 1-.66.27m0 0" style="stroke:none;fill-rule:nonzero;fill:#424242;fill-opacity:1"/></g><filter id="a" width="100%" height="100%" x="0%" y="0%" filterUnits="objectBoundingBox"><feColorMatrix in="SourceGraphic" values="0 0 0 0 1 0 0 0 0 1 0 0 0 0 1 0 0 0 1 0"/></filter></defs><path d="m13.844 1.613.543.543-.375.375-.54-.543Zm0 0" style="stroke:none;fill-rule:nonzero;fill:#e0e0e0;fill-opacity:1"/><path d="M15.172 1.906 14.094.828a.19.19 0 0 1 0-.273.19.19 0 0 1 .27 0l1.081 1.082a.19.19 0 0 1 0 .27.196.196 0 0 1-.273 0m0 0" style="stroke:none;fill-rule:nonzero;fill:#ffa000;fill-opacity:1"/><path d="M15.172 1.906 14.094.828s-.262.281-.27.813l.54.535c.562.011.808-.27.808-.27m0 0" style="stroke:none;fill-rule:nonzero;fill:url(#j)"/><path d="m6.988 6.113-.351.356-.145-.145a.127.127 0 0 1 0-.176l.176-.175a.12.12 0 0 1 .176 0Zm0 0" style="stroke:none;fill-rule:nonzero;fill:#bdbdbd;fill-opacity:1"/><path d="m6.637 6.29.176-.177.699.7-.176.18Zm0 0" style="stroke:none;fill-rule:nonzero;fill:#bdbdbd;fill-opacity:1"/><path d="m7.75 6.695 3.941 3.934-.53.531-3.942-3.933Zm0 0" style="stroke:none;fill-rule:nonzero;fill:url(#k)"/><path d="m11.996 10.934-.531.527a.12.12 0 0 1-.176 0l-.176-.176.707-.707.176.176a.13.13 0 0 1 0 .18m0 0" style="stroke:none;fill-rule:nonzero;fill:#e0e0e0;fill-opacity:1"/><path d="m11.82 10.578-.71.711v-.18l.53-.53Zm0 0" style="stroke:none;fill-rule:nonzero;fill:#bdbdbd;fill-opacity:1"/><path d="m7.75 6.7-.527.53a.127.127 0 0 1-.176 0l-.18-.18.711-.706.176.176a.13.13 0 0 1-.004.18m0 0" style="stroke:none;fill-rule:nonzero;fill:#e0e0e0;fill-opacity:1"/><path d="m7.574 6.348-.707.707V6.98c0-.066.028-.128.074-.175l.383-.383a.23.23 0 0 1 .176-.074Zm0 0" style="stroke:none;fill-rule:nonzero;fill:#eee;fill-opacity:1"/><path d="m7 6.125-.355.352a.12.12 0 0 1-.176 0 .127.127 0 0 1 0-.176l.355-.352a.12.12 0 0 1 .176 0 .127.127 0 0 1 0 .176m0 0" style="stroke:none;fill-rule:nonzero;fill:#e0e0e0;fill-opacity:1"/><path d="m7.973 5.129-.352.355-.144-.144a.12.12 0 0 1 0-.176l.175-.176a.12.12 0 0 1 .176 0Zm0 0" style="stroke:none;fill-rule:nonzero;fill:#bdbdbd;fill-opacity:1"/><path d="m7.621 5.309.176-.18.7.703-.177.176Zm0 0" style="stroke:none;fill-rule:nonzero;fill:#bdbdbd;fill-opacity:1"/><path d="m8.734 5.71 3.942 3.935-.531.53-3.942-3.933Zm0 0" style="stroke:none;fill-rule:nonzero;fill:url(#l)"/><path d="m12.98 9.95-.53.53a.127.127 0 0 1-.177 0l-.175-.18.707-.706.175.176a.13.13 0 0 1 0 .18m0 0" style="stroke:none;fill-rule:nonzero;fill:#e0e0e0;fill-opacity:1"/><path d="m12.805 9.598-.707.707v-.18l.527-.527Zm0 0" style="stroke:none;fill-rule:nonzero;fill:#bdbdbd;fill-opacity:1"/><path d="m8.734 5.715-.53.527a.12.12 0 0 1-.177 0l-.175-.176.707-.707.175.176c.051.05.051.13 0 .18m0 0" style="stroke:none;fill-rule:nonzero;fill:#e0e0e0;fill-opacity:1"/><path d="m8.559 5.36-.707.71v-.074c0-.066.027-.133.074-.176l.383-.386a.25.25 0 0 1 .175-.075Zm0 0" style="stroke:none;fill-rule:nonzero;fill:#eee;fill-opacity:1"/><path d="m7.984 5.14-.355.352a.12.12 0 0 1-.176 0 .127.127 0 0 1 0-.176l.356-.355a.127.127 0 0 1 .175 0 .13.13 0 0 1 0 .18m0 0" style="stroke:none;fill-rule:nonzero;fill:#e0e0e0;fill-opacity:1"/><path d="m8.957 4.145-.352.355-.144-.145a.127.127 0 0 1 0-.175l.176-.176a.12.12 0 0 1 .175 0Zm0 0" style="stroke:none;fill-rule:nonzero;fill:#bdbdbd;fill-opacity:1"/><path d="m8.605 4.32.176-.175.7.699-.176.18Zm0 0" style="stroke:none;fill-rule:nonzero;fill:#bdbdbd;fill-opacity:1"/><path d="M9.719 4.727 13.66 8.66l-.531.531-3.941-3.933Zm0 0" style="stroke:none;fill-rule:nonzero;fill:url(#m)"/><path d="m13.965 8.965-.531.527a.12.12 0 0 1-.176 0l-.176-.176.707-.707.176.176a.13.13 0 0 1 0 .18m0 0" style="stroke:none;fill-rule:nonzero;fill:#e0e0e0;fill-opacity:1"/><path d="m13.79 8.61-.712.71v-.18l.531-.53Zm0 0" style="stroke:none;fill-rule:nonzero;fill:#bdbdbd;fill-opacity:1"/><path d="m9.719 4.73-.528.532a.127.127 0 0 1-.175 0l-.18-.18.71-.707.177.176a.13.13 0 0 1-.004.18m0 0" style="stroke:none;fill-rule:nonzero;fill:#e0e0e0;fill-opacity:1"/><path d="m9.543 4.379-.707.707v-.074c0-.067.027-.13.074-.176l.383-.383a.23.23 0 0 1 .176-.074Zm0 0" style="stroke:none;fill-rule:nonzero;fill:#eee;fill-opacity:1"/><path d="m8.969 4.156-.356.352a.12.12 0 0 1-.175 0 .127.127 0 0 1 0-.176l.355-.352a.12.12 0 0 1 .176 0 .127.127 0 0 1 0 .176m0 0" style="stroke:none;fill-rule:nonzero;fill:#e0e0e0;fill-opacity:1"/><use xlink:href="#o" mask="url(#n)"/><path d="M5.617 12.836c.23-1.395.457-2.238 1.457-3.238l7.004-6.914a.186.186 0 0 0 .004-.266l-.504-.5a.185.185 0 0 0-.262-.004L6.31 8.832c-1 1-1.844 1.227-3.239 1.457-.789.129-2.402-.223-2.445-.219l2.797 2.801 2.504 2.504c.023.035-.438-1.75-.309-2.54m0 0" style="stroke:none;fill-rule:nonzero;fill:url(#p)"/><path d="m6.016 15.465-5.48-5.48a.127.127 0 0 1 0-.176.25.25 0 0 1 .355 0l5.304 5.3a.25.25 0 0 1 0 .356.13.13 0 0 1-.18 0m0 0" style="stroke:none;fill-rule:nonzero;fill:#ffa000;fill-opacity:1"/><path d="m8.5 7.445 2.191 2.184-.53.531-2.192-2.183Zm0 0" style="stroke:none;fill-rule:nonzero;fill:url(#q)"/><path d="m9.734 6.71 1.942 1.935-.531.53-1.942-1.933Zm0 0" style="stroke:none;fill-rule:nonzero;fill:url(#r)"/><path d="M10.719 5.727 12.66 7.66l-.531.531-1.941-1.933Zm0 0" style="stroke:none;fill-rule:nonzero;fill:url(#s)"/><use xlink:href="#u" mask="url(#t)"/><use xlink:href="#w" mask="url(#v)"/><use xlink:href="#y" mask="url(#x)"/><use xlink:href="#A" mask="url(#z)"/><use xlink:href="#C" mask="url(#B)"/><path d="M14.371 3.91a2.19 2.19 0 0 0-1.55-.656 2.2 2.2 0 0 0-1.563.629L6.34 8.73c-.418.41-.649.961-.652 1.551-.008.59.218 1.145.628 1.563s.961.652 1.551.656a2.2 2.2 0 0 0 1.563-.629l4.914-4.848c.418-.414.652-.96.656-1.55a2.2 2.2 0 0 0-.629-1.563m-.91 2.215-4.914 4.848a.94.94 0 0 1-.672.27.943.943 0 0 1-.652-1.613L12.14 4.78a.92.92 0 0 1 .668-.27c.254 0 .488.102.664.282a.94.94 0 0 1-.012 1.332m0 0" style="stroke:none;fill-rule:nonzero;fill:url(#D)"/><use xlink:href="#F" mask="url(#E)"/></svg>