<svg xmlns="http://www.w3.org/2000/svg" xmlns:xlink="http://www.w3.org/1999/xlink" width="16pt" height="16pt" viewBox="0 0 16 16"><defs><radialGradient id="h" cx="39.873" cy="60.84" r="42.895" fx="39.873" fy="60.84" gradientTransform="rotate(15.23 6.528 16.976)scale(.13062 .125)" gradientUnits="userSpaceOnUse"><stop offset=".228" style="stop-color:#00eccc;stop-opacity:1"/><stop offset="1" style="stop-color:#00ccb1;stop-opacity:1"/></radialGradient><radialGradient id="i" cx="-133.62" cy="-125.32" r="3.642" fx="-133.62" fy="-125.32" gradientTransform="matrix(.09459 .08173 -.0611 .07071 7.029 24.27)" gradientUnits="userSpaceOnUse"><stop offset=".065" style="stop-color:#00eccc;stop-opacity:1"/><stop offset=".252" style="stop-color:#00e7c7;stop-opacity:1"/><stop offset=".481" style="stop-color:#00d8bb;stop-opacity:1"/><stop offset=".732" style="stop-color:#00bfa5;stop-opacity:1"/><stop offset=".997" style="stop-color:#009c87;stop-opacity:1"/><stop offset="1" style="stop-color:#009c87;stop-opacity:1"/></radialGradient><radialGradient id="j" cx="-120.13" cy="-123.57" r="3.642" fx="-120.13" fy="-123.57" gradientTransform="matrix(.09459 .08173 -.0611 .07071 7.1 24.207)" gradientUnits="userSpaceOnUse"><stop offset=".065" style="stop-color:#00eccc;stop-opacity:1"/><stop offset=".252" style="stop-color:#00e7c7;stop-opacity:1"/><stop offset=".481" style="stop-color:#00d8bb;stop-opacity:1"/><stop offset=".732" style="stop-color:#00bfa5;stop-opacity:1"/><stop offset=".997" style="stop-color:#009c87;stop-opacity:1"/><stop offset="1" style="stop-color:#009c87;stop-opacity:1"/></radialGradient><radialGradient id="k" cx="-23.659" cy="-46.43" r="3.642" fx="-23.659" fy="-46.43" gradientTransform="matrix(.10743 .06391 -.04779 .08031 5.363 11.992)" gradientUnits="userSpaceOnUse"><stop offset=".065" style="stop-color:#00eccc;stop-opacity:1"/><stop offset=".252" style="stop-color:#00e7c7;stop-opacity:1"/><stop offset=".481" style="stop-color:#00d8bb;stop-opacity:1"/><stop offset=".732" style="stop-color:#00bfa5;stop-opacity:1"/><stop offset=".997" style="stop-color:#009c87;stop-opacity:1"/><stop offset="1" style="stop-color:#009c87;stop-opacity:1"/></radialGradient><radialGradient id="l" cx="62.855" cy="43.713" r="3.642" fx="62.855" fy="43.713" gradientTransform="matrix(.11726 .04331 -.03238 .08766 1.37 1.115)" gradientUnits="userSpaceOnUse"><stop offset=".065" style="stop-color:#00eccc;stop-opacity:1"/><stop offset=".252" style="stop-color:#00e7c7;stop-opacity:1"/><stop offset=".481" style="stop-color:#00d8bb;stop-opacity:1"/><stop offset=".732" style="stop-color:#00bfa5;stop-opacity:1"/><stop offset=".997" style="stop-color:#009c87;stop-opacity:1"/><stop offset="1" style="stop-color:#009c87;stop-opacity:1"/></radialGradient><radialGradient id="m" cx="101.03" cy="77.59" r="3.642" fx="101.03" fy="77.59" gradientTransform="rotate(16.714 7.798 -2.274)scale(.125 .09345)" gradientUnits="userSpaceOnUse"><stop offset=".065" style="stop-color:#00eccc;stop-opacity:1"/><stop offset=".252" style="stop-color:#00e7c7;stop-opacity:1"/><stop offset=".481" style="stop-color:#00d8bb;stop-opacity:1"/><stop offset=".732" style="stop-color:#00bfa5;stop-opacity:1"/><stop offset=".997" style="stop-color:#009c87;stop-opacity:1"/><stop offset="1" style="stop-color:#009c87;stop-opacity:1"/></radialGradient><radialGradient id="n" cx="144.19" cy="135.63" r="3.642" fx="144.19" fy="135.63" gradientTransform="matrix(.1228 .02336 -.01746 .09181 -3.574 -7.378)" gradientUnits="userSpaceOnUse"><stop offset=".065" style="stop-color:#00eccc;stop-opacity:1"/><stop offset=".252" style="stop-color:#00e7c7;stop-opacity:1"/><stop offset=".481" style="stop-color:#00d8bb;stop-opacity:1"/><stop offset=".732" style="stop-color:#00bfa5;stop-opacity:1"/><stop offset=".997" style="stop-color:#009c87;stop-opacity:1"/><stop offset="1" style="stop-color:#009c87;stop-opacity:1"/></radialGradient><radialGradient id="o" cx="203.09" cy="351.7" r="3.642" fx="203.09" fy="351.7" gradientTransform="matrix(.1232 -.02113 .01579 .09211 -16.598 -19.889)" gradientUnits="userSpaceOnUse"><stop offset=".065" style="stop-color:#00eccc;stop-opacity:1"/><stop offset=".252" style="stop-color:#00e7c7;stop-opacity:1"/><stop offset=".481" style="stop-color:#00d8bb;stop-opacity:1"/><stop offset=".732" style="stop-color:#00bfa5;stop-opacity:1"/><stop offset=".997" style="stop-color:#009c87;stop-opacity:1"/><stop offset="1" style="stop-color:#009c87;stop-opacity:1"/></radialGradient><radialGradient id="p" cx="59.093" cy="42.536" r="35.889" fx="59.093" fy="42.536" gradientTransform="matrix(.11186 .05577 -.0538 .10791 3.493 -2.643)" gradientUnits="userSpaceOnUse"><stop offset="0" style="stop-color:#78ffec;stop-opacity:1"/><stop offset=".094" style="stop-color:#73feeb;stop-opacity:1"/><stop offset=".21" style="stop-color:#64fce7;stop-opacity:1"/><stop offset=".338" style="stop-color:#4af8e0;stop-opacity:1"/><stop offset=".472" style="stop-color:#28f2d7;stop-opacity:1"/><stop offset=".6" style="stop-color:#00eccc;stop-opacity:1"/><stop offset="1" style="stop-color:#00ccb1;stop-opacity:1"/></radialGradient><clipPath id="f"><path d="M0 4h16v6H0Zm0 0"/></clipPath><clipPath id="g"><path d="M15.48 8.45c.024-.59-2.835-3.009-2.835-3.009l-8.122-2.21S.843 3.866.566 4.386C.29 4.91.66 7.164 7.332 8.98c6.672 1.817 8.121.06 8.148-.53m0 0"/></clipPath><clipPath id="b"><path d="M0 0h16v16H0z"/></clipPath><clipPath id="c"><path d="M0 0h16v16H0z"/></clipPath><linearGradient id="d" x1="70.948" x2="45.394" y1="66.12" y2="121.49" gradientTransform="rotate(-4.199 10.97 7.291)scale(.10978 .11612)" gradientUnits="userSpaceOnUse"><stop offset="0" style="stop-color:#00eccc;stop-opacity:1"/><stop offset=".109" style="stop-color:#0aeecf;stop-opacity:.85098"/><stop offset=".29" style="stop-color:#24f2d5;stop-opacity:.6"/><stop offset=".522" style="stop-color:#4df8e1;stop-opacity:.282353"/><stop offset=".726" style="stop-color:#78ffec;stop-opacity:0"/><stop offset="1" style="stop-color:#78ffec;stop-opacity:0"/></linearGradient><linearGradient id="e" x1="1.273" x2="125.07" y1="55.48" y2="55.48" gradientTransform="rotate(15.23 7.878 6.88)scale(.125)" gradientUnits="userSpaceOnUse"><stop offset="0" style="stop-color:#8690bb;stop-opacity:1"/><stop offset=".265" style="stop-color:#6e76a6;stop-opacity:1"/><stop offset=".665" style="stop-color:#b0bee1;stop-opacity:1"/><stop offset=".884" style="stop-color:#6e76a6;stop-opacity:1"/><stop offset="1" style="stop-color:#8a90b3;stop-opacity:1"/></linearGradient><mask id="q"><g filter="url(#a)"><path d="M0 0h16v16H0z" style="fill:#000;fill-opacity:.478431;stroke:none"/></g></mask><mask id="s"><g filter="url(#a)"><path d="M0 0h16v16H0z" style="fill:#000;fill-opacity:.2;stroke:none"/></g></mask><g id="r" clip-path="url(#b)"><path d="M9.781 1.922q.155.033.344.11a3.4 3.4 0 0 1 .816.48q.207.158.407.363a3.6 3.6 0 0 1 .66.95 3.1 3.1 0 0 1 .289 1.179c.008.207-.008.426-.043.644 0 0 0-.046-.02-.14a2.3 2.3 0 0 0-.101-.395 3.2 3.2 0 0 0-.274-.601 4.2 4.2 0 0 0-.933-1.114 9 9 0 0 0-.496-.394c-.176-.129-.36-.254-.535-.371s-.348-.227-.493-.324a4 4 0 0 1-.355-.25q-.131-.112-.121-.168c.011-.04.078-.063.215-.063.14.004.347.031.64.094m0 0" style="stroke:none;fill-rule:nonzero;fill:#dcfffa;fill-opacity:1"/></g><g id="t" clip-path="url(#c)"><path d="M8.043 1.332c.062 0 .129 0 .191.004 1.04.05 2.047.422 2.836 1.043.825.652 1.32 1.5 1.446 2.453l.004.059c.03.222.062.476.007.632a.37.37 0 0 0 .11.407c1.59 1.379 2.394 2.273 2.484 2.539-.023.113-.156.383-.516.656-.324.246-.933.57-1.984.7a.37.37 0 0 0-.23.12l-.008.008a.9.9 0 0 1-.211.145.372.372 0 0 0-.34-.219h-.008q-.094.005-.199.004c-1.145 0-2.5-.203-4.023-.602a.377.377 0 0 0-.375.113.37.37 0 0 0-.262-.289c-1.59-.46-2.902-1.015-3.91-1.644a.36.36 0 0 0-.383-.008c-.016.008-.031.02-.043.027a.8.8 0 0 1-.094-.214.37.37 0 0 0-.144-.27C1.066 5.97.836 5.031.906 4.633a.1.1 0 0 0 .008-.031c.223-.192 1.457-.567 3.441-.934a.38.38 0 0 0 .297-.293c.035-.164.192-.363.328-.54l.036-.042c.714-.93 1.816-1.461 3.027-1.461m0-.375c-1.324 0-2.543.594-3.324 1.606-.172.222-.375.468-.43.734-.844.156-3.465.676-3.7 1.113a.5.5 0 0 0-.05.164c-.086.473.133 1.559 1.617 2.719.004.02.004.043.012.066.098.368.504.844.629.844.02 0 .035-.012.035-.043.012-.148.027-.234.023-.383.938.59 2.23 1.176 4.004 1.688.02.195.121.46.274.46h.004c.093-.003.191-.113.258-.171a1 1 0 0 0 .113-.11c1.691.446 3.043.614 4.117.614h.207c-.066.105-.094.187-.156.308-.024.047.008.07.074.07.188 0 .672-.187.906-.421.004-.004.008-.012.016-.016 2.078-.254 2.75-1.25 2.824-1.668q.005-.035.004-.058c.023-.493-1.953-2.246-2.617-2.825.09-.257.039-.582.004-.859-.282-2.21-2.399-3.719-4.633-3.828-.07-.004-.145-.004-.211-.004m0 0" style="stroke:none;fill-rule:nonzero;fill:#424242;fill-opacity:1"/></g><filter id="a" width="100%" height="100%" x="0%" y="0%" filterUnits="objectBoundingBox"><feColorMatrix in="SourceGraphic" values="0 0 0 0 1 0 0 0 0 1 0 0 0 0 1 0 0 0 1 0"/></filter></defs><path d="M3.867 6.559.797 12.69s9.68 3.164 9.633 3.016 1.277-6.555 1.277-6.555Zm0 0" style="stroke:none;fill-rule:nonzero;fill:url(#d)"/><path d="M15.48 8.45c.024-.59-2.835-3.009-2.835-3.009l-8.122-2.21S.843 3.866.566 4.386c-.277.523 0 3.351 6.672 5.168 6.676 1.816 8.215-.516 8.242-1.106m0 0" style="stroke:none;fill-rule:nonzero;fill:url(#e)"/><path d="M12.766 5.055c-.254-2.274-2.34-3.805-4.563-3.89a4.2 4.2 0 0 0-3.531 1.687c-.266.359-.621.789-.36 1.246.31.547 1.043.914 1.586 1.18 1.43.69 3.02 1.124 4.606 1.253.601.047 1.402.098 1.945-.218.457-.262.367-.813.317-1.258m0 0" style="stroke:none;fill-rule:nonzero;fill:#505c70;fill-opacity:1"/><g clip-path="url(#f)"><g clip-path="url(#g)"><path d="M7.402 8.734C3.382 7.641.414 5.614.61 4.133a1 1 0 0 0-.046.133C.16 5.754 3.188 7.87 7.332 9c4.14 1.129 7.828.836 8.234-.652.012-.043.02-.09.028-.133-.582 1.37-4.172 1.613-8.192.52m0 0" style="stroke:none;fill-rule:nonzero;fill:url(#h)"/></g></g><path d="M2.422 4.77c-.082.117-.305.101-.496-.036-.192-.14-.278-.343-.196-.46.086-.118.31-.102.5.038.192.137.278.344.192.458m0 0" style="stroke:none;fill-rule:nonzero;fill:url(#i)"/><path d="M3.664 5.934c-.086.117-.309.101-.5-.04-.191-.136-.277-.343-.191-.457.082-.117.304-.101.496.04.191.136.277.343.195.457m0 0" style="stroke:none;fill-rule:nonzero;fill:url(#j)"/><path d="M5.457 6.965c-.062.129-.285.152-.496.05-.211-.105-.332-.292-.27-.421.063-.13.286-.149.497-.047.21.101.332.289.269.418m0 0" style="stroke:none;fill-rule:nonzero;fill:url(#k)"/><path d="M7.773 7.8c-.035.141-.25.204-.476.141-.23-.062-.383-.222-.344-.363.035-.137.25-.2.477-.137.23.059.383.223.343.36m0 0" style="stroke:none;fill-rule:nonzero;fill:url(#l)"/><path d="M10.145 8.344c-.032.14-.243.215-.473.168s-.39-.2-.363-.34.238-.215.468-.168c.235.047.395.2.368.34m0 0" style="stroke:none;fill-rule:nonzero;fill:url(#m)"/><path d="M12.23 8.5c-.015.145-.214.238-.449.219-.234-.024-.414-.16-.398-.301.012-.145.215-.242.449-.219.234.024.41.16.398.301m0 0" style="stroke:none;fill-rule:nonzero;fill:url(#n)"/><path d="M14.434 8.11c.039.136-.118.296-.344.359-.23.058-.445-.004-.48-.145-.036-.136.12-.3.347-.36.227-.058.441.005.477.145m0 0" style="stroke:none;fill-rule:nonzero;fill:url(#o)"/><path d="M12.863 4.766C12.582 2.555 10.465 1.046 8.23.94A4.19 4.19 0 0 0 4.695 2.54c-.27.348-.617.758-.351 1.207.316.531 1.062.899 1.61 1.16a13.7 13.7 0 0 0 4.648 1.266c.605.05 1.414.11 1.957-.192.453-.25.359-.78.304-1.214m0 0" style="stroke:none;fill-rule:nonzero;fill:url(#p)"/><use xlink:href="#r" mask="url(#q)"/><path d="m2.332 7.172.32.238c.055.047.164.121.172.195.024.254 0 .336-.015.532-.016.21-.551-.371-.664-.801-.047-.176.05-.281.187-.164M12.555 9.953l-.395.043c-.074.012-.207.024-.25.082-.144.207-.172.29-.258.465-.093.191.664-.04.98-.352.13-.125.102-.27-.077-.238M7.555 9.398c-.043-.082-.164-.14-.23-.168a.55.55 0 0 0-.43-.003.1.1 0 0 0-.055.062c-.043.16.07.621.273.613.09-.004.192-.113.258-.172.074-.062.164-.144.191-.242a.14.14 0 0 0-.007-.09m0 0" style="stroke:none;fill-rule:nonzero;fill:#a3b0d6;fill-opacity:1"/><use xlink:href="#t" mask="url(#s)"/></svg>