<svg xmlns="http://www.w3.org/2000/svg" width="16pt" height="16pt" viewBox="0 0 16 16"><defs><linearGradient id="a" x1="64" x2="64" y1="19.717" y2="107.7" gradientTransform="scale(.125)" gradientUnits="userSpaceOnUse"><stop offset=".5" style="stop-color:#fee133;stop-opacity:1"/><stop offset=".612" style="stop-color:#fede32;stop-opacity:1"/><stop offset=".708" style="stop-color:#fcd32f;stop-opacity:1"/><stop offset=".797" style="stop-color:#fac12b;stop-opacity:1"/><stop offset=".883" style="stop-color:#f7a924;stop-opacity:1"/><stop offset=".9" style="stop-color:#f6a323;stop-opacity:1"/></linearGradient></defs><path d="M8 14.984C4.508 14.984.75 12.801.75 8 .75 3.2 4.508 1.016 8 1.016c1.934 0 3.727.636 5.047 1.8C14.488 4.09 15.25 5.883 15.25 8c0 2.11-.762 3.895-2.203 5.172C11.723 14.344 9.93 14.984 8 14.984m0 0" style="stroke:none;fill-rule:nonzero;fill:url(#a)"/><path d="M8 1.266c1.875 0 3.61.617 4.879 1.738C14.266 4.23 15 5.957 15 8c0 2.035-.734 3.758-2.121 4.984-1.277 1.13-3.008 1.75-4.879 1.75-1.879 0-3.613-.613-4.879-1.726C1.734 11.789 1 10.058 1 8c0-2.066.734-3.8 2.121-5.02C4.383 1.875 6.117 1.266 8 1.266m0-.5C4.105.766.5 3.266.5 8c0 4.71 3.605 7.234 7.5 7.234s7.5-2.59 7.5-7.234C15.5 3.328 11.895.766 8 .766m0 0" style="stroke:none;fill-rule:nonzero;fill:#eb8f00;fill-opacity:1"/><path d="M75.656 20.906h-.125c-2.187-.125-2.687-3.281-.25-3.656a20.5 20.5 0 0 1 5.844.156c5.5.969 10.219 4.063 13.094 8 1.406 2-1.219 3.875-2.813 2.344-4.094-3.812-9.719-6.375-15.75-6.844ZM31.688 31.188c-.063 0-.094 0-.125.03-2.188.407-2.22 3.626.218 3.657a20 20 0 0 0 5.813-.969c5.281-1.687 9.562-5.406 11.875-9.687 1.125-2.188-1.75-3.657-3.125-1.938-3.532 4.344-8.75 7.657-14.657 8.907Zm0 0" style="fill-rule:nonzero;fill:#eb8f00;fill-opacity:1;stroke-width:1;stroke-linecap:butt;stroke-linejoin:miter;stroke:#eb8f00;stroke-opacity:1;stroke-miterlimit:10" transform="scale(.125)"/><path d="M5.027 8.89a2.29 2.29 0 0 1-2.285-2.285A2.29 2.29 0 0 1 5.027 4.32a2.29 2.29 0 0 1 2.286 2.285 2.29 2.29 0 0 1-2.286 2.286m0 0" style="stroke:none;fill-rule:nonzero;fill:#fff;fill-opacity:1"/><path d="M5.027 4.555c1.13 0 2.051.922 2.051 2.05a2.049 2.049 0 1 1-2.05-2.05m0-.47a2.52 2.52 0 0 0 0 5.04 2.52 2.52 0 0 0 0-5.04m0 0" style="stroke:none;fill-rule:nonzero;fill:#eb8f00;fill-opacity:1"/><path d="M5.723 5.012c-.407-.059-.836.308-.938 1-.101.695.211 1.164.617 1.222.407.063.836-.304.938-1 .101-.691-.211-1.164-.617-1.222m0 0" style="stroke:none;fill-rule:nonzero;fill:#242424;fill-opacity:1"/><path d="M7.254 5.875c-.121-.844-1.07-1.496-2.227-1.496s-2.105.656-2.226 1.496Zm0 0" style="stroke:none;fill-rule:nonzero;fill:#eb8f00;fill-opacity:1"/><path d="M11.027 9.027a2.172 2.172 0 1 1 0-4.343 2.172 2.172 0 0 1 0 4.343m0 0" style="stroke:none;fill-rule:nonzero;fill:#fff;fill-opacity:1"/><path d="M11.027 4.91a1.946 1.946 0 1 1 0 3.891 1.946 1.946 0 0 1 0-3.89m0-.45a2.395 2.395 0 1 0 0 4.789 2.395 2.395 0 0 0 0-4.79m0 0" style="stroke:none;fill-rule:nonzero;fill:#eb8f00;fill-opacity:1"/><path d="M9.328 5.93c-.164.207-.265.523-.258.922.02.73.41 1.16.828 1.148s.786-.46.766-1.191a1.8 1.8 0 0 0-.047-.368 23 23 0 0 1-1.289-.511m0 0" style="stroke:none;fill-rule:nonzero;fill:#242424;fill-opacity:1"/><path d="M32 90.781c.844 4.219 6.031 6 10.313 5.656 4.28-.312 8.5-1.937 12.75-1.312 2.187.344 4.312 1.281 6.53 1.094 4.22-.313 7.063-4.406 10.876-6.281 3.062-1.532 6.625-1.532 10.031-1.438 3.438.094 6.969.25 10.125-1 3.188-1.281 5.938-4.375 5.594-7.75M28.188 92.344c.843-2.563 3.312-4.531 6.03-4.75" style="fill:none;stroke-width:4.4377;stroke-linecap:round;stroke-linejoin:round;stroke:#242424;stroke-opacity:1;stroke-miterlimit:10" transform="scale(.125)"/><path d="M93.25 77.094c3.281.375 6.375 2.062 8.531 4.594" style="fill:none;stroke-width:4.4377;stroke-linecap:round;stroke-linejoin:round;stroke:#242424;stroke-opacity:1;stroke-miterlimit:10" transform="scale(.125)"/><path d="M13.07 7.21c.172-1.038-.441-2.058-1.449-2.339-1.012-.277-2.059.281-2.445 1.266Zm0 0" style="stroke:none;fill-rule:nonzero;fill:#eb8f00;fill-opacity:1"/></svg>