<svg xmlns="http://www.w3.org/2000/svg" width="16pt" height="16pt" viewBox="0 0 16 16"><defs><linearGradient id="a" x1="50.78" x2="50.78" y1="12.664" y2="42.954" gradientTransform="scale(.125)" gradientUnits="userSpaceOnUse"><stop offset=".067" style="stop-color:#e33299;stop-opacity:1"/><stop offset=".154" style="stop-color:#dc3a9d;stop-opacity:1"/><stop offset=".289" style="stop-color:#c951a9;stop-opacity:1"/><stop offset=".457" style="stop-color:#ab75bc;stop-opacity:1"/><stop offset=".651" style="stop-color:#80a8d6;stop-opacity:1"/><stop offset=".864" style="stop-color:#4be8f8;stop-opacity:1"/><stop offset=".907" style="stop-color:#3ff6ff;stop-opacity:1"/></linearGradient><linearGradient id="b" x1="68.721" x2="68.721" y1="4.988" y2="124.55" gradientTransform="scale(.125)" gradientUnits="userSpaceOnUse"><stop offset=".214" style="stop-color:#fff;stop-opacity:1"/><stop offset=".378" style="stop-color:#f6f6f6;stop-opacity:1"/><stop offset=".649" style="stop-color:#ddd;stop-opacity:1"/><stop offset=".993" style="stop-color:#b4b4b4;stop-opacity:1"/><stop offset="1" style="stop-color:#b3b3b3;stop-opacity:1"/></linearGradient><linearGradient id="c" x1="37.439" x2="50.338" y1="15.386" y2="32.772" gradientTransform="scale(.125)" gradientUnits="userSpaceOnUse"><stop offset="0" style="stop-color:#fff;stop-opacity:1"/><stop offset=".138" style="stop-color:#fffbfd;stop-opacity:1"/><stop offset=".283" style="stop-color:#fdeef9;stop-opacity:1"/><stop offset=".43" style="stop-color:#fbd9f0;stop-opacity:1"/><stop offset=".579" style="stop-color:#f8bce5;stop-opacity:1"/><stop offset=".73" style="stop-color:#f496d7;stop-opacity:1"/><stop offset=".88" style="stop-color:#ef69c5;stop-opacity:1"/><stop offset="1" style="stop-color:#ea3fb5;stop-opacity:1"/></linearGradient><linearGradient id="d" x1="43.472" x2="55.148" y1="22.196" y2="37.934" gradientTransform="scale(.125)" gradientUnits="userSpaceOnUse"><stop offset="0" style="stop-color:#fff;stop-opacity:1"/><stop offset=".167" style="stop-color:#fceaf3;stop-opacity:1"/><stop offset=".512" style="stop-color:#f5b4d2;stop-opacity:1"/><stop offset="1" style="stop-color:#ea5e9f;stop-opacity:1"/></linearGradient><linearGradient id="e" x1="31.471" x2="43.564" y1="7.621" y2="23.921" gradientTransform="scale(.125)" gradientUnits="userSpaceOnUse"><stop offset=".279" style="stop-color:#aff;stop-opacity:1"/><stop offset=".281" style="stop-color:#aafeff;stop-opacity:1"/><stop offset=".541" style="stop-color:#ceb1e4;stop-opacity:1"/><stop offset=".756" style="stop-color:#e978d1;stop-opacity:1"/><stop offset=".915" style="stop-color:#f955c5;stop-opacity:1"/><stop offset="1" style="stop-color:#ff48c0;stop-opacity:1"/></linearGradient><linearGradient id="g" x1="74.753" x2="134.73" y1="26.255" y2="102.2" gradientTransform="scale(.125)" gradientUnits="userSpaceOnUse"><stop offset="0" style="stop-color:#ff38ac;stop-opacity:1"/><stop offset=".457" style="stop-color:#ff069f;stop-opacity:1"/><stop offset=".513" style="stop-color:#ff009d;stop-opacity:1"/><stop offset=".699" style="stop-color:#c85bc1;stop-opacity:1"/><stop offset="1" style="stop-color:#6af4ff;stop-opacity:1"/></linearGradient><clipPath id="f"><path d="M9 2h6.5v12H9Zm0 0"/></clipPath><clipPath id="h"><path d="M8 2h7.5v12H8Zm0 0"/></clipPath></defs><path d="M1.68 8.77c-.586.675-.985 1.18-1.024 1.32-.219.777-.168 1.82.438 2.351.375.329 1.203.602 2.008.352.398-.125 1.171-.996 1.265-.98C3.965 10.426 3.035 9.14 1.68 8.77m0 0" style="stroke:none;fill-rule:nonzero;fill:#fff;fill-opacity:1"/><path d="M2.293 9.754c.168.043.281.219.289.394a.64.64 0 0 1-.191.473c-.141.156-.344.14-.399-.09-.027-.117.09-.273.063-.402-.032-.149-.473-.121-.2-.285.13-.074.293-.13.438-.09m0 0" style="stroke:none;fill-rule:nonzero;fill:#404040;fill-opacity:1"/><path d="M3.57 5.367a.64.64 0 0 1-.289-.066c-.265-.137-.437-.48-.437-.871 0-1.602 1.941-2.848 3.613-2.848.488 0 .902.11 1.211.316a.9.9 0 0 0 .523.188c.27 0 .457-.156.61-.285.101-.086.191-.164.273-.164.074 0 .254.074.59.574.238.36.254.742.047 1.133-.438.816-1.766 1.48-2.965 1.48-.523 0-1.254-.125-1.77-.715a.8.8 0 0 0-.59-.257.72.72 0 0 0-.6.304.47.47 0 0 0-.048.45.41.41 0 0 0 .395.269h.015q.01-.002.02-.004c.004.004.016.02.016.047a.3.3 0 0 1-.055.164.65.65 0 0 1-.559.285m0 0" style="stroke:none;fill-rule:nonzero;fill:url(#a)"/><path d="M6.457 1.77c.45 0 .828.097 1.102.285.214.148.421.218.628.218.34 0 .567-.191.735-.328a1 1 0 0 1 .152-.117c.035.016.168.094.43.484.203.301.215.61.039.942-.406.762-1.664 1.383-2.8 1.383-.481 0-1.157-.114-1.626-.649a.98.98 0 0 0-.73-.324.92.92 0 0 0-.754.383.65.65 0 0 0-.07.629.6.6 0 0 0 .37.351.48.48 0 0 1-.363.157.43.43 0 0 1-.203-.047c-.199-.106-.336-.39-.336-.707-.004-1.625 2.028-2.66 3.426-2.66m0-.375c-1.676 0-3.805 1.23-3.805 3.035 0 .422.184.851.543 1.039a.8.8 0 0 0 .375.086.84.84 0 0 0 .715-.375.46.46 0 0 0 .086-.282c-.008-.097-.07-.195-.164-.214-.047-.012-.098-.004-.144-.012-.16-.031-.227-.27-.125-.406a.53.53 0 0 1 .449-.227c.172 0 .343.074.449.195.48.547 1.18.778 1.906.778 1.895 0 3.996-1.528 3.074-2.907-.332-.5-.558-.656-.742-.656-.312 0-.5.453-.886.453-.118 0-.254-.043-.418-.156-.348-.238-.813-.351-1.313-.351m0 0" style="stroke:none;fill-rule:nonzero;fill:#d42da2;fill-opacity:1"/><path d="M8.992 3.508c.11-.84-.57-2.094-1.023-2.758a.291.291 0 0 0-.52.082c-.187.57-.476 1.465-.492 2.219C5.973 4.059 3.187 7.02 1.68 8.77c1.355.37 2.285 1.656 2.687 3.043.375.074 1.426.214 2.461-.16 1.238-.45 1.621-1.301 1.621-1.301l1.38 5.191H15.5v-5.168s-5.172-6.21-6.508-6.867m0 0" style="stroke:none;fill-rule:nonzero;fill:url(#b)"/><path d="M7.754 1.11c.512.773.996 1.75.918 2.343a.37.37 0 0 0 .215.387c.93.45 4.238 4.191 6.238 6.664v4.664h-4.98l-1.254-4.86a.375.375 0 0 0-.336-.28c-.008-.005-.02-.005-.028-.005-.152 0-.289.09-.347.23-.008.028-.301.657-1.371 1.04a4.1 4.1 0 0 1-1.41.227c-.41 0-.743-.051-.907-.082q-.035-.005-.07-.004c-.188 0-.297.097-.621.39-.196.18-.614.555-.781.606a1.9 1.9 0 0 1-.56.082c-.495 0-.929-.18-1.132-.36-.473-.406-.527-1.285-.34-1.953.024-.047.172-.289.965-1.195 1.57-1.79 4.305-4.727 5.274-5.7.07-.066.109-.16.109-.257.016-.652.258-1.453.418-1.938M7.727.613a.284.284 0 0 0-.27.207c-.191.57-.48 1.465-.496 2.223-1.004 1.004-3.75 3.965-5.29 5.715-.593.68-.995 1.18-1.038 1.324-.223.781-.168 1.824.449 2.355.277.239.8.45 1.379.45q.33 0 .672-.098c.402-.121 1.18-.98 1.289-.98.187.035.543.086.976.086.454 0 .997-.06 1.536-.25 1.261-.454 1.59-1.247 1.59-1.247l1.328 5.145H15.5v-5.176S10.41 4.157 9.047 3.5C9.16 2.66 8.422 1.41 7.96.746a.28.28 0 0 0-.234-.133m0 0" style="stroke:none;fill-rule:nonzero;fill:#a8a8a8;fill-opacity:1"/><path d="M3.512.723a.22.22 0 0 1-.008-.235.26.26 0 0 1 .215-.125.24.24 0 0 1 .172.075l.468.488.004.035c.016.203-.004.414-.015.621q-.011.09-.016.18l-.016.297Zm0 0" style="stroke:none;fill-rule:nonzero;fill:#aff;fill-opacity:1"/><path d="M3.719.457c.035 0 .074.016.105.047l.446.465c.015.254-.016.523-.032.789L3.59.676c-.067-.11.027-.219.129-.219m0-.187a.35.35 0 0 0-.297.175.32.32 0 0 0 .008.328l.648 1.079.309.511.039-.597.011-.176c.016-.207.032-.422.016-.637L4.45.887 4.402.836 3.961.375A.34.34 0 0 0 3.719.27m0 0" style="stroke:none;fill-rule:nonzero;fill:#999;fill-opacity:1"/><path d="M5.809 4.445a.09.09 0 0 1-.079-.043c-.214-.347-.523-.859-.847-1.394a.1.1 0 0 1-.012-.051c0-.184.008-.375.02-.559.007-.222.02-.449.015-.668 0-.039.024-.074.059-.09q.018-.004.035-.003.036 0 .066.027l.907.941c.015.016.027.04.027.063.012.348-.023.707-.05 1.055q-.035.327-.052.636a.09.09 0 0 1-.07.086zm0 0" style="stroke:none;fill-rule:nonzero;fill:url(#c)"/><path d="m5.004 1.73.906.942c.016.55-.078 1.137-.101 1.683-.211-.347-.524-.859-.844-1.394 0-.402.043-.824.039-1.23m0-.188a.3.3 0 0 0-.074.012.19.19 0 0 0-.114.175c0 .22-.011.442-.02.665-.007.183-.019.378-.019.562q-.001.054.028.098c.37.617.656 1.086.843 1.394.036.059.094.09.16.09q.024-.001.047-.008a.184.184 0 0 0 .137-.172c.012-.203.028-.41.047-.629.031-.351.066-.714.055-1.066 0-.047-.02-.09-.051-.121l-.906-.945a.2.2 0 0 0-.133-.055m0 0" style="stroke:none;fill-rule:nonzero;fill:#999;fill-opacity:1"/><path d="M6.3 4.969c-.167 0-.253-.07-.296-.13-.016-.019-.059-.089-.274-.437l-.015-.023v-.031c.012-.207.031-.43.05-.645.028-.344.063-.695.051-1.031L5.81 2.43l.168.175c.78.813 1.222 1.27 1.273 1.32a.27.27 0 0 1 .078.208c-.008.23-.266.476-.375.57-.18.156-.445.266-.652.266m0 0" style="stroke:none;fill-rule:nonzero;fill:url(#d)"/><path d="M5.91 2.672c.649.676 1.215 1.262 1.274 1.324.148.149-.047.43-.293.64-.16.137-.407.239-.59.239-.098 0-.176-.023-.223-.086a17 17 0 0 1-.27-.434c.024-.546.118-1.132.102-1.683m-.203-.477.016.48c.011.329-.02.68-.051 1.02-.02.215-.04.438-.05.649v.058l.026.047c.215.348.262.422.278.446.058.078.164.168.375.168.23 0 .515-.114.715-.286.148-.129.398-.382.406-.64a.37.37 0 0 0-.102-.274c-.054-.05-.48-.496-1.273-1.32Zm0 0" style="stroke:none;fill-rule:nonzero;fill:#999;fill-opacity:1"/><path d="M4.887 3.008c-.25-.41-.504-.836-.727-1.207l-.015-.024V1.75l.011-.184c.016-.199.032-.402.02-.593L4.16.719l.934.972v.036a10 10 0 0 1-.02.68 26 26 0 0 0-.02.554v.332Zm0 0" style="stroke:none;fill-rule:nonzero;fill:url(#e)"/><path d="M4.27.965c.203.21.457.476.73.765.008.407-.035.829-.035 1.23l-.727-1.206c.016-.262.047-.531.032-.79M4.05.47l.032.511c.012.184-.004.38-.016.583q-.01.089-.015.18l-.004.058.031.05.727 1.208.343.566.004-.664c0-.18.008-.367.02-.55.008-.224.02-.458.016-.684v-.075l-.051-.054-.735-.762Zm0 0" style="stroke:none;fill-rule:nonzero;fill:#999;fill-opacity:1"/><g clip-path="url(#f)"><path d="M15.379 13.535c-.582 0-1.227-.183-1.926-.539-1.543-.789-1.664-2.434-1.77-3.883-.074-.992-.136-1.847-.69-2.203-1.134-.715-1.837-2.129-1.84-3.027-.005-.274.058-.633.35-.824.196-.125.395-.18.661-.18.14 0 .285.016.457.039l.047.004c.148.02.332.043.516.043.363 0 .62-.09.793-.285a.7.7 0 0 0 .168-.38.6.6 0 0 1 .128.11c.145.152.243.38.235.535-.016.211-.133.383-.36.516a.19.19 0 0 0-.085.2.19.19 0 0 0 .156.148c.14.02.281.027.418.035.258.011.5.027.738.117.39.148.695.437.836.805.16.41.09.93-.164 1.175a.185.185 0 0 0-.016.247c.035.046.09.074.149.074a.2.2 0 0 0 .093-.024c.165-.097.356-.144.551-.144.336 0 .672.152.91.418.41.445.57 1.207.395 1.843a.19.19 0 0 0 .027.165c.035.046.09.074.149.074.707.011 1.398.367 1.902.976.152.18.137 1.172-.336 2.184-.312.668-1.05 1.781-2.492 1.781m0 0" style="stroke:none;fill-rule:nonzero;fill:url(#g)"/></g><g clip-path="url(#h)"><path d="M12.223 2.652a.55.55 0 0 1 .097.282c-.008.093-.043.238-.27.37a.38.38 0 0 0-.175.4c.035.155.16.273.32.292.149.02.29.027.43.035.254.016.473.028.684.106.336.129.601.383.726.699.13.336.074.781-.12.973a.375.375 0 0 0 .26.644c.063 0 .126-.02.184-.05.141-.079.301-.122.461-.122.285 0 .567.133.774.36.363.394.511 1.097.351 1.668a.37.37 0 0 0 .059.324c.07.094.176.148.293.152.648.012 1.289.34 1.758.902.097.188.074 1.282-.52 2.301-.36.621-1.027 1.36-2.156 1.36-.55 0-1.172-.176-1.84-.516-1.45-.746-1.566-2.332-1.668-3.734-.078-1.043-.144-1.942-.781-2.344-1.078-.684-1.75-2.02-1.754-2.871 0-.223.047-.524.27-.664a.95.95 0 0 1 .554-.153c.133 0 .27.016.438.04l.043.003c.152.02.343.047.543.047q.617-.001.93-.347a.8.8 0 0 0 .109-.157m-.235-.59q-.013-.001-.031.004c.016.18 0 .356-.125.493-.152.175-.398.222-.648.222-.192 0-.387-.031-.54-.05-.164-.02-.324-.04-.48-.04-.262 0-.512.047-.762.207-1.035.668-.125 3.149 1.489 4.172 1.199.758-.243 4.7 2.476 6.094.77.39 1.434.555 2.012.555 2.742 0 3.418-3.73 2.973-4.266-.54-.652-1.29-1.031-2.047-1.047.195-.699.02-1.527-.434-2.02a1.43 1.43 0 0 0-1.05-.48c-.223 0-.442.055-.645.168.324-.312.383-.922.207-1.375a1.63 1.63 0 0 0-.942-.914c-.398-.152-.793-.11-1.199-.16.238-.14.43-.355.45-.668.023-.363-.34-.894-.704-.894m0 0" style="stroke:none;fill-rule:nonzero;fill:#d42da2;fill-opacity:1"/></g><path d="M5.523 6.746h.012l.043.012c.035.008.09.015.156.02a1 1 0 0 0 .106.003q.054-.001.113-.008l.121-.023c.04-.012.082-.023.121-.043l.012-.004h.004c-.008 0 .012-.008-.012.004l.004-.004h.012l.035-.02c.016-.007.016-.011.02-.011q.01-.007.015-.008c.027-.023.055-.043.082-.07.051-.055.098-.117.137-.172l.086-.149q.029-.054.027-.05a.17.17 0 0 1 .207-.121c.09.023.145.113.121.203-.004.004-.004.035-.015.09a1.158 1.158 0 0 1-.234.492c-.044.047-.087.097-.15.14l-.05.035c-.016.012-.039.024-.047.028l-.035.02-.012.003h-.004l-.02.012-.019.008q-.093.033-.187.054c-.063.016-.125.02-.184.024a1.1 1.1 0 0 1-.328-.031.8.8 0 0 1-.215-.086.2.2 0 0 1-.058-.035q-.03-.018-.024-.012l-.004-.004a.173.173 0 0 1-.023-.242.16.16 0 0 1 .187-.055m0 0" style="stroke:none;fill-rule:nonzero;fill:#404040;fill-opacity:1"/><path d="M5.25 7.383c.086.058.203.058.3.023.098-.035.204-.222.204-.222s.027.191.11.336c.077-.125.132-.301.132-.301s.106.25.23.297c0-.114.004-.34.004-.34s.188.234.329.277c-.02-.148-.032-.234-.04-.36.172.141.27.184.426.184-.058-.117-.195-.32-.195-.32s.219.148.469.102c-.106-.13-.23-.192-.332-.32.14.054.5.003.5.003s-.48-.094-.52-.281c.035.031-.308.355-.344.379-.14.09-.296.152-.46.187-.106.024-.391-.078-.454-.02-.05.044-.023.118-.125.22-.058.062-.148.148-.234.156m0 0" style="stroke:none;fill-rule:nonzero;fill:#404040;fill-opacity:1"/></svg>