<svg xmlns="http://www.w3.org/2000/svg" xmlns:xlink="http://www.w3.org/1999/xlink" width="16pt" height="16pt" viewBox="0 0 16 16"><defs><clipPath id="b"><path d="M0 0h16v16H0z"/></clipPath><clipPath id="c"><path d="M0 0h16v16H0z"/></clipPath><clipPath id="d"><path d="M0 0h16v16H0z"/></clipPath><clipPath id="q"><path d="M11 1h4v4h-4Zm0 0"/></clipPath><clipPath id="r"><path d="m13.047 4.133 1.64-1.836-1.257-1.258-1.836 1.64Zm0 0"/></clipPath><clipPath id="e"><path d="M0 0h16v16H0z"/></clipPath><clipPath id="f"><path d="M0 0h16v16H0z"/></clipPath><clipPath id="g"><path d="M0 0h16v16H0z"/></clipPath><clipPath id="h"><path d="M0 0h16v16H0z"/></clipPath><clipPath id="i"><path d="M0 0h16v16H0z"/></clipPath><mask id="j"><g filter="url(#a)"><path d="M0 0h16v16H0z" style="fill:#000;fill-opacity:.2;stroke:none"/></g></mask><mask id="l"><g filter="url(#a)"><path d="M0 0h16v16H0z" style="fill:#000;fill-opacity:.2;stroke:none"/></g></mask><mask id="o"><g filter="url(#a)"><path d="M0 0h16v16H0z" style="fill:#000;fill-opacity:.2;stroke:none"/></g></mask><mask id="s"><g filter="url(#a)"><path d="M0 0h16v16H0z" style="fill:#000;fill-opacity:.2;stroke:none"/></g></mask><mask id="u"><g filter="url(#a)"><path d="M0 0h16v16H0z" style="fill:#000;fill-opacity:.2;stroke:none"/></g></mask><mask id="w"><g filter="url(#a)"><path d="M0 0h16v16H0z" style="fill:#000;fill-opacity:.2;stroke:none"/></g></mask><mask id="z"><g filter="url(#a)"><path d="M0 0h16v16H0z" style="fill:#000;fill-opacity:.2;stroke:none"/></g></mask><mask id="C"><g filter="url(#a)"><path d="M0 0h16v16H0z" style="fill:#000;fill-opacity:.2;stroke:none"/></g></mask><g id="k" clip-path="url(#b)"><path d="M15.012 4.715q.01-.001.015.004c-.015.02-.047.047-.062.062l-.024.02q-.076.074-.058.156c.02.082.097.106.144.121.04.012.082.027.13.055.097.058.269.164.023.582l-5.895 9.25-.2-.219 5.9-9.258.066-.105-.106-.067-.476-.304c.078-.067.203-.153.36-.235a.4.4 0 0 1 .183-.062m0-.125a.54.54 0 0 0-.242.078c-.305.156-.516.355-.504.367.004 0 .613.387.613.387l-5.95 9.34.376.41 5.98-9.39c.27-.454.117-.65-.062-.759-.153-.09-.27-.062-.196-.132.063-.059.168-.141.13-.211-.024-.04-.06-.09-.145-.09m0 0" style="stroke:none;fill-rule:nonzero;fill:#424242;fill-opacity:1"/></g><g id="m" clip-path="url(#c)"><path d="M7.96 4.21v.25c.657 0 1.372.38 2.126 1.126.898.89 1.281 1.758 1.098 2.508-.184.758-.883 1.23-1.309 1.363-.504.16-.473.637-.46.816 0 .024.003.051 0 .063-.009.055-.024.074-.028.074q-.024.01-.024.008a1.5 1.5 0 0 1-.254-.133.95.95 0 0 0-.48-.125c-.387 0-.758.203-1.02.563-.394.547-.605 1.308-.02 1.793l.02.015c.028.024.067.055.075.067v.035q0 .013-.063.039c-.16.066-.379.156-.473.5-.007.015-.492 1.613-1.98 1.719q-.093.007-.18.007c-1.156 0-1.96-.816-2.492-1.355l-.148-.152c-.047-.047-.098-.094-.149-.149C1.652 12.72.742 11.84.824 10.586c.094-1.488 1.688-1.992 1.7-1.996.347-.102.433-.32.496-.477.02-.047.035-.066.039-.066h.035a1 1 0 0 1 .07.074l.016.02c.195.234.468.359.777.359q.476-.001 1.012-.395c.601-.44.668-1.101.426-1.5-.051-.09-.133-.222-.137-.253q.001 0 .008-.024c.004-.004.02-.02.078-.031H5.34c.02 0 .039.004.062.004q.054.005.121.004c.45 0 .625-.258.692-.477.16-.527.777-1.367 1.746-1.367zm0 0c-1.106 0-1.805.95-1.984 1.547-.082.258-.282.297-.45.297-.074 0-.136-.008-.183-.008-.016 0-.032.004-.043.004-.074.015-.215.05-.266.187-.058.145-.015.223.149.496.175.29.125.813-.36 1.168-.36.262-.644.348-.867.348-.375 0-.562-.246-.59-.273-.09-.106-.14-.176-.289-.18h-.012c-.132 0-.222.082-.277.223-.059.148-.11.265-.332.332-.293.082-1.785.691-1.883 2.218-.094 1.496 1.067 2.47 1.602 3 .508.504 1.43 1.578 2.812 1.578q.1 0 .2-.007c1.53-.114 2.12-1.61 2.203-1.903.062-.222.183-.273.328-.336.14-.054.226-.148.218-.289-.003-.148-.074-.199-.18-.293-.05-.039-.64-.484.06-1.453.238-.328.546-.46.816-.46.133 0 .254.03.351.09.192.112.29.171.383.171a.3.3 0 0 0 .113-.027c.133-.055.172-.192.184-.266.024-.129-.117-.55.29-.68.937-.293 2.741-1.879.308-4.289-.89-.879-1.664-1.195-2.301-1.195m0 0" style="stroke:none;fill-rule:nonzero;fill:#424242;fill-opacity:1"/></g><g id="p" clip-path="url(#d)"><path d="m14.21 1.387.142.136L8.047 8.48l-.797-.8zm.009-.348L6.984 7.58c-.054.05-.043.148.024.214l.926.926c.039.039.086.058.128.058a.12.12 0 0 0 .086-.035l6.547-7.226Zm0 0" style="stroke:none;fill-rule:nonzero;fill:#424242;fill-opacity:1"/></g><g id="t" clip-path="url(#e)"><path d="m13.86.617.453.45-.829.831-.453-.453zm0-.14a.1.1 0 0 0-.062.027l-.879.879a.087.087 0 0 0 0 .125l.5.504c.02.015.039.023.066.023q.031 0 .063-.023l.879-.883a.087.087 0 0 0 0-.125l-.5-.5a.1.1 0 0 0-.067-.027m0 0" style="stroke:none;fill-rule:nonzero;fill:#424242;fill-opacity:1"/></g><g id="v" clip-path="url(#f)"><path d="m14.645 1.398.464.465-.828.832-.465-.465zm0-.136a.1.1 0 0 0-.063.023l-.879.883a.087.087 0 0 0 0 .125l.516.516c.015.02.039.027.062.027a.08.08 0 0 0 .063-.027l.883-.88a.087.087 0 0 0 0-.124l-.52-.52a.1.1 0 0 0-.062-.023m0 0" style="stroke:none;fill-rule:nonzero;fill:#424242;fill-opacity:1"/></g><g id="x" clip-path="url(#g)"><path d="m14.715.797.215.215c0 .004 0 .031-.024.07l-.945 1.453a.56.56 0 0 1-.309.242.3.3 0 0 1-.078.012.14.14 0 0 1-.097-.035l-.504-.504c-.036-.035-.043-.102-.024-.176a.57.57 0 0 1 .242-.312l1.45-.942a.15.15 0 0 1 .066-.023zM14.71.672a.25.25 0 0 0-.133.043l-1.453.945a.68.68 0 0 0-.297.383c-.031.121-.012.23.059.297l.504.504c.043.047.109.07.187.07a.4.4 0 0 0 .11-.016.7.7 0 0 0 .382-.293l.942-1.453c.054-.086.058-.175.011-.226l-.222-.219a.12.12 0 0 0-.09-.035m0 0" style="stroke:none;fill-rule:nonzero;fill:#424242;fill-opacity:1"/></g><g id="A" clip-path="url(#h)"><path d="m4.402 10.547.387.39s.356.356.39.387a4.3 4.3 0 0 1-.714.414 3.4 3.4 0 0 0-1.121.758c-.196.195-.383.399-.567.598l-.07.078c-.035.035-.066.082-.098.121-.066.09-.152.2-.218.2a.13.13 0 0 1-.075-.028c-.02-.012-.035-.043-.043-.078-.023-.102-.02-.106.079-.192.046-.047.066-.058.086-.078.023-.015.046-.035.105-.086l.082-.074c.2-.187.41-.375.605-.574.333-.328.57-.684.758-1.121.125-.297.309-.57.414-.715m-.004-.125a.12.12 0 0 0-.093.047 4.3 4.3 0 0 0-.43.742c-.195.45-.434.785-.734 1.086-.22.219-.453.43-.684.64-.105.098-.082.067-.191.165-.11.101-.149.144-.114.312a.26.26 0 0 0 .098.156c.05.035.098.047.14.047.176 0 .294-.234.41-.36.208-.226.415-.456.634-.675a3.4 3.4 0 0 1 1.086-.73c.308-.133.593-.325.742-.43a.116.116 0 0 0 .011-.18l-.789-.789a.12.12 0 0 0-.086-.031m0 0" style="stroke:none;fill-rule:nonzero;fill:#424242;fill-opacity:1"/></g><g id="D" clip-path="url(#i)"><path d="M.98 9.93h.028c.191.023.668.12.996.523.348.434.25.902.086 1.344-.2.558-.168 1.07.094 1.375.113.129.207.203.28.265.099.079.157.126.235.27q.026.048.028.11c-.528-.454-1.524-1.391-1.82-2.29-.243-.73-.118-1.199.054-1.597zm0-.25c-.106 0-.2.039-.243.14-.16.36-.36.914-.07 1.79.379 1.144 1.773 2.304 2.129 2.59a.06.06 0 0 0 .039.015c.059 0 .098-.117.117-.203a.57.57 0 0 0-.035-.422c-.172-.317-.305-.305-.543-.582-.238-.274-.184-.754-.05-1.125.152-.414.32-1.028-.13-1.586-.36-.445-.882-.582-1.16-.613C1.015 9.68 1 9.68.98 9.68m0 0" style="stroke:none;fill-rule:nonzero;fill:#424242;fill-opacity:1"/></g><radialGradient id="n" cx="118.11" cy="23.048" r="43.948" fx="118.11" fy="23.048" gradientTransform="matrix(.12309 .01469 .01469 .12309 -.897 -2.196)" gradientUnits="userSpaceOnUse"><stop offset="0" style="stop-color:#616161;stop-opacity:1"/><stop offset="1" style="stop-color:#212121;stop-opacity:1"/></radialGradient><radialGradient id="y" cx="47.792" cy="90.847" r="17.254" fx="47.792" fy="90.847" gradientTransform="matrix(.125 0 0 .12045 -.749 -.305)" gradientUnits="userSpaceOnUse"><stop offset="0" style="stop-color:#616161;stop-opacity:1"/><stop offset="1" style="stop-color:#212121;stop-opacity:1"/></radialGradient><radialGradient id="B" cx="61.74" cy="85.522" r="22.543" fx="61.74" fy="85.522" gradientTransform="rotate(45.56 4.767 5.538)scale(.125)" gradientUnits="userSpaceOnUse"><stop offset="0" style="stop-color:#616161;stop-opacity:1"/><stop offset="1" style="stop-color:#212121;stop-opacity:1"/></radialGradient><filter id="a" width="100%" height="100%" x="0%" y="0%" filterUnits="objectBoundingBox"><feColorMatrix in="SourceGraphic" values="0 0 0 0 1 0 0 0 0 1 0 0 0 0 1 0 0 0 1 0"/></filter></defs><path d="M114.969 40.594 68 114" style="fill:none;stroke-width:2.1483;stroke-linecap:butt;stroke-linejoin:miter;stroke:#ffa000;stroke-opacity:1;stroke-miterlimit:10" transform="scale(.125)"/><path d="M14.266 5.031c.004 0 .613.39.613.39l-5.95 9.34.376.407 5.98-9.387c.27-.453.117-.648-.062-.758-.153-.09-.27-.062-.196-.132.063-.059.168-.141.13-.211-.04-.07-.11-.16-.387-.016-.305.16-.516.36-.504.367m0 0" style="stroke:none;fill-rule:nonzero;fill:#bf360c;fill-opacity:1"/><use xlink:href="#k" mask="url(#j)"/><path d="m8.86 15.422-.036-.02c-.113-.07-.156-.207-.094-.3l.344-.543.442.277-.344.543c-.063.094-.2.113-.313.043m0 0" style="stroke:none;fill-rule:nonzero;fill:#212121;fill-opacity:1"/><path d="M9.719 14.504c-.153-.094-.485-.238-.61-.035l-.004.011c-.046.07-.062.102-.128.063l-.27-.164c-.047-.027-.07-.078-.027-.149l.027-.043c.055-.082-.004-.214-.129-.292v-.008l-.348.554c-.05.075.004.204.118.274l.902.543Zm0 0" style="stroke:none;fill-rule:nonzero;fill:#212121;fill-opacity:1"/><path d="M7.39 13.238c.063-.222.18-.273.325-.332.144-.058.226-.152.223-.293-.004-.148-.079-.199-.184-.289-.047-.043-.64-.484.062-1.457.352-.492.875-.543 1.164-.37.274.16.352.202.5.144.133-.055.168-.192.184-.266.02-.129-.117-.55.29-.68.933-.293 2.741-1.879.308-4.289s-4-.59-4.285.352c-.125.406-.551.27-.676.293-.074.015-.215.05-.266.187-.058.145-.015.223.149.496.175.29.125.813-.36 1.168-.965.711-1.414.121-1.457.075-.09-.106-.14-.176-.289-.18-.14-.004-.234.082-.289.223-.059.148-.11.265-.332.332-.293.082-1.785.691-1.883 2.218-.094 1.496 1.067 2.47 1.602 3 .531.528 1.515 1.68 3.012 1.57 1.527-.109 2.12-1.609 2.203-1.902m0 0" style="stroke:none;fill-rule:nonzero;fill:#f4511e;fill-opacity:1"/><use xlink:href="#m" mask="url(#l)"/><path d="M6.313 10.402s-.25-.168-.547-.468-.438-.52-.438-.52c-.047-.062-.02-.129.031-.172.04-.039.11-.058.16-.02 0 0 .297.184.54.43.238.246.449.555.449.555.035.063.015.121-.031.172-.04.039-.118.062-.165.023M7.922 9.492c.129.145.078.367-.008.504-.082.14-.195.234-.3.328-.106.094-.22.172-.321.258-.215.168-.414.34-.54.555-.03.058-.058.11-.07.164a.5.5 0 0 0 0 .18c.008.058.008.124.04.18-.07-.016-.121-.075-.157-.138-.082-.152-.058-.343 0-.48.114-.29.34-.496.555-.672q.171-.129.336-.246c.11-.078.219-.156.293-.246.07-.09.11-.215.102-.332 0-.043-.012-.082-.02-.121.031.008.066.039.09.066m0 0" style="stroke:none;fill-rule:nonzero;fill:#212121;fill-opacity:1"/><path d="M7.938 9.578a.18.18 0 0 1-.176.176.178.178 0 0 1 0-.356c.097 0 .176.082.176.18M6.95 11.484a.18.18 0 0 1-.18.176.18.18 0 0 1-.176-.176c0-.097.082-.18.176-.18.097 0 .18.083.18.18M4.16 9.102c.137.136.367.097.504.02.145-.075.246-.18.344-.282.101-.102.183-.207.277-.309.176-.199.36-.39.582-.508a.6.6 0 0 1 .168-.058.5.5 0 0 1 .176.008c.062.011.125.015.18.047-.012-.067-.07-.125-.13-.16a.57.57 0 0 0-.476-.028c-.297.098-.515.313-.703.52a9 9 0 0 0-.262.32c-.086.101-.172.207-.261.277a.52.52 0 0 1-.34.086c-.04-.004-.078-.02-.117-.027.003.035.035.07.058.094m0 0" style="stroke:none;fill-rule:nonzero;fill:#212121;fill-opacity:1"/><path d="M4.43 8.945a.175.175 0 0 1-.176.176.175.175 0 0 1-.176-.176c0-.097.078-.175.176-.175s.176.078.176.175M6.387 8.063a.175.175 0 0 1-.176.175.175.175 0 0 1-.176-.175c0-.098.078-.176.176-.176s.176.078.176.176m0 0" style="stroke:none;fill-rule:nonzero;fill:#212121;fill-opacity:1"/><path d="m14.695 1.516-.476-.477-7.235 6.54c-.054.05-.043.148.024.214l.926.926c.066.066.164.078.214.023Zm0 0" style="stroke:none;fill-rule:nonzero;fill:url(#n)"/><use xlink:href="#p" mask="url(#o)"/><path d="M11.938 1.227c-.184.183-.122.375-.012.527a.192.192 0 0 0 .289.023l.27-.273a.187.187 0 0 0-.024-.29c-.149-.105-.34-.171-.524.013m0 0" style="stroke:none;fill-rule:nonzero;fill:#212121;fill-opacity:1"/><path d="m12.29 1.426.565.562-.156.157-.562-.567ZM11.21 1.953c-.183.184-.12.375-.01.527a.19.19 0 0 0 .288.024l.274-.274a.19.19 0 0 0-.028-.289c-.148-.109-.343-.171-.523.012m0 0" style="stroke:none;fill-rule:nonzero;fill:#212121;fill-opacity:1"/><path d="m11.563 2.152.562.563-.152.156-.563-.566ZM14.215 4.078c.18-.183.117-.375.012-.527a.19.19 0 0 0-.29-.024l-.273.27c-.082.086-.074.223.024.289.152.11.343.176.527-.008m0 0" style="stroke:none;fill-rule:nonzero;fill:#212121;fill-opacity:1"/><path d="m13.86 3.879-.563-.563.152-.156.567.567ZM14.941 3.352c.184-.184.118-.375.012-.528a.19.19 0 0 0-.289-.023l-.273.273a.188.188 0 0 0 .023.285c.152.11.344.172.527-.007m0 0" style="stroke:none;fill-rule:nonzero;fill:#212121;fill-opacity:1"/><path d="m14.586 3.148-.563-.562.153-.152.566.562Zm0 0" style="stroke:none;fill-rule:nonzero;fill:#212121;fill-opacity:1"/><g clip-path="url(#q)"><g clip-path="url(#r)"><path d="m13.348 1.809.574.574-1.328 1.441-.688-.687zm.004-.348-1.809 1.668 1.055 1.055 1.668-1.809Zm0 0" style="stroke:none;fill-rule:nonzero;fill:#bf360c;fill-opacity:1"/></g></g><path d="m13.422 2.012-.504-.5a.09.09 0 0 1 0-.13l.879-.878a.09.09 0 0 1 .129 0l.5.5a.09.09 0 0 1 0 .129l-.88.879c-.034.035-.093.035-.124 0m0 0" style="stroke:none;fill-rule:nonzero;fill:#bf360c;fill-opacity:1"/><use xlink:href="#t" mask="url(#s)"/><path d="m13.797 2.387.414.418c.039.035.098.035.137 0l.87-.871a.094.094 0 0 0 0-.137l-.417-.418a.097.097 0 0 0-.133 0l-.871.871a.094.094 0 0 0 0 .137m0 0" style="stroke:none;fill-rule:nonzero;fill:#bf360c;fill-opacity:1"/><use xlink:href="#v" mask="url(#u)"/><path d="m14.066 2.605.946-1.453c.054-.086.058-.175.008-.226L14.8.707c-.05-.05-.14-.047-.226.008l-1.453.945a.7.7 0 0 0-.293.383c-.031.121-.012.23.059.297l.5.504c.066.066.175.086.297.054a.7.7 0 0 0 .382-.293m0 0" style="stroke:none;fill-rule:nonzero;fill:#f4511e;fill-opacity:1"/><use xlink:href="#x" mask="url(#w)"/><path d="M5.262 11.422c.058-.043.062-.125.011-.18l-.789-.789a.12.12 0 0 0-.18.016 4.3 4.3 0 0 0-.429.742c-.195.45-.434.785-.734 1.086-.207.207-.422.406-.633.605-.113.106-.219.207-.328.317-.032.027-.09.07-.086.11.008.077.234.25.289.304.082.078.941-.938 1.05-1.047.297-.297.637-.54 1.087-.73.304-.133.59-.329.742-.434m0 0" style="stroke:none;fill-rule:nonzero;fill:url(#y)"/><use xlink:href="#A" mask="url(#z)"/><path d="M.734 9.82c.055-.117.172-.152.301-.136.278.03.8.164 1.164.613.45.558.278 1.172.13 1.586-.138.37-.192.851.046 1.125.238.273.375.262.547.578a.6.6 0 0 1 .031.426c-.023.101-.074.254-.156.187-.356-.285-1.746-1.445-2.125-2.59-.293-.875-.094-1.43.062-1.789m0 0" style="stroke:none;fill-rule:nonzero;fill:url(#B)"/><use xlink:href="#D" mask="url(#C)"/></svg>