<svg xmlns="http://www.w3.org/2000/svg" width="16" height="16" viewBox="0 0 12 12"><path fill="#00a200" d="M6.358-.725C6.263-.535 6.074.278 6.032.68l-.007.067L5.982.7c-.053-.058-.066-.054-.113.039-.065.129-.11.316-.114.479-.003.097-.003.099-.023.085-.053-.038-.106-.065-.115-.06-.045.028-.101.533-.082.737q.007.087-.003.08l-.07-.048c-.08-.056-.141-.085-.159-.078-.026.01-.038.08-.037.234a1.6 1.6 0 0 0 .118.636 1 1 0 0 1-.116-.072c-.169-.111-.183-.11-.195.017-.019.193.035.496.114.638.017.03.028.056.026.059a.3.3 0 0 1-.073-.034c-.119-.066-.137-.074-.165-.074-.041 0-.051.029-.045.129.009.157.088.414.187.613.032.065.054.118.048.118s-.047-.022-.092-.049c-.143-.085-.145-.086-.17-.062-.019.02-.021.032-.02.139 0 .1.005.129.028.202q.072.215.218.375c.046.05.048.055.027.055a1 1 0 0 1-.084-.015c-.092-.022-.122-.02-.142.011-.016.025-.016.031.001.113.022.108.088.271.172.425.036.065.063.12.061.122a.3.3 0 0 1-.061-.032c-.078-.046-.108-.052-.135-.025-.042.042-.021.192.053.375.042.105.098.203.173.303l.053.073h-.05c-.057 0-.117.021-.126.045-.012.03.018.109.126.34.06.128.112.245.116.26.011.044-.017.027-.047-.029a.3.3 0 0 0-.047-.068c-.018-.019-.024-.02-.05-.009a.2.2 0 0 0-.058.042c-.034.035-.044.036-.044.006 0-.04-.038-.174-.074-.264-.066-.161-.173-.303-.229-.303-.034 0-.053.027-.067.095s-.01.074-.066-.08c-.076-.209-.185-.385-.239-.385-.026 0-.054.033-.095.107q-.042.077-.04.009a.9.9 0 0 0-.1-.344c-.081-.152-.226-.267-.258-.205a.4.4 0 0 0-.021.083 1 1 0 0 1-.023.099l-.011.034-.028-.079a1.7 1.7 0 0 0-.298-.502c-.082-.083-.108-.069-.142.076a.3.3 0 0 1-.028.092.2.2 0 0 1-.025-.053c-.038-.111-.165-.279-.293-.39-.133-.114-.137-.112-.173.121l-.012.074-.027-.054-.053-.093c-.082-.129-.286-.34-.373-.386-.044-.023-.047-.023-.06-.006a.5.5 0 0 0-.035.175c0 .018-.003.032-.007.032a.3.3 0 0 1-.063-.056c-.133-.137-.437-.354-.494-.354q-.015 0-.027.059l-.012.058-.079-.062c-.129-.102-.327-.195-.414-.195h-.036l.007.05c.004.027.004.05.001.05s-.076-.047-.163-.104c-.362-.238-.821-.483-.964-.515-.056-.013-.059.003-.016.093.086.181.448.695.665.943.051.059.053.063.029.063l-.056.006c-.03.006-.032.009-.026.038a.96.96 0 0 0 .232.376 1 1 0 0 1 .073.084q-.001.005-.016.006c-.04 0-.094.024-.094.041 0 .054.297.379.444.485l.029.021-.069.017c-.091.022-.144.046-.144.064 0 .084.363.36.554.422.047.015.039.021-.064.045q-.145.034-.154.062c-.009.022.108.139.213.214a1 1 0 0 0 .297.15c.029.007.051.015.049.02a.4.4 0 0 1-.088.034c-.141.047-.151.082-.043.159.13.093.337.187.509.231.105.026.107.023-.043.071-.097.031-.104.036-.096.068.01.039.06.09.133.136a.8.8 0 0 0 .416.122c.048.002.087.005.087.008s-.017.016-.037.03c-.109.073-.126.109-.072.155.066.055.24.123.422.165.053.012.097.024.097.025a.4.4 0 0 1-.065.025c-.098.033-.108.068-.035.134.085.077.296.155.479.177l.098.012-.034.049c-.068.102-.069.101.327.222.099.031.117.039.127.062.007.015.011.029.009.031a.2.2 0 0 1-.062-.025c-.088-.044-.204-.083-.252-.085s-.066.014-.057.052l.012.054.006.031-.044-.036c-.101-.083-.275-.14-.359-.118-.021.006-.042.015-.045.021-.004.005.009.037.029.07s.036.062.036.064-.033-.011-.072-.03a1.1 1.1 0 0 0-.324-.092c-.065-.005-.073-.004-.083.015-.009.016-.005.03.019.076a.4.4 0 0 1 .03.06.3.3 0 0 1-.057-.02c-.13-.052-.393-.062-.393-.014 0 .004.02.038.045.075q.043.067.027.06c-.121-.047-.389-.067-.454-.033-.026.013-.022.029.016.087l.035.051h-.087a1.7 1.7 0 0 0-.338.04c-.038.013-.041.02-.018.056.009.013.015.026.013.027a1 1 0 0 1-.092.016c-.128.017-.267.073-.267.107 0 .007.01.02.022.028.026.019.021.021-.082.036a4.4 4.4 0 0 0-.68.169c-.082.033-.087.051-.023.079.105.045.413.113.668.148.072.01.132.019.134.021s-.003.011-.012.021-.017.023-.017.029c0 .031.205.093.307.093a.3.3 0 0 1 .063.004.2.2 0 0 1-.021.04l-.021.036.028.01c.048.018.175.032.31.033l.132.002-.027.04c-.064.094-.054.105.091.105a.9.9 0 0 0 .311-.05l.048-.019-.014.022c-.044.07-.068.119-.064.132.019.048.272.019.431-.05.016-.007.014.001-.013.048-.036.063-.035.092.004.099.062.012.25-.039.378-.104l.079-.039-.038.066c-.033.061-.035.068-.021.082.023.023.121.02.201-.007a.8.8 0 0 0 .21-.121c.026-.021.028-.021.023-.003-.016.056-.018.086-.007.099.028.034.131.008.286-.074.093-.049.094-.049.079-.021-.02.038-.019.076.001.084.066.025.249-.038.366-.127l.046-.035.006.038q.01.067.067.05.028-.008.045.005c.015.011.009.014-.051.024a.33.33 0 0 0-.19.093l-.027.032.022.018a.1.1 0 0 0 .041.018c.032 0 .021.017-.016.024-.046.009-.206.09-.23.116s-.012.049.033.064l.032.011-.073.037c-.078.041-.167.116-.167.142q0 .016.045.028c.041.011.061.028.034.028-.042 0-.246.164-.237.191.002.007.022.019.045.026l.04.014-.069.067c-.115.111-.159.182-.112.182.02 0 .018.005-.027.062-.072.092-.103.178-.063.178.014 0 .015.002.003.018l-.109.145c-.108.144-.196.279-.205.319-.006.024-.004.028.013.028.03 0 .259-.117.397-.203.104-.065.12-.073.123-.056.006.036.084.014.185-.052.031-.021.057-.032.057-.026q0 .049.051.021c.041-.021.129-.085.18-.131l.037-.033.011.045c.006.025.017.045.025.045.033 0 .157-.123.203-.201l.018-.03.01.048q.01.049.028.051c.024.005.146-.119.174-.177l.022-.044.008.033q.02.075.069.03a.8.8 0 0 0 .125-.191c.023-.049.039-.056.039-.016 0 .012.005.029.01.037.008.013.013.013.042-.003.046-.025.099-.106.118-.183l.017-.065.017.025c.009.014.025.026.036.026.024 0 .071-.067.11-.157.024-.056.031-.064.036-.046.009.031.034.037.064.015a.5.5 0 0 0 .106-.203c.005-.032.01-.039.023-.033.055.022.066.011.122-.128.03-.076.041-.089.054-.068.003.005.015.01.025.01.03 0 .058-.068.078-.186.016-.09.02-.103.031-.09q.026.03.05.002c.006-.007.036-.109.066-.226s.058-.216.061-.219c.004-.003.004.016.001.044-.015.12-.038.393-.045.54-.008.157-.004.275.018.465.033.304.041.384.055.569.009.114.015.28.013.377l-.003.173.064.003c.047.002.065-.001.069-.011a5 5 0 0 0-.001-.295 6 6 0 0 0-.046-.666l-.026-.239a3 3 0 0 1-.005-.521 6 6 0 0 1 .06-.533c.004.004.026.073.049.153.061.21.109.353.127.378.015.022.054.031.054.012q0-.01.009-.01c.009 0 .012.024.015.052.015.11.038.191.063.216.022.022.026.023.047.009.023-.015.023-.015.061.078a.6.6 0 0 0 .057.115c.017.018.021.019.047.005l.029-.014.006.037a.5.5 0 0 0 .09.189q.048.057.08.011.015-.021.016-.008c0 .007.018.051.04.097.05.103.08.123.115.079l.023-.029.007.042c.016.093.109.227.153.219.01-.002.02-.021.027-.048l.011-.045.012.036a1 1 0 0 0 .13.211q.054.06.073-.012l.012-.04.03.052c.034.06.138.168.161.168.019 0 .025-.011.034-.062l.007-.042.033.051c.042.066.168.185.19.181q.017-.005.027-.045l.01-.042.069.058c.082.07.171.125.185.116.006-.003.011-.015.011-.027 0-.019.002-.019.035.006.05.039.16.088.187.084q.023-.003.02-.021-.003-.015.002-.017c.005-.002.043.024.088.054.158.103.397.226.438.226.044 0-.084-.213-.258-.43-.055-.069-.059-.076-.04-.083.016-.006.019-.013.013-.035a.5.5 0 0 0-.091-.152c-.038-.041-.041-.05-.02-.05.025 0 .029-.019.01-.048a1 1 0 0 0-.102-.114c-.072-.074-.082-.088-.066-.094.048-.015.064-.025.064-.038 0-.023-.124-.13-.192-.166l-.062-.033.047-.014c.035-.01.047-.019.047-.033 0-.026-.093-.105-.169-.143l-.064-.031.032-.013q.063-.026.021-.068a.7.7 0 0 0-.214-.107c-.044-.012-.062-.028-.031-.028.023 0 .065-.022.065-.035 0-.017-.06-.07-.106-.093a.5.5 0 0 0-.109-.033c-.053-.009-.064-.014-.05-.021.009-.006.03-.008.045-.005.034.007.06-.017.06-.056 0-.015.003-.027.006-.027.004 0 .038.021.076.046a.6.6 0 0 0 .282.108c.074.001.089-.015.063-.068-.009-.02-.015-.036-.013-.036l.102.05q.167.086.236.078l.033-.003-.002-.063-.001-.062.041.036c.098.083.28.145.361.123.044-.012.045-.028.006-.094-.016-.028-.03-.052-.03-.055s.034.011.076.031c.141.069.33.117.382.098q.044-.015-.004-.096c-.014-.025-.024-.046-.022-.049.003-.002.023.005.046.016a.7.7 0 0 0 .28.054c.139.001.143-.007.057-.139-.02-.029-.02-.029 0-.021.101.04.364.071.439.052.026-.006.036-.041.018-.062l-.03-.044-.021-.035.129-.001c.144-.002.29-.019.316-.038.015-.012.015-.015 0-.044a.2.2 0 0 1-.016-.037c0-.003.029-.005.063-.005.102 0 .279-.054.303-.091.004-.007-.002-.02-.014-.03q-.02-.015-.022-.022a6.306 6.306 0 0 0 .619-.112q.241-.061.241-.095c0-.034-.425-.154-.725-.205-.136-.023-.132-.021-.106-.049l.022-.024-.026-.02a.7.7 0 0 0-.308-.092h-.039l.021-.034c.017-.026.018-.036.008-.044-.021-.018-.179-.043-.316-.05l-.129-.007.036-.059c.033-.054.035-.059.019-.071-.045-.032-.285-.024-.41.015a.4.4 0 0 1-.063.017.4.4 0 0 1 .037-.061c.064-.095.055-.106-.089-.106a.8.8 0 0 0-.28.05l-.043.019.03-.053c.056-.098.036-.118-.099-.098a1.2 1.2 0 0 0-.353.12c-.004.002.009-.024.03-.058.042-.071.038-.09-.018-.102-.09-.019-.248.036-.364.126-.031.025-.037.027-.032.011a.3.3 0 0 0 .014-.062c.005-.038.003-.043-.019-.054-.035-.015-.125.009-.246.066a1 1 0 0 1-.103.045c-.004 0 0-.014.009-.03.015-.026.031-.035.117-.061.232-.071.315-.099.339-.115q.056-.034-.009-.118l-.036-.046h.045c.065 0 .229-.034.316-.065.255-.093.344-.204.198-.25l-.068-.022a.4.4 0 0 1 .115-.038c.197-.05.354-.115.403-.168.037-.039.026-.065-.051-.122l-.068-.05.098-.008c.204-.015.382-.084.485-.188.057-.057.07-.087.046-.106a1 1 0 0 0-.111-.043c-.053-.017-.095-.036-.091-.041q.006-.008.018-.009c.031 0 .19-.052.291-.095.199-.085.345-.183.345-.23 0-.032-.029-.05-.127-.08a.3.3 0 0 1-.083-.033c0-.005.026-.013.058-.02a1 1 0 0 0 .281-.139c.095-.068.193-.156.213-.19.017-.029.017-.031 0-.046a.5.5 0 0 0-.117-.042l-.115-.031c-.008-.003.022-.02.067-.038s.12-.057.168-.087c.16-.1.345-.267.345-.312 0-.024-.036-.043-.123-.065a1 1 0 0 1-.083-.025c-.003-.002.007-.012.02-.021.126-.082.446-.431.446-.486 0-.012-.015-.02-.055-.03-.03-.007-.055-.016-.055-.019s.025-.03.056-.06a.927.927 0 0 0 .247-.396c.002-.029.001-.03-.05-.033-.029-.002-.053-.005-.053-.008s.028-.037.063-.077c.141-.163.392-.499.525-.707.074-.114.162-.281.162-.307 0-.077-.566.209-1.049.529l-.134.089.007-.051c.009-.064-.002-.069-.09-.045a1.1 1.1 0 0 0-.379.207.2.2 0 0 1-.049.037l-.015-.062c-.009-.043-.017-.057-.03-.057-.045 0-.33.204-.472.337-.042.04-.079.073-.081.073a.3.3 0 0 1-.012-.072c-.008-.089-.032-.144-.061-.14-.036.006-.098.055-.2.157a1.3 1.3 0 0 0-.244.314l-.039.074-.012-.089c-.022-.168-.038-.199-.087-.173a1.7 1.7 0 0 0-.264.258.9.9 0 0 0-.129.245c0 .039-.019.002-.03-.061-.024-.127-.052-.169-.098-.144-.087.047-.278.345-.347.544a.3.3 0 0 1-.032.073 1 1 0 0 1-.024-.093l-.024-.111q-.005-.022-.031-.022c-.04 0-.076.024-.138.09a.9.9 0 0 0-.192.452c-.004.032-.01.055-.014.053a1 1 0 0 1-.049-.075c-.046-.078-.067-.087-.114-.05-.056.044-.166.257-.222.43-.009.03-.021.059-.025.063s-.012-.018-.019-.049c-.011-.059-.033-.094-.058-.094-.095 0-.264.293-.305.528l-.012.071-.043-.04c-.063-.058-.094-.055-.132.013-.034.062-.048.078-.062.078-.019 0 0-.049.1-.26.11-.23.144-.316.139-.351-.004-.033-.06-.059-.126-.059h-.052l.053-.073c.075-.1.131-.198.173-.303.074-.183.095-.333.053-.375-.027-.027-.063-.021-.138.025-.031.019-.057.033-.059.031s.023-.052.056-.112c.134-.243.211-.474.181-.544-.01-.025-.017-.029-.053-.029a1 1 0 0 0-.101.015c-.099.024-.105.021-.058-.028a1 1 0 0 0 .224-.377.5.5 0 0 0 .034-.212c0-.108-.002-.119-.022-.139l-.022-.022-.115.066c-.105.061-.136.075-.136.062l.028-.052c.138-.237.261-.692.212-.784-.017-.031-.059-.023-.151.03-.086.049-.134.07-.128.055l.035-.069a1.2 1.2 0 0 0 .109-.463c.008-.099-.002-.224-.02-.248-.018-.026-.049-.013-.176.07a1 1 0 0 1-.116.072 1 1 0 0 1 .028-.081c.059-.152.09-.344.09-.565 0-.148-.011-.214-.037-.224-.02-.008-.093.03-.172.088-.034.025-.063.046-.065.046s.001-.039.005-.088c.019-.204-.037-.709-.082-.737-.009-.006-.061.022-.119.063-.024.017-.024.017-.017-.011a1.3 1.3 0 0 0-.029-.301C6.979.853 6.902.673 6.868.66q-.015-.004-.057.041l-.042.046L6.757.65c-.027-.223-.115-.67-.186-.957-.063-.251-.145-.475-.174-.475-.005 0-.023.026-.039.057"/></svg>