<svg xmlns="http://www.w3.org/2000/svg" xmlns:xlink="http://www.w3.org/1999/xlink" width="16pt" height="16pt" viewBox="0 0 16 16"><defs><clipPath id="b"><path d="M0 0h16v16H0z"/></clipPath><clipPath id="c"><path d="M0 0h16v16H0z"/></clipPath><mask id="e"><g filter="url(#a)"><path d="M0 0h16v16H0z" style="fill:#000;fill-opacity:.2;stroke:none"/></g></mask><mask id="g"><g filter="url(#a)"><path d="M0 0h16v16H0z" style="fill:#000;fill-opacity:.2;stroke:none"/></g></mask><g id="f" clip-path="url(#b)"><path d="M11.527 1.082c.508 0 .961.055 1.387.164.024.008.043.024.047.043l1.406 4.438.578 1.832a6.7 6.7 0 0 0-1.218-.106c-.602 0-1.25.067-2.055.211-.356.063-.715.137-1.063.207-.87.176-1.77.36-2.656.395q-.174.007-.355.007c-1.293 0-2.61-.277-3.844-.585L1.77 1.414c1.152.274 2.367.5 3.582.5q.193-.001.382-.008c.95-.039 1.88-.226 2.778-.41.343-.07.699-.144 1.047-.207.804-.144 1.41-.207 1.968-.207m0-.375c-.675 0-1.359.09-2.035.215-1.254.223-2.496.558-3.77.61-.124.003-.25.007-.37.007-1.399 0-2.79-.305-4.141-.652L3.46 8c1.352.348 2.742.652 4.137.652q.189-.001.37-.007c1.274-.051 2.516-.387 3.774-.61.656-.117 1.324-.207 1.985-.207.457 0 .91.043 1.351.145q.03.005.059.004a.25.25 0 0 0 .234-.325c-.43-1.355-1.734-5.472-2.05-6.476a.44.44 0 0 0-.31-.29 5.8 5.8 0 0 0-1.484-.179m0 0" style="stroke:none;fill-rule:nonzero;fill:#424242;fill-opacity:1"/></g><g id="h" clip-path="url(#c)"><path d="M1.18.746c.129 0 .242.082.277.207l4.398 14.11a.04.04 0 0 1-.003.03c-.004.005-.012.016-.024.02l-.48.149c-.004 0-.008.004-.012.004-.016 0-.035-.012-.04-.032L.903 1.125a.3.3 0 0 1 .02-.223.28.28 0 0 1 .172-.14.2.2 0 0 1 .086-.016m0-.25a.6.6 0 0 0-.16.024.546.546 0 0 0-.356.68L5.06 15.308c.039.125.152.207.277.207a.2.2 0 0 0 .086-.016l.48-.148a.29.29 0 0 0 .192-.364L1.699.878a.54.54 0 0 0-.52-.382m0 0" style="stroke:none;fill-rule:nonzero;fill:#424242;fill-opacity:1"/></g><linearGradient id="d" x1="4.441" x2="168.77" y1="6.477" y2="84.143" gradientTransform="scale(.125)" gradientUnits="userSpaceOnUse"><stop offset="0" style="stop-color:#fafafa;stop-opacity:1"/><stop offset=".999" style="stop-color:#eee;stop-opacity:1"/></linearGradient><filter id="a" width="100%" height="100%" x="0%" y="0%" filterUnits="objectBoundingBox"><feColorMatrix in="SourceGraphic" values="0 0 0 0 1 0 0 0 0 1 0 0 0 0 1 0 0 0 1 0"/></filter></defs><path d="M3.46 8c1.474.379 2.993.703 4.513.645 1.273-.051 2.515-.387 3.77-.61 1.109-.2 2.25-.308 3.339-.062.184.043.348-.137.29-.32-.43-1.356-1.731-5.473-2.048-6.477a.44.44 0 0 0-.312-.29c-1.14-.3-2.344-.175-3.516.036-1.258.223-2.5.558-3.773.61-1.52.058-3.035-.266-4.508-.645Zm0 0" style="stroke:none;fill-rule:nonzero;fill:url(#d)"/><use xlink:href="#f" mask="url(#e)"/><path d="m5.902 15.352-.48.148a.293.293 0 0 1-.363-.191L.664 1.199A.546.546 0 0 1 1.02.52a.55.55 0 0 1 .68.36l4.394 14.11a.29.29 0 0 1-.192.363m0 0" style="stroke:none;fill-rule:nonzero;fill:#bdbdbd;fill-opacity:1"/><use xlink:href="#h" mask="url(#g)"/></svg>