<svg xmlns="http://www.w3.org/2000/svg" xmlns:xlink="http://www.w3.org/1999/xlink" width="16pt" height="16pt" viewBox="0 0 16 16"><defs><linearGradient id="d" x1="30.848" x2="95.211" y1="45.61" y2="45.61" gradientTransform="scale(.125)" gradientUnits="userSpaceOnUse"><stop offset="0" style="stop-color:#bdd4d6;stop-opacity:1"/><stop offset=".507" style="stop-color:#d4e9ec;stop-opacity:1"/><stop offset="1" style="stop-color:#b8d0d2;stop-opacity:1"/></linearGradient><linearGradient id="e" x1="61.956" x2="61.956" y1="123.57" y2="79.948" gradientTransform="scale(.125)" gradientUnits="userSpaceOnUse"><stop offset="0" style="stop-color:#d4e9ec;stop-opacity:1"/><stop offset="1" style="stop-color:#b8d0d2;stop-opacity:1"/></linearGradient><linearGradient id="f" x1="62.965" x2="62.965" y1="75.174" y2="39.561" gradientTransform="scale(.125)" gradientUnits="userSpaceOnUse"><stop offset="0" style="stop-color:#94271d;stop-opacity:1"/><stop offset=".008" style="stop-color:#95281e;stop-opacity:1"/><stop offset=".17" style="stop-color:#a93127;stop-opacity:1"/><stop offset=".356" style="stop-color:#b7372d;stop-opacity:1"/><stop offset=".587" style="stop-color:#bf3b31;stop-opacity:1"/><stop offset="1" style="stop-color:#c13c32;stop-opacity:1"/></linearGradient><linearGradient id="g" x1="62.994" x2="62.994" y1="19.086" y2="5.978" gradientTransform="scale(.125)" gradientUnits="userSpaceOnUse"><stop offset="0" style="stop-color:#d4e9ec;stop-opacity:1"/><stop offset="1" style="stop-color:#b8d0d2;stop-opacity:1"/></linearGradient><clipPath id="b"><path d="M0 0h16v16H0z"/></clipPath><clipPath id="c"><path d="M0 0h16v16H0z"/></clipPath><mask id="h"><g filter="url(#a)"><path d="M0 0h16v16H0z" style="fill:#000;fill-opacity:.6;stroke:none"/></g></mask><mask id="j"><g filter="url(#a)"><path d="M0 0h16v16H0z" style="fill:#000;fill-opacity:.6;stroke:none"/></g></mask><g id="i" clip-path="url(#b)"><path d="M50.375 117.938s5.625 2.53 14.031 1.718" style="fill:none;stroke-width:3;stroke-linecap:round;stroke-linejoin:miter;stroke:#fff;stroke-opacity:1;stroke-miterlimit:10" transform="scale(.125)"/></g><g id="k" clip-path="url(#c)"><path d="M5.668 2.188c-.293.597-.852 1.89-.902 3.238a.42.42 0 0 0 .308.418l.36.093a.426.426 0 0 0 .53-.34c.11-.738.376-2.175.84-3.019-.472-.078-.863-.21-1.136-.39m0 0" style="stroke:none;fill-rule:nonzero;fill:#fff;fill-opacity:1"/></g><filter id="a" width="100%" height="100%" x="0%" y="0%" filterUnits="objectBoundingBox"><feColorMatrix in="SourceGraphic" values="0 0 0 0 1 0 0 0 0 1 0 0 0 0 1 0 0 0 1 0"/></filter></defs><path d="M10.46 1.36H5.31S3.855 3.702 3.855 6.366c0 3.63 3.813 3.676 4.016 3.676h.016c.207 0 4.015-.047 4.015-3.676 0-2.664-1.441-5.008-1.441-5.008m0 0" style="stroke:none;fill-rule:nonzero;fill:url(#d)"/><path d="M9.02 14.043c-.372-.16-.786-.379-.786-.84 0-.129 0-3.043.016-3.164q.005-.011.004-.016c-.2.02-.332.02-.367.02h-.02c-.043 0-.285-.004-.62-.05a.4.4 0 0 1 .007.066v3.054c0 .145-.05.274-.133.387-.223.309-.613.434-.945.582-.223.102-.778.34-.742.652.039.375.699.536.984.602.348.078.707.105 1.066.105.32 0 .637-.02.954-.046.285-.02.578-.067.855-.137.2-.051.687-.176.754-.414.121-.434-.754-.684-1.027-.801m0 0" style="stroke:none;fill-rule:nonzero;fill:url(#e)"/><path d="M10.723 5.55c-.692.255-1.38.216-2.07-.007-.669-.219-1.313-.504-2.012-.582-.453-.047-.914 0-1.34.176-.313.129-.625.207-.801.52-.145.257-.074.722-.04 1.003.075.547.267 1.07.603 1.5.519.656 1.304 1.012 2.09 1.16.238.043.48.075.722.075a3 3 0 0 0 .613-.06c.766-.124 1.532-.437 2.07-1.026.352-.38.579-.86.688-1.371.07-.336.09-.688.078-1.032-.008-.156-.027-.246-.144-.363-.094-.086-.297-.05-.457.008m0 0" style="stroke:none;fill-rule:nonzero;fill:url(#f)"/><path d="M10.395 5.652c-2.434.442-4.45 1.18-5.579.606-.812-.41-.09-1.051.641-1.262 1.773-.508 4.324.707 4.938.656m0 0" style="stroke:none;fill-rule:nonzero;fill:#8f261b;fill-opacity:1"/><path d="M7.883.473C6.438.473 5.27.867 5.27 1.566c0 .704 1.171 1.094 2.613 1.094 1.445 0 2.617-.39 2.617-1.094C10.5.863 9.328.473 7.883.473m0 0" style="stroke:none;fill-rule:nonzero;fill:#b8d0d0;fill-opacity:1"/><path d="M7.875.746c-1.215 0-2.2.297-2.2.82 0 .528.985.82 2.2.82 1.21 0 2.2-.292 2.2-.82 0-.523-.985-.82-2.2-.82m0 0" style="stroke:none;fill-rule:nonzero;fill:url(#g)"/><use xlink:href="#i" mask="url(#h)"/><use xlink:href="#k" mask="url(#j)"/></svg>