<svg xmlns="http://www.w3.org/2000/svg" width="16pt" height="16pt" viewBox="0 0 16 16"><defs><linearGradient id="a" x1="64" x2="64" y1="19.717" y2="107.7" gradientTransform="scale(.125)" gradientUnits="userSpaceOnUse"><stop offset=".5" style="stop-color:#fee133;stop-opacity:1"/><stop offset=".612" style="stop-color:#fede32;stop-opacity:1"/><stop offset=".708" style="stop-color:#fcd32f;stop-opacity:1"/><stop offset=".797" style="stop-color:#fac12b;stop-opacity:1"/><stop offset=".883" style="stop-color:#f7a924;stop-opacity:1"/><stop offset=".9" style="stop-color:#f6a323;stop-opacity:1"/></linearGradient></defs><path d="M8 14.984C4.508 14.984.75 12.801.75 8 .75 3.2 4.508 1.016 8 1.016c1.934 0 3.727.636 5.047 1.8C14.488 4.09 15.25 5.883 15.25 8c0 2.11-.762 3.895-2.203 5.172C11.723 14.344 9.93 14.984 8 14.984m0 0" style="stroke:none;fill-rule:nonzero;fill:url(#a)"/><path d="M8 1.266c1.875 0 3.61.617 4.879 1.738C14.266 4.23 15 5.957 15 8c0 2.035-.734 3.758-2.121 4.984-1.277 1.13-3.008 1.75-4.879 1.75-1.879 0-3.613-.613-4.879-1.726C1.734 11.789 1 10.058 1 8c0-2.066.734-3.8 2.121-5.02C4.383 1.875 6.117 1.266 8 1.266m0-.5C4.105.766.5 3.266.5 8c0 4.71 3.605 7.234 7.5 7.234s7.5-2.59 7.5-7.234C15.5 3.328 11.895.766 8 .766m0 0" style="stroke:none;fill-rule:nonzero;fill:#eb8f00;fill-opacity:1"/><path d="M9.082 7.188q0-.001.027-.02c.004-.008.016-.016.028-.027a1.6 1.6 0 0 1 .43-.22c.156-.058.34-.097.535-.116s.406-.008.613.015l.144.028q.087.017.157.035c.101.023.195.058.289.094.183.07.351.16.484.253a1.7 1.7 0 0 1 .375.368l.027.035a.34.34 0 0 1-.082.476.34.34 0 0 1-.398-.004l-.035-.027s-.028-.02-.074-.047a2 2 0 0 0-.223-.117 2 2 0 0 0-.352-.129 3 3 0 0 0-.21-.055c-.04-.007-.07-.015-.106-.02-.027-.007-.094-.015-.117-.019a3 3 0 0 0-.82-.003q-.077.01-.141.027c-.04.008-.078.02-.098.023q-.018.004-.031.008-.022.008-.04.016a.351.351 0 0 1-.48-.18.35.35 0 0 1 .098-.394m0 0" style="stroke:none;fill-rule:nonzero;fill:#242424;fill-opacity:1"/><path d="M8.996 7.227q.002.001.016-.028a2.346 2.346 0 0 1 .313-.387c.109-.109.241-.226.39-.335.078-.055.152-.114.238-.165.082-.054.16-.101.254-.156.078-.043.168-.093.258-.136.086-.043.176-.079.262-.118.171-.07.34-.125.488-.16.148-.039.281-.058.379-.066.094-.004.156-.004.156-.004a.345.345 0 0 1 .328.36.34.34 0 0 1-.223.308l-.027.012s-.035.011-.094.035a4 4 0 0 0-.27.11c-.112.05-.245.112-.386.183q-.106.058-.219.117c-.074.039-.144.078-.226.125l-.219.125q-.111.07-.21.129a10 10 0 0 0-.36.238c-.102.07-.18.133-.235.172-.02.02-.039.031-.058.05q-.024.019-.024.02a.346.346 0 0 1-.488-.023.355.355 0 0 1-.043-.406m0 0" style="stroke:none;fill-rule:nonzero;fill:#242424;fill-opacity:1"/><path d="M29.844 43.813c-.907 0-1.719-.438-2.188-1.126-.468-.687-.562-1.562-.25-2.437 1.969-5 5.969-9.219 11-11.531 1.875-.875 3.844-1.469 5.875-1.719.125-.031.25-.031.375-.031 1.313 0 2.344.843 2.532 2.125a2.754 2.754 0 0 1-1.876 3.031l-.406-.719.282.75C39.844 34 35.094 37.75 32.156 42.47c-.5.843-1.343 1.343-2.312 1.343Zm0 0" style="fill-rule:nonzero;fill:#eb8f00;fill-opacity:1;stroke-width:1;stroke-linecap:butt;stroke-linejoin:miter;stroke:#eb8f00;stroke-opacity:1;stroke-miterlimit:10" transform="scale(.125)"/><path d="M8.031 11.805c-1.594 0-2.726-.825-3.07-1.348-.133-.2-.156-.418-.066-.582a.36.36 0 0 1 .332-.195q.075 0 .152.023c.8.25 1.723.383 2.66.383.93 0 1.848-.133 2.649-.383a.5.5 0 0 1 .148-.023c.144 0 .27.07.336.195.086.164.062.383-.07.582-.344.523-1.477 1.348-3.07 1.348M5.582 5.742c-.523 0-1 .442-1 1.18 0 .734.477 1.176 1 1.176.527 0 1-.442 1-1.176 0-.738-.473-1.18-1-1.18m0 0" style="stroke:none;fill-rule:nonzero;fill:#242424;fill-opacity:1"/></svg>