<svg xmlns="http://www.w3.org/2000/svg" width="16pt" height="16pt" viewBox="0 0 16 16"><defs><radialGradient id="b" cx="98.399" cy="94.791" r="48.455" fx="98.399" fy="94.791" gradientTransform="rotate(-121.543 16.01 1.09)scale(.125 -.125)" gradientUnits="userSpaceOnUse"><stop offset=".668" style="stop-color:#fee133;stop-opacity:1"/><stop offset=".872" style="stop-color:#f9b928;stop-opacity:1"/></radialGradient><linearGradient id="a" x1="64" x2="64" y1="18.378" y2="106.36" gradientTransform="scale(.125)" gradientUnits="userSpaceOnUse"><stop offset=".5" style="stop-color:#fee133;stop-opacity:1"/><stop offset=".612" style="stop-color:#fede32;stop-opacity:1"/><stop offset=".708" style="stop-color:#fcd32f;stop-opacity:1"/><stop offset=".797" style="stop-color:#fac12b;stop-opacity:1"/><stop offset=".883" style="stop-color:#f7a924;stop-opacity:1"/><stop offset=".9" style="stop-color:#f6a323;stop-opacity:1"/></linearGradient></defs><path d="M8 14.82c-3.492 0-7.25-2.187-7.25-6.988C.75 3.032 4.508.848 8 .848c1.934 0 3.727.64 5.047 1.8 1.441 1.274 2.203 3.067 2.203 5.184 0 2.11-.762 3.898-2.203 5.176C11.723 14.176 9.93 14.82 8 14.82m0 0" style="stroke:none;fill-rule:nonzero;fill:url(#a)"/><path d="M8 1.098c1.875 0 3.61.617 4.879 1.738C14.266 4.063 15 5.789 15 7.832c0 2.035-.734 3.758-2.121 4.988C11.602 13.95 9.87 14.57 8 14.57c-1.879 0-3.613-.617-4.879-1.73C1.734 11.62 1 9.89 1 7.832c0-2.066.734-3.8 2.121-5.02C4.383 1.708 6.117 1.099 8 1.099m0-.5C4.105.598.5 3.098.5 7.832c0 4.711 3.605 7.238 7.5 7.238s7.5-2.593 7.5-7.238C15.5 3.16 11.895.598 8 .598m0 0" style="stroke:none;fill-rule:nonzero;fill:#eb8f00;fill-opacity:1"/><path d="M50.094 23.969h.156c2.188.093 2.938-3.032.563-3.594A19 19 0 0 0 44.969 20c-5.563.469-10.532 3.156-13.719 6.844-1.594 1.843.875 3.937 2.594 2.562 4.375-3.437 10.218-5.531 16.25-5.437ZM77.906 23.969h-.156c-2.187.093-2.937-3.032-.562-3.594A19 19 0 0 1 83.03 20c5.563.469 10.531 3.156 13.719 6.844 1.594 1.843-.875 3.937-2.594 2.562-4.375-3.437-10.219-5.531-16.25-5.437Zm0 0" style="fill-rule:nonzero;fill:#eb8f00;fill-opacity:1;stroke-width:1;stroke-linecap:butt;stroke-linejoin:miter;stroke:#eb8f00;stroke-opacity:1;stroke-miterlimit:10" transform="scale(.125)"/><path d="M32.188 47.063s8.28 2.843 19.593-.344M95.813 47.063s-8.282 2.843-19.594-.344" style="fill:none;stroke-width:6;stroke-linecap:round;stroke-linejoin:miter;stroke:#242424;stroke-opacity:1;stroke-miterlimit:10" transform="scale(.125)"/><path d="M10.813 10.27A2.81 2.81 0 0 1 8 13.082a2.81 2.81 0 0 1-2.812-2.812A2.81 2.81 0 0 1 8 7.457a2.81 2.81 0 0 1 2.813 2.813m0 0" style="stroke:none;fill-rule:nonzero;fill:#242424;fill-opacity:1"/><path d="M3.625 8.598c1.055.183.125 1.355.047 1.824-.016.105.008.234.094.172.03-.028 2.547-1.54 2.547-1.54.273-.167.597-.14.765.133.168.274.047.575-.226.743L4.96 11.125 7.535 9.59c.274-.168.598-.14.766.133s.047.574-.227.742l-2.55 1.613 2.101-1.258c.273-.168.598-.136.766.133.168.274.046.578-.227.746l-2.082 1.32 1.285-.753c.274-.168.598-.137.766.132.168.274.012.52-.262.688 0 0-2.777 1.719-3.074 1.871-.75.375-2.399.281-3.125-.875-.902-1.43.183-2.672.484-3.164.235-.387.54-.777.739-1.2.175-.366.421-1.175.73-1.12m0 0" style="stroke:none;fill-rule:nonzero;fill:url(#b)"/><path d="M3.828 15.402c-.855 0-1.84-.343-2.371-1.187-.883-1.399-.043-2.64.36-3.235.046-.074.093-.14.124-.19.082-.138.176-.274.262-.407.168-.25.34-.508.465-.77.035-.074.074-.168.113-.265.211-.504.446-1.078.89-1q.46.082.626.394c.207.395-.027.903-.215 1.309l-.035.074c.351-.21.984-.594 2.137-1.285a.88.88 0 0 1 .59-.133.74.74 0 0 1 .519.348q.093.152.11.324l.007-.004c.406-.25.871-.16 1.106.215a.73.73 0 0 1 .074.62.87.87 0 0 1-.238.36.74.74 0 0 1 .25.254c.23.375.101.832-.309 1.086l-.184.117q.14.09.235.243c.12.195.14.414.05.613-.066.16-.203.3-.39.418-.113.07-2.793 1.722-3.098 1.879-.285.144-.668.222-1.078.222m-.101-6.52a.17.17 0 0 0-.204.067c-.101.16-.218.446-.277.59a6 6 0 0 1-.125.29c-.14.296-.324.566-.5.831-.09.137-.172.262-.25.39l-.14.212c-.395.586-1.06 1.566-.348 2.687.676 1.074 2.203 1.082 2.8.785.239-.117 2.29-1.379 3.06-1.855a.56.56 0 0 0 .198-.195c.016-.036.024-.079-.02-.149a.23.23 0 0 0-.167-.117.4.4 0 0 0-.254.062l-1.29.754a.245.245 0 0 1-.355-.12.26.26 0 0 1 .11-.313l2.066-1.313c.133-.082.25-.234.145-.402-.098-.164-.29-.133-.418-.05l-2.106 1.257a.25.25 0 0 1-.355-.11.26.26 0 0 1 .105-.324l2.54-1.605a.4.4 0 0 0 .175-.2.22.22 0 0 0-.027-.199c-.102-.168-.29-.132-.418-.054L5.09 11.344a.248.248 0 0 1-.36-.121.26.26 0 0 1 .11-.313L6.719 9.72a.4.4 0 0 0 .176-.2.23.23 0 0 0-.028-.199.24.24 0 0 0-.168-.117.4.4 0 0 0-.254.063c-.968.586-2.433 1.468-2.535 1.53a.3.3 0 0 1-.332.02c-.187-.113-.16-.363-.148-.433.023-.156.105-.332.199-.54.125-.273.316-.695.226-.866a.25.25 0 0 0-.128-.094m-.102 1.505c-.004 0-.004.004-.008.004q.001.001.008-.004m0 0" style="stroke:none;fill-rule:nonzero;fill:#eb8f00;fill-opacity:1"/></svg>